<?xml version="1.0" encoding="iso-8859-1"?>
<!-- Generator: Adobe Illustrator 19.1.0, SVG Export Plug-In . SVG Version: 6.00 Build 0)  -->
<svg version="1.1" id="&#xB808;&#xC774;&#xC5B4;_1" xmlns="http://www.w3.org/2000/svg" xmlns:xlink="http://www.w3.org/1999/xlink"
	 x="0px" y="0px" viewBox="0 0 153.071 238.11" style="enable-background:new 0 0 153.071 238.11;" xml:space="preserve">
<rect style="fill:#E60012;" width="153.071" height="238.11"/>
<g>
	<path style="fill:#FFFFFF;" d="M8.104,15.722v205.667c0,0,0.167,8.333,10.334,9.167l118.499,0.166c0,0,8.167-2.5,8.167-10.166
		v-204.5c0,0-0.833-8-9.333-8.667H17.938C17.938,7.389,9.604,7.555,8.104,15.722z"/>
	<path style="fill:#E60012;" d="M26.354,126.556c0,0-2.375-4.75-7.75-6.125s-10.125,1.75-10.375,4.625s-0.125,10.375-0.125,10.375
		s-0.25,3.25,5.5,4.375c0,0-3.375,2.125-2.5,9.75s6.375,10,6.375,10s-1.25,5.125,1.25,7.875s6.375,4.125,6.375,4.125
		s-3.75,4.25-4.625,6.625c0,0-4.125-1.125-7.25-0.125s-5.125,4.375-5.125,4.375l-0.125,18.75c0,0,1.5,1.875,5.375,3.125
		c0,0-1.25,4-1.5,8.875s2.875,9.875,8.875,11.625s13.25-0.75,14.625-1.875c0,0,5.5,4.625,13.625,2.875s10.125-8.375,10.125-8.375
		s1.875-6.125-1.75-12.125c0,0,4.25-1,5.625-2.625c0,0,0.5,8.375,8,11.5l4.25,7.75l9.125,3.25l14.25-3.875c0,0,3.25-1,3.875-1.25
		c0,0,0.875,6,8,7.75s11.125-1.75,11.5-2.5c0,0,3.625,3.5,8.5,4s9.5-4,9.5-8.375s-1.25-8.625-7.375-10.125c0,0,2-4.625-1.25-8.25
		s-9.375-1.875-11.875,0.5c0,0,1.375-5.625-3.375-11.125s-14.5-5.875-14.5-5.875s-1.75-4.75-5.875-7s-7.625-1.75-7.625-1.75
		s3.5-4.375,0.25-9.375s-9.875-6.875-16.25-2.75s-5.5,11.25-3.375,14.375c2.125,3.125,6.375,4.375,6.875,4.375
		c0,0-1.875,3.875-2.125,5.25c0,0-3.875-0.375-7.125,2.875c0,0-0.5-10.75-13.5-12c0,0-1.375-7.25-6.125-9.875
		c0,0,3.75-2.625,4.25-4.625c0,0,9.5-0.375,14.25-8.25c0,0,4.375,4.125,10.625,2.375s9.625-6.125,8.75-13s-8.125-9.125-9.875-9.375
		s-8.125,0.75-10,5.75c0,0-3.875-3.5-9.5-3.375c0,0-0.25-7.125-7.375-10c-7.125-2.875-16.5-1.5-19.625,4.375L26.354,126.556z"/>
	<path style="fill:#FDD000;" d="M35.229,189.681c0,0-3.125-0.625-5.25,2.875s-0.742,8.614,2.375,10c3.375,1.5,9.875,0.75,10-5.875
		S36.729,189.431,35.229,189.681z"/>
	<path style="fill:#FDD000;" d="M31.729,155.681c0,0-0.125-4.5,3.5-6.125s10.125,0.25,10,6.5c0,0-6.125-1-10.375,4.125
		L31.729,155.681z"/>
	<path style="fill:#FDD000;" d="M85.354,207.056c0,0,0.5-4.125,4.5-5.75s9,1,9,4.25c0,0-7,0.75-7.25,7l-1.25-1.25
		C90.354,211.306,88.979,207.806,85.354,207.056z"/>
	<path style="fill:#E60012;" d="M8.104,78.306l-0.125,10.75c0,0,2.375,6.125,8,6.5s13-2.25,14.875-8.5
		c1.875-6.25-1.5-9.625-1.5-9.625s-2.75-5-9.25-5.875S9.229,74.931,8.104,78.306z"/>
	<path style="fill:#E60012;" d="M46.729,84.306c0,0-6.5-1.375-10.75,4.75s-2.375,9.75-2.375,9.75s1.125,2.625,5.125,4.75
		s14.25,0.5,16.5-6.375S49.979,84.806,46.729,84.306z"/>
	<path style="fill:#E60012;" d="M99.729,126.181c0,0-8.125,0.5-10.125,6.625c-2,6.125,1.5,12.75,8.375,14.875s11.5-3,13-8.375
		S109.229,125.681,99.729,126.181z"/>
	<path style="fill:#E60012;" d="M129.854,110.931c0,0-5.5-1.125-8.875,4.25s-0.875,10.375,2.25,12.25
		c3.125,1.875,11.25,0.875,13.625-4.25C139.229,118.056,135.979,111.681,129.854,110.931z"/>
	<path style="fill:#E60012;" d="M121.604,141.931l-5.125,13.625c0,0,2.5,5.375,8.75,5.625s12.625-3.25,13.125-10
		s-5.125-13.25-14.5-9.875L121.604,141.931z"/>
	<path style="fill:#E60012;" d="M132.604,182.556c0,0-6,0.375-7.875,5.125s1.625,10.25,8,11.125s9.125-4.25,9-7.625
		S140.104,182.431,132.604,182.556z"/>
	<path d="M18.026,6.847c-5.861,0-10.63,4.769-10.63,10.63v203.157c0,5.861,4.769,10.63,10.63,10.63h117.157
		c5.861,0,10.63-4.769,10.63-10.63V17.476c0-5.861-4.768-10.63-10.63-10.63H18.026z M8.813,220.634V17.476
		c0-5.08,4.133-9.213,9.213-9.213h117.157c5.08,0,9.212,4.133,9.212,9.213v203.157c0,5.08-4.132,9.213-9.212,9.213H18.026
		C12.946,229.847,8.813,225.714,8.813,220.634z"/>
	<path d="M20.198,177.497c-10.01-2.426-12.737,5-12.764,5.077l1.339,0.465c0.096-0.271,2.439-6.581,11.644-4.051l0.605,0.167
		l0.238-0.581c0.197-0.48,4.961-11.758,16.536-10.812c10.648,0.869,13.568,8.312,14.36,12.671l0.109,0.601l0.611-0.02
		c0.447-0.014,10.97-0.217,12.525,10.89c0.534,3.82-0.086,6.861-1.845,9.04c-2.483,3.075-6.465,3.402-6.505,3.405l-1.276,0.094
		l0.757,1.033c0.04,0.055,3.983,5.554,1.405,12.586c-1.195,3.261-4.788,5.942-9.376,6.999c-4.975,1.146-9.729,0.111-12.717-2.766
		l-0.393-0.379l-0.468,0.284c-0.086,0.053-8.775,5.222-17.544,0.481c-8.574-4.634-3.237-17.722-3.183-17.854l0.271-0.651
		l-0.65-0.274c-1.735-0.731-4.66-2.295-5.124-3.376l-1.303,0.559c0.694,1.62,3.802,3.187,5.255,3.849
		c-0.485,1.364-1.546,4.764-1.546,8.46c0,3.928,1.208,8.158,5.605,10.535c8.502,4.596,16.634,0.75,18.528-0.278
		c3.345,2.93,8.356,3.996,13.586,2.791c5.049-1.163,9.029-4.187,10.389-7.892c0.709-1.937,0.978-3.756,0.978-5.401
		c0-3.521-1.221-6.216-1.982-7.563c1.533-0.317,4.338-1.211,6.385-3.737c1.567-1.935,2.356-4.419,2.356-7.408
		c0-0.868-0.067-1.779-0.2-2.732c-1.513-10.808-10.913-11.975-13.37-12.094c-0.872-4.082-4.048-12.327-15.524-13.264
		C26.808,165.442,21.378,175.08,20.198,177.497z"/>
	<path d="M34.41,183.181c-0.392,0.016-0.695,0.346-0.68,0.736l0.166,4.167c0.016,0.391,0.346,0.695,0.736,0.68
		c0.392-0.016,0.695-0.346,0.68-0.736l-0.166-4.167C35.131,183.47,34.801,183.165,34.41,183.181z"/>
	<path d="M30.243,184.208c-0.376,0.107-0.594,0.499-0.486,0.876l1,3.5c0.107,0.376,0.5,0.594,0.876,0.486
		c0.376-0.107,0.595-0.5,0.486-0.876l-1-3.5C31.012,184.318,30.62,184.1,30.243,184.208z"/>
	<path d="M25.677,187.171c-0.213,0.328-0.119,0.767,0.21,0.979l2.833,1.834c0.328,0.212,0.767,0.118,0.979-0.21
		c0.213-0.329,0.119-0.768-0.21-0.98l-2.833-1.833C26.327,186.748,25.89,186.842,25.677,187.171z"/>
	<path d="M22.787,191.109c-0.154,0.36,0.013,0.776,0.372,0.931l4.666,2c0.36,0.154,0.776-0.013,0.931-0.372
		c0.154-0.359-0.014-0.776-0.372-0.931l-4.666-2C23.357,190.583,22.941,190.751,22.787,191.109z"/>
	<path d="M26.654,194.856l-5,0.834c-0.386,0.064-0.646,0.429-0.582,0.815c0.065,0.386,0.43,0.646,0.816,0.582l5-0.833
		c0.386-0.064,0.646-0.43,0.583-0.816C27.406,195.053,27.041,194.792,26.654,194.856z"/>
	<path d="M26.703,198.472l-2.666,1.833c-0.323,0.222-0.404,0.663-0.183,0.985c0.222,0.323,0.663,0.404,0.985,0.183l2.666-1.833
		c0.323-0.222,0.404-0.663,0.183-0.985C27.467,198.331,27.025,198.25,26.703,198.472z"/>
	<path d="M28.47,201.524l-2.834,2.5c-0.293,0.259-0.321,0.706-0.062,1c0.259,0.293,0.707,0.321,1,0.063l2.834-2.5
		c0.293-0.259,0.321-0.707,0.062-1C29.211,201.293,28.763,201.265,28.47,201.524z"/>
	<path d="M29.91,204.75l-0.667,3.333c-0.076,0.384,0.172,0.757,0.556,0.834c0.384,0.076,0.758-0.172,0.834-0.556l0.667-3.333
		c0.076-0.384-0.172-0.758-0.556-0.834C30.36,204.117,29.986,204.366,29.91,204.75z"/>
	<path d="M33.729,205.389v3.333c0,0.392,0.317,0.709,0.709,0.709c0.392,0,0.708-0.317,0.708-0.709v-3.333
		c0-0.391-0.316-0.708-0.708-0.708C34.047,204.681,33.729,204.998,33.729,205.389z"/>
	<path d="M36.941,204.262c-0.347,0.183-0.479,0.611-0.297,0.957l1.667,3.167c0.182,0.346,0.61,0.479,0.957,0.297
		c0.346-0.183,0.48-0.611,0.297-0.957l-1.667-3.167C37.716,204.213,37.287,204.079,36.941,204.262z"/>
	<path d="M39.176,203.504c-0.212,0.329-0.118,0.768,0.211,0.98c1.15,0.744,2.909,1.931,3.217,2.238c0.277,0.277,0.726,0.277,1.002,0
		c0.277-0.276,0.277-0.725,0-1.002c-0.526-0.526-2.966-2.114-3.449-2.427C39.827,203.081,39.389,203.175,39.176,203.504z"/>
	<path d="M41.632,201.417c-0.169,0.354-0.018,0.776,0.335,0.944l3.5,1.667c0.354,0.169,0.775,0.018,0.944-0.335
		c0.168-0.354,0.018-0.775-0.335-0.944l-3.5-1.667C42.223,200.914,41.8,201.064,41.632,201.417z"/>
	<path d="M42.744,199.077c-0.079,0.384,0.166,0.759,0.55,0.839l4,0.833c0.383,0.08,0.758-0.166,0.838-0.549
		c0.08-0.384-0.166-0.759-0.549-0.839l-4-0.833C43.199,198.448,42.824,198.694,42.744,199.077z"/>
	<path d="M44.197,196.184c-0.39,0.041-0.672,0.39-0.631,0.778c0.041,0.39,0.39,0.672,0.779,0.631c1.3-0.137,2.92-0.202,3.26-0.083
		c0.337,0.119,0.759-0.009,0.918-0.328c0.16-0.319,0.106-0.686-0.192-0.884C47.858,195.984,46.468,195.945,44.197,196.184z"/>
	<path d="M47.44,191.699l-3.5,0.833c-0.381,0.091-0.616,0.473-0.525,0.854c0.091,0.381,0.473,0.616,0.853,0.525l3.5-0.833
		c0.381-0.091,0.616-0.473,0.525-0.854C48.203,191.844,47.821,191.609,47.44,191.699z"/>
	<path d="M45.668,189.066l-2.833,1.167c-0.362,0.149-0.534,0.563-0.386,0.926c0.149,0.361,0.563,0.534,0.926,0.385l2.833-1.167
		c0.362-0.148,0.534-0.562,0.386-0.925C46.444,189.09,46.03,188.918,45.668,189.066z"/>
	<path d="M43.286,185.705l-2.666,2.5c-0.285,0.268-0.3,0.716-0.032,1.002c0.267,0.285,0.716,0.3,1.002,0.032l2.666-2.5
		c0.285-0.268,0.3-0.717,0.032-1.002C44.02,185.452,43.572,185.438,43.286,185.705z"/>
	<path d="M37.899,184.658l-0.334,3.667c-0.035,0.39,0.252,0.734,0.642,0.77c0.39,0.035,0.734-0.252,0.769-0.642l0.334-3.667
		c0.035-0.39-0.252-0.734-0.642-0.77C38.279,183.98,37.934,184.268,37.899,184.658z"/>
	<path d="M73.911,209.861c-1.617,2.297-1.969,5.074-0.966,7.62c2.276,5.779,8.65,5.629,8.988,5.616
		c2.848,0.395,5.712-0.371,7.679-2.067c1.658-1.431,2.534-3.381,2.534-5.642c0-5.342-4.354-9.355-10.353-9.542
		C78.741,205.752,75.722,207.29,73.911,209.861z M74.264,216.962c-0.837-2.125-0.551-4.357,0.807-6.284
		c1.516-2.153,4.137-3.493,6.679-3.414c5.203,0.162,8.979,3.58,8.979,8.125c0,1.836-0.706,3.416-2.042,4.568
		c-1.657,1.43-4.203,2.093-6.645,1.73l-0.069-0.01l-0.071,0.004C81.669,221.692,76.212,221.907,74.264,216.962z"/>
	<path d="M95.997,205.568c-4.507,1.891-4.956,5.935-4.956,7.47c0,0.285,0.013,0.446,0.02,0.529
		c-0.072,0.345-0.127,0.695-0.127,1.054c0,1.868,0.963,3.854,2.648,5.324c2.172,1.896,4.958,2.433,7.452,1.434
		c5.026-2.011,7.013-5.117,6.441-10.072c-0.26-2.254-1.571-4.227-3.599-5.412C101.58,204.551,98.708,204.432,95.997,205.568z
		 M94.514,218.878c-1.641-1.433-2.467-3.502-2.055-5.15l0.032-0.128l-0.017-0.133c-0.023-0.189-0.517-4.668,4.071-6.592
		c2.295-0.962,4.706-0.874,6.615,0.243c1.639,0.959,2.698,2.545,2.906,4.352c0.499,4.325-1.111,6.815-5.559,8.595
		C98.517,220.86,96.277,220.417,94.514,218.878z"/>
	<path d="M73.059,215.096l0.093-1.414c-9.354-0.613-9.184-10.838-9.172-11.273l-1.417-0.041
		C62.559,202.488,62.333,214.393,73.059,215.096z"/>
	<path d="M86.332,177.188c-10.841,1.634-13.086,9.385-13.506,11.56c-5.673,0.506-6.984,3.236-7.037,3.356l1.293,0.579
		c0.012-0.022,1.158-2.288,6.396-2.587l0.61-0.035l0.056-0.61c0.033-0.372,0.96-9.138,12.398-10.861
		c11.388-1.716,14.266,7.443,14.382,7.834l0.143,0.476l0.497,0.03c0.114,0.006,11.501,0.74,15.59,7.975
		c2.245,3.972,2.261,8.999,0.038,12.509c-2.015,3.184-5.579,4.759-10.037,4.436l-0.102,1.414c5.003,0.362,9.028-1.446,11.336-5.091
		c1.247-1.97,1.87-4.356,1.87-6.803c0-2.448-0.624-4.955-1.871-7.162c-4.041-7.149-14.015-8.449-16.274-8.654
		C101.313,183.515,97.433,175.516,86.332,177.188z"/>
	<path d="M79.442,203.803c-0.14,0.366,0.044,0.775,0.41,0.915l3.5,1.333c0.365,0.14,0.774-0.044,0.914-0.409
		c0.14-0.366-0.044-0.775-0.41-0.915l-3.5-1.333C79.991,203.254,79.582,203.438,79.442,203.803z"/>
	<path d="M81.034,200.635c-0.232,0.316-0.165,0.759,0.15,0.991l3.167,2.333c0.315,0.232,0.759,0.165,0.99-0.149
		c0.232-0.315,0.165-0.759-0.15-0.991l-3.167-2.333C81.71,200.253,81.266,200.32,81.034,200.635z"/>
	<path d="M83.288,198.204c-0.286,0.267-0.302,0.715-0.035,1.001l2.333,2.5c0.268,0.286,0.716,0.302,1.002,0.035
		c0.286-0.268,0.302-0.716,0.034-1.002l-2.332-2.5C84.022,197.952,83.574,197.936,83.288,198.204z"/>
	<path d="M86.455,196.588c-0.351,0.175-0.492,0.6-0.317,0.951l1.333,2.667c0.175,0.35,0.601,0.492,0.95,0.316
		c0.351-0.175,0.492-0.601,0.317-0.95l-1.333-2.667C87.23,196.555,86.805,196.413,86.455,196.588z"/>
	<path d="M90.197,195.018c-0.389,0.04-0.672,0.39-0.631,0.778l0.333,3.167c0.041,0.39,0.39,0.672,0.779,0.631
		c0.389-0.041,0.672-0.39,0.631-0.779l-0.333-3.167C90.935,195.259,90.587,194.977,90.197,195.018z"/>
	<path d="M92.728,195.389v3.5c0,0.392,0.317,0.709,0.709,0.709s0.709-0.317,0.709-0.709v-3.5c0-0.391-0.317-0.708-0.709-0.708
		S92.728,194.998,92.728,195.389z"/>
	<path d="M95.741,195.59l-0.666,3.5c-0.073,0.384,0.18,0.755,0.563,0.828c0.385,0.073,0.756-0.179,0.829-0.563l0.666-3.5
		c0.073-0.385-0.18-0.756-0.563-0.829C96.185,194.952,95.814,195.205,95.741,195.59z"/>
	<path d="M99.584,197.241l-2,2.167c-0.266,0.288-0.248,0.736,0.04,1.002c0.287,0.265,0.736,0.247,1.001-0.041l2-2.167
		c0.266-0.287,0.248-0.735-0.04-1.001C100.298,196.936,99.849,196.954,99.584,197.241z"/>
	<path d="M102.303,199.914l-2.833,1.334c-0.354,0.166-0.506,0.589-0.34,0.942c0.167,0.355,0.589,0.507,0.943,0.34l2.833-1.334
		c0.354-0.166,0.506-0.589,0.34-0.942C103.079,199.899,102.657,199.748,102.303,199.914z"/>
	<path d="M103.168,202.733l-2.833,1.167c-0.362,0.148-0.535,0.563-0.386,0.925c0.149,0.362,0.564,0.534,0.925,0.386l2.833-1.167
		c0.362-0.148,0.535-0.563,0.386-0.925C103.943,202.757,103.529,202.585,103.168,202.733z"/>
	<path d="M124.209,212.404c-1.815,1.323-3.98,3.841-3.98,8.317c0,9.092,10.59,9.374,10.697,9.376h0.036l0.037-0.003
		c3.702-0.321,7.456-1.114,9.119-6.842c1.607-5.539-0.956-10.929-5.964-12.539C131.519,209.867,127.423,210.061,124.209,212.404z
		 M121.646,220.722c0-3.071,1.175-5.552,3.397-7.172c2.796-2.038,6.458-2.199,8.677-1.486c3.392,1.09,5.455,4.253,5.455,7.911
		c0,0.938-0.136,1.907-0.419,2.883c-1.411,4.859-4.386,5.519-7.845,5.821C130.305,228.664,121.646,228.309,121.646,220.722z"/>
	<path d="M129.415,218.039c-5.502,1.528-7.565,0.272-7.586,0.26l-0.795,1.173c0.25,0.173,2.617,1.64,8.76-0.067
		c6.249-1.735,7.89-5.243,7.957-5.392l-1.291-0.586C136.446,213.457,134.97,216.496,129.415,218.039z"/>
	<path d="M134.382,229.313l0.779-1.184c-5.872-3.863-5.535-8.805-5.518-9.014l-1.412-0.125
		C128.21,219.233,127.77,224.964,134.382,229.313z"/>
	<path d="M109.718,228.229c7.988,2.604,13.011-2.297,13.221-2.507l-1.001-1.003c-0.187,0.185-4.643,4.489-11.78,2.162
		c-7.001-2.283-6.854-6.763-6.846-6.952l-1.414-0.087C101.882,220.076,101.621,225.589,109.718,228.229z"/>
	<path d="M115.76,210.408c0.048,0.012,4.782,1.279,5.661,4.5l1.367-0.373c-1.096-4.018-6.446-5.44-6.674-5.499L115.76,210.408z"/>
	<path d="M105.667,217.279c0.199,0.157,5.014,3.833,15.186,2.646l-0.164-1.407c-9.541,1.112-14.104-2.32-14.149-2.355
		L105.667,217.279z"/>
	<path d="M110.897,228.003l1.414,0.104c0.325-4.404,1.147-8.709,1.156-8.752l-1.392-0.268
		C112.067,219.132,111.229,223.514,110.897,228.003z"/>
	<path d="M118.685,203.323l1.17,0.8c0.106-0.152,2.675-3.731,8.744-2.214c1.505,0.377,2.563,1.142,3.146,2.274
		c1.346,2.613-0.119,6.408-0.134,6.446l1.318,0.52c0.07-0.179,1.716-4.421,0.078-7.61c-0.777-1.514-2.146-2.524-4.065-3.005
		C121.879,198.768,118.812,203.137,118.685,203.323z"/>
	<path d="M124.732,212.458l1.41-0.138c-0.225-2.307-0.559-8.765,0.588-10.934l-1.252-0.663
		C123.896,203.712,124.697,212.102,124.732,212.458z"/>
	<rect x="118.187" y="206.097" transform="matrix(-0.8 -0.6 0.6 -0.8 95.4044 445.4117)" width="7.5" height="1.417"/>
	<path d="M126.15,184.573c-1.869,1.971-2.668,4.722-2.248,7.746c0.901,6.489,9.449,7.247,9.813,7.276l0.036,0.002
		c2.505,0.071,4.626-0.707,6.135-2.253c1.808-1.852,2.352-4.396,2.26-6.16c-0.107-2.035-1.013-8.724-8.147-9.335
		C130.905,181.584,128.045,182.577,126.15,184.573z M125.307,192.124c-0.065-0.459-0.096-0.91-0.096-1.351
		c0-2.045,0.679-3.866,1.968-5.225c1.619-1.706,3.998-2.519,6.698-2.287c5.831,0.5,6.735,5.76,6.853,7.997
		c0.077,1.465-0.37,3.572-1.857,5.097c-1.238,1.268-2.939,1.882-5.058,1.825C133.662,198.168,126.047,197.458,125.307,192.124z"/>
	<path d="M132.27,191.367c-4.974,1.205-7.212-1.182-7.305-1.284l-1.06,0.941c0.113,0.129,2.85,3.138,8.698,1.72
		c5.854-1.419,7.137-6.475,7.188-6.689l-1.377-0.335C138.371,185.901,137.262,190.156,132.27,191.367z"/>
	<path d="M136.161,198.875l0.553-1.306c-3.793-1.604-3.58-5.306-3.569-5.462l-1.413-0.106
		C131.727,192.05,131.413,196.865,136.161,198.875z"/>
	<path d="M70.07,165.879c-2.649,2.393-3.987,5.581-3.671,8.747c0.91,9.098,8.905,9.797,8.986,9.803l0.106-1.413
		c-0.28-0.023-6.893-0.64-7.683-8.53c-0.271-2.713,0.899-5.467,3.211-7.555c2.854-2.577,6.882-3.642,10.775-2.848
		c4.359,0.89,5.969,4.042,6.539,5.842c0.953,3.005,0.327,5.839-0.746,6.979l1.031,0.972c1.614-1.714,2.062-5.238,1.066-8.379
		c-0.665-2.096-2.538-5.767-7.607-6.802C77.746,161.811,73.257,163.001,70.07,165.879z"/>
	<path d="M76.07,182.657l1.402-0.203c-0.016-0.111-1.504-11.207,6.427-18.028l-0.924-1.074C74.444,170.688,76,182.172,76.07,182.657
		z"/>
	<path d="M67.651,169.857l0.239,1.396c0.057-0.01,5.735-0.955,10.187,0.316l0.389-1.362C73.7,168.846,67.896,169.815,67.651,169.857
		z"/>
	<path d="M18.222,156.941c-1.884,2.312-2.226,5.722-0.89,8.896c1.464,3.479,4.532,5.756,8.209,6.09l0.128-1.411
		c-3.146-0.286-5.773-2.241-7.03-5.229c-1.132-2.69-0.871-5.546,0.682-7.451c1.6-1.963,4.22-3.048,7.011-2.903
		c2.731,0.142,5.167,1.454,6.515,3.51c2.896,4.421,1.348,8.003,1.28,8.153l1.289,0.588c0.082-0.178,1.959-4.415-1.384-9.518
		c-1.595-2.433-4.445-3.983-7.627-4.148C23.164,153.35,20.105,154.63,18.222,156.941z"/>
	<path d="M34.305,160.238l1.267,0.637c0.082-0.161,2.072-3.944,7.533-3.944c3.08,0,4.815,1.294,5.728,2.379
		c1.208,1.437,1.734,3.414,1.408,5.291c-0.591,3.392-3.621,4.748-3.75,4.805l0.561,1.302c0.157-0.067,3.861-1.699,4.586-5.863
		c0.397-2.284-0.246-4.693-1.72-6.446c-1.107-1.315-3.187-2.884-6.813-2.884C36.74,155.514,34.4,160.046,34.305,160.238z"/>
	<path d="M39.238,127.514c-9.169,0.424-11.791,7.409-12.462,10.09c-1.562-0.84-5.012-2.241-9.197-1.064
		c-4.53,1.273-8.524,6.553-7.002,13.827c1.554,7.423,6.19,9.732,6.387,9.827l0.617-1.276c-0.042-0.021-4.214-2.142-5.616-8.841
		c-1.521-7.267,2.754-11.261,5.998-12.173c4.923-1.385,8.856,1.365,8.896,1.393l0.973,0.694l0.144-1.186
		c0.047-0.385,1.246-9.41,11.329-9.876c6.596-0.305,11.312,2.76,13.527,5.729c1.312,1.758,1.863,3.609,1.437,4.831l-0.332,0.956
		l1.013-0.015c0.099-0.002,9.94-0.062,11.463,6.941c0.779,3.586-0.05,7.43-2.274,10.545c-1.966,2.752-5.895,6.218-13.449,7.102
		l0.165,1.407c6.296-0.736,11.423-3.465,14.438-7.686c1.85-2.59,2.824-5.641,2.824-8.688c0-1-0.104-1.999-0.318-2.981
		c-1.484-6.832-9.452-7.871-12.044-8.028c0.016-0.154,0.072-0.292,0.072-0.453c0-1.459-0.647-3.157-1.857-4.779
		C51.534,130.551,46.388,127.184,39.238,127.514z"/>
	<path d="M25.771,153.347c-0.392,0-0.709,0.317-0.709,0.709c0,0.392,0.317,0.708,0.709,0.708h4.333c0.392,0,0.709-0.316,0.709-0.708
		c0-0.392-0.317-0.709-0.709-0.709H25.771z"/>
	<path d="M25.587,151.705c-0.102,0.378,0.122,0.767,0.5,0.868l4.334,1.167c0.378,0.102,0.767-0.123,0.868-0.501
		c0.102-0.378-0.122-0.767-0.5-0.868l-4.334-1.166C26.077,151.102,25.688,151.327,25.587,151.705z"/>
	<path d="M27.143,149.061c-0.182,0.347-0.048,0.775,0.299,0.956l3.5,1.833c0.347,0.182,0.776,0.048,0.957-0.299
		c0.181-0.347,0.048-0.775-0.3-0.957l-3.5-1.833C27.753,148.58,27.324,148.713,27.143,149.061z"/>
	<path d="M29.003,145.496c-0.309,0.24-0.364,0.686-0.124,0.994l2.333,3c0.24,0.31,0.686,0.365,0.994,0.125
		c0.31-0.24,0.365-0.686,0.125-0.995l-2.333-3C29.758,145.311,29.312,145.256,29.003,145.496z"/>
	<path d="M32.362,142.89c-0.367,0.134-0.558,0.54-0.424,0.908l1.334,3.666c0.134,0.368,0.54,0.558,0.908,0.424
		c0.367-0.134,0.558-0.54,0.424-0.908l-1.334-3.666C33.137,142.945,32.73,142.756,32.362,142.89z"/>
	<path d="M35.983,141.857c-0.386,0.067-0.644,0.434-0.577,0.819l0.667,3.834c0.066,0.385,0.434,0.644,0.819,0.576
		c0.386-0.066,0.644-0.434,0.577-0.819l-0.667-3.834C36.736,142.049,36.369,141.79,35.983,141.857z"/>
	<path d="M39.232,142.663l-0.334,4c-0.032,0.39,0.258,0.732,0.648,0.765c0.39,0.033,0.732-0.257,0.765-0.647l0.334-4
		c0.032-0.391-0.258-0.733-0.647-0.766C39.607,141.983,39.265,142.273,39.232,142.663z"/>
	<path d="M44.309,144.684l-2.333,2c-0.297,0.255-0.331,0.702-0.076,1c0.255,0.297,0.702,0.331,0.999,0.076l2.333-2
		c0.297-0.255,0.331-0.702,0.077-0.999C45.055,144.464,44.607,144.43,44.309,144.684z"/>
	<path d="M48.275,146.928l-3.5,1.833c-0.347,0.182-0.48,0.61-0.299,0.957c0.182,0.347,0.61,0.48,0.957,0.299l3.5-1.833
		c0.347-0.182,0.48-0.61,0.299-0.957C49.051,146.88,48.622,146.746,48.275,146.928z"/>
	<path d="M45.73,151.858c-0.017,0.391,0.286,0.722,0.677,0.738l3.833,0.167c0.392,0.017,0.722-0.286,0.739-0.678
		c0.017-0.391-0.286-0.722-0.678-0.738l-3.833-0.167C46.078,151.164,45.747,151.467,45.73,151.858z"/>
	<path d="M46.735,155.301c-0.049,0.389,0.227,0.743,0.615,0.791l4,0.5c0.388,0.049,0.742-0.227,0.791-0.615
		c0.048-0.388-0.228-0.742-0.615-0.791l-4-0.5C47.138,154.638,46.783,154.913,46.735,155.301z"/>
	<path d="M8.067,134.71c-0.375,0.112-0.587,0.508-0.475,0.883c1.67,5.566,6.781,4.499,6.832,4.488
		c0.381-0.085,0.62-0.461,0.537-0.843c-0.083-0.381-0.46-0.623-0.842-0.542c-0.157,0.034-3.885,0.776-5.17-3.511
		C8.838,134.811,8.442,134.598,8.067,134.71z"/>
	<path d="M7.58,125.064c-0.087,0.38,0.15,0.758,0.53,0.846c0.38,0.089,0.761-0.147,0.851-0.527c0.051-0.212,1.321-5.193,8.388-4.291
		c7.889,1.007,8.381,8.225,8.381,8.297c0,0.392,0.317,0.709,0.709,0.709c0.392,0,0.708-0.317,0.708-0.709
		c0-1.79-1.632-8.683-9.618-9.703C9.154,118.617,7.595,124.999,7.58,125.064z"/>
	<path d="M8.377,129.428c7.155,0.622,10.553,7.69,10.586,7.762l1.284-0.601c-0.15-0.321-3.765-7.879-11.747-8.573L8.377,129.428z"/>
	<path d="M13.414,130.398l1.382,0.314c0.016-0.069,1.644-6.962,6.359-8.483l-0.434-1.349
		C15.233,122.651,13.485,130.083,13.414,130.398z"/>
	<path d="M72.663,136.855c-6.854,1.054-8.5,5.942-8.566,6.149l1.349,0.437c0.058-0.174,1.479-4.27,7.434-5.186
		c2.661-0.409,5.328,0.449,7.51,2.418c2.462,2.222,3.836,5.467,3.675,8.68c-0.326,6.511-6.194,9.282-9.252,9.838
		c-3.444,0.626-7.504-0.953-8.677-2.273l-1.059,0.941c1.451,1.633,5.954,3.46,9.989,2.727c3.44-0.625,10.044-3.763,10.415-11.161
		c0.182-3.635-1.366-7.299-4.142-9.804C78.87,137.395,75.709,136.387,72.663,136.855z"/>
	<path d="M69.173,139.117c8.848,6.793,5.612,20.131,5.578,20.265l1.374,0.348c0.147-0.584,3.505-14.37-6.089-21.736L69.173,139.117z
		"/>
	<path d="M75.847,150.716c0.163,0.064,4.062,1.561,8.694,0.874l-0.207-1.402c-4.247,0.63-7.935-0.778-7.972-0.792L75.847,150.716z"
		/>
	<path d="M99.782,125.514c-0.116-0.002-11.043-0.051-11.22,10.696c-0.062,3.8,1.203,6.898,3.761,9.211
		c3.435,3.105,8.017,3.702,9.697,3.505c2.929-0.344,10.69-4.09,9.789-13.107c-0.448-4.483-2.675-6.985-4.464-8.294
		C104.756,125.629,101.722,125.158,99.782,125.514z M99.918,126.915c1.569-0.33,4.302,0.077,6.591,1.753
		c2.231,1.633,3.577,4.154,3.891,7.291c0.786,7.864-6.087,11.271-8.545,11.56c-1.413,0.166-5.537-0.396-8.581-3.149
		c-2.241-2.025-3.349-4.763-3.293-8.136c0.152-9.324,9.388-9.308,9.78-9.303l0.079,0.001L99.918,126.915z"/>
	<path d="M96.232,147.485l1.41,0.141c1.439-14.386,9.697-18.729,9.78-18.771l-0.636-1.267
		C106.419,127.772,97.754,132.271,96.232,147.485z"/>
	<path d="M89.716,133.762c0.061,0.005,6.125,0.52,9.233,3.474l0.977-1.027c-3.476-3.302-9.83-3.838-10.099-3.859L89.716,133.762z"/>
	<path d="M120.834,142.164l0.874,1.116c0.236-0.184,5.87-4.464,12.184-0.46c2.513,1.594,3.799,4.205,3.622,7.352
		c-0.215,3.812-2.566,7.545-5.719,9.079c-3.304,1.606-7.462,1.6-10.594-0.017c-2.167-1.118-3.551-2.881-3.897-4.963l-1.398,0.233
		c0.423,2.534,2.072,4.661,4.646,5.989c3.516,1.814,8.173,1.826,11.863,0.031c3.594-1.748,6.272-5.973,6.515-10.274
		c0.204-3.63-1.355-6.774-4.277-8.629C127.478,137.074,120.899,142.112,120.834,142.164z"/>
	<path d="M120.989,147.421c0.089,0.015,8.959,1.56,14.543,9.219l1.145-0.835c-5.936-8.142-15.072-9.719-15.458-9.782
		L120.989,147.421z"/>
	<path d="M126.873,148.46l1.128,0.858c0.03-0.039,3.066-3.925,8.497-4.391l-0.121-1.412
		C130.3,144.037,127.011,148.28,126.873,148.46z"/>
	<path d="M127.52,110.185c-7.474,0.89-8.444,9.045-8.453,9.127l-0.001,0.006c-0.317,3.172,0.493,5.777,2.342,7.535
		c1.89,1.796,4.795,2.55,7.97,2.069c5.179-0.785,8.395-4.089,8.602-8.837c0.093-2.125-0.68-5.424-3.159-7.724
		C132.917,110.596,130.392,109.844,127.52,110.185z M127.688,111.593c2.48-0.296,4.557,0.312,6.168,1.809
		c1.989,1.845,2.793,4.656,2.707,6.623c-0.178,4.079-2.874,6.812-7.398,7.497c-2.738,0.415-5.21-0.203-6.78-1.695
		c-1.297-1.233-1.968-3.017-1.968-5.204c0-0.375,0.019-0.762,0.059-1.159C120.511,119.157,121.351,112.348,127.688,111.593z"/>
	<path d="M120.356,116.351l0.161,1.408c0.098-0.012,9.853-1.026,15.365,5.903l1.109-0.882
		C130.982,115.226,120.788,116.302,120.356,116.351z"/>
	<path d="M126.647,117.22l1.248,0.672c0.022-0.04,2.239-4.076,5.721-4.984l-0.357-1.371
		C129.173,112.601,126.749,117.031,126.647,117.22z"/>
	<path d="M18.425,70.847c-8.921,0.175-11.146,7.605-11.168,7.681l1.362,0.391c0.077-0.265,1.983-6.5,9.833-6.654
		c3.268-0.063,6.096,0.982,8.179,3.024c2.148,2.107,3.432,5.198,3.432,8.268c0,4.832-2.837,10.646-10.834,11.126
		c-3.739,0.225-6.691-0.652-8.537-2.534c-1.35-1.377-2.035-3.272-1.88-5.202l-1.413-0.113C7.211,89.171,8.043,91.47,9.68,93.14
		c1.493,1.522,4.376,3.272,9.634,2.957c8.98-0.539,12.166-7.093,12.166-12.541c0-3.442-1.441-6.912-3.856-9.28
		C25.263,71.961,22.082,70.775,18.425,70.847z"/>
	<path d="M21.628,94.853l1.286-0.595c-5.921-12.803-0.428-22.074-0.371-22.166l-1.209-0.74
		C21.088,71.752,15.373,81.33,21.628,94.853z"/>
	<path d="M9.015,77.259c0.074,0.009,7.452,1.032,9.765,6.891l1.318-0.52c-2.624-6.647-10.566-7.733-10.903-7.776L9.015,77.259z"/>
	<path d="M42.439,83.7c-8.052,1.926-8.697,10.644-8.707,10.8c-0.037,0.389-0.057,0.775-0.057,1.159c0,2.861,1.022,5.521,2.835,7.28
		c2.018,1.957,4.905,2.759,8.351,2.319c9.189-1.174,11.118-6.287,11.118-10.37c0-3.197-1.991-7.002-4.844-9.252
		C49.353,84.23,46.398,82.753,42.439,83.7z M37.498,101.922c-1.752-1.699-2.632-4.428-2.355-7.298l0.002-0.025
		c0.021-0.318,0.573-7.834,7.624-9.521c3.406-0.814,5.952,0.459,7.488,1.671c2.826,2.23,4.305,5.783,4.305,8.14
		c0,5.111-3.324,8.127-9.881,8.964C41.679,104.236,39.195,103.568,37.498,101.922z M33.73,94.513c0,0,0.002-0.021,0.002-0.025
		L33.73,94.513z"/>
	<path d="M35.275,101.138l1.324,0.505c0.146-0.375,3.713-9.173,18.3-8.38l0.077-1.415C39.307,90.996,35.433,100.723,35.275,101.138z
		"/>
	<path d="M40.988,95.571l1.233-0.698c-0.027-0.048-2.678-4.817-1.596-9.146l-1.375-0.344C38.029,90.269,40.867,95.357,40.988,95.571
		z"/>
	<path d="M21.771,136.722c0,0,7.583-15.916,8.083-49.166c0,0,2.084-4.667-0.75-10.334c0,0-2.333-41.666-17.5-61
		c0,0-1.666-2.999,0.5-4.333c2.167-1.333,4.5,0.333,6,2.833s16.75,27.334,18.5,73.834c0,0-3.999,2.666-1.166,12
		c0,0,0.333,1.666,0.333,2.166s-2.5,16.834-5.5,29c0,0-2.834,4-3,7L21.771,136.722z"/>
	<path d="M96.937,126.722c0,0,1.834-23,3.334-27.666c1.5-4.667,6.667-2.5,5.5,1.833c-1.167,4.333-3.333,17.666-3.5,25.333
		C102.271,126.222,98.77,125.889,96.937,126.722z"/>
	<path d="M97.437,147.722c0,0-0.167,8.833,2.5,15.5c0,0-8,10.833-10.333,14.5c0,0,6.167-0.5,10,4.834c0,0-0.667-3.667,0-5.667
		c0.667-2,16.5-16.5,20-24.667c3.5-8.166,4.166-18.333,3.333-24.666c0,0-6.333-3.001-1.333-13.334c0,0-2.834-14.167,1.333-30.5
		s11.167-21.333,12.167-22.333s1.667-2.5,0.5-4c-1.167-1.5-4.999-0.167-6.333,1.167c-1.334,1.333-8.166,9.833-12,20.5
		c-3.834,10.666-3.167,28-2.167,35.5s6.833,29.833-9.167,42.5c0,0-3.167-4-3-8.667C102.937,148.389,100.103,148.722,97.437,147.722z
		"/>
	<path d="M47.604,226.222c0,0,4,3.834,3.167,4.167h48.666c0,0-2.333-4.667-0.333-8.833c0,0-6.167-1.667-7.5-5
		c0,0-0.332,5.333-7.833,5.833c-7.5,0.5-10.833-4.666-11.167-7.5l-3.166-1.333c0,0,0.5,2.166-0.334,3.5
		c-0.833,1.333-1.5,4.166-1,5.5c0,0-1.666-2-4-3c-2.333-1-4.666-2-5-3C59.104,216.556,57.438,224.222,47.604,226.222z"/>
</g>
</svg>
