<?xml version="1.0" encoding="iso-8859-1"?>
<!-- Generator: Adobe Illustrator 19.1.0, SVG Export Plug-In . SVG Version: 6.00 Build 0)  -->
<svg version="1.1" id="&#xB808;&#xC774;&#xC5B4;_1" xmlns="http://www.w3.org/2000/svg" xmlns:xlink="http://www.w3.org/1999/xlink"
	 x="0px" y="0px" viewBox="0 0 153.071 238.11" style="enable-background:new 0 0 153.071 238.11;" xml:space="preserve">
<rect style="fill:#E60012;" width="153.071" height="238.11"/>
<g>
	<path style="fill:#FFFFFF;" d="M135.536,7.139l-118-0.333c0,0-8.001-0.5-9.167,10.666L8.203,205.306l0.333,17
		c0,0,0.333,9.334,12,9.334l113.834,0.166c0,0,9.332,0,10.332-10l0.168-5.334l-0.5-199.666
		C144.37,16.806,144.536,8.472,135.536,7.139z"/>
	<path style="fill:#F5B090;" d="M126.036,106.306c0,0,6.334-1.167,9.834-4.167c0,0-4.668-3.833-5.168-5.5l4.834-4.333
		c0,0,0.5-5.167-12.166-4.167c0,0,1.332-8.166-4.168-12.5l-9.166-3.167c0,0-3.834-1.999-5-2.333
		c-1.166-0.333-1.166-5.333-1.166-5.333l10.166-17.167l11.334-11.5l4-4.5l-0.5-4.167c0,0,0.999-3.833-11.668-5
		c0,0-0.416-6.166-2.666-8.291c0,0-3.125,1.125-4.125,3.125c0,0-2.375-2.875-4.125-2.875s-3.125,0.625-3.125,0.625l-2.875,4.375
		c0,0-5.5,9.25-5.75,9.625s-9.625,9.875-9.625,9.875l-9.125,4.25l-10.625,1.5h-6.625l-9.625-7.25l2.5-8.25l4-2.5l-1.125-6.375
		c0,0-2-3.875-2.375-4.375S38.286,6.806,38.286,6.806h-9.375l-13,4.125l-3,4.75l0.75,5.5l-0.625,2l3,9.875l5.125,22.625l0.625,7.125
		c0,0-5.25-0.5-8.25,1.125c0,0-0.375,2,0.125,4.25l-3.875,1.75c0,0-0.25,5.25,5,10.75c0,0-4.875,3.375-5.5,9.5s1,6,1,6l8.125,5.625
		l3.125-0.25l4.125-4.125l1.875-2.75c0,0,4.25,5.125,10.875,6.375s18.125,2.875,18.125,2.875l27.5-3.875l32.75,5.375
		L126.036,106.306z"/>
	<path style="fill:#E60012;" d="M124.036,16.306c0,0,2.834,3.833,8.834,2.5c6-1.334,6-4.667,6-5.5s-1.834-4.333-8.334-2.833
		C124.036,11.973,124.036,14.972,124.036,16.306z"/>
	<path style="fill:#E60012;" d="M128.161,48.306c0,0,4.625,0.625,8.125-1.875s3.375-6.125,0-7.625s-8.375,0.5-8.375,0.5
		s-1.375-3.125-3.5-4.25s-8.375-0.875-8.375-0.875s-0.5-0.75-0.375-1.25s0-7.375-3.625-11.5c0,0-3.5,0-5.625,1.625
		c0,0-1.125-1.875-3.5-3.25c0,0,0.25-5.375,3.875-5.125c0,0,0.5-3.625-3-4.875c0,0-3.25,1.25-4.5,2.5c0,0-2-3.125-3.875-3.5
		c0,0-4.625,0.75-6.125,5.375s-0.5,12-0.5,12s-5.375,0.5-8,2.75c0,0,0.125,3.5,1.75,6.375c0,0-2.75,1.375-3.875,3.25
		c0,0-8.625,1.875-11.125,3.625c0,0-0.25-5.25-2.125-6.75c-1.875-1.5-4-2.625-4-2.625l-4.25,2.875l-5.25-1.75l-1.375,0.375
		l0.625-3.75l-2-1c0,0-3.75-0.75-5.875-0.125c0,0-2-6.5-5.75-9c0,0-3.5,2.5-4.5,4.875c0,0-0.5-4.125-2.5-5.125
		c0,0-5.125,2.125-5.625,7.25c0,0-5.875-1.5-8.875-0.75s-3,0.75-3,0.75l1.5,3.625v1.875c0,0-4.25,1.625-5.625,3.25l-0.625,1.75
		c0,0,3.875,4.625,7.75,6.75c0,0-4.75,4.75-3.625,12c0,0,2.5,0.5,4.75-1.875l5,6.875c0,0,3.625-4.75,5.375-5.875l3.125,3.625
		l5.625-3c0,0,6.25,2.5,7.375,9.375c0,0,7.625,1,9.5,4.75c0,0-0.25,2.75-4.875,4.75l4.75,4c0,0-1.375,4.75-7.375,7.75
		c0,0,1.625,5.875,0.625,9.25c0,0-2.375,0.25-6.75-0.375c0,0-0.625,3.625-1.125,5.125s0.25,2.625,0.25,2.625l2,5l6-0.5l0.625,6.125
		c0,0,5.75,0.625,10-1.875c0,0,0.125,5,5.375,7.375c0,0,4.5-3.25,5.375-5c0,0,2.25,3,5.625,4.375c0,0,3.625-2,6.125-8.75l2.75,2.75
		c0,0-1.75,8.25-1.75,8.875s5.5-1.5,5.5-1.5s0.5,5.125,0.5,5.75s5.625,0.625,11.625-2.875l1.125,0.625c0,0,3,4.75,7.875,6.25
		l2.875-5.125c0,0,4.625,0.75,7.625,0.25c0,0,2.25-5,0.125-11.625c0,0,5.5-4.375,7.375-7.75c0,0-1.75-1.75-5.5-2.75l0.375-0.625
		c0,0,1.625-2.5,2.125-3.75c0,0-4-2.25-8.375-2.875c0,0-3.625-6.875-9.25-9.375l-2.125,1.625l0.75,6.75l-8.25-0.125l-1.625,6
		l-7.375-4.625l-1.25-1c0,0-5.625,2.75-10.75,3.125c0,0-0.125-3.625,0.625-5.125c0,0,0.125-0.5-1-0.5s-6-1-6-1s2.875-6.125,5.25-9
		c0,0-3.875-7.875-4.5-12.125c0,0,1.625-1.375,4.875-1.75c0,0-0.625-4.375-0.125-6.625c0,0,4.75-2.75,12.625,0.875
		c0,0,2.625-5,6.875-6.625l2.375,4.375c0,0,3.375-2.25,4.875-2.625s1.375,6.125,1.375,6.125l2.125,2.875l2.375,0.125
		c0,0,2.875-3.5,3.25-4.5l5.625,1.25c0,0,1.5-2.5,1-10.375l3-0.875l3.375-1.375L128.161,48.306z"/>
	<path style="fill:#E60012;" d="M58.161,18.931c0,0,3.625-3.875,3.875-4.25s-1.375-1.25-1.375-1.25l-2.375-1.75l2.625-4.625
		l-44.25-0.25c0,0-5.75,1.25-7.125,5.375s-1.125,6-1.125,6s1.875,3,6.375,3.25l3.625-2.375l-1.25-4.125c0,0,2.625-3.5,8.625-1.75
		c0,0,1.25-4,4.5-5.25l0.875,0.5l2.75,2.625c0,0,1.375-1.5,2.5-2.125s2.125-1,2.125-1s2.375,1.875,3.75,4.25s1.75,5.125,1.75,5.125
		s6.125-0.75,8.625,2.875S58.161,18.931,58.161,18.931z"/>
	<path style="fill:#E60012;" d="M16.661,92.306c0,0,1.5,5.5,2.25,6.75s0.125,2.75,0.125,2.75l-2.75,1.375c0,0-2.5,1.625-5.125,0.25
		s-2.5-3.875-2.375-5.375s1.875-4.375,1.875-4.375S13.911,92.181,16.661,92.306z"/>
	<path style="fill:#E60012;" d="M128.036,120.806c0,0-1.25,5,3.25,7.75c4.5,2.75,7.25,0.5,7.875-1s0.5-4.5-3.625-6.75
		S128.161,119.681,128.036,120.806z"/>
	<path style="fill:#E60012;" d="M127.161,87.931c0,0,4,0.25,5.5,1.125c0,0,2.875-1.625,4.25-6.375s-2.125-7.25-4.875-7.625
		s-5.75,1.375-5.75,5.625S127.161,87.931,127.161,87.931z"/>
	<path style="fill:#E60012;" d="M89.036,82.931c0,0,3.5-0.625,3.625-3.875s-2.625-4.375-4.25-4.375s-3.15,1.596-2.875,4.625
		C85.786,82.056,88.036,82.681,89.036,82.931z"/>
	<path style="fill:#E60012;" d="M30.786,82.181c0,0,3.875-0.625,4-4.375s-2.875-4.75-4.625-4.625s-4.375,1.5-3.625,5.125
		S29.661,82.056,30.786,82.181z"/>
	<path d="M144.536,127.639c0,0-17.833,6.5-54.167,4.667c-36.333-1.834-73.333-17.75-81.333-21l-0.5,67.5l-0.167,44
		c0,0,1.001,8,10.334,8.666l117.167-0.166c0,0,8.166-1.5,8.832-9.834L144.536,127.639z"/>
	<path style="fill:#005BAC;" d="M128.286,141.431v-8.5c0,0,0.125-1.125-1-1c-1.125,0.125-7.625,1-7.625,1s-0.5,0.125-0.375,1
		l-0.25,6.875c0,0,0.875,1.25,1.5,1.5s1,0.125,1,0.125l5.5-0.625L128.286,141.431z"/>
	<path style="fill:#005BAC;" d="M100.036,142.556v-7.875c0,0,0-1-1.125-1s-7.25-0.375-7.25-0.375s-1-0.25-1,0.625l0.25,7.625
		c0,0-0.25,0.5,0.75,0.75s6.625,0.375,6.625,0.375L100.036,142.556z"/>
	<path style="fill:#005BAC;" d="M72.786,139.931l0.25-7.375c0,0,0.125-1-0.75-1.375l-8.5-1.75c0,0-1-0.125-1,0.875v6.625
		c0,0-0.5,0.625,0.625,1l8.125,2C71.536,139.931,72.786,140.306,72.786,139.931z"/>
	<path style="fill:#005BAC;" d="M47.161,133.181l-0.375-6.5c0,0-0.125-1.25-1.375-1.75l-6-1.875c0,0-1-0.5-0.875,0.75l0.25,6.875
		c0,0-0.125,0.75,0.625,1.125l6.25,1.75C45.661,133.556,47.161,134.181,47.161,133.181z"/>
	<path style="fill:#005BAC;" d="M18.661,124.556l-0.125-7.25c0,0,0.125-0.875-0.625-1.25s-6.5-2.375-6.5-2.375s-0.125,0.5,0,1.375
		s-0.125,6.5-0.125,6.5s-0.125,0.375,0.5,0.875s5.625,1.875,5.625,1.875L18.661,124.556z"/>
	<g>
		<path style="fill:#FFFFFF;" d="M34.536,131.931c0,0-11-3.75-11.75-4.125c-0.75-0.375-1.5-0.5-1.25,0.875s3.25,3.375,6.125,4.25
			s6.125,0.75,6.875,0.125S34.536,131.931,34.536,131.931z"/>
		<path style="fill:#FFFFFF;" d="M50.536,137.306c0,0,2-0.25,4.75,0.25s4.125,1,3.75,2s-1.375,1.375-5.125,0.125
			S49.286,137.431,50.536,137.306z"/>
		<path style="fill:#FFFFFF;" d="M76.911,142.056c0,0,7,0.875,8.75,1s0.125,3.25-4.25,2.5S74.661,141.806,76.911,142.056z"/>
		<path style="fill:#FFFFFF;" d="M103.786,144.306c0,0,9.5-0.125,10.5-0.25s0.375,3.125-4.75,3.125S101.536,144.556,103.786,144.306
			z"/>
		<path style="fill:#FFFFFF;" d="M131.661,141.931c0,0,11.25-2.125,11.875-2.125s0.625,2.75-4.875,3.75
			S130.786,142.806,131.661,141.931z"/>
	</g>
	<g>
		<path style="fill:#E60012;" d="M43.786,140.931c0,0-0.875,0.625-0.375,1.25s1.875,3.375,1.875,3.375s1,0.5,1.125-0.375
			s0.125-4.875,0.125-4.875s0.375-1.75-0.625-1.25S43.786,140.931,43.786,140.931z"/>
		<path style="fill:#E60012;" d="M42.411,143.306c0,0,2.25,2.75,2.75,3.375s1,2.125,0,1.875s-6.125-2.125-6.125-2.125
			s-0.625-0.5-0.125-0.875s2-2.125,2-2.125S41.911,142.681,42.411,143.306z"/>
		<path style="fill:#E60012;" d="M38.286,144.431c0,0,2.125-2.25,2.625-2.5s0.375-1-0.125-1.625s-2.25-3.75-2.25-3.75
			s-0.5-1.25-0.625,0.25s0,7,0,7S37.911,144.806,38.286,144.431z"/>
		<g>
			<g>
				<path style="fill:#E60012;" d="M123.37,149.306l4.291,4.625c0,0,0.75-0.25,0.625-1.125s-0.25-7.75-0.25-7.75
					s-0.25-1.25-0.625-0.875s-3.625,4.375-3.625,4.375L123.37,149.306z"/>
				<path style="fill:#E60012;" d="M122.786,147.931l3-3.625c0,0,0.375-0.5-0.5-0.5s-6.25,0.625-6.25,0.625l3,3.625L122.786,147.931
					z"/>
				<path style="fill:#E60012;" d="M123.036,150.806l3,3.625c0,0,0.375,0.625,0,0.75s-6.375,0.25-6.375,0.25s-0.625,0-0.375-0.5
					s2.625-3.625,2.625-3.625S122.536,150.556,123.036,150.806z"/>
				<path style="fill:#E60012;" d="M118.786,153.389l2.334-3.417c0,0,0.333-0.416,0-0.833c-0.334-0.417-2.584-3-2.584-3
					s-0.416-0.5-0.416,0.417c0,0.916,0.25,6.666,0.25,6.666S118.62,153.723,118.786,153.389z"/>
			</g>
			<g>
				<path style="fill:#E60012;" d="M95.911,150.681l3,3.25c0,0,0.5,0.125,0.5-0.5s-0.125-6.125-0.125-6.125s0.125-0.375-0.5,0
					s-2.5,2.375-2.5,2.375S95.536,150.181,95.911,150.681z"/>
				<path style="fill:#E60012;" d="M94.911,151.681c0,0,2.75,3,3.125,3.375s0.875,1.125,0.25,1.25s-6-0.625-6-0.625
					s-0.875-0.25-0.625-0.75S94.911,151.681,94.911,151.681z"/>
				<path style="fill:#E60012;" d="M90.786,153.556l3-3.25c0,0,0.25-0.5-0.25-0.875s-2.5-2.875-2.5-2.875s-0.75-0.625-0.75,0.5
					s0.125,5.625,0.125,5.625S90.286,154.306,90.786,153.556z"/>
				<path style="fill:#E60012;" d="M95.161,149.056c0,0,2.875-2.5,3.125-2.875s0.375-0.625-0.375-0.75s-5.875-0.5-5.875-0.5
					s-0.875,0-0.375,0.625s2.75,2.875,2.75,2.875L95.161,149.056z"/>
			</g>
			<g>
				<path style="fill:#E60012;" d="M69.161,146.806l2.25,3.875c0,0,0.625,0.5,0.875-0.125s0.125-6.375,0.125-6.375
					s0.25-1.5-0.5-0.875S69.161,146.806,69.161,146.806z"/>
				<path style="fill:#E60012;" d="M67.661,148.181c0,0,2.625,3.125,3,3.875s0.75,1.625,0.125,1.375s-6.25-1.25-6.25-1.25
					s-1.25-0.25-1-0.75s3.375-3.25,3.375-3.25S67.286,147.931,67.661,148.181z"/>
				<path style="fill:#E60012;" d="M62.911,150.306l3.125-3.5c0,0,0.375-0.375-0.25-1.125s-2.875-3.625-2.875-3.625
					s-0.375-0.5-0.5-0.125s-0.25,7.5-0.25,7.5S62.286,150.556,62.911,150.306z"/>
				<path style="fill:#E60012;" d="M67.911,145.306l2.875-2.5c0,0,0.75-0.375-0.625-0.75s-5.625-0.875-5.625-0.875
					s-0.5,0.125,0.125,0.75s1.75,2.5,1.75,2.5S67.536,145.681,67.911,145.306z"/>
			</g>
			<path style="fill:#E60012;" d="M42.536,140.181c0,0,2.75-1.875,3-2.25s1-0.625-0.375-1.25s-5.625-1.375-5.625-1.375
				s-0.5,0.375,0.125,1s2.25,3.375,2.25,3.375L42.536,140.181z"/>
			<g>
				<path style="fill:#E60012;" d="M14.161,133.306c0,0,2.875,4.125,3,4.5s0.375,0.875-0.375,0.625s-5.5-1.875-6-2
					s-0.625-0.375-0.125-0.875s2.25-2.5,2.25-2.5S13.786,132.681,14.161,133.306z"/>
				<path style="fill:#E60012;" d="M14.661,132.181c0,0,2.5,3,2.75,3.5s0.75,0.125,0.625-0.5s0.125-4.375,0.125-4.375
					s0-1.375-0.625-1.125s-2.25,1.5-2.25,1.5S14.286,131.556,14.661,132.181z"/>
				<path style="fill:#E60012;" d="M9.536,134.431c0,0,1.75-2,2.5-2.25s0.75-1,0.375-1.375s-3.25-4.75-3.25-4.75
					s-0.5,0.25-0.5,0.625s0.125,5.375,0.125,5.375L9.536,134.431z"/>
				<path style="fill:#E60012;" d="M14.036,130.389c0,0,2.501-1.333,2.917-1.75c0.416-0.417,0.999-0.5,0.166-0.833
					c-0.833-0.334-6.75-3-6.75-3s-0.583,0.083-0.083,0.833s2.667,4,2.667,4S13.869,130.889,14.036,130.389z"/>
			</g>
		</g>
	</g>
	<g>
		<path d="M134.614,232.015c5.861,0,10.631-4.77,10.631-10.631V16.727c0-5.861-4.77-10.63-10.631-10.63H18.457
			c-5.861,0-10.63,4.769-10.63,10.63v204.657c0,5.861,4.769,10.631,10.63,10.631H134.614z M143.827,16.727v204.657
			c0,5.08-4.133,9.213-9.213,9.213H18.457c-5.08,0-9.212-4.133-9.212-9.213V16.727c0-5.079,4.132-9.212,9.212-9.212h116.157
			C139.694,7.515,143.827,11.648,143.827,16.727z"/>
		<path d="M94.39,101.478c0,0,1.133-4.657,1.363-5.603c1.607,0.075,6.077,0.247,8.05-0.034l0.702-0.101c0,0-0.932-6.518-1.042-7.287
			c1.312-0.991,6.06-4.61,8.392-6.797l0.474-0.444l-0.401-0.511c-0.07-0.09-1.639-2.056-4.108-4.074
			c0.808-0.704,2.15-1.968,2.981-3.274l0.295-0.463l-0.374-0.401c-0.099-0.105-2.442-2.499-8.151-3.289
			c-0.032-1.829-0.236-7.555-1.53-11.292l-0.232-0.671l-0.671,0.233c-0.141,0.049-2.966,1.054-4.802,2.673
			c-0.401-1.137-1.079-2.924-1.842-4.34l-0.355-0.659l-0.639,0.392c-0.206,0.126-4.794,2.994-7.04,6.66
			c-1.722-0.883-6.82-2.98-12.694-0.545l-0.421,0.175l-0.016,0.455c-0.002,0.054-0.016,0.436-0.016,1.007
			c0,1.289,0.087,3.496,0.492,5.096c-1.296,0.197-3.749,0.638-4.946,1.303l-0.479,0.266l0.136,0.53
			c0.074,0.288,1.811,6.917,4.987,11.77c-0.913,1.147-3.665,4.777-5.778,9.427l-0.36,0.792l0.848,0.192
			c0.14,0.031,3.185,0.707,6.654,0.826c-0.327,0.962-0.759,2.505-0.759,4.202c0,0.342,0.018,0.687,0.059,1.03l0.075,0.645
			l0.648-0.019c0.239-0.007,5.763-0.222,10.91-3.2c1.068,0.82,4.521,3.411,8.544,5.769l0.822,0.482L94.39,101.478z M94.513,94.977
			c0,0-0.942,3.876-1.271,5.222c-4.358-2.64-7.896-5.419-7.933-5.448l-0.389-0.308l-0.422,0.259c-3.964,2.43-8.345,3.03-9.964,3.177
			c-0.002-0.061-0.011-0.122-0.011-0.183c0-2.327,0.981-4.577,0.993-4.603l0.439-0.995l-1.088-0.001
			c-2.622,0-5.167-0.401-6.459-0.641c2.39-4.935,5.47-8.656,5.502-8.695l0.347-0.413l-0.306-0.444
			c-2.697-3.911-4.398-9.427-4.896-11.175c1.339-0.528,3.778-0.934,4.733-1.054l0.925-0.115l-0.358-0.86
			c-0.515-1.235-0.627-3.836-0.627-5.442c0-0.17,0.005-0.279,0.007-0.425c6.21-2.326,11.536,0.874,11.59,0.907l0.649,0.405
			l0.355-0.678c1.487-2.851,4.868-5.347,6.264-6.297c0.968,2.013,1.757,4.487,1.766,4.516L94.775,63l0.827-1.102
			c0.988-1.317,3.176-2.348,4.299-2.815c1.228,4.226,1.26,10.654,1.26,10.723v0.634l0.631,0.07c4.246,0.472,6.567,1.899,7.459,2.579
			c-1.153,1.536-2.967,2.978-2.986,2.993l-0.718,0.564l0.726,0.556c1.959,1.499,3.429,3.083,4.111,3.868
			c-2.786,2.502-8.05,6.459-8.106,6.502l-0.335,0.252c0,0,0.785,5.501,0.953,6.67c-2.578,0.199-7.599-0.06-7.655-0.062L94.653,94.4
			L94.513,94.977z"/>
		<path d="M108.218,130.667c0.229-0.802,1.616-3.492,2.366-4.904c4.3,0.992,7.454,0.432,7.591,0.404l0.375-0.075l0.143-0.354
			c0.877-2.164,1.17-4.258,1.17-6.09c0-2.696-0.631-4.815-0.97-5.76c4.761-3.344,7.161-7.556,7.263-7.739l0.295-0.53l-0.479-0.373
			c-1.139-0.886-3.85-1.988-5.34-2.559c1.29-1.461,2.457-3.423,2.516-3.521l0.335-0.57l-0.546-0.374
			c-2.818-1.929-7.246-2.581-8.592-2.741c-2.709-7.053-9.458-9.415-9.751-9.513l-0.449,1.344c0.067,0.022,6.706,2.324,9.056,9.061
			l0.15,0.431l0.455,0.042c0.05,0.005,4.709,0.468,7.742,2.209c-0.559,0.879-1.652,2.503-2.648,3.389l-0.895,0.795l1.127,0.402
			c1.129,0.403,3.979,1.521,5.424,2.4c-0.822,1.272-3.13,4.487-6.912,7.009l-0.494,0.33l0.238,0.545
			c0.016,0.036,1.044,2.443,1.044,5.755c0,1.565-0.271,3.341-0.946,5.156c-0.969,0.124-3.68,0.339-7.105-0.549l-0.537-0.14
			l-0.264,0.489c-0.207,0.383-1.774,3.311-2.453,4.923c-1.398-0.577-5.05-2.425-7.819-6.956l-0.429-0.703l-0.632,0.53
			c-0.041,0.034-3.986,3.225-10.934,3.606c0.099-1.193,0.21-2.82,0.21-4.093c0-0.792-0.043-1.438-0.162-1.734l-0.251-0.629
			l-0.64,0.223c-0.032,0.011-2.773,0.961-4.888,1.544c0.303-1.746,0.967-5.318,1.801-8.176l0.148-0.511l-0.448-0.286
			c-0.033-0.022-3.184-2.072-5.543-5.243c1.81-1.301,7.239-5.548,8.84-10.785l-1.355-0.414c-1.735,5.682-8.808,10.401-8.879,10.449
			l-0.601,0.396l0.405,0.595c2.089,3.062,4.89,5.173,5.936,5.901c-1.091,3.921-1.851,8.713-1.884,8.924l-0.161,1.035l1.021-0.235
			c1.587-0.366,3.984-1.148,5.24-1.571c0.003,0.108,0.009,0.196,0.009,0.322c0,1.212-0.12,3.229-0.28,4.994l-0.071,0.79l0.792-0.018
			c6.453-0.137,10.536-2.533,11.986-3.543c3.724,5.608,8.588,7.12,8.802,7.182l0.684,0.198L108.218,130.667z"/>
		<path d="M63.135,120.367c1.655-1.273,3.919-3.625,4.988-4.767c2.645,3.821,5.336,4.382,5.456,4.402l0.295,0.053l0.242-0.175
			c4.306-3.101,6.183-8.783,6.261-9.023l-1.349-0.438c-0.018,0.054-1.751,5.225-5.488,8.097c-0.721-0.252-2.757-1.203-4.734-4.416
			l-0.493-0.803l-0.635,0.697c-0.031,0.034-2.968,3.25-5.056,4.958c-0.916-0.542-3.38-2.363-4.396-6.806l-0.24-1.053l-0.873,0.642
			c-0.031,0.023-3.082,2.192-9.584,2.042c-0.062-0.887-0.164-2.583-0.164-4.177c0-0.56,0.013-1.102,0.045-1.583l0.062-0.923
			l-0.907,0.182c-0.038,0.007-3.518,0.697-5.707,0.933c-0.479-1.405-1.816-5.463-1.947-7.289l-1.414,0.102
			c0.172,2.4,2.122,7.95,2.205,8.185l0.181,0.513l0.542-0.042c1.601-0.124,4.198-0.589,5.546-0.844
			c-0.006,0.265-0.022,0.51-0.022,0.784c0,2.285,0.205,4.78,0.216,4.911l0.052,0.621l0.622,0.028
			c5.532,0.251,8.851-1.058,10.282-1.809c1.571,5.348,5.14,7.015,5.301,7.084l0.383,0.167L63.135,120.367z"/>
		<path d="M39.389,101.319c0.03-0.117,0.644-2.521,0.693-4.526c1.138,0.151,3.369,0.388,6.287,0.388h0.63l0.074-0.626
			c0.012-0.104,0.139-1.225,0.139-2.771c0-1.825-0.208-4.222-0.959-6.26c1.695-0.775,6.456-3.307,7.636-7.875l0.104-0.406
			l-0.305-0.287c-0.102-0.095-2.162-2.023-4.243-3.432c1.648-0.941,4.513-2.858,4.793-4.959l0.039-0.295l-0.184-0.235
			c-0.126-0.161-3.128-3.839-9.921-4.679c-0.246-1.703-1.483-6.895-7.678-9.696l-0.347-0.157l-0.323,0.203
			c-1.305,0.821-3.723,2.324-4.909,3.006c-0.696-0.979-2.207-3.069-2.879-3.741l-0.425-0.425l-0.488,0.35
			c-0.143,0.103-3.428,2.511-5.652,6.977c-1.359-0.161-5.254-0.428-8.441,1.312l-0.346,0.188l-0.023,0.392
			c-0.003,0.047-0.028,0.495-0.028,1.122c0,0.816,0.082,1.889,0.273,2.813c-0.772,0.315-3.134,1.281-3.134,1.281
			c-0.243,0.098-0.555,0.344-0.665,0.969c-0.031,0.179-0.047,0.388-0.047,0.622c0,2.198,1.429,6.654,4.707,9.96
			c-1.561,1.162-4.993,4.519-4.993,11.731c0,0.511,0.017,1.04,0.054,1.59l0.06,0.89l0.852-0.259
			c1.331-0.402,4.753-1.371,6.408-1.589c0.337,1.412,1.322,5.11,3.102,8.26l0.28,0.494l0.543-0.165
			c0.158-0.048,3.753-1.226,7.638-5.926c1.368,1.508,5.278,5.301,10.868,6.279l0.642,0.112L39.389,101.319z M38.663,96.03
			c0.014,0.164,0.02,0.338,0.02,0.519c0,1.283-0.31,2.847-0.506,3.723c-5.936-1.339-9.877-6.188-9.917-6.238l-0.562-0.711
			l-0.555,0.716c-2.951,3.812-5.797,5.359-6.939,5.869c-1.884-3.593-2.797-7.867-2.806-7.912l-0.117-0.564h-0.577
			c-1.369,0-4.83,0.955-6.49,1.437c-0.005-0.199-0.02-0.408-0.02-0.602c0-8.205,4.794-10.885,5.01-11.001l0.891-0.479l-0.752-0.675
			c-3.613-3.227-4.88-7.878-4.88-9.519c0-0.173,0.024-0.281,0.052-0.382c0.378-0.155,4.074-1.667,4.074-1.667l-0.212-0.628
			c-0.26-0.781-0.324-2.083-0.324-3.055c0-0.246,0.009-0.396,0.015-0.587c3.356-1.625,7.64-0.943,7.684-0.937l0.534,0.092
			l0.229-0.491c1.585-3.415,3.924-5.631,4.933-6.483c0.802,0.964,2.138,2.818,2.679,3.591l0.351,0.501l0.547-0.273
			c0.867-0.434,4.131-2.471,5.204-3.144c6.167,2.988,6.59,8.637,6.604,8.881l0.034,0.608l0.606,0.06
			c5.578,0.531,8.491,3.161,9.271,3.976c-0.488,1.499-3.255,3.329-5.013,4.181l-1.21,0.586l1.167,0.667
			c1.78,1.018,3.882,2.857,4.683,3.582c-1.448,4.485-7.193,6.785-7.253,6.809l-0.7,0.271l0.309,0.684
			c0.872,1.92,1.066,4.468,1.066,6.356c0,0.826-0.036,1.501-0.07,1.966c-3.687-0.048-6.201-0.476-6.228-0.479l-0.905-0.159
			L38.663,96.03z"/>
		<path d="M14.751,104.481c4.033-1.283,4.787-5.544,4.817-5.726l-1.398-0.234c-0.025,0.146-0.653,3.593-3.85,4.609
			c-1.228,0.391-2.275,0.302-3.111-0.265c-1.095-0.742-1.562-2.094-1.634-3.11c-0.188-2.644,0.551-4.562,2.196-5.7l-0.807-1.165
			c-2.057,1.424-3.026,3.832-2.804,6.966c0.096,1.349,0.738,3.155,2.252,4.183C11.249,104.604,12.679,105.14,14.751,104.481z"/>
		<path d="M73.774,82.721c-0.134-0.184-3.359-4.528-9.481-6.909l-0.416-0.162l-0.325,0.306c-0.21,0.196-1.628,1.542-2.641,2.871
			c-0.489-1.29-1.359-3.085-2.648-3.944c-1.225-0.815-2.748,0.939-4.36,2.797l-1.153,1.249l0.907,1.089l1.316-1.408
			c0.618-0.713,2.029-2.33,2.577-2.472c1.314,0.955,2.225,3.56,2.466,4.51l0.504,1.981l0.83-1.868
			c0.441-0.992,1.984-2.609,2.838-3.443c5.446,2.26,8.413,6.2,8.443,6.241L73.774,82.721z"/>
		<path d="M136.852,130.258c1.284-0.392,2.284-1.21,2.677-2.189c0.224-0.56,0.877-2.552-0.133-4.652
			c-0.808-1.679-2.43-2.898-4.82-3.622c-5.974-1.811-7.098,0.803-7.207,1.106l-0.028,0.081l-0.009,0.085
			c-0.021,0.214-0.498,5.284,3.473,7.991C133.489,130.888,135.745,130.596,136.852,130.258z M134.164,121.15
			c1.995,0.604,3.325,1.573,3.954,2.88c0.603,1.255,0.443,2.637,0.094,3.512c-0.227,0.567-0.923,1.102-1.773,1.36
			c-0.863,0.264-2.641,0.481-4.836-1.016c-2.612-1.781-2.879-4.96-2.879-6.181c0-0.151,0.004-0.273,0.008-0.358
			C128.859,121.139,129.839,119.84,134.164,121.15z"/>
		<path d="M128.323,120.491c-2.057-0.914-7.71-3.572-9.145-4.877l-0.953,1.049c1.896,1.725,9.213,4.985,9.523,5.123L128.323,120.491
			z"/>
		<path d="M136.414,102.259l0.474-0.568l-0.588-0.448c-0.033-0.024-2.981-2.291-4.807-4.406c0.953-0.978,3.285-3.326,4.802-4.464
			l0.376-0.282l-0.113-0.456c-0.053-0.209-1.428-4.945-12.221-4.241c0.033-0.386,0.064-0.868,0.064-1.452
			c0-2.744-0.639-7.33-4.407-10.51l-0.914,1.083c4.95,4.177,3.771,11.432,3.759,11.505l-0.155,0.907l0.916-0.081
			c8.43-0.755,10.793,1.787,11.387,2.763c-2.023,1.636-4.834,4.575-4.963,4.709l-0.422,0.444l0.379,0.482
			c1.4,1.783,3.689,3.713,4.809,4.612c-3.242,3.155-9.19,3.241-9.252,3.241v1.417C125.835,106.514,132.909,106.466,136.414,102.259z
			"/>
		<path d="M137.567,82.097c0.393-2.204,0.064-4.036-0.975-5.449c-0.964-1.308-2.492-2.152-4.303-2.379
			c-1.642-0.205-3.183,0.227-4.339,1.215c-0.986,0.843-2.185,2.533-2.29,5.799c-0.167,5.18,0.807,6.588,1.004,6.817l1.096-0.896
			c-0.008-0.012-0.833-1.228-0.683-5.875c0.07-2.176,0.69-3.825,1.794-4.768c0.85-0.726,2.001-1.04,3.242-0.886
			c0.823,0.104,2.351,0.476,3.337,1.813c0.801,1.087,1.043,2.554,0.721,4.359c-0.765,4.285-3.826,6.345-3.856,6.364l0.773,1.188
			C133.235,89.305,136.69,87.009,137.567,82.097z"/>
		<path d="M105.886,68.291c0.104-0.11,2.373-2.542,3.656-4.671c0.854,0.214,6.206,1.552,6.206,1.552l0.15-0.724
			c0.039-0.195,0.721-3.571,0.721-7.041c0-1.122-0.1-2.233-0.287-3.27c1.672-0.527,6.488-2.302,8.957-5.934l0.253-0.371
			l-0.228-0.387c-0.062-0.104-1.332-2.241-2.918-3.729c1.467-0.953,4.501-3.012,5.689-4.464l0.219-0.269l-0.076-0.338
			c-0.059-0.256-1.566-6.056-11.896-5.263c0.026-0.339,0.05-0.745,0.05-1.252c0-2.567-0.55-7.091-3.769-11.574l-0.248-0.344
			l-0.42,0.055c-0.15,0.02-3.361,0.466-5.435,1.882c-0.708-0.887-2.205-2.55-4.028-3.331l-0.294-0.126l-0.29,0.138
			c-0.146,0.07-3.534,1.765-6.849,7.316c-2.039-0.53-9.777-2.148-14.973,2.284l-0.231,0.197l-0.017,0.303
			c-0.001,0.018-0.004,0.086-0.004,0.2c0,0.707,0.188,3.18,1.805,5.967c-0.705,0.529-2.852,2.139-2.852,2.139l0.851,1.134
			l3.863-2.897l-0.361-0.556c-1.649-2.538-1.852-4.817-1.874-5.58c5.318-4.235,13.818-1.717,13.904-1.689l0.543,0.166l0.281-0.492
			c2.647-4.633,5.386-6.532,6.235-7.044c1.973,0.997,3.55,3.238,3.566,3.262l0.46,0.667l0.601-0.545
			c1.305-1.186,3.815-1.732,4.825-1.913c2.774,4.066,3.278,8.18,3.278,10.459c0,1.112-0.109,1.788-0.112,1.809l-0.159,0.927
			l0.935-0.101c8.513-0.932,10.651,2.661,11.11,3.788c-1.631,1.74-5.85,4.377-5.895,4.405l-0.895,0.556l0.852,0.619
			c1.293,0.94,2.526,2.73,3.045,3.536c-2.763,3.634-8.417,5.19-8.475,5.206l-0.669,0.177l0.16,0.674
			c0.258,1.073,0.352,2.321,0.352,3.571c0,2.446-0.357,4.885-0.559,6.059c-1.131-0.283-5.8-1.45-5.8-1.45l-0.261,0.485
			c-0.825,1.531-2.467,3.449-3.266,4.345c-1.096-0.999-3.086-2.986-3.109-3.01l-1.002,1.002c0.116,0.117,2.871,2.869,3.725,3.552
			l0.511,0.409L105.886,68.291z"/>
		<path d="M88.047,59.931c-0.029-0.096-0.745-2.154-4.431-3.203c1.131-1.49,3.205-4.705,3.46-8.542l0.034-0.506l-0.469-0.195
			c-0.151-0.062-3.425-1.397-7.304-1.664c1.121-1.695,3.106-4.932,3.238-6.798l0.043-0.602l-0.586-0.139
			c-0.259-0.061-6.167-1.347-14.52,3.26c0.004-0.108,0.016-0.169,0.016-0.288c0-2.502-0.791-7.122-6.232-9.274l-0.399-0.157
			c0,0-3.188,2.753-3.692,3.189c-0.678-0.213-6.163-1.937-6.163-1.937l-0.184,0.689c-0.042,0.139-0.807,2.688-0.807,6.921
			c0,0.97,0.06,2.056,0.158,3.192c-1.743-0.821-5.217-1.822-9.803,0.284l-0.391,0.18l-0.021,0.43c-0.001,0.03-0.01,0.209-0.01,0.495
			c0,0.899,0.116,2.85,0.74,4.614c-1.919,0.243-4.909,0.659-5.506,0.958l-0.455,0.228l0.736,5.337l1.404-0.193
			c0,0-0.452-3.274-0.582-4.215c0.972-0.215,3.295-0.556,5.465-0.818l0.998-0.121l-0.449-0.899
			c-0.825-1.651-0.927-3.892-0.931-4.845c5.438-2.282,9.05,0.279,9.203,0.395l1.329,0.994l-0.199-1.646
			c-0.193-1.584-0.267-3.033-0.267-4.32c0-2.867,0.358-4.877,0.576-5.858c1.081,0.341,5.474,1.721,5.474,1.721l0.311-0.254
			c0,0,2.733-2.361,3.311-2.86c4.3,1.9,4.989,5.584,4.989,7.669c0,0.854-0.11,1.436-0.126,1.515l-0.315,1.577l1.376-0.83
			c6.849-4.135,12.159-4.038,13.962-3.847c-0.542,1.943-2.69,5.253-3.572,6.496l-0.794,1.119h1.372c3.288,0,6.388,1,7.551,1.421
			c-0.518,4.444-3.707,8.022-3.74,8.059l-0.854,0.936l1.242,0.239c3.782,0.728,4.455,2.509,4.461,2.526L88.047,59.931z"/>
		<path d="M51.378,38.091c-0.045-0.142-0.987-2.941-3.321-4.054c1.253-0.978,3.091-2.497,3.595-3.38l0.416-0.729L51.28,29.64
			c-0.199-0.072-4.573-1.636-7.759-1c-0.514-1.594-2.137-5.908-5.519-8.867l-0.475-0.416L37.06,19.78
			c-0.114,0.104-2.227,2.033-3.66,3.955c-0.331-1.327-0.962-3.096-2.177-4.41l-0.306-0.332l-0.43,0.137
			c-0.158,0.051-3.755,1.317-6.032,7.619c-1.414-0.444-4.921-1.312-9.196-0.644l-0.418,0.065l-0.141,0.399
			c-0.035,0.098-0.682,1.965-0.682,4.389c0,0.433,0.056,0.9,0.104,1.361c-1.386,0.509-4.978,1.977-6.191,3.948l1.207,0.743
			c0.981-1.595,4.631-3.091,5.954-3.533l0.568-0.19l-0.093-0.592c-0.094-0.591-0.131-1.17-0.131-1.721
			c0-1.567,0.299-2.866,0.474-3.502c4.847-0.634,8.655,0.81,8.694,0.824l0.702,0.279l0.234-0.719
			c1.592-4.899,3.997-6.642,4.951-7.166c1.521,1.99,1.833,4.98,1.836,5.013l0.244,2.626l1.105-2.395
			c0.715-1.55,2.87-3.713,3.84-4.642c3.434,3.331,4.817,8.308,4.832,8.359l0.193,0.729l0.716-0.237
			c1.979-0.66,5.014,0.062,6.555,0.515c-0.922,0.924-2.598,2.261-3.7,3.076l-1.454,1.074l1.797,0.2
			c2.498,0.277,3.56,3.48,3.569,3.512L51.378,38.091z"/>
		<path d="M22.737,62.038c-0.176-1.229-3.574-6.403-4.611-7.959l-0.546-0.818l-0.604,0.776c-1.47,1.89-3.113,2.135-3.931,2.124
			c-0.035-0.504-0.072-1.011-0.072-1.477c0-6.671,3.356-9.535,3.513-9.665l0.815-0.675l-0.933-0.499
			c-5.038-2.677-6.843-6.312-6.86-6.348l-1.278,0.613c0.075,0.156,1.838,3.661,6.665,6.504c-1.155,1.307-3.338,4.51-3.338,10.074
			c0,0.691,0.033,1.419,0.108,2.184l0.048,0.506l0.495,0.116c0.122,0.029,2.783,0.537,5.215-1.908
			c1.919,2.92,3.811,6.042,3.913,6.653L22.737,62.038z"/>
		<path d="M54.188,25.751l0.219-0.512c0,0-2.526-1.896-3.271-2.453c0.468-0.791,2.154-3.645,2.154-3.645l-0.474-0.385
			c-0.112-0.092-2.73-2.158-8.574-2.167c-0.077-1.586-0.743-5.362-5.072-9.149l-0.279-0.244l-0.359,0.09
			c-0.134,0.033-2.993,0.785-4.626,2.825c-1.192-0.993-2.377-2.165-2.521-2.667l-0.199-0.692l-0.688,0.21
			c-0.163,0.05-3.776,1.24-5.086,5.32c-1.41-0.319-4.806-0.691-8.749,1.756l-0.481,0.299c0,0,1.236,3.573,1.509,4.357
			c-0.748,0.514-4.889,3.361-4.889,3.361l0.803,1.168l5.777-3.973c0,0-1.177-3.399-1.478-4.268c4.218-2.369,7.573-1.232,7.719-1.178
			l0.754,0.275l0.183-0.781c0.69-2.992,2.825-4.302,3.823-4.765c0.842,1.271,2.773,2.818,3.218,3.165l0.646,0.502l0.405-0.71
			c0.93-1.627,3.026-2.446,3.858-2.718c3.984,3.641,4.333,7.134,4.333,8.163c0,0.17-0.009,0.273-0.012,0.298l-0.077,0.799
			l0.802-0.019c4.332-0.117,6.85,0.965,7.854,1.522c-0.492,0.832-2.14,3.622-2.14,3.622s2.558,1.919,3.305,2.479
			c-0.968,1.534-3.268,2.926-4.179,3.363l0.612,1.278C49.176,30.198,53.095,28.3,54.188,25.751z"/>
		<path d="M62.814,14.495l0.33-0.564c0,0-3.045-2.117-3.836-2.668c0.479-0.832,2.164-3.753,2.164-3.753l-1.207-0.742l-2.846,4.934
			l0.545,0.354c0,0,2.426,1.686,3.257,2.265c-1.302,1.785-3.933,3.909-3.962,3.933l0.886,1.106
			C58.285,19.246,61.595,16.585,62.814,14.495z"/>
		<path d="M129.67,31.789l0.288-0.576l-0.547-0.342c-0.088-0.055-1.733-1.075-3.278-1.767c0.792-0.634,1.876-1.571,2.785-2.683
			l0.36-0.441l-0.352-0.446c-0.107-0.137-2.714-3.222-11.317-3.558c0.002-0.079,0.006-0.126,0.006-0.217
			c0-1.631-0.299-5.052-2.508-8.041l-0.322-0.435l-0.505,0.196c-0.117,0.045-2.575,1.023-4.021,2.771
			c-0.961-0.843-2.822-2.359-4.068-2.636l-0.152-0.034l-0.15,0.032c-0.287,0.062-2.827,0.75-3.717,5.906l1.397,0.241
			c0.605-3.512,2.01-4.467,2.472-4.692c0.996,0.318,2.85,1.818,3.845,2.754l0.648,0.61l0.449-0.77
			c0.747-1.279,2.402-2.201,3.264-2.616c1.674,2.565,1.947,5.433,1.947,6.766c0,0.465-0.026,0.742-0.027,0.753l-0.08,0.768
			l0.771,0.016c6.551,0.121,9.492,1.866,10.508,2.666c-1.371,1.498-3.047,2.696-3.065,2.709l-1.208,0.839l1.408,0.423
			c1.104,0.331,2.711,1.229,3.568,1.732c-1.109,1.705-3.291,3.521-3.315,3.542l0.901,1.094
			C125.773,36.253,128.614,33.9,129.67,31.789z"/>
		<path d="M99.86,12.901c0.372-0.93,2.401-1.955,3.781-2.475c2.252,1.237,2.86,3.99,2.867,4.019l1.389-0.279
			c-0.03-0.15-0.773-3.701-3.893-5.17l-0.262-0.123L103.47,8.97c-0.34,0.118-2.797,1.017-4.156,2.355
			c-0.608-1.017-1.741-2.518-3.479-3.329l-0.267-0.124l-0.276,0.102c-0.216,0.079-5.299,1.977-6.902,5.541l1.293,0.582
			c1.165-2.59,4.766-4.241,5.801-4.672c2.037,1.101,3.054,3.46,3.064,3.484l0.667,1.604L99.86,12.901z"/>
		<path d="M132.842,48.667c4.378-0.875,6.951-4.752,6.733-6.933c-0.205-2.038-2.037-4.152-6.567-3.971
			c-4.27,0.171-6.688,1.357-6.788,1.408l0.632,1.269c0.022-0.012,2.274-1.103,6.213-1.261c3.013-0.12,4.919,0.888,5.101,2.696
			c0.121,1.218-1.689,4.619-5.602,5.401c-3.947,0.789-7.645-0.148-7.683-0.158l-0.356,1.372
			C124.687,48.533,128.563,49.522,132.842,48.667z"/>
		<path d="M132.283,19.843c3.893-0.445,5.708-2.448,6.444-3.602c0.744-1.166,1.078-2.534,0.814-3.326
			c-0.068-0.204-1.764-4.992-9.682-2.962c-3.033,0.778-5.037,1.984-5.956,3.587c-0.731,1.273-0.612,2.495-0.383,3.295l0.031,0.11
			l0.065,0.095C123.716,17.183,126.097,20.551,132.283,19.843z M138.197,13.363c0.068,0.216-0.032,1.142-0.689,2.151
			c-0.736,1.136-2.269,2.564-5.387,2.92c-4.791,0.548-6.845-1.595-7.253-2.093c-0.054-0.213-0.104-0.451-0.104-0.727
			c0-0.417,0.093-0.89,0.369-1.37c0.711-1.24,2.467-2.249,5.078-2.919C136.866,9.619,138.145,13.209,138.197,13.363z"/>
		<rect x="119.744" y="14.594" transform="matrix(0.5416 0.8406 -0.8406 0.5416 71.234 -92.5222)" width="1.417" height="8.922"/>
		<path d="M102.933,37.537l0.5-4.333c0.036-0.312-0.188-0.593-0.498-0.628c-0.311-0.036-0.592,0.187-0.628,0.498l-0.5,4.333
			c-0.036,0.31,0.187,0.592,0.498,0.628S102.897,37.848,102.933,37.537z"/>
		<path d="M104.685,37.777l2.5-1.667c0.26-0.174,0.33-0.525,0.156-0.786c-0.174-0.261-0.525-0.331-0.785-0.157l-2.5,1.667
			c-0.262,0.174-0.332,0.525-0.158,0.786C104.071,37.881,104.423,37.951,104.685,37.777z"/>
		<path d="M105.923,39.703l3.5-0.333c0.312-0.03,0.541-0.307,0.512-0.618c-0.03-0.311-0.307-0.541-0.619-0.511l-3.5,0.333
			c-0.311,0.03-0.54,0.307-0.51,0.618C105.335,39.505,105.612,39.733,105.923,39.703z"/>
		<path d="M110.601,42.031c0.032-0.312-0.193-0.591-0.506-0.623l-3.166-0.333c-0.311-0.033-0.59,0.193-0.623,0.505
			c-0.033,0.311,0.193,0.59,0.505,0.623l3.167,0.333C110.288,42.568,110.567,42.343,110.601,42.031z"/>
		<path d="M110.24,45.318c0.099-0.297-0.062-0.618-0.358-0.717l-3-1c-0.297-0.1-0.618,0.062-0.717,0.358
			c-0.1,0.297,0.062,0.618,0.358,0.717l3,1C109.82,45.775,110.142,45.615,110.24,45.318z"/>
		<path d="M108.757,49.72c0.229-0.214,0.24-0.572,0.027-0.801l-2.334-2.5c-0.213-0.229-0.572-0.241-0.801-0.028
			c-0.229,0.214-0.241,0.572-0.027,0.802l2.333,2.5C108.169,49.921,108.527,49.934,108.757,49.72z"/>
		<path d="M106.356,52.607c0.258-0.177,0.324-0.529,0.147-0.788l-2.167-3.167c-0.176-0.258-0.529-0.324-0.787-0.147
			c-0.259,0.177-0.324,0.529-0.148,0.788l2.167,3.167C105.745,52.718,106.098,52.783,106.356,52.607z"/>
		<path d="M102.549,54.01c0.297-0.099,0.458-0.42,0.358-0.717l-1-3c-0.099-0.297-0.42-0.458-0.717-0.358
			c-0.297,0.099-0.457,0.42-0.358,0.717l1,3C101.931,53.948,102.252,54.108,102.549,54.01z"/>
		<path d="M98.216,53.214l1.333-2.833c0.134-0.284,0.012-0.623-0.271-0.755c-0.283-0.134-0.622-0.012-0.754,0.272l-1.334,2.833
			c-0.134,0.283-0.012,0.622,0.271,0.755C97.744,53.618,98.083,53.497,98.216,53.214z"/>
		<path d="M92.945,51.151l3.167-1.5c0.283-0.134,0.403-0.472,0.27-0.755c-0.134-0.283-0.472-0.404-0.755-0.27l-3.167,1.5
			c-0.283,0.134-0.404,0.472-0.27,0.755C92.324,51.165,92.662,51.285,92.945,51.151z"/>
		<path d="M91.014,48.021l3.166-0.833c0.304-0.08,0.484-0.39,0.404-0.692c-0.079-0.303-0.39-0.484-0.692-0.404l-3.166,0.833
			c-0.303,0.079-0.484,0.39-0.404,0.692C90.4,47.919,90.711,48.1,91.014,48.021z"/>
		<path d="M94.397,43.679c0.114-0.292-0.03-0.621-0.321-0.734l-3.834-1.5c-0.291-0.114-0.62,0.029-0.734,0.321
			c-0.114,0.291,0.03,0.62,0.321,0.734l3.834,1.5C93.954,44.114,94.283,43.97,94.397,43.679z"/>
		<path d="M95.618,41.358c0.213-0.23,0.199-0.588-0.03-0.801l-2.333-2.167c-0.229-0.213-0.588-0.199-0.801,0.03
			c-0.213,0.23-0.2,0.588,0.029,0.801l2.333,2.167C95.046,41.601,95.404,41.587,95.618,41.358z"/>
		<path d="M97.689,38.607c0.259-0.177,0.324-0.529,0.147-0.788l-2.167-3.167c-0.177-0.258-0.529-0.324-0.788-0.147
			c-0.258,0.177-0.324,0.529-0.147,0.788l2.167,3.167C97.078,38.718,97.431,38.783,97.689,38.607z"/>
		<path d="M100.093,37.703c0.312-0.031,0.539-0.31,0.508-0.621l-0.334-3.333c-0.031-0.312-0.31-0.539-0.621-0.508
			c-0.312,0.031-0.538,0.31-0.507,0.621l0.333,3.333C99.503,37.507,99.781,37.734,100.093,37.703z"/>
		<path d="M34.257,34.553l2.667-2.5c0.229-0.214,0.24-0.573,0.026-0.802c-0.215-0.228-0.573-0.24-0.802-0.025l-2.667,2.5
			c-0.229,0.214-0.24,0.572-0.026,0.801C33.67,34.755,34.028,34.767,34.257,34.553z"/>
		<path d="M32.73,33.705c0.312-0.015,0.554-0.28,0.539-0.593l-0.167-3.5c-0.015-0.313-0.28-0.555-0.594-0.54
			c-0.312,0.016-0.554,0.281-0.539,0.594l0.167,3.5C32.151,33.479,32.417,33.72,32.73,33.705z"/>
		<path d="M30.153,33.13c0.271-0.157,0.363-0.504,0.206-0.775l-1.833-3.167c-0.156-0.271-0.503-0.363-0.775-0.206
			c-0.27,0.156-0.363,0.504-0.206,0.774l1.833,3.167C29.535,33.194,29.882,33.286,30.153,33.13z"/>
		<path d="M26.815,34.322c0.193-0.246,0.15-0.603-0.096-0.796l-2.333-1.833c-0.246-0.193-0.604-0.151-0.796,0.096
			c-0.194,0.246-0.151,0.602,0.095,0.796l2.333,1.833C26.265,34.611,26.622,34.568,26.815,34.322z"/>
		<path d="M24.741,36.818c0.099-0.297-0.062-0.618-0.358-0.717l-3-1c-0.298-0.1-0.618,0.062-0.718,0.358
			c-0.099,0.297,0.062,0.618,0.358,0.717l3,1C24.321,37.275,24.642,37.115,24.741,36.818z"/>
		<path d="M23.369,40.039c0.314,0,0.567-0.254,0.567-0.567c0-0.312-0.254-0.566-0.567-0.566h-3.666
			c-0.314,0-0.567,0.254-0.567,0.566c0,0.313,0.254,0.567,0.567,0.567H23.369z"/>
		<path d="M21.597,43.991l2.667-1.166c0.286-0.126,0.417-0.46,0.292-0.747c-0.126-0.287-0.46-0.418-0.747-0.292l-2.667,1.166
			c-0.286,0.126-0.417,0.46-0.292,0.747C20.976,43.986,21.31,44.117,21.597,43.991z"/>
		<path d="M24.759,47.551l3-2.833c0.228-0.215,0.237-0.574,0.022-0.802c-0.215-0.228-0.573-0.237-0.802-0.023l-3,2.833
			c-0.228,0.215-0.237,0.574-0.023,0.802C24.172,47.756,24.53,47.766,24.759,47.551z"/>
		<path d="M29.071,48.205c0.312-0.02,0.55-0.289,0.53-0.601l-0.167-2.667c-0.02-0.312-0.288-0.55-0.601-0.53
			c-0.312,0.019-0.55,0.289-0.53,0.602l0.167,2.667C28.49,47.987,28.759,48.225,29.071,48.205z"/>
		<path d="M32.725,47.674c0.296-0.104,0.45-0.429,0.346-0.724l-1-2.833c-0.104-0.296-0.428-0.45-0.723-0.347
			c-0.296,0.104-0.45,0.429-0.346,0.724l1,2.833C32.105,47.623,32.43,47.777,32.725,47.674z"/>
		<path d="M36.822,46.813c0.188-0.251,0.138-0.606-0.113-0.794l-2.666-2c-0.25-0.188-0.605-0.137-0.793,0.113
			c-0.188,0.25-0.138,0.605,0.113,0.794l2.666,2C36.279,47.113,36.635,47.063,36.822,46.813z"/>
		<path d="M37.543,43.893c0.141-0.28,0.027-0.621-0.253-0.761l-1.667-0.833c-0.28-0.141-0.621-0.027-0.761,0.253
			c-0.141,0.28-0.027,0.621,0.253,0.761l1.667,0.834C37.062,44.286,37.403,44.173,37.543,43.893z"/>
		<path d="M39.369,41.539c0.313,0,0.567-0.254,0.567-0.567c0-0.312-0.254-0.566-0.567-0.566h-3c-0.313,0-0.567,0.254-0.567,0.566
			c0,0.313,0.254,0.567,0.567,0.567H39.369z"/>
		<path d="M37.024,39.351l2.334-0.667c0.302-0.086,0.476-0.399,0.39-0.7c-0.086-0.301-0.399-0.476-0.7-0.39l-2.334,0.667
			c-0.302,0.086-0.476,0.399-0.39,0.7C36.41,39.262,36.724,39.437,37.024,39.351z"/>
		<path d="M35.751,36.497l3.667-1.5c0.29-0.119,0.429-0.45,0.309-0.74c-0.118-0.289-0.449-0.428-0.739-0.31l-3.667,1.5
			c-0.29,0.118-0.429,0.449-0.31,0.739C35.13,36.477,35.461,36.615,35.751,36.497z"/>
		<path d="M62.435,49.841l0.166-2.667c0.02-0.312-0.218-0.581-0.53-0.601c-0.312-0.02-0.582,0.218-0.602,0.53l-0.166,2.667
			c-0.02,0.312,0.218,0.581,0.53,0.601C62.146,50.391,62.416,50.153,62.435,49.841z"/>
		<path d="M59.559,51.007c0.295-0.104,0.449-0.429,0.346-0.724l-1-2.833c-0.104-0.295-0.429-0.45-0.724-0.346
			c-0.295,0.104-0.45,0.428-0.346,0.723l1,2.833C58.939,50.956,59.263,51.11,59.559,51.007z"/>
		<path d="M57.419,51.557c0.231-0.211,0.246-0.57,0.035-0.801l-1.834-2c-0.211-0.23-0.57-0.246-0.801-0.035
			c-0.23,0.212-0.246,0.57-0.035,0.802l1.834,2C56.83,51.753,57.188,51.769,57.419,51.557z"/>
		<path d="M55.526,53.423c0.157-0.271,0.064-0.617-0.206-0.774l-3.167-1.834c-0.271-0.156-0.617-0.065-0.774,0.207
			c-0.157,0.27-0.064,0.617,0.206,0.774l3.167,1.834C55.022,53.786,55.369,53.694,55.526,53.423z"/>
		<path d="M54.434,55.365c0.032-0.312-0.193-0.591-0.505-0.624l-3.167-0.333c-0.312-0.033-0.59,0.193-0.623,0.504
			c-0.032,0.312,0.193,0.591,0.504,0.624l3.167,0.333C54.121,55.902,54.4,55.676,54.434,55.365z"/>
		<path d="M50.635,59.197l2.833-0.5c0.309-0.055,0.515-0.349,0.46-0.657c-0.055-0.308-0.349-0.514-0.657-0.459l-2.833,0.5
			c-0.309,0.054-0.514,0.348-0.46,0.656C50.032,59.046,50.326,59.252,50.635,59.197z"/>
		<path d="M51.69,62.273l2.667-1.833c0.258-0.178,0.323-0.53,0.145-0.789c-0.178-0.258-0.53-0.323-0.788-0.146l-2.667,1.833
			c-0.258,0.178-0.323,0.531-0.146,0.789C51.08,62.385,51.433,62.45,51.69,62.273z"/>
		<path d="M54.232,64.741l3-2.5c0.24-0.201,0.273-0.558,0.072-0.799c-0.2-0.24-0.558-0.272-0.798-0.072l-3,2.5
			c-0.241,0.2-0.273,0.558-0.073,0.798C53.635,64.909,53.992,64.941,54.232,64.741z"/>
		<path d="M57.396,66.85l1.333-3.334c0.116-0.29-0.024-0.62-0.315-0.736s-0.621,0.025-0.737,0.316l-1.333,3.334
			c-0.116,0.29,0.025,0.62,0.316,0.736C56.949,67.281,57.279,67.141,57.396,66.85z"/>
		<path d="M62.191,67.851c0.302-0.086,0.476-0.399,0.39-0.701l-1-3.5c-0.086-0.301-0.399-0.476-0.701-0.389
			c-0.301,0.086-0.475,0.399-0.389,0.7l1,3.5C61.577,67.763,61.891,67.937,62.191,67.851z"/>
		<path d="M65.955,65.521c0.211-0.231,0.194-0.591-0.038-0.801l-1.833-1.667c-0.232-0.211-0.591-0.194-0.801,0.038
			c-0.211,0.231-0.194,0.59,0.038,0.801l1.833,1.667C65.386,65.769,65.745,65.752,65.955,65.521z"/>
		<path d="M67.891,62.195c0.123-0.288-0.011-0.62-0.298-0.744l-2.334-1c-0.287-0.124-0.62,0.01-0.744,0.298
			c-0.123,0.287,0.011,0.62,0.298,0.744l2.334,1C67.434,62.616,67.767,62.483,67.891,62.195z"/>
		<path d="M69.602,58.675c0.02-0.312-0.218-0.582-0.53-0.602l-2.666-0.167c-0.312-0.019-0.582,0.218-0.602,0.53
			s0.218,0.582,0.53,0.602L69,59.205C69.312,59.225,69.582,58.987,69.602,58.675z"/>
		<path d="M66.061,56.038l3.833-0.166c0.313-0.014,0.556-0.278,0.542-0.591c-0.014-0.313-0.278-0.556-0.591-0.542l-3.833,0.166
			c-0.313,0.014-0.556,0.278-0.542,0.591C65.483,55.81,65.748,56.052,66.061,56.038z"/>
		<path d="M65.106,53.201l4-0.5c0.311-0.038,0.531-0.322,0.492-0.633c-0.039-0.311-0.322-0.531-0.633-0.492l-4,0.5
			c-0.311,0.039-0.531,0.322-0.492,0.633C64.513,53.02,64.796,53.24,65.106,53.201z"/>
		<path d="M64.254,50.889l2.167-2c0.23-0.213,0.244-0.571,0.031-0.802c-0.212-0.229-0.57-0.244-0.801-0.031l-2.166,2
			c-0.23,0.212-0.245,0.57-0.032,0.801C63.665,51.087,64.023,51.101,64.254,50.889z"/>
		<path d="M92.271,74.54l2.333-2.334c0.221-0.222,0.222-0.58,0-0.802c-0.222-0.221-0.581-0.221-0.802,0l-2.333,2.334
			c-0.222,0.222-0.222,0.58,0,0.802C91.69,74.761,92.049,74.762,92.271,74.54z"/>
		<path d="M90.088,73.437l0.833-3.5c0.072-0.305-0.115-0.61-0.42-0.683c-0.305-0.072-0.61,0.115-0.683,0.42l-0.834,3.5
			c-0.072,0.305,0.115,0.61,0.42,0.684C89.709,73.93,90.015,73.741,90.088,73.437z"/>
		<path d="M87.083,73.37c0.312-0.025,0.544-0.3,0.518-0.611l-0.333-4c-0.026-0.312-0.3-0.544-0.612-0.519
			c-0.312,0.026-0.544,0.3-0.518,0.612l0.333,4C86.497,73.165,86.771,73.397,87.083,73.37z"/>
		<path d="M85.516,74.775c0.167-0.265,0.088-0.614-0.177-0.782l-3.167-2c-0.265-0.167-0.614-0.088-0.782,0.177
			c-0.167,0.265-0.088,0.615,0.177,0.782l3.167,2C84.998,75.118,85.348,75.039,85.516,74.775z"/>
		<path d="M84.422,77.6c0.07-0.306-0.12-0.609-0.425-0.68l-2.167-0.5c-0.306-0.07-0.609,0.119-0.68,0.425
			c-0.07,0.305,0.119,0.609,0.425,0.68l2.167,0.5C84.047,78.095,84.352,77.904,84.422,77.6z"/>
		<path d="M81.612,82.817l3.166-1.5c0.283-0.134,0.404-0.472,0.27-0.755c-0.134-0.282-0.472-0.403-0.755-0.27l-3.166,1.5
			c-0.283,0.134-0.404,0.472-0.269,0.755C80.991,82.831,81.329,82.952,81.612,82.817z"/>
		<path d="M83.937,85.873l2-2c0.222-0.222,0.222-0.581,0-0.802c-0.221-0.222-0.58-0.222-0.802,0l-2,2
			c-0.221,0.221-0.221,0.58,0,0.802C83.356,86.094,83.716,86.095,83.937,85.873z"/>
		<path d="M87.584,86.951l0.666-2.5c0.081-0.302-0.099-0.613-0.401-0.693c-0.303-0.081-0.613,0.099-0.694,0.401l-0.666,2.5
			c-0.081,0.303,0.099,0.613,0.401,0.694C87.192,87.434,87.503,87.254,87.584,86.951z"/>
		<path d="M91.58,87.332c0.291-0.116,0.432-0.446,0.315-0.737l-1-2.5c-0.116-0.291-0.446-0.432-0.736-0.315
			c-0.291,0.116-0.433,0.446-0.316,0.736l1,2.5C90.959,87.307,91.289,87.448,91.58,87.332z"/>
		<path d="M94.519,84.437c0.164-0.267,0.082-0.616-0.186-0.78l-2.166-1.334c-0.267-0.164-0.616-0.081-0.78,0.186
			c-0.164,0.268-0.082,0.616,0.186,0.78l2.166,1.334C94.006,84.786,94.354,84.703,94.519,84.437z"/>
		<path d="M96.744,81.972c0.092-0.299-0.076-0.616-0.375-0.708l-2.167-0.667c-0.299-0.092-0.616,0.076-0.708,0.376
			c-0.092,0.299,0.076,0.616,0.375,0.708l2.167,0.667C96.335,82.44,96.652,82.272,96.744,81.972z"/>
		<path d="M97.202,79.039c0.313,0,0.567-0.254,0.567-0.567c0-0.312-0.254-0.566-0.567-0.566h-3c-0.312,0-0.566,0.254-0.566,0.566
			c0,0.313,0.254,0.567,0.566,0.567H97.202z"/>
		<path d="M93.942,76.152l2.5-1.167c0.283-0.132,0.406-0.47,0.273-0.753c-0.132-0.284-0.47-0.406-0.753-0.275l-2.5,1.167
			c-0.284,0.133-0.406,0.47-0.274,0.754C93.321,76.162,93.658,76.285,93.942,76.152z"/>
		<path d="M105.037,104.07l1.5-2.833c0.146-0.276,0.041-0.62-0.235-0.767c-0.277-0.146-0.62-0.04-0.767,0.236l-1.5,2.833
			c-0.146,0.277-0.04,0.62,0.235,0.767C104.548,104.453,104.891,104.348,105.037,104.07z"/>
		<path d="M102.257,104.203c0.311-0.029,0.54-0.307,0.51-0.618l-0.332-3.5c-0.03-0.311-0.307-0.54-0.619-0.511
			c-0.311,0.03-0.54,0.307-0.51,0.618l0.332,3.5C101.668,104.004,101.944,104.233,102.257,104.203z"/>
		<path d="M100.39,104.674c0.296-0.104,0.451-0.427,0.348-0.722l-1.166-3.334c-0.104-0.296-0.427-0.451-0.723-0.348
			c-0.296,0.104-0.451,0.427-0.348,0.723l1.166,3.333C99.771,104.622,100.095,104.777,100.39,104.674z"/>
		<path d="M98.071,105.902c0.238-0.204,0.266-0.562,0.062-0.8l-2-2.333c-0.204-0.237-0.562-0.265-0.8-0.061
			c-0.237,0.203-0.265,0.562-0.061,0.799l2,2.333C97.476,106.079,97.834,106.107,98.071,105.902z"/>
		<path d="M95.883,108.713c0.133-0.283,0.011-0.62-0.272-0.754l-2.833-1.333c-0.283-0.134-0.62-0.011-0.755,0.272
			c-0.133,0.283-0.011,0.62,0.272,0.755l2.833,1.333C95.411,109.118,95.748,108.996,95.883,108.713z"/>
		<path d="M95.267,110.865c0.032-0.312-0.193-0.591-0.505-0.624l-3.166-0.333c-0.312-0.033-0.591,0.193-0.624,0.504
			c-0.032,0.312,0.193,0.591,0.505,0.624l3.166,0.333C94.954,111.402,95.233,111.176,95.267,110.865z"/>
		<path d="M94.049,114.677l3-1c0.297-0.099,0.457-0.42,0.358-0.717c-0.099-0.297-0.42-0.458-0.717-0.358l-3,1
			c-0.297,0.099-0.458,0.42-0.358,0.717C93.431,114.615,93.752,114.775,94.049,114.677z"/>
		<path d="M98.069,116.496l0.834-2.333c0.105-0.295-0.049-0.62-0.343-0.725c-0.295-0.106-0.62,0.048-0.725,0.343l-0.834,2.334
			c-0.105,0.294,0.049,0.619,0.343,0.724C97.64,116.944,97.965,116.791,98.069,116.496z"/>
		<path d="M102.192,117.684c0.301-0.086,0.475-0.399,0.389-0.7l-0.666-2.334c-0.086-0.301-0.4-0.475-0.701-0.389
			c-0.301,0.086-0.476,0.399-0.389,0.7l0.666,2.334C101.577,117.596,101.891,117.771,102.192,117.684z"/>
		<path d="M106.131,116.843c0.205-0.236,0.18-0.594-0.058-0.799l-2.5-2.167c-0.236-0.205-0.594-0.18-0.799,0.058
			c-0.205,0.236-0.18,0.595,0.057,0.799l2.5,2.167C105.567,117.106,105.927,117.08,106.131,116.843z"/>
		<path d="M108.888,114.702c0.127-0.286-0.002-0.623-0.288-0.748l-3-1.333c-0.286-0.127-0.622,0.002-0.748,0.288
			c-0.127,0.286,0.003,0.622,0.288,0.748l3,1.333C108.426,115.117,108.763,114.987,108.888,114.702z"/>
		<path d="M110.935,111.524c0.027-0.313-0.201-0.588-0.514-0.616l-3.667-0.333c-0.311-0.028-0.587,0.201-0.616,0.514
			c-0.027,0.312,0.201,0.587,0.514,0.615l3.667,0.333C110.63,112.065,110.905,111.835,110.935,111.524z"/>
		<path d="M107.325,109.525l3-0.667c0.307-0.067,0.499-0.37,0.431-0.676c-0.067-0.306-0.37-0.498-0.677-0.431l-3,0.667
			c-0.305,0.067-0.498,0.37-0.43,0.676C106.718,109.4,107.021,109.594,107.325,109.525z"/>
		<path d="M107.205,106.596l2.5-1.833c0.253-0.186,0.307-0.54,0.122-0.793c-0.186-0.252-0.541-0.307-0.793-0.121l-2.5,1.833
			c-0.252,0.186-0.307,0.54-0.121,0.793C106.598,106.727,106.952,106.781,107.205,106.596z"/>
		<path d="M63.509,90.782l2.334-1.5c0.263-0.169,0.339-0.52,0.17-0.783c-0.169-0.264-0.52-0.34-0.783-0.171l-2.334,1.5
			c-0.263,0.17-0.339,0.521-0.17,0.784C62.894,90.875,63.246,90.951,63.509,90.782z"/>
		<path d="M61.57,89.327l1-2.833c0.104-0.295-0.051-0.619-0.346-0.724c-0.295-0.104-0.619,0.051-0.724,0.347l-1,2.833
			c-0.104,0.295,0.051,0.619,0.347,0.724C61.143,89.777,61.467,89.623,61.57,89.327z"/>
		<path d="M57.944,89.867c0.311-0.041,0.528-0.326,0.487-0.637l-0.334-2.5c-0.041-0.311-0.326-0.528-0.637-0.487
			c-0.31,0.042-0.528,0.327-0.487,0.638l0.334,2.5C57.349,89.691,57.634,89.909,57.944,89.867z"/>
		<path d="M56.215,91.421c0.248-0.19,0.295-0.547,0.104-0.795l-1.667-2.166c-0.191-0.248-0.547-0.295-0.795-0.103
			c-0.248,0.19-0.294,0.547-0.104,0.795l1.667,2.166C55.611,91.566,55.967,91.612,56.215,91.421z"/>
		<path d="M54.703,93.07c0.146-0.276,0.042-0.619-0.235-0.766l-2.833-1.5c-0.276-0.146-0.619-0.042-0.767,0.235
			c-0.146,0.276-0.041,0.619,0.236,0.767l2.833,1.5C54.214,93.453,54.557,93.348,54.703,93.07z"/>
		<path d="M54.6,95.365c0.033-0.312-0.193-0.591-0.504-0.624l-3.167-0.333c-0.312-0.033-0.59,0.193-0.623,0.504
			c-0.032,0.312,0.193,0.591,0.504,0.624l3.167,0.333C54.288,95.902,54.567,95.676,54.6,95.365z"/>
		<path d="M51.358,99.017l3.5-1c0.301-0.086,0.476-0.399,0.389-0.7c-0.086-0.302-0.399-0.476-0.7-0.39l-3.5,1
			c-0.301,0.086-0.476,0.399-0.39,0.701C50.743,98.929,51.057,99.104,51.358,99.017z"/>
		<path d="M54.084,101.559l1.833-1.667c0.232-0.211,0.249-0.569,0.038-0.801c-0.21-0.231-0.569-0.249-0.801-0.038l-1.833,1.667
			c-0.232,0.21-0.249,0.569-0.038,0.801C53.493,101.752,53.852,101.77,54.084,101.559z"/>
		<path d="M56.517,103.773l1.667-2.667c0.165-0.265,0.085-0.615-0.181-0.781c-0.266-0.165-0.615-0.085-0.781,0.181l-1.667,2.667
			c-0.165,0.265-0.085,0.615,0.181,0.781C56.001,104.118,56.351,104.038,56.517,103.773z"/>
		<path d="M60.321,104.193c0.306-0.065,0.501-0.367,0.436-0.673l-0.5-2.334c-0.065-0.306-0.367-0.501-0.673-0.436
			c-0.307,0.065-0.502,0.367-0.436,0.673l0.5,2.334C59.714,104.064,60.015,104.259,60.321,104.193z"/>
		<path d="M64.896,103.743c0.241-0.199,0.276-0.557,0.077-0.798l-2.334-2.834c-0.198-0.241-0.556-0.276-0.798-0.077
			c-0.241,0.199-0.276,0.557-0.077,0.798l2.334,2.834C64.297,103.907,64.654,103.942,64.896,103.743z"/>
		<path d="M66.686,100.937c0.164-0.267,0.081-0.616-0.186-0.78l-2.167-1.334c-0.267-0.164-0.615-0.081-0.78,0.186
			c-0.164,0.268-0.081,0.616,0.186,0.78l2.167,1.334C66.172,101.286,66.521,101.203,66.686,100.937z"/>
		<path d="M68.756,98.429c0.068-0.306-0.125-0.608-0.431-0.677l-3-0.666c-0.306-0.068-0.608,0.124-0.676,0.43
			c-0.068,0.306,0.124,0.608,0.43,0.677l3,0.666C68.385,98.927,68.688,98.734,68.756,98.429z"/>
		<path d="M68.536,96.206c0.312,0,0.566-0.254,0.566-0.567c0-0.312-0.254-0.566-0.566-0.566h-2.667
			c-0.312,0-0.566,0.254-0.566,0.566c0,0.313,0.254,0.567,0.566,0.567H68.536z"/>
		<path d="M65.34,93.356l2.667-0.667c0.304-0.075,0.488-0.383,0.412-0.687c-0.075-0.305-0.383-0.489-0.686-0.413l-2.667,0.667
			c-0.305,0.075-0.489,0.383-0.413,0.688C64.729,93.247,65.036,93.432,65.34,93.356z"/>
		<path d="M38.355,83.431c0.161-0.269,0.073-0.616-0.194-0.778l-2.5-1.5c-0.268-0.161-0.617-0.073-0.778,0.195
			c-0.161,0.269-0.073,0.616,0.194,0.777l2.5,1.5C37.846,83.786,38.194,83.699,38.355,83.431z"/>
		<path d="M34.957,86.813c0.28-0.141,0.394-0.48,0.253-0.761l-1.334-2.666c-0.14-0.28-0.48-0.394-0.761-0.254
			c-0.279,0.141-0.394,0.48-0.253,0.761l1.334,2.667C34.336,86.839,34.677,86.952,34.957,86.813z"/>
		<path d="M31.602,87.202c0.311-0.037,0.533-0.318,0.497-0.629l-0.333-2.834c-0.037-0.311-0.318-0.533-0.63-0.497
			c-0.311,0.037-0.533,0.318-0.497,0.63l0.333,2.833C31.01,87.016,31.291,87.238,31.602,87.202z"/>
		<path d="M28.049,86.213l1.333-2.833c0.134-0.283,0.012-0.621-0.271-0.754c-0.283-0.134-0.621-0.012-0.754,0.272l-1.333,2.833
			c-0.134,0.283-0.012,0.621,0.271,0.755C27.578,86.618,27.916,86.497,28.049,86.213z"/>
		<path d="M24.184,83.943l2.5-1.666c0.261-0.174,0.331-0.525,0.157-0.786c-0.174-0.261-0.525-0.331-0.786-0.157L23.555,83
			c-0.261,0.174-0.331,0.525-0.157,0.786C23.571,84.047,23.923,84.117,24.184,83.943z"/>
		<path d="M25.382,80.677c0.298-0.099,0.458-0.42,0.359-0.717c-0.1-0.297-0.42-0.458-0.717-0.359
			c-0.255,0.085-1.49,0.138-2.488,0.138c-0.313,0-0.567,0.254-0.566,0.567c0,0.312,0.253,0.566,0.566,0.566
			C23.066,80.872,24.837,80.858,25.382,80.677z"/>
		<path d="M25.26,78.245c0.059-0.308-0.143-0.604-0.45-0.663l-3.5-0.667c-0.308-0.059-0.604,0.143-0.663,0.451
			c-0.059,0.308,0.143,0.604,0.45,0.663l3.5,0.667C24.904,78.755,25.201,78.553,25.26,78.245z"/>
		<path d="M24.314,75.989c0.194-0.246,0.151-0.603-0.095-0.796l-2.333-1.834c-0.246-0.193-0.603-0.15-0.796,0.096
			c-0.194,0.246-0.151,0.603,0.095,0.796l2.333,1.834C23.765,76.278,24.121,76.235,24.314,75.989z"/>
		<path d="M25.887,73.585c0.246-0.193,0.289-0.55,0.096-0.796l-1.833-2.334c-0.193-0.246-0.55-0.289-0.797-0.096
			c-0.246,0.193-0.289,0.55-0.096,0.796l1.834,2.334C25.284,73.735,25.64,73.778,25.887,73.585z"/>
		<path d="M28.341,72.856c0.304-0.076,0.488-0.384,0.412-0.688l-0.834-3.334c-0.076-0.304-0.384-0.488-0.687-0.412
			c-0.304,0.076-0.488,0.384-0.412,0.688l0.834,3.334C27.729,72.747,28.037,72.932,28.341,72.856z"/>
		<path d="M31.26,71.703c0.311-0.031,0.539-0.31,0.508-0.621l-0.334-3.333c-0.031-0.312-0.31-0.539-0.621-0.508
			c-0.312,0.031-0.539,0.31-0.508,0.621l0.334,3.333C30.67,71.507,30.948,71.734,31.26,71.703z"/>
		<path d="M34.072,72.736l2.333-2c0.237-0.204,0.265-0.562,0.062-0.8c-0.204-0.237-0.562-0.266-0.8-0.062l-2.333,2
			c-0.237,0.204-0.265,0.562-0.062,0.8C33.477,72.912,33.834,72.94,34.072,72.736z"/>
		<path d="M36.04,74.513l3.167-1c0.299-0.095,0.464-0.413,0.37-0.712c-0.095-0.298-0.413-0.464-0.712-0.369l-3.167,1
			c-0.299,0.094-0.464,0.412-0.37,0.711C35.423,74.441,35.741,74.607,36.04,74.513z"/>
		<path d="M40.1,76.865c0.033-0.312-0.192-0.591-0.504-0.624l-3.167-0.333c-0.312-0.033-0.591,0.193-0.623,0.504
			c-0.033,0.312,0.192,0.591,0.504,0.624l3.167,0.333C39.788,77.402,40.067,77.176,40.1,76.865z"/>
		<path d="M39.907,80.318c0.099-0.297-0.062-0.618-0.358-0.717l-3-1c-0.298-0.1-0.618,0.061-0.718,0.358
			c-0.099,0.297,0.062,0.618,0.358,0.717l3,1C39.487,80.775,39.808,80.615,39.907,80.318z"/>
		<g>
			<path d="M121.536,110.806c0,0,1.625,3.25,5.75,4.5c4.125,1.25,10,0.75,10,0.75s-1.125-1.875-1.5-3.625s-2.125-5.625-4.875-7
				l-5.5,0.125C125.411,105.556,123.786,108.556,121.536,110.806z"/>
			<path d="M111.786,81.306c0,0,3-0.25,6.125-2.75s6.25-8.625,8-10.125c0,0,0.5-0.75-0.5-0.875s-6.125-0.125-9.5,0.5
				s-6.125,2.5-6.875,3.75l1,1.375l-3.125,3.125C106.911,76.306,111.286,80.306,111.786,81.306z"/>
			<path d="M106.286,70.681c0,0,0.875-3.875,0.875-4.375l-1.75,1.125l-3.75-2.625l0.25,4.75L106.286,70.681z"/>
			<path d="M128.161,48.306c0,0,4,5.125,4.5,9.75s0.75,10.5,0.75,10.5s-3.5-2.375-6.25-4.25c-2.75-1.875-7.5-7.25-8.75-11.375
				c0,0,5.125-2.25,6.125-4.875C124.536,48.056,128.661,48.681,128.161,48.306z"/>
			<path d="M128.286,33.056c0,0,2.75,0.75,6.625-1s6.5-3.75,6.5-3.75s-0.625-0.375-3.125-1.25s-6.375-2.5-10.125-1.125l-3.375,3.125
				c0,0,2.375,1.25,3.375,1.75C129.161,31.306,128.286,33.056,128.286,33.056z"/>
			<path d="M99.661,21.431c0,0-1.75-4.875-8.375-7.375s-13.625-4.5-16.875-7.125c0,0-1.5-0.75,0.125,0.875s3.5,3.375,4.75,6.5
				s4.25,9.75,10,11.75l6.125,0.625L99.661,21.431z"/>
			<path d="M69.911,40.806c0,0,2-2.875,3-7.625s1.25-10.375,2.25-12.375c0,0,0.25-0.625-0.75,0.125s-2.875,2.875-5.125,4.5
				s-5,3.875-6.125,8.125c0,0,4.5,4.875,4,8.625L69.911,40.806z"/>
			<path d="M50.911,29.931c0,0,4.125,2.125,9,0.375s9.375-6.875,9.375-6.875s-4.125-2.875-7-4.125c-2.875-1.25-7.125-1.5-10,0.125
				l-2,3.375l3,2.625c0,0-0.875,1.875-2,2.625s-1.625,1.25-1.625,1.25L50.911,29.931z"/>
			<path d="M53.036,34.306l1.625-4.125l-2.375-0.875c0,0-1-0.75-1.5-0.625s-1.5,1.25-1.5,1.25l1.25,0.875l-3.75,3.25l1.875,1.125
				l2.5,2.625l0.625-3.75L53.036,34.306z"/>
			<path d="M17.911,26.181c0,0-1.625-3-5-4s-4.375,1.375-4.375,1.375l-0.125,2.125c0,0-0.125,4.5,5.875,6.125l1.125-4.875
				L17.911,26.181z"/>
			<path d="M26.911,95.181c0,0,2.25,5-0.5,9.625s-6,7.875-6.375,9.125c0,0-3.5-6.75-3.5-10.375l2-3.875l1.25,0.875
				C19.786,100.556,24.036,99.181,26.911,95.181z"/>
		</g>
		<path d="M15.498,21.836l-0.256-1.395c-0.163,0.029-4.032,0.669-6.082-3.139l-1.248,0.672
			C10.461,22.709,15.448,21.845,15.498,21.836z"/>
	</g>
	<g>
		<circle style="fill:#E60012;" cx="42.203" cy="198.722" r="23.833"/>
		<g>
			<path style="fill:#FFFFFF;" d="M35.393,188.337c0,0-0.512-0.171-1.701-0.851c-1.191-0.682-2.043-0.682-2.043-0.682
				s0.297,1.319,0.297,2.469s0.383,2.171,1.404,1.787C34.372,190.678,35.393,188.337,35.393,188.337z"/>
			<path style="fill:#FFFFFF;" d="M38.202,191.699c0,0-1.148,1.021-1.787,1.66c-0.639,0.638-0.639,0.766,0.893,0.383
				c0,0,2.002-0.213,2.344-0.724c0.338-0.511,0.086-1.362-0.512-1.362c-0.596,0-1.447-0.425-1.107-1.021l1.702-1.532
				c0,0,0.171-0.255,0.171-0.766c0-0.511,0.342-7.235,0.256-7.746c-0.086-0.51-0.424-1.873-0.51-2.298
				c-0.086-0.426,0.254-0.597,0.766-0.341c0.51,0.255,1.531,1.362,1.531,1.362s0.426,0.511,0.34,1.021
				c-0.084,0.511-0.34,4.597-0.34,4.852c0,0.256,0.512,0.936,0.768,0.681c0.254-0.256,4.424-4.511,4.68-4.767
				c0.256-0.255,0.34-0.681,0.682-0.936c0.34-0.255,0.68-0.34,1.191,0.426c0.51,0.767,1.021,1.617,1.021,1.617
				s-0.086,0.937-0.598,1.192c-0.51,0.255-7.83,6.128-8.084,6.384c-0.256,0.255-0.598,0.596-0.512,1.021
				c0.086,0.425,0.17,1.361,0.17,1.361s0.512,0.511,0.938,0.171c0.426-0.341,3.658-2.129,4-2.299s0.17-0.511,0.936-0.255
				c0.766,0.255,1.535,1.446,1.703,2.043c0.17,0.596-0.086,0.681-0.596,0.851c-0.512,0.171-3.574,2.043-3.574,2.043
				s-0.34,0.17,0.084,0.34c0.426,0.171,1.191,0.767,1.191,0.767s1.105,0.171,0.766,0.936c-0.34,0.766-1.189,1.787-1.701,3.234
				c-0.51,1.447-0.852,5.533-0.852,6.469c0,0.937,0.68,1.448,1.787,1.532c1.107,0.085,4.768,0.341,6.469-0.084
				c1.702-0.427,3.661-2.81,3.832-3.235c0.169-0.426,0.255-1.021,0.255-1.361c0-0.341,0.509-0.257,0.936,0.169
				c0.425,0.427,1.874,3.746,2.213,4.512c0.341,0.767,0.002,1.532-0.595,1.958s-2.554,0.852-3.576,1.191
				c-1.021,0.341-8.682,0.171-10.725-0.17c-2.041-0.341-2.639-0.852-2.725-2.895c-0.084-2.043,0.172-7.83,0.172-7.83
				s-0.086-0.85-0.51-0.682c-0.428,0.171-3.15,3.32-3.918,4.001c-0.766,0.681-6.467,6.214-7.063,6.469c-0.598,0.256-2.98,0-3.406,0
				c-0.426,0-0.51-0.596,0.17-0.851c0.682-0.256,1.191-0.597,1.617-0.852c0.426-0.256,9.789-10.811,10.045-11.405
				c0.256-0.597,0.34-1.106,0.34-1.447c0-0.341-0.598-0.852-1.191-0.511c-0.596,0.34-3.66,2.469-4.342,2.809
				c-0.68,0.34-1.787,0-2.297-0.171c-0.512-0.17-0.512-0.68-0.086-1.105c0.426-0.427,5.277-4.597,5.533-4.768
				C37.353,191.571,38.884,190.635,38.202,191.699z"/>
		</g>
	</g>
	<path style="fill:#E60012;" d="M8.536,206.806c3.667,2.333,11.5,5.166,11.5,5.166c-8.333-15.667,0.333-27.333,0.333-27.333
		s-8.166-3-11.666-5L8.536,206.806z"/>
	<path style="fill:#E60012;" d="M89.869,230.972c-19.666-3.166-37-8.332-37-8.332c15.501-7.167,16-22.001,16-22.001
		s34.417,9.917,75.667,2.667l-0.166,19.666c0,0-0.334,7.668-10.334,8.334L89.869,230.972z"/>
</g>
</svg>
