<?xml version="1.0" encoding="iso-8859-1"?>
<!-- Generator: Adobe Illustrator 19.1.0, SVG Export Plug-In . SVG Version: 6.00 Build 0)  -->
<svg version="1.1" id="&#xB808;&#xC774;&#xC5B4;_1" xmlns="http://www.w3.org/2000/svg" xmlns:xlink="http://www.w3.org/1999/xlink"
	 x="0px" y="0px" viewBox="0 0 153.07 238.11" style="enable-background:new 0 0 153.07 238.11;" xml:space="preserve">
<rect style="fill:#E60012;" width="153.07" height="238.11"/>
<g>
	<path style="fill:#FFFFFF;" d="M7.785,17.287l-0.334,87.5l21.334,52.667l10.666,40.334l6.667,6c0,0,28.334-10.001,29-9.834
		c0.667,0.167,11.667,0,11.667,0l37.667-55l21-40.833l-0.167-82.166c0,0-1.167-9.5-10.667-9.167H17.451
		C17.451,6.787,8.785,6.953,7.785,17.287z"/>
	<path style="fill:#FDD000;" d="M7.785,89.245c0,0,1.875-2.75,4.625-2.375s4,5,1.75,11.5s-6.25,6.25-6.25,6.25L7.785,89.245z"/>
	<path style="fill:#FDD000;" d="M43.035,179.62c0,0-1.375-3.25-0.125-7.25s4.375-7.75,6.625-9.25s4.625-0.75,5.25,2.25
		s-1,5.875-2.75,8.75s-6.625,5.875-7.875,6.125S43.035,179.62,43.035,179.62z"/>
	<path style="fill:#FDD000;" d="M59.16,164.87c0,0-2.875,0.75-2.875,6.5s4.125,11,5.125,12.25s3,1.75,3,1.75l0.875-5.75
		c0,0,0.625-5.25,0-9.375S61.285,163.87,59.16,164.87z"/>
	<path style="fill:#FDD000;" d="M104.035,23.12c0,0-2.125-1.125-3.375,3.125s1.125,10.375,2.375,11.875s2.5,4,2.5,4l4-1.125
		l0.375-6.5c0,0-0.5-5.375-1.375-8.375S105.285,22.745,104.035,23.12z"/>
	<path d="M17.706,6.271c-5.861,0-10.63,4.769-10.63,10.63v204.308c0,5.861,4.769,10.63,10.63,10.63h117.658
		c5.861,0,10.63-4.769,10.63-10.63V16.901c0-5.861-4.768-10.63-10.63-10.63H17.706z M8.493,221.209V16.901
		c0-5.08,4.133-9.213,9.213-9.213h117.658c5.08,0,9.212,4.133,9.212,9.213v204.308c0,5.08-4.132,9.212-9.212,9.212H17.706
		C12.626,230.421,8.493,226.289,8.493,221.209z"/>
	<path d="M7.195,89.061l1.178,0.788c0.072-0.107,1.793-2.596,4.606-2.034c0.509,0.102,0.896,0.452,1.186,1.07
		c1.08,2.313,0.244,7.305-1.169,9.896c-1.335,2.448-3.458,4.356-5.161,4.64l0.233,1.398c2.137-0.356,4.617-2.511,6.172-5.36
		c1.635-2.997,2.499-8.412,1.209-11.174c-0.479-1.026-1.237-1.669-2.191-1.86C9.502,85.674,7.288,88.922,7.195,89.061z"/>
	<path d="M50.551,162.029c-1.486,0.411-4.359,1.86-6.899,6.941c-3.647,7.294-1.219,10.906-1.113,11.057l0.046,0.066l0.061,0.054
		c0.324,0.292,0.909,0.618,1.855,0.517c2.349-0.252,6.086-3.174,8.693-6.796c2.263-3.143,2.598-6.684,2.198-8.763
		c-0.252-1.309-0.791-2.26-1.56-2.749C52.96,161.801,51.795,161.685,50.551,162.029z M43.075,176.284c0-1.575,0.4-3.794,1.844-6.68
		c1.676-3.352,3.866-5.616,6.011-6.209c0.84-0.233,1.62-0.176,2.142,0.155c0.419,0.267,0.758,0.931,0.929,1.821
		c0.347,1.802,0.042,4.891-1.957,7.667c-2.318,3.22-5.77,6.008-7.694,6.215c-0.317,0.034-0.545-0.024-0.705-0.145
		C43.506,178.858,43.075,177.955,43.075,176.284z"/>
	<path d="M59.518,164.252c-0.748,0.106-1.848,0.645-2.691,1.835c-0.926,1.309-1.835,3.847-0.903,8.505
		c1.561,7.804,6.417,9.622,6.623,9.695l0.142,0.051l0.151-0.011c2.789-0.216,3.832-3.626,3.486-11.405
		c-0.151-3.408-1.138-5.892-2.932-7.38C61.898,164.301,60.254,164.146,59.518,164.252z M57.313,174.314
		c-0.261-1.305-0.368-2.413-0.368-3.353c0-2.061,0.513-3.313,1.039-4.057c0.624-0.881,1.384-1.201,1.734-1.251
		c0.378-0.054,1.612,0.018,2.771,0.979c1.453,1.205,2.29,3.401,2.421,6.352c0.041,0.908,0.061,1.755,0.061,2.539
		c0,4.682-0.729,7.122-2.149,7.341C61.972,182.471,58.558,180.533,57.313,174.314z"/>
	<path d="M104.178,22.253c-1.402,0.215-2.428,0.796-3.137,1.776c-1.194,1.649-1.452,4.388-0.788,8.373
		c1.227,7.359,5.653,8.68,5.841,8.733l0.037,0.009c0.617,0.137,1.261-0.038,1.812-0.492c1.543-1.27,2.331-4.485,2.217-9.051
		c-0.097-3.918-1.139-6.901-2.932-8.401C106.306,22.429,105.222,22.092,104.178,22.253z M101.651,32.17
		c-0.227-1.357-0.339-2.556-0.339-3.591c0-1.666,0.292-2.912,0.876-3.718c0.489-0.675,1.169-1.047,2.204-1.207
		c0.637-0.098,1.32,0.127,1.927,0.634c0.854,0.715,2.307,2.621,2.425,7.349c0.117,4.712-0.803,7.182-1.701,7.921
		c-0.207,0.17-0.403,0.238-0.585,0.205C106.209,39.687,102.704,38.492,101.651,32.17z"/>
	<path d="M144.952,97.287c0,0-23-56.833-35.5-64c0,0-0.166,7-2.5,7.333c-2.334,0.334-5.5-5.333-6-7.5c0,0-30.667,55.5-23.667,155.75
		c0,0-6.333-7.584-11.667-10.417c0,0-0.833,5.334-2.333,5.334c-1.5,0-3.167-2-3.167-2s-5.834,5.332-12.667,15.166
		c0,0-1.5-12.5-2.5-17c0,0-3.5,2.001-2.166-7.666c0,0-10-56.5-28.334-75c0,0-1.333,5.833-6.333,6.333c0,0-0.5,1.167-0.5,1.834
		V221.62c0,0-0.157,9.02,10.088,9.51h117.658c0,0,9.921-0.999,9.921-9.921L144.952,97.287z"/>
	<path d="M144.474,85.659l-2.666,5.833c-0.163,0.356-0.006,0.777,0.35,0.939c0.356,0.163,0.777,0.006,0.939-0.35l2.666-5.833
		c0.163-0.356,0.006-0.777-0.35-0.939C145.057,85.146,144.636,85.303,144.474,85.659z"/>
	<path d="M143.461,77.188l-4.5,11.167c-0.146,0.363,0.029,0.776,0.393,0.922c0.362,0.146,0.775-0.029,0.922-0.393l4.5-11.166
		c0.146-0.363-0.029-0.776-0.393-0.922C144.02,76.65,143.607,76.826,143.461,77.188z"/>
	<path d="M141.948,72.555l-4.333,12.5c-0.128,0.37,0.068,0.774,0.438,0.901c0.37,0.128,0.773-0.067,0.902-0.437l4.333-12.5
		c0.128-0.37-0.068-0.774-0.438-0.901C142.48,71.989,142.077,72.185,141.948,72.555z"/>
	<path d="M139.955,68.203l-4.666,12.333c-0.139,0.366,0.046,0.775,0.412,0.913c0.366,0.139,0.775-0.046,0.914-0.412l4.666-12.333
		c0.139-0.366-0.046-0.775-0.412-0.914C140.503,67.652,140.094,67.837,139.955,68.203z"/>
	<path d="M137.453,64.208l-4,10.833c-0.136,0.367,0.053,0.775,0.42,0.91c0.367,0.136,0.774-0.052,0.91-0.419l4-10.833
		c0.136-0.367-0.053-0.775-0.42-0.91C137.996,63.653,137.589,63.841,137.453,64.208z"/>
	<path d="M135.629,59.854l-4.667,11.5c-0.148,0.363,0.027,0.776,0.39,0.923c0.363,0.147,0.776-0.028,0.923-0.39l4.667-11.5
		c0.147-0.363-0.027-0.776-0.39-0.923C136.189,59.316,135.775,59.491,135.629,59.854z"/>
	<path d="M132.953,56.043l-3.666,10c-0.135,0.367,0.054,0.774,0.421,0.909c0.368,0.135,0.774-0.054,0.909-0.421l3.666-10
		c0.135-0.368-0.054-0.775-0.421-0.91C133.494,55.486,133.088,55.675,132.953,56.043z"/>
	<path d="M130.771,51.091l-3.167,11c-0.108,0.376,0.108,0.769,0.484,0.877c0.376,0.108,0.769-0.109,0.877-0.485l3.167-11
		c0.108-0.376-0.108-0.769-0.484-0.877C131.272,50.498,130.88,50.714,130.771,51.091z"/>
	<path d="M128.802,46.672l-4.834,11.167c-0.155,0.359,0.01,0.777,0.369,0.932c0.358,0.155,0.776-0.01,0.932-0.369l4.834-11.167
		c0.155-0.359-0.01-0.776-0.369-0.932C129.375,46.148,128.957,46.313,128.802,46.672z"/>
	<path d="M126.622,42.87l-4.333,11.5c-0.138,0.366,0.047,0.775,0.413,0.913c0.366,0.138,0.775-0.047,0.913-0.413l4.333-11.5
		c0.138-0.366-0.047-0.775-0.413-0.913C127.169,42.319,126.76,42.504,126.622,42.87z"/>
	<path d="M124.443,39.736l-3.5,10.833c-0.12,0.373,0.085,0.772,0.457,0.892c0.372,0.12,0.771-0.084,0.893-0.457l3.5-10.833
		c0.12-0.372-0.085-0.772-0.457-0.892C124.964,39.159,124.564,39.363,124.443,39.736z"/>
	<path d="M121.794,36.357l-4.667,11.667c-0.146,0.363,0.031,0.776,0.395,0.921c0.364,0.146,0.776-0.031,0.922-0.395l4.667-11.666
		c0.146-0.363-0.031-0.776-0.396-0.921C122.351,35.817,121.939,35.994,121.794,36.357z"/>
	<path d="M119.777,33.069l-3.334,10.333c-0.12,0.373,0.085,0.772,0.457,0.892c0.373,0.12,0.772-0.084,0.893-0.457l3.334-10.333
		c0.12-0.372-0.085-0.772-0.457-0.892C120.297,32.492,119.897,32.697,119.777,33.069z"/>
	<path d="M117.441,30.575l-3.333,10.667c-0.116,0.374,0.092,0.771,0.466,0.888c0.373,0.117,0.771-0.091,0.888-0.465l3.333-10.667
		c0.116-0.374-0.092-0.771-0.466-0.888C117.956,29.994,117.559,30.202,117.441,30.575z"/>
	<path d="M113.762,28.795l-1.834,8c-0.088,0.381,0.15,0.762,0.532,0.849c0.382,0.087,0.762-0.151,0.849-0.533l1.834-8
		c0.088-0.381-0.15-0.761-0.532-0.849C114.229,28.175,113.849,28.414,113.762,28.795z"/>
	<path d="M111.422,26.152l-1.832,9.5c-0.074,0.384,0.177,0.756,0.561,0.83c0.385,0.074,0.757-0.177,0.83-0.562l1.834-9.5
		c0.073-0.384-0.178-0.756-0.562-0.83C111.868,25.517,111.496,25.768,111.422,26.152z"/>
	<path d="M98.027,24.053c-0.313,0.235-0.377,0.679-0.143,0.992l2,2.667c0.235,0.313,0.68,0.377,0.992,0.142
		c0.313-0.235,0.377-0.679,0.143-0.992l-2-2.667C98.784,23.882,98.34,23.818,98.027,24.053z"/>
	<path d="M94.742,25.853c-0.332,0.207-0.433,0.645-0.225,0.976l5.834,9.333c0.207,0.332,0.645,0.433,0.977,0.226
		c0.331-0.208,0.433-0.645,0.225-0.977l-5.834-9.333C95.512,25.746,95.074,25.646,94.742,25.853z"/>
	<path d="M93.017,28.895c-0.309,0.241-0.364,0.686-0.123,0.995l7.666,9.833c0.24,0.309,0.686,0.364,0.994,0.124
		c0.309-0.241,0.364-0.686,0.123-0.995l-7.666-9.833C93.771,28.709,93.325,28.654,93.017,28.895z"/>
	<path d="M91.566,33.192c-0.328,0.213-0.422,0.652-0.209,0.98l5.833,9c0.213,0.329,0.651,0.422,0.98,0.209
		c0.328-0.213,0.422-0.652,0.209-0.98l-5.833-9C92.334,33.073,91.896,32.979,91.566,33.192z"/>
	<path d="M88.17,36.071c-0.303,0.248-0.349,0.694-0.101,0.997l8.167,10c0.247,0.303,0.694,0.348,0.997,0.101
		c0.303-0.248,0.349-0.694,0.101-0.997l-8.167-10C88.92,35.869,88.473,35.824,88.17,36.071z"/>
	<path d="M86,40.408c-0.301,0.25-0.343,0.697-0.094,0.998l8.833,10.667c0.25,0.301,0.696,0.343,0.998,0.094
		c0.302-0.25,0.343-0.696,0.094-0.998l-8.833-10.667C86.748,40.2,86.302,40.158,86,40.408z"/>
	<path d="M84.011,44.232c-0.307,0.244-0.356,0.69-0.112,0.996l9.833,12.333c0.243,0.306,0.689,0.356,0.995,0.112
		c0.307-0.244,0.357-0.69,0.112-0.996l-9.833-12.333C84.763,44.039,84.316,43.988,84.011,44.232z"/>
	<path d="M82.188,48.391c-0.311,0.238-0.37,0.683-0.132,0.993l10.334,13.5c0.237,0.311,0.683,0.37,0.993,0.132
		c0.311-0.238,0.37-0.683,0.132-0.993l-10.334-13.5C82.943,48.212,82.498,48.153,82.188,48.391z"/>
	<path d="M80.188,52.391c-0.311,0.238-0.37,0.683-0.132,0.993l10.334,13.5c0.237,0.311,0.683,0.37,0.993,0.132
		c0.311-0.238,0.37-0.683,0.132-0.993l-10.334-13.5C80.943,52.212,80.498,52.153,80.188,52.391z"/>
	<path d="M78.839,56.903c-0.304,0.246-0.351,0.692-0.104,0.997l11.333,14c0.246,0.304,0.692,0.351,0.997,0.105
		c0.304-0.246,0.351-0.692,0.104-0.997l-11.333-14C79.59,56.704,79.144,56.657,78.839,56.903z"/>
	<path d="M77.691,62.054c-0.312,0.235-0.375,0.68-0.14,0.992l10.667,14.167c0.235,0.312,0.68,0.376,0.992,0.14
		c0.313-0.235,0.376-0.68,0.141-0.992L78.685,62.194C78.449,61.881,78.005,61.818,77.691,62.054z"/>
	<path d="M76.501,67.907c-0.302,0.249-0.345,0.695-0.096,0.998l11,13.333c0.249,0.302,0.696,0.345,0.998,0.095
		c0.302-0.249,0.345-0.695,0.096-0.998l-11-13.333C77.25,67.701,76.803,67.658,76.501,67.907z"/>
	<path d="M74.825,73.414c-0.298,0.254-0.334,0.701-0.08,0.999l11.501,13.5c0.254,0.298,0.7,0.334,0.999,0.08
		c0.298-0.254,0.333-0.701,0.079-0.999l-11.5-13.5C75.57,73.196,75.123,73.16,74.825,73.414z"/>
	<path d="M74.032,78.382c-0.315,0.231-0.384,0.675-0.152,0.99l9.167,12.5c0.231,0.316,0.675,0.384,0.99,0.152
		c0.315-0.231,0.384-0.675,0.152-0.99l-9.167-12.5C74.791,78.219,74.348,78.151,74.032,78.382z"/>
	<path d="M73.352,83.726c-0.31,0.239-0.367,0.685-0.128,0.994l10.168,13.167c0.239,0.31,0.684,0.367,0.993,0.128
		c0.311-0.239,0.367-0.685,0.128-0.994L74.346,83.854C74.106,83.544,73.661,83.486,73.352,83.726z"/>
	<path d="M71.829,89.244c-0.3,0.252-0.338,0.699-0.086,0.999l11.5,13.667c0.252,0.3,0.698,0.338,0.998,0.086
		c0.3-0.252,0.338-0.699,0.086-0.998l-11.5-13.667C72.575,89.031,72.128,88.993,71.829,89.244z"/>
	<path d="M70.526,94.22c-0.313,0.235-0.377,0.679-0.142,0.992l12,16c0.235,0.313,0.68,0.376,0.992,0.142
		c0.313-0.235,0.377-0.679,0.143-0.992l-12.001-16C71.283,94.048,70.839,93.985,70.526,94.22z"/>
	<path d="M69.193,99.387c-0.313,0.235-0.377,0.679-0.142,0.992l13.999,18.666c0.235,0.313,0.68,0.377,0.992,0.142
		c0.313-0.235,0.377-0.679,0.143-0.992l-14-18.667C69.95,99.215,69.506,99.152,69.193,99.387z"/>
	<path d="M68.695,105.718c-0.314,0.234-0.379,0.678-0.146,0.992l11.667,15.666c0.233,0.314,0.678,0.379,0.991,0.146
		c0.314-0.233,0.379-0.678,0.146-0.991l-11.667-15.667C69.453,105.549,69.009,105.484,68.695,105.718z"/>
	<path d="M68.518,111.56c-0.31,0.239-0.366,0.685-0.127,0.994l12.501,16.167c0.239,0.31,0.684,0.366,0.994,0.127
		c0.31-0.239,0.366-0.685,0.127-0.994l-12.501-16.167C69.272,111.377,68.827,111.32,68.518,111.56z"/>
	<path d="M67.155,117.25c-0.296,0.256-0.329,0.703-0.073,0.999l14.667,17.001c0.255,0.296,0.702,0.329,0.999,0.073
		c0.296-0.255,0.329-0.702,0.073-0.999l-14.666-17C67.899,117.027,67.452,116.995,67.155,117.25z"/>
	<path d="M67.378,123.54c-0.32,0.225-0.397,0.667-0.173,0.987l12.167,17.333c0.225,0.32,0.667,0.397,0.987,0.173
		c0.32-0.225,0.397-0.667,0.173-0.987l-12.167-17.333C68.14,123.393,67.698,123.315,67.378,123.54z"/>
	<path d="M66.518,129.393c-0.31,0.239-0.366,0.685-0.127,0.994l13.667,17.667c0.239,0.31,0.685,0.366,0.994,0.127
		c0.31-0.239,0.366-0.685,0.127-0.994L67.512,129.52C67.272,129.21,66.827,129.153,66.518,129.393z"/>
	<path d="M65.176,134.899c-0.306,0.245-0.355,0.69-0.11,0.996l15.333,19.167c0.245,0.306,0.69,0.355,0.996,0.111
		c0.306-0.245,0.355-0.69,0.111-0.996l-15.334-19.167C65.928,134.705,65.481,134.655,65.176,134.899z"/>
	<path d="M65.018,141.56c-0.31,0.24-0.366,0.685-0.126,0.994l14.333,18.5c0.24,0.31,0.685,0.366,0.994,0.127
		c0.31-0.24,0.366-0.686,0.127-0.994l-14.334-18.5C65.771,141.377,65.327,141.32,65.018,141.56z"/>
	<path d="M65.071,149.199c-0.228,0.295-0.174,0.727,0.104,0.974c0.623,0.553,9.755,11.015,15.741,17.912
		c0.257,0.295,0.704,0.327,1,0.07c0.295-0.257,0.327-0.704,0.07-1c-5.75-6.625-15.472-17.789-15.976-18.125
		C65.701,148.824,65.299,148.904,65.071,149.199z"/>
	<path d="M66.328,155.578c-0.299,0.252-0.338,0.699-0.085,0.998l16.833,20c0.252,0.3,0.699,0.338,0.998,0.086
		c0.3-0.252,0.338-0.699,0.086-0.998l-16.833-20C67.075,155.364,66.628,155.326,66.328,155.578z"/>
	<path d="M65.996,161.41c-0.3,0.252-0.339,0.699-0.087,0.999l14.833,17.667c0.252,0.3,0.699,0.339,0.999,0.087
		c0.3-0.252,0.339-0.699,0.087-0.999l-14.834-17.667C66.742,161.198,66.296,161.159,65.996,161.41z"/>
	<path d="M65.347,167.73c-0.308,0.242-0.36,0.688-0.119,0.995l16.001,20.333c0.242,0.308,0.688,0.36,0.995,0.118
		c0.308-0.242,0.36-0.688,0.118-0.995l-16-20.333C66.1,167.541,65.654,167.488,65.347,167.73z"/>
	<path d="M66.278,173.998c-0.344,0.189-0.47,0.619-0.281,0.962l11.666,21.333c0.188,0.344,0.619,0.47,0.962,0.282
		c0.344-0.189,0.47-0.619,0.282-0.962L67.24,174.28C67.053,173.937,66.622,173.811,66.278,173.998z"/>
	<path d="M78.981,181.424l-6.001,5.334c-0.292,0.26-0.318,0.708-0.059,1c0.26,0.293,0.708,0.319,1,0.059l6.001-5.334
		c0.293-0.26,0.319-0.708,0.059-1C79.722,181.189,79.273,181.163,78.981,181.424z"/>
	<path d="M78.376,173.04l-7.167,10c-0.229,0.318-0.155,0.761,0.163,0.989c0.318,0.228,0.761,0.155,0.989-0.163l7.167-10
		c0.228-0.318,0.155-0.761-0.163-0.989C79.047,172.649,78.604,172.722,78.376,173.04z"/>
	<path d="M74.849,170.581l-7,11.334c-0.206,0.333-0.103,0.77,0.23,0.975c0.333,0.206,0.77,0.104,0.976-0.23l7-11.334
		c0.205-0.333,0.103-0.77-0.23-0.975C75.491,170.145,75.054,170.247,74.849,170.581z"/>
	<path d="M69.091,169.476l-2.5,12c-0.079,0.383,0.166,0.759,0.55,0.838c0.383,0.08,0.758-0.166,0.838-0.549l2.5-12
		c0.08-0.383-0.166-0.759-0.549-0.838C69.546,168.847,69.171,169.093,69.091,169.476z"/>
	<path d="M53.689,179.236l-8.167,12.667c-0.212,0.329-0.117,0.768,0.212,0.98c0.329,0.212,0.768,0.117,0.979-0.212l8.167-12.667
		c0.212-0.329,0.117-0.768-0.212-0.979C54.34,178.812,53.901,178.907,53.689,179.236z"/>
	<path d="M55.498,183.11l-8,14.5c-0.189,0.343-0.064,0.773,0.278,0.963c0.343,0.189,0.772,0.065,0.963-0.277l8-14.5
		c0.189-0.343,0.065-0.773-0.278-0.963C56.118,182.644,55.688,182.768,55.498,183.11z"/>
	<path d="M52.861,174.56l-8.333,12.5c-0.217,0.326-0.129,0.766,0.197,0.983c0.325,0.217,0.766,0.129,0.982-0.196l8.333-12.5
		c0.217-0.326,0.129-0.766-0.196-0.983C53.518,174.146,53.079,174.234,52.861,174.56z"/>
	<path d="M51.21,176.208c-0.319,0.225-0.396,0.667-0.171,0.987l8.333,11.833c0.226,0.32,0.667,0.396,0.987,0.171
		c0.32-0.225,0.396-0.667,0.172-0.987l-8.333-11.833C51.973,176.06,51.53,175.982,51.21,176.208z"/>
	<path d="M49.374,179.21c-0.319,0.227-0.394,0.67-0.166,0.988l8.666,12.166c0.228,0.318,0.67,0.394,0.988,0.166
		c0.319-0.227,0.394-0.67,0.166-0.988l-8.666-12.166C50.135,179.058,49.692,178.982,49.374,179.21z"/>
	<path d="M46.029,181.051c-0.315,0.233-0.38,0.677-0.148,0.991l7.167,9.667c0.233,0.314,0.677,0.381,0.991,0.147
		c0.315-0.233,0.381-0.677,0.148-0.991l-7.167-9.667C46.787,180.884,46.344,180.817,46.029,181.051z"/>
	<path d="M45.673,188.169c-0.331,0.149-0.509,0.498-0.393,0.843c0.053,0.159,0.215,0.645,6.318,7.256
		c0.266,0.288,0.714,0.306,1.001,0.04c0.288-0.266,0.306-0.714,0.04-1.001c-2.726-2.953-5.771-6.348-6.049-6.822
		C46.407,188.171,46.003,188.019,45.673,188.169z"/>
	<path d="M48.971,157.499l-4,9c-0.159,0.358,0.002,0.776,0.36,0.936c0.357,0.159,0.775-0.002,0.935-0.359l4-9
		c0.159-0.357-0.001-0.776-0.359-0.936C49.549,156.98,49.13,157.142,48.971,157.499z"/>
	<path d="M47.839,152.765l-7.833,13.5c-0.197,0.338-0.082,0.771,0.257,0.969c0.339,0.196,0.772,0.081,0.969-0.258l7.833-13.5
		c0.196-0.338,0.081-0.772-0.258-0.969C48.469,152.311,48.035,152.426,47.839,152.765z"/>
	<path d="M46.531,148.391l-8,11.833c-0.219,0.324-0.134,0.765,0.19,0.983c0.324,0.22,0.765,0.134,0.983-0.19l8-11.833
		c0.22-0.324,0.135-0.765-0.189-0.983C47.191,147.98,46.751,148.066,46.531,148.391z"/>
	<path d="M44.702,145.051l-8.167,11.834c-0.223,0.322-0.142,0.764,0.181,0.985c0.322,0.223,0.764,0.142,0.986-0.181l8.166-11.834
		c0.223-0.322,0.142-0.764-0.181-0.985C45.365,144.647,44.924,144.729,44.702,145.051z"/>
	<path d="M44.059,139.519l-9.833,12.667c-0.24,0.309-0.185,0.755,0.125,0.994c0.308,0.24,0.754,0.185,0.994-0.125l9.833-12.667
		c0.24-0.309,0.185-0.755-0.125-0.994C44.744,139.153,44.299,139.209,44.059,139.519z"/>
	<path d="M42.694,136.062l-8.167,12.334c-0.216,0.327-0.127,0.767,0.2,0.982c0.326,0.216,0.766,0.127,0.981-0.199l8.167-12.334
		c0.216-0.327,0.127-0.767-0.2-0.983C43.35,135.646,42.91,135.735,42.694,136.062z"/>
	<path d="M41.208,131.876l-9.5,13.333c-0.228,0.318-0.153,0.762,0.166,0.988c0.318,0.227,0.761,0.153,0.988-0.166l9.5-13.333
		c0.227-0.318,0.152-0.762-0.166-0.988C41.877,131.483,41.434,131.557,41.208,131.876z"/>
	<path d="M39.349,127.414l-7.833,12.666c-0.206,0.333-0.104,0.771,0.23,0.976c0.332,0.206,0.77,0.104,0.975-0.229l7.833-12.666
		c0.206-0.333,0.104-0.771-0.229-0.976C39.991,126.979,39.554,127.081,39.349,127.414z"/>
	<path d="M38.542,124.04l-8,11.167c-0.228,0.318-0.154,0.762,0.164,0.989c0.317,0.228,0.761,0.154,0.988-0.163l8-11.167
		c0.229-0.318,0.155-0.762-0.163-0.989C39.213,123.649,38.77,123.723,38.542,124.04z"/>
	<path d="M37.191,119.4l-7.833,12c-0.214,0.328-0.122,0.768,0.206,0.981c0.327,0.214,0.767,0.122,0.98-0.206l7.833-12
		c0.214-0.328,0.122-0.768-0.206-0.981C37.845,118.98,37.405,119.072,37.191,119.4z"/>
	<path d="M35.682,116.915l-7.5,12.166c-0.205,0.333-0.102,0.77,0.231,0.976c0.333,0.205,0.77,0.102,0.975-0.232l7.5-12.166
		c0.206-0.334,0.103-0.77-0.23-0.975C36.323,116.478,35.887,116.582,35.682,116.915z"/>
	<path d="M33.486,112.3l-6,11.833c-0.177,0.349-0.038,0.775,0.312,0.952c0.35,0.177,0.776,0.038,0.952-0.312l6-11.833
		c0.178-0.349,0.039-0.776-0.312-0.952C34.09,111.811,33.663,111.95,33.486,112.3z"/>
	<path d="M32.19,109.734l-8,12.333c-0.213,0.328-0.119,0.768,0.209,0.98s0.768,0.119,0.981-0.209l8-12.333
		c0.213-0.329,0.119-0.768-0.209-0.98C32.842,109.312,32.403,109.406,32.19,109.734z"/>
	<path d="M30.502,106.771l-6.5,11.5c-0.193,0.341-0.073,0.773,0.268,0.966c0.341,0.192,0.773,0.072,0.966-0.269l6.5-11.5
		c0.192-0.341,0.072-0.773-0.269-0.965C31.126,106.311,30.694,106.431,30.502,106.771z"/>
	<path d="M28.821,103.63l-6.667,13c-0.179,0.348-0.042,0.775,0.308,0.954c0.348,0.179,0.775,0.042,0.953-0.307l6.667-13
		c0.179-0.348,0.042-0.775-0.308-0.954C29.427,103.145,28.999,103.281,28.821,103.63z"/>
	<path d="M26.688,101.239l-7.334,11.5c-0.21,0.33-0.113,0.768,0.217,0.979c0.33,0.211,0.768,0.113,0.979-0.217l7.334-11.5
		c0.21-0.33,0.113-0.768-0.217-0.979C27.336,100.812,26.898,100.909,26.688,101.239z"/>
	<path d="M25.028,97.727l-7.667,11.5c-0.217,0.326-0.129,0.766,0.197,0.983c0.325,0.217,0.766,0.129,0.982-0.197l7.667-11.5
		c0.217-0.326,0.129-0.766-0.196-0.983C25.685,97.313,25.246,97.401,25.028,97.727z"/>
	<path d="M23.184,95.245l-7.167,11.5c-0.207,0.333-0.106,0.769,0.226,0.977c0.333,0.207,0.77,0.105,0.977-0.227l7.167-11.5
		c0.207-0.332,0.105-0.769-0.227-0.976C23.827,94.812,23.391,94.913,23.184,95.245z"/>
	<path d="M21.017,92.579l-6.333,10.167c-0.207,0.332-0.106,0.769,0.226,0.976c0.332,0.207,0.769,0.105,0.977-0.227l6.333-10.166
		c0.207-0.332,0.105-0.769-0.227-0.976C21.661,92.145,21.225,92.247,21.017,92.579z"/>
	<path d="M18.511,90.755l-6.5,10.834c-0.201,0.336-0.093,0.771,0.243,0.973c0.336,0.201,0.771,0.092,0.972-0.243l6.5-10.833
		c0.202-0.336,0.093-0.771-0.242-0.972C19.147,90.311,18.712,90.42,18.511,90.755z"/>
</g>
</svg>
