<?xml version="1.0" encoding="iso-8859-1"?>
<!-- Generator: Adobe Illustrator 19.1.0, SVG Export Plug-In . SVG Version: 6.00 Build 0)  -->
<svg version="1.1" id="&#xB808;&#xC774;&#xC5B4;_1" xmlns="http://www.w3.org/2000/svg" xmlns:xlink="http://www.w3.org/1999/xlink"
	 x="0px" y="0px" viewBox="0 0 153.07 238.11" style="enable-background:new 0 0 153.07 238.11;" xml:space="preserve">
<rect style="fill:#E60012;" width="153.07" height="238.11"/>
<g>
	<path style="fill:#FFFFFF;" d="M8.369,16.222L8.035,141.555l22.5,58.167l16.5,30.833l44.5,0.334l38.666-0.834l6.334-42
		l8.166-87.333v-84.5c0,0-2-9-10-9L17.535,7.055C17.535,7.055,9.369,8.388,8.369,16.222z"/>
	<path style="fill:#E60012;" d="M136.035,7.388L63.369,7.222c0,0-3,17.333,8.333,35.833c11.333,18.5,39.999,38.833,72.999,29.333
		V16.222C144.701,16.222,143.703,7.555,136.035,7.388z"/>
	<path style="fill:#E60012;" d="M16.119,57.722c0,0-0.625-6.375,5.25-9.5s11.625,0.25,12.25,1.5c0,0-0.375,4.375-6.375,7.375
		S17.369,58.722,16.119,57.722z"/>
	<path style="fill:#FDD000;" d="M130.244,98.222c0,0-3.625-2.375-4.375-8.875s2.125-10.125,4.375-10
		c2.25,0.125,3.875,3.125,3.875,7.25s-1,9.375-1,9.375S132.119,99.722,130.244,98.222z"/>
	<path style="fill:#FDD000;" d="M36.869,177.847c0,0,0.25-5.625,2.875-8.125s5.5-2.5,6.375,0.125s-1.125,9.125-1.75,10
		s-1.25,3.75-1.25,3.75l-3.5,1.75l-3.375-2.125L36.869,177.847z"/>
	<path style="fill:#FDD000;" d="M88.119,195.597c0,0-4-2.625-6.125-5.375s-2.25-6.875-1.125-8.625s3.875-2,5.875,1.75
		s2.625,8.625,2.625,9.75s0.625,3.375,0.625,3.375L88.119,195.597z"/>
	<path d="M144.369,99.555c0,0-6.834-8.334-9.834-9.667c0,0-2.334,8.667-4.666,8.5c-2.334-0.166-3.334-6.833-3.334-6.833
		s-17.916,29.167-23.916,86.917c0,0-9.75,6.584-13.25,13.417c0,0-0.334,3.832-1.5,3.666c0,0-3.668,13.834-1,21.334
		c2.666,7.5,3.166,12.5,2.832,13.5l46,0.666c0,0,8.834-1.674,9-10.087L144.369,99.555z"/>
	<path d="M18.29,6.513c-5.861,0-10.63,4.769-10.63,10.63v203.825c0,5.861,4.769,10.63,10.63,10.63h116.491
		c5.861,0,10.629-4.769,10.629-10.63V17.143c0-5.861-4.768-10.63-10.629-10.63H18.29z M9.077,220.968V17.143
		c0-5.08,4.133-9.213,9.213-9.213h116.491c5.08,0,9.211,4.133,9.211,9.213v203.825c0,5.08-4.131,9.212-9.211,9.212H18.29
		C13.21,230.18,9.077,226.048,9.077,220.968z"/>
	<path d="M84.561,58.748c27.322,24.656,59.375,14.585,59.695,14.481l-0.439-1.348c-0.312,0.102-31.609,9.906-58.307-14.186
		C58.827,33.616,64.006,7.962,64.061,7.706l-1.385-0.301C62.619,7.668,57.238,34.091,84.561,58.748z"/>
	<circle style="fill:#E60012;" cx="115.619" cy="206.472" r="23.625"/>
	<g>
		<path style="fill:#FFFFFF;" d="M111.744,196.097c0,0-2.875-1-3.625-1.125s-0.5,1.125-0.5,2s0,1.75,1.375,1.125
			S111.744,196.097,111.744,196.097z"/>
		<path style="fill:#FFFFFF;" d="M115.494,196.347c0,0,0.75-4.875,0.625-6s0-2.625,0-3.125s1.125-0.375,1.125,0.75
			s-0.375,2.125-0.375,2.75s0.375,3.75,0.375,3.75s3.75-2.5,4.875-3.75s2.125-2.5,2.375-1.5s0.5,1.875-0.25,2.625
			s-6.625,3.75-7.625,5.125s-0.875,2.25-0.625,2.875s0,1.25,1.375,0.75s3.375-1.5,4.625-2.125s1.125,0.875,0.625,1.375
			s-3.125,1.875-3.5,2.125s-0.25,1.5,0.5,1.75s1.75,0.625,0.875,1.875s-1.125,1.25-1.5,2.625s-0.5,4.375-0.75,6.125s1.5,2.25,4,2.25
			s5.375-0.375,6-0.625c0.625-0.25,2.25-2.75,2.75-3.375s0.5-0.375,0.75,0.5s0.625,2.75,1,3.625s0.625,1.375-1.75,2
			s-8.875,0.25-11.375-0.125s-3.125-1.375-3-4s1-7.25,1-7.25s0-0.875-1.25-0.375s-4,3.125-5.5,4.75s-4,4.125-6.25,5
			s-2.875-0.375-1.875-0.875s6.25-5,7.75-6.625s5.25-5.375,5.25-5.875s-0.875-0.875-1.75-1s-1.75,0.25-3.25,1.25s-2.25,1.75-3.625,1
			s-0.375-1.75,1.125-2s1.625-0.875,2.625-0.875s3-0.125,3.875-0.5s0.5-0.875,0.125-1.5s-0.75-0.875-0.25-2
			S115.494,196.347,115.494,196.347z"/>
	</g>
	<path d="M63.041,40.68c-0.245-0.012-1.623-0.039-2.568,0.85c-0.532,0.499-0.812,1.2-0.812,2.026c0,1.336,0.567,2.118,1.043,2.538
		c0.756,0.667,1.91,0.979,3.087,0.831c1.693-0.211,2.787-1.534,2.787-3.37c0-0.757-0.369-1.476-1.038-2.024
		C64.809,40.933,63.789,40.594,63.041,40.68z M63.174,42.083c0.225-0.045,0.927,0.102,1.467,0.544
		c0.344,0.282,0.519,0.594,0.519,0.928c0,1.125-0.563,1.841-1.546,1.963c-0.602,0.075-1.436-0.014-1.973-0.488
		c-0.374-0.33-0.564-0.827-0.564-1.476c0-0.435,0.119-0.758,0.362-0.99c0.453-0.429,1.276-0.484,1.555-0.47l0.089,0.005
		L63.174,42.083z"/>
	<path d="M33.773,48.908c-0.828-0.907-3.26-2.986-7.969-2.558c-6.129,0.557-10.483,4.832-10.483,10.226
		c0,0.112,0.002,0.224,0.005,0.336c0.171,5.12,1.725,15.362,2.345,18.771c0.57,3.136,0.903,14.298,1.082,20.295l0.074,2.434
		c0.01,0.301,0.014,0.617,0.014,0.946c0,1.582-0.102,3.484-0.218,5.628c-0.159,2.955-0.34,6.325-0.34,10.1
		c0,2.791,0.099,5.803,0.38,9.031c1.017,11.685,10.998,24.972,19.682,30.05c8.192,4.791,15.545,7.311,16.597,7.66
		c0.226,0.289,3.361,4.32,3.361,4.32c1.922,2.562,2.376,4.316,2.694,7.97c0.331,3.797,0.331,10.294,0.331,12.429
		c0,1.793,0.786,3.286,1.789,3.41c0.473,0.059,1.056-0.19,1.274-1.061c0.317-1.267,2.294-6.053,2.797-7.226
		c0.289-0.674,0.433-1.434,0.433-2.173c0-0.756-0.15-1.49-0.451-2.09l-0.088-0.176c-0.416-0.817-1.125-2.212-1.125-4.731
		c0-0.562,0.035-1.18,0.117-1.859c0.41-3.418,1.041-5.743,1.404-6.546c0.793,0.384,2.042,0.752,3.047,1.016
		c0.097,1.657,0.462,7.052,1.321,10.772c0.874,3.788,2.469,7.507,2.923,8.53c-0.349,0.92-1.456,3.937-1.605,5.579
		c-0.015,0.162-0.022,0.314-0.022,0.453c0,1.419,0.706,1.732,1.032,1.801c0.637,0.133,1.268-0.332,1.534-1.131
		c0.273-0.814,2.816-4.042,3.603-4.671c0.514-0.41,0.768-1.15,0.768-2.138c0-1.347-0.473-3.152-1.396-5.207
		c-0.971-2.157-1.357-6.741-1.51-9.493c1.641,1.699,3.604,2.696,3.713,2.751l1.025,0.513v-1.146c0-0.848,0.164-1.763,0.387-2.646
		c-0.078,2.771-0.133,5.751-0.137,5.966l-0.023,1.27l1.094-0.647c2.713-1.607,4.193-4.951,4.994-7.605
		c0.037,0.681,0.061,1.361,0.061,2.001c0,1.888-0.121,3.408-0.123,3.438l-0.154,1.922l1.361-1.363
		c5.02-5.02,6.178-13.69,6.447-17.894c1.846,3.985,2.01,9.509,2.012,9.574l1.402,0.129c1.18-5.708,1.732-10.612,1.732-14.867
		c0-14.499-6.428-21.469-16.414-27.062c-11.2-6.272-21.338-6.344-28.046-6.392l-2.449-0.031l-1.375-0.034
		c-5.821-0.14-11.32-0.271-15.53-2.076c-4.379-1.876-9.089-7.265-9.74-15.075c-0.237-2.845-0.324-7.056-0.324-11.382
		c0-7.913,0.29-16.214,0.481-17.265c0.308-1.691,1.395-4.56,2.77-7.31c1.1-2.199,1.238-4.747,1.245-5.82
		c11.125-3.906,28.771-13.108,28.95-13.202c0,0-0.359-0.687-0.527-1.007c0.277-0.051,0.475-0.087,0.491-0.09l-0.252-1.395
		C60.07,42.889,43.145,45.969,33.773,48.908z M33.752,50.396c7.643-2.457,20.941-5.053,25.292-5.874
		c-3.667,1.888-18.761,9.552-28.406,12.862l-0.503,0.173l0.025,0.532c0,0.006,0.005,0.12,0.005,0.316
		c0,0.863-0.095,3.327-1.098,5.332c-1.43,2.86-2.567,5.878-2.897,7.69c-0.23,1.265-0.508,9.44-0.508,17.276
		c0,4.476,0.09,8.84,0.333,11.743c0.699,8.396,5.825,14.216,10.593,16.259c4.461,1.912,10.093,2.046,16.054,2.19l1.374,0.033
		l2.475,0.032c6.564,0.047,16.482,0.117,27.363,6.211c9.535,5.34,15.674,12.02,15.674,25.957c0,2.884-0.281,6.101-0.832,9.658
		c-0.467-2.52-1.33-5.472-2.939-7.506l-1.289-1.629c0,0,0.025,2.1,0.025,2.131c0,0.851-0.115,11.357-4.812,17.71
		c0.014-0.433,0.021-0.902,0.021-1.409c0-1.99-0.131-4.404-0.658-6.076l-1.379,0.126c-0.01,0.071-0.852,6.378-4.059,9.418
		c0.066-3.317,0.188-8.03,0.297-8.91l-1.336-0.405c-0.076,0.15-1.629,3.293-1.994,6.295c-1.041-0.665-2.688-1.889-3.588-3.491
		l-1.38-2.454l0.054,2.815c0.008,0.359,0.188,8.852,1.729,12.277c0.961,2.132,1.27,3.729,1.27,4.683
		c0,0.534-0.098,0.865-0.232,0.973c-0.83,0.665-3.11,3.475-3.856,4.888c0.002-0.036,0.001-0.065,0.005-0.104
		c0.155-1.712,1.606-5.434,1.621-5.472l0.109-0.281l-0.126-0.274c-0.02-0.043-1.982-4.321-2.954-8.529
		c-0.974-4.221-1.312-10.975-1.315-11.042l-0.026-0.525l-0.51-0.128c-1.455-0.363-3.215-0.916-3.517-1.158
		c-0.221-0.222-0.556-0.301-0.862-0.195c-1.366,0.473-2.181,6.711-2.33,7.957c-0.087,0.728-0.125,1.397-0.125,2.01
		c0,2.88,0.836,4.522,1.277,5.392l0.084,0.167c0.2,0.398,0.299,0.914,0.299,1.451c0,0.553-0.106,1.128-0.317,1.619
		c-0.354,0.825-2.241,5.355-2.769,7.11c-0.182-0.339-0.371-0.895-0.371-1.665c0-2.16,0-8.703-0.336-12.562
		c-0.329-3.775-0.814-5.818-2.973-8.696l-3.653-4.697l-0.198-0.053c-0.078-0.025-7.867-2.541-16.524-7.604
		c-8.207-4.8-18.021-17.869-18.985-28.95c-0.276-3.18-0.375-6.151-0.375-8.908c0-3.743,0.18-7.09,0.338-10.023
		c0.116-2.164,0.22-4.084,0.22-5.704c0-0.344-0.005-0.675-0.015-0.992l-0.074-2.43c-0.192-6.458-0.515-17.266-1.104-20.506
		c-0.614-3.379-2.154-13.519-2.322-18.564c-0.003-0.095-0.005-0.19-0.005-0.284c0-4.644,3.819-8.332,9.194-8.82
		c4.979-0.452,6.939,2.25,7.02,2.365l0.3,0.427L33.752,50.396z"/>
	<path d="M27.017,56.44c-5.419,3.096-10.143,0.905-10.341,0.81l-0.616,1.276c0.225,0.109,5.572,2.623,11.66-0.855
		c6.087-3.478,6.506-7.711,6.521-7.89l-1.412-0.123C32.815,49.808,32.408,53.36,27.017,56.44z"/>
	<path d="M30.486,53.713l0.433,1.35c0.213-0.068,21.449-6.878,29.054-10.02l-0.541-1.31C51.879,46.852,30.699,53.645,30.486,53.713z
		"/>
	<path d="M28.595,64.77c-0.035,0.059-3.485,5.947-6.051,8.192c-0.235,0.207-0.259,0.565-0.053,0.8
		c0.207,0.235,0.564,0.259,0.8,0.053c2.705-2.367,6.138-8.226,6.283-8.474c0.158-0.271,0.067-0.618-0.204-0.775
		C29.1,64.408,28.753,64.499,28.595,64.77z"/>
	<path d="M26.448,72.341c-0.131,0.145-3.217,3.563-4.562,5.749c-0.164,0.267-0.081,0.616,0.186,0.78
		c0.267,0.164,0.616,0.081,0.78-0.186c1.29-2.098,4.406-5.549,4.437-5.584c0.21-0.232,0.192-0.591-0.04-0.801
		C27.017,72.091,26.658,72.109,26.448,72.341z"/>
	<path d="M25.563,77.741c-0.628,0.942-2.506,3.523-3.637,4.152c-0.274,0.152-0.372,0.497-0.22,0.771
		c0.152,0.273,0.497,0.372,0.771,0.22c1.575-0.875,3.783-4.144,4.029-4.514c0.174-0.26,0.103-0.612-0.157-0.786
		C26.089,77.41,25.738,77.48,25.563,77.741z"/>
	<path d="M26.01,82.116c-0.89,0.729-3.821,3.188-4.179,4.26c-0.099,0.297,0.061,0.618,0.358,0.717
		c0.297,0.099,0.618-0.061,0.717-0.358c0.174-0.521,2.119-2.347,3.821-3.74c0.243-0.198,0.278-0.556,0.08-0.798
		C26.609,81.954,26.252,81.918,26.01,82.116z"/>
	<path d="M25.978,86.81c-0.331,0.314-3.259,3.109-3.951,4.492c-0.14,0.28-0.027,0.621,0.254,0.761c0.28,0.14,0.621,0.027,0.76-0.254
		c0.51-1.02,2.856-3.36,3.717-4.175c0.227-0.215,0.237-0.574,0.021-0.801C26.565,86.604,26.206,86.595,25.978,86.81z"/>
	<path d="M25.506,92.12c-0.316,0.264-3.111,2.616-3.811,4.015c-0.14,0.28-0.026,0.621,0.253,0.76c0.28,0.14,0.621,0.026,0.76-0.253
		c0.503-1.006,2.713-2.977,3.522-3.651c0.241-0.201,0.273-0.558,0.073-0.798C26.103,91.952,25.746,91.919,25.506,92.12z"/>
	<path d="M25.907,95.738c-0.324,0.198-3.183,1.977-3.735,3.451c-0.11,0.293,0.039,0.62,0.332,0.73c0.293,0.11,0.62-0.039,0.73-0.332
		c0.314-0.837,2.169-2.212,3.265-2.882c0.267-0.164,0.351-0.512,0.188-0.78C26.522,95.659,26.174,95.575,25.907,95.738z"/>
	<path d="M26.275,100.015c-0.098,0.111-2.397,2.749-3.091,4.31c-0.127,0.286,0.001,0.62,0.288,0.748
		c0.286,0.127,0.62-0.001,0.748-0.288c0.624-1.404,2.886-3.998,2.909-4.024c0.206-0.235,0.182-0.594-0.054-0.8
		C26.84,99.755,26.481,99.779,26.275,100.015z"/>
	<path d="M26.65,104.593c-0.011,0.05-1.164,4.98-1.646,6.263c-0.11,0.293,0.039,0.62,0.332,0.73c0.293,0.11,0.62-0.039,0.73-0.332
		c0.507-1.352,1.64-6.198,1.689-6.404c0.071-0.305-0.119-0.61-0.423-0.681C27.026,104.099,26.721,104.288,26.65,104.593z"/>
	<path d="M28.901,109.067c-0.318,0.463-1.914,2.825-2.092,3.895c-0.052,0.309,0.157,0.601,0.466,0.652
		c0.309,0.052,0.601-0.157,0.652-0.466c0.106-0.638,1.226-2.448,1.908-3.439c0.177-0.258,0.112-0.611-0.146-0.789
		C29.432,108.744,29.079,108.809,28.901,109.067z"/>
	<path d="M30.817,110.991c-0.294,0.027-0.516,0.274-0.516,0.564c0,0.017,0,0.034,0.002,0.052c0.073,0.803,0.107,1.607,0.107,2.347
		c0,1.711-0.183,3.077-0.491,3.276c0,0-0.059,0.024-0.071,0.029c-0.115-0.049-0.273-0.375-0.403-0.797
		c-0.071-0.366-0.145-0.688-0.196-0.884l-1.111,0.214c0.018,0.149,0.071,0.421,0.143,0.721c0.128,0.64,0.221,1.297,0.221,1.828
		c0,0.366-0.051,0.632-0.133,0.815c-0.107-0.142-0.226-0.359-0.352-0.653c-0.17-0.665-0.408-1.223-0.47-1.355l-1.062,0.386
		c0.095,0.359,0.246,0.811,0.425,1.252c0.079,0.316,0.149,0.639,0.149,0.907c0,0.33-0.078,0.588-0.279,0.689
		c-0.072,0.035-0.121,0.037-0.192,0.006c-0.504-0.217-1.1-1.519-1.344-2.329l-1.093,0.301c0.306,1.227,0.485,2.49,0.485,3.251
		c0,0.128-0.03,0.162-0.04,0.259c-0.501-0.709-1.29-2.51-1.859-4.165l-1.103,0.212c0.054,1.098,0.083,2.241,0.096,3.304
		c-0.048-0.408-0.095-0.821-0.132-1.218l-1.131,0.031c-0.026,0.681-0.069,1.389-0.117,2.063c-0.148-0.833-0.297-1.747-0.422-2.621
		c-0.044-0.31-0.331-0.525-0.641-0.481c-0.31,0.045-0.525,0.332-0.481,0.642c0.809,5.668,1.152,5.746,1.55,5.836l0.38,0.087
		l0.269-0.354c0.06-0.089,0.107-0.306,0.157-0.501c0.215,0.712,0.405,0.803,0.548,0.871l0.291,0.139l0.348-0.186
		c0.203-0.135,0.538-0.358,0.538-3.56c0-0.247-0.009-0.573-0.013-0.857c0.508,1.071,1.069,1.972,1.584,2.159
		c0.241,0.088,0.49,0.066,0.702-0.061c0.446-0.268,0.61-0.928,0.61-1.758c0-0.105-0.027-0.233-0.032-0.344
		c0.133,0.11,0.252,0.258,0.401,0.322c0.38,0.164,0.778,0.153,1.149-0.033c0.466-0.233,0.668-0.633,0.781-1.072
		c0.038,0.016,0.067,0.063,0.107,0.073c0.192,0.052,0.568,0.086,0.927-0.274c0.391-0.391,0.521-1.062,0.531-1.776
		c0.278,0.055,0.568,0.029,0.85-0.132c1.338-0.765,1.11-4.947,0.95-6.71C31.405,111.192,31.129,110.962,30.817,110.991z"/>
	<path d="M31.367,112.18c-0.299,0.093-0.466,0.411-0.373,0.71l2.333,7.499c0.093,0.3,0.411,0.467,0.71,0.373
		c0.299-0.093,0.466-0.41,0.373-0.709l-2.333-7.501C31.983,112.254,31.666,112.087,31.367,112.18z"/>
	<path d="M35.329,119.36c-0.167,0.066-4.116,1.665-5.508,6.882c-1.248,4.68-0.486,14.085,10.288,19.65
		c6.608,3.413,11.216,4.955,14.266,5.976c1.594,0.533,2.745,0.919,3.561,1.354c2.336,1.246,3.775,3.299,4.073,4.044
		c0.116,0.29,0.446,0.432,0.737,0.316c0.291-0.116,0.432-0.446,0.316-0.737c-0.427-1.067-2.052-3.268-4.593-4.622
		c-0.899-0.48-2.089-0.878-3.735-1.429c-3.016-1.009-7.575-2.534-14.105-5.908c-10.134-5.235-10.873-13.998-9.712-18.35
		c1.238-4.642,4.681-6.062,4.827-6.119c0.291-0.115,0.433-0.444,0.318-0.735C35.947,119.391,35.62,119.247,35.329,119.36z"/>
	<path d="M35.693,131.121c-0.25,0.188-0.299,0.544-0.11,0.794c0.546,0.723,5.434,7.06,8.786,7.06c2.029,0,2.673-0.128,2.995-0.593
		c0.281-0.406,0.119-0.835-0.024-1.214l-0.1-0.274l-1.518-3.714c0.118,0.29-0.015,0.634-0.305,0.752
		c-0.29,0.119-0.616-0.008-0.734-0.297l1.482,3.618l0.114,0.315c0,0,0.027,0.082,0.054,0.164c-0.234,0.053-0.763,0.107-1.964,0.107
		c-2.364,0-6.491-4.771-7.881-6.608C36.298,130.982,35.943,130.933,35.693,131.121z"/>
	<path d="M39.796,127.041c-0.284,0.132-0.407,0.468-0.276,0.752c0.044,0.094,4.452,9.362,14.085,8.158l0.278-0.035l0.141-0.241
		c0.055-0.094,1.315-2.337-0.843-5.756c-0.167-0.265-0.518-0.344-0.782-0.177c-0.171,0.108-0.264,0.292-0.264,0.481
		c0,0.103,0.028,0.208,0.087,0.302c0.863,1.366,1.088,2.474,1.088,3.258c0,0.53-0.089,0.85-0.168,1.065
		c-8.57,0.856-12.432-7.183-12.594-7.53C40.417,127.032,40.081,126.909,39.796,127.041z"/>
	<path d="M42.252,123.877c-0.19,0.248-0.144,0.604,0.105,0.795c0.298,0.229,7.345,5.601,11.949,6.113
		c4.559,0.507,6.952-0.157,7.052-0.186c0.301-0.086,0.474-0.398,0.389-0.699c-0.085-0.301-0.398-0.476-0.699-0.392
		c-0.023,0.007-2.308,0.628-6.617,0.149c-4.29-0.477-11.313-5.832-11.384-5.887C42.799,123.581,42.442,123.628,42.252,123.877z"/>
	<path d="M67.404,127.563c-0.18,0.257-0.117,0.61,0.139,0.79c0.278,0.194,6.917,4.767,16.316,4.935
		c0.312,0.006,0.57-0.243,0.576-0.557c0.006-0.312-0.244-0.571-0.557-0.576c-9.038-0.162-15.62-4.686-15.686-4.732
		C67.937,127.245,67.583,127.308,67.404,127.563z"/>
	<path d="M62.123,132c-0.214,0.227-0.205,0.585,0.022,0.8c0.267,0.253,6.67,6.167,18.96,4.651c0.311-0.038,0.531-0.321,0.492-0.632
		c-0.037-0.311-0.32-0.531-0.631-0.493c-11.73,1.446-17.98-4.292-18.042-4.35C62.697,131.762,62.338,131.772,62.123,132z"/>
	<path d="M58.134,136.321c-0.221,0.222-0.221,0.58,0,0.801c0.239,0.239,5.974,5.846,16.124,4.831
		c0.312-0.031,0.539-0.309,0.508-0.621c-0.031-0.312-0.309-0.539-0.621-0.508c-9.593,0.96-15.155-4.449-15.21-4.504
		C58.713,136.1,58.354,136.101,58.134,136.321z"/>
	<path d="M51.419,138.543c-0.191,0.249-0.145,0.604,0.104,0.795c0.366,0.281,9.047,6.839,17.274,2.554
		c0.278-0.145,0.386-0.487,0.241-0.765c-0.145-0.278-0.487-0.386-0.765-0.241c-7.58,3.947-15.976-2.382-16.06-2.446
		C51.966,138.249,51.61,138.296,51.419,138.543z"/>
	<path d="M61.258,142.536c-0.194,0.246-0.153,0.603,0.092,0.797c0.038,0.03,3.82,3.057,4.122,5.622
		c0.015,0.124,0.007,0.246-0.237,0.377c-1.911,1.025-10.334-1.032-16.833-6.543c-0.239-0.202-0.597-0.173-0.799,0.066
		c-0.202,0.238-0.173,0.597,0.066,0.799c6.755,5.727,15.639,7.999,18.103,6.677c0.609-0.327,0.903-0.862,0.827-1.509
		c-0.357-3.03-4.373-6.243-4.544-6.378C61.809,142.25,61.452,142.291,61.258,142.536z"/>
	<path d="M70.111,147.679c-0.096,0.108-0.143,0.242-0.143,0.376c0,0.156,0.064,0.312,0.191,0.425
		c1.574,1.393,2.945,3.053,2.956,3.562c-1.006,0.423-4.912-0.006-7.154-0.38c-0.309-0.051-0.601,0.157-0.652,0.467
		c-0.052,0.309,0.157,0.601,0.466,0.652c0.631,0.105,6.214,1.006,7.823,0.292c0.355-0.158,0.582-0.447,0.639-0.813
		c0.207-1.339-2.257-3.684-3.327-4.63C70.676,147.423,70.318,147.444,70.111,147.679z"/>
	<path d="M72.649,144.307c-0.229,0.213-0.243,0.571-0.03,0.801c2.184,2.353,3.576,4.662,3.318,5.079
		c-0.577,0.673-2.147,0.111-2.65-0.14c-0.28-0.139-0.62-0.023-0.76,0.255c-0.139,0.28-0.026,0.62,0.254,0.76
		c0.111,0.056,2.744,1.347,4.017-0.138c1.156-1.349-1.601-4.706-3.348-6.588C73.238,144.106,72.879,144.093,72.649,144.307z"/>
	<path d="M76.32,143.636c-0.123,0.112-0.186,0.266-0.186,0.419c0,0.137,0.05,0.273,0.148,0.382c1.381,1.515,2.538,3.262,2.538,3.812
		c0,0.017-0.004,0.03-0.006,0.045c-0.48,0.362-1.756-0.109-2.482-0.555c-0.267-0.163-0.616-0.08-0.779,0.186
		c-0.164,0.268-0.081,0.616,0.186,0.779c0.257,0.158,2.55,1.517,3.826,0.453l0.381-0.777c0.098-1.429-2.336-4.172-2.824-4.707
		C76.91,143.441,76.551,143.425,76.32,143.636z"/>
	<path d="M78.283,140.006c-0.1,0.109-0.148,0.246-0.148,0.383c0,0.153,0.062,0.307,0.184,0.418c2.271,2.077,4.184,4.439,4.184,5.138
		c0,0.031-0.006,0.058-0.014,0.082c-0.008,0.005-0.021,0.012-0.021,0.012c-1.59,0.723-3.223,0.156-3.238,0.15
		c-0.295-0.105-0.619,0.048-0.725,0.342c-0.107,0.294,0.045,0.617,0.338,0.725c0.084,0.03,2.072,0.734,4.094-0.184
		c0.373-0.169,0.611-0.478,0.674-0.868c0.27-1.699-3.396-5.2-4.525-6.232C78.853,139.759,78.494,139.775,78.283,140.006z"/>
	<path d="M84.301,138.153c-0.221,0.222-0.221,0.58,0,0.802c0.736,0.738,2.621,2.964,2.502,4.387
		c-0.025,0.311,0.207,0.586,0.52,0.612c0.31,0.025,0.586-0.206,0.611-0.519c0.184-2.198-2.521-4.973-2.83-5.282
		C84.881,137.933,84.521,137.933,84.301,138.153z"/>
	<path d="M86.314,134.808c-0.228,0.213-0.24,0.571-0.027,0.801c0.611,0.656,2.227,2.685,2.35,4.16
		c0.025,0.312,0.301,0.544,0.611,0.518c0.312-0.026,0.545-0.301,0.52-0.612c-0.182-2.171-2.551-4.732-2.652-4.84
		C86.902,134.606,86.545,134.594,86.314,134.808z"/>
	<path d="M54.365,158.925c-0.233,0.209-0.252,0.567-0.043,0.801c0.579,0.645,3.569,3.848,5.541,3.426
		c0.679-0.146,0.952-0.544,1.061-0.853c0.394-1.115-0.858-2.744-1.114-3.059c-0.197-0.243-0.553-0.281-0.797-0.084
		c-0.243,0.196-0.281,0.553-0.084,0.797c0.534,0.661,1.045,1.632,0.926,1.968c-0.023,0.064-0.137,0.102-0.229,0.121
		c-0.984,0.211-3.2-1.671-4.459-3.074C54.957,158.735,54.598,158.716,54.365,158.925z"/>
	<path d="M60.108,161.101c-0.136,0.282-0.018,0.621,0.264,0.757c0.396,0.19,3.919,1.842,5.734,1.004
		c0.285-0.131,0.409-0.468,0.277-0.752c-0.131-0.284-0.468-0.408-0.752-0.277c-1.004,0.464-3.457-0.365-4.766-0.996
		C60.583,160.7,60.244,160.818,60.108,161.101z"/>
	<path d="M63.43,159.062c-0.295,0.104-0.45,0.427-0.347,0.722c0.04,0.113,1.002,2.782,3.747,3.605c0.3,0.09,0.616-0.08,0.706-0.38
		c0.09-0.3-0.08-0.616-0.38-0.706c-2.182-0.654-2.996-2.873-3.004-2.896C64.048,159.113,63.725,158.959,63.43,159.062z"/>
	<path d="M67.552,159.409c-0.311,0.036-0.533,0.318-0.497,0.629c0.011,0.092,0.274,2.261,1.198,3.844
		c0.158,0.271,0.505,0.362,0.775,0.204c0.271-0.157,0.362-0.505,0.204-0.774c-0.803-1.377-1.049-3.387-1.052-3.406
		C68.145,159.595,67.863,159.372,67.552,159.409z"/>
	<path d="M70.619,160.53c-0.313,0-0.567,0.253-0.567,0.566c0,0.242,0.012,2.393,0.421,3.349c0.123,0.287,0.456,0.421,0.744,0.298
		c0.288-0.124,0.421-0.457,0.298-0.745c-0.239-0.559-0.329-2.076-0.329-2.901C71.186,160.783,70.932,160.529,70.619,160.53z"/>
	<path d="M71.769,164.555c-0.013,0.312-0.288,0.556-0.6,0.542l4.075,0.169c0.312,0.013,0.554-0.232,0.566-0.544
		c0.013-0.312-0.254-0.577-0.566-0.591l-4.008-0.165C71.549,163.979,71.781,164.242,71.769,164.555z"/>
	<path d="M76.369,167.889c0,0-1.334-4.001-2.25-7.334c-0.916-3.333-0.75-4.083-0.75-4.083l2.167,1.25c0,0,0.25-1.249,0.333-2.083
		s0.167-1.167,0.167-1.167s0.666,0.667,1.166,0.917s0.918,1,0.918,1s0.166-1.834,0.082-3.084c-0.082-1.25-0.082-2.416-0.082-2.416
		s1.584,1,2.166,1.25v-3c0,0,2.166,1.416,2.916,1.916s0.834,0.333,0.918-0.5c0.082-0.833-0.584-3.583-0.584-3.583
		s0.416-0.251,0.916-0.167s1.168-0.083,1.168-0.083l-0.084-2.667c0,0,0.166,0,0.916,0.417c0.75,0.417,1.75,0.333,1.75,0.333
		s0.25-1.166,0.25-1.833c0-0.667,0.084-1.25,0.084-1.25s0.584,0.666,1.334,1.083c0.75,0.417,1.416,0.167,1.416,0.167
		s-0.084-2.083-0.166-3.333c-0.084-1.25-0.25-3-0.25-3l2.166-0.667c0,0,0.168-3.333-3-7c0,0,0.916,0.166,2.416,1.583
		c1.5,1.417,4.666,3.418,7,13.584s-0.5,18.416-0.5,18.416l-0.666-1c0,0-0.834-4.834-2.916-7.25c0,0-0.334,4.917-2.084,11.167
		s-4.084,7.417-4.084,7.417l-0.416-6.167c0,0-0.668-0.499-0.834,0.417s-1.666,4.584-4.5,7.25c0,0-1-5.5-0.832-6.75
		c0.166-1.25-0.584,0-0.918,0.75c-0.332,0.75-1,3-1,3S77.369,169.223,76.369,167.889z"/>
	<path d="M65.711,164.459c-0.027,0.012-2.713,1.256-4.846,0.951c-0.31-0.044-0.597,0.172-0.641,0.481
		c-0.044,0.31,0.171,0.597,0.481,0.642c2.473,0.353,5.366-0.991,5.488-1.049c0.283-0.133,0.405-0.471,0.272-0.754
		C66.332,164.447,65.995,164.325,65.711,164.459z"/>
	<path d="M65.349,166.997c-0.021,0.004-2.182,0.396-3.817,0.163c-0.31-0.044-0.597,0.171-0.641,0.481
		c-0.044,0.31,0.171,0.597,0.481,0.642c1.821,0.26,4.088-0.153,4.184-0.171c0.308-0.058,0.511-0.352,0.454-0.661
		C65.953,167.144,65.657,166.94,65.349,166.997z"/>
	<path d="M65.126,168.845c-0.764,0.222-2.049,0.473-2.511,0.334c-0.3-0.09-0.616,0.08-0.706,0.38c-0.09,0.3,0.08,0.616,0.38,0.706
		c0.946,0.284,2.794-0.227,3.155-0.332c0.301-0.087,0.473-0.402,0.386-0.702C65.742,168.93,65.427,168.757,65.126,168.845z"/>
	<path d="M64.513,170.892c-0.015,0.008-1.468,0.786-2.623,0.379c-0.295-0.104-0.619,0.051-0.723,0.346
		c-0.104,0.295,0.051,0.619,0.346,0.723c1.637,0.578,3.467-0.411,3.544-0.453c0.274-0.15,0.374-0.494,0.224-0.769
		C65.132,170.843,64.788,170.742,64.513,170.892z"/>
	<path d="M65.169,173.25c-0.521,0.108-2.073,0.336-2.988,0.091c-0.303-0.081-0.613,0.099-0.694,0.401
		c-0.081,0.303,0.099,0.613,0.401,0.694c1.365,0.364,3.426-0.059,3.512-0.077c0.307-0.063,0.503-0.364,0.439-0.67
		C65.776,173.383,65.476,173.186,65.169,173.25z"/>
	<path d="M61.637,175.93c-0.023,0.312,0.212,0.584,0.524,0.607c0.235,0.018,2.324,0.167,3.104,0.081
		c0.311-0.034,0.536-0.314,0.501-0.626c-0.035-0.311-0.314-0.535-0.626-0.501c-0.572,0.064-2.284-0.04-2.896-0.085
		C61.932,175.383,61.66,175.618,61.637,175.93z"/>
	<path d="M61.869,177.654c-0.313,0-0.567,0.254-0.567,0.567c0,0.313,0.254,0.567,0.567,0.567h4.083c0.313,0,0.567-0.254,0.567-0.567
		c0-0.314-0.254-0.567-0.567-0.567H61.869z"/>
	<path d="M66.397,179.422c-0.367,0.092-2.494,0.063-4.337-0.017c-0.313-0.014-0.578,0.229-0.591,0.542
		c-0.014,0.312,0.229,0.577,0.542,0.591c0.654,0.028,3.952,0.161,4.663-0.017c0.304-0.076,0.488-0.384,0.412-0.688
		C67.009,179.53,66.701,179.346,66.397,179.422z"/>
	<path d="M62.065,181.764c-0.069,0.306,0.123,0.609,0.428,0.678c0.643,0.146,2.803,0.597,3.638,0.318
		c0.297-0.1,0.457-0.42,0.358-0.718c-0.099-0.297-0.42-0.457-0.717-0.358c-0.37,0.124-1.861-0.084-3.03-0.348
		C62.438,181.267,62.134,181.459,62.065,181.764z"/>
	<path d="M61.75,183.784c-0.103,0.295,0.051,0.618,0.346,0.722c0.064,0.022,1.575,0.547,3.121,0.274
		c0.308-0.055,0.514-0.349,0.46-0.657c-0.054-0.309-0.348-0.514-0.657-0.46c-1.246,0.22-2.534-0.222-2.547-0.227
		C62.178,183.334,61.854,183.489,61.75,183.784z"/>
	<path d="M76.032,165.654l-4.606,0.168c0.313-0.012,0.579,0.233,0.59,0.546c0.012,0.313-0.23,0.575-0.544,0.587l4.56-0.166
		c0.312-0.012,0.578-0.275,0.566-0.588C76.586,165.888,76.344,165.644,76.032,165.654z"/>
	<path d="M71.219,168.006c-0.027,0.312,0.248,0.588,0.56,0.615l0.653,0.06c2.193,0.21,3.469,0.299,3.925,0.169
		c0.295-0.084,0.459-0.385,0.381-0.683c-0.076-0.298-0.387-0.478-0.687-0.409c-0.398,0.092-2.741-0.133-3.511-0.206l-0.755-0.064
		C71.474,167.462,71.246,167.694,71.219,168.006z"/>
	<path d="M76.281,169.599c-0.331,0.088-2.503,0.14-4.412,0.139c-0.313,0-0.567,0.254-0.567,0.567c0,0.313,0.253,0.566,0.567,0.567
		c1.255,0,4.232-0.019,4.762-0.195c0.291-0.098,0.439-0.403,0.352-0.697C76.895,169.686,76.576,169.52,76.281,169.599z"/>
	<path d="M71.869,171.737c-0.313,0-0.567,0.254-0.567,0.567c0,0.313,0.254,0.567,0.567,0.567h4.583c0.314,0,0.568-0.254,0.568-0.567
		c0-0.314-0.254-0.567-0.568-0.567H71.869z"/>
	<path d="M76.539,174.012c-0.507,0.152-2.819,0.078-4.298-0.022c-0.312-0.021-0.583,0.215-0.604,0.527
		c-0.021,0.311,0.214,0.582,0.527,0.604c0.629,0.043,3.813,0.244,4.702-0.022c0.299-0.09,0.469-0.406,0.379-0.706
		C77.154,174.092,76.838,173.922,76.539,174.012z"/>
	<path d="M76.857,175.829c-0.312,0.053-2.374,0.076-3.739,0.076c-0.313-0.001-0.567,0.253-0.567,0.566
		c0,0.312,0.253,0.566,0.567,0.567c0.564,0,3.407-0.004,3.926-0.091c0.309-0.053,0.518-0.345,0.467-0.653
		C77.459,175.986,77.166,175.777,76.857,175.829z"/>
	<path d="M73.202,177.904c-0.313,0-0.567,0.254-0.567,0.567c0,0.313,0.254,0.567,0.567,0.567h4.333c0.314,0,0.568-0.254,0.568-0.567
		c0-0.314-0.254-0.567-0.568-0.567H73.202z"/>
	<path d="M74.655,180.484c-0.007,0.312-0.271,0.561-0.583,0.554l3.85,0.084c0.312,0.006,0.559-0.242,0.566-0.555
		c0.006-0.314-0.254-0.573-0.566-0.58l-3.818-0.082C74.418,179.912,74.662,180.171,74.655,180.484z"/>
	<path d="M78.85,182.081c-0.705,0.128-3.162,0.097-4.049,0.074c-0.312-0.009-0.573,0.238-0.581,0.552
		c-0.008,0.313,0.24,0.573,0.552,0.581c0.339,0.009,3.334,0.081,4.282-0.092c0.309-0.056,0.514-0.352,0.457-0.659
		C79.453,182.229,79.158,182.024,78.85,182.081z"/>
	<path d="M75.053,184.852c-0.021,0.312,0.217,0.582,0.529,0.602c1.236,0.08,2.804,0.139,3.248-0.039
		c0.277-0.111,0.4-0.414,0.305-0.699c-0.096-0.285-0.418-0.438-0.707-0.36c-0.27,0.073-1.649,0.04-2.773-0.032
		C75.342,184.303,75.073,184.54,75.053,184.852z"/>
	<path d="M73.173,189.972c0,0-1,6.75-1.25,12.5s-0.5,15-0.5,15s-0.75,1.125-2.375,1.375s-3.75,1-5.25,1.75s-2.875,1.75-2.875,1.75
		s-0.5,1,0.5,0.75s2.125-1.25,4-1.75s2.875-0.5,2.875-0.5s0.25,0.5-0.25,0.875s-4,3.125-4.375,3.625s-0.5,1.125,0.375,0.75
		s3.25-2,4-2.625s1.75-1.5,1.75-0.875s0,3.25,0.625,3.125s1.25-1.25,1.375-2.625s1.375-3.875,1.375-3.875s1,0.5,1.75,0.875
		s2.126,0.5,2.376,0.125s1.125-0.5,0-0.75c-1.126-0.25-4.001-2.375-4.001-2.375s0.125-11.875,0.75-17s0.875-8.125,2.375-10.25
		l-1.5,0.75L73.173,189.972z"/>
	<path d="M61.355,187.076c0,0-1.125,12.625-2,15.25c0,0-0.375,2.125-1.375,2.125s-2.5-0.625-3.75-1s-2.5,0.25-1.75,0.75
		s3.375,1,4,1.25s0.875,0.5,0.5,0.875s-1.25,1.25-2.125,2s-2.375,4-2.75,4.375s1.75,1.625,2.125,0.75s1.125-3.25,1.875-3.875
		s3-2.5,3.375-3s-0.375-1.125,0.375-0.5s3.125,1.5,3.875,2s2,1.75,2.625,1.5s1.875-0.875,0.875-1.375s-1.625-1.25-2.125-1.25
		s-3.625-1.25-4-1.5s-0.125-1.375,0.125-2s2.25-11.25,3.25-14.875l-1.5-0.25L61.355,187.076z"/>
	<path d="M59.422,205.852c0,0-0.625,0.75-0.625,1.125s0.25,4.125,0.125,5.125s0.125,1.625,0.75,1.75s1-0.375,0.75-2.125
		s-0.125-4-0.375-5S60.172,205.602,59.422,205.852z"/>
	<path d="M23.869,51.472c0,0-1.625,0.5-1.625,1.75s1,1.5,1.75,1.5s2-0.75,2-1.875S24.494,50.972,23.869,51.472z"/>
	<path d="M40.925,168.005c-1.301,0.723-3.064,2.385-4.075,6.202c-1.567,5.92,1.317,10.083,1.44,10.258l0.115,0.162l0.184,0.079
		c0.407,0.175,0.897,0.149,1.456-0.074c1.708-0.683,4.308-3.409,5.975-7.298c1.351-3.152,1.624-6.044,0.749-7.933
		c-0.436-0.941-1.136-1.583-2.025-1.857C43.504,167.163,42.148,167.326,40.925,168.005z M37.81,177.683
		c0-0.957,0.116-2.002,0.41-3.112c0.883-3.336,2.333-4.737,3.393-5.326c0.882-0.489,1.846-0.612,2.713-0.345
		c0.501,0.154,0.891,0.523,1.157,1.097c0.25,0.542,0.374,1.217,0.374,1.988c0,1.368-0.388,3.037-1.14,4.791
		c-1.852,4.32-4.61,6.488-5.43,6.609C38.884,182.7,37.81,180.611,37.81,177.683z"/>
	<path d="M81.59,180.07c-0.686,0.293-1.338,1.137-1.748,2.256c-0.355,0.971-1.014,3.566,0.561,6.713
		c2.07,4.14,6.902,7.007,7.107,7.127l0.103,0.061l0.117,0.023c0.457,0.091,0.938-0.109,1.316-0.549
		c0.49-0.57,1.918-2.918-0.344-9.219c-1.244-3.466-2.758-5.606-4.496-6.364C83.029,179.605,82.062,179.868,81.59,180.07z
		 M81.67,188.405c-0.656-1.311-0.855-2.496-0.855-3.456c0-0.984,0.209-1.731,0.357-2.136c0.326-0.89,0.762-1.349,0.977-1.44
		c0.318-0.137,0.838-0.24,1.492,0.044c0.939,0.41,2.35,1.704,3.729,5.544c0.877,2.445,1.148,4.226,1.148,5.471
		c0,1.438-0.352,2.131-0.559,2.344C86.957,194.138,83.293,191.651,81.67,188.405z"/>
	<path d="M127.383,79.888c-1.613,1.555-2.305,4.373-2.055,8.378c0.516,8.261,4.006,10.62,4.154,10.717l0.176,0.114h0.211
		c1.756,0,4.393-4.667,5.037-10.463c0.389-3.51-0.254-6.595-1.766-8.463c-0.709-0.877-1.551-1.405-2.369-1.487
		C130.189,78.625,128.693,78.625,127.383,79.888z M126.742,88.178c-0.031-0.513-0.047-0.993-0.047-1.442
		c0-3.443,0.881-5.065,1.672-5.828c0.885-0.852,1.877-0.853,2.264-0.815c0.426,0.042,0.951,0.405,1.408,0.969
		c0.514,0.634,1.564,2.33,1.564,5.561c0,0.569-0.031,1.187-0.105,1.854c-0.59,5.315-2.689,8.484-3.506,9.083
		C129.256,96.87,127.131,94.375,126.742,88.178z"/>
	<path d="M48.535,230.722c0,0,3.667-31.333-3.333-52.833c0,0-2,5-5.833,5.833c0,0-3-0.833-2.5-7.833c0,0-4.167,3.333-6,5.833
		c0,0-10-29.667-22-41.667c0,0-0.5,0.5-0.5,1.5s-0.167,80.834-0.167,80.834s1.509,8.5,10.088,8.5L48.535,230.722z"/>
	<path d="M13.437,132.534c-0.159,0.122-3.904,3.021-5.707,6.755c-0.17,0.352-0.021,0.776,0.33,0.946
		c0.352,0.17,0.777,0.021,0.946-0.33c1.653-3.426,5.257-6.219,5.293-6.246c0.31-0.238,0.369-0.684,0.13-0.994
		C14.192,132.354,13.748,132.296,13.437,132.534z"/>
	<path d="M14.665,134.438c-0.149,0.211-3.662,5.183-4.916,7.44c-0.19,0.342-0.066,0.772,0.275,0.963
		c0.342,0.19,0.773,0.067,0.964-0.275c1.217-2.19,4.798-7.259,4.834-7.31c0.226-0.319,0.15-0.762-0.169-0.987
		C15.333,134.042,14.891,134.118,14.665,134.438z"/>
	<path d="M16.339,137.376c-0.524,0.59-5.134,5.823-5.66,8.059c-0.089,0.381,0.146,0.763,0.528,0.852
		c0.381,0.09,0.762-0.146,0.852-0.527c0.376-1.599,3.982-5.914,5.34-7.441c0.26-0.292,0.233-0.74-0.059-1
		C17.047,137.057,16.599,137.083,16.339,137.376z"/>
	<path d="M18.447,139.395c-0.194,0.235-4.783,5.793-6.403,8.036c-0.229,0.317-0.158,0.76,0.16,0.989
		c0.317,0.229,0.76,0.158,0.99-0.159c1.593-2.206,6.299-7.906,6.347-7.964c0.249-0.302,0.206-0.748-0.095-0.997
		C19.143,139.051,18.697,139.094,18.447,139.395z"/>
	<path d="M20.199,142.643c-0.515,0.618-5.049,6.066-5.682,7.078c-0.208,0.332-0.106,0.769,0.226,0.977
		c0.332,0.208,0.768,0.106,0.977-0.225c0.492-0.787,4.186-5.264,5.568-6.922c0.25-0.301,0.21-0.748-0.091-0.998
		C20.896,142.302,20.45,142.343,20.199,142.643z"/>
	<path d="M22.448,145.645c-0.22,0.266-5.395,6.524-6.146,7.526c-0.235,0.312-0.171,0.757,0.142,0.992
		c0.313,0.234,0.757,0.171,0.992-0.143c0.731-0.975,6.051-7.408,6.104-7.474c0.25-0.301,0.207-0.748-0.094-0.997
		C23.144,145.301,22.697,145.344,22.448,145.645z"/>
	<path d="M24.199,148.268c-0.958,1.149-5.753,6.967-6.146,8.67c-0.088,0.381,0.15,0.762,0.531,0.85
		c0.381,0.088,0.762-0.149,0.85-0.531c0.246-1.063,3.721-5.521,5.854-8.08c0.25-0.301,0.21-0.748-0.091-0.998
		C24.896,147.927,24.45,147.968,24.199,148.268z"/>
	<path d="M25.931,151.166c-0.045,0.058-4.487,5.847-6.785,7.902c-0.292,0.261-0.316,0.709-0.056,1.001
		c0.261,0.292,0.709,0.316,1.001,0.056c2.397-2.145,6.779-7.855,6.965-8.098c0.238-0.311,0.179-0.756-0.132-0.993
		C26.614,150.796,26.169,150.855,25.931,151.166z"/>
	<path d="M27.724,153.49c-0.264,0.284-6.467,6.989-7.627,9.566c-0.16,0.357-0.001,0.775,0.355,0.937
		c0.357,0.16,0.775,0.001,0.937-0.355c1.065-2.366,7.31-9.116,7.373-9.185c0.266-0.286,0.249-0.735-0.038-1.001
		C28.438,153.186,27.99,153.203,27.724,153.49z"/>
	<path d="M28.899,157.087c-0.041,0.062-4.102,6.317-6.744,8.599c-0.296,0.256-0.329,0.703-0.073,0.999
		c0.256,0.297,0.703,0.329,1,0.073c2.794-2.413,6.836-8.638,7.006-8.901c0.213-0.328,0.119-0.768-0.21-0.98
		C29.55,156.664,29.112,156.758,28.899,157.087z"/>
	<path d="M31.22,160.245c-0.785,0.862-7.694,8.463-8.458,9.737c-0.202,0.335-0.093,0.771,0.243,0.972
		c0.336,0.201,0.771,0.093,0.972-0.243c0.524-0.872,5.246-6.167,8.292-9.512c0.264-0.29,0.243-0.738-0.047-1.002
		C31.931,159.935,31.483,159.955,31.22,160.245z"/>
	<path d="M32.667,163.685c-1.908,2.672-6.969,9.734-7.468,10.333c-0.25,0.301-0.21,0.748,0.091,0.998
		c0.301,0.251,0.747,0.21,0.998-0.09c0.635-0.762,7.251-10.023,7.532-10.417c0.228-0.318,0.154-0.762-0.165-0.988
		C33.337,163.293,32.895,163.366,32.667,163.685z"/>
	<path d="M33.914,167.314c-0.266,0.378-6.523,9.285-7.277,10.543c-0.202,0.335-0.093,0.771,0.243,0.972
		c0.336,0.201,0.771,0.093,0.972-0.243c0.729-1.214,7.158-10.364,7.222-10.457c0.225-0.32,0.148-0.762-0.172-0.987
		C34.581,166.917,34.139,166.994,33.914,167.314z"/>
	<path d="M35.583,170.632c-0.759,0.875-7.437,8.584-8.197,9.851c-0.202,0.335-0.093,0.771,0.243,0.972
		c0.336,0.201,0.771,0.093,0.972-0.243c0.527-0.878,5.104-6.252,8.053-9.649c0.257-0.296,0.225-0.743-0.071-1
		C36.288,170.305,35.84,170.337,35.583,170.632z"/>
	<path d="M49.624,175.215c-0.21,0.205-5.156,5.032-5.918,5.921c-0.255,0.297-0.22,0.744,0.077,0.999
		c0.297,0.255,0.744,0.22,0.999-0.077c0.577-0.673,4.067-4.107,5.832-5.829c0.28-0.272,0.285-0.722,0.012-1.002
		C50.353,174.946,49.904,174.941,49.624,175.215z"/>
	<path d="M51.362,178.727c-0.052,0.054-5.245,5.368-6.339,6.341c-0.293,0.26-0.319,0.707-0.059,1c0.26,0.293,0.708,0.319,1,0.059
		c1.131-1.005,6.196-6.188,6.411-6.409c0.273-0.28,0.268-0.729-0.012-1.002C52.084,178.441,51.635,178.446,51.362,178.727z"/>
	<path d="M52.083,182.633c-1.935,2.236-5.823,6.668-6.685,7.435c-0.293,0.26-0.319,0.707-0.059,1c0.26,0.293,0.708,0.319,1,0.059
		c1.146-1.019,6.584-7.299,6.815-7.565c0.256-0.296,0.224-0.743-0.072-1C52.787,182.305,52.339,182.337,52.083,182.633z"/>
	<path d="M53.58,186.137c-1.62,1.895-6.083,7.009-7.262,7.894c-0.313,0.234-0.376,0.679-0.142,0.991
		c0.235,0.313,0.679,0.377,0.992,0.143c1.545-1.159,7.247-7.824,7.488-8.107c0.254-0.297,0.219-0.744-0.078-0.999
		C54.282,185.804,53.834,185.839,53.58,186.137z"/>
	<path d="M53.462,191.628c-2.243,2.545-6.639,7.512-7.219,8.093c-0.277,0.276-0.277,0.726,0,1.002c0.277,0.276,0.725,0.277,1.002,0
		c0.757-0.757,7.015-7.856,7.281-8.157c0.259-0.294,0.23-0.741-0.063-1C54.168,191.307,53.721,191.335,53.462,191.628z"/>
	<path d="M53.968,196.996c-0.06,0.066-5.998,6.622-6.851,7.475c-0.277,0.276-0.277,0.726,0,1.002c0.277,0.276,0.725,0.277,1.002,0
		c0.877-0.877,6.654-7.254,6.899-7.525c0.263-0.29,0.241-0.738-0.05-1.001C54.679,196.684,54.231,196.706,53.968,196.996z"/>
	<path d="M53.829,202.138c-3.063,3.603-6.6,7.635-7.122,8.008c-0.318,0.227-0.392,0.67-0.165,0.988
		c0.228,0.318,0.67,0.392,0.989,0.164c0.9-0.643,6.304-6.979,7.378-8.242c0.253-0.298,0.217-0.745-0.081-0.999
		C54.529,201.804,54.082,201.84,53.829,202.138z"/>
	<path d="M52.771,209.09c-2.323,3.633-5.108,7.624-5.749,8.014c-0.33,0.2-0.449,0.635-0.255,0.968
		c0.194,0.334,0.608,0.457,0.946,0.27c1.189-0.66,5.086-6.663,6.253-8.487c0.21-0.33,0.114-0.768-0.215-0.979
		C53.42,208.664,52.982,208.761,52.771,209.09z"/>
	<path d="M53.56,214.036c-2.107,2.703-5.604,7.133-6.013,7.512c-0.271,0.251-0.321,0.683-0.092,0.974
		c0.229,0.29,0.625,0.37,0.932,0.165c0.116-0.078,0.47-0.313,6.291-7.779c0.241-0.309,0.186-0.754-0.123-0.994
		C54.246,213.672,53.801,213.727,53.56,214.036z"/>
	<path d="M53.773,218.691c-0.226,0.2-5.554,4.928-6.946,6.572c-0.253,0.299-0.215,0.746,0.083,0.999
		c0.299,0.253,0.746,0.216,0.999-0.083c1.327-1.568,6.75-6.379,6.804-6.428c0.292-0.26,0.32-0.707,0.06-1
		C54.514,218.459,54.066,218.432,53.773,218.691z"/>
	<path d="M54.325,223.267l-5.75,6.875c-0.251,0.301-0.211,0.748,0.089,0.999s0.747,0.211,0.998-0.089l5.75-6.875
		c0.251-0.301,0.211-0.748-0.089-0.999C55.023,222.927,54.576,222.967,54.325,223.267z"/>
	<path d="M78.852,226.612c-0.268,0.286-0.254,0.734,0.033,1.002l3.875,3.625c0.285,0.268,0.734,0.253,1.002-0.033
		c0.268-0.286,0.252-0.734-0.033-1.002l-3.875-3.625C79.566,226.311,79.119,226.326,78.852,226.612z"/>
	<path d="M78.883,221.456c-0.285,0.268-0.299,0.718-0.029,1.002l8.375,8.875c0.268,0.285,0.717,0.298,1.002,0.029
		c0.285-0.269,0.297-0.718,0.029-1.002l-8.375-8.875C79.615,221.2,79.166,221.188,78.883,221.456z"/>
	<path d="M78.363,216.101c-0.275,0.279-0.269,0.727,0.01,1.002l13,12.75c0.279,0.274,0.727,0.27,1.002-0.01
		c0.273-0.279,0.27-0.728-0.01-1.002l-13-12.75C79.086,215.816,78.637,215.821,78.363,216.101z"/>
	<path d="M78.234,210.854c-0.271,0.281-0.264,0.73,0.018,1.002l11.125,10.75c0.281,0.271,0.728,0.264,1.002-0.018
		c0.271-0.281,0.264-0.73-0.018-1.002l-11.125-10.75C78.955,210.565,78.506,210.573,78.234,210.854z"/>
	<path d="M78.473,206.366c-0.266,0.287-0.248,0.735,0.041,1.001l9.875,9.125c0.287,0.266,0.734,0.248,1-0.04
		c0.266-0.287,0.248-0.735-0.039-1.001l-9.875-9.125C79.187,206.061,78.738,206.078,78.473,206.366z"/>
	<path d="M78.801,200.418c-0.305,0.245-0.355,0.69-0.111,0.996l6.5,8.125c0.246,0.306,0.691,0.355,0.996,0.111
		c0.307-0.245,0.355-0.69,0.111-0.996l-6.5-8.125C79.553,200.224,79.107,200.174,78.801,200.418z"/>
	<path d="M79.658,195.809c-0.299,0.255-0.332,0.702-0.078,0.999l7.5,8.75c0.256,0.298,0.703,0.332,1,0.077
		c0.297-0.255,0.332-0.702,0.076-0.999l-7.5-8.75C80.402,195.588,79.955,195.554,79.658,195.809z"/>
	<path d="M81.383,192.83c-0.285,0.269-0.299,0.717-0.031,1.002l7.75,8.25c0.27,0.285,0.717,0.299,1.002,0.031
		c0.285-0.269,0.299-0.717,0.031-1.002l-7.75-8.25C82.117,192.576,81.668,192.562,81.383,192.83z"/>
	<path d="M85.971,180.885c-0.324,0.22-0.408,0.66-0.189,0.984l5.75,8.5c0.221,0.324,0.66,0.409,0.984,0.189
		c0.324-0.22,0.41-0.66,0.189-0.984l-5.75-8.5C86.736,180.75,86.295,180.665,85.971,180.885z"/>
	<path d="M88.496,177.868c-0.332,0.206-0.436,0.643-0.23,0.976l6.25,10.125c0.205,0.333,0.643,0.437,0.975,0.231
		c0.334-0.206,0.438-0.643,0.232-0.976l-6.25-10.125C89.266,177.767,88.83,177.663,88.496,177.868z"/>
	<path d="M90.391,175.857c-0.34,0.195-0.457,0.628-0.262,0.968l5.75,10c0.195,0.339,0.629,0.456,0.969,0.261
		c0.338-0.195,0.455-0.628,0.26-0.968l-5.75-10C91.162,175.779,90.73,175.662,90.391,175.857z"/>
	<path d="M93.127,172.366c-0.336,0.202-0.441,0.639-0.238,0.973l7.125,11.75c0.201,0.335,0.639,0.441,0.973,0.238
		c0.334-0.202,0.441-0.639,0.238-0.973l-7.125-11.75C93.896,172.27,93.461,172.163,93.127,172.366z"/>
	<path d="M95.02,170.105c-0.34,0.192-0.461,0.625-0.268,0.966l5.875,10.375c0.193,0.34,0.625,0.46,0.967,0.267
		c0.34-0.192,0.459-0.625,0.266-0.966l-5.875-10.375C95.793,170.032,95.359,169.912,95.02,170.105z"/>
	<path d="M96.207,166.27c-0.318,0.228-0.393,0.67-0.166,0.988l8.375,11.75c0.229,0.319,0.67,0.394,0.988,0.166
		c0.32-0.228,0.395-0.67,0.166-0.988l-8.375-11.75C96.969,166.116,96.525,166.042,96.207,166.27z"/>
	<path d="M96.918,161.925c-0.303,0.248-0.346,0.695-0.096,0.997l8.125,9.875c0.248,0.303,0.695,0.346,0.996,0.097
		c0.303-0.248,0.346-0.695,0.098-0.997l-8.125-9.875C97.668,161.719,97.221,161.676,96.918,161.925z"/>
	<path d="M98.992,159.846c-0.275,0.276-0.277,0.726,0,1.002l6.5,6.5c0.277,0.276,0.727,0.277,1.002,0
		c0.277-0.276,0.277-0.726,0-1.002l-6.5-6.5C99.719,159.569,99.27,159.569,98.992,159.846z"/>
	<path d="M99.834,153.769c-0.318,0.225-0.395,0.668-0.168,0.987l5.75,8.125c0.225,0.319,0.668,0.396,0.986,0.169
		c0.32-0.226,0.396-0.668,0.17-0.987l-5.75-8.125C100.596,153.618,100.154,153.542,99.834,153.769z"/>
	<path d="M99.687,150.035c-0.31,0.238-0.369,0.684-0.131,0.993c2.488,3.234,6.264,8.156,6.473,8.463
		c0.221,0.322,0.66,0.408,0.984,0.19c0.322-0.218,0.41-0.653,0.195-0.977c-0.256-0.385-5.887-7.706-6.529-8.539
		C100.441,149.854,99.996,149.796,99.687,150.035z"/>
	<path d="M99.012,144.452c-0.287,0.267-0.303,0.715-0.037,1.002l8.125,8.75c0.266,0.286,0.715,0.303,1.002,0.037
		c0.285-0.267,0.303-0.715,0.037-1.002l-8.125-8.75C99.746,144.203,99.299,144.186,99.012,144.452z"/>
	<path d="M98.68,137.665c-0.307,0.243-0.359,0.689-0.117,0.996l9.375,11.875c0.242,0.307,0.688,0.359,0.996,0.117
		c0.307-0.243,0.359-0.688,0.117-0.996l-9.375-11.875C99.432,137.476,98.986,137.423,98.68,137.665z"/>
	<path d="M100.5,132.991c-0.334,0.203-0.439,0.639-0.236,0.974l7.75,12.75c0.203,0.334,0.639,0.44,0.973,0.237
		c0.334-0.203,0.441-0.639,0.238-0.974l-7.75-12.75C101.271,132.895,100.836,132.788,100.5,132.991z"/>
	<path d="M101.369,129.37c-0.332,0.207-0.434,0.645-0.227,0.977l8.5,13.625c0.207,0.332,0.645,0.434,0.977,0.226
		c0.332-0.207,0.434-0.644,0.227-0.976l-8.5-13.625C102.139,129.265,101.701,129.163,101.369,129.37z"/>
	<path d="M102.35,124.133c-0.326,0.218-0.412,0.658-0.195,0.983l8.625,12.875c0.219,0.325,0.658,0.412,0.984,0.194
		c0.324-0.218,0.412-0.658,0.193-0.983l-8.625-12.875C103.115,124.002,102.674,123.915,102.35,124.133z"/>
	<path d="M102.678,119.041c-0.307,0.243-0.358,0.688-0.115,0.996l10,12.625c0.244,0.307,0.69,0.358,0.996,0.115
		c0.307-0.243,0.359-0.688,0.115-0.996l-10-12.625C103.432,118.85,102.986,118.798,102.678,119.041z"/>
	<path d="M103.801,115.043c-0.305,0.244-0.355,0.69-0.111,0.996l11,13.75c0.246,0.306,0.691,0.355,0.996,0.111
		c0.307-0.245,0.355-0.69,0.111-0.996l-11-13.751C104.553,114.849,104.107,114.799,103.801,115.043z"/>
	<path d="M105.346,110.011c-0.324,0.221-0.408,0.661-0.188,0.985l9.875,14.499c0.221,0.324,0.66,0.407,0.984,0.188
		c0.324-0.221,0.406-0.661,0.188-0.984l-9.875-14.5C106.109,109.874,105.668,109.79,105.346,110.011z"/>
	<path d="M107.344,107.012c-0.322,0.221-0.406,0.662-0.186,0.985l8.625,12.624c0.221,0.323,0.662,0.406,0.984,0.186
		c0.324-0.221,0.406-0.661,0.186-0.984l-8.625-12.625C108.107,106.874,107.668,106.79,107.344,107.012z"/>
	<path d="M109.707,102.52c-0.318,0.227-0.393,0.67-0.166,0.988l8.375,11.75c0.229,0.319,0.67,0.393,0.988,0.166
		c0.32-0.227,0.395-0.67,0.166-0.988l-8.375-11.75C110.469,102.367,110.025,102.292,109.707,102.52z"/>
	<path d="M111.937,99.534c-0.31,0.237-0.369,0.682-0.133,0.993l8.5,11.125c0.238,0.311,0.684,0.371,0.994,0.133
		c0.311-0.237,0.371-0.682,0.133-0.993l-8.5-11.125C112.693,99.355,112.25,99.296,111.937,99.534z"/>
	<path d="M113.682,96.414c-0.309,0.242-0.361,0.687-0.121,0.995l8.125,10.375c0.242,0.308,0.688,0.362,0.994,0.121
		c0.309-0.242,0.363-0.687,0.121-0.995l-8.125-10.375C114.436,96.227,113.99,96.172,113.682,96.414z"/>
	<path d="M116.32,93.778c-0.314,0.233-0.379,0.677-0.145,0.992l6.875,9.25c0.232,0.314,0.676,0.379,0.99,0.146
		c0.314-0.233,0.379-0.677,0.146-0.992l-6.875-9.25C117.078,93.61,116.635,93.544,116.32,93.778z"/>
	<path d="M118.24,90.498c-0.33,0.209-0.43,0.646-0.221,0.978l6,9.5c0.209,0.331,0.646,0.43,0.979,0.221
		c0.33-0.209,0.43-0.646,0.221-0.978l-6-9.5C119.01,90.387,118.57,90.289,118.24,90.498z"/>
	<path d="M121.377,87.317c-0.359,0.133-0.551,0.516-0.43,0.878c0.129,0.387,3.395,6.67,4.793,9.354
		c0.182,0.347,0.609,0.482,0.955,0.301c0.348-0.181,0.482-0.609,0.303-0.956c-1.803-3.456-4.545-8.75-4.715-9.17
		C122.139,87.371,121.734,87.185,121.377,87.317z"/>
	<path d="M134.91,87.222v4.25c0,0.392,0.316,0.708,0.709,0.708c0.391,0,0.709-0.317,0.709-0.708v-4.25
		c0-0.392-0.318-0.709-0.709-0.709C135.227,86.513,134.91,86.83,134.91,87.222z"/>
	<path d="M138.215,87.949l-2.5,6c-0.15,0.361,0.02,0.776,0.381,0.927c0.361,0.15,0.777-0.021,0.928-0.382l2.5-6
		c0.15-0.361-0.021-0.776-0.383-0.927C138.779,87.417,138.365,87.588,138.215,87.949z"/>
	<path d="M140.982,89.66l-3,6.125c-0.172,0.352-0.027,0.775,0.324,0.948c0.352,0.172,0.775,0.027,0.949-0.325l3-6.125
		c0.172-0.352,0.025-0.775-0.326-0.948C141.578,89.163,141.154,89.309,140.982,89.66z"/>
	<path d="M143.348,94.117l-4.25,4.625c-0.266,0.288-0.246,0.736,0.041,1.001c0.289,0.265,0.736,0.246,1.002-0.042l4.25-4.625
		c0.264-0.288,0.246-0.736-0.043-1.001C144.061,93.81,143.611,93.829,143.348,94.117z"/>
</g>
</svg>
