<?xml version="1.0" encoding="iso-8859-1"?>
<!-- Generator: Adobe Illustrator 19.1.0, SVG Export Plug-In . SVG Version: 6.00 Build 0)  -->
<svg version="1.1" id="&#xB808;&#xC774;&#xC5B4;_1" xmlns="http://www.w3.org/2000/svg" xmlns:xlink="http://www.w3.org/1999/xlink"
	 x="0px" y="0px" viewBox="0 0 153.071 238.11" style="enable-background:new 0 0 153.071 238.11;" xml:space="preserve">
<rect style="fill:#E60012;" width="153.071" height="238.11"/>
<g>
	<path style="fill:#FFFFFF;" d="M8.702,15.471l-0.333,206c0,0,0.833,8.666,8.5,9.166s26,0.168,26,0.168h92.834
		c0,0,8.666-1.334,8.833-9.834l0.167-204.833c0,0-0.668-8-9.334-8.833l-118-0.167C17.369,7.138,10.535,7.638,8.702,15.471z"/>
	<path style="fill:#E60012;" d="M37.035,148.638c0,0,2.5-7.667,12.333-7.667s17.666,6.668,12.5,20.168c0,0,4.834,3.332,6.334,10.166
		l4.833-3.5c0,0-4.667-4.834-2.167-11c2.5-6.167,6.667-6.667,6.667-6.667s-7.666-2.667-6.333-10.667s8.667-11.666,17.501-10.833
		c8.833,0.833,11.167,9.666,8.5,16.833c0,0-2,6-8,5.834l4.333,3.834c0,0,2.833-2,8.333-3.334c0,0-2.332-4.834-0.166-9.5
		c2.166-4.667,8.166-6,8.166-6s3.834-0.167,7.334,2c3.5,2.166,7.334,7.5,5.5,12.5s-6.833,8-7.5,8c0,0,1.499,6.166-0.834,9.332
		c0,0,6.834,0.168,9.667,7.168s-0.833,10.332-0.833,10.332s6.166-0.498,9.333,4.334c3.167,4.834,3.334,12.5-3.833,17
		c-7.167,4.5-14.667,2.5-14.667,2.5l2.5-4c0,0-4.834-2.666-5.167-6.166c0,0-1.666,5.834-7.833,7.166c-6.167,1.334-15,4.666-15,4.666
		l-1.667,3.834c0,0,1.833,9-2.5,12.334c-4.334,3.332-20.833,5.166-19.667-10.668l-21.5-6.666l-6.167-2.834
		c0,0-4.333-1.332-6.167-2.666c0,0-1.667,8.5-10.5,8.666c-8.833,0.168-11.667-4.166-11.667-7c0-2.832-0.333-12.666-0.333-12.666
		s1.333-4.832,9.333-4.5c0,0-2.499-9.168,4.167-14.834c0,0,4-4.332,12.833-3.666L37.035,148.638z"/>
	<path style="fill:#FDD000;" d="M39.702,192.637c0,0-0.167-4.334,4.5-6.5s10.167,2.166,11,6c0,0-6.667,1.334-7.167,6
		c-0.5,4.668-0.667-0.332-0.667-0.332S44.868,192.471,39.702,192.637z"/>
	<path style="fill:#FDD000;" d="M76.202,192.471c0,0,2.833-2.666,8.334-2c5.5,0.666,5.5,4.166,5.5,4.166s-5.166-0.166-6.833,5
		c-1.668,5.168,0.334,0.666-1.001-2C80.868,194.971,77.702,192.639,76.202,192.471z"/>
	<path style="fill:#FDD000;" d="M91.869,172.805c0,0,1.833,2.666,1.5,5.166c0,0,5.168-0.668,10.834,1.666
		C104.203,179.637,100.202,171.471,91.869,172.805z"/>
	<path style="fill:#E60012;" d="M33.869,130.305c0,0-2.333-4.667-10.333-4.834c-8-0.167-11.166,8.166-10,14
		c1.167,5.834,5.833,8.834,11,8.834s8.667-3.168,10-6.834C35.869,137.805,35.702,131.971,33.869,130.305z"/>
	<path style="fill:#E60012;" d="M39.535,118.805c0,0,2.666-6.166,11.333-5.166s10.001,9.166,8.334,14.833
		c-1.667,5.667-7.333,10.001-13.667,8.167c-6.333-1.833-8.667-7.667-8.667-10.167C36.869,123.971,39.535,118.805,39.535,118.805z"/>
	<path style="fill:#E60012;" d="M106.869,78.638c0,0-3.166-3.667-8.333-4c-5.167-0.334-8.999,3.166-9.833,7.833
		s3.333,8.5,9.333,9.833c6,1.334,8.667-3.666,9.5-6C108.369,83.971,108.369,80.638,106.869,78.638z"/>
	<path style="fill:#E60012;" d="M111.369,104.638l0.667,14.166c0,0,3.999,2.667,10.833,0.667c6.834-2,7.501-6.667,6.334-12.167
		c-1.167-5.5-7.668-7.833-11.834-6.833C117.369,100.471,113.369,101.972,111.369,104.638z"/>
	<path d="M18.456,6.596c-5.861,0-10.63,4.768-10.63,10.63v203.657c0,5.861,4.769,10.631,10.63,10.631h116.158
		c5.861,0,10.63-4.769,10.63-10.631V17.226c0-5.861-4.769-10.63-10.63-10.63H18.456z M9.244,220.883V17.226
		c0-5.08,4.133-9.213,9.213-9.213h116.158c5.08,0,9.212,4.133,9.212,9.213v203.657c0,5.08-4.132,9.213-9.212,9.213H18.456
		C13.376,230.096,9.244,225.963,9.244,220.883z"/>
	<path d="M38.226,191.764c-0.317-0.023-4.368-0.271-7.13,2.109c-1.465,1.264-2.284,3.018-2.434,5.217
		c-0.245,3.586,1.178,8.016,9.346,8.742l0.129,0.012c3.02,0.273,8.948-0.895,9.767-7.283c0.298-2.322-0.446-4.393-2.152-5.982
		C43.357,192.344,39.655,191.577,38.226,191.764z M38.34,193.166c0.809-0.162,4.281,0.43,6.446,2.447
		c1.377,1.285,1.954,2.889,1.713,4.768c-0.853,6.646-7.932,6.078-8.233,6.051l-0.133-0.012c-5.719-0.51-8.355-2.875-8.058-7.234
		c0.123-1.803,0.775-3.229,1.939-4.234c2.36-2.039,6.094-1.777,6.131-1.773l0.098,0.008L38.34,193.166z"/>
	<path d="M55.521,191.596c-2.971,0.057-5.212,0.943-6.662,2.631c-2.115,2.463-1.711,5.701-1.693,5.838l-0.006-0.094
		c0,1.611,1.569,6.209,8.542,6.209c7.913,0,8.37-6.769,8.374-6.838c0.011-0.082,0.335-3.1-1.726-5.369
		C60.864,192.336,58.567,191.538,55.521,191.596z M48.577,199.971v-0.045l-0.006-0.047c-0.004-0.027-0.331-2.766,1.372-4.738
		c1.176-1.363,3.062-2.078,5.605-2.127c2.611-0.051,4.543,0.588,5.741,1.9c1.631,1.785,1.377,4.285,1.374,4.311
		c-0.017,0.264-0.414,5.537-6.962,5.537C49.887,204.762,48.577,201.215,48.577,199.971z"/>
	<path d="M8.189,192.936c-0.111,0.373,0.101,0.762,0.472,0.875c0.372,0.115,0.767-0.096,0.884-0.465
		c0.052-0.162,1.352-3.971,8.961-3.666c7.805,0.311,10.408,5.246,10.408,6.543c0,0.391,0.317,0.709,0.708,0.709
		c0.391,0,0.708-0.318,0.708-0.709c0-1.652-2.818-7.601-11.768-7.959C9.78,187.913,8.25,192.731,8.189,192.936z"/>
	<path d="M30.632,203.614c-0.383,0.039-0.664,0.393-0.634,0.775c0.034,0.438-0.748,2.727-2.816,4.84
		c-1.635,1.67-4.485,3.611-8.773,3.369c-8.1-0.459-8.972-5.83-9.005-6.059c-0.056-0.387-0.414-0.656-0.8-0.602
		c-0.386,0.055-0.656,0.408-0.604,0.795c0.009,0.066,1.02,6.752,10.329,7.279c4.967,0.281,8.227-2.033,10.087-4.023
		c2.107-2.256,3.104-4.844,2.989-5.771C31.357,203.834,31.015,203.575,30.632,203.614z"/>
	<path d="M8.054,203.118c-0.285,0.264-0.301,0.705-0.041,0.992c0.26,0.289,0.707,0.311,0.998,0.053
		c0.044-0.039,4.598-3.867,20.397-0.994c0.385,0.07,0.754-0.186,0.824-0.57c0.07-0.385-0.186-0.754-0.57-0.824
		C13.005,198.747,8.248,202.936,8.054,203.118z"/>
	<path d="M11.421,190.688c4.31,3.51,7.596,11.15,7.629,11.227l1.304-0.555c-0.139-0.326-3.454-8.037-8.037-11.771L11.421,190.688z"
		/>
	<path d="M48.286,159.807c-8.169,3.065-10.888,8.42-11.563,10.096c-0.194-0.012-0.395-0.021-0.395-0.021
		c-3.909-0.229-11.184-0.65-16.335,5.467c-5.545,6.584-2.737,13.754-2.615,14.055l1.314-0.529
		c-0.108-0.271-2.597-6.697,2.385-12.613c4.695-5.574,11.251-5.191,15.169-4.965l1.477,0.08l0.157-0.531
		c0.02-0.064,2.046-6.389,10.904-9.709c4.794-1.799,10.095-1.088,13.834,1.85c3.911,3.074,5.645,8.248,4.881,14.568l-0.101,0.83
		l0.837-0.037c0.258-0.012,6.338-0.221,8.298,5.361c1.969,5.604-1.635,8.758-1.789,8.889l0.914,1.084
		c0.036-0.029,2.871-2.475,2.871-6.769c0-1.106-0.188-2.334-0.658-3.674c-1.862-5.301-6.957-6.156-8.918-6.287
		c0.069-0.76,0.14-1.521,0.14-2.25c0-5.463-1.938-9.951-5.599-12.828C59.368,158.627,53.541,157.838,48.286,159.807z"/>
	<path d="M73.873,191.928c-0.246-0.002-8.997-0.021-9.71,7.477c-0.253,2.656,0.509,4.973,2.202,6.697
		c2.545,2.59,6.47,3.275,9.058,3.076c2.737-0.211,5.165-1.416,6.66-3.305c1.339-1.691,1.853-3.828,1.486-6.178
		C82.68,194.01,76.762,191.612,73.873,191.928z M73.962,193.34c2.104-0.281,7.432,1.617,8.206,6.574
		c0.305,1.949-0.109,3.705-1.196,5.078c-1.251,1.582-3.313,2.592-5.658,2.773c-2.465,0.189-5.875-0.559-7.937-2.658
		c-1.411-1.438-2.018-3.311-1.804-5.568c0.596-6.254,7.968-6.199,8.281-6.193l0.054,0.002L73.962,193.34z"/>
	<path d="M74.203,207.93c-0.414-0.025-8.829-0.402-10.038,9.623c-0.416,3.447,0.305,6.297,2.143,8.467
		c3.047,3.598,8.063,4.094,9.528,4.16c1.49,0.067,6.024,0.272,9.103-2.621c2.019-1.898,3.075-4.783,3.139-8.576
		c0.055-3.305-1.02-5.961-3.194-7.896C81.537,208.108,76.31,207.676,74.203,207.93z M74.296,209.34
		c1.192-0.16,6.324-0.15,9.646,2.805c1.852,1.648,2.767,3.941,2.718,6.814c-0.057,3.396-0.962,5.941-2.691,7.566
		c-2.642,2.484-6.726,2.299-8.068,2.238c-2.721-0.123-6.385-1.15-8.512-3.66c-1.572-1.857-2.183-4.34-1.817-7.381
		c1.067-8.85,8.269-8.402,8.575-8.379l0.074,0.006L74.296,209.34z"/>
	<path d="M66.132,212.766l0.139,1.41c0.097-0.008,9.748-0.781,18.703,10.893l1.125-0.863
		C76.633,211.868,66.556,212.723,66.132,212.766z"/>
	<path d="M74.642,215.204l1.121,0.867c0.027-0.035,2.784-3.568,6.102-5.305l-0.658-1.256
		C77.61,211.393,74.761,215.049,74.642,215.204z"/>
	<path d="M90.186,194.096c-7.605,0.182-7.693,6.809-7.693,6.875l0.036-0.223c-0.453,1.361-0.171,3.816,1.247,5.684
		c1.026,1.356,3.039,2.93,6.793,2.748c8.062-0.394,8.931-6.142,9.003-6.797c0.123-1.108-0.506-3.537-2.285-5.479
		C96.068,195.575,93.846,194.008,90.186,194.096z M84.906,205.577c-1.181-1.557-1.312-3.533-1.03-4.381l0.035-0.108l0.001-0.113
		c0.001-0.219,0.108-5.314,6.308-5.463c2.512-0.059,4.538,0.732,6.023,2.352c1.617,1.764,1.979,3.844,1.922,4.363
		c-0.096,0.867-0.917,5.209-7.663,5.537C88.018,207.885,86.083,207.129,84.906,205.577z"/>
	<path d="M67.776,171.248l1.183,0.779c0.149-0.223,3.741-5.467,12.178-4.684c8.542,0.791,11.383,7.447,11.693,10.857l0.063,0.699
		l0.701-0.057c0.116-0.01,11.666-0.879,16.533,5.875c2.502,3.471,2.443,7.344,1.954,9.98c-0.714,3.844-2.88,7.619-5.267,9.18
		c-3.931,2.568-8.584,0.314-8.631,0.291l-0.633,1.268c0.22,0.109,5.418,2.648,10.039-0.373c2.729-1.783,5.093-5.846,5.885-10.107
		c0.54-2.908,0.598-7.189-2.197-11.066c-4.714-6.541-14.556-6.598-17.151-6.494c-0.622-3.951-3.896-10.635-12.859-11.465
		C71.951,165.069,67.942,170.997,67.776,171.248z"/>
	<path d="M123.19,185.096c-9.646,0.176-10.843,6.861-10.853,6.928l1.398,0.23c0.039-0.229,1.062-5.588,9.48-5.74
		c3.263-0.06,5.88,0.904,7.78,2.865c2.087,2.154,2.931,5.254,2.832,7.223c-0.16,3.211-3.426,8.326-6.674,9.361
		c-3.422,1.088-7.73,0-7.773-0.012c-0.309-0.061-6.54-1.326-7.141-6.725l-1.408,0.156c0.716,6.445,8.163,7.936,8.238,7.951
		c0.146,0.039,4.696,1.193,8.514-0.021c3.9-1.242,7.472-6.889,7.66-10.641c0.117-2.34-0.836-5.807-3.229-8.279
		C129.83,186.139,126.861,185.03,123.19,185.096z"/>
	<path d="M122.997,207.2l1.412-0.123c-0.01-0.111-0.885-11.301,5.827-18.973l-1.066-0.934
		C122.052,195.305,122.955,206.717,122.997,207.2z"/>
	<path d="M113.185,192.157c0.071,0.02,7.188,2.033,10.184,10.387l1.334-0.479c-3.255-9.078-10.83-11.191-11.151-11.277
		L113.185,192.157z"/>
	<path d="M33.833,189.372c-0.055,0.387,0.214,0.746,0.601,0.801l3.5,0.5c0.387,0.057,0.746-0.213,0.802-0.6
		c0.055-0.389-0.214-0.748-0.602-0.803l-3.5-0.5C34.248,188.715,33.889,188.985,33.833,189.372z"/>
	<path d="M34.018,186.62c-0.102,0.379,0.122,0.768,0.5,0.869l4.333,1.168c0.378,0.102,0.767-0.123,0.868-0.5
		c0.102-0.379-0.122-0.768-0.5-0.869l-4.333-1.168C34.508,186.018,34.119,186.243,34.018,186.62z"/>
	<path d="M37.017,183.321c-0.267,0.287-0.251,0.734,0.035,1.002l2.5,2.334c0.286,0.266,0.734,0.25,1.001-0.035
		c0.267-0.287,0.251-0.734-0.035-1.002l-2.5-2.332C37.732,183.02,37.284,183.036,37.017,183.321z"/>
	<path d="M40.166,181.034c-0.334,0.203-0.439,0.639-0.235,0.973l1.833,3c0.204,0.334,0.64,0.439,0.974,0.236
		c0.334-0.205,0.439-0.641,0.235-0.975l-1.833-3C40.935,180.934,40.5,180.829,40.166,181.034z"/>
	<path d="M43.105,179.479c-0.363,0.146-0.54,0.559-0.395,0.922l1.333,3.334c0.145,0.363,0.558,0.541,0.921,0.395
		c0.363-0.145,0.54-0.557,0.395-0.92l-1.333-3.334C43.881,179.512,43.469,179.334,43.105,179.479z"/>
	<path d="M46.994,178.774l-0.167,3.834c-0.017,0.391,0.286,0.721,0.677,0.738c0.391,0.016,0.722-0.287,0.739-0.678l0.167-3.832
		c0.017-0.393-0.286-0.723-0.677-0.74C47.341,178.08,47.011,178.383,46.994,178.774z"/>
	<path d="M50.518,179.118l-1,3.668c-0.103,0.377,0.119,0.768,0.497,0.869c0.378,0.104,0.768-0.119,0.87-0.496l1-3.668
		c0.104-0.377-0.119-0.768-0.497-0.869C51.011,178.518,50.621,178.741,50.518,179.118z"/>
	<path d="M55.201,179.803l-3.167,3.168c-0.276,0.275-0.277,0.725,0,1.002c0.276,0.277,0.725,0.277,1.002,0l3.167-3.168
		c0.277-0.275,0.276-0.725,0-1.002C55.927,179.528,55.477,179.528,55.201,179.803z"/>
	<path d="M58.011,182.692l-4,2.334c-0.338,0.197-0.452,0.631-0.255,0.969c0.197,0.338,0.631,0.453,0.97,0.256l4-2.334
		c0.338-0.197,0.452-0.631,0.255-0.969C58.783,182.61,58.35,182.495,58.011,182.692z"/>
	<path d="M59.836,186.93l-3.666,0.166c-0.391,0.018-0.693,0.35-0.676,0.74s0.35,0.693,0.74,0.676l3.666-0.166
		c0.391-0.018,0.693-0.35,0.676-0.74C60.559,187.215,60.226,186.913,59.836,186.93z"/>
	<path d="M55.994,189.942c-0.017,0.391,0.286,0.721,0.678,0.738l3.833,0.166c0.391,0.016,0.722-0.287,0.738-0.678
		c0.017-0.391-0.286-0.723-0.678-0.738l-3.833-0.166C56.342,189.247,56.011,189.549,55.994,189.942z"/>
	<path d="M77.786,185.641c-0.366,0.137-0.552,0.547-0.414,0.912l1,2.668c0.137,0.365,0.546,0.551,0.912,0.414
		c0.366-0.137,0.552-0.545,0.414-0.912l-1-2.668C78.562,185.69,78.152,185.504,77.786,185.641z"/>
	<path d="M79.004,186.03c-0.336,0.201-0.444,0.637-0.243,0.973l1.5,2.5c0.201,0.336,0.637,0.443,0.972,0.242
		c0.336-0.201,0.444-0.637,0.243-0.971l-1.5-2.5C79.774,185.938,79.339,185.829,79.004,186.03z"/>
	<path d="M81.824,185.127c-0.374,0.117-0.582,0.516-0.466,0.889l0.833,2.666c0.117,0.375,0.515,0.582,0.888,0.467
		c0.374-0.117,0.582-0.516,0.466-0.889l-0.834-2.666C82.595,185.219,82.197,185.012,81.824,185.127z"/>
	<path d="M84.497,184.43c-0.391,0.022-0.69,0.356-0.669,0.746l0.167,3c0.022,0.393,0.356,0.691,0.747,0.67
		c0.391-0.023,0.69-0.357,0.669-0.748l-0.167-3C85.221,184.707,84.887,184.409,84.497,184.43z"/>
	<path d="M87.011,184.985l-0.667,3c-0.085,0.381,0.155,0.76,0.537,0.844c0.383,0.086,0.761-0.154,0.846-0.537l0.667-3
		c0.085-0.383-0.155-0.76-0.538-0.846C87.474,184.362,87.096,184.602,87.011,184.985z"/>
	<path d="M90.069,185.987l-1.167,2.334c-0.175,0.35-0.034,0.775,0.316,0.951c0.351,0.174,0.776,0.033,0.951-0.316l1.167-2.334
		c0.175-0.35,0.034-0.775-0.316-0.951C90.669,185.497,90.244,185.637,90.069,185.987z"/>
	<path d="M93.346,187.159l-1.833,2c-0.265,0.289-0.245,0.736,0.044,1.002c0.288,0.264,0.736,0.244,1.001-0.045l1.833-2
		c0.265-0.287,0.245-0.736-0.044-1C94.059,186.85,93.611,186.87,93.346,187.159z"/>
	<path d="M97.42,189.321l-3.834,1.666c-0.359,0.156-0.523,0.574-0.368,0.934c0.156,0.359,0.574,0.523,0.933,0.367l3.834-1.666
		c0.359-0.156,0.524-0.574,0.368-0.932C98.197,189.33,97.779,189.166,97.42,189.321z"/>
	<path d="M98.957,191.768l-3,0.332c-0.389,0.043-0.669,0.395-0.626,0.783c0.043,0.389,0.394,0.668,0.782,0.625l3-0.332
		c0.389-0.043,0.669-0.395,0.626-0.783C99.697,192.004,99.346,191.725,98.957,191.768z"/>
	<path d="M96.33,195.401c-0.039,0.391,0.245,0.736,0.635,0.775l3.333,0.334c0.39,0.039,0.736-0.246,0.775-0.635
		c0.039-0.391-0.245-0.736-0.635-0.775l-3.333-0.334C96.716,194.727,96.37,195.012,96.33,195.401z"/>
	<path d="M81.472,148.798c-4.668,0.208-8.616,2.517-10.562,6.173c-4.383,8.24,1.769,13.652,1.832,13.705l0.924-1.076
		c-0.221-0.189-5.343-4.746-1.504-11.963c1.707-3.209,5.212-5.237,9.374-5.423c4.696-0.209,9.067,1.89,11.407,5.478l0.41,0.629
		l0.604-0.445c0.087-0.065,8.705-6.299,16.351-1.149c7.531,5.072,3.603,12.92,3.432,13.252l-0.545,1.057l1.191-0.023
		c0.253-0.004,6.228-0.055,8.831,6.07c2.621,6.166-0.436,10.113-0.566,10.279l1.105,0.889c0.108-0.135,1.938-2.463,1.938-6.293
		c0-1.572-0.308-3.398-1.172-5.43c-2.312-5.439-7.045-6.598-9.122-6.848c0.381-1.025,0.895-2.783,0.895-4.834
		c0-2.963-1.077-6.521-5.195-9.295c-7.364-4.961-15.38-0.492-17.438,0.824C90.969,150.732,86.405,148.579,81.472,148.798z"/>
	<path d="M87.997,167.676c-0.255,0.297-0.22,0.744,0.077,1l3.5,3c0.297,0.254,0.744,0.219,0.999-0.078
		c0.255-0.297,0.22-0.744-0.077-0.998l-3.5-3C88.7,167.344,88.252,167.379,87.997,167.676z"/>
	<path d="M91.885,165.946c-0.383,0.082-0.625,0.459-0.542,0.842l0.833,3.834c0.083,0.383,0.46,0.625,0.843,0.543
		c0.383-0.084,0.625-0.461,0.542-0.844l-0.833-3.834C92.645,166.104,92.268,165.862,91.885,165.946z"/>
	<path d="M94.16,166.805v3.666c0,0.393,0.317,0.709,0.709,0.709s0.709-0.316,0.709-0.709v-3.666c0-0.392-0.317-0.709-0.709-0.709
		S94.16,166.413,94.16,166.805z"/>
	<path d="M97.507,167.332l-0.667,3.334c-0.076,0.383,0.173,0.756,0.557,0.834c0.384,0.076,0.757-0.174,0.834-0.557l0.667-3.334
		c0.076-0.383-0.173-0.756-0.557-0.834C97.957,166.7,97.584,166.95,97.507,167.332z"/>
	<path d="M100.386,168.854l-1.167,2.666c-0.156,0.359,0.006,0.777,0.365,0.934c0.358,0.156,0.777-0.006,0.934-0.365l1.167-2.666
		c0.156-0.359-0.006-0.777-0.365-0.934C100.961,168.332,100.542,168.495,100.386,168.854z"/>
	<path d="M103.885,170.454l-2.5,2.334c-0.286,0.266-0.302,0.715-0.035,1c0.268,0.287,0.716,0.303,1.002,0.035l2.5-2.332
		c0.286-0.268,0.302-0.717,0.035-1.002C104.62,170.202,104.171,170.186,103.885,170.454z"/>
	<path d="M106.457,172.473l-3.167,1.166c-0.367,0.137-0.556,0.543-0.42,0.91c0.136,0.367,0.543,0.557,0.91,0.42l3.167-1.166
		c0.367-0.137,0.555-0.543,0.42-0.91C107.232,172.526,106.825,172.338,106.457,172.473z"/>
	<path d="M108.661,175.098l-2.834,0.166c-0.391,0.024-0.688,0.359-0.665,0.75c0.022,0.391,0.358,0.688,0.749,0.664l2.834-0.166
		c0.391-0.023,0.688-0.359,0.665-0.75C109.387,175.372,109.051,175.075,108.661,175.098z"/>
	<path d="M106.164,178.727c-0.043,0.389,0.237,0.738,0.626,0.781l3,0.334c0.389,0.043,0.739-0.238,0.782-0.627
		c0.043-0.389-0.237-0.738-0.626-0.781l-3-0.334C106.558,178.057,106.207,178.338,106.164,178.727z"/>
	<path d="M107.416,136.556c-3.592,1.185-6.238,3.841-6.906,6.933c-1.406,6.502,1.279,8.918,1.395,9.018l0.934-1.064
		c-0.021-0.02-2.155-2.05-0.944-7.654c0.562-2.602,2.849-4.858,5.965-5.886c3.775-1.245,7.839-0.397,10.875,2.269
		c2.83,2.485,4,6.048,3.21,9.776c-0.843,3.976-3.698,7.175-7.453,8.349l0.422,1.352c4.244-1.326,7.47-4.93,8.418-9.406
		c0.899-4.244-0.436-8.303-3.661-11.135C116.252,136.105,111.672,135.152,107.416,136.556z"/>
	<path d="M74.177,132.141c-2.41,2.288-3.684,5.226-3.684,8.497c0,7.928,6.761,10.154,6.828,10.176l0.429-1.351
		c-0.238-0.077-5.839-1.957-5.839-8.825c0-2.873,1.12-5.456,3.241-7.469c2.954-2.805,7.637-4.26,12.846-3.99
		c3.082,0.16,5.459,1.17,7.066,3.004c2.622,2.993,2.574,7.453,2.432,9.232c-0.256,3.191-2.314,9.182-8.274,9.016l-0.039,1.416
		c6.101,0.17,9.318-5.229,9.726-10.318c0.157-1.959,0.201-6.88-2.778-10.279c-1.868-2.133-4.58-3.305-8.058-3.485
		C82.476,127.474,77.411,129.069,74.177,132.141z"/>
	<path d="M105.895,138.443c8.73,4.21,6.468,17.105,6.443,17.233l1.394,0.258c0.106-0.572,2.487-14.087-7.223-18.768L105.895,138.443
		z"/>
	<path d="M112.674,147.862l0.722,1.22c0.042-0.024,4.266-2.45,8.857-0.46l0.564-1.301
		C117.546,145.037,112.871,147.745,112.674,147.862z"/>
	<path d="M85.19,144.768c-0.379,1.264-1.97,3.513-2.551,4.273l1.128,0.859c0.091-0.119,2.25-2.956,2.781-4.727
		c0.493-1.643,4.874-10.093,10.131-11.175l-0.285-1.389C90.438,133.836,85.746,142.914,85.19,144.768z"/>
	<path d="M76.189,132.18c8.368,0.155,11.059,8.48,11.169,8.835l1.354-0.419c-0.029-0.097-3.093-9.659-12.498-9.833L76.189,132.18z"
		/>
	<path d="M35.705,160.553c1.616,4.311,4.872,5.08,5.01,5.109l0.312-1.381c-0.108-0.025-2.661-0.668-3.995-4.227L35.705,160.553z"/>
	<path d="M48.466,140.266c-10.611,1.043-11.625,8.546-11.634,8.621l1.407,0.171c0.034-0.263,0.933-6.454,10.366-7.382
		c3.953-0.389,7.251,0.484,9.802,2.594c2.466,2.039,4.119,5.254,4.423,8.6c0.541,5.943-1.884,8.031-1.908,8.053l0.889,1.104
		c0.125-0.1,3.048-2.51,2.432-9.285c-0.338-3.714-2.182-7.289-4.932-9.562C56.498,140.852,52.748,139.845,48.466,140.266z"/>
	<path d="M45.577,161.303l1.249,0.67c0.063-0.117,6.365-11.844,11.916-18.376l-1.08-0.918
		C52.013,149.327,45.641,161.184,45.577,161.303z"/>
	<path d="M38.951,144.768l0.165,1.407c0.266-0.029,6.562-0.62,10.609,8.095l1.285-0.598
		C46.512,143.985,39.258,144.731,38.951,144.768z"/>
	<path d="M16.875,127.286c-3.665,2.912-4.279,7.599-4.38,8.966c-0.229,3.085,1.074,6.674,3.318,9.143
		c2.088,2.298,4.869,3.549,8.04,3.618c6.777,0.147,11.095-4.523,11.555-12.492c0.007-0.063,0.039-0.36,0.039-0.868
		c0-2.449-0.786-9.087-9.136-10.382C22.48,124.677,19.306,125.354,16.875,127.286z M23.884,147.596
		c-2.773-0.061-5.201-1.15-7.022-3.154c-2.269-2.497-3.118-5.86-2.954-8.085c0.091-1.222,0.635-5.407,3.849-7.961
		c2.108-1.675,4.913-2.255,8.335-1.724c8.85,1.373,7.949,9.37,7.906,9.71l-0.004,0.049C33.799,139.85,32.422,147.782,23.884,147.596
		z M35.408,136.521c-0.001,0.005-0.003,0.039-0.004,0.041l0.005-0.051C35.409,136.515,35.408,136.518,35.408,136.521z"/>
	<path d="M22.663,148.409l1.412,0.125c0.01-0.111,1.071-11.229,8.011-19.783l-1.101-0.893
		C23.765,136.758,22.704,147.938,22.663,148.409z"/>
	<path d="M14.789,131.842c0.289,0.033,7.101,0.901,9.745,8.366l1.336-0.474c-2.948-8.323-10.599-9.265-10.923-9.3L14.789,131.842z"
		/>
	<path d="M42.14,115.039c-2.789,2.015-4.566,5.243-5.14,9.334c-1.402,9.99,9.227,13.247,9.334,13.278l-0.072-0.025
		c1.43,0.595,4.788,0.294,7.72-1.232c2.231-1.162,5.098-3.481,6.078-7.936c0.99-4.504,0.493-8.419-1.438-11.32
		c-1.496-2.248-3.73-3.699-6.46-4.196C48.547,112.284,44.895,113.049,42.14,115.039z M46.808,136.317l-0.035-0.014l-0.037-0.011
		c-0.391-0.117-9.564-2.951-8.333-11.722c0.527-3.753,2.064-6.573,4.567-8.382c2.443-1.766,5.702-2.441,8.938-1.853
		c2.343,0.426,4.256,1.666,5.534,3.586c1.713,2.574,2.14,6.112,1.233,10.23c-0.862,3.921-3.384,5.962-5.348,6.984
		C50.559,136.577,47.655,136.67,46.808,136.317z"/>
	<path d="M42.188,134.94l1.36,0.397c0.034-0.117,3.561-11.765,14.788-17.058l-0.603-1.282
		C45.913,122.569,42.335,134.438,42.188,134.94z"/>
	<path d="M40.944,117.841c0.199,0.027,4.906,0.729,6.743,7.159l1.362-0.39c-2.103-7.366-7.69-8.145-7.927-8.175L40.944,117.841z"/>
	<path d="M110.87,105.062l1.331,0.488c0.075-0.202,1.932-4.944,8.961-4.538c3.438,0.198,6.168,2.545,7.304,6.278
		c1.158,3.807,0.258,7.761-2.19,9.616c-5.179,3.924-12.447,2.487-13.167,1.647l-1.149,0.829c0.61,0.854,2.593,1.239,3.417,1.364
		c1.598,0.243,7.164,0.767,11.755-2.711c2.912-2.206,4.019-6.795,2.691-11.159c-1.316-4.325-4.523-7.046-8.577-7.28
		C113.127,99.129,110.891,105.003,110.87,105.062z"/>
	<path d="M113.537,103.16c0.488,0.118,11.966,3.029,12.123,14.488l1.418-0.02c-0.173-12.572-13.079-15.815-13.21-15.846
		L113.537,103.16z"/>
	<path d="M111.127,118.972l0.482,1.333c8.02-2.9,11.908-11.186,12.069-11.537l-1.287-0.593
		C122.355,108.255,118.58,116.276,111.127,118.972z"/>
	<path d="M98.006,73.93c-0.087,0.004-8.771,0.446-9.84,8.11c-0.365,2.62,0.32,5.014,1.983,6.925c2.42,2.781,6.39,4.048,9.053,4.048
		c2.65,0,8.836-0.928,9.041-9.525c0.17-7.088-6.312-9.343-10.169-9.558l-0.034-0.002L98.006,73.93z M91.219,88.035
		c-1.152-1.324-1.732-2.874-1.732-4.62c0-0.383,0.027-0.776,0.084-1.178c0.896-6.419,8.015-6.866,8.461-6.887
		c1.001,0.059,8.798,0.747,8.798,7.868c0,0.078-0.001,0.157-0.002,0.237c-0.161,6.73-4.235,8.142-7.625,8.142
		C96.775,91.596,93.253,90.372,91.219,88.035z"/>
	<path d="M90.637,78.475c0.275,0.096,6.719,2.485,4.702,13.03l1.393,0.267c2.256-11.802-5.556-14.61-5.635-14.638L90.637,78.475z"/>
	<path d="M95.765,84.247l0.875,1.114c0.287-0.225,7.037-5.532,8.702-7.03l-0.947-1.054C102.764,78.745,95.834,84.192,95.765,84.247z
		"/>
	<path d="M106.203,137.805l-0.5-48.5c0,0,1.833-2.667,1.833-6.833c0-4.167-2.833-5.5-2.833-5.5s-1-18.833-1.667-25.5
		s-1.999-16.833-2.333-18.333s0.5-2,1.833-2.333s2.501,1.833,2.667,3.5s3.333,23.833,4.333,31.833s2.667,37.333,2.667,37.333
		s1.499,24,1.666,26c0.167,2,0.334,7.334,0.334,7.334S110.37,136.472,106.203,137.805z"/>
	<path d="M38.869,163.805c0,0-0.833-16.167-0.833-21.5c0-5.334,0.5-11.5,0.5-11.5s-1.167-2.834-0.667-6.834s3.167-6.333,3.167-8.333
		s1.667-12.167,0.333-30.5s-7.667-35.5-8-36s-1.5-1.334-3.167-1.667s-1.166,0.833-0.833,2.5s4.435,14.725,5.667,25.5
		c1.333,11.667,2.333,20.666-0.5,43.5c0,0-1.5,9.334-1.5,10.667c0,0,2,2.5,1.5,8s-2.833,7.333-2.833,7.333s0,16.5,1.167,25.5
		l4.333,0.166c0,0,2-3.498,2.667-4.166C40.535,165.805,41.702,164.639,38.869,163.805z"/>
	<path d="M15.035,230.137c0,0,6.166-4.332,12-10.832s8.833-12,8.833-12s8.833,0.832,11.333-6c0,0,1-0.166,1.333,0.666
		c0.333,0.834,3.001,3.668,7.167,3.5c4.166-0.166,7-3.166,7.333-4.666s1.666-1.5,1.833,0.166c0.167,1.666,0.166,6.666,7.5,7.334
		c0,0-7.166,2-7.666,9.666c0,0-4.834,0.334-9.5,2c-4.666,1.666-10,6.5-12,10.5l-17.5,0.5L15.035,230.137z"/>
	<path d="M77.202,208.305c0,0,5.167-3.668,5.5-4.168s0.668,0.334,1.001,1c0.333,0.668,2,3,6.333,3.168c4.333,0.166,7.5-3,7.5-3
		s1.834-0.334,2.667,0.166s5,0,5,0s8.833,0,10.333,0.166c1.5,0.168,1.999,1,6.833,1.5s7.5-2,8-2.332c0.5-0.334,13.834-5,13.834-5
		l0.5,7.5c0,0-11.668,3.5-21.334,5.166c-9.666,1.666-18.667,0.832-22.5,1.166s-13.666,1.834-13.666,1.834
		S84.037,209.137,77.202,208.305z"/>
</g>
</svg>
