<?xml version="1.0" encoding="iso-8859-1"?>
<!-- Generator: Adobe Illustrator 19.1.0, SVG Export Plug-In . SVG Version: 6.00 Build 0)  -->
<svg version="1.1" id="&#xB808;&#xC774;&#xC5B4;_1" xmlns="http://www.w3.org/2000/svg" xmlns:xlink="http://www.w3.org/1999/xlink"
	 x="0px" y="0px" viewBox="0 0 153.071 238.11" style="enable-background:new 0 0 153.071 238.11;" xml:space="preserve">
<rect style="fill:#E60012;" width="153.071" height="238.11"/>
<g>
	<path style="fill:#FFFFFF;" d="M7.702,16.139L7.535,221.138c0,0,0,8.667,9.5,9.667l107.333,0.167l21.167-44.834V16.805
		c0,0-0.333-9.166-10-9.5H16.869C16.869,7.305,8.368,7.639,7.702,16.139z"/>
	<path style="fill:#F5B090;" d="M39.035,198.055l3.125,0.75c0,0,0,0.125,0,0.625s-0.75,8-0.625,11.25s2.25,2.25,2.25,2.25l4.25-4.25
		c0,0,0.625,3.625,2.125,4.25s4.875-1,4.875-1l2.875,3.625l6.125-4.25l3,0.5l0.625-5.625c0,0,2.375-1,4.25-0.125
		s5.375,1.875,5.375,1.875s2.625-6.75,3.25-7.875s2.375-9.75,2.375-9.75l-1.75-6.75c0,0-1.375-4.5-2-4.875s-12.75-6.375-12.75-6.375
		s-5.75-4.875-6.375-4.625s-17.125,4.125-17.125,4.125s-6.125,7.75-7.125,8.375s-10.25,8.875-10.25,8.875l1.625,7.25l9,2.75
		L39.035,198.055z"/>
	<path style="fill:#F5B090;" d="M58.66,61.68c0,0-7.5,2.75-9,9.5l-5.5-0.25l-4.625,1.75c0,0-4.5,3-5.125,3.875c0,0,4,2.5,4.25,3.25
		c0,0-4.125,3.875-4.75,5.75s0.375,6.375,0.375,6.375l6.125,5.5l5.25,6.5l6,4c0,0,6.75,2.25,7.375,2.5s5.375,1.625,6.125,1.25
		s5.625-5.625,5.625-5.625l8.25-11.75l2.25-2.875c0,0,2.5-5.25,2.75-7.5s-3.75-7.375-3.75-7.375l-2-0.25L71.41,76.18
		c0,0-0.125-8.375-3.625-12.5S58.66,61.68,58.66,61.68z"/>
	<path style="fill:#F5B090;" d="M77.785,41.68c0,0-10.5-1.375-13.5-7.5l3.625-5.375c0,0-4.125-2-4.75-2.875
		c0,0,1.125-4.875,10.375-6.375c0,0,0.25-5.5,3.125-8.375c0,0,2.375,0.625,4.25,2.5c0,0,1.5-5.125,3-6.5l3.75,0.375
		c0,0,4.25,1.875,5.5,6.75c0,0,5.125-3.25,10.625-2.875c0,0,0.75,3.25,0.875,5l6.625-0.625c0,0,1.5,5.75,0.875,8.25
		s-2.25,9.125-2.25,9.125l-7.75,3.125l-17.5,6.75L77.785,41.68z"/>
	<path style="fill:#E60012;" d="M111.785,23.055c0,0-0.875,4.75-3.125,7l-3.625,0.875c0,0-1.25-5.5-4.25-7.875l-4.5,4.25
		c0,0-2.125-2.5-4.75-2.625c0,0-2.75,3.625-4,8.625c0,0-6.25-0.125-10,1.75c0,0,1.25,2.375,2.75,4.375c0,0-2.5,2.25-4.25,3.625
		c0,0-1.375,4.875,7.375,10.75c0,0-5.375,3.125-4,9.75l5.625-0.5l-0.5,4.375c0,0,7.5,0.875,13.625-5.125c0,0,1.875,2.625,5,4.5
		s5,0.75,5,0.75l1-4.5l2.875-1.375l5-1c0,0,1.5-6.25-2.875-12.5c0,0,6.25-1.125,7-8l-5.5-2.75l1.875-5l-3.875-1.625
		c0,0,0.375-0.375,2.625-1.125s6.5-3.625,7.125-6.125s-0.375-5.25-4.25-5.375S112.41,21.18,111.785,23.055z"/>
	<path style="fill:#E60012;" d="M46.785,54.93c0,0,1.625-3.125,0.5-8.375s-4.25-7.625-8-7s-5.375,4.75-3.875,9.25
		S43.535,56.43,46.785,54.93z"/>
	<path style="fill:#E60012;" d="M17.285,74.805c0,0-4.875-0.875-7.375-4.125s-2.375-7.75-0.25-9.75s6.875-2.625,8.625,0.25
		C20.035,64.055,21.66,72.305,17.285,74.805z"/>
	<path style="fill:#E60012;" d="M57.41,80.68c0,0-3.5,0.625-4,4.375s2.5,5.75,5.125,5.125s4.25-3.875,3.375-6.5
		S59.285,80.43,57.41,80.68z"/>
	<path style="fill:#E60012;" d="M16.035,94.43c0,0-3,0.375-5,2.625s-2.75,2.875-2.75,2.875s-1.125,2,3.75,4.5l-3.875,4.125
		l-0.625,0.625l0.125,2c0,0,1.125,1.75,3.75,3.125s6.125,2.25,6.125,2.25s-0.75,2.5-0.5,5.5s1.625,5.625,1.625,5.625
		s3.875-2.375,4.75-3.875c0,0,3.25,4.375,3.875,5.75c0,0,4.75-2.75,7-4.75s2.625-3.5,2.625-3.5s1.625,1.75,5.375,2.375
		s8.125-0.25,8.125-0.25s-0.75-4-1.625-5.5c0,0,5.375-3.125,5.75-4.25s-0.5-3.875-0.5-3.875s2.75,2,3.375,3.25s3.75,4.625,6.5,6.125
		c0,0-4.125,6.875-4.25,12c0,0,4.625,0.25,6.625-1c0,0,0.375,6.625,0.25,7.125c0,0,7.75,1.5,14.375-2.5c0,0,5,4.25,11.75,4.875
		c0,0,0.75-1.875,1.125-2.75s3-1.375,3-1.375l3.875-3.625l0.75-2.625c0,0,1.625-5.75-1.125-9.125c0,0,9.5-0.875,11-5.125l-5-5.5
		l3.375-5.125c0,0-1.125-2.5-6.5-4s-8.5,0.5-8.5,0.5s-1-6.625-5.25-9.375c0,0-3.375,1.125-5.125,3.375l-3.375-3.625l-0.625-0.375
		c0,0-5.375,2-7.875,7.375c0,0-6-0.875-10.625-0.625c0,0,0.375,4,1.875,9.125c0,0-2.5,2.25-3.625,2.375s-9.25-5-9.25-5
		s3.75-4.25,3.875-8.25c0,0-3.125-1.75-6.5-1.75c0,0,2.625-3.5,2.5-5.75c0,0-5.875-1.625-11.125,2.875L38.91,90.68
		c0,0-3-7.25-8.375-8.25l-3.125,3.875l-3.5-0.625l-2.75-1.5c0,0-1.75,1.5-2.125,1.875S16.16,93.18,16.035,94.43z"/>
	<path style="fill:#E60012;" d="M95.535,214.43c0,0-2.625,3.5-0.5,8.75s7.625,4.625,8.875,4s2.25-4.375-0.125-8.5
		S96.535,213.305,95.535,214.43z"/>
	<path style="fill:#E60012;" d="M7.535,177.43v-3.125c0,0,2.125-7.25,5-9.25c0,0,2.875,1.125,4.125,3.875c0,0,1.625-3.375,4.5-4.25
		c0,0,5.25,0.875,7,6.625c0,0,2.625-2,8.625-0.875l6-2.75c0,0,0.25-7.625,2-10.375s8.5-1.25,8.5-1.25s2.25,1.625,3.5,2.625
		s10,2.375,10,2.375s4.625,0,6,0.625c0,0,0.625,3.25-2.125,5.125c0,0,4.5,0.625,6.375,2.25c0,0,0.5,3.5-0.25,4.625
		c0,0,3.611-1.375,5.875-1.375c1.375,0,1.625,3.625,1.625,3.625l4.875-1c0,0,2.375,4.625,1.25,11c0,0,4.625,1.125,8.5,6.875
		c0,0-2.375,3.125-2.75,3.5s1,2.625,1,2.625l1.875,4.875l-6.875,2.625l-3.875-1.5c0,0-2.5,7.125-3.25,11l-2-0.875l-2.25,0.625
		l-4.375,1.25l-2-1.125c0,0-4.625-3.375-3.625-10.125c0,0,2.5-0.625,3.625,0.125c0,0,1.125-5.75-4-8.25c0,0,3.75-1.375,5.5-3.375
		c1.75-2,3-2.75,3-2.75s-0.625-3-4.5-4.375c0,0,2.875-3.375,3.25-5.125c0,0-3.75-3.75-12.125-1.25c0,0-0.875-3.5-2.875-5.125
		c-2-1.625-3.375-3.375-3.375-3.375s-3.875,2-4.375,4.75l-2.625-3.75c0,0-3.875,2.875-5.25,10.125c0,0-5.875,0-10.125,2.875
		c0,0,0.75,2.125,3.75,4c0,0-5,2-6.25,4.375c0,0,1.375,3,5,3.75c0,0-3.75,4.625-9.375,4.875c0,0,1.25,4.125,0.125,7
		c0,0-7.875-1.125-9.375-5.25c0,0-2.75,2.125-6.25,3c0,0-2.375-2-2.75-6l-4.25,1.375V177.43z"/>
	<path style="fill:#E60012;" d="M56.619,188.555c0,0-3.583,0.167-4,3.833c-0.38,3.35,2.333,4.501,3.833,4.584s4.001-0.666,4.167-4
		C60.785,189.638,57.702,188.472,56.619,188.555z"/>
	<path style="fill:#E60012;" d="M85.91,33.305c0,0-2.375-2.875-1.125-6.5s5.375-5.375,8.125-3.875s3,3.75,3,3.75l-4.125,1.625
		l-3.75,6.75L85.91,33.305z"/>
	<path d="M17.456,6.597c-5.861,0-10.63,4.768-10.63,10.63v203.657c0,5.861,4.769,10.63,10.63,10.63h118.158
		c5.861,0,10.63-4.769,10.63-10.63V17.227c0-5.861-4.769-10.63-10.63-10.63H17.456z M8.244,220.884V17.227
		c0-5.08,4.133-9.213,9.213-9.213h118.158c5.08,0,9.212,4.133,9.212,9.213v203.657c0,5.08-4.132,9.212-9.212,9.212H17.456
		C12.376,230.096,8.244,225.964,8.244,220.884z"/>
	<path d="M80.263,90.15c-0.129,0.054-3.174,1.338-5.011,3.438c0,0-2.683,3.258-3.209,3.896c-1.283-0.372-5.022-1.209-10.612-0.381
		l-0.682,0.102l0.082,0.684c0.03,0.246,0.714,5.743,2.099,8.74c-0.948,0.856-3.789,3.217-6.395,3.217h-0.817l0.115,0.809
		c0.032,0.221,0.879,5.259,7.206,8.87c-0.965,1.511-3.342,5.739-3.959,11.706l-0.085,0.827l0.83-0.046
		c0.165-0.01,3.567-0.208,5.839-0.951c0.094,1.13,0.233,3.086,0.233,4.758c0,0.615-0.019,1.189-0.066,1.665l-0.053,0.526l0.489,0.2
		c0.233,0.095,5.729,2.191,14.613-2.546c1.103,1.105,4.766,4.202,11.841,4.846l0.513,0.046l0.203-0.473
		c0.049-0.113,0.902-2.143,0.902-4.597c0-0.579-0.074-1.183-0.19-1.789c1.329-0.114,4.012-0.397,6.073-0.96l0.213-0.058l0.143-0.17
		c0.119-0.141,2.034-2.48,2.034-6.333c0-1.565-0.353-3.396-1.234-5.416c2.355-0.075,7.845-0.752,10.756-5.326l0.323-0.508
		l-0.448-0.401c-1.663-1.487-4.181-3.854-5.091-4.966c0.528-0.705,3.824-5.099,3.824-5.099l-0.482-0.434
		c-0.104-0.094-2.577-2.312-4.372-3.339c-1.752-1.001-6.273-1.744-10.774-0.497c-0.316-1.659-1.419-5.686-5.091-9.152L89.7,90.736
		l-0.414,0.155c-0.152,0.057-3.328,1.269-5.019,3.226c-0.773-0.999-2.165-2.747-3.231-3.813l-0.335-0.336L80.263,90.15z
		 M72.845,98.74l3.474-4.219c1.24-1.418,3.191-2.449,4.052-2.861c1.43,1.522,3.327,4.043,3.349,4.07l0.655,0.874l0.53-0.955
		c0.89-1.602,3.446-2.82,4.448-3.251c3.935,3.943,4.473,8.676,4.477,8.725l0.087,0.884l0.842-0.279
		c4.502-1.501,9.012-0.615,10.425,0.192c1.217,0.695,2.842,2.049,3.641,2.735c-0.632,0.843-3.642,4.855-3.642,4.855l0.245,0.409
		c0.662,1.104,3.864,4.059,5.139,5.215c-3.373,4.547-10.165,4.218-10.236,4.213l-1.248-0.078l0.573,1.11
		c1.146,2.216,1.534,4.172,1.534,5.805c0,2.98-1.241,4.802-1.574,5.242c-2.638,0.677-6.336,0.918-6.374,0.921l-0.897,0.056
		l0.264,0.859c0.227,0.735,0.312,1.49,0.312,2.21c0,1.526-0.375,2.857-0.606,3.546c-7.416-0.847-10.699-4.627-10.731-4.666
		l-0.376-0.45l-0.514,0.283c-7.181,3.989-12.02,3.208-13.427,2.844c0.022-0.395,0.049-0.776,0.049-1.225
		c0-2.547-0.307-5.656-0.324-5.82l-0.103-1.023l-0.919,0.46c-1.341,0.671-3.981,0.983-5.348,1.107
		c0.894-6.468,3.954-10.76,3.986-10.804l0.49-0.667l-0.734-0.382c-4.983-2.584-6.503-6.056-6.944-7.515
		c3.447-0.508,6.72-3.706,6.869-3.855l0.375-0.375l-0.254-0.465c-1.139-2.089-1.835-6.382-2.071-8.037
		c6.025-0.753,9.664,0.527,9.702,0.54l0.473,0.175L72.845,98.74z"/>
	<path d="M30.153,82.022c-0.111,0.136-2.417,2.969-3.45,5.314c-1.16-0.87-5.834-4.375-5.834-4.375l-0.409,0.595
		c-0.091,0.127-2.25,3.139-3.108,6.225c0,0-0.83,3.202-1.041,4.017c-1.001,0.104-3.175,0.511-5.071,2.136
		c-2.369,2.03-3.722,3.877-3.778,3.954l-0.165,0.227l0.035,0.277c0.014,0.116,0.406,2.613,3.799,4.289
		c-1.079,1.043-4.255,4.114-4.255,4.114l0.985,1.019l5.806-5.613l-1.05-0.394c-2.867-1.074-3.621-2.722-3.811-3.341
		c0.414-0.527,1.571-1.926,3.357-3.457c2.093-1.795,4.682-1.829,4.708-1.83l0.545-0.003l1.302-5.016
		c0.577-2.077,1.841-4.18,2.489-5.176c0.95,0.713,6.224,4.669,6.224,4.669l0.286-0.988c0.499-1.749,2.457-4.368,3.214-5.341
		c5.813,1.906,7.565,8.579,7.582,8.648l0.308,1.248l0.891-0.926c3.117-3.241,8.315-3.609,10.293-3.627
		c-0.636,2.569-2.83,5.326-2.854,5.356l-0.933,1.154h1.484c2.602,0,5.057,0.618,6.158,0.938c-1.526,7.635-5.972,8.949-6.167,9
		l-1.578,0.416l1.376,0.87c3.538,2.229,5.8,5.875,6.495,7.102c-1.996,1.934-5.573,3.817-5.611,3.837l-0.654,0.34l0.366,0.641
		c0.905,1.585,1.41,3.774,1.623,4.88c-1.02,0.132-3.018,0.342-4.966,0.228c-4.966-0.293-6.882-2.921-6.961-3.032l-0.716-1.01
		l-0.512,1.127c-0.006,0.014-0.665,1.454-2.558,3.661c-1.517,1.769-5.118,3.88-6.522,4.667c-1.049-1.755-3.412-5.117-3.526-5.28
		l-0.683-0.971l-0.53,1.062c-0.347,0.694-2.326,2.046-3.926,2.995c-0.34-0.686-0.864-1.972-1.069-3.92
		c-0.039-0.368-0.056-0.734-0.056-1.094c0-2.524,0.835-4.717,0.845-4.742l0.271-0.7l-5.404-1.737
		c-2.138-0.61-5.341-3.636-5.373-3.666l-0.976,1.027c0.142,0.135,3.488,3.295,5.96,4.001c0,0,3.003,0.966,3.969,1.276
		c-0.279,0.905-0.709,2.585-0.709,4.528c0,0.411,0.019,0.831,0.064,1.255c0.349,3.312,1.572,5.091,1.624,5.165l0.368,0.525
		l0.559-0.313c0.594-0.332,3.127-1.795,4.439-3.113c0.924,1.331,2.773,4.031,3.247,4.98l0.325,0.649l0.641-0.341
		c0.223-0.118,5.476-2.925,7.539-5.332c1.163-1.355,1.856-2.398,2.274-3.097c1.052,0.998,3.324,2.608,7.313,2.843
		c2.88,0.17,5.866-0.32,5.992-0.341l0.683-0.114l-0.098-0.686c-0.02-0.136-0.46-3.081-1.594-5.438
		c1.245-0.691,4.123-2.388,5.747-4.146l0.332-0.359l-0.219-0.438c-0.097-0.194-2.276-4.427-6.216-7.368
		c1.787-0.964,4.987-3.558,6.114-10.196l0.1-0.59l-0.565-0.197c-0.123-0.043-2.715-0.939-5.877-1.158
		c0.906-1.32,2.276-3.615,2.514-5.762l0.082-0.736l-0.739-0.049c-0.3-0.021-6.955-0.381-11.367,3.304
		c-0.779-2.204-3.116-7.256-8.66-8.78l-0.444-0.122L30.153,82.022z"/>
	<path d="M58.768,61.103c-0.104,0.015-2.602,0.407-6.389,4.023c-2.581,2.464-3.435,5.413-3.726,7.164
		c-1.81-1.413-4.265-1.846-6.957-1.173c-3.483,0.871-7.653,5.011-7.829,5.187l-0.76,0.76l0.998,0.399
		c0.444,0.178,2.283,1.461,3.788,2.555c-2.997,2.595-3.812,4.433-3.846,4.515l1.307,0.55c0.008-0.019,0.849-1.906,4.127-4.56
		l0.712-0.576l-0.736-0.545c-0.505-0.373-2.582-1.898-3.907-2.735c1.282-1.169,4.148-3.588,6.491-4.174
		c2.768-0.692,5.116-0.067,6.613,1.762l1.249,1.526l0.008-1.974c0-0.044,0.058-4.419,3.448-7.655
		c2.687-2.564,4.595-3.341,5.302-3.56c0.689,0.703,2.667,3.034,2.667,6.713v1.523c0,0,5.722-4.819,6.823-5.746
		c0.79,1.595,2.534,5.63,2.534,10.286c0,0.298-0.007,0.599-0.022,0.901l-0.036,0.717c0,0,7.074,0.267,8.586,0.323
		c-0.569,1.559-1.617,4.039-2.649,4.969l-1.105,0.994l1.469,0.232c0.03,0.005,3.111,0.494,4.361,0.964
		c0.65,0.244,1.23,0.316,1.695,0.319c-0.405,1.891-1.253,5.051-2.304,6.207l1.049,0.953c1.754-1.93,2.733-7.253,2.84-7.853
		l0.201-1.143l-1.116,0.345c-0.032,0.01-0.81,0.241-1.867-0.155c-0.854-0.32-2.364-0.631-3.431-0.827
		c1.396-2.015,2.47-5.294,2.523-5.459l0.286-0.89c0,0-7.873-0.298-9.069-0.343c0.001-0.091,0.007-0.184,0.007-0.274
		c0-6.353-2.988-11.51-3.122-11.736l-0.425-0.724c0,0-4.466,3.761-5.922,4.987c-0.528-4.188-3.182-6.507-3.307-6.613l-0.243-0.204
		L58.768,61.103z"/>
	<path d="M100.367,22.138c0,0-3.219,3.574-4.021,4.466c-2.575-2.613-4.779-2.986-4.878-3l-0.448-0.064l-0.246,0.38
		c-1.85,2.845-3.185,7.193-3.607,8.67c-5.65-0.037-9.902,1.82-10.087,1.902l-0.604,0.268l0.226,0.621
		c0.499,1.374,1.95,3.089,2.819,4.04c-2.731,1.401-4.305,3.355-4.377,3.447l-0.186,0.236L75,43.4
		c0.827,6.063,5.512,9.444,7.572,10.664c-3.469,2.704-4.229,5.599-4.229,7.547c0,1.377,0.361,2.278,0.371,2.301l0.246,0.588
		l0.611-0.183c1.114-0.335,3.398-0.514,4.639-0.591c-0.163,1.142-0.648,4.54-0.648,4.54l0.731,0.076
		c8.131,0.856,12.349-3.462,13.677-5.154c0.846,0.768,3.096,2.814,3.096,2.814c3.024,2.669,7.185,2.356,7.36,2.342l0.591-0.049
		l0.388-4.069c0,0,0.298-2.181,0.414-3.035c2.116,0.053,6.79,0.318,6.843,0.321l0.501,0.028l0.193-0.464
		c0.026-0.063,0.478-1.184,0.478-3.462c0-0.901-0.07-1.982-0.266-3.252c-0.444-2.89-1.458-4.729-2.158-5.709
		c0.805-0.312,1.951-0.877,3.25-1.975c2.328-1.971,3.201-6.223,3.237-6.402l0.146-0.734l-0.741-0.106
		c-0.671-0.096-3.21-1.297-5.057-2.229c0.789-1.286,1.884-3.612,2.266-4.44l0.229-0.498l-0.424-0.348
		c-0.082-0.066-2.043-1.637-6.365-2.155c-3.125-0.375-5.461,0.139-6.587,0.471c-1.154-4.556-3.828-7.901-3.948-8.049l-0.523-0.639
		L100.367,22.138z M96.898,28.108c0,0,3.063-3.405,3.916-4.352c0.869,1.242,2.65,4.095,3.359,7.525l0.173,0.833l0.79-0.321
		c0.026-0.011,2.734-1.088,6.647-0.619c2.791,0.335,4.444,1.13,5.176,1.558c-0.904,1.92-1.93,3.908-2.259,4.238l-0.686,0.685
		l0.861,0.445c0.7,0.362,3.804,1.948,5.477,2.528c-0.314,1.179-1.132,3.719-2.609,4.969c-1.975,1.67-3.655,2.008-3.672,2.011
		l-1.365,0.262l1.014,0.954c0.018,0.018,1.832,1.76,2.447,5.755c0.184,1.195,0.248,2.203,0.248,3.031
		c0,1.217-0.136,1.999-0.243,2.455c-1.485-0.082-5.582-0.303-6.971-0.303h-0.618l-0.585,4.288c0,0-0.192,2.017-0.275,2.883
		c-1.13-0.018-3.744-0.25-5.72-1.993l-4.265-3.875l-0.474,0.7c-0.151,0.242-3.717,5.749-12.087,5.208
		c0.153-1.07,0.679-4.746,0.679-4.746l-0.852,0.036c-0.147,0.006-3.23,0.14-5.145,0.528c-0.066-0.306-0.13-0.71-0.13-1.208
		c0-1.732,0.735-4.462,4.533-7.025l1.036-0.699l-1.133-0.53c-0.067-0.031-6.604-3.192-7.692-9.834
		c0.537-0.597,2.121-2.201,4.502-3.204l0.971-0.408l-0.745-0.745c-0.615-0.616-2.112-2.286-2.843-3.625
		c1.455-0.526,5.031-1.622,9.321-1.499l0.562,0.016l0.144-0.543c0.015-0.054,1.38-5.113,3.319-8.352
		c0.742,0.247,2.346,0.966,4.133,2.976l0.526,0.592L96.898,28.108z"/>
	<path d="M80.251,12.368c-1.123-0.9-2.803-1.805-3.219-2.023l-0.51-0.269l-0.366,0.444c-2.67,3.232-3.093,6.963-3.154,8.382
		c-7.609,1.374-10.621,6.33-10.747,6.547l-0.316,0.545l0.504,0.378c1.037,0.777,3.355,2.094,4.467,2.713
		c-0.781,1.437-2.655,3.842-3.421,4.769l-0.337,0.408l0.296,0.439c4.643,6.879,13.505,7.456,13.88,7.478l0.081-1.415
		c-0.083-0.005-8.128-0.581-12.458-6.464c0.857-1.065,3.006-3.807,3.575-5.232l0.234-0.584l-0.552-0.302
		c-0.032-0.018-2.803-1.531-4.347-2.55c0.963-1.269,3.979-4.572,9.945-5.461l0.624-0.093l-0.02-0.632
		c0-0.003-0.001-0.029-0.001-0.077c0-0.577,0.125-4.264,2.499-7.472c1.209,0.676,2.697,1.624,3.037,2.133l0.793,1.19l0.467-1.352
		c0.616-1.785,1.994-4.897,3.069-5.65l-0.812-1.161C82.11,8.004,80.866,10.805,80.251,12.368z"/>
	<path d="M87.237,8.448c0.04,0.019,4.047,1.927,5.112,6.034l0.245,0.946l0.823-0.527c0.043-0.028,4.298-2.676,10.03-2.854
		c0.186,1.075,0.545,3.335,0.545,4.758v0.797l0.792-0.093c0.803-0.095,4.275-0.521,6.044-0.965c0.146,0.774,0.347,2.104,0.347,3.784
		c0,2.884-0.607,6.612-3.171,9.507l1.061,0.939c5.357-6.048,3.087-14.941,2.988-15.317l-0.223-0.842l-0.78,0.39
		c-0.549,0.274-3.419,0.718-5.667,1.002c-0.123-2.033-0.628-4.707-0.652-4.835l-0.11-0.575h-0.586c-5.08,0-9.043,1.825-10.622,2.678
		c-1.516-4.148-5.403-6.031-5.581-6.113L87.237,8.448z"/>
	<path d="M117.882,17.779c-4.804,1.067-6.594,5.242-6.668,5.42l1.308,0.547c0.016-0.037,1.599-3.679,5.667-4.583
		c1.623-0.36,2.835-0.188,3.603,0.517c0.726,0.666,1.053,1.861,0.875,3.198c-0.276,2.073-4.931,6.569-9.678,6.887l0.094,1.414
		c5.324-0.356,10.615-5.309,10.988-8.113c0.243-1.822-0.238-3.437-1.321-4.43C121.974,17.924,120.499,17.198,117.882,17.779z"/>
	<path d="M38.349,38.955c-1.659,0.452-2.955,1.697-3.649,3.506c-1.008,2.625-0.534,5.97,1.24,8.728
		c3.191,4.963,10.185,4.512,10.481,4.489l0.073-0.005l0.07-0.021c1.912-0.546,2.442-5.213,1.158-10.191
		c-0.716-2.774-2.089-4.818-3.969-5.91C42.165,38.629,40.297,38.424,38.349,38.955z M37.131,50.422
		c-1.534-2.385-1.958-5.241-1.109-7.453c0.528-1.376,1.487-2.316,2.699-2.646c1.574-0.43,3.067-0.272,4.318,0.454
		c1.545,0.896,2.689,2.64,3.309,5.039c0.49,1.899,0.664,3.513,0.664,4.806c0,2.215-0.51,3.479-0.827,3.649
		C45.272,54.304,39.649,54.339,37.131,50.422z"/>
	<path d="M45.955,55.547c0.063,0.045,6.316,4.58,7.566,8.953l1.362-0.39c-1.385-4.848-7.827-9.519-8.101-9.715L45.955,55.547z"/>
	<path d="M12.988,58.432c-1.571,0.104-3.306,1.224-4.42,2.85c-1.366,1.994-1.676,4.505-0.875,7.068
		c1.774,5.676,9.07,7.095,9.38,7.152l0.283,0.053l0.24-0.16c0.157-0.104,3.841-2.64,3.313-9.146
		C20.411,60.121,16.331,58.208,12.988,58.432z M9.045,67.927c-0.269-0.859-0.378-1.641-0.378-2.344c0-1.542,0.528-2.709,1.07-3.5
		c0.998-1.458,2.4-2.175,3.346-2.237c0.977-0.065,5.88-0.059,6.413,6.517c0.032,0.396,0.047,0.773,0.047,1.136
		c0,4.063-1.874,5.995-2.517,6.542C15.697,73.72,10.377,72.189,9.045,67.927z"/>
	
		<rect x="12.892" y="79.513" transform="matrix(-0.2248 -0.9744 0.9744 -0.2248 -55.5671 116.2385)" width="11.119" height="1.417"/>
	<path d="M59.02,171.52c-0.142,0.081-2.989,1.729-4.298,4.118c-0.649-0.957-1.597-2.307-2.32-3.134l-0.521-0.596l-0.535,0.584
		c-0.15,0.163-3.548,3.975-4.706,10.053c-1.586-0.104-5.898-0.037-10.511,3.178l-0.516,0.359l0.296,0.555
		c0.05,0.095,1.107,2.023,3.295,3.569c-1.687,0.81-4.571,2.376-5.607,4.06l-0.156,0.254l0.072,0.289
		c0.038,0.15,1.036,3.542,8.187,4.572c-0.256,1.407-0.769,4.752-0.769,8.967c0,0.803,0.019,1.636,0.062,2.491l0.038,0.755
		l0.751-0.086c0.161-0.019,3.45-0.426,5.845-2.121c0.219,1.296,0.793,3.175,2.315,4.316c0.382,0.287,0.988,0.312,1.853,0.077
		c1.448-0.395,4.045-1.832,5.561-4.539c0.917,0.78,2.716,2.059,5.068,2.43l5.358,0.956l0.122-0.735
		c0.018-0.142,0.373-3.005,0.373-4.921c0-0.077-0.007-0.134-0.009-0.208c2.173-0.293,5.068-0.515,5.783-0.158l0.829,0.414
		l0.183-0.909c0.003-0.018,0.11-0.587,0.11-1.448c0-1.79-0.466-4.845-3.287-6.859c1.315-0.521,3.207-1.448,4.501-2.851l3.285-3.468
		l-0.143-0.429c-0.041-0.11-1.003-2.509-4.172-4.271c1-1.088,2.767-3.183,3.04-4.686l0.076-0.418l-0.333-0.265
		c-0.203-0.16-4.914-3.694-12.363-1.182c-0.229-1.15-0.874-3.27-2.728-5.247l-3.563-3.752L59.02,171.52z M55.558,177.3
		c0.461-1.959,2.721-3.616,3.695-4.254c0.596,0.627,2.764,2.91,2.764,2.91c2.279,2.432,2.475,5.195,2.476,5.223l0.06,0.971
		l0.906-0.352c6.019-2.355,10.109-0.347,11.379,0.443c-0.466,1.236-2.083,3.174-3.138,4.23l-0.723,0.723l0.93,0.424
		c2.559,1.163,3.703,2.83,4.106,3.559c-0.551,0.581-2.667,2.815-2.667,2.815c-1.835,1.987-5.298,2.953-5.333,2.963l-1.856,0.509
		l1.742,0.816c3.356,1.573,3.874,4.584,3.874,6.294c0,0.212-0.016,0.354-0.027,0.521c-1.979-0.276-5.515,0.222-6.318,0.344
		l-0.666,0.101l0.067,0.67c0.022,0.219,0.031,0.482,0.031,0.774c0,1.253-0.171,3.011-0.278,3.992
		c-1.079-0.192-3.938-0.703-3.938-0.703c-2.874-0.453-4.905-2.596-4.925-2.617l-0.75-0.801l-0.423,1.012
		c-1.451,3.482-5.091,4.723-5.805,4.655c-1.808-1.421-1.832-4.503-1.832-4.546l0.004-1.811l-1.232,1.325
		c-1.442,1.554-4.014,2.229-5.293,2.481c-0.017-0.53-0.039-1.065-0.039-1.574c0-5.352,0.866-9.394,0.876-9.439l0.168-0.768
		l-0.782-0.087c-5.588-0.621-7.183-2.641-7.587-3.367c1.22-1.546,4.647-3.229,5.949-3.775l1.381-0.579l-1.323-0.7
		c-1.824-0.966-2.955-2.362-3.492-3.134c4.948-3.147,9.502-2.548,9.549-2.54l0.699,0.109l0.112-0.699
		c0.732-4.634,2.957-7.987,3.97-9.318c1.08,1.389,2.387,3.402,2.403,3.426l0.903,1.396L55.558,177.3z"/>
	<path d="M20.909,164.159c-1.415,0.644-3.271,2.623-4.251,3.742c-1.354-2.03-3.814-3.474-3.934-3.543l-0.504-0.292l-0.384,0.439
		c-3.599,4.113-4.627,11.396-4.669,11.704l1.404,0.191c0.009-0.068,0.96-6.6,3.975-10.475c0.896,0.604,2.677,1.947,3.338,3.491
		l0.463,1.08l0.739-0.913c0.731-0.903,2.85-3.282,4.237-4.019c1.009,0.282,4.612,1.578,6.213,5.981l0.284,0.779l0.727-0.402
		c0.201-0.111,4.903-2.587,11.819,0.78c-0.241,0.8-0.908,2.508-2.706,4.645l-0.497,0.59l0.63,0.445
		c0.027,0.02,2.778,1.981,5.175,5.179l1.134-0.85c-1.893-2.524-3.948-4.286-4.921-5.055c2.297-2.961,2.708-5.156,2.722-5.253
		l0.071-0.497l-0.445-0.231c-6.471-3.376-11.29-1.99-12.982-1.297c-2.262-5.171-6.996-6.228-7.206-6.271l-0.224-0.044
		L20.909,164.159z"/>
	<path d="M29.658,202.431l-0.919,0.058l0.29,0.873c0.558,1.674,0.725,3.104,0.725,4.217c0,0.927-0.113,1.605-0.216,2.052
		c-6.659-1.344-7.943-4.884-7.994-5.039l-0.344-1.054l-0.814,0.748c-1.727,1.604-4.671,2.641-5.843,3.009
		c-1.011-1.888-1.982-5.31-1.992-5.348l-0.196-0.7l-5.028,1.548l0.417,1.355c0,0,2.677-0.824,3.648-1.123
		c0.39,1.284,1.284,4.032,2.212,5.492l0.279,0.439l0.502-0.135c0.167-0.045,3.752-1.038,6.235-2.911
		c0.852,1.447,3.23,4.228,9.295,5.259l0.558,0.096l0.216-0.524c0.031-0.076,0.486-1.217,0.486-3.155
		c0-1.047-0.194-2.372-0.598-3.842c1.735-0.257,5.941-1.196,9.604-4.586l-0.963-1.041C34.972,202.051,29.71,202.427,29.658,202.431z
		"/>
	<path d="M51.662,155.77c-0.075,0.424-1.197,2.033-2.316,3.458c-2.591-1.462-4.648-2.225-4.74-2.257l-0.667-0.238l-0.238,0.667
		c-1.406,3.938-1.543,8.254-1.546,9.73c-2.785,0.929-6.003,2.812-6.147,2.897l0.721,1.221c0.036-0.021,3.626-2.133,6.339-2.931
		l0.525-0.154l-0.017-0.547c-0.001-0.009-0.004-0.136-0.004-0.361c0-1.183,0.107-5.062,1.242-8.676
		c0.867,0.354,2.479,1.062,4.36,2.169l0.526,0.31l0.384-0.474c0.98-1.212,2.076-2.673,2.627-3.74
		c1.187,0.817,3.693,2.963,4.978,7.168l0.269,0.88l0.783-0.485c0.07-0.043,6.952-4.197,13.554-2.067
		c-0.07,0.852-0.429,2.707-2.336,4.054l-1.438,1.016l1.741,0.264c1.899,0.289,5.077,0.974,6.217,1.669
		c-0.074,1.438-0.583,6.871-4.091,10.11l0.961,1.041c4.51-4.162,4.562-11.222,4.562-11.52v-0.321l-0.242-0.212
		c-1.034-0.905-3.948-1.572-5.751-1.915c1.687-1.854,1.827-4.032,1.827-4.613c0-0.078-0.002-0.128-0.003-0.143l-0.024-0.465
		l-0.436-0.162c-6.192-2.305-12.457,0.531-14.543,1.645c-2.013-5.565-5.891-7.536-6.063-7.619l-0.841-0.404L51.662,155.77z"/>
	<path d="M75.548,174.29l0.974,1.03c0.028-0.027,2.77-2.552,6.047-2.337c0.447,0.962,0.941,2.268,0.941,2.919
		c0,0.049-0.003,0.094-0.009,0.135l-0.146,1.019c0,0,4.776-1.079,5.613-1.269c0.374,0.887,1.1,2.989,1.1,5.987
		c0,1.168-0.11,2.472-0.395,3.892l-0.115,0.577l0.547,0.22c0.055,0.021,5.313,2.2,7.756,6.5c-0.492,0.732-1.671,2.388-2.719,3.085
		l-0.475,0.317c0,0,1.589,4.047,1.87,4.763c-0.832,0.78-3.616,3.007-8.521,3.136l-0.471,0.012l-0.171,0.439
		c-0.049,0.125-1.195,3.087-1.702,5.618c0,0-0.703,3.418-0.972,4.723c-1.808-0.994-4.177-2.462-4.743-3.312l-0.452-0.677
		c0,0-3.98,3.538-4.676,4.156c-1.001-0.801-3.514-3.24-3.514-7.693c0-0.47,0.028-0.961,0.089-1.475l-1.407-0.168
		c-0.877,7.359,4.271,10.71,4.491,10.849l0.451,0.285c0,0,3.535-3.143,4.366-3.881c1.577,1.536,5.12,3.394,5.57,3.627l0.831,0.43
		l1.355-6.587c0.378-1.893,1.156-4.096,1.479-4.975c6.222-0.339,9.236-3.721,9.363-3.869l0.277-0.323c0,0-1.487-3.786-1.796-4.572
		c1.456-1.215,2.851-3.419,2.915-3.523l0.215-0.343l-0.185-0.358c-2.192-4.238-6.69-6.582-8.185-7.27
		c0.228-1.312,0.344-2.544,0.344-3.645c0-4.355-1.427-6.967-1.505-7.106l-0.258-0.461c0,0-3.764,0.85-4.901,1.106
		c-0.225-1.311-0.969-2.904-1.158-3.283L83.5,171.65l-0.373-0.049C79.007,171.064,75.688,174.158,75.548,174.29z"/>
	<path d="M95.928,213.367c-0.925,0.08-1.26,0.552-1.377,0.825l-0.005,0.012c-0.079,0.195-1.922,4.825,0.004,9.377
		c1.133,2.68,2.888,3.853,4.161,4.365c1.57,0.633,3.31,0.636,4.771,0.01c0.987-0.423,1.727-1.303,2.082-2.477
		c0.64-2.111,0.041-4.875-1.602-7.395C101.811,214.785,97.846,213.201,95.928,213.367z M102.774,218.858
		c1.396,2.141,1.944,4.52,1.433,6.21c-0.164,0.543-0.521,1.258-1.284,1.585c-1.101,0.472-2.478,0.464-3.683-0.021
		c-1.468-0.591-2.639-1.837-3.386-3.604c-0.565-1.337-0.754-2.703-0.754-3.93c0-2.28,0.631-4.018,0.726-4.268
		C96.523,214.471,100.604,215.53,102.774,218.858z"/>
	<path d="M88.055,205.426c2.035,4.579,6.955,9.202,7.164,9.396l0.967-1.035c-0.049-0.046-4.919-4.624-6.836-8.938L88.055,205.426z"
		/>
	<path d="M92.125,37.293c-0.282,0.134-0.403,0.472-0.27,0.755l1.5,3.166c0.135,0.283,0.473,0.404,0.756,0.27
		c0.282-0.134,0.403-0.472,0.27-0.755l-1.5-3.166C92.746,37.279,92.408,37.158,92.125,37.293z"/>
	<path d="M89.028,41.052c-0.141,0.279-0.027,0.62,0.253,0.76l3,1.5c0.28,0.141,0.621,0.027,0.761-0.253
		c0.141-0.28,0.027-0.621-0.253-0.761l-3-1.5C89.509,40.658,89.168,40.771,89.028,41.052z"/>
	<path d="M89.035,44.571c-0.314,0-0.567,0.254-0.567,0.567c0,0.312,0.254,0.566,0.567,0.566h3c0.313,0,0.567-0.254,0.567-0.566
		c0-0.314-0.254-0.567-0.567-0.567H89.035z"/>
	<path d="M92.533,47.098l-2.667,0.833c-0.299,0.093-0.466,0.411-0.372,0.71c0.093,0.299,0.411,0.465,0.71,0.372l2.667-0.833
		c0.299-0.094,0.466-0.411,0.372-0.71C93.15,47.171,92.832,47.004,92.533,47.098z"/>
	<path d="M94.085,48.794l-2.167,2.833c-0.19,0.249-0.143,0.604,0.105,0.795c0.249,0.19,0.604,0.143,0.795-0.106l2.167-2.833
		c0.19-0.248,0.143-0.604-0.105-0.794C94.631,48.498,94.275,48.545,94.085,48.794z"/>
	<path d="M95.802,49.941l-0.166,3.167c-0.017,0.313,0.224,0.58,0.537,0.596c0.312,0.017,0.579-0.224,0.596-0.536l0.166-3.167
		c0.017-0.312-0.224-0.579-0.537-0.596C96.085,49.389,95.818,49.629,95.802,49.941z"/>
	<path d="M97.632,49.576c-0.311,0.038-0.531,0.322-0.492,0.633l0.333,2.666c0.039,0.31,0.322,0.531,0.633,0.492
		c0.311-0.038,0.531-0.322,0.492-0.633l-0.333-2.666C98.225,49.758,97.942,49.537,97.632,49.576z"/>
	<path d="M98.638,49.12c-0.286,0.128-0.415,0.463-0.287,0.749l1.334,3c0.127,0.286,0.462,0.414,0.748,0.287
		c0.286-0.127,0.415-0.462,0.287-0.748l-1.334-3C99.259,49.122,98.924,48.993,98.638,49.12z"/>
	<path d="M100.223,49.336c-0.167,0.265-0.088,0.615,0.177,0.782l3.166,2c0.265,0.167,0.615,0.088,0.782-0.177
		c0.167-0.265,0.088-0.615-0.177-0.782l-3.166-2C100.74,48.992,100.39,49.071,100.223,49.336z"/>
	<path d="M101.156,47.653c-0.084,0.302,0.093,0.614,0.395,0.698l3,0.833c0.301,0.084,0.613-0.093,0.697-0.395
		c0.084-0.302-0.093-0.614-0.395-0.698l-3-0.833C101.552,47.175,101.239,47.352,101.156,47.653z"/>
	<path d="M102.314,45.182c-0.067,0.306,0.125,0.608,0.431,0.677l3,0.666c0.306,0.068,0.608-0.124,0.677-0.43
		c0.067-0.306-0.125-0.608-0.431-0.677l-3-0.666C102.686,44.684,102.383,44.876,102.314,45.182z"/>
	<path d="M103.202,42.904c-0.314,0-0.567,0.254-0.567,0.567c0,0.312,0.254,0.566,0.567,0.566h3.333c0.313,0,0.567-0.254,0.567-0.566
		c0-0.314-0.254-0.567-0.567-0.567H103.202z"/>
	<path d="M104.254,40.146l-2.333,1.333c-0.271,0.155-0.366,0.501-0.211,0.773c0.155,0.271,0.502,0.366,0.773,0.211l2.333-1.333
		c0.271-0.155,0.366-0.502,0.211-0.773C104.872,40.085,104.525,39.991,104.254,40.146z"/>
	<path d="M102.762,37.114l-2.167,2.667c-0.197,0.242-0.16,0.6,0.083,0.797s0.6,0.161,0.798-0.082l2.167-2.667
		c0.197-0.243,0.16-0.601-0.083-0.798C103.316,36.834,102.96,36.871,102.762,37.114z"/>
	<path d="M98.318,36.334l-0.666,2.667c-0.076,0.304,0.108,0.611,0.412,0.688c0.304,0.076,0.612-0.109,0.688-0.413l0.666-2.667
		c0.076-0.304-0.108-0.611-0.412-0.688C98.702,35.846,98.394,36.03,98.318,36.334z"/>
	<path d="M94.959,35.743c-0.311,0.042-0.528,0.328-0.485,0.639l0.5,3.666c0.042,0.311,0.328,0.527,0.638,0.485
		c0.311-0.042,0.527-0.328,0.485-0.639l-0.5-3.666C95.555,35.918,95.269,35.701,94.959,35.743z"/>
	<path d="M78.471,29.918c-0.029,0.312,0.199,0.588,0.511,0.618l3.5,0.333c0.312,0.03,0.589-0.199,0.618-0.511
		c0.029-0.311-0.199-0.588-0.511-0.618l-3.5-0.333C78.777,29.377,78.5,29.605,78.471,29.918z"/>
	<path d="M78.657,27.482c-0.086,0.302,0.088,0.615,0.39,0.701l3.5,1c0.301,0.086,0.614-0.088,0.7-0.39
		c0.086-0.301-0.088-0.614-0.39-0.7l-3.5-1C79.057,27.007,78.743,27.182,78.657,27.482z"/>
	<path d="M80.017,24.074c-0.128,0.286,0.001,0.622,0.287,0.749l3,1.333c0.286,0.127,0.622-0.002,0.748-0.287
		c0.128-0.286-0.001-0.622-0.287-0.749l-3-1.333C80.479,23.659,80.144,23.789,80.017,24.074z"/>
	<path d="M83.017,20.359c-0.246,0.193-0.289,0.55-0.095,0.796l1.834,2.333c0.193,0.247,0.55,0.289,0.796,0.096
		c0.246-0.193,0.289-0.55,0.095-0.796l-1.834-2.334C83.62,20.208,83.264,20.166,83.017,20.359z"/>
	<path d="M86.338,17.572c-0.312,0.017-0.553,0.283-0.536,0.596l0.167,3.167c0.017,0.312,0.283,0.553,0.597,0.536
		c0.312-0.017,0.553-0.283,0.536-0.596l-0.167-3.167C86.918,17.796,86.651,17.556,86.338,17.572z"/>
	<path d="M89.641,18.063l-0.334,2.5c-0.042,0.31,0.176,0.596,0.486,0.637c0.311,0.042,0.596-0.177,0.637-0.486l0.334-2.5
		c0.042-0.311-0.176-0.596-0.486-0.638C89.967,17.535,89.682,17.753,89.641,18.063z"/>
	<path d="M93.406,18.476l-1.666,2.333c-0.182,0.255-0.122,0.609,0.133,0.791c0.255,0.182,0.608,0.123,0.79-0.132l1.666-2.333
		c0.183-0.255,0.123-0.609-0.132-0.791C93.942,18.161,93.589,18.221,93.406,18.476z"/>
	<path d="M96.238,19.822l-2.167,1.333c-0.267,0.164-0.35,0.514-0.186,0.78s0.513,0.35,0.779,0.186l2.167-1.333
		c0.267-0.164,0.35-0.514,0.185-0.78C96.854,19.741,96.505,19.658,96.238,19.822z"/>
	<path d="M99.34,22.405l-3.333,0.167c-0.312,0.016-0.554,0.282-0.538,0.595c0.016,0.312,0.282,0.554,0.595,0.538l3.333-0.167
		c0.312-0.017,0.554-0.282,0.538-0.595C99.919,22.63,99.652,22.39,99.34,22.405z"/>
	<path d="M27.705,93.929c-0.3,0.09-0.47,0.405-0.38,0.706l1,3.333c0.09,0.3,0.406,0.47,0.706,0.38c0.3-0.09,0.47-0.405,0.38-0.706
		l-1-3.333C28.322,94.009,28.006,93.839,27.705,93.929z"/>
	<path d="M23.554,97.171c-0.166,0.266-0.084,0.615,0.18,0.781l2.667,1.667c0.265,0.166,0.615,0.085,0.781-0.181
		c0.166-0.265,0.084-0.614-0.181-0.781l-2.667-1.667C24.07,96.825,23.721,96.906,23.554,97.171z"/>
	<path d="M22.206,99.863c-0.152,0.273-0.053,0.619,0.22,0.771l3,1.667c0.274,0.151,0.62,0.053,0.771-0.221
		c0.152-0.274,0.053-0.619-0.22-0.771l-3-1.667C22.703,99.491,22.357,99.59,22.206,99.863z"/>
	<path d="M24.172,103.405l-3.167,0.167c-0.313,0.017-0.553,0.283-0.536,0.596c0.016,0.312,0.283,0.553,0.596,0.536l3.167-0.167
		c0.312-0.016,0.553-0.283,0.536-0.596C24.751,103.629,24.484,103.389,24.172,103.405z"/>
	<path d="M24.282,106.131l-3,1.5c-0.28,0.141-0.394,0.481-0.253,0.761c0.14,0.28,0.48,0.394,0.76,0.254l3-1.5
		c0.28-0.14,0.394-0.48,0.253-0.761C24.902,106.104,24.561,105.991,24.282,106.131z"/>
	<path d="M26.327,108.046l-2.833,2.5c-0.235,0.208-0.257,0.565-0.05,0.801c0.207,0.234,0.565,0.257,0.8,0.05l2.833-2.5
		c0.235-0.207,0.257-0.566,0.05-0.8C26.919,107.861,26.561,107.839,26.327,108.046z"/>
	<path d="M28.155,109.655l-1,3.667c-0.083,0.302,0.096,0.613,0.397,0.696c0.302,0.082,0.614-0.096,0.696-0.398l1-3.666
		c0.083-0.302-0.096-0.613-0.398-0.696C28.549,109.176,28.237,109.354,28.155,109.655z"/>
	<path d="M30.798,110.076c-0.311,0.038-0.531,0.322-0.492,0.633l0.5,4c0.039,0.311,0.322,0.531,0.633,0.492
		c0.311-0.039,0.531-0.322,0.492-0.633l-0.5-4C31.392,110.258,31.109,110.037,30.798,110.076z"/>
	<path d="M33.727,110.662c-0.263,0.171-0.338,0.521-0.168,0.784l1.833,2.833c0.17,0.263,0.521,0.338,0.784,0.168
		c0.263-0.17,0.338-0.521,0.168-0.784l-1.833-2.833C34.341,110.567,33.99,110.492,33.727,110.662z"/>
	<path d="M35.225,108.498c-0.169,0.264-0.093,0.614,0.17,0.784l2.333,1.5c0.264,0.169,0.614,0.093,0.784-0.171
		c0.169-0.264,0.093-0.614-0.171-0.783l-2.333-1.5C35.745,108.159,35.394,108.234,35.225,108.498z"/>
	<path d="M36.975,105.717c-0.049,0.309,0.163,0.6,0.472,0.648l3.167,0.5c0.309,0.049,0.6-0.163,0.649-0.472
		c0.049-0.309-0.162-0.6-0.472-0.648l-3.166-0.5C37.314,105.196,37.024,105.407,36.975,105.717z"/>
	<path d="M40.299,100.956l-4,1.834c-0.285,0.13-0.41,0.467-0.279,0.751c0.131,0.285,0.467,0.41,0.752,0.279l4-1.834
		c0.285-0.13,0.41-0.467,0.279-0.751C40.92,100.95,40.583,100.825,40.299,100.956z"/>
	<path d="M38.903,97.656l-3.5,2.167c-0.266,0.164-0.349,0.514-0.184,0.78c0.164,0.266,0.514,0.349,0.78,0.184l3.5-2.167
		c0.266-0.164,0.349-0.514,0.183-0.78C39.519,97.574,39.169,97.491,38.903,97.656z"/>
	<path d="M36.279,94.761l-2.833,3.166c-0.209,0.233-0.189,0.592,0.045,0.801c0.233,0.209,0.592,0.188,0.8-0.045l2.833-3.166
		c0.209-0.233,0.189-0.592-0.045-0.801C36.846,94.507,36.488,94.527,36.279,94.761z"/>
	<path d="M31.47,93.093l-0.333,4.167c-0.025,0.312,0.208,0.585,0.519,0.61c0.312,0.024,0.586-0.208,0.61-0.519l0.333-4.167
		c0.025-0.312-0.208-0.585-0.52-0.61C31.768,92.548,31.495,92.781,31.47,93.093z"/>
	<path d="M48.175,82.928c-0.116,0.291,0.025,0.621,0.316,0.737l3.333,1.333c0.291,0.116,0.621-0.025,0.737-0.316
		c0.116-0.29-0.025-0.62-0.316-0.736l-3.333-1.333C48.621,82.496,48.292,82.637,48.175,82.928z"/>
	<path d="M51.2,78.515c-0.253,0.185-0.307,0.54-0.122,0.792l1.833,2.5c0.185,0.253,0.54,0.307,0.793,0.122
		c0.252-0.186,0.307-0.54,0.121-0.793l-1.833-2.5C51.807,78.384,51.452,78.329,51.2,78.515z"/>
	<path d="M54.763,75.914c-0.308,0.058-0.51,0.355-0.451,0.663l0.667,3.5c0.059,0.308,0.355,0.51,0.663,0.451
		c0.308-0.059,0.509-0.355,0.451-0.663l-0.667-3.5C55.367,76.058,55.07,75.855,54.763,75.914z"/>
	<path d="M57.971,76.079l-0.334,3.166c-0.033,0.312,0.193,0.591,0.504,0.624c0.312,0.032,0.59-0.193,0.624-0.505l0.334-3.166
		c0.033-0.311-0.193-0.591-0.504-0.624C58.283,75.542,58.004,75.768,57.971,76.079z"/>
	<path d="M63.168,76.539l-3.333,2.834c-0.239,0.203-0.268,0.561-0.065,0.799c0.203,0.239,0.561,0.268,0.799,0.065l3.333-2.834
		c0.238-0.203,0.268-0.561,0.065-0.799C63.764,76.365,63.407,76.337,63.168,76.539z"/>
	<path d="M66.288,81.41l-3.5,0.5c-0.31,0.044-0.525,0.331-0.481,0.642c0.044,0.31,0.331,0.525,0.641,0.48l3.5-0.5
		c0.31-0.044,0.525-0.331,0.481-0.641C66.886,81.581,66.599,81.366,66.288,81.41z"/>
	<path d="M62.469,85.608c-0.016,0.312,0.224,0.58,0.537,0.596l3.167,0.167c0.312,0.017,0.58-0.224,0.596-0.536
		c0.017-0.312-0.224-0.58-0.536-0.596l-3.167-0.167C62.752,85.056,62.485,85.296,62.469,85.608z"/>
	<path d="M62.351,88.238c-0.128,0.286-0.001,0.622,0.284,0.75l3.333,1.5c0.286,0.129,0.622,0.002,0.75-0.284
		c0.128-0.285,0.002-0.622-0.284-0.75l-3.333-1.5C62.816,87.826,62.479,87.953,62.351,88.238z"/>
	<path d="M59.978,90.061c-0.227,0.216-0.236,0.574-0.021,0.802l3.167,3.333c0.216,0.228,0.575,0.236,0.802,0.021
		c0.227-0.216,0.236-0.574,0.021-0.802l-3.167-3.333C60.564,89.854,60.205,89.845,59.978,90.061z"/>
	<path d="M58.271,91.637c-0.277,0.145-0.383,0.488-0.238,0.766l1.667,3.167c0.146,0.276,0.488,0.383,0.766,0.237
		c0.277-0.146,0.383-0.488,0.237-0.766l-1.667-3.167C58.891,91.598,58.548,91.491,58.271,91.637z"/>
	<path d="M55.807,91.896l-0.667,5c-0.041,0.311,0.177,0.596,0.487,0.637c0.31,0.042,0.595-0.177,0.637-0.487l0.667-5
		c0.042-0.31-0.177-0.595-0.487-0.637C56.133,91.368,55.848,91.586,55.807,91.896z"/>
	<path d="M53.301,91.07l-3,3c-0.221,0.222-0.221,0.581,0,0.802c0.221,0.222,0.58,0.222,0.802,0l3-3c0.221-0.221,0.222-0.58,0-0.802
		C53.881,90.85,53.522,90.849,53.301,91.07z"/>
	<path d="M47,86.119c-0.103,0.296,0.054,0.619,0.35,0.722l4.334,1.5c0.296,0.103,0.619-0.055,0.721-0.351
		c0.103-0.296-0.054-0.618-0.35-0.721l-4.333-1.5C47.425,85.667,47.101,85.823,47,86.119z"/>
	<path d="M71.378,108.188c-0.157,0.271-0.064,0.617,0.206,0.774l3.167,1.834c0.271,0.156,0.617,0.064,0.774-0.207
		c0.157-0.271,0.065-0.617-0.206-0.774l-3.166-1.834C71.882,107.824,71.535,107.916,71.378,108.188z"/>
	<path d="M75.076,105.152c-0.269,0.161-0.355,0.509-0.194,0.777l1.5,2.5c0.161,0.268,0.51,0.356,0.778,0.195
		c0.269-0.161,0.355-0.51,0.194-0.778l-1.5-2.5C75.693,105.078,75.345,104.991,75.076,105.152z"/>
	<path d="M79.091,103.082c-0.307,0.061-0.506,0.36-0.444,0.667l0.666,3.333c0.062,0.308,0.359,0.507,0.667,0.445
		c0.307-0.062,0.506-0.36,0.444-0.667l-0.666-3.333C79.696,103.221,79.398,103.021,79.091,103.082z"/>
	<path d="M83.304,103.415l-0.333,3.334c-0.031,0.312,0.196,0.589,0.508,0.62c0.312,0.031,0.59-0.196,0.621-0.508l0.333-3.334
		c0.03-0.312-0.196-0.589-0.508-0.62C83.613,102.876,83.335,103.104,83.304,103.415z"/>
	<path d="M88.71,105.007l-3.333,2.334c-0.257,0.18-0.318,0.533-0.14,0.789c0.18,0.257,0.533,0.319,0.79,0.14l3.333-2.334
		c0.257-0.18,0.318-0.533,0.14-0.789C89.32,104.89,88.967,104.827,88.71,105.007z"/>
	<path d="M91.629,108.743l-3.834,0.5c-0.311,0.04-0.529,0.324-0.489,0.635c0.041,0.311,0.325,0.529,0.636,0.489l3.834-0.5
		c0.311-0.041,0.529-0.325,0.489-0.636C92.224,108.921,91.939,108.702,91.629,108.743z"/>
	<path d="M88.535,112.071c-0.314,0-0.567,0.254-0.567,0.567c0,0.312,0.254,0.566,0.567,0.566h3.167c0.313,0,0.567-0.254,0.567-0.566
		c0-0.314-0.254-0.567-0.567-0.567H88.535z"/>
	<path d="M87.64,115.901c-0.039,0.311,0.182,0.594,0.492,0.633l4,0.5c0.311,0.039,0.594-0.182,0.633-0.492
		c0.039-0.311-0.182-0.595-0.492-0.633l-4-0.5C87.962,115.37,87.679,115.591,87.64,115.901z"/>
	<path d="M86,118.284c-0.104,0.295,0.053,0.619,0.348,0.723l3.333,1.166c0.296,0.104,0.619-0.052,0.723-0.348
		c0.104-0.295-0.053-0.618-0.348-0.722l-3.333-1.167C86.427,117.833,86.104,117.988,86,118.284z"/>
	<path d="M83.921,119.312c-0.271,0.155-0.366,0.502-0.211,0.773l2,3.5c0.155,0.271,0.502,0.366,0.773,0.211
		c0.271-0.155,0.366-0.502,0.211-0.773l-2-3.5C84.539,119.252,84.192,119.157,83.921,119.312z"/>
	<path d="M80.804,120.589l-0.333,3.834c-0.027,0.312,0.203,0.587,0.516,0.613c0.312,0.027,0.587-0.203,0.613-0.516l0.333-3.834
		c0.027-0.312-0.203-0.587-0.516-0.613C81.105,120.046,80.83,120.276,80.804,120.589z"/>
	<path d="M77.874,119.694l-1.5,2.665c-0.153,0.273-0.057,0.618,0.216,0.772c0.273,0.153,0.618,0.057,0.772-0.216l1.5-2.666
		c0.153-0.273,0.057-0.618-0.216-0.773C78.373,119.324,78.028,119.421,77.874,119.694z"/>
	<path d="M75.927,118.143l-3,1.666c-0.273,0.152-0.372,0.498-0.22,0.771c0.152,0.273,0.497,0.372,0.771,0.221l3.001-1.667
		c0.273-0.151,0.372-0.497,0.22-0.771C76.546,118.09,76.2,117.991,75.927,118.143z"/>
	<path d="M71.869,116.071c-0.313,0-0.567,0.254-0.567,0.567c0,0.312,0.254,0.566,0.567,0.566h3.5c0.313,0,0.567-0.254,0.567-0.566
		c0-0.314-0.254-0.567-0.567-0.567H71.869z"/>
	<path d="M70.635,113.114c-0.014,0.313,0.229,0.577,0.542,0.591l3.833,0.166c0.312,0.014,0.577-0.229,0.591-0.542
		c0.014-0.312-0.229-0.577-0.542-0.591l-3.834-0.166C70.913,112.559,70.649,112.801,70.635,113.114z"/>
	<path d="M47.326,189.642c-0.09,0.3,0.08,0.616,0.38,0.706l3.333,1c0.3,0.09,0.616-0.08,0.706-0.38c0.09-0.3-0.08-0.616-0.38-0.706
		l-3.333-1C47.731,189.172,47.416,189.342,47.326,189.642z"/>
	<path d="M51.337,192.905l-3,0.166c-0.312,0.018-0.552,0.285-0.535,0.598c0.017,0.312,0.285,0.552,0.597,0.535l3-0.166
		c0.312-0.018,0.552-0.285,0.535-0.598C51.917,193.128,51.65,192.889,51.337,192.905z"/>
	<path d="M51.435,195.472l-2.5,1.333c-0.276,0.147-0.381,0.49-0.234,0.767c0.147,0.276,0.491,0.381,0.767,0.233l2.5-1.333
		c0.276-0.148,0.381-0.49,0.234-0.767C52.055,195.429,51.711,195.324,51.435,195.472z"/>
	<path d="M52.675,197.094l-1,2.5c-0.116,0.291,0.025,0.621,0.316,0.737c0.291,0.116,0.621-0.025,0.737-0.315l1-2.5
		c0.116-0.291-0.025-0.621-0.316-0.737C53.121,196.662,52.792,196.804,52.675,197.094z"/>
	<path d="M54.968,198.472v3.166c0,0.313,0.254,0.567,0.567,0.567s0.567-0.254,0.567-0.567v-3.166c0-0.314-0.254-0.567-0.567-0.567
		S54.968,198.158,54.968,198.472z"/>
	<path d="M57.667,198.107c-0.293,0.112-0.439,0.439-0.328,0.732l1.333,3.5c0.111,0.292,0.439,0.439,0.731,0.328
		c0.292-0.112,0.439-0.439,0.328-0.732l-1.333-3.5C58.287,198.143,57.959,197.996,57.667,198.107z"/>
	<path d="M59.393,197.663c-0.17,0.263-0.096,0.613,0.167,0.784l3.333,2.166c0.263,0.17,0.614,0.096,0.784-0.167
		c0.171-0.263,0.097-0.613-0.166-0.784l-3.333-2.166C59.915,197.326,59.564,197.4,59.393,197.663z"/>
	<path d="M60.355,195.397c-0.132,0.284-0.01,0.621,0.274,0.754l2.5,1.167c0.284,0.133,0.621,0.011,0.753-0.273
		c0.132-0.284,0.01-0.621-0.274-0.754l-2.5-1.167C60.825,194.991,60.488,195.113,60.355,195.397z"/>
	<path d="M61.482,193.182c-0.068,0.306,0.125,0.608,0.43,0.677l3,0.667c0.306,0.067,0.608-0.125,0.676-0.431
		c0.068-0.306-0.124-0.608-0.43-0.677l-3-0.667C61.852,192.684,61.55,192.876,61.482,193.182z"/>
	<path d="M64.639,189.741l-3,0.333c-0.311,0.034-0.536,0.315-0.501,0.626c0.035,0.312,0.315,0.535,0.626,0.501l3-0.333
		c0.311-0.034,0.536-0.314,0.501-0.626C65.23,189.931,64.95,189.707,64.639,189.741z"/>
	<path d="M63.142,186.785l-2.667,1.167c-0.287,0.126-0.418,0.46-0.292,0.747c0.125,0.286,0.46,0.417,0.747,0.292l2.667-1.167
		c0.287-0.126,0.418-0.46,0.292-0.747C63.763,186.791,63.428,186.66,63.142,186.785z"/>
	<path d="M59.528,185.051l-1.167,2.333c-0.14,0.28-0.027,0.621,0.254,0.761c0.28,0.141,0.621,0.027,0.761-0.253l1.166-2.333
		c0.14-0.28,0.027-0.621-0.253-0.761C60.009,184.657,59.668,184.77,59.528,185.051z"/>
	<path d="M56.831,184.072c-0.312,0.02-0.549,0.291-0.528,0.604l0.167,2.5c0.021,0.312,0.29,0.549,0.603,0.527
		c0.312-0.02,0.549-0.291,0.528-0.604l-0.166-2.5C57.413,184.287,57.143,184.051,56.831,184.072z"/>
	<path d="M52.685,184.859c-0.247,0.193-0.289,0.55-0.096,0.796l1.833,2.333c0.193,0.246,0.55,0.289,0.796,0.095
		c0.247-0.193,0.289-0.55,0.096-0.796l-1.833-2.333C53.287,184.708,52.931,184.665,52.685,184.859z"/>
	<path d="M50.256,186.787c-0.193,0.246-0.15,0.603,0.096,0.796l2.333,1.834c0.247,0.194,0.603,0.151,0.796-0.095
		c0.193-0.246,0.15-0.603-0.096-0.796l-2.333-1.834C50.806,186.498,50.45,186.541,50.256,186.787z"/>
	<path d="M26.92,177.979l-2.333,1.333c-0.272,0.155-0.366,0.502-0.211,0.773c0.155,0.271,0.501,0.366,0.773,0.211l2.333-1.333
		c0.272-0.155,0.366-0.502,0.211-0.773C27.538,177.919,27.192,177.824,26.92,177.979z"/>
	<path d="M30.509,180.405l-3.667,0.166c-0.312,0.015-0.555,0.279-0.541,0.592c0.014,0.313,0.279,0.555,0.592,0.541l3.666-0.166
		c0.313-0.015,0.555-0.279,0.541-0.592C31.087,180.633,30.822,180.392,30.509,180.405z"/>
	<path d="M27.972,183.571c-0.037,0.311,0.186,0.593,0.497,0.63l2.833,0.334c0.311,0.036,0.593-0.186,0.629-0.497
		c0.037-0.311-0.186-0.593-0.497-0.63l-2.833-0.334C28.29,183.038,28.009,183.261,27.972,183.571z"/>
	<path d="M27.976,186.379c-0.052,0.309,0.157,0.601,0.466,0.652l3,0.5c0.309,0.051,0.601-0.157,0.652-0.467
		c0.052-0.309-0.157-0.6-0.466-0.652l-3-0.5C28.319,185.861,28.027,186.069,27.976,186.379z"/>
	<path d="M27.533,188.375c-0.146,0.277-0.039,0.618,0.239,0.765l3.5,1.834c0.277,0.145,0.619,0.039,0.765-0.239
		c0.145-0.277,0.039-0.618-0.239-0.765l-3.5-1.834C28.021,187.99,27.68,188.097,27.533,188.375z"/>
	<path d="M25.915,189.965c-0.188,0.25-0.137,0.605,0.113,0.793l2.667,2c0.25,0.188,0.606,0.138,0.794-0.113
		c0.188-0.25,0.137-0.605-0.113-0.793l-2.667-2C26.458,189.663,26.103,189.714,25.915,189.965z"/>
	<path d="M23.857,191.688c-0.249,0.19-0.296,0.546-0.106,0.795l2.167,2.834c0.19,0.248,0.546,0.296,0.794,0.105
		c0.249-0.19,0.296-0.546,0.106-0.795l-2.167-2.834C24.462,191.545,24.106,191.497,23.857,191.688z"/>
	<path d="M21.302,192.305v2.667c0,0.313,0.254,0.567,0.567,0.567s0.567-0.254,0.567-0.567v-2.667c0-0.314-0.254-0.567-0.567-0.567
		S21.302,191.991,21.302,192.305z"/>
	<path d="M18.507,191.433l-1.167,3c-0.114,0.291,0.031,0.62,0.323,0.733c0.292,0.113,0.621-0.031,0.734-0.323l1.167-3
		c0.113-0.291-0.031-0.62-0.323-0.733C18.949,190.996,18.62,191.141,18.507,191.433z"/>
	<path d="M16.893,189.662l-2.833,1.834c-0.263,0.17-0.338,0.521-0.168,0.783c0.17,0.264,0.521,0.339,0.784,0.168l2.833-1.834
		c0.263-0.17,0.338-0.521,0.168-0.783C17.507,189.566,17.156,189.491,16.893,189.662z"/>
	<path d="M15.648,187.407l-3.5,0.333c-0.311,0.029-0.54,0.307-0.511,0.618c0.03,0.311,0.307,0.54,0.618,0.511l3.5-0.333
		c0.311-0.029,0.541-0.307,0.511-0.618C16.236,187.606,15.959,187.378,15.648,187.407z"/>
	<path d="M12.664,183.958c-0.099,0.297,0.061,0.618,0.358,0.718l2.5,0.834c0.297,0.099,0.618-0.062,0.717-0.358
		c0.099-0.297-0.061-0.618-0.358-0.718l-2.5-0.834C13.084,183.501,12.763,183.661,12.664,183.958z"/>
	<path d="M13.242,180.306c-0.184,0.254-0.126,0.608,0.127,0.792l3,2.167c0.254,0.183,0.608,0.126,0.792-0.128
		c0.184-0.254,0.126-0.608-0.128-0.792l-3-2.167C13.78,179.995,13.425,180.052,13.242,180.306z"/>
	<path d="M15.353,177.857c-0.247,0.192-0.292,0.548-0.099,0.795l2.333,3c0.192,0.248,0.548,0.292,0.795,0.1
		c0.247-0.192,0.292-0.548,0.099-0.795l-2.333-3C15.957,177.709,15.6,177.665,15.353,177.857z"/>
	<path d="M19.645,176.573c-0.312,0.031-0.539,0.31-0.507,0.621l0.334,3.334c0.031,0.312,0.309,0.539,0.621,0.508
		c0.312-0.031,0.539-0.31,0.507-0.621l-0.334-3.334C20.234,176.77,19.956,176.542,19.645,176.573z"/>
	<path d="M22.152,177.667l-0.5,2c-0.076,0.304,0.108,0.611,0.412,0.688c0.304,0.076,0.612-0.108,0.688-0.412l0.5-2
		c0.076-0.304-0.108-0.611-0.412-0.688C22.535,177.179,22.227,177.363,22.152,177.667z"/>
	<path d="M43.639,176.734c-0.039,0.311,0.182,0.594,0.492,0.633l4,0.5c0.311,0.039,0.594-0.182,0.633-0.492
		c0.039-0.311-0.182-0.594-0.492-0.633l-4-0.5C43.961,176.203,43.678,176.424,43.639,176.734z"/>
	<path d="M44.839,173.602c-0.112,0.292,0.034,0.62,0.326,0.732l2.167,0.833c0.293,0.112,0.621-0.033,0.733-0.326
		c0.112-0.292-0.034-0.62-0.326-0.732l-2.167-0.833C45.28,173.163,44.952,173.309,44.839,173.602z"/>
	<path d="M45.23,170.823c-0.174,0.261-0.103,0.612,0.157,0.786l3,2c0.26,0.174,0.612,0.104,0.786-0.157
		c0.174-0.261,0.103-0.612-0.157-0.786l-3-2C45.756,170.492,45.404,170.562,45.23,170.823z"/>
	<path d="M48.744,168.818c-0.269,0.161-0.356,0.51-0.195,0.778l1,1.667c0.161,0.268,0.51,0.355,0.778,0.194
		c0.269-0.161,0.356-0.51,0.195-0.778l-1-1.667C49.36,168.744,49.012,168.657,48.744,168.818z"/>
	<path d="M51.618,167.077c-0.309,0.046-0.523,0.335-0.476,0.645l0.5,3.334c0.046,0.309,0.335,0.523,0.644,0.476
		c0.31-0.046,0.523-0.335,0.477-0.644l-0.5-3.334C52.216,167.244,51.927,167.03,51.618,167.077z"/>
	<path d="M54.831,168.292l-0.667,2c-0.099,0.298,0.061,0.618,0.358,0.718c0.297,0.099,0.618-0.062,0.717-0.358l0.667-2
		c0.099-0.298-0.061-0.618-0.358-0.718C55.251,167.835,54.93,167.995,54.831,168.292z"/>
	<path d="M56.634,171.07c-0.221,0.222-0.221,0.581,0,0.803c0.222,0.221,0.581,0.221,0.802,0l1.833-1.835
		c-0.221,0.222-0.58,0.222-0.802,0.001c-0.221-0.222-0.222-0.581,0-0.802L56.634,171.07z"/>
	<path d="M61.887,170.833l-2,1.333c-0.26,0.174-0.331,0.525-0.157,0.786c0.173,0.261,0.525,0.331,0.786,0.157l2-1.333
		c0.26-0.174,0.331-0.525,0.157-0.786C62.5,170.729,62.148,170.659,61.887,170.833z"/>
	<path d="M64.364,172.597l-3.167,1c-0.298,0.095-0.464,0.413-0.37,0.712c0.094,0.299,0.413,0.464,0.711,0.37l3.167-1
		c0.298-0.095,0.464-0.413,0.37-0.712C64.981,172.668,64.663,172.503,64.364,172.597z"/>
	<path d="M76.037,184.7l-1,1.833c-0.15,0.274-0.049,0.619,0.226,0.77c0.274,0.149,0.619,0.049,0.77-0.227l1-1.833
		c0.149-0.274,0.049-0.619-0.227-0.77C76.532,184.324,76.188,184.425,76.037,184.7z"/>
	<path d="M79.517,185.525l-2.333,1.834c-0.246,0.193-0.289,0.55-0.095,0.796c0.193,0.246,0.55,0.289,0.796,0.095l2.333-1.832
		c0.246-0.194,0.289-0.551,0.096-0.797C80.12,185.375,79.764,185.332,79.517,185.525z"/>
	<path d="M82.59,186.811l-2.666,1.5c-0.272,0.153-0.369,0.499-0.216,0.772c0.153,0.273,0.499,0.369,0.772,0.216l2.666-1.5
		c0.272-0.153,0.369-0.499,0.216-0.772C83.209,186.754,82.863,186.657,82.59,186.811z"/>
	<path d="M82.307,190.396c-0.042,0.311,0.177,0.596,0.486,0.637l2.5,0.333c0.311,0.042,0.596-0.177,0.637-0.486
		c0.042-0.311-0.177-0.596-0.486-0.637l-2.5-0.333C82.633,189.868,82.348,190.087,82.307,190.396z"/>
	<path d="M81.497,193.292c-0.099,0.298,0.061,0.618,0.358,0.718l3,1c0.298,0.099,0.618-0.062,0.718-0.358
		c0.099-0.298-0.062-0.618-0.358-0.718l-3-1C81.917,192.835,81.597,192.995,81.497,193.292z"/>
	<path d="M80.183,196.074c-0.127,0.286,0.003,0.623,0.288,0.749l3,1.333c0.286,0.127,0.623-0.003,0.749-0.288
		c0.127-0.286-0.003-0.623-0.288-0.749l-3-1.332C80.646,195.659,80.31,195.789,80.183,196.074z"/>
	<path d="M79.528,198.884c-0.141,0.28-0.027,0.621,0.253,0.761l2.333,1.167c0.28,0.141,0.621,0.027,0.761-0.253
		c0.141-0.28,0.027-0.621-0.253-0.761l-2.333-1.167C80.009,198.49,79.668,198.604,79.528,198.884z"/>
	<path d="M77.285,200.087c-0.212,0.23-0.197,0.589,0.032,0.802l2.166,2c0.23,0.212,0.589,0.197,0.802-0.032
		c0.212-0.23,0.197-0.589-0.032-0.802l-2.166-2C77.856,199.843,77.498,199.857,77.285,200.087z"/>
	<path d="M73.968,200.736c-0.222,0.222-0.222,0.581,0,0.803l2.833,2.834c0.222,0.221,0.581,0.221,0.803,0
		c0.221-0.222,0.221-0.581,0-0.803l-2.834-2.834C74.548,200.516,74.188,200.516,73.968,200.736z"/>
	<g>
		<path d="M41.535,209.055c0,0-4,0.75-9.75,5s-10.125,11.75-10.125,11.75s5,0.375,13.75-3.75s12.75-11.5,13-12.5
			s-0.625-1.125-0.625-1.125s-3.25,2.5-5.875,2L41.535,209.055z"/>
		<path d="M52.035,212.93c0,0-1.125,2.625,1.375,7.625s5.875,7.625,5.875,7.625s2.25-2.375,3.875-8.375
			c1.625-6,1.875-8.25,1.875-8.25s-1.625,0.125-4-1.125s-3.834-2.292-3.834-2.292S56.66,211.68,52.035,212.93z"/>
		<path d="M73.66,215.055c0,0-1.5,1.25-3.375,6.75s-1.75,8.375-1.75,8.375l1.5,0.5c0,0,2-1.75,3.625-2.875
			s8.542-6.417,10.625-11.875l-4.5-3.625l-4.75,3.5L73.66,215.055z"/>
		<path d="M145.785,51.055c-7,2.75-11.25,10.25-13.5,18.25s-2.25,21-2.75,37s0,47.5,2,56.667c2,9.167,14,22.833,14,22.833v35.079
			c-0.333,7.579-8.167,9.921-8.167,9.921h-14.333c-14.333-23.167-33.167-23-33.167-23l-1-2.167c0,0-0.167-0.834,1.5-1
			s6.333-2.166,7-3.333l-1.833-4.333l0.833-1.167c0,0,10.166,2.667,20,9.167c0,0-0.167-8.166-1-12.5s-5.332-11.5-8.666-20
			s-5.334-19.666-7.334-25.5s-6.166-9-6.166-9s0.333-3.5,0.083-4.917l6.75-1c0,0,1.667-1.251,1.5-3.417
			c0,0,8.666,11.668,11.333,15.334c0,0,1.334-30.166,1.667-40.833s0.667-21.834,0.167-25.167s-2.334-9.5-5.834-13l0.334-4.5
			l7.166,0.333l0.667-0.833l5.5,5c0,0,8.001-16.833,23.167-25.333L145.785,51.055z"/>
		<path d="M77.368,76.139c0,0,3.668-3,8.834-5.5s14.333-1.5,14.333-1.5s-5.667,4-6.667,5.666c-1,1.667-5.166,8.167-10.166,10.334
			l-0.167-0.959l-2.75-0.5l-3.75-0.875c0,0,3.209-5.083,3.167-6.166L77.368,76.139z"/>
		<path d="M58.869,61.805c0,0,0.292-4.5,3.917-8.5c3.625-4,8.75-7.375,8.75-7.375s-0.25,5.125-0.5,7.125s-1.125,9-2.375,10.875
			l-6.25,4.75C62.41,68.68,61.452,63.805,58.869,61.805z"/>
		<path d="M49.66,71.43c0,0-0.375-4.5-6.5-9.5s-11.5-9.875-12.125-10.375s-0.5,0.875,0,1.875s3,5.25,3.5,8.625
			c0.5,3.375,2,8.875,4.125,11c0,0,5.625-3.25,10.125,0.25L49.66,71.43z"/>
		<path d="M23.535,85.68c0,0-1.875-7.25-0.125-12.75s2.75-12,2.75-12s3.25,8.75,4.375,11.375s2.625,8.375,2.25,10.875l-2.084-0.708
			c0,0-3.166,2.833-3.541,5.583l-0.875-0.125L23.535,85.68z"/>
		<path d="M19.16,84.055c0,0-0.875-1.625-4.5-2.5s-6.5-2.375-6.875-3.375l-0.5,6.625c0,0,1.75,6.125,7.75,9.875l1.75-0.5
			c0,0,0.75-4.125,3.25-8.25L19.16,84.055z"/>
		<path d="M51.535,103.68c0,0,6.25,0.875,11.25,4c0,0-4.375,2.375-4.875,2.5s-1.125,0.5-1,1s0.625,2.125,0.625,2.125
			s-2,0.25-2.75-0.125s-2-4.5-6.375-7l0.25-0.75L51.535,103.68z"/>
		<path d="M44.285,158.055c0,0-3.875-3.375-5.375-10.625s-3.375-12.875-4.5-14.5s2,0.625,2.625,1.125s6.25,3.375,11.5,10
			s4.125,12.125,4.125,12.125l-3.125,3.625l-4.125-1.625L44.285,158.055z"/>
		<path d="M53.66,156.555c0,0,1.625-3.875,8.5-5.75s15-0.5,15-0.5s-3,2.375-3.75,3.25s-3.625,6.25-7,7.5
			c-3.375,1.25-4.333,0.125-8.042,2.75C58.369,163.805,57.035,159.805,53.66,156.555z"/>
	</g>
</g>
</svg>
