<?xml version="1.0" encoding="iso-8859-1"?>
<!-- Generator: Adobe Illustrator 19.1.0, SVG Export Plug-In . SVG Version: 6.00 Build 0)  -->
<svg version="1.1" id="&#xB808;&#xC774;&#xC5B4;_1" xmlns="http://www.w3.org/2000/svg" xmlns:xlink="http://www.w3.org/1999/xlink"
	 x="0px" y="0px" viewBox="0 0 153.072 238.111" style="enable-background:new 0 0 153.072 238.111;" xml:space="preserve">
<rect style="fill:#E60012;" width="153.072" height="238.111"/>
<g>
	<path style="fill:#FFFFFF;" d="M8.206,15.805v205.499c0,0,0.25,9.5,11,9.5s114.75-0.25,114.75-0.25s10,2.25,10.75-11.75
		s0-202.499,0-202.499s-0.667-8.5-10.5-9H18.373C18.373,7.305,9.206,7.639,8.206,15.805z"/>
	<path d="M18.128,6.597c-5.861,0-10.63,4.769-10.63,10.63v203.658c0,5.861,4.769,10.629,10.63,10.629h116.657
		c5.861,0,10.63-4.768,10.63-10.629V17.227c0-5.861-4.769-10.63-10.63-10.63H18.128z M8.915,220.885V17.227
		c0-5.08,4.133-9.213,9.213-9.213h116.657c5.08,0,9.212,4.133,9.212,9.213v203.658c0,5.08-4.132,9.211-9.212,9.211H18.128
		C13.048,230.096,8.915,225.965,8.915,220.885z"/>
	<path d="M76.206,51.055c0,0-6-2.5-5.25-10.25s6.25-8,7.75-7.75s6.25,2.25,4.5,9.5S77.206,51.055,76.206,51.055z"/>
	<path d="M62.456,61.805c0,0-0.5-5.5-4.75-7.25s-7.75-0.5-8.5,1.75s0.25,5.75,4.75,7.25S62.456,62.555,62.456,61.805z"/>
	<path d="M82.706,62.555c0,0,0-5.75,6.5-6.75s7.75,3,8,4.25s-0.25,4.5-6.25,5.5S82.706,62.555,82.706,62.555z"/>
	<path d="M62.706,79.055c0,0,1-5.75-4.5-9.75s-10.5-1-11.25,1s-0.5,6.75,5.25,9.25S62.456,80.055,62.706,79.055z"/>
	<path d="M80.956,81.305c0,0,1.5-5.5,6.25-7.25s8.75,0,9.5,2.5s-0.25,5.5-5.25,7.25S81.706,82.805,80.956,81.305z"/>
	<path d="M61.206,93.805c0,0-0.5-6-5.5-8.75s-9.75-0.75-10.75,2.75s1,6.75,6.25,8.25S60.706,95.305,61.206,93.805z"/>
	<path d="M76.956,100.555c0,0,2.5-5.5,8-6.5s8.25,2,8.5,4.75s-1.5,5.75-7.25,6.25S77.456,102.555,76.956,100.555z"/>
	<path d="M60.956,107.305c0,0-1.75-5-7.5-5.5s-8.25,2.75-7.75,6.25s3.75,4.5,7.75,4S61.206,109.555,60.956,107.305z"/>
	<path d="M80.206,115.805c0,0,2.25-4,7.5-3.5s6.5,3,6,6s-3,4.249-7.75,3.5C81.206,121.055,80.206,117.555,80.206,115.805z"/>
	<path d="M62.456,122.555c0,0-1.25-5.749-7.75-6.499s-7.5,3-7.75,5.25c-0.25,2.249,1.75,4.749,8,5.249
		S62.456,124.055,62.456,122.555z"/>
	<path d="M79.456,132.805c0,0,2.75-4.75,8.25-5c5.5-0.25,7.25,2.75,7.75,5.75s-2.25,5.25-7.25,5.5S79.956,136.305,79.456,132.805z"
		/>
	<path d="M62.456,137.055c0,0-2.5-5.5-7-7s-8.25,1.5-8.25,4.5s1.75,5.5,7.25,6S62.706,138.555,62.456,137.055z"/>
	<path d="M71.206,162.805c0,0-6.75-3.75-6.75-10s3.25-9.5,7.25-9.25s7.25,3.75,6.75,9.5S73.206,163.055,71.206,162.805z"/>
	<path d="M122.206,86.305c0,0-6.75-2-8.5-7.25s1-8.75,4.5-9.25s7.25,1.75,8,6.75S124.706,86.055,122.206,86.305z"/>
	<path d="M113.206,100.055c0,0-1.25-6-6-8s-9.75-0.5-10.75,3.25s2.25,7,7.75,8.25S112.456,101.305,113.206,100.055z"/>
	<path d="M144.456,92.055c-0.25-1.25-2.75-3.75-8.5-2.5s-6,9-6,9s2.25,2.5,7,2.25s7.75-2.5,7.75-4L144.456,92.055z"/>
	<path d="M130.706,115.805c0,0,0-6.5,5-7.75s6.75,0,7.75,2.5s-0.25,5.25-4.5,7.25S131.956,117.055,130.706,115.805z"/>
	<path d="M114.206,114.805c0,0-2.5-6-8-6.75s-8.5,2-8.75,5s1.75,6.5,7.25,7S113.956,116.555,114.206,114.805z"/>
	<path d="M114.456,135.305c0,0-0.5-5.75-6-8c-5.5-2.25-9.25,1-10,3.25s1,6.75,7.25,7.75S114.456,136.305,114.456,135.305z"/>
	<path d="M129.706,134.305c0,0,0.5-6.5,5.25-8.25s8-0.75,9.25,2.75c1.25,3.5-1.5,6.75-5.25,8S130.956,135.805,129.706,134.305z"/>
	<path d="M112.456,151.055c0,0-2.5-5.5-8-7s-9.25,2.25-9.25,5.25s1.25,5.75,8.25,6.5S112.206,153.055,112.456,151.055z"/>
	<path d="M144.706,143.305c-1-1.5-3-2.5-7-0.75s-5,6.75-5,6.75s1.75,2.75,5.5,3.25s6.25-0.75,6.5-2V143.305z"/>
	<path d="M35.956,121.055c0,0-0.5-6,4.25-8.25s7.5-0.75,9.25,2.5s-1.75,6.25-4.75,7.249
		C41.706,123.555,38.706,123.055,35.956,121.055z"/>
	<path d="M26.456,115.805c0,0-5.269,1.756-10.25-3.75c-4.75-5.25-3-11.25,0.75-12.75s8.25,2,9.75,5.5S28.206,115.055,26.456,115.805
		z"/>
	<path d="M27.956,127.555c0,0-5-3-11-0.25c-6,2.75-5.25,8.5-4.75,9.75s5.5,4,11-0.25S29.206,129.305,27.956,127.555z"/>
	<path d="M25.456,161.805c0,0-5.75-0.5-8.5-6.75c-2.75-6.25,2.25-9.75,3.75-9.75c1.5,0,6.25-0.75,8.25,6.5
		S27.206,162.055,25.456,161.805z"/>
	<path d="M80.706,145.055c0,0,5.5-2.5,9.75,0s5,7.25,2.75,9.5s-7,2.25-10-0.5S79.206,146.055,80.706,145.055z"/>
	<path d="M41.706,176.055c0,0-5.5-4.25-4-9.75s6.5-7.25,10.5-5s3.75,7.5,1,10.5S43.456,176.055,41.706,176.055z"/>
	<path d="M8.206,174.305c0.5-1.25,3.25-3.25,8-1.5s6.5,7.75,6.5,7.75s-1.75,3-7,3s-6.75-2-7.5-3V174.305z"/>
	<path d="M65.956,175.305c0,0,2.5-6.5-0.75-10.5c-3.25-4-8-4.25-11-1.5c-3,2.75-1.25,9.25,3.75,11.75S65.956,175.305,65.956,175.305
		z"/>
	<path d="M78.706,176.805c0,0-1.5-6.75,3-10.75s9.75-3,11.5,0s1,7.5-4.75,10S80.706,177.555,78.706,176.805z"/>
	<path d="M114.956,173.555c0,0-1.75-5-7.5-7c-4.224-1.469-11,0.5-10.75,5.25s3.75,6.25,10,6.25S114.706,174.805,114.956,173.555z"/>
	<path d="M144.706,166.555c-0.25-1.5-1.5-4.25-7.25-4.5s-8,4.5-8,4.5s-0.25,3.5,5.75,6.5s9.5-1,9.5-1V166.555z"/>
	<path d="M46.206,190.305c0,0-4.75-3.5-3.25-9s5-7.5,8.75-6s3.5,7.25,2,10S48.706,191.555,46.206,190.305z"/>
	<path d="M29.706,196.805c0,0-1-5.75-6-7.5s-9.25,2.25-9.25,5c0,2.75,2.25,6,7.75,6S29.706,196.805,29.706,196.805z"/>
	<path d="M66.456,194.555c0,0,0.5-5.75-3-9.5c-3.5-3.75-6.75-3.25-10-0.5s-0.25,6.75,2.25,9.25
		C58.206,196.305,65.456,196.805,66.456,194.555z"/>
	<path d="M84.206,190.305c0,0-2.25-6,1.25-10.5s9.5-5.5,11.75-3.25s3.25,7.75-1.5,11.25S86.706,191.305,84.206,190.305z"/>
	<path d="M112.706,186.805c0,0-1.25-4.25-6.5-5.75s-8.75,2-9.25,3.25s-0.25,7,7.25,7.5S112.456,188.055,112.706,186.805z"/>
	<path d="M131.706,195.305c0,0,4-4,2.5-10.25s-6.5-7.25-10-5.5s-3.75,7.5-0.25,11.5
		C127.456,195.055,131.706,195.305,131.706,195.305z"/>
	<path d="M121.206,211.055c0,0-8.5-1.25-9.25-7.75s2-9.75,6.25-10.5c4.25-0.75,7.25,2.25,7.25,8.5S122.956,210.805,121.206,211.055z
		"/>
	<path d="M86.956,212.055c0,0-2.25-6.25,1.25-10.75s9.25-4.25,12-0.25s-0.25,8-3.25,10S89.206,213.555,86.956,212.055z"/>
	<path d="M69.206,214.555c0,0,2.25-4.25-0.5-9.25s-8.5-5.25-11-3.25c-2.5,2-3.25,7.75,1.25,11.25S67.706,215.055,69.206,214.555z"/>
	<path d="M41.206,216.555c0,0-0.75-5-6.25-8.5s-10,1.5-10.5,3.25s-0.5,7,7.25,7.75S41.206,216.555,41.206,216.555z"/>
	<path d="M25.706,225.055c0,0,0.75-5.75-3.25-10.5s-9.25-1.25-10.75,0.75s-1.5,7,4.5,9.75S25.706,225.055,25.706,225.055z"/>
	<path d="M87.956,230.805c0,0-1.25-5,1.75-9.5s8.25-5,11.25-2s0.75,10.75-8,11.5C92.956,230.805,86.706,230.305,87.956,230.805z"/>
	<path d="M109.706,225.555c0,0-8-1.5-8.75-6.25s0.75-9.5,5-10s8,1.75,8.5,7.25S110.706,225.055,109.706,225.555z"/>
	<path d="M144.206,224.305c-6.75-5.25-11.5,1-11.5,1s0.75,4,3.25,5.5c0,0,3.75-1,5.5-2.5S144.206,224.305,144.206,224.305z"/>
	<path d="M144.956,204.055c-5.75,0.25-7,4.75-7,4.75s1.5,4.75,6.75,4.75L144.956,204.055z"/>
	<path d="M115.205,230.305l1.002,1.002c14.155-14.156,29.217-40.887,29.367-41.154l-1.236-0.693
		C144.188,189.725,129.222,216.287,115.205,230.305z"/>
	<path d="M130.085,193.646c0.042,0.076,4.214,7.703,4.934,10.58l1.375-0.344c-0.764-3.053-4.891-10.6-5.066-10.918L130.085,193.646z
		"/>
	<path d="M120.072,209.373c0.04,0.078,3.999,8,4.732,9.711l1.303-0.559c-0.75-1.748-4.604-9.459-4.768-9.787L120.072,209.373z"/>
	
		<rect x="107.154" y="226.471" transform="matrix(-0.4603 -0.8878 0.8878 -0.4603 -39.6487 430.2562)" width="7.603" height="1.417"/>
	<path d="M119.912,225.598l0.088,1.414c0.08-0.004,8.06-0.498,14.956-0.498v-1.418C128.015,225.096,119.992,225.594,119.912,225.598
		z"/>
	
		<rect x="136.372" y="204.079" transform="matrix(-0.2012 -0.9796 0.9796 -0.2012 -40.121 385.3932)" width="1.418" height="9.953"/>
	<path d="M70.498,160.076c0.012,0.416,1.373,41.947,11.792,70.721l1.332-0.482c-10.34-28.559-11.695-69.867-11.708-70.281
		L70.498,160.076z"/>
	<path d="M66.493,213.092c0.452,0.391,11.096,9.572,13.646,10.848l0.634-1.268c-1.914-0.957-9.571-7.387-13.353-10.652
		L66.493,213.092z"/>
	<path d="M79.448,220.061l1.016,0.99c1.006-1.033,9.857-10.139,10.876-12.178l-1.268-0.635
		C89.375,209.633,83.337,216.072,79.448,220.061z"/>
	<path d="M62.995,193.094c0.104,0.09,10.496,8.998,11.96,10.463l1.002-1.002c-1.502-1.502-11.61-10.17-12.04-10.537L62.995,193.094z
		"/>
	<path d="M74.92,200.092l1.072,0.926c0.451-0.521,11.041-12.801,12.054-14.318l-1.18-0.787
		C86.095,187.07,78.714,195.693,74.92,200.092z"/>
	<path d="M72.249,181.514l0.914,1.084c0.327-0.277,8.037-6.785,9.294-8.041l-1.002-1.002
		C80.24,174.77,72.328,181.445,72.249,181.514z"/>
	<rect x="61.516" y="176.096" transform="matrix(-0.727 -0.6866 0.6866 -0.727 -4.4689 351.8326)" width="12.379" height="1.418"/>
	<path d="M24.51,158.936c0.035,0.188,3.612,19.051,12.048,38.156c8.43,19.088,18.711,34.213,18.813,34.363l1.17-0.799
		c-0.102-0.15-10.312-15.174-18.687-34.137c-8.366-18.949-11.917-37.658-11.951-37.844L24.51,158.936z"/>
	<path d="M37.019,215.988c4.822,1.326,10.167,2.955,10.764,3.385l0.85-1.135c-1.028-0.771-8.861-2.963-11.237-3.617L37.019,215.988z
		"/>
	<path d="M26.679,196.457c4.484,1.908,11.812,5.072,12.386,5.439l0.785-1.182c-0.767-0.51-10.644-4.723-12.616-5.562L26.679,196.457
		z"/>
	<path d="M39.61,202.922l1.192,0.766c0.279-0.434,6.847-10.697,7.358-15.559l-1.409-0.148
		C46.274,192.51,39.677,202.818,39.61,202.922z"/>
	<path d="M34.9,190.865l1.112,0.879c3.809-4.824,6.763-18.463,6.887-19.041l-1.386-0.297
		C41.483,172.545,38.505,186.301,34.9,190.865z"/>
	<rect x="18.962" y="180.096" transform="matrix(-0.9615 -0.2747 0.2747 -0.9615 0.0177 361.612)" width="12.74" height="1.418"/>
	<path d="M23.181,224.031c0.047,0.051,4.732,5.236,6.186,7.418l1.18-0.787c-1.512-2.268-6.119-7.367-6.314-7.582L23.181,224.031z"/>
	<path d="M121.751,83.623c0.052,0.547,5.168,55.356-1.249,113.354l1.408,0.156c6.434-58.15,1.304-113.097,1.251-113.645
		L121.751,83.623z"/>
	<path d="M109.659,187.762c3.879,0.26,11.521,0.799,12.681,0.992l0.232-1.398c-1.517-0.252-12.358-0.977-12.819-1.008
		L109.659,187.762z"/>
	<path d="M112.981,173.727c0.342,0.115,1.465,0.287,3.586,0.607c2.27,0.342,5.7,0.859,6.375,1.129l0.527-1.316
		c-0.77-0.307-3.259-0.697-6.691-1.215c-1.447-0.219-3.088-0.465-3.349-0.549L112.981,173.727z"/>
	<path d="M123.651,166.848l0.109,1.414c0.267-0.021,6.548-0.506,8.062-0.758l-0.232-1.398
		C130.138,166.348,123.717,166.844,123.651,166.848z"/>
	<path d="M109.534,151.242c3.893,0.975,13.781,5.414,13.881,5.459l0.582-1.293c-0.411-0.184-10.103-4.537-14.119-5.541
		L109.534,151.242z"/>
	<polygon points="123.858,153.188 124.554,154.422 134.8,148.674 134.112,147.436 	"/>
	<path d="M110.812,134.395c0.763,0.508,11.813,6.15,13.071,6.791l0.645-1.262c-4.909-2.504-12.404-6.357-12.93-6.709
		L110.812,134.395z"/>
	<path d="M124.168,135.908l0.576,1.295c0.368-0.164,9.026-4.014,10.028-4.514l-0.634-1.268
		C133.165,131.908,124.258,135.867,124.168,135.908z"/>
	
		<rect x="128.622" y="111.021" transform="matrix(-0.5084 -0.8611 0.8611 -0.5084 94.6019 287.3691)" width="1.418" height="11.319"/>
	<path d="M110.927,115.207c1.785,0.765,12.893,3.425,13.364,3.538l0.33-1.379c-3.183-0.761-11.746-2.866-13.136-3.462
		L110.927,115.207z"/>
	<polygon points="110.192,99.213 123.433,104.709 123.979,103.401 110.72,97.897 	"/>
	<path d="M123.348,101.944l0.717,1.223c0.298-0.175,7.325-4.3,9.102-5.823l-0.922-1.076
		C130.562,97.709,123.42,101.902,123.348,101.944z"/>
	<path d="M69.75,147.117l1.412-0.125c-3.452-38.959,5.651-97.49,5.744-98.077l-1.4-0.221
		C75.413,49.283,66.283,107.984,69.75,147.117z"/>
	<path d="M73.654,65.289c-0.536-0.182-12.97-4.405-12.97-4.405l-0.456,1.342l13.529,4.595l0.266-0.132
		c3.643-1.821,9.676-4.775,10.354-4.946l-0.344-1.375C83.05,60.614,75.642,64.297,73.654,65.289z"/>
	<path d="M60.551,78.886l11.109,7.751l0.385-0.21c0.082-0.045,8.253-4.493,12.16-5.959l-0.498-1.327
		c-3.584,1.344-10.334,4.957-11.954,5.832c-0.67-0.467-10.392-7.25-10.392-7.25L60.551,78.886z"/>
	<path d="M57.654,92.946l12.75,6c0.431,0.152,8.886,3.048,11.148,3.551l0.307-1.384c-2.186-0.486-10.834-3.448-10.924-3.479
		c0-0.004-12.678-5.971-12.678-5.971L57.654,92.946z"/>
	<path d="M58.674,108.013c0,0,10.393,0.472,10.793,0.49c0.885,0.626,8.539,6.045,11.802,8.609l0.875-1.115
		c-3.474-2.73-11.944-8.712-12.028-8.772l-0.17-0.119l-11.207-0.51L58.674,108.013z"/>
	<path d="M69.402,121.598l-9.999,0.749l0.105,1.414c0,0,9.069-0.68,9.677-0.727c1.717,1.713,9.975,9.914,11.453,10.654l0.634-1.268
		c-1.018-0.51-7.48-6.783-11.315-10.618l-0.23-0.229L69.402,121.598z"/>
	<path d="M60.012,137.986c1.704,0.486,8.79,1.387,9.701,1.502c5.942,3.689,12.358,7.926,12.891,8.689l1.21-0.736
		c-0.777-1.297-10.518-7.398-13.483-9.238l-0.133-0.082l-0.153-0.02c-0.079-0.01-7.965-0.998-9.643-1.479L60.012,137.986z"/>
	<path d="M30.224,55.886c-5.919,2.059-10.027,7.653-10.723,14.599c-0.036,0.365-0.055,0.721-0.055,1.065
		c0,1.901,0.556,3.478,1.659,4.697c1.838,2.031,4.605,2.418,5.657,2.494c-1.492,3.291-2.159,6.282-2.159,9.072
		c0,5.966,2.815,11.101,5.907,16.738l3.307,6.311c3.688,7.714,4.524,14.042,4.524,21.157c0,2.705-0.121,5.523-0.252,8.574
		l-0.092,2.184c-0.05,1.219-0.072,2.408-0.072,3.561c0,10.387,1.822,17.809,1.843,17.891l1.375-0.344
		c-0.02-0.08-1.801-7.346-1.801-17.539c0-1.137,0.022-2.309,0.071-3.51l0.092-2.182c0.133-3.094,0.256-5.951,0.256-8.695
		c0-7.27-0.859-13.749-4.666-21.708l-3.342-6.381c-2.983-5.438-5.697-10.388-5.697-16.09c0-2.894,0.715-5.988,2.434-9.433
		c0.947-0.036,2.011-0.225,3.19-0.618c4.494-1.499,7.099-4.025,7.94-7.673c0.487-0.215,0.978-0.421,1.435-0.751
		c2.317-1.674,3.724-4.487,3.858-7.719c0.004-0.097,0.006-0.194,0.006-0.29c0-1.891-0.788-3.474-2.292-4.591
		C39.395,54.302,33.931,54.596,30.224,55.886z M22.15,75.289c-0.855-0.949-1.286-2.207-1.286-3.749c0-0.295,0.016-0.6,0.047-0.915
		c0.64-6.391,4.386-11.525,9.778-13.401c4.05-1.409,8.715-1.149,11.094,0.618c1.142,0.848,1.72,2.008,1.72,3.451
		c0,0.077-0.001,0.154-0.005,0.232c-0.116,2.795-1.309,5.211-3.271,6.628c-0.11,0.08-0.231,0.11-0.344,0.182
		c0.007-0.082,0.026-0.156,0.031-0.239c0.013-0.225,0.019-0.442,0.019-0.652c0-1.809-0.489-3.082-1.457-3.79
		c-1.099-0.803-2.705-0.807-4.774-0.011c-1.486,0.572-2.306,1.617-2.25,2.869c0.074,1.678,1.744,3.312,4.06,3.974
		c0.792,0.226,1.634,0.179,2.477,0.042c-0.916,2.724-3.088,4.631-6.756,5.854c-0.425,0.142-0.784,0.217-1.153,0.304
		c0.924-1.089,1.881-2.578,1.881-4.122c0-0.211-0.018-0.424-0.057-0.636c-0.27-1.481-1.219-1.849-1.761-1.937
		c-1.604-0.258-3.873,1.3-5.059,3.474c-0.383,0.702-0.574,1.389-0.574,2.021c0,0.548,0.178,1.038,0.465,1.474
		C24.022,76.675,22.956,76.182,22.15,75.289z M35.901,69.124c-1.918-0.547-2.994-1.786-3.034-2.674
		c-0.034-0.786,0.712-1.24,1.344-1.483c1.094-0.421,2.576-0.791,3.43-0.167c0.696,0.509,0.875,1.631,0.875,2.648
		c0,0.194-0.006,0.385-0.017,0.566c-0.022,0.38-0.154,0.685-0.212,1.041C37.472,69.278,36.652,69.338,35.901,69.124z M26.209,76.31
		c-0.186-0.222-0.278-0.506-0.278-0.833c0-0.393,0.134-0.848,0.398-1.332c0.941-1.725,2.702-2.896,3.59-2.754
		c0.126,0.021,0.461,0.074,0.591,0.791c0.024,0.127,0.034,0.257,0.034,0.388c0,1.634-1.664,3.454-2.662,4.347
		C27.066,76.858,26.483,76.637,26.209,76.31z"/>
	<path d="M20.509,24.023c-0.842,1.007-1.109,2.233-0.716,3.281l0.89,1.81c0.798,1.446,1.552,2.811,1.09,4.505l-0.533,1.617
		c-0.794,2.22-1.781,4.983,1.463,6.231c2.075,0.798,4.463,0.385,5.94-1.027c1.095-1.046,1.454-2.453,0.986-3.858
		c-0.473-1.419-1.14-2.314-1.983-2.663c-0.798-0.331-1.438-0.032-1.507,0.003l0.608,1.279c0.017-0.006,0.171-0.061,0.388,0.041
		c0.245,0.115,0.719,0.5,1.148,1.788c0.395,1.183-0.22,2.002-0.621,2.386c-1.072,1.025-2.903,1.325-4.452,0.729
		c-1.776-0.683-1.572-1.816-0.637-4.431l0.565-1.721c0.613-2.249-0.358-4.009-1.216-5.563l-0.804-1.622
		c-0.215-0.572-0.042-1.255,0.476-1.875c0.592-0.708,1.793-1.441,3.233-1.179c2.418,0.439,4.919,2.45,4.919,5.053
		c0,2.777,1.676,4.21,3.799,6.023l1.433,1.251c2.029,1.845,1.17,4.975,0.26,8.289l-0.471,1.765
		c-0.597,2.388-0.427,4.634-0.277,6.616c0.112,1.48,0.218,2.878,0.015,4.198c-0.431,2.8-6.043,6.149-8.05,6.149
		c-1.945,0-3.05-0.84-3.061-0.848l-0.881,1.11c0.059,0.047,1.473,1.155,3.942,1.155c2.615,0,8.888-3.69,9.45-7.351
		c0.229-1.48,0.116-2.957-0.002-4.52c-0.148-1.967-0.302-4,0.239-6.166l0.462-1.733c0.983-3.58,2.001-7.283-0.673-9.713l-1.465-1.28
		c-1.989-1.699-3.303-2.821-3.303-4.945c0-3.469-3.134-5.911-6.082-6.447C23.404,22.053,21.608,22.706,20.509,24.023z"/>
	<path d="M25.022,114.493c0.035,0.128,3.555,12.892,7.034,20.847c1.388,3.17,3.739,6.932,6.229,10.914
		c3.852,6.162,7.834,12.533,8.724,17.428l1.395-0.254c-0.939-5.162-4.994-11.65-8.916-17.924c-2.461-3.938-4.786-7.656-6.132-10.732
		c-3.438-7.861-6.931-20.527-6.966-20.654L25.022,114.493z"/>
	<path d="M19.75,135.113c0.252,3.025,2.667,12.467,2.77,12.867l1.373-0.352c-0.024-0.098-2.488-9.727-2.73-12.633L19.75,135.113z"/>
	<path d="M25.515,131.209c1.436,6.465-1.94,15.758-1.974,15.852l1.33,0.49c0.146-0.396,3.555-9.775,2.027-16.648L25.515,131.209z"/>
	<path d="M25.403,128.613l1.106,0.885c1.916-2.396,11.513-9.297,11.609-9.368l-0.826-1.15
		C36.892,119.268,27.441,126.066,25.403,128.613z"/>
</g>
</svg>
