<?xml version="1.0" encoding="iso-8859-1"?>
<!-- Generator: Adobe Illustrator 19.1.0, SVG Export Plug-In . SVG Version: 6.00 Build 0)  -->
<svg version="1.1" id="&#xB808;&#xC774;&#xC5B4;_1" xmlns="http://www.w3.org/2000/svg" xmlns:xlink="http://www.w3.org/1999/xlink"
	 x="0px" y="0px" viewBox="0 0 153.07 238.11" style="enable-background:new 0 0 153.07 238.11;" xml:space="preserve">
<rect style="fill:#E60012;" width="153.07" height="238.11"/>
<g>
	<path style="fill:#FFFFFF;" d="M8.035,17.388v202.334c0,0-0.5,10.666,11.333,10.666s116.334,0.167,116.334,0.167
		s9.334,0.001,9.5-10.833s0-202.334,0-202.334s0.5-8.667-9.667-9.833s-118-0.167-118-0.167S8.868,7.888,8.035,17.388z"/>
	<path d="M17.956,6.846c-5.861,0-10.63,4.769-10.63,10.63v203.158c0,5.861,4.769,10.63,10.63,10.63h117.158
		c5.861,0,10.63-4.769,10.63-10.63V17.476c0-5.861-4.768-10.63-10.63-10.63H17.956z M8.743,220.634V17.476
		c0-5.08,4.133-9.213,9.213-9.213h117.158c5.08,0,9.212,4.133,9.212,9.213v203.158c0,5.08-4.132,9.212-9.212,9.212H17.956
		C12.876,229.846,8.743,225.714,8.743,220.634z"/>
	<path d="M86.535,34.555c0,0-5.25-2.75-5.25-10.25s4.75-8.75,6.75-8.75s7,2.25,5.5,10.75S86.535,34.555,86.535,34.555z"/>
	<path d="M79.785,39.305c0,0-1-5.25-5.5-7.25s-8.5,0.5-9,2.75s0.5,7.25,6,8S79.785,39.305,79.785,39.305z"/>
	<path d="M96.535,40.805c0,0-0.5-6.75,5.75-8.5s8.75,1,9.5,2.75s0,5.5-5.5,7.25S97.785,41.805,96.535,40.805z"/>
	<path d="M77.785,57.305c0,0-3.5-5-8.75-3.5s-5.75,5.5-4.75,8c1,2.5,4.5,4.25,9,1.75C77.785,61.055,77.785,57.305,77.785,57.305z"/>
	<path d="M98.785,59.055c0,0,5-3,10.25-0.25s5.5,5.5,4.75,7.25s-4.5,4-10.25,0.75C97.785,63.555,98.785,59.055,98.785,59.055z"/>
	<path d="M77.035,76.055c0,0-5.25-3-11-1.25s-6,6.75-4.75,9s6.25,4.5,11.75,0.75S77.785,75.805,77.035,76.055z"/>
	<path d="M98.285,74.555c0,0,5.25-1.25,10,2.25s3.25,8,0.75,9.5s-7,0-9.5-3S98.285,74.555,98.285,74.555z"/>
	<path d="M75.035,95.055c0,0-3.25-6-10.75-5s-7.25,6.5-6.75,8.25s3,6,10.5,3.5S75.035,95.055,75.035,95.055z"/>
	<path d="M77.535,105.305c0,0-3.75-2.25-11.75,0.5s-6.75,9-5.75,10.5s6.5,4.5,12.5-1S77.535,105.305,77.535,105.305z"/>
	<path d="M95.535,94.055c0,0-2.25,5.75,2.5,9.75s9.75,2,10.75,0.75s1.5-5.25-2.5-8.75S96.535,92.805,95.535,94.055z"/>
	<path d="M95.785,109.305c0,0-1,5.25,3.25,9s8.25,2.75,9.5,1s1.75-5.5-3-8.5S97.035,108.055,95.785,109.305z"/>
	<path d="M78.535,129.305c0,0,0.75-6-4.25-9c-5-3-10-0.25-10.75,2c-0.75,2.251-0.25,8.25,5.5,9.25S78.535,130.305,78.535,129.305z"
		/>
	<path d="M94.285,129.805c0,0,0.75-5.75,6.75-7c6-1.25,9.5,2.001,9.75,4.751c0.25,2.75-0.5,5.25-7,6S95.035,132.055,94.285,129.805z
		"/>
	<path d="M33.285,98.055c0,0-6.25-3.5-5.5-9.75s4.5-8.25,8.25-7.5s6.25,4.25,5,9S34.285,97.805,33.285,98.055z"/>
	<path d="M25.535,112.055c0,0-0.25-7.5-5.25-9.75s-8-0.5-9.25,2s-0.5,7,4.75,9S25.035,113.555,25.535,112.055z"/>
	<path d="M26.785,128.305c0,0-0.25-7-6.25-9.5s-9.5-0.25-10.25,2.5c-0.75,2.751-0.25,7,5.75,9.5S26.535,129.805,26.785,128.305z"/>
	<path d="M40.785,119.305c0,0-2-5.75,2.75-9.75s9.5-1.5,10.5,0.25s0.75,5.75-3.75,8.25S42.285,120.555,40.785,119.305z"/>
	<path d="M47.285,151.055c0,0,1-5.25-5.5-8.25s-10,0-11,1.5s-1,8,6.25,10S47.285,151.805,47.285,151.055z"/>
	<path d="M57.285,143.055c0,0-6.75-1.5-8.5-6.75s0.5-9.75,4.5-10.5s8.5,2.25,9.25,7S59.535,143.305,57.285,143.055z"/>
	<path d="M131.035,78.305c0,0-7-2.25-6.5-10.25s4-9.75,7.25-9.5s6.75,3.5,5.75,10.25S133.285,79.055,131.035,78.305z"/>
	<path d="M124.285,84.555c0,0,1.75-4.75-1-9.75s-8.5-5.5-11-3s-2.987,8.704,3.25,12.5C121.285,87.805,124.285,85.555,124.285,84.555
		z"/>
	<path d="M145.035,77.055c-2.75,0-5.25,1.75-5.25,1.75c-4.5,3-4.75,9.5-4.75,9.5s3.75,3.25,10,1.5V77.055z"/>
	<path d="M145.035,91.805c-9,1.5-8.75,9.25-8.75,9.25s2,4.25,8.75,2.75V91.805z"/>
	<path d="M123.785,100.555c0,0,1-4.75-4.5-9.5s-9.75-0.75-10.75,0s-2.739,6.907,5,10.5
		C120.535,104.805,123.785,100.555,123.785,100.555z"/>
	<path d="M121.535,118.305c0,0-4.75,1.25-9.25-1.25s-4.5-7-2-9.25s6.75-1.75,10,2.25S122.785,118.555,121.535,118.305z"/>
	<path d="M144.785,122.305c-3-1.5-8,0-10.25,6.75c-2.25,6.75,3.75,12.5,3.75,12.5s5-0.5,6.75-4.75L144.785,122.305z"/>
	<path d="M126.535,156.305c0,0-4.25-0.5-6-6.25s1.75-8.5,4-9.25s6.25,0.75,6.5,7.25S127.785,156.805,126.535,156.305z"/>
	<path d="M145.035,149.555c-6.25,0.75-6,8.5-6,8.5s2,3,5.75,3.5L145.035,149.555z"/>
	<path d="M120.285,170.305c0,0-6.25-1.5-7.5-7s0.25-8.75,4.5-9.25s6.5,2,7.25,7.25S121.285,170.555,120.285,170.305z"/>
	<path d="M144.785,166.305c0,0-3-1.75-7,1.5s-3,8.5-3,8.5s3.75,4.75,10.25,1.5L144.785,166.305z"/>
	<path d="M89.035,149.305c0,0-1,6,6.5,8.75s10.5-1.25,11-3.75s-1.75-6.25-7.5-7.75S89.035,147.555,89.035,149.305z"/>
	<path d="M64.535,155.805c0,0-2.25-5.5,1-10.75c3.25-5.25,9.25-5.25,11.25-3s2.75,6.75-1.5,10.75S66.035,157.055,64.535,155.805z"/>
	<path d="M54.535,170.805c0,0,1.25-6.25-3.75-9s-9.5,0-10.25,2.25s-0.25,7,6,9S54.535,170.805,54.535,170.805z"/>
	<path d="M72.785,178.555c0,0-5.25-3.5-4.25-10s6.25-6.25,8.5-5.5s5.5,4.25,3.25,9.25S75.035,179.555,72.785,178.555z"/>
	<path d="M31.035,176.805c0,0-6.75,0.5-9-6s1-9.75,3.5-10.25s8.5-0.25,9,7.5C35.021,175.578,31.035,176.805,31.035,176.805z"/>
	<path d="M40.535,190.055c0,0-4.5-3-3.25-9.5s6-7,8.5-6s5.25,4.25,3,9.25S42.785,190.805,40.535,190.055z"/>
	<path d="M28.785,195.555c0,0,1.25-7.25-4-10.75s-10.25-0.75-11.25,1.75s0,7.25,5.5,10.25S28.035,196.805,28.785,195.555z"/>
	<path d="M36.035,215.555c0,0-0.25-6.75-5-9.5s-9.5-1.75-11.5,1.75s1,7.75,6.25,9.5S34.785,216.805,36.035,215.555z"/>
	<path d="M57.535,219.805c0,0-3.75-4.75-2-9.5s7.25-6.25,10.25-4c3,2.25,4,6.5,0.25,10
		C62.285,219.805,59.535,220.805,57.535,219.805z"/>
	<path d="M67.285,199.555c0,0,0.75-6.75-5-9.5s-9.75,0.25-10.75,3.25s0.75,7.75,7,9S67.035,201.055,67.285,199.555z"/>
	<path d="M81.035,194.055c0,0-4.5-3.5-4-9s4.5-8,7.75-7.25s6.25,3.5,4.5,8.75S83.285,194.305,81.035,194.055z"/>
	<path d="M114.035,188.055c0,0-7-0.5-8.25-8s2-11.25,5.25-11.25s7.75,2.5,7.75,9S116.285,188.055,114.035,188.055z"/>
	<path d="M106.785,204.305c0,0-6.5,1-8.5-6s1.5-10,4.5-10.25s6.07,0.172,7.5,6.75C111.535,200.555,109.035,204.305,106.785,204.305z
		"/>
	<path d="M145.035,183.555c0,0-3.25-2.5-8-0.75s-6.25,8-6.25,8s2.25,2.5,7.25,3s6.5-2.75,6.75-3.5L145.035,183.555z"/>
	<path d="M93.285,218.555c0,0-5.75-1.5-6.25-8s3-8,5.25-8s6.25,0.5,6.25,7.5S95.285,219.055,93.285,218.555z"/>
	<path d="M119.535,210.305c0,0,0.5-5.75,6.75-8s10.25,0.5,10.5,3s-1.5,6-6.75,7S120.285,212.555,119.535,210.305z"/>
	<path d="M67.285,230.555c0,0-0.5-5.5,2.25-8.75s7.5-4,10-1s1,8.5-4,9.5L67.285,230.555z"/>
	<path d="M145.285,200.555c-9,2.25-10,14.25-10,14.25s2.75,2.25,9.75-1.5L145.285,200.555z"/>
	<path d="M140.535,228.305c-2.5-3-2.25-5.75-2.25-5.75s2.75-2.592,6.75-1.921c0,0,0.75,4.671-3.25,7.296L140.535,228.305z"/>
	<path d="M122.227,229.868l1.115,0.875c5.429-6.91,13.404-16.386,13.484-16.481l-1.084-0.912
		C135.663,213.444,127.672,222.938,122.227,229.868z"/>
	<path d="M129.535,222.264c3.132,0,9.526,1.467,9.591,1.481l0.318-1.381c-0.269-0.062-6.616-1.519-9.909-1.519V222.264z"/>
	<path d="M128.879,168.788c-4.95,12.128-16.703,32.963-22.352,42.976l-0.109,0.194c-5.414,9.598-11.642,18.093-11.704,18.178
		l1.143,0.84c0.062-0.086,6.338-8.646,11.796-18.321l0.109-0.194c5.662-10.038,17.445-30.926,22.43-43.137
		c4.962-12.157,9.239-29.425,9.282-29.598l-1.377-0.34C138.055,139.558,133.802,156.727,128.879,168.788z"/>
	<path d="M106.113,202.03c0.395,1.183,1.196,6.092,1.472,7.883l1.4-0.215c-0.041-0.269-1.015-6.577-1.528-8.116L106.113,202.03z"/>
	<path d="M105.594,214.123l0.383,1.365c0.511-0.143,12.581-3.528,17.304-5.268l-0.49-1.33
		C118.121,210.611,105.719,214.087,105.594,214.123z"/>
	<path d="M113.097,185.473c0.615,2.53,2.128,9.52,1.743,11.443l1.391,0.277c0.516-2.579-1.522-11.094-1.757-12.057L113.097,185.473z
		"/>
	<path d="M114.177,198.194l0.717,1.223c0.144-0.084,14.428-8.425,19.953-8.905l-0.123-1.412
		C128.882,189.607,114.774,197.843,114.177,198.194z"/>
	
		<rect x="111.887" y="175.845" transform="matrix(-0.0693 -0.9976 0.9976 -0.0693 -46.8445 309.4038)" width="18.045" height="1.418"/>
	<path d="M123.475,180.919l0.621,1.273c0.107-0.053,10.775-5.257,15.196-6.977l-0.514-1.32
		C134.302,175.635,123.914,180.704,123.475,180.919z"/>
	<path d="M126.085,153.163c0.082,0.532,2.014,13.067,2.763,16.064l1.375-0.344c-0.733-2.935-2.717-15.807-2.737-15.936
		L126.085,153.163z"/>
	<path d="M131.896,161.462l0.777,1.186c2.484-1.628,7.587-4.858,9.11-5.43l-0.498-1.326
		C139.236,156.661,132.195,161.267,131.896,161.462z"/>
	<path d="M130.827,74.841c0.016,0.289,1.399,29.356-6.734,67.064l1.385,0.299c8.176-37.904,6.78-67.145,6.766-67.436L130.827,74.841
		z"/>
	<path d="M121.879,84.135c0.073,0.051,7.364,5.185,9.014,8.719l1.285-0.6c-1.81-3.877-9.174-9.062-9.486-9.281L121.879,84.135z"/>
	<path d="M130.709,91.143l1.152,0.824c1.176-1.646,5.564-5.068,5.609-5.103l-0.871-1.119
		C136.413,85.891,132.004,89.33,130.709,91.143z"/>
	<path d="M121.127,99.634c0.066,0.046,6.616,4.686,8.266,8.22l1.285-0.6c-1.81-3.876-8.453-8.582-8.734-8.78L121.127,99.634z"/>
	
		<rect x="133.952" y="97.731" transform="matrix(-0.5183 -0.8552 0.8552 -0.5183 116.7414 270.8691)" width="1.417" height="9.647"/>
	<path d="M120.034,116.556c0.055,0.055,5.455,5.47,7.139,8.357l1.225-0.715c-1.776-3.044-7.134-8.417-7.361-8.644L120.034,116.556z"
		/>
	<path d="M86.326,31.808c0.003,0.495,0.244,49.646-0.249,63.471c-0.504,14.098-6.566,68.13-7.492,73.914l1.4,0.225
		c0.927-5.796,7.003-59.955,7.508-74.087c0.495-13.854,0.253-63.034,0.251-63.529L86.326,31.808z"/>
	<path d="M81.96,148.76c0.069,0.007,6.997,0.756,10.903,1.732l0.344-1.375c-4.002-1-10.809-1.736-11.097-1.768L81.96,148.76z"/>
	<path d="M76.653,129.402l6.515,4.17l14.062-3.835l-0.389-1.363c0,0-12.86,3.508-13.438,3.665c-0.486-0.31-5.985-3.83-5.985-3.83
		L76.653,129.402z"/>
	<path d="M86.006,99.903c-1.759,0.754-10.679,5.573-11.058,5.778l0.674,1.247c0.087-0.047,8.237-4.449,10.543-5.533
		c1.877,1.661,10.885,9.624,12.935,11.219l0.871-1.119c-2.207-1.716-13.105-11.374-13.216-11.471l-0.336-0.298L86.006,99.903z"/>
	<path d="M86.642,86.965c-0.578,0.386-9.714,5.714-14.463,8.477l0.713,1.225c0.517-0.301,11.761-6.843,14.118-8.265
		c1.648,1.156,8.273,5.83,11.067,8.194l0.916-1.082c-3.238-2.74-11.215-8.305-11.553-8.54l-0.396-0.276L86.642,86.965z"/>
	<path d="M86.338,67.755l-10.75,8.75l0.895,1.1c0,0,9.681-7.88,10.377-8.446c2.178,1.22,12.774,7.177,14.74,8.706l0.871-1.119
		c-2.268-1.763-14.808-8.762-15.341-9.06l-0.419-0.234L86.338,67.755z"/>
	<path d="M86.671,50.947l-11.251,6.75l0.729,1.215c0,0,10.107-6.064,10.851-6.51c2.035,1.457,11.85,8.403,15.353,9.337l0.365-1.369
		c-3.581-0.955-15.15-9.305-15.268-9.39l-0.379-0.274L86.671,50.947z"/>
	<path d="M76.975,38.942l9.995,4.869l13.262-3.826l-0.393-1.361c0,0-12.235,3.529-12.738,3.674
		c-0.466-0.227-9.505-4.631-9.505-4.631L76.975,38.942z"/>
	<path d="M36.848,143.727l1.375-0.344c-0.05-0.199-4.968-20.262-4.23-49.561l-1.417-0.036
		C31.833,123.292,36.797,143.526,36.848,143.727z"/>
	
		<rect x="21.399" y="113.346" transform="matrix(-0.8321 -0.5547 0.5547 -0.8321 -11.6763 224.5742)" width="13.521" height="1.418"/>
	<path d="M23.629,127.635c0.409,0.287,10.047,7.03,11.805,8.035l0.703-1.23c-1.702-0.973-11.596-7.896-11.695-7.965L23.629,127.635z
		"/>
	<path d="M34.522,127.065l1.024,0.981c0.229-0.239,5.623-5.911,7.156-10.255l-1.337-0.472
		C39.935,121.375,34.577,127.009,34.522,127.065z"/>
	<path d="M56.086,139.421c0.053,0.32,5.363,32.322,14.045,53.157c8.686,20.845,21.959,38.236,22.092,38.409l1.125-0.863
		c-0.133-0.172-13.297-17.423-21.908-38.091c-8.617-20.682-13.903-52.523-13.955-52.843L56.086,139.421z"/>
	
		<rect x="86.026" y="222.221" transform="matrix(-0.0491 -0.9988 0.9988 -0.0491 -124.4004 327.4278)" width="15.268" height="1.418"/>
	<path d="M43.718,150.689c0.145,0.072,14.486,7.247,16.674,8.706l0.786-1.18c-2.261-1.507-16.232-8.497-16.826-8.794L43.718,150.689
		z"/>
	<path d="M60.326,161.555l1.414,0.049c0.135-0.671,2.626-4.217,4.856-7.117l-1.123-0.863
		C63.125,156.675,60.326,160.53,60.326,161.555z"/>
	<path d="M51.934,169.671c0.104,0.059,10.517,6.012,13.221,7.732l0.761-1.195c-2.732-1.739-12.85-7.523-13.278-7.768L51.934,169.671
		z"/>
	<path d="M67.651,185.739l1.268,0.634c0.487-0.977,5.684-10.38,5.736-10.475l-1.24-0.686
		C73.2,175.601,68.152,184.737,67.651,185.739z"/>
	<path d="M77.146,205.256c-1.33-0.777-12.504-7.312-12.504-7.312l-0.716,1.223l13.988,8.182l0.287-0.805
		c1.243-3.48,4.381-14.331,4.514-14.792l-1.361-0.393C81.324,191.463,78.522,201.153,77.146,205.256z"/>
	<path d="M29.851,173.739c0.037,0.14,3.807,14.163,8.019,25.562c3.064,8.289,9.677,20.309,13.23,26.767
		c1.283,2.333,2.392,4.348,2.513,4.712l1.345-0.448c-0.155-0.467-0.914-1.854-2.615-4.946c-3.535-6.426-10.115-18.386-13.143-26.576
		c-4.189-11.336-7.942-25.298-7.979-25.438L29.851,173.739z"/>
	<path d="M37.112,197.082l1.345,0.448c0.488-1.466,3.705-9.633,3.737-9.715l-1.318-0.52
		C40.742,187.633,37.613,195.581,37.112,197.082z"/>
	<path d="M24.945,195.177c0.341,0.186,8.406,4.564,14.189,5.82l0.301-1.385c-5.583-1.214-13.729-5.635-13.811-5.68L24.945,195.177z"
		/>
	<path d="M32.253,214.706c0.132,0.057,13.272,5.762,16.715,7.483l0.634-1.268c-3.476-1.738-16.243-7.281-16.784-7.517
		L32.253,214.706z"/>
	<path d="M53.165,228.711l1.239,0.688c1.262-2.271,4.652-11.459,4.796-11.849l-1.33-0.49
		C57.835,217.155,54.375,226.535,53.165,228.711z"/>
</g>
</svg>
