<?xml version="1.0" encoding="iso-8859-1"?>
<!-- Generator: Adobe Illustrator 19.1.0, SVG Export Plug-In . SVG Version: 6.00 Build 0)  -->
<svg version="1.1" id="&#xB808;&#xC774;&#xC5B4;_1" xmlns="http://www.w3.org/2000/svg" xmlns:xlink="http://www.w3.org/1999/xlink"
	 x="0px" y="0px" viewBox="0 0 153.07 238.11" style="enable-background:new 0 0 153.07 238.11;" xml:space="preserve">
<rect style="fill:#E60012;" width="153.07" height="238.11"/>
<g>
	<path style="fill:#FFFFFF;" d="M7.535,16.088v173.667l138.167,2.667V30.588l-6.167-16.5l-18.667-2.333h-12.833L17.201,7.588
		C17.201,7.588,9.535,7.755,7.535,16.088z"/>
	<path style="fill:#E60012;" d="M71.201,161.588c0,0-2.999,0.834-4.833,3.167c-1.833,2.333-0.833,4.5-0.833,4.5l0.833,3.5l5.5,1.667
		l6.833-0.667l4.667-4.667l-0.5-5.166l-2.833-1.834l-3.834-2.333L71.201,161.588z"/>
	<path style="fill:#E60012;" d="M47.201,191.755l-10.166-4.667l-8.334-2l-8.666,2.834l-5.334,6.666l9.834,8.167
		c0,0,13-2.333,13.5-2.5c0.5-0.167,7-4,7-4L47.201,191.755z"/>
	<path style="fill:#E60012;" d="M96.368,209.755l-6.5-4.667c0,0-3.666-2.666-2.833-3.833c0.833-1.167,3.833-7.333,3.833-7.333
		s7.333-1.334,8-1.334s11.167,2.334,11.167,2.334s5.833,7.833,5.833,8.333s-2.833,8.333-2.833,8.333l-10.167,1.5L96.368,209.755z"/>
	<path style="fill:#005BAC;" d="M44.785,94.88c0,0-2.75-1.375-5.375-3.25s-5.5-5.625-8.875-8.5s-6.75-4.75-10.75-1.875
		s-3.75,14.25-3.625,16.75s-0.375,6.375-1.25,9s-4.875,6.875-4.875,6.875l0.625,1.375c0,0,2-1.375,3-1.5s6.125-0.25,10.875-2.5
		s9.5-8.375,11.625-11s5.75-4.25,8.25-4.75L44.785,94.88z"/>
	<path style="fill:#005BAC;" d="M60.285,86.88c0,0-2.125-6-2.875-8s-3.5-5.125-3.75-5.625c0,0-0.125,4.125-0.625,5.625
		s-3.625,10-5.625,14.625s-3.875,14.5-1.25,21.25s5.875,8.875,7.75,11.125s4.125,4,4.5,6.375c0,0,1.625-0.875,2.875,0.25
		c0,0,2-6.375,3.625-9.5c1.625-3.125,5-5.125,6.625-11.125s-1.375-10.125-2.125-10.75c0,0,4.125,0.125,8.75,5.625
		s8.75,6.625,12.5,7.375s11.5-1.625,13.125-2s5.875-1.375,5.875-1.375s-3.25-1.125-5-3.25s-6.5-10.75-8.625-15.625
		s-3.5-9.75-10.375-12.625s-13.375-0.625-13.75-0.5s-0.125,1.125-0.125,1.125s3,0,5.25,2.125s3.875,3.875,3.875,3.875
		s-3,1-5.125,1.75s-7,1.375-8.625,0.75c0,0,3.25,2.5,5,4.875s4.25,4.375,5.5,4.5c0,0-2.75,1.5-6.5,1.375s-7.125-2.375-7.125-2.375
		s-0.625,1.875-3.5,2.25s-9.5-1.625-9.5-1.625l2.125-2L60.285,86.88z"/>
	<path style="fill:#005BAC;" d="M105.535,173.755l40,0.833v46.167c0,0-0.501,8-6.667,9s-19.833,0.5-19.833,0.5l-9.5-0.333
		l1.5-27.167c0,0-0.834-3.667-3.167-5l16-12.667l-18.833-10.166L105.535,173.755z"/>
	<polygon style="fill:#005BAC;" points="90.202,230.422 89.035,210.588 64.701,229.755 	"/>
	<path style="fill:#005BAC;" d="M7.535,186.588l12.333,8.667l0.667,32.667l-3.167,2.166c0,0-8.5-0.166-9.833-8.166V186.588z"/>
	<path style="fill:#FDD000;" d="M90.202,230.422l-1.334-27.167l0.167-1.667c0,0,2.667,5.168,11.167,5.334s10.833-4.167,10.833-4.167
		l-0.167,1.833l-1.333,25.334L90.202,230.422z"/>
	<path style="fill:#FDD000;" d="M17.368,230.088l3.167-2.166l-0.667-32.167c0,0,2.833,4.334,11.167,3.667
		c8.333-0.667,11.166-4.167,11.166-4.167l-0.333,16.667l54.667-41.5l27.333,14.666l-15.5,12.5c0,0-3.833-1.833-7.333-2.333
		s-12.333,0.333-12,6.333l0.167,8.334l-24.667,20.5l-41.834-0.334H17.368z"/>
	<path style="fill:#FDD000;" d="M66.201,193.755l-0.5-5.333l-0.166-19.167c0,0,2,3.999,7.5,3.833c5.5-0.166,7.667-4.833,7.667-4.833
		s0.499-0.499,0.666,0.667s-0.333,13.666-0.333,13.666L66.201,193.755z"/>
	<path style="fill:#FDD000;" d="M65.035,194.088l-22.834,17.334l-0.5-1.834l0.5-14.333c0,0-0.167-5.667-8-7.5
		c-7.833-1.833-13.666,2.167-14.333,7.5l-12.333-8.667l-0.167-26.833L65.035,194.088z"/>
	<path style="fill:#FDD000;" d="M59.368,131.755c0,0-2.833,1.167-3,6c-0.167,4.833,2,9.167,3.667,9.5c0,0,2.833-1.499,3.333-7.333
		S60.202,131.755,59.368,131.755z"/>
	<path style="fill:#FDD000;" d="M51.035,97.38c0,0,3.999,1.874,7.166,2.041s5.334-0.833,6.334-4c1-3.166,4.833-12.999,7.833-16.833
		c0,0-3.5-0.333-7.667,3c-4.166,3.333-8.833,10.833-8.833,10.833S51.868,97.005,51.035,97.38z"/>
	<path style="fill:#FDD000;" d="M46.868,94.088c0,0,3.334-7.166,4-9c0.667-1.833,1.5-3.833,1.5-3.833s-1.5-2.499-4.167-3.166
		c-2.666-0.667-5.333,3.499-5.166,6.333C43.201,87.255,46.868,94.088,46.868,94.088z"/>
	<path style="fill:#FDD000;" d="M65.035,194.088l-5.667-3.5c0,0-3.666-23.332-3.5-30.666c0.167-7.334,2-14.167,2-14.167l1.667,1.833
		l6.5,45.167C66.035,192.755,66.368,194.421,65.035,194.088z"/>
	<path style="fill:#E60012;" d="M10.701,10.255c0,0,0.334,6.667,8.834,9.167s14.166-1.167,14.166-1.167s7.167,9,22.167,4
		c0,0-0.833,10.333,10.667,12c0,0-0.834,5.833,4.166,7.833s10.501-1,11.834-3c0,0,0.166,5.167,7.333,6.167s9.834-4,9.834-4
		s8.666,4.167,13.333-2.167s-1.333-10.5-1.333-10.5s5.333-4.5,1.333-12.167c0,0,1.667-2.5,5.167-1.5s4,3.833,4,6
		s-0.334,6.334,4.166,8.667c4.5,2.333,8.334-1.667,8.334-1.667s3.166,3.5,10.666,4.5l0.334-15.833c0,0-0.666-8-9.5-8.833
		L17.201,7.588C17.201,7.588,13.034,7.755,10.701,10.255z"/>
	<path d="M17.456,7.046c-5.861,0-10.63,4.769-10.63,10.63v202.658c0,5.861,4.769,10.63,10.63,10.63h118.158
		c5.861,0,10.63-4.769,10.63-10.63V17.676c0-5.861-4.768-10.63-10.63-10.63H17.456z M8.243,220.334V17.676
		c0-5.08,4.133-9.213,9.213-9.213h118.158c5.08,0,9.212,4.133,9.212,9.213v202.658c0,5.08-4.132,9.212-9.212,9.212H17.456
		C12.376,229.546,8.243,225.414,8.243,220.334z"/>
	<path d="M7.785,47.005c19.5,12,28.5,32,28.5,33s-2,1.5-3.5,0s-6.25-2.75-6.25-2.75s-5.5-17.5-19-28.75L7.785,47.005z"/>
	<path d="M36.285,80.005l4,1.75l1.25-0.75l1.25-5.25l6,1.75c0,0-2.25-9.25-7.5-17.75s-9.25-14-10.5-17.5
		C30.785,42.255,27.285,52.005,36.285,80.005z"/>
	<path d="M50.035,72.755l3.25-5.5l4.5,3.75c0,0-0.75-11.25-9.25-27s-15.75-18.75-15.75-18.75s7.25,12.75,10.25,23.25
		S50.035,72.755,50.035,72.755z"/>
	<path d="M63.785,78.005c0,0,4.25-3.5,6.25-3.75s5,1,7.5,0c0,0-3.75-25.5-18.5-37.75C59.035,36.505,68.285,47.505,63.785,78.005z"/>
	<path d="M88.035,74.255c0,0,5.5,0.75,8.25,3s2.75,4.75,2.75,4.75s3.25-0.75,4-3.25s15.5-33.25,42-46.5
		C145.035,32.255,114.535,29.005,88.035,74.255z"/>
	<path d="M90.424,197.083c-1.078,0.992-2.36,2.815-2.348,5.862c0,1.068,1.441,26.277,1.502,27.35l1.414-0.08
		c-0.518-9.072-1.498-26.435-1.498-27.21c-0.009-2.098,0.627-3.717,1.89-4.88c1.753-1.613,4.643-2.257,8.59-1.914
		c10.582,0.92,10.369,6.267,10.354,6.493c-0.001,0.012-1.501,27.512-1.501,27.512l1.416,0.078l1.5-27.5
		c0.022-0.267,0.416-6.946-11.646-7.995C95.736,194.42,92.482,195.188,90.424,197.083z"/>
	<path d="M88.59,201.394c0.046,0.226,1.223,5.536,11.391,6.318c4.375,0.336,7.62-0.445,9.647-2.322
		c1.476-1.367,1.866-2.976,1.866-3.635h-1.418c0,0.013-0.06,1.344-1.411,2.595c-1.701,1.575-4.667,2.249-8.575,1.948
		c-9.011-0.692-10.07-5.006-10.111-5.189L88.59,201.394z"/>
	
		<rect x="74.826" y="160.498" transform="matrix(-0.6138 -0.7895 0.7895 -0.6138 -39.0567 388.6537)" width="1.418" height="86.763"/>
	<path d="M96.357,169.689l-79.328,60l0.854,1.131c0,0,78.231-59.17,78.961-59.722c0.755,0.42,23.937,13.298,25.658,14.255
		c-1.513,1.173-15.974,12.394-15.974,12.394l38.988,0.966l0.035-1.416c0,0-31.452-0.78-35.012-0.868
		c2.527-1.962,14.526-11.271,14.526-11.271l-28.342-15.746L96.357,169.689z"/>
	
		<rect x="75.702" y="204.196" transform="matrix(-0.6257 -0.7801 0.7801 -0.6257 -47.6944 417.8739)" width="1.417" height="32.367"/>
	<path d="M19.168,194.563l-0.079,0.31l-0.013,0.143l0.5,33l1.417-0.021c0,0-0.495-32.721-0.498-32.906
		c0.024-0.092,0.05-0.188,0.05-0.188c1.195-4.892,4.797-7.225,10.705-6.938c9.479,0.462,10.3,7.082,10.33,7.365
		c-0.007,0.001-0.504,16.405-0.504,16.405l1.417,0.043l0.5-16.5c-0.011-0.173-0.938-8.206-11.674-8.73
		C26.725,186.323,20.886,187.532,19.168,194.563z"/>
	
		<rect x="2.821" y="176.172" transform="matrix(-0.8591 -0.5117 0.5117 -0.8591 -23.0596 347.4124)" width="66.928" height="1.417"/>
	<path d="M7.392,187.595c0,0,11.489,7.659,11.826,7.884c0.469,1,2.804,4.735,11.567,4.735c7.872,0,10.83-3.292,11.764-4.749
		c1.104,0.618,11.89,6.658,11.89,6.658l0.692-1.236l-13.193-7.389l-0.309,0.738c-0.078,0.187-2.008,4.56-10.844,4.56
		c-8.779,0-10.316-3.982-10.331-4.023l-0.079-0.22l-0.197-0.138l-12-8L7.392,187.595z"/>
	
		<rect x="6.046" y="179.921" transform="matrix(-0.8711 -0.4911 0.4911 -0.8711 -52.1638 347.5673)" width="26.978" height="1.417"/>
	<path d="M56.326,163.27c0.248,11.906,2.485,27.432,2.508,27.587l1.402-0.203c-0.022-0.155-2.247-15.596-2.493-27.413
		c-0.244-11.752,0.972-17.528,0.984-17.585l-1.385-0.301C57.291,145.593,56.077,151.323,56.326,163.27z"/>
	<path d="M55.826,139.755c0,5.243,2.187,7.296,3.041,7.904c0.484,4.514,6.217,43.74,6.467,45.448l1.402-0.205
		c-0.06-0.404-5.606-38.364-6.4-44.869c0.073,0.067,0.22,0.202,0.22,0.202c0.13-0.141,3.178-3.502,3.437-8.946
		c0.147-3.073-1.183-5.936-2.478-7.296c-0.599-0.628-1.181-0.947-1.73-0.947C58.314,131.046,55.826,132.881,55.826,139.755z
		 M59.859,146.625c-0.106-0.057-2.616-1.45-2.616-6.87c0-5.509,1.713-7.291,2.542-7.291c0.066,0.003,0.35,0.116,0.771,0.579
		c1.004,1.103,2.031,3.344,2.031,5.773c0,0.135-0.003,0.27-0.01,0.404c-0.175,3.676-1.789,6.344-2.601,7.466
		C59.924,146.659,59.859,146.625,59.859,146.625z"/>
	<path d="M72.763,161.047c-2.646,0.082-4.712,0.924-6.141,2.499c-2.251,2.483-2.054,5.863-2.044,6.006l0,0
		c0,0.023,0.498,19.222,0.498,19.222l1.417-0.037l-0.5-19.25c-0.003-0.056-0.161-2.969,1.688-4.997
		c1.16-1.274,2.886-1.956,5.126-2.026c2.797-0.087,4.88,0.514,6.192,1.784c1.372,1.331,1.577,3.082,1.577,4.008l-0.25,13.487
		l1.418,0.025l0.25-13.5c0-1.162-0.262-3.344-2.009-5.038C78.388,161.682,75.957,160.946,72.763,161.047z"/>
	<path d="M80.076,166.755c0,0.056-0.292,5.541-6.791,5.541c-6.081,0-7.266-4.284-7.313-4.466l-1.374,0.347
		c0.014,0.056,1.468,5.537,8.687,5.537c6.7,0,8.209-5.153,8.209-6.959H80.076z"/>
	<path d="M118.535,230.255c0,0,5.5-29.75,27-49.25v8c0,0-9,10.75-10,24c0,0,3.25-9,10.25-14v10.75c0,0-5.25,8.75-5.5,19.5
		c0,0-2.592,0.75-4.671,1H118.535z"/>
	
		<rect x="103.532" y="173.671" transform="matrix(-0.9998 -0.0179 0.0179 -0.9998 245.9369 350.9555)" width="42.007" height="1.418"/>
	
		<rect x="122.784" y="183.671" transform="matrix(-0.9999 -0.0123 0.0123 -0.9999 263.5339 370.3865)" width="20.252" height="1.418"/>
	
		<rect x="118.784" y="188.421" transform="matrix(-0.9999 -0.0123 0.0123 -0.9999 255.4756 379.8367)" width="20.252" height="1.418"/>
	
		<rect x="113.033" y="192.796" transform="matrix(-0.9999 -0.0154 0.0154 -0.9999 255.5784 388.9756)" width="32.504" height="1.418"/>
	
		<rect x="111.283" y="202.046" transform="matrix(-0.9999 -0.0146 0.0146 -0.9999 253.847 407.3626)" width="34.254" height="1.418"/>
	<rect x="125.201" y="192.754" transform="matrix(-0.0083 -1 1 -0.0083 -80.9238 335.5009)" width="1.418" height="30.251"/>
	<rect x="110.702" y="211.713" width="34.5" height="1.418"/>
	<rect x="127.243" y="199.504" transform="matrix(-0.0097 -1 1 -0.0097 -88.0565 347.3)" width="1.418" height="35.502"/>
	<rect x="127.243" y="203.755" transform="matrix(-0.0041 -1 1 -0.0041 -93.0276 350.362)" width="1.418" height="35.5"/>
	<rect x="126.076" y="209.004" transform="matrix(-0.0097 -1 1 -0.0097 -97.9008 354.8835)" width="1.418" height="33.836"/>
	<rect x="79.159" y="215.504" transform="matrix(-0.0083 -1 1 -0.0083 -145.1366 307.3988)" width="1.418" height="20.335"/>
	
		<rect x="82.16" y="214.087" transform="matrix(-0.0241 -0.9997 0.9997 -0.0241 -136.155 309.2706)" width="1.416" height="14.003"/>
	<rect x="81.368" y="215.879" width="8" height="1.418"/>
	<rect x="12.327" y="188.752" transform="matrix(-0.031 -0.9995 0.9995 -0.031 -180.556 213.1325)" width="1.417" height="10.672"/>
	<rect x="7.699" y="196.38" transform="matrix(-0.9996 -0.027 0.027 -0.9996 22.4117 394.4793)" width="12.337" height="1.417"/>
	
		<rect x="12.826" y="195.171" transform="matrix(-0.0138 -0.9999 0.9999 -0.0138 -187.5986 217.6403)" width="1.418" height="12.334"/>
	<rect x="7.701" y="204.546" width="12.5" height="1.418"/>
	<rect x="7.534" y="209.129" transform="matrix(-0.9999 -0.0134 0.0134 -0.9999 24.7649 419.8422)" width="12.501" height="1.418"/>
	<rect x="7.533" y="213.547" transform="matrix(-0.9997 -0.0264 0.0264 -0.9997 22.0836 428.8009)" width="12.67" height="1.416"/>
	<rect x="7.533" y="218.213" transform="matrix(-0.9997 -0.0259 0.0259 -0.9997 22.2198 438.131)" width="12.837" height="1.416"/>
	
		<rect x="13.576" y="217.754" transform="matrix(-0.0138 -0.9999 0.9999 -0.0138 -209.1692 241.0303)" width="1.418" height="11.834"/>
	<path d="M95.535,171.255l1.25-1l5.75,3.167c0,0,0.499,0.667,4.333,0.5c0,0-0.5-9.5-0.5-14s0.334-7.667,0.334-7.667
		s3.5,8.666,6.333,14.833c2.833,6.167,10,13.5,10,13.5s-1.166-6.334-1.833-10c-0.667-3.666-0.668-14.666-1.334-24.166
		s-2.833-19.166-8.833-23s-12.049,0.062-13.5,6C95.702,136.922,95.035,156.922,95.535,171.255z"/>
	<path d="M70.368,161.922c0,0,2.833-0.334,5.833,0.166s5.001,1.834,5.084,6.167c0.083,4.333-0.25,12.833-0.25,12.833
		s0.166,0.668,1.333-0.166s7.834-6,7.834-6s-4.666-25.999,1-55c0,0-9.333-1-16.167-6.834c0,0-0.167,8.667-7.834,15.667
		C67.201,128.755,69.868,149.589,70.368,161.922z"/>
	<path d="M59.035,190.63l0.5-1.25c0,0-4.375-17.125-1.5-43.375c0,0-1.875-3-1.375-9.5c0,0-3.625,0-9.375-7.25
		s-7.75-17.25-7.75-17.25s-4.875,6.375-10.375,9c0,0,6.5,9.25,10.75,22.625s3.75,30.625,3.75,30.625s-4.625-9.75-6.875-15.25
		s-16.625-37-29.25-48.25l-0.125,7.25c0,0,7.25,5.25,8.625,20.125c0,0-4.25-4-8.375-7l-0.125,4.625c0,0,12.5,9.875,18,34.75
		L59.035,190.63z"/>
	<path d="M21.495,79.608c-2.174,0.708-3.831,2.461-4.792,5.068c-1.561,4.238-1.528,9.771-1.502,14.216
		c0.013,2.275,0.025,4.239-0.196,5.396c-0.631,3.314-2.988,7.785-5.84,9.528l-0.914,0.559l2.46,1.757l0.415-0.311
		c0.873-0.653,2.106-1.358,2.575-1.358c1.247,0,7.775-0.206,13.894-4.285c4.595-3.063,7.369-6.79,9.027-9.016l1.247-1.573
		c1.24-1.24,5.579-3.46,7.666-3.46l0.308-1.347c-0.045-0.021-4.444-2.15-6.517-3.903c-0.802-0.678-2.099-2.045-3.472-3.492
		c-2.35-2.475-5.012-5.28-6.927-6.557C27.233,79.702,24.271,78.704,21.495,79.608z M16.397,104.554
		c0.191-1.002,0.227-2.446,0.227-4.139c0-0.491-0.003-1.002-0.006-1.53c-0.004-0.58-0.007-1.179-0.007-1.792
		c0-3.959,0.146-8.465,1.422-11.926c0.817-2.217,2.129-3.634,3.9-4.211c2.293-0.747,4.778,0.102,6.208,1.056
		c1.783,1.188,4.501,4.052,6.684,6.353c1.461,1.54,2.724,2.87,3.585,3.598c1.321,1.118,3.422,2.324,4.946,3.138
		c-2.466,0.741-5.389,2.385-6.49,3.487l-1.382,1.729c-1.604,2.152-4.286,5.755-8.677,8.682c-5.901,3.934-12.387,4.048-13.108,4.048
		c-0.776,0-1.83,0.587-2.583,1.071C13.74,111.815,15.799,107.7,16.397,104.554z"/>
	<path d="M72.368,77.88c-0.245,0-6.068,0.071-10.892,6.273l-1.149,1.479c-4.026,5.19-7.207,9.289-9.874,11.215l-0.989,0.715
		l1.111,0.505c0.154,0.07,3.832,1.726,7.426,1.896c3.188,0.151,6.328-0.392,7.717-5.351c1.291-4.614,3.278-10.556,7.209-15.588
		l0.895-1.145H72.368z M61.447,86.5l1.148-1.477c2.997-3.854,6.409-5.094,8.305-5.506c-3.434,4.908-5.332,10.372-6.547,14.713
		c-1.066,3.81-3.111,4.467-6.284,4.316c-2.241-0.106-4.563-0.863-5.863-1.352C54.821,94.976,57.778,91.229,61.447,86.5z"/>
	<path d="M71.498,79.214l0.071,1.415c0.029-0.001,2.915-0.106,5.314,2.143c1.432,1.342,2.337,2.306,2.896,2.934
		c-1.374,0.386-4.286,1.206-4.286,1.206c-2.229,0.685-6.665,1.432-8.271,0.994l-0.373,1.367c2.044,0.558,6.911-0.345,9.061-1.006
		l6.301-1.772l-0.608-0.831c-0.043-0.056-1.068-1.412-3.749-3.925C74.999,79.062,71.64,79.206,71.498,79.214z"/>
	<path d="M67.505,89.226l4.339,4.839c1.114,1.226,3.022,2.622,4.269,3.48c-2.379,0.701-7.543,1.708-11.491-1.195l-0.84,1.142
		c5.924,4.356,13.862,1.058,14.197,0.915l1.239-0.527l-1.136-0.723c-0.036-0.023-3.606-2.305-5.189-4.045l-4.328-4.828
		L67.505,89.226z"/>
	<path d="M72.087,77.938l0.562,1.301c0.048-0.021,4.857-2.022,11.324,0.186c6.521,2.227,8.263,5.151,11.577,12.94
		c2.796,6.571,6.513,15.264,12.152,18.438c-2.273,0.396-5.306,0.923-5.306,0.923l-1.984,0.463c-3.607,0.89-9.06,2.234-13.417,0.254
		c-4.058-1.845-6.217-4.127-8.306-6.335l-2.002-2.037c-2.857-2.689-6.041-3.906-7.586-3.686l-1.396,0.199l0.993,1.002
		c0.034,0.034,3.392,3.495,2.472,8.71c-0.785,4.446-3.218,7.455-4.672,9.252l-0.878,1.131c-1.185,1.693-4.428,7.995-5.116,11.607
		l1.393,0.266c0.643-3.372,3.784-9.487,4.885-11.061l0.819-1.052c1.54-1.904,4.116-5.092,4.965-9.898
		c0.129-0.73,0.186-1.429,0.186-2.093c0-2.846-1.04-5.034-1.907-6.377c1.284,0.418,3.067,1.331,4.871,3.03l1.944,1.979
		c2.08,2.199,4.439,4.691,8.749,6.65c4.805,2.185,10.545,0.769,14.343-0.168l1.922-0.449l7.636-1.327l0.068-1.387
		c-6.301-1.615-10.476-11.427-13.523-18.591c-3.427-8.054-5.386-11.323-12.423-13.727C77.419,75.69,72.301,77.846,72.087,77.938z"/>
	<path d="M52.995,72.812c0.403,5.007-1.448,9.129-3.593,13.901c-2.103,4.679-4.485,9.982-4.908,16.999
		c-0.785,13.034,4.413,18.055,7.854,21.379l0.853,0.832c3.176,3.177,4.493,6.552,4.506,6.585l1.324-0.505
		c-0.057-0.149-1.427-3.68-4.828-7.082l-0.869-0.85c-3.202-3.093-7.503-7.246-7.503-17.74c0-0.806,0.025-1.65,0.079-2.534
		c0.407-6.757,2.633-11.712,4.786-16.503c1.854-4.124,3.573-8.064,3.718-12.547c1.198,1.744,3.131,5.27,4.939,11.7l1.364-0.384
		c-3.023-10.751-6.413-13.727-6.557-13.848l-1.303-1.107L52.995,72.812z"/>
	<path d="M46.809,77.832c-2.762,0.912-4.854,4.582-4.304,7.552c0.846,4.568,3.792,9.678,3.917,9.894l1.226-0.712
		c-0.029-0.05-2.949-5.116-3.749-9.439c-0.419-2.26,1.274-5.261,3.354-5.948c2.063-0.681,3.483,1.195,4.312,2.889l1.273-0.623
		C50.709,77.09,47.912,77.468,46.809,77.832z"/>
	<path d="M59.406,16.996c-2.105,1.248-3.726,3.527-4.231,5.948c-0.08,0.382-0.118,0.787-0.118,1.207
		c0,2.028,0.904,4.415,2.476,6.391c2.116,2.663,5.074,4.197,8.365,4.484c-0.032,0.275-0.068,0.567-0.068,0.954
		c0,1.071,0.201,2.493,1.022,3.837c1.056,1.729,2.859,2.894,5.359,3.462c5.599,1.272,8.769-1.245,10.129-2.78
		c0.85,1.785,3.015,4.914,7.974,5.295c5.598,0.431,8.603-2.469,9.59-3.651c1.775,0.817,7.534,2.933,12.274-1.364
		c1.989-1.802,3.045-4.116,3.045-6.505c0-0.88-0.143-1.77-0.436-2.649c-0.865-2.6-2.95-4.425-5.386-4.913
		c-0.066-1.492-0.687-5.557-5.398-7.766c-4.621-2.166-8.128,0.615-9.368,1.842c-2.096-1.438-4.618-2.073-6.611-1.553
		c-2.637,0.688-4.002,1.458-4.662,1.939c-1.012-0.778-3.585-2.515-6.765-2.792c-3.003-0.261-5.549,1.554-6.784,2.634
		c-0.634-1.418-2.111-3.872-5.071-4.773C63.009,15.716,61.114,15.983,59.406,16.996z M72.525,41.897
		c-2.107-0.479-3.606-1.423-4.457-2.807c-1.268-2.063-0.686-4.471-0.68-4.496l0.215-0.86l-0.887-0.022
		c-4.3-0.096-6.905-2.58-8.075-4.053c-1.646-2.07-2.462-4.593-2.079-6.427c0.426-2.044,1.792-3.967,3.566-5.018
		c0.963-0.571,2.474-1.141,4.2-0.615c3.403,1.035,4.513,4.809,4.523,4.848l0.349,1.225l0.858-0.941
		c0.029-0.032,2.985-3.235,6.414-2.937c3.543,0.308,6.395,2.799,6.425,2.824l0.518,0.457l0.48-0.516
		c0.01-0.011,1.003-1.045,4.484-1.954c1.858-0.484,4.464,0.339,6.337,2.003c0.928,0.825,2.437,2.555,2.115,4.882
		c-0.284,2.061-1.892,4.026-4.195,5.129c-2.439,1.168-5.145,1.116-7.238-0.14c-2.029-1.218-3.057-2.771-2.818-4.262
		c0.198-1.245,1.289-2.268,2.778-2.606c3.143-0.714,4.559,1.006,4.618,1.08l1.119-0.869c-0.079-0.104-1.989-2.516-6.052-1.593
		c-2.057,0.467-3.573,1.945-3.863,3.764c-0.335,2.092,0.937,4.17,3.489,5.702c2.502,1.501,5.709,1.577,8.579,0.203
		c2.728-1.306,4.639-3.687,4.987-6.214c0.037-0.267,0.055-0.534,0.055-0.801c0-1.872-0.902-3.731-2.532-5.226
		c1.093-1.062,3.9-3.182,7.642-1.428c4.811,2.255,4.604,6.79,4.594,6.981l-0.04,0.683l0.681,0.066
		c2.155,0.202,4.042,1.816,4.807,4.112c0.904,2.717,0.076,5.579-2.216,7.658c-4.878,4.42-10.918,1.055-11.172,0.91l-0.575-0.329
		l-0.369,0.553c-0.108,0.163-2.714,3.977-8.688,3.517c-5.885-0.453-7.148-5.258-7.199-5.462l-0.434-1.737l-0.875,1.563
		C81.809,38.937,79.218,43.418,72.525,41.897z"/>
	<path d="M105.679,14.406l0.379,1.365c1.484-0.412,3.772-0.311,5.537,0.843c1.265,0.827,2.019,2.029,2.239,3.574
		c0.608,4.258-2.612,7.71-2.646,7.744l1.026,0.978c0.152-0.16,3.729-3.972,3.021-8.922c-0.276-1.939-1.268-3.516-2.866-4.561
		C110.492,14.2,107.865,13.798,105.679,14.406z"/>
	<path d="M112.255,15.872l0.894,1.101c0.023-0.02,2.44-1.938,4.892-1.361c2.351,0.553,3.609,2.29,3.455,4.766
		c-0.166,2.64-0.505,8.05,5.811,10.215c6.42,2.201,8.378-3.045,8.396-3.099l-1.333-0.48c-0.06,0.164-1.531,3.978-6.604,2.238
		c-5.292-1.814-5.021-6.153-4.857-8.745c0.202-3.227-1.497-5.557-4.543-6.274C115.229,13.493,112.375,15.774,112.255,15.872z"/>
	<path d="M123.724,11.232l0.956,1.046c0.146-0.132,3.603-3.205,6.904-0.477c3.412,2.819,2.477,6.446,2.434,6.599l-0.275,1.015
		l1.046-0.123c0.189-0.023,4.652-0.516,5.212,3.396c0.609,4.267-1.01,6.444-1.026,6.466l1.117,0.872
		c0.07-0.089,1.465-1.911,1.465-5.448c0-0.641-0.045-1.337-0.153-2.09c-0.526-3.684-3.692-4.636-5.88-4.651
		c0.025-0.243,0.06-0.461,0.06-0.78c0-1.653-0.502-4.206-3.097-6.349C129.078,7.893,125.265,9.82,123.724,11.232z"/>
	<path d="M65.436,8.457c0.126,0.018,3.085,0.494,3.225,3.993c0.14,3.474-3.106,4.082-3.244,4.106l0.235,1.398
		c1.597-0.267,4.577-1.771,4.425-5.561c-0.15-3.765-2.974-5.14-4.445-5.34L65.436,8.457z"/>
	<path d="M20.699,20.276c7.614,1.871,11.449,0.007,12.86-0.997c1.131,1.474,4.556,4.907,12.283,5.183
		c9.503,0.34,11.311-2.546,11.485-2.876l-1.241-0.684c-0.016,0.025-1.619,2.45-10.193,2.144c-8.768-0.313-11.462-4.939-11.572-5.136
		L33.85,17.07l-0.668,0.703c-0.031,0.033-3.252,3.311-12.145,1.127c-10.229-2.513-9.187-8.914-9.139-9.185l-1.394-0.254
		C10.445,9.786,9.189,17.449,20.699,20.276z"/>
	<path d="M20.758,9.293c-0.299,1.161-0.016,2.451,0.841,3.835c0.768,1.24,2.053,1.88,3.717,1.85
		c2.032-0.036,4.479-1.145,5.804-2.162c0.689,1.13,2.43,2.696,6.898,2.813c4.533,0.12,6.547-1.33,7.414-2.353
		c1.114,1.104,3.742,2.727,8.954,1.329c2.508-0.673,4.008-1.774,4.459-3.273c0.619-2.059-1.041-3.967-1.111-4.047l-1.063,0.938
		c0.013,0.014,1.211,1.407,0.815,2.707c-0.299,0.981-1.497,1.779-3.467,2.307c-6.148,1.649-7.957-1.365-8.03-1.494l-0.748-1.306
		L44.7,11.852c-0.009,0.025-1.011,2.509-6.646,2.361c-5.54-0.146-5.967-2.608-5.982-2.712l-0.299-2.029l-1.02,1.766
		c-0.301,0.527-3.065,2.282-5.463,2.324c-1.169,0.021-1.982-0.365-2.486-1.179c-0.64-1.033-0.868-1.947-0.678-2.715
		c0.215-0.869,0.899-1.281,0.929-1.298l-0.7-1.232C22.305,7.165,21.133,7.838,20.758,9.293z"/>
	<path d="M69.152,10.414l0.431,1.35c0.334-0.104,8.228-2.428,12.112,9.379l1.346-0.442C78.704,7.517,69.247,10.383,69.152,10.414z"
		/>
	<path d="M78.343,13.447l1.05,0.951c0.138-0.151,3.432-3.664,8.724-1.648c6.341,2.416,5.431,7.976,5.389,8.212l1.395,0.254
		c0.013-0.069,1.187-6.946-6.279-9.79C82.401,9.057,78.382,13.402,78.343,13.447z"/>
	<path d="M90.713,13.242l0.978,1.026c0.14-0.132,3.494-3.228,8.873-2.152c5.168,1.034,4.934,9.031,4.931,9.112l1.416,0.054
		c0.015-0.379,0.283-9.285-6.069-10.556C94.717,9.501,90.873,13.089,90.713,13.242z"/>
</g>
</svg>
