<?xml version="1.0" encoding="iso-8859-1"?>
<!-- Generator: Adobe Illustrator 19.1.0, SVG Export Plug-In . SVG Version: 6.00 Build 0)  -->
<svg version="1.1" id="&#xB808;&#xC774;&#xC5B4;_1" xmlns="http://www.w3.org/2000/svg" xmlns:xlink="http://www.w3.org/1999/xlink"
	 x="0px" y="0px" viewBox="0 0 153.071 238.111" style="enable-background:new 0 0 153.071 238.111;" xml:space="preserve">
<rect style="fill:#E60012;" width="153.071" height="238.111"/>
<g>
	<path style="fill:#FFFFFF;" d="M7.39,16.26l0.166,204.999c0,0,0.625,8.625,9.375,9.625h118.874c0,0,9.625-1.125,9.75-10.5
		l0.125-204.374c0,0-1.5-8.375-9.875-8.875L16.807,7.26C16.807,7.26,8.099,7.385,7.39,16.26z"/>
	<path style="fill:#E60012;" d="M64.723,19.427L16.057,19.76c0,0,1.167,10.833,1.334,13.166c0.166,2.333,9.666,89,51.166,131.833
		l51.833-0.666l-0.5-1c0,0-22.333-23.668-35.166-56.667C71.89,73.427,65.056,38.427,64.723,19.427z"/>
	<path style="fill:#005BAC;" d="M23.557,68.385c0,0-12-4.875-15.875-8.625l-0.125,1.75c0,0,6.375,18.625,20,22
		C27.557,83.51,23.932,71.385,23.557,68.385z"/>
	<path style="fill:#005BAC;" d="M17.432,80.885c0,0-3.875,5.625-5.875,8.125s-3.625,6.875-3,11.25s7,7.5,8.5,8c0,0-1.5,6,4,9.5
		s7.125,2.875,7.125,2.875s1.375-4.375,1.75-5.75s1.125-5.375-1.125-8.875s-5.125-3-8.125-2.875c0,0,0.125-1,0.375-1.375
		s2.75-4.125,1-10s-4.125-10.875-4.125-10.875H17.432z"/>
	<path style="fill:#005BAC;" d="M7.557,113.26c0,0,2.5-0.75,5.125,0.25s4.25,5.25,3.25,10.125s-3.375,11.499-4.125,13.374
		s-2,9.75-2,9.75l-2.25-2.625V113.26z"/>
	<path style="fill:#005BAC;" d="M43.932,128.634c0,0-15.125,4.375-18.5,5.5s-9.375,5-9.625,10.125
		c-0.25,5.125,4.25,9.625,12.375,9.25s26.375-6.875,26.375-6.875S44.557,130.134,43.932,128.634z"/>
	<path style="fill:#005BAC;" d="M94.807,127.885c0,0-0.625-3.75-0.875-5.5s0.25-8.25,4.25-15.25c3.999-7,14.124-17,14.124-17
		s-0.5,3.375-0.625,4.75s-1.375,10.5-1.625,12.875S104.181,125.135,94.807,127.885z"/>
	<path style="fill:#FDD000;" d="M32.057,132.759c0,0-4.5-10.749-5.375-12.374l-4.25-1.5c0,0,1.375,9.625,4.125,15.124
		L32.057,132.759z"/>
	<path style="fill:#FDD000;" d="M28.682,118.76l-0.75,3.125c0,0,7.25,5.625,12.375,7.999l3.625-1.25l-0.5-1.749
		C43.432,126.885,35.557,124.76,28.682,118.76z"/>
	<path style="fill:#FDD000;" d="M28.307,175.884c0,0,1.5-9.25,0-20.25c0,0,3.25-0.25,5.375,9.125c0,0,3.5,1.875,6.125,9.625
		s1.875,18.75-0.625,25.25l-5.125-11.25L28.307,175.884z"/>
	<path style="fill:#FDD000;" d="M44.932,214.384c0,0,9.5,3,16.875,9.25l1.5,7.25l-13.375-0.125L44.932,214.384z"/>
	<polygon style="fill:#FDD000;" points="94.432,180.134 100.306,197.009 103.681,189.509 97.182,174.634 	"/>
	<path style="fill:#FDD000;" d="M102.056,123.01c0,0,1.375,9.499,4.375,13.874l2.375-2.5c0,0-3.375-12.124-3.25-15.374
		L102.056,123.01z"/>
	<path style="fill:#FDD000;" d="M102.806,101.01c0,0-1.375-4.125-1.875-5.125s-0.125-2.625,1.125-3.875s3.5-1.875,4.5-1.625
		s2.625,1.875,1.25,3.875L102.806,101.01z"/>
	<path d="M17.478,6.552c-5.861,0-10.63,4.769-10.63,10.63v203.658c0,5.861,4.769,10.629,10.63,10.629h118.158
		c5.861,0,10.629-4.768,10.629-10.629V17.182c0-5.861-4.768-10.63-10.629-10.63H17.478z M8.265,220.839V17.182
		c0-5.08,4.133-9.213,9.213-9.213h118.158c5.08,0,9.211,4.133,9.211,9.213v203.658c0,5.08-4.131,9.211-9.211,9.211H17.478
		C12.398,230.05,8.265,225.919,8.265,220.839z"/>
	<path d="M64.718,18.718l-49.436,0.339l0.068,0.766c9.251,104.398,52.127,145.06,52.559,145.458l0.208,0.191l53.839-0.691
		l-1.039-1.16C68.048,104.513,65.452,20.254,65.432,19.41l-0.017-0.697L64.718,18.718z M64.042,20.14
		c0.34,7.9,5.003,86.574,54.822,143.264c-2.838,0.037-49.631,0.637-50.191,0.645c-3.097-3.039-42.813-43.903-51.833-143.585
		C18.324,20.454,62.73,20.149,64.042,20.14z"/>
	<path d="M62.723,230.759c0,0-10.333-40.998-22-65.332l8.667-17.334l4.333-1.666c0,0,12.667,16.166,14.667,18.332h3.166
		c0,0-0.333,6.502,0.5,12.168c0,0,5.499-6.834,6.833-12.168l26.5-0.5c0,0-17.499,20.5-18.166,48c0,0,8.832-7.666,15.666-22.166
		s14.834-25.834,14.834-25.834l2.666-0.166l-1.5-1.334c0,0,12.666-20.998,21.5-30.832c0,0,0.832,0.166,0.5,1.166
		c-0.334,1-16.834,31.416-24.084,62.666c0,0,11.5-9,28.5-15.5v1.5c0,0-23.75,17.75-33,49H62.723z"/>
	<path d="M50.557,230.759c-18.75-63-43-87.5-43-87.5v18.5c0,0,6.25,7.5,8.75,12.75c0,0-4.5,0.25-8.5-7l-0.25,20
		c0,0,18.5,17,28,43.25H50.557z"/>
	<path d="M29.807,230.759c0,0-12.5-23-22.25-33.5v20.25c0,0,5.843,6.75,9.921,13.25H29.807z"/>
	<path d="M128.806,135.259c-4.193,8.166-15,20.75-15,20.75s-10-14-11-15.5c0,0,1.25-5,9.75-9.25
		c8.5-4.249,20.75-14.499,24.25-28.499C136.806,102.76,138.306,116.76,128.806,135.259z"/>
	<path d="M89.557,116.76c0,0-6.75-14.75-8.5-20.25c0,0,7.25-15.75,9.25-23.25c2-7.5,10.749-23.75,17.749-34.75s17.25-29.75,18-31.25
		l2.5,0.25c0,0-1.5,16.25-7.25,34S108.556,77.76,89.557,116.76z"/>
	<path d="M6.806,59.761c0.105,0.105,2.636,2.607,8.162,5.621c5.531,3.017,8.094,3.552,8.2,3.573l0.28-1.389
		c-0.024-0.005-2.503-0.537-7.802-3.428c-5.326-2.905-7.815-5.355-7.839-5.379L6.806,59.761z"/>
	<path d="M7.134,61.484c0.135,0.404,3.361,9.964,8.66,15.515c5.325,5.579,10.844,7.131,11.076,7.194l0.374-1.367
		c-0.054-0.015-5.388-1.528-10.425-6.806c-5.077-5.319-8.309-14.889-8.34-14.985L7.134,61.484z"/>
	<path d="M17.205,80.135l-2.716,3.95l-0.677,0.866c-1.936,2.438-5.965,7.513-5.965,12.81c0,6.244,4.151,9.045,8.386,10.906
		c-0.083,0.422-0.169,1.022-0.169,1.763c0,1.844,0.54,4.44,3.025,6.615c4.107,3.594,8.904,4.385,9.106,4.417l0.68,0.107l0.127-0.677
		c0.008-0.04,0.75-3.979,1.476-6.157c0.917-2.753,0.905-7.143-2.152-10.455c-2.093-2.268-4.856-2.259-6.671-1.933
		c0.77-1.398,1.675-3.614,1.675-6.395c0-1.206-0.17-2.514-0.597-3.9c-1.988-6.461-4.253-11.768-4.276-11.821l-0.507-1.182
		L17.205,80.135z M20.023,115.977c-2.093-1.831-2.542-4.02-2.542-5.561c0-1.101,0.229-1.871,0.252-1.944l0.19-0.613l-0.591-0.252
		c-5.729-2.412-8.066-5.265-8.066-9.847c0-4.802,3.821-9.615,5.658-11.928l0.701-0.896c0,0,1.223-1.778,2.025-2.946
		c0.768,1.898,2.314,5.874,3.731,10.479c0.373,1.213,0.522,2.364,0.522,3.43c0,4.236-2.358,7.121-2.388,7.156l0.817,1.109
		c0.176-0.073,4.336-1.761,6.956,1.077c1.705,1.848,2.311,4.089,2.311,6.088c0,1.093-0.181,2.113-0.462,2.957
		c-0.572,1.717-1.132,4.367-1.385,5.629C26.357,119.58,22.97,118.556,20.023,115.977z"/>
	<path d="M28.092,119.046c0.312,0.27,7.709,6.631,14.792,8.402l0.344-1.375c-6.751-1.688-14.134-8.034-14.208-8.098L28.092,119.046z
		"/>
	<path d="M24.093,134.084c-0.315,0.129-6.364,2.703-8.448,8.174c-0.865,2.271-0.517,4.773,0.98,7.047
		c1.968,2.986,5.561,5.014,9.153,5.164c5.936,0.246,20.127-2.965,28.846-7.324l-0.634-1.268c-8.538,4.268-22.383,7.416-28.154,7.176
		c-3.151-0.131-6.302-1.91-8.028-4.529c-0.801-1.215-1.209-2.5-1.209-3.75c0-0.685,0.122-1.361,0.37-2.012
		c1.864-4.893,7.553-7.324,7.611-7.348c0.009,0,19.691-6.229,19.691-6.229l-0.428-1.351L24.093,134.084z"/>
	<path d="M26.146,121.016c2.984,7.708,5.2,11.677,5.293,11.841l1.235-0.695c-0.019-0.033-1.728-3.096-4.116-8.919
		c2.501,2.081,6.771,5.272,11.252,6.931l0.492-1.328c-6.529-2.418-12.941-8.534-13.005-8.596L26.146,121.016z"/>
	<path d="M21.602,118.838c0.041,0.373,1.048,9.195,4.07,15.239l1.268-0.635c-2.907-5.814-3.919-14.672-3.93-14.761L21.602,118.838z"
		/>
	<path d="M7.467,112.638l0.673,1.247c0.098-0.051,2.42-1.22,5.478,1.182c2.827,2.221,1.863,10.262-0.478,16.7l-1.128,2.926
		c-1.672,4.209-3.251,8.186-2.406,13.674l1.4-0.215c-0.786-5.107,0.655-8.736,2.323-12.936l1.143-2.965
		c1.792-4.927,4.102-15.092,0.022-18.298C10.671,110.949,7.596,112.568,7.467,112.638z"/>
	<path d="M111.812,89.502c-0.088,0.085-8.881,8.673-14.611,18.141c-5.838,9.647-3.434,19.148-3.329,19.548l1.371-0.36
		c-0.011-0.042-0.506-2.01-0.506-5.006c0-3.539,0.689-8.512,3.677-13.447c4.225-6.98,10.152-13.486,12.892-16.34
		c-0.449,3.191-1.949,13.862-1.949,13.862c-1.662,10.521-6.617,17.856-14.332,21.211l0.564,1.3
		c8.182-3.558,13.426-11.266,15.168-22.29l2.539-18.065L111.812,89.502z"/>
	<path d="M104.595,90.084c-2.527,0.79-3.629,2.192-4.105,3.229c-0.545,1.184-0.576,2.578-0.084,3.727
		c0.709,1.654,1.199,4.321,1.203,4.348l1.395-0.254c-0.021-0.115-0.523-2.849-1.295-4.652c-0.338-0.787-0.312-1.749,0.068-2.576
		c0.512-1.113,1.633-1.966,3.24-2.469c1.227-0.383,2.039-0.213,2.416,0.506c0.406,0.775,0.168,1.83-0.053,2.001l0.852,1.134
		c0.891-0.668,1.119-2.499,0.469-3.767C108.368,90.66,107.302,89.238,104.595,90.084z"/>
	<path d="M108.401,134.783l1.309-0.545c-3.637-8.728-3.201-16.356-3.197-16.432l-1.414-0.091
		C105.077,118.038,104.632,125.734,108.401,134.783z"/>
	<path d="M101.601,123.075c0.031,0.343,0.807,8.476,4.586,15.278l1.238-0.687c-3.629-6.535-4.406-14.639-4.412-14.72
		L101.601,123.075z"/>
	<path d="M27.378,154.714c2.182,7.271,0.492,22.064,0.475,22.213l1.408,0.164c0.043-0.369,0.659-5.764,0.659-11.652
		c0-2.92-0.155-5.959-0.603-8.572c2.006,2.662,5.115,8.701,5.115,20.6c0,3.338-0.245,7.135-0.828,11.449l1.404,0.189
		c3.766-27.865-6.132-34.896-6.556-35.182l-1.646-1.111L27.378,154.714z"/>
	<path d="M33.132,164.828c0.124,0.092,12.27,9.6,5.489,35.754l1.372,0.355c7.039-27.148-5.477-36.846-6.013-37.246L33.132,164.828z"
		/>
	<path d="M93.887,180.49c0.053,0.152,5.249,15.252,5.737,16.965l1.363-0.389c-0.5-1.748-5.546-16.414-5.761-17.037L93.887,180.49z"
		/>
	
		<rect x="91.651" y="181.926" transform="matrix(-0.3738 -0.9275 0.9275 -0.3738 -31.0818 344.2835)" width="18.061" height="1.417"/>
	<path d="M44.058,214.673c0.099,0.037,9.989,3.789,17.802,10.137l0.894-1.1c-7.997-6.498-18.097-10.326-18.198-10.363
		L44.058,214.673z"/>
	<path d="M46.464,223.13c0.072,0.039,7.259,4.021,12.644,8.428l0.897-1.098c-5.486-4.488-12.783-8.531-12.856-8.57L46.464,223.13z"
		/>
</g>
</svg>
