<?xml version="1.0" encoding="iso-8859-1"?>
<!-- Generator: Adobe Illustrator 19.1.0, SVG Export Plug-In . SVG Version: 6.00 Build 0)  -->
<svg version="1.1" id="&#xB808;&#xC774;&#xC5B4;_1" xmlns="http://www.w3.org/2000/svg" xmlns:xlink="http://www.w3.org/1999/xlink"
	 x="0px" y="0px" viewBox="0 0 153.07 238.11" style="enable-background:new 0 0 153.07 238.11;" xml:space="preserve">
<rect style="fill:#E60012;" width="153.07" height="238.11"/>
<g>
	<path style="fill:#FFFFFF;" d="M7.785,18.221v203c0,0,0.5,8.5,11,9.334l116.667,0.166c0,0,9.166,0.5,9.833-10.334V17.555
		c0,0-0.166-8.999-9.333-10.166H17.285C17.285,7.388,8.285,7.054,7.785,18.221z"/>
	<path style="fill:#E60012;" d="M7.785,43.721c0,0,38.166-12.333,38.666-12.333s2.5-0.667,3.334,0.167
		c0.833,0.833,17.834,20.333,31.833,51.167c14,30.833,21.167,54.834,25.667,100.334l-36.667,4.166c0,0-2.833-21.332-8.833-44
		c-6-22.667-24.5-72.917-54.25-97.167L7.785,43.721z"/>
	<path d="M17.706,6.846c-5.861,0-10.63,4.769-10.63,10.63v203.158c0,5.861,4.768,10.631,10.63,10.631h117.658
		c5.861,0,10.63-4.77,10.63-10.631V17.476c0-5.861-4.769-10.63-10.63-10.63H17.706z M8.493,220.634V17.476
		c0-5.08,4.133-9.213,9.213-9.213h117.658c5.08,0,9.212,4.133,9.212,9.213v203.158c0,5.08-4.132,9.213-9.212,9.213H17.706
		C12.626,229.847,8.493,225.714,8.493,220.634z"/>
	<path d="M47.839,30.18L7.243,43.374v2.813l0.213,0.209c55.487,54.173,62.062,140.016,62.122,140.875l0.051,0.734l38.412-4.152
		l-0.049-0.682c-7.069-97.282-57.123-151.48-57.615-151.85c-1.413-1.06-2.214-1.142-2.426-1.142H47.839z M48.007,31.615
		c0.186,0.046,0.687,0.216,1.519,0.84c0.48,0.399,49.784,53.922,56.992,150.138c-1.303,0.141-34.229,3.699-35.589,3.848
		c-0.731-8.217-9.208-88.836-62.269-140.841c0-0.295,0-0.739,0-1.196C9.611,44.094,47.688,31.719,48.007,31.615z"/>
	<path d="M100.952,31.221c0,0-7.001-0.333-8.834-7s3.334-8.833,4.667-9s7.501-0.667,8.167,6.833S102.452,31.721,100.952,31.221z"/>
	<path d="M97.452,44.388c0,0-2.333-4.833-10-4.5s-8.334,5-8.001,7c0.334,2,2.333,5.667,10.167,4.167S97.619,45.222,97.452,44.388z"
		/>
	<path d="M115.285,42.721c0,0,0.999-6.833,7.833-7.333s8.833,3.5,9,5c0.167,1.5-0.999,5.333-7.166,6
		C118.785,47.055,115.952,44.721,115.285,42.721z"/>
	<path d="M99.118,59.388c0,0-2.5-4.667-9.833-4.333c-7.827,0.356-8,5-8,6.333s2.333,5.667,9.333,5S99.118,60.722,99.118,59.388z"/>
	<path d="M118.785,57.721c0,0,1.166-5.5,7.833-5.833c6.667-0.333,8.168,3.833,8.334,5.333s-1.168,5.333-7.334,5.333
		S119.118,59.221,118.785,57.721z"/>
	<path d="M102.285,76.555c0,0-1.833-3.833-9-4.333s-8.333,4.333-8.333,5.5s0.5,5.5,8.833,5.5S102.285,77.555,102.285,76.555z"/>
	<path d="M121.452,74.388c0,0,3.5-5.834,10.5-4.167s7.166,6,6.666,7.5s-2.999,4.5-9.166,2.833
		C123.285,78.888,121.119,75.555,121.452,74.388z"/>
	<path d="M105.618,94.221c0,0-3.499-5-9.666-4.167c-6.167,0.834-8.334,5.5-7.834,7.5s2.666,5.667,10,4.334
		C105.452,100.555,105.951,94.888,105.618,94.221z"/>
	<path d="M121.618,92.721c0,0,3.001-6,9.834-5.167c6.833,0.834,7.5,5.167,7.333,6.667c-0.167,1.5-2.5,6.167-9,5.333
		C123.285,98.721,121.618,94.054,121.618,92.721z"/>
	<path d="M91.952,107.721c9.001-3,13.333,3.167,13.333,3.167s-1.167,5.666-9.667,7.333L91.952,107.721z"/>
	<path d="M120.285,109.055c0,0,2.166-6.333,9.833-5.833s7.666,6.334,7.5,7.167s-1.499,4.166-8.666,4.166
		C121.785,114.555,120.285,110.721,120.285,109.055z"/>
	<path d="M97.285,125.055c7.167,0.167,9.167,4.833,9.167,4.833s-1,4.5-6,6.667L97.285,125.055z"/>
	<path d="M119.785,128.555c0,0,3.333-4.499,9-3.833c5.667,0.666,7.167,4.333,7.167,5.333s-1.334,5.334-8.167,4.667
		C120.952,134.055,119.452,130.055,119.785,128.555z"/>
	<path d="M119.952,149.056c0,0,1-5.834,8-7c7-1.168,9.666,2.498,10.166,4.332s-1.999,5.834-8.666,6.5
		C122.785,153.556,120.452,150.222,119.952,149.056z"/>
	<path d="M126.618,179.056c0,0-5.167-5.166-2-11.334c3.167-6.166,7.667-6.834,10.667-5.834s4.333,5.666,2,11
		C134.952,178.222,127.951,180.222,126.618,179.056z"/>
	<path d="M127.618,197.388c0,0,1.334-6.832,7.667-7.332c6.333-0.5,8.499,2.334,8.833,4.666c0.334,2.334-0.666,6.5-7.833,7.166
		C129.118,202.556,127.784,198.388,127.618,197.388z"/>
	<path d="M109.118,202.056c0,0,5-3.168,4.167-9.168s-5.333-6.832-8-6.332s-5.333,4.498-3.5,9.332S108.118,202.056,109.118,202.056z"
		/>
	<path d="M121.618,215.056c0,0,2.166-6,7.5-7.834s9.166,1.668,9.5,4c0.334,2.334-0.666,6.166-6.666,7.166
		S122.618,216.722,121.618,215.056z"/>
	<path d="M98.952,218.388c0,0,4.5-2.5,3-8.832c-1.5-6.334-5.833-6.334-8.5-6c-2.667,0.332-5.5,4.334-3.5,9.166
		C91.952,217.556,97.452,218.222,98.952,218.388z"/>
	<path d="M116.285,230.388c0,0,1.334-6.166,8.167-7c6.833-0.832,9,4.334,6.833,7H116.285z"/>
	<path d="M86.452,197.556c0,0-3.501-3.5-2.334-7.334s3.834-4.666,5.167-5s6.5-0.334,6.5-0.334s1.333,4.334-0.5,8.168
		C93.452,196.888,89.785,199.056,86.452,197.556z"/>
	<path d="M75.951,224.556c0,0,3.001-5,0.667-9.834c-2.333-4.834-7.667-4.832-10.167-3c-2.5,1.834-2.499,7.5,0.167,10.666
		C69.285,225.556,74.784,225.056,75.951,224.556z"/>
	<path d="M71.118,201.888c0,0,1.334-5.998-5-9.666c-6.333-3.666-10.166,1-10.5,2c-0.333,1-1.333,7.168,6,9.5
		C68.951,206.056,70.785,202.888,71.118,201.888z"/>
	<path d="M50.785,230.722c0,0-4-2.334-5-6.834s4-6.998,9-4.666c5,2.334,7.833,8.5,8,11.166L50.785,230.722z"/>
	<path d="M52.785,219.722c0,0-2.5-5.666,0.333-10s7.5-4.834,9.5-3.166c2,1.666,2.334,6.332,0,9.332
		c-2.333,3-6.167,4.334-8.167,4.334S52.785,219.722,52.785,219.722z"/>
	<path d="M21.785,230.388c0,0-0.667-4.832,5.333-5.832s12.167,4.332,13.167,5.832H21.785z"/>
	<path d="M28.451,218.888c0,0-1.333-6.332-8.666-8.332c-7.334-2-10.334,3-10.334,4.5s0.5,6,8.5,7.166S27.618,220.388,28.451,218.888
		z"/>
	<path d="M40.951,210.556c0,0-3.833-3.666-2.5-10.334c1.334-6.666,5.834-8,8.667-7.166c2.833,0.832,5.834,5.334,3,11.166
		C47.285,210.056,42.284,211.556,40.951,210.556z"/>
	<path d="M30.785,188.722c0,0-4.834-4.166-3.334-9.5s5.834-7,8.834-5.834c3,1.168,4.833,4.668,3,9.834
		C37.451,188.388,32.285,189.89,30.785,188.722z"/>
	<path d="M20.785,183.388c0,0-5.833,0.334-8.667-6.332c-2.833-6.668,1.5-10.834,3.167-11.334c1.666-0.5,7,0.666,8.5,7.334
		C25.285,179.722,21.618,183.388,20.785,183.388z"/>
	<path d="M7.951,188.888c0.5-0.334,4.334-1.166,8.5,1.5c4.167,2.666,5,8.668,5,8.668s-6.833,4.5-13.5,1.666V188.888z"/>
	<path d="M69.951,182.888c-0.5,0.834-5.833,2.668-10.666-0.666c-4.834-3.332-5.334-8.5-5.334-8.5s2.834-2,7.334-1.834
		c4.5,0.168,6.833,2.166,7.5,3.5L69.951,182.888z"/>
	<path d="M51.451,156.888c0,0-0.333,4.5,4.5,8c4.834,3.5,10.167,1.668,11.167,1.168c0,0-1.167-7.834-1.833-9.5
		C64.618,154.888,55.284,152.388,51.451,156.888z"/>
	<path d="M46.285,136.556c0,0,0.166,3.832,5.166,7c5,3.166,10.001,1.498,10.667,0.832c0,0-1.833-7.998-2.333-8.665
		C59.285,135.055,50.785,130.888,46.285,136.556z"/>
	<path d="M55.618,123.388c0,0-3,2.668-8.333,1.501c-5.334-1.167-6.5-6-6.5-6s0.666-2.334,4-3.667c3.333-1.333,7.166,0,8,0.5
		C52.785,115.721,54.618,120.221,55.618,123.388z"/>
	<path d="M47.618,103.555c0,0-2.5,4.167-8.333,2.5c-5.834-1.666-6.5-5.666-6.5-5.666s1.5-2.667,4.833-4.5
		c3.333-1.834,6.833,1,6.833,1L47.618,103.555z"/>
	<path d="M25.451,91.055c0,0-7.167-2.167-7-9.333c0.167-7.167,3.5-9.167,6.5-9.167s6.167,3.167,6.334,8.834
		C31.451,87.055,27.284,90.888,25.451,91.055z"/>
	<path d="M7.618,100.555c0.667-2.166,2.667-4.333,7.5-3.666c4.834,0.667,7.333,5.666,7.333,5.666s-0.833,4-5.833,5.5
		s-8.166,0.333-9.333-1.833l0.666-5.167"/>
	<path d="M7.451,118.055c0.667-2,3.667-3.833,8.834-3.166c5.166,0.667,8.166,5.333,8.166,5.333s-2.166,4.834-8.333,5.334
		s-8-1.666-8.167-2.501L7.451,118.055z"/>
	<path d="M26.618,137.056c0,0-1.833-4.835-8.5-5.167c-6.667-0.333-8.667,3.666-8.333,6.499c0.333,2.834,2.333,4.834,8.833,4.168
		C25.118,141.888,26.618,138.722,26.618,137.056z"/>
	<path d="M29.785,152.722c0,0-2.834-4.5-9.834-4.5s-9,3.832-9,5.666s1.167,6.5,10,5.5C29.785,158.388,29.785,153.89,29.785,152.722z
		"/>
	<path d="M100.596,30.469c0.06,0.252,6.016,25.446,8.235,45.912l0.027,0.254c2.262,20.857,5.68,52.378-2.274,106.483l1.402,0.207
		c7.98-54.285,4.551-85.913,2.281-106.843l-0.028-0.254c-2.229-20.557-8.204-45.835-8.265-46.088L100.596,30.469z"/>
	<path d="M103.962,43.35c0.03-0.002-8.22,0.498-8.22,0.498l0.086,1.415l8.25-0.5c0.03-0.002,12.03-1.252,12.03-1.252l-0.146-1.41
		L103.962,43.35z"/>
	<path d="M106.761,57.347c-0.073,0.006-9.073,1.256-9.073,1.256l0.195,1.404l9-1.25c-0.073,0.006,14.177-0.494,14.177-0.494
		l-0.049-1.416L106.761,57.347z"/>
	<path d="M108.954,74.851c-0.032,0.004-7.782,1.254-7.782,1.254l0.227,1.399l7.75-1.25c5.153-0.594,13.073-1.486,13.638-1.491
		l-0.001-1.417C122.017,73.346,110.289,74.697,108.954,74.851z"/>
	<path d="M111.228,92.849c-0.036,0.003-7.536,1.003-7.536,1.003l0.188,1.405l7.5-1c-0.024,0.003,12.214-0.997,12.214-0.997
		l-0.115-1.412L111.228,92.849z"/>
	<path d="M111.703,109.351c0.021-0.002-8.729,0.748-8.729,0.748l0.121,1.412l8.75-0.75c1.126-0.131,10.846-1.265,11.861-1.519
		l-0.344-1.375C122.662,108.042,116.006,108.851,111.703,109.351z"/>
	<path d="M112.018,128.347c-0.029,0.001-7.529,0.501-7.529,0.501l0.094,1.414l7.5-0.5l0,0c0.024,0,9.971-0.249,9.971-0.249
		l-0.035-1.416L112.018,128.347z"/>
	<path d="M110.786,151.642l0.498,1.326c1.029-0.385,10.097-3.793,11.365-4.555l-0.728-1.215
		C121.044,147.724,114.782,150.144,110.786,151.642z"/>
	<path d="M101.449,230.157l1.172,0.797c16.866-24.803,25.508-53.162,25.593-53.445l-1.357-0.408
		C126.771,177.382,118.189,205.54,101.449,230.157z"/>
	<path d="M107.832,200.147c0.016,0.115,1.511,11.564,2.255,15.781l1.396-0.246c-0.739-4.186-2.23-15.604-2.245-15.719
		L107.832,200.147z"/>
	<path d="M109.377,217.864l0.316,1.381c0.492-0.111,12.106-2.783,16.361-4.535l-0.539-1.311
		C121.368,215.108,109.496,217.837,109.377,217.864z"/>
	<path d="M118.841,199.124l0.389,1.363c0.431-0.123,10.574-3.025,12.844-4.035l-0.576-1.295
		C129.318,196.126,118.945,199.095,118.841,199.124z"/>
	<path d="M97.627,216.819c0.756,1.889,4.554,11.357,5.068,12.129l1.182-0.783c-0.368-0.584-3.222-7.592-4.934-11.873L97.627,216.819
		z"/>
	<path d="M76.121,186.802c0.064,0.176,6.554,17.766,12.473,43.91l1.383-0.312c-5.942-26.242-12.462-43.916-12.527-44.092
		L76.121,186.802z"/>
	<path d="M68.979,202.444c0.124,0.059,12.48,5.994,14.663,7.451l0.786-1.18c-2.266-1.51-14.324-7.303-14.836-7.549L68.979,202.444z"
		/>
	<rect x="84.576" y="195.312" transform="matrix(-0.908 -0.4189 0.4189 -0.908 78.6581 418.6311)" width="1.417" height="10.738"/>
	<path d="M74.075,223.595c0.278,0.236,6.867,5.832,10.66,7.604l0.6-1.285c-3.62-1.689-10.273-7.34-10.341-7.396L74.075,223.595z"/>
	<path d="M19.117,181.292c0.096,0.27,9.721,27.104,25.843,49.428l1.149-0.83c-16.001-22.154-25.561-48.805-25.656-49.072
		L19.117,181.292z"/>
	<path d="M28.828,202.511l1.414,0.088c0.49-7.844,2.216-15.309,2.232-15.383l-1.38-0.322
		C31.077,186.97,29.325,194.544,28.828,202.511z"/>
	<path d="M18.072,198.481c0.359,0.113,8.801,2.764,10.073,3.02l0.278-1.391c-0.995-0.199-7.503-2.219-9.927-2.98L18.072,198.481z"/>
	<path d="M37.996,218.595c-2.019-0.012-12.772-1.23-12.881-1.244l-0.16,1.408c0.45,0.053,11.062,1.256,13.08,1.256
		c2.17,0,3.618-6.582,4.45-12.104l-1.401-0.211C40.249,213.237,38.837,218.212,37.996,218.595z"/>
	<path d="M24.584,87.906c0.1,0.694,10.284,69.826,33.097,107.019l1.208-0.74C36.229,157.241,26.086,88.395,25.986,87.704
		L24.584,87.906z"/>
	<path d="M27.221,100.349c-0.097,0.016-7.597,1.766-7.597,1.766l0.322,1.38l7.5-1.75c-0.098,0.016,8.152-0.734,8.152-0.734
		l-0.128-1.411L27.221,100.349z"/>
	<path d="M31.227,119.346c-0.116,0-10.191,0-10.191,0v1.417h10.309l12.058-2.009l-0.233-1.398
		C43.168,117.355,31.341,119.327,31.227,119.346z"/>
	<path d="M23.725,136.349l0.12,1.412l11.75-1c0.38,0.023,11.437,0.504,12.44,0.504v-1.419c-0.974,0-12.354-0.494-12.47-0.499
		C35.475,135.349,23.725,136.349,23.725,136.349z"/>
	<path d="M27.756,153.263c0,0,11.994,0.49,12.164,0.496c0.83,0.242,11.22,3.281,14.008,4.908l0.714-1.225
		c-3.041-1.773-13.947-4.934-14.41-5.068l-0.082-0.023l-12.336-0.504L27.756,153.263z"/>
	<path d="M47.079,172.233c2.279,0.691,8.453,2.613,9.639,3.205l0.634-1.268c-1.536-0.768-9.521-3.191-9.861-3.293L47.079,172.233z"
		/>
</g>
</svg>
