<?xml version="1.0" encoding="iso-8859-1"?>
<!-- Generator: Adobe Illustrator 19.1.0, SVG Export Plug-In . SVG Version: 6.00 Build 0)  -->
<svg version="1.1" id="&#xB808;&#xC774;&#xC5B4;_1" xmlns="http://www.w3.org/2000/svg" xmlns:xlink="http://www.w3.org/1999/xlink"
	 x="0px" y="0px" viewBox="0 0 153.07 238.111" style="enable-background:new 0 0 153.07 238.111;" xml:space="preserve">
<rect style="fill:#E60012;" width="153.07" height="238.111"/>
<g>
	<path style="fill:#FFFFFF;" d="M7.535,15.889l-0.25,204.999c0,0,1,9.75,10.5,9.75l119.25-0.25c0,0,8.25-0.25,8.5-11V18.139
		c0,0,1.5-10.25-11-11H17.785C17.785,7.139,8.785,6.889,7.535,15.889z"/>
	<path style="fill:#005BAC;" d="M45.035,95.222c0,0,3.5-5.334,3.833-12.834s0.833-12,1.167-14c0,0-6.834,6.834-9.334,9.834
		s-9.5,9.666-9.5,25.5c0,0-13,10.999-23.666,26.999v4c0,0,14.666-5.167,24-2c0,0,2.333-11.833,8.166-19.499
		c0,0,3.501-2.834,3.667-5.334C43.535,105.389,45.035,95.222,45.035,95.222z"/>
	<path style="fill:#FDD000;" d="M45.035,95.222c0,0-2.334,1.999-3.5,2.833c-1.167,0.833-5,4.333-6.5,5.5s-1.167,3.667-0.5,4.667
		c0.666,1,1.667,0.333,2.333,0.333c0.667,0,5.334-0.833,6-0.833c0.667,0,5-1,5-1s-0.5-5.5,0.5-8.5
		C48.368,98.222,46.868,94.389,45.035,95.222z"/>
	<path style="fill:#FDD000;" d="M60.368,103.722c0,0,7-4.334,8.333-9.667c0,0,3.334,3,0.667,9.667c0,0,3,0.666,5.667,3.333
		c0,0-1.667,0.667-3.834,1.167c-2.166,0.5-7.333,2-11-2L60.368,103.722z"/>
	<path style="fill:#005BAC;" d="M56.535,80.722c0,0-1.834,5.833-3.5,8.833c-1.667,3-9.167,10.166-3.167,23c0,0-5.833,2.5-8.5,10
		c-2.667,7.5-0.833,13.667,5,17.5c5.833,3.833,13.166,6.499,16.333,12.166c0,0,3.5-8.333,5.334-10.833
		c1.833-2.5,6.5-5.999,8.666-11.333c2.167-5.334,2.834-11.833-3.5-16.333c-6.333-4.5-12.833-1.834-14.333,0.666l-3-2
		c0,0,5.5-3.333,4.833-11.833C60.035,92.055,56.535,80.722,56.535,80.722z"/>
	<path style="fill:#005BAC;" d="M66.201,98.055c0,0-4.333-6.167-3.5-12.667c0.834-6.5,5.5-19.333,5.5-19.333s1.333,5.166,2.5,8.5
		c1.167,3.333,3.834,8.666,5.334,11c1.5,2.333,3.668,8,1.667,13.667c0,0,9.833,0.166,17.833,5.666s11.5,11.667,10.5,25.999l-1-0.167
		c0,0-5-13.167-25.167-9.5c0,0,4.333-10.333-7.333-13.166l2.5-1c0,0-2.667-3.333-5.667-3.333c0,0,3-5.001-0.667-9.667L66.201,98.055
		z"/>
	<path style="fill:#FDD000;" d="M62.535,151.555c0,0-0.501,14.833,5.666,16.833c0,0-1.666,20.501-8.166,30.667l2.833,7.666
		c0,0,6.5-9.833,9.333-29.833c2.834-20-1-38.667-1-38.667s-2.5,1.5-3.166,3.167C67.368,143.055,62.535,151.555,62.535,151.555z"/>
	<path d="M17.456,6.68c-5.861,0-10.63,4.769-10.63,10.63V220.8c0,5.861,4.769,10.63,10.63,10.63h118.158
		c5.861,0,10.63-4.769,10.63-10.63V17.31c0-5.861-4.768-10.63-10.63-10.63H17.456z M8.243,220.8V17.31
		c0-5.08,4.133-9.213,9.213-9.213h118.158c5.08,0,9.212,4.133,9.212,9.213V220.8c0,5.08-4.132,9.212-9.212,9.212H17.456
		C12.376,230.012,8.243,225.88,8.243,220.8z"/>
	<path d="M74.868,230.388l-6.667-16.667c0,0,12.334-31.999,13.334-87.666c0,0,15.667-4,24.667,10.333c0,0,5.666-5,0.333-22.999
		c0,0,16.334-17.333,38.667-28.333v11c0,0-33.668,23.332-44.334,93.666c0,0,17.334-34.999,44.334-54.333v4
		c0,0-14.668,8.999-28.334,52.333c0,0,9.668-18,28.334-28.333l0.333,4.667c0,0-19,10.333-31,62.333H74.868z"/>
	<path d="M122.202,230.721c0,0,7.334-24,23-40.333v22.333c0,0-6.509,7-9.588,18H122.202z"/>
	<path d="M73.201,230.388c0,0-21.666-43-21.666-84.333c0,0-10.333-3.001-16.667-11.334l-4.333,1c0,0,7.333,16.666,11,29
		c3.666,12.334,5.333,30.667,5.666,36.667c0.334,6,8,29,8,29H73.201z"/>
	<path d="M51.535,230.721c0,0-4.667-21.333-8.667-32.333s-17-42.999-19-61.333c0,0-6-1.666-16.333,2v44.333c0,0,3.333,7.333,5,8.333
		c1.666,1,5.666-13.666,7-22.666c0,0,10.667,6,10.333,47.333c0,0-9.667-14.667-22.333-24.667l0.333,13.334
		c0,0,10,9.666,13.667,25.666H51.535z"/>
	<path d="M80.868,96.389c0,0,16.334-57.333,63.334-80.333c0,0,0.333,1.333-0.667,2s-25.666,11.667-43.333,81.333
		c0,0-0.666,1.667-3,2C97.202,101.389,91.535,95.389,80.868,96.389z"/>
	<path d="M7.535,67.055c12,13,23.666,31.333,23.666,31.333l-1,1.334c-3.667,1.667-9,8-9,8s-10.667-17.001-14-27.667L7.535,67.055z"
		/>
	<path d="M49.809,67.364c-0.084,0.076-8.388,7.669-14.368,16.889c-4.093,6.31-4.79,12.777-4.79,16.452
		c0,1.252,0.079,2.155,0.135,2.643c-16.941,14.089-23.816,27.588-23.884,27.724l1.268,0.634c0.066-0.134,6.899-13.544,23.817-27.52
		l0.31-0.256l-0.061-0.398c-0.005-0.03-0.15-1.046-0.15-2.707c0-3.476,0.639-9.777,4.545-15.799
		c4.383-6.758,10.039-12.629,12.667-15.211c-0.371,2.687-0.971,7.29-0.971,9.075c0,3.949-0.903,12.434-4.321,16.279
		c-2.258,2.54-4.661,4.335-6.592,5.777c-1.459,1.09-2.611,1.951-3.205,2.781c-0.6,0.84-0.918,1.925-0.918,2.938
		c0,0.634,0.125,1.24,0.383,1.741c0.39,0.757,1.068,1.191,1.862,1.191c1.426,0,5.343-0.752,7.056-1.095
		c-0.099,0.495-0.409,1.238-1.307,2.135c-2.004,2.004-7.634,9.685-10.242,21.303c-2.457-0.844-10.61-2.805-23.763,2.286l0.512,1.322
		c14.982-5.8,23.361-2.058,23.443-2.02l0.811,0.376l0.184-0.873c2.447-11.747,8.09-19.425,10.058-21.393
		c2.245-2.245,1.736-4.029,1.671-4.225l-0.199-0.598l-0.617,0.128c-0.06,0.012-5.948,1.235-7.606,1.235
		c-0.165,0-0.407-0.044-0.602-0.423c-0.376-0.732-0.294-2.195,0.429-3.207c0.466-0.651,1.54-1.454,2.9-2.47
		c1.982-1.481,4.449-3.324,6.803-5.972c4.626-5.204,4.679-16.732,4.679-17.221c0-2.42,1.231-10.812,1.243-10.897l0.288-1.96
		L49.809,67.364z"/>
	<path d="M55.854,79.69c-0.018,0.06-1.748,5.98-2.717,8.161l-0.968,1.538c-1.871,2.783-5.469,8.134-5.469,14.485
		c0,2.667,0.682,5.515,2.346,8.419c-2.104,1.009-7.966,4.651-9.463,14.488c-0.114,0.752-0.168,1.475-0.168,2.169
		c0,8.802,8.673,13.101,13.005,15.248l1.992,1.043c1.952,1.201,6.608,4.348,7.699,7.621l0.612,1.835l0.719-1.796
		c0.039-0.1,3.977-9.897,6.593-12.513c2.681-2.681,8.958-8.957,8.958-17.251c0-7.782-6.377-12.157-12.676-12.458
		c-4.303-0.205-6.729,2.061-7.673,3.207c-0.546-0.42-1.186-0.912-1.882-1.447c1.585-1.178,4.647-4.317,4.647-11.028
		c0-0.888-0.054-1.839-0.172-2.855c-1.245-10.702-4.007-18.817-4.034-18.898l-0.725-2.11L55.854,79.69z M55.156,144.035
		l-2.106-1.105c-4.365-2.164-12.217-6.056-12.217-13.986c0-0.624,0.049-1.272,0.151-1.948c1.659-10.902,8.972-13.578,9.281-13.687
		l0.841-0.294l-0.473-0.754c-1.81-2.872-2.491-5.708-2.491-8.37c0-5.973,3.426-11.068,5.203-13.71l1.086-1.754
		c0.62-1.396,1.503-4.137,2.107-6.098c0.889,3.064,2.44,9.075,3.291,16.393c0.111,0.96,0.162,1.854,0.162,2.687
		c0,7.898-4.554,10.239-4.767,10.344l-1.023,0.503l0.899,0.696l3.876,2.981l0.413-0.676c0.084-0.139,2.123-3.385,6.859-3.159
		c3.917,0.187,11.325,2.734,11.325,11.042c0,7.706-5.769,13.477-8.542,16.249c-2.21,2.21-5.07,8.62-6.296,11.515
		C60.991,147.95,57.373,145.399,55.156,144.035z"/>
	<path d="M63.356,78.435c-1.616,5.385-2.535,13.287,2.259,20.352l0.536,0.79l0.601-0.742c0.335-0.413,1.535-1.962,2.235-3.53
		c0.363,1.007,0.712,2.348,0.712,3.818c0,1.413-0.321,2.938-1.259,4.38l-0.575,0.886l1.038,0.197
		c0.033,0.006,2.938,0.576,5.038,2.264c-0.72,0.213-1.745,0.462-2.977,0.585l0.069,1.414c0.049,0,4.918,0.059,7.417,3.693
		c0.943,1.372,1.237,2.961,1.237,4.41c0,2.385-0.797,4.389-0.81,4.421l-0.572,1.407l1.446-0.466
		c0.702-0.226,17.295-5.372,25.408,9.663l0.865,1.603l0.446-1.767c0.054-0.214,0.647-2.655,0.647-6.147
		c0-4.158-0.842-9.808-4.44-14.965c-4.691-6.722-12.86-10.793-24.241-12.148c0.245-0.924,0.588-2.55,0.588-4.651
		c0-2.56-0.52-5.73-2.382-8.873c-4.267-7.2-7.172-15.118-7.401-20.171l-1.379-0.198C67.835,64.746,64.843,73.479,63.356,78.435z
		 M63.475,86.822c0-2.942,0.555-5.698,1.239-7.98c0.948-3.162,2.508-7.854,3.518-10.853c0.961,5.088,3.591,11.68,7.193,17.76
		c1.694,2.858,2.163,5.786,2.163,8.151c0,2.906-0.708,4.963-0.721,5l-0.3,0.847l0.894,0.095
		c11.394,1.204,19.484,5.124,24.048,11.654c3.383,4.84,4.164,10.256,4.164,14.225c0,1.634-0.134,3.007-0.271,4.009
		c-7.552-11.776-20.671-10.023-24.804-9.097c0.25-0.909,0.519-2.192,0.519-3.673c0-1.684-0.354-3.56-1.497-5.224
		c-1.375-2-3.294-3.052-4.975-3.625c0.521-0.168,0.89-0.309,0.92-0.322l0.909-0.39l-0.662-0.736
		c-1.729-1.921-4.341-2.857-5.719-3.244c0.746-1.461,1.044-2.941,1.044-4.317c0-3.407-1.644-6.165-1.746-6.334l-1.308,0.469
		c0.007,0.045,0.01,0.092,0.01,0.143c0,0.858-0.908,2.443-1.811,3.71C64.248,93.708,63.475,90.15,63.475,86.822z"/>
	<path d="M41.463,97.638l1.145,0.836c0.505-0.69,2.213-2.608,3.395-2.384c0.787,0.149,1.258,1.34,1.515,2.313l1.37-0.36
		c-0.524-1.99-1.406-3.116-2.622-3.345C43.995,94.269,41.715,97.291,41.463,97.638z"/>
	<path d="M42.642,107.183l0.118,1.412c1.007-0.084,4.369-0.446,5.318-1.586l-1.089-0.907
		C46.606,106.562,44.432,107.033,42.642,107.183z"/>
	<path d="M60.264,103.331l0.876,1.114c4.778-3.754,5.697-6.389,5.734-6.5l-1.343-0.454C65.522,97.516,64.65,99.885,60.264,103.331z"
		/>
	<path d="M59.401,106.372c0.459,0.918,2.728,2.87,5.889,3.221c3.114,0.346,6.805-0.813,6.96-0.862l-0.43-1.351
		c-0.035,0.011-3.562,1.117-6.374,0.805c-2.78-0.309-4.571-2.034-4.777-2.446L59.401,106.372z"/>
	<path d="M67.587,141.761c0.05,0.281,4.804,28.406-8.202,58.345l1.3,0.564c13.183-30.345,8.349-58.871,8.298-59.155L67.587,141.761z
		"/>
	<path d="M70.592,138.034c0.079,0.378,7.747,38.136-8.935,70.026l1.256,0.656c16.922-32.351,9.146-70.592,9.065-70.975
		L70.592,138.034z"/>
	<path d="M62.076,151.888c0,1.616,0.169,15.837,6.023,17.434l0.373-1.367c-4.081-1.113-4.978-11.975-4.979-16.066H62.076z"/>
	<path d="M45.201,96.222c0,0-0.666,3-1.166,4c0,0-4.501,3.5-4.334,8l1.667-0.167c0,0,0.667-4.666,2-5.833s3.167-3.834,3-6.667
		C46.368,95.555,45.534,95.556,45.201,96.222z"/>
</g>
</svg>
