<?xml version="1.0" encoding="iso-8859-1"?>
<!-- Generator: Adobe Illustrator 19.1.0, SVG Export Plug-In . SVG Version: 6.00 Build 0)  -->
<svg version="1.1" id="&#xB808;&#xC774;&#xC5B4;_1" xmlns="http://www.w3.org/2000/svg" xmlns:xlink="http://www.w3.org/1999/xlink"
	 x="0px" y="0px" viewBox="0 0 153.071 238.11" style="enable-background:new 0 0 153.071 238.11;" xml:space="preserve">
<rect style="fill:#E60012;" width="153.071" height="238.11"/>
<g>
	<path style="fill:#FFFFFF;" d="M7.785,15.387L7.619,200.222l18,31h110.334c0,0,8.833-0.834,9.333-10.334V16.055
		c0,0-0.001-7.834-9.667-9H16.285C16.285,7.055,8.785,8.055,7.785,15.387z"/>
	<path style="fill:#F5B090;" d="M89.119,39.555l-2.833,2c0,0,1.833,3.998,3,5.166c0,0-4.334,2.166-5.167,3.5s6.166,8,6.5,8.5
		s2.5,6.166,2.5,6.166l14.167,4l12.167-3.332l6.083-4.5c0,0,7.584-3.834,8.917-10.5l-4.834-2l2.5-4.668l-2.5-1l-2-1.5l-5.833-5.832
		l-7.333-3c0,0-5.833-3.168-6.5-3.168s-7.834,2-7.834,2L89.119,39.555z"/>
	<path style="fill:#F5B090;" d="M104.786,129.556c0,0,3.167,5,3,6.832c0,0,2.167-1.832,6-1.5c3.833,0.334,7.833,4,7.833,4
		s-0.999,2.834-2.166,4.168c0,0,4.333,1.832,4.833,2.332s0.499,5.666-2.667,9.334c-3.166,3.666-12.333,18.5-12.333,18.5l8.833,5.666
		c0,0,5.667,4.486,5.667,8.168c0,3.166-9.667,5.666-9.667,5.666l2.667,6l0.167,5.666l-2.834-1l-6.166-1.166
		c0,0-1.001,4.5-1.834,4.834c-0.833,0.332-3.167-0.5-4-1s-11.666,1.166-11.666,1.166l-2-2.166l-3.5-0.334l-2.334-5.5
		c0,0-3,0.832-4.333,0.666s-1.5-3.666-1.5-3.666l-3-0.334l-11.333-0.332l-7.167-6.668l-4.333-8.332l1.333-6.834c0,0-3-0.5-3.833-1
		s0.167-9.334,0.167-9.334l21.5-19l12.834-9.166l3.666-7l7.5-2.334l6.334-0.832l4.166-0.168L104.786,129.556z"/>
	<path style="fill:#F5B090;" d="M33.285,32.055c0,0,1.333-4.334,9.5-5.334c0,0,0.167-4,2.667-6.334c2.5-2.332,5.667-4.5,5.667-4.5
		l3.667,2l3.167,1.834l4.834,1.666l9.667,3l2.833,2.834l-3.667,2.166l-0.666,1.834c0,0,4.166,1.334,4.666,2.334
		s-0.333,5.832-6.333,10.832l4,4.168l1.167,5.166l-3.5,7.334l-1.334,2.332l-5.5-1l-4.833-0.332c0,0-2.833,1.666-4.167,1.832
		c-1.333,0.168-8,0.334-9,0c-1-0.332-9.5-5.166-9.5-5.166s-4.667-8-4.333-8.666c0.333-0.668,1.333-4,1.333-4L33.285,32.055z"/>
	<path style="fill:#E60012;" d="M53.285,37.68c0,0-3.5,1.375-3.5,4.375s2.5,3.875,4.625,3.375s3.5-2.375,3.25-4.75
		S54.91,37.18,53.285,37.68z"/>
	<path style="fill:#E60012;" d="M16.285,25.805c0,0-3.25,3.25-3.125,8.75c0,0-2.75-2.375-5.125-0.75L7.66,61.68
		c0,0,3.625,0.625,5.625-0.625c0,0-0.125,5,2.625,6.875c0,0-0.75,1.125,0.5,1.75s3.375,1.625,3.375,1.625s-2.5,6.5-1.625,8
		s2.25,2.375,2.25,2.375l6,1.25c0,0-0.125,5.625,1.5,7.125l3.375-0.375c0,0,3.625,3.5,4.375,3.5s3.375-3.375,3.375-3.375l8-2.25
		l4.375-1.375c0,0,1-2.75,1.25-3.125s6.125-2.875,6.125-2.875s-0.375-5.625-3.375-9.5c0,0,3.625-4.375,4.75-7.5
		c1.125-3.125,1.125-3.125,1.125-3.125L56.66,60.93l-3.5-0.875c0,0,0.75-4.125,1.125-5c0,0-4.625-1.25-11.25,3
		c0,0-2.25-3.625-4.625-5.75c0,0,8.5-1.875,10-6.75c0,0-2-3-3.875-4.75c0,0,2.875-3.25,2.875-5c0,0-5.75-4.75-12.125-1.25
		c0,0-4.875-9.375-10.5-11.5C24.785,23.055,17.41,23.555,16.285,25.805z"/>
	<path style="fill:#E60012;" d="M31.535,104.18c0,0-4.25,3-4.625,9.5s3.875,9.25,6.125,9.25s5.125-2.625,4.375-8.625
		S32.91,104.93,31.535,104.18z"/>
	<path style="fill:#E60012;" d="M88.411,40.555c0,0-6.5-5-6.5-8.875c0,0,2.5-1.5,6.5-1.375c0,0-1.75-4.125-2-5.625
		s4-1.625,6.75-0.75s10.75-4.25,10.75-4.25s2.125-2.375,2.75-2.625s1.75,0.25,2,0.875s2.625,1,2.625,1l5.375-2.25l1.375,3.875
		c0,0,2.25,6.25,2.375,7.375s2.5,0.75,2.5,0.75l6.5,3.125l0.625,2.25c0,0-0.625,1.75-2.75,2.375l4.375,2v0.875l-2.625,3.375
		c0,0-6.5-0.125-8.625,1.875c0,0-0.625-5.625-4-8.25c0,0-4.375,1-7.625,4.375c0,0-0.375-5.375-2.125-7.875
		c0,0-4.75,2.375-7.625,8.25C99.036,41.055,93.286,38.43,88.411,40.555z"/>
	<path style="fill:#E60012;" d="M96.286,58.68c0,0-7.75-2.125-13.75,1.625l4,5.75c0,0-4.75,2.625-7,5c0,0,2.125,8,9.5,8.75
		l-2.375,8.125l2.5,3.875l0.5,1.625c0,0,4.375-1.625,5.375-3.5c0,0,0.375,5.5,2.375,6s6.625-2.75,8.75-6.625
		c0,0,4.75,4.5,6.125,4.625s2.75-2.5,2.75-2.5l7.375-2c0,0,1.75-0.75,0.25-6s4-3.75,4-3.75l1.5-5.625l-0.125-1.375
		c0,0-1.5-2.75-3.375-4c0,0,4.875-2.75,5.125-4s-3.25-2.875-4.25-3.625s-6.875-2.25-9.5-2.625c0,0-0.625-6.5-4-9.875
		c0,0-4.125,2.125-5.75,4c0,0-0.125,0.875-0.5-0.75s-1.875-4.5-1.875-4.5S97.411,48.055,96.286,58.68z"/>
	<path style="fill:#E60012;" d="M32.119,155.722c0,0-2.167-6.5-9.167-6.334c-7,0.168-8.833,3.334-9.333,5c-0.5,1.668,0,7.168,9,6
		C31.619,159.222,32.119,155.722,32.119,155.722z"/>
	<path style="fill:#E60012;" d="M68.161,167.931c0,0,1.625,2.125,6.625,2.375s7.5-2.125,7.5-2.125l2.375,0.875
		c0,0-2.625,6.375-2.875,11.125l3.375-1.25l3.25-1.75c0,0,0.5,4.5,1.75,6.375s0.875,2.875,0.875,3.75s0.625,6.5,0.625,6.5
		s5.5-2.125,6.375-3.25c0,0,1.875,5.25,2.375,7.375c0,0,7.625-4.375,9.375-14.125c0,0,0.625,0.25,1.375-0.625s1.5-4.25,1.5-4.25
		s5.25,0.125,6,0s0.75-0.875,0.75-0.875s-0.125-4.875-3.125-8.25c0,0,5.625-2.625,6.375-3.875s0.375-2,0.375-2l-2.875-1.5
		l-1.625-1.5c0,0,3.25-4.125,3.375-5.25s-0.75-1.25-0.75-1.25s-4.25-0.375-6.875-0.125c0,0-2.25-6.75-6.25-9.875
		c0,0-4.5,0.75-5.875,2.25c0,0-1.875-1.625-2.875-2.75s-1.375-0.5-1.875-0.125s-4.375,4.75-5.75,6.75l-4.25,0.125l-2.875-8.5l1-1.25
		l2.625-5.875l-0.875-0.625l-3.625-10l-2.25-0.625c0,0-6.875,0.5-12,4.625c0,0-3.875-7.25-11.25-9.25l-3.25,7.125
		c0,0-5.25-1.25-6.5-1.625s-2.75,5.625-2,12c0,0-4.875,3.875-5.25,4s-2.5,2-2.5,2l-0.25,1c0,0,3.125,2.125,3.75,2.25
		s0.125,1.25,0.125,1.25l-3,6.25c0,0,6.75,2.25,8.75,2.75s2.75,1.25,2.75,1.25l-0.5,10h2.25l0.625,2.625l5.625-3.75
		c0,0,0.375,0.25,0.75,1s3.125,3.75,3.125,3.75S67.536,168.681,68.161,167.931z"/>
	<path style="fill:#E60012;" d="M107.911,214.681c0,0-3.75,1.375-3.625,7.75s6.625,6.375,7.75,6.125s4.5-1,2.875-7.75
		S107.911,214.681,107.911,214.681z"/>
	<path style="fill:#E60012;" d="M129.661,189.931c0,0-1.25,4.625,3.875,8.375s8.625,1.625,10.125-0.5s1-5.5-3.25-8.375
		S130.911,187.556,129.661,189.931z"/>
	<path style="fill:#E60012;" d="M119.911,130.181c0,0,1.25,4.625,8.5,4.625c7.25,0,8-3.875,8-5.5c0-1.625-2.125-5.125-7.25-5.25
		C124.036,123.931,119.911,127.931,119.911,130.181z"/>
	<path style="fill:#E60012;" d="M92.786,148.222c0,0,0-4,3-5.5s8.167-0.168,8.167,2.5c0,2.666-1.834,6.334-1.834,6.334
		L92.786,148.222z"/>
	<path d="M17.707,6.346c-5.861,0-10.63,4.768-10.63,10.629v204.159c0,5.861,4.769,10.631,10.63,10.631h117.658
		c5.861,0,10.63-4.77,10.63-10.631V16.975c0-5.861-4.769-10.629-10.63-10.629H17.707z M8.494,221.134V16.975
		c0-5.08,4.133-9.213,9.213-9.213h117.658c5.08,0,9.212,4.133,9.212,9.213v204.159c0,5.08-4.132,9.213-9.212,9.213H17.707
		C12.627,230.347,8.494,226.214,8.494,221.134z"/>
	<path d="M32.651,48.237c-0.393,0.787-1.481,3.674-1.999,5.062c-2.845-1.471-5.632-1.926-5.759-1.945l-0.618-0.096l-0.172,0.602
		c-0.46,1.611-0.519,7.467-0.526,9.229c-7.076,2.662-8.428,7.828-8.482,8.053l-0.08,0.336l0.216,0.27
		c0.816,1.021,2.852,1.826,4.024,2.225c-1.693,3.227-2.155,7.08-2.175,7.256L17.02,79.78l0.523,0.191
		c2.263,0.822,6.56,0.695,8.405,0.596c-0.158,0.981-0.252,1.936-0.252,2.826c0,4.096,1.374,7.057,1.449,7.215l0.192,0.404h0.448
		c1.031,0,3.102-0.561,4.127-0.857c1.04,1.938,3.348,3.645,3.456,3.723l0.411,0.299l0.415-0.293c3.552-2.508,5.383-7.318,6.01-9.27
		c2.666,1.348,8.243,2.496,8.942,2.635l0.767,0.154l0.078-0.777c0.038-0.383,0.055-0.795,0.055-1.221
		c0-1.68-0.251-3.549-0.418-4.615c1.375,0.043,7.944,0.248,7.944,0.248l-0.081-0.803c-0.414-4.143-2.575-7.846-3.474-9.236
		c3.315-2.213,5.126-8.959,5.206-9.267L61.4,61.04l-0.692-0.172c-0.836-0.209-5.157-0.889-6.853-1.152
		c0.379-1.883,1.331-4.379,1.342-4.406l0.307-0.799l-0.841-0.152c-4.75-0.863-9.848,1.877-11.607,2.943
		c-2.427-4.856-9.091-9.156-9.391-9.346l-0.662-0.42L32.651,48.237z M31.7,54.549c0.486-1.318,1.366-3.656,1.896-4.93
		c1.821,1.254,6.973,5.051,8.531,8.947l0.327,0.818l0.729-0.494c0.057-0.039,5.437-3.609,10.372-3.213
		c-0.397,1.125-1.043,3.102-1.223,4.539l-0.086,0.684l0.681,0.104c1.502,0.232,5.097,0.797,6.715,1.094
		c-0.725,2.416-2.536,7.047-4.886,8.055L53.943,70.5l0.517,0.719c0.03,0.041,2.771,3.932,3.486,8.35
		c-1.371-0.043-8.021-0.25-8.021-0.25l0.163,0.865c0.006,0.035,0.539,2.91,0.539,5.223c0,0.1-0.011,0.186-0.013,0.283
		c-2.438-0.529-7.039-1.678-8.405-2.703l-0.845-0.633l-0.266,1.021c-0.016,0.064-1.642,6.064-5.334,9.014
		c-0.767-0.625-2.319-2.008-2.816-3.334l-0.234-0.625l-0.638,0.197c-0.771,0.236-2.729,0.781-3.839,0.914
		c-0.36-0.938-1.119-3.256-1.119-6.188c0-1.066,0.101-2.213,0.359-3.398l0.203-0.934l-0.952,0.076
		c-0.057,0.004-5.366,0.404-8.151-0.316c0.205-1.285,0.829-4.445,2.311-6.855l0.49-0.797l-0.899-0.256
		c-1.155-0.33-3.059-1.078-3.875-1.797c0.426-1.187,2.165-4.871,7.912-6.852l0.478-0.166v-0.504c0-1.887,0.068-6.656,0.353-8.666
		c1.071,0.236,3.27,0.824,5.332,2.027l0.73,0.426L31.7,54.549z"/>
	<path d="M23.506,22.532c-0.826,1.416-1.783,3.729-2.313,5.065c-1.33-1.033-3.632-2.022-4.474-2.365l-0.459-0.186l-0.333,0.365
		c-2.516,2.768-3.142,6.256-3.296,8.084c-2.588-1.267-5-0.309-5.116-0.262l0.537,1.311c0.102-0.039,2.512-0.977,4.808,0.744
		l1.177,0.883L13.994,34.7c-0.001-0.004-0.001-0.031-0.001-0.082c0-0.625,0.128-4.732,2.678-7.857
		c2.064,0.887,3.939,1.963,4.129,2.406l0.695,1.621l0.62-1.65c0.013-0.037,1.237-3.277,2.303-5.314
		c1.748,0.889,7.358,4.182,10.039,11.152l0.341,0.887l0.756-0.582c0.173-0.133,4.229-3.098,10.89,0.791
		c-0.268,0.807-0.98,2.523-2.676,4.332l-0.559,0.596l0.669,0.471c0.03,0.02,2.88,2.055,3.776,4.201
		c-0.698,1.098-3.64,5.139-9.435,5.678l0.131,1.412c7.462-0.693,10.598-6.463,10.728-6.707l0.142-0.27l-0.096-0.287
		c-0.681-2.043-2.793-3.91-3.837-4.738c2.128-2.535,2.672-4.797,2.693-4.898l0.096-0.48l-0.417-0.26
		c-6.263-3.898-10.612-2.289-12.235-1.4c-3.541-8.25-10.721-11.355-11.036-11.486l-0.571-0.236L23.506,22.532z"/>
	<path d="M13.15,60.247c-2.604,1.225-5.257,0.941-5.283,0.938l-0.164,1.408c0.109,0.012,2.388,0.238,4.956-0.643
		c0,0.033-0.004,0.049-0.004,0.084c0,1.598,0.425,4.393,2.99,6.713l0.951-1.051c-3.144-2.846-2.477-6.516-2.447-6.672l0.265-1.369
		L13.15,60.247z"/>
	<path d="M49.651,17.079c-6.701,3.137-7.516,7.66-7.577,9.361c-7.092,0.736-8.875,4.836-8.948,5.018l1.314,0.531
		c0.064-0.154,1.648-3.768,8.392-4.227l0.734-0.051l-0.078-0.736c-0.003-0.025-0.012-0.131-0.012-0.297
		c0-1.131,0.477-5.156,6.379-8.098c0.569,0.555,1.72,1.977,1.72,4.475v1.416l1.134-0.85c0.031-0.024,2.928-2.188,5.16-3.525
		c0.789,0.754,2.728,3.059,2.728,7.603c0,0.266-0.006,0.539-0.021,0.82l-0.089,1.775l1.287-1.229
		c0.041-0.041,4.082-3.732,10.244-2.719c-0.128,0.988-0.566,2.988-2.101,4.74l-0.968,1.106l1.468,0.068
		c0.033,0.002,3.086,0.178,4.772,1.586c-0.238,1.406-1.444,6.723-6.47,10.119l-0.828,0.56l0.805,0.598
		c0.133,0.098,3.13,2.42,3.204,8.271c-1.357,0.101-3.051,0.154-3.56-0.016l-1.208-0.402l0.294,1.24
		c0.007,0.027,0.561,2.385,0.561,4.326c0,0.107-0.017,0.199-0.021,0.305c-1.427-0.361-4.501-1.363-6.113-3.549l-0.852-1.156
		l-0.399,1.381c-0.01,0.031-0.962,3.232-3.485,4.568l0.663,1.254c2.046-1.084,3.191-3.055,3.749-4.303
		c2.632,2.604,6.776,3.342,6.971,3.375l0.708,0.117l0.108-0.709c0.062-0.396,0.087-0.832,0.087-1.279
		c0-1.344-0.223-2.744-0.397-3.666c1.36,0.076,3.218-0.08,3.678-0.123l0.626-0.061l0.015-0.629c0.004-0.158,0.006-0.314,0.006-0.469
		c0-5.074-2.038-7.877-3.13-9.014c5.686-4.318,6.428-10.684,6.455-10.965l0.033-0.334l-0.237-0.236
		c-1.306-1.307-3.36-1.838-4.688-2.057c1.701-2.553,1.729-5.149,1.729-5.275l-0.001-0.572l-0.56-0.121
		c-5.268-1.129-9.13,0.842-10.958,2.098c-0.214-5.885-3.458-8.369-3.607-8.479l-0.371-0.27L57.6,18.606
		c-1.571,0.896-3.532,2.275-4.709,3.127c-0.466-3.072-2.433-4.521-2.527-4.588l-0.337-0.242L49.651,17.079z"/>
	<path d="M103.867,46.684c-0.293,0.037-6.967,1-8.324,11.174c-1.82-0.697-6.327-1.66-13.569,1.895l-0.803,0.395l0.567,0.691
		c1.09,1.326,3.058,3.748,4.002,4.988c-1.473,0.84-4.926,2.93-6.82,5.094l-0.221,0.254l0.055,0.33
		c0.029,0.176,0.761,4.328,4.633,6.969c2.446,1.668,4.785,1.943,6.243,1.916c-0.657,1.23-1.558,3.279-1.88,5.74
		c-0.069,0.535-0.1,1.066-0.1,1.584c0,3.344,1.262,6.164,1.323,6.301l0.314,0.689l0.667-0.359c0.356-0.191,2.855-1.563,4.541-2.984
		c0.161,1.557,0.643,3.832,2.143,5.215l0.258,0.238l0.345-0.061c0.271-0.047,6.254-1.211,9.011-6.305
		c0.926,0.988,2.788,2.719,5.707,4.236l0.328,0.17l0.328-0.172c0.147-0.078,3.386-1.887,4.077-6.658
		c1.479,0.553,4.564,1.725,5.776,2.33l0.579,0.291l0.341-0.551c0.046-0.074,0.567-0.959,0.567-2.684
		c0-1.795-0.642-4.543-2.893-8.195c1.893-0.461,5.978-1.857,8.015-5.66l0.166-0.311l-0.148-0.32
		c-0.039-0.086-0.991-1.918-3.507-4.023c1.385-0.684,3.762-2.061,4.663-3.863l0.161-0.322l-0.165-0.318
		c-0.12-0.234-3.065-5.572-13.694-6.305c0.014-0.203,0.03-0.387,0.03-0.662c0-2.043-0.544-5.957-4.131-9.543l-0.418-0.418
		l-0.486,0.336c-0.151,0.105-3.18,2.209-5.141,3.883c-0.289-1.273-0.862-3.242-1.873-4.703l-0.244-0.352L103.867,46.684z
		 M96.825,58.954c0.8-8.531,5.356-10.387,6.782-10.764c1.196,2.014,1.64,4.934,1.645,4.965l0.201,1.4l1.001-1
		c1.281-1.281,4.227-3.4,5.391-4.225c2.862,3.113,3.325,6.385,3.325,8.086c0,0.689-0.071,1.121-0.081,1.18l-0.141,0.795l0.806,0.037
		c8.843,0.402,12.176,4.129,12.997,5.27c-1.034,1.584-3.703,2.953-4.729,3.365l-1.181,0.475l1.024,0.754
		c2.274,1.676,3.363,3.242,3.756,3.895c-2.397,4.002-7.712,4.826-7.767,4.834l-1.115,0.156l0.624,0.938
		c2.599,3.898,3.172,6.639,3.172,8.299c0,0.586-0.074,1.02-0.153,1.34c-2.048-0.904-5.837-2.297-6.019-2.363l-0.891-0.326
		l-0.061,0.945c-0.251,3.881-2.359,5.676-3.148,6.219c-3.71-2.02-5.56-4.408-5.578-4.432l-0.748-0.99l-0.474,1.146
		c-1.841,4.469-6.651,5.959-8.054,6.309c-1.449-1.619-1.585-4.586-1.585-5.338c0-0.108,0.002-0.17,0.002-0.174l0.088-2.398
		l-1.376,1.965c-0.748,1.068-3.129,2.562-4.556,3.383c-0.354-0.994-0.915-2.893-0.915-5c0-0.455,0.026-0.92,0.088-1.385
		c0.47-3.602,2.357-6.324,2.376-6.35l1.063-1.514l-1.805,0.414c-0.032,0.008-3.263,0.719-6.605-1.561
		c-2.792-1.904-3.714-4.758-3.953-5.697c2.307-2.455,6.84-4.9,6.888-4.926l0.689-0.369l-0.434-0.65
		c-0.524-0.785-2.841-3.639-3.946-4.994c8.067-3.652,12.268-1.207,12.311-1.18l0.974,0.607L96.825,58.954z"/>
	<path d="M106.497,32.075c-5.315,2.377-7.35,6.572-7.976,8.232C90.335,37.19,85.99,41.03,85.805,41.2l-0.328,0.303l0.131,0.428
		c0.503,1.631,1.915,3.621,2.72,4.674c-3.075,1.4-4.834,3.396-4.913,3.49l-0.252,0.293l0.111,0.371
		c1.057,3.523,6.372,7.375,6.598,7.539l0.828-1.152c-0.05-0.035-4.734-3.453-5.91-6.439c0.648-0.646,2.363-2.184,4.915-3.156
		l0.928-0.351l-0.635-0.764c-0.022-0.027-2.071-2.514-2.86-4.475c1.127-0.789,4.958-2.85,11.541-0.086l0.748,0.314l0.211-0.785
		c0.014-0.051,1.444-4.976,6.844-7.711c0.544,1.156,1.605,3.77,1.605,6.57c0,0.143-0.003,0.287-0.009,0.43l-0.062,1.553l1.213-0.971
		c0.039-0.031,3.806-3.014,7.076-4.381c0.821,0.814,3.125,3.428,3.125,7.207c0,0.19-0.006,0.381-0.018,0.576l-0.088,1.406
		l1.183-0.768c0.048-0.031,4.723-2.924,10.724-0.994c-0.642,1.129-1.857,3.199-2.645,4.102l-0.819,0.936l1.224,0.227
		c1.561,0.289,3.798,0.881,4.737,1.414c-0.763,1.715-3.58,7.369-8.365,9.229l0.514,1.322c6.221-2.42,9.278-10.242,9.405-10.574
		l0.164-0.43l-0.325-0.326c-0.822-0.82-3.253-1.465-4.759-1.801c1.143-1.633,2.479-4.066,2.547-4.191l0.386-0.707l-0.75-0.293
		c-5.367-2.094-9.796-0.594-11.742,0.326c-0.249-4.9-3.733-7.908-3.895-8.043l-0.319-0.266l-0.387,0.149
		c-2.506,0.953-5.26,2.842-6.75,3.935c-0.263-3.715-1.966-6.81-2.048-6.957l-0.317-0.561L106.497,32.075z"/>
	<path d="M107.059,16.131c-0.043,0.029-1.089,0.736-3.774,3.422c-2.089,2.09-3.373,5.443-3.903,7.061
		c-9.399-6.152-13.527-3.086-13.702-2.949l-0.301,0.238l0.034,0.383c0.127,1.395,1.224,3.916,1.899,5.361
		c-2.625,0.084-5.628,1.189-5.774,1.244l-0.514,0.193l0.058,0.545c0.528,4.924,6.535,9.314,6.79,9.5l0.83-1.148
		c-0.055-0.041-5.233-3.869-6.077-7.965c1.173-0.383,3.857-1.16,5.741-0.926l1.313,0.164l-0.592-1.184
		c-0.539-1.076-1.843-3.93-2.156-5.477c1.108-0.488,4.948-1.465,12.453,3.711l0.827,0.57l0.26-0.973
		c0.013-0.047,1.318-4.85,3.816-7.348c1.624-1.623,2.563-2.44,3.075-2.859c1.017,1.164,2.761,3.277,3.085,4.25l0.408,1.227
		l0.814-1.006c0.687-0.848,2.582-2.961,3.963-3.834c1.058,1.357,4.111,5.68,4.111,10.389v0.59l0.58,0.108
		c0.043,0.008,4.374,0.824,6.55,2.379c1.343,0.959,2.068,1.596,2.464,1.973c-0.61,0.729-1.69,1.814-2.738,2.102l-2.506,0.684
		l2.506,0.684c0.031,0.008,2.75,0.754,4.479,1.568c-0.705,0.975-2.137,2.795-3.442,3.447l0.635,1.268
		c2.147-1.074,4.351-4.439,4.443-4.582l0.399-0.615l-0.63-0.377c-0.997-0.6-2.612-1.178-3.841-1.572
		c1.255-0.922,2.168-2.168,2.22-2.242l0.312-0.438l-0.336-0.418c-0.074-0.094-0.796-0.957-3.141-2.633
		c-1.991-1.424-5.325-2.238-6.588-2.512c-0.281-5.939-4.6-10.994-4.791-11.213l-0.347-0.396l-0.479,0.219
		c-1.404,0.639-3.244,2.594-4.229,3.717c-1.021-1.682-3.013-3.912-3.285-4.215l-0.41-0.453L107.059,16.131z"/>
	<path d="M30.842,103.5c-0.145,0.117-3.559,2.906-4.424,8.615c-0.522,3.445,0.205,6.82,1.945,9.022
		c1.158,1.467,2.667,2.317,4.363,2.457c1.453,0.121,2.737-0.451,3.714-1.656c1.791-2.21,2.28-6.29,1.19-9.92
		c-1.548-5.162-5.739-8.393-5.916-8.527l-0.44-0.334L30.842,103.5z M32.844,122.183c-1.295-0.107-2.46-0.774-3.369-1.924
		c-1.173-1.484-1.807-3.617-1.807-5.943c0-0.65,0.05-1.316,0.151-1.988c0.609-4.018,2.623-6.437,3.492-7.32
		c1.067,0.935,3.825,3.631,4.961,7.418c0.347,1.156,0.514,2.373,0.514,3.543c0,2.029-0.503,3.914-1.447,5.078
		C34.662,121.882,33.822,122.265,32.844,122.183z"/>
	<path d="M30.577,104.055h1.417c0-5.274,0.042-13.414,0.16-14.234L30.75,89.62C30.581,90.803,30.577,102.702,30.577,104.055z"/>
	<path d="M57.249,118.981c-0.109,0.52-1.746,3.706-3.384,6.723c-1.819-1.01-5.168-1.75-5.598-1.842l-0.475-0.102l-0.266,0.406
		c-1.725,2.633-2.144,5.998-2.144,8.65c0,1.748,0.181,3.164,0.292,3.877c-1.34,0.812-5.623,3.541-7.952,6.598l-0.423,0.555
		l0.549,0.432c0.088,0.068,1.915,1.494,3.792,2.207c-0.814,1.762-2.901,6.281-3.178,6.973l-0.248,0.619l0.602,0.285
		c0.255,0.121,6.099,2.842,13,2.754c-0.091,0.818-0.208,2.178-0.208,4.043c0,2.484,0.212,5.746,0.984,9.377l0.21,0.986l0.857-0.531
		c0.429-0.268,3.661-2.297,5.211-3.789c0.827,1.205,2.482,3.506,3.648,4.412l0.311,0.242l0.369-0.137
		c0.262-0.096,6.229-2.381,8.957-7.564c1.036,0.133,3.629,0.406,6.662,0.273l-0.062-1.416c-3.71,0.162-6.827-0.32-6.858-0.324
		l-0.526-0.082l-0.226,0.48c-2.002,4.271-6.671,6.545-8.033,7.133c-1.174-1.074-2.935-3.586-3.566-4.553l-0.606-0.928l-0.588,0.939
		c-0.462,0.74-2.762,2.377-4.556,3.545c-0.575-3.082-0.761-5.885-0.761-8.059c0-2.84,0.279-4.631,0.285-4.664l0.139-0.861
		l-0.871,0.041c-5.679,0.264-10.835-1.631-12.532-2.332c0.663-1.488,2.293-5.023,3.208-6.996l0.36-0.777l-0.832-0.207
		c-1.255-0.315-2.68-1.221-3.465-1.768c2.677-3.125,7.429-5.902,7.48-5.932l0.438-0.252l-0.097-0.498
		c-0.007-0.035-0.337-1.787-0.337-4.1c0-2.314,0.367-5.17,1.685-7.445c1.482,0.348,4.279,1.111,5.157,1.881l0.665,0.582l0.424-0.775
		c1.935-3.533,3.154-5.92,3.655-7.147c1.658,0.504,6.792,2.532,10.089,9.124l0.391,0.781l0.685-0.543
		c0.075-0.061,7.278-5.695,12.319-4.256c-0.532,1.592-1.803,5.602-1.803,7.701v0.564l0.551,0.127
		c0.053,0.012,4.736,1.092,6.891,1.996c-0.58,1.269-2.011,4.225-3.615,6.199l-0.271,0.334l0.171,0.395
		c0.021,0.049,2.133,4.955,2.613,8.643l1.406-0.184c-0.436-3.332-2.049-7.41-2.56-8.643c2.085-2.715,3.77-6.648,3.843-6.822
		l0.25-0.592l-0.563-0.307c-1.573-0.857-5.729-1.896-7.252-2.262c0.229-2.555,1.897-7.328,1.914-7.381l0.222-0.627l-0.613-0.26
		c-4.99-2.118-11.693,2.297-13.737,3.783c-4.303-7.86-10.95-9.272-11.241-9.329l-0.683-0.129L57.249,118.981z"/>
	<path d="M98.024,142.657c-0.194,0.146-4.604,3.539-6.766,7.295c-1.539-0.201-6.519-0.518-11.219,2.861l-0.565,0.406l0.396,0.572
		c0.052,0.074,1.084,1.529,2.391,2.902c-1.592,0.438-5.987,1.646-5.987,1.646l-0.028,0.508c-0.001,0.02-0.003,0.072-0.003,0.154
		c0,0.996,0.407,6.352,7.634,10.33c-0.758,1.656-2.879,6.623-2.879,10.42c0,0.432,0.028,0.85,0.089,1.242l0.166,1.078l0.917-0.588
		c0.041-0.027,3.613-2.318,5.773-3.408c0.31,1.426,0.987,4.262,1.861,6.262l0.211,0.482l0.522-0.062
		c0.282-0.033,6.568-0.869,10.053-4.791c1.115,1.193,4.024,3.588,10.077,4.619l0.361,0.061l0.259-0.258
		c0.077-0.078,1.731-1.805,1.989-4.887c1.261,0.123,3.932,0.307,6.133-0.082l0.49-0.088l0.085-0.49
		c0.011-0.062,0.091-0.553,0.091-1.318c0-1.648-0.461-4.578-2.672-7.324c1.373-0.59,4.015-1.893,5.44-3.707l0.26-0.33l-0.166-0.387
		c-0.059-0.139-1.36-3.094-3.589-4.953c1.05-1.096,3.219-3.559,3.633-5.629l0.119-0.6l-0.574-0.207
		c-0.168-0.06-3.94-1.332-7.98-0.764c-0.301-1.529-1.461-5.406-5.934-9.744l-0.275-0.268l-0.375,0.086
		c-0.144,0.031-3.313,0.773-5.696,2.123c-0.705-0.779-2.231-2.396-3.419-3.189l-0.42-0.279L98.024,142.657z M92.247,151.05
		c1.584-3.035,5.064-5.998,6.222-6.934c1.368,1.066,3.096,3.047,3.115,3.07l0.401,0.463l0.517-0.332
		c1.786-1.148,4.427-1.893,5.386-2.141c4.935,4.934,5.355,9.221,5.358,9.266l0.063,0.795l0.782-0.154
		c2.984-0.596,5.963,0.072,7.254,0.434c-0.682,1.809-2.712,4.061-3.549,4.859l-0.641,0.611l0.736,0.49
		c1.823,1.217,3.092,3.527,3.547,4.447c-1.801,1.969-5.355,3.283-5.394,3.297l-1.025,0.369l0.754,0.787
		c2.509,2.619,2.875,5.654,2.875,7.203c0,0.203-0.011,0.334-0.02,0.482c-2.627,0.34-5.884-0.039-5.919-0.045l-0.801-0.104v0.807
		c0,2.35-0.948,3.82-1.391,4.383c-7.039-1.309-9.283-4.566-9.305-4.602l-0.562-0.855l-0.607,0.822
		c-2.476,3.389-7.544,4.514-9.144,4.793c-1.015-2.578-1.746-6.303-1.753-6.342l-0.165-0.855l-0.804,0.336
		c-1.478,0.615-4.264,2.312-5.763,3.25c0.036-4.148,2.973-10.219,3.005-10.285l0.306-0.625l-0.62-0.318
		c-6.398-3.264-7.305-7.566-7.427-9c0.913-0.25,7.374-2.027,7.374-2.027l-0.963-0.867c-1.073-0.967-2.052-2.199-2.6-2.926
		c4.831-3.09,9.935-2.197,9.988-2.186l0.52,0.102L92.247,151.05z"/>
	<path d="M101.658,126.351c-1.857,1.592-4.655,4.732-5.838,6.084c-1.91-2.24-5.614-3.646-5.788-3.711l-0.356-0.131l-0.307,0.223
		c-2.007,1.461-3.054,5.059-3.098,5.211l1.363,0.391c0.009-0.031,0.855-2.887,2.296-4.205c1.058,0.441,4.128,1.84,5.248,3.707
		l0.506,0.844l0.64-0.746c0.037-0.043,3.483-4.051,5.784-6.158c1.201,1.176,4.547,4.777,4.804,8.742l0.085,1.324l1.055-0.809
		c0.033-0.025,3.415-2.57,6.985-1.231c2.894,1.084,4.99,2.541,5.851,3.193c-0.86,1.682-1.878,3.17-2.296,3.295l-2.235,0.664
		l2.22,0.693c1.685,0.523,4.465,1.568,5.454,2.324c-0.182,1.397-0.931,6.256-2.777,8.365l1.066,0.934
		c2.453-2.803,3.144-9.285,3.172-9.561l0.034-0.336l-0.238-0.238c-0.907-0.906-3.511-1.898-5.084-2.441
		c0.938-1.068,1.809-2.721,2.223-3.584l0.232-0.488l-0.408-0.354c-0.105-0.092-2.643-2.268-6.715-3.795
		c-3.109-1.166-5.973,0.021-7.4,0.828c-0.915-4.889-5.346-8.853-5.55-9.031l-0.462-0.402L101.658,126.351z"/>
	<path d="M128.766,123.347c-6.511,0.176-9.647,6.131-9.777,6.385l-0.107,0.209l0.038,0.23c0.397,2.389,4.171,5.604,10.22,5.426
		c5.858-0.172,7.771-3.975,8.013-5.426c0.122-0.729-0.339-2.545-1.714-4.125C134.321,124.763,132.257,123.253,128.766,123.347z
		 M128.805,124.763c2.889-0.078,4.586,1.121,5.5,2.143c1.194,1.33,1.482,2.783,1.448,3.035c-0.007,0.039-0.842,4.068-6.655,4.24
		c-5.146,0.15-8.242-2.418-8.71-4.045C121.019,129.083,123.833,124.897,128.805,124.763z"/>
	<path d="M105.925,131.54l0.387,1.363c8.577-2.428,13.211-2.144,13.257-2.141l0.101-1.414
		C119.473,129.335,114.777,129.034,105.925,131.54z"/>
	<path d="M22.27,148.681c-7.776,0.172-9.526,4.529-9.526,6.041c0,0.566,0.134,2.543,1.854,4.172
		c1.768,1.672,4.592,2.414,8.394,2.203c9.535-0.531,9.828-5.473,9.835-5.682l0.005-0.143l-0.051-0.135
		C32.756,155.071,30.179,148.505,22.27,148.681z M15.572,157.864c-1.343-1.272-1.412-2.842-1.412-3.143
		c0-0.939,1.382-4.475,8.141-4.625c6.458-0.143,8.751,4.604,9.088,5.391c-0.101,0.627-0.976,3.777-8.477,4.193
		C19.516,159.87,17.046,159.259,15.572,157.864z"/>
	<polygon points="32.119,154.681 32.119,156.097 42.978,155.929 42.925,154.513 	"/>
	<path d="M47.585,172.755l-0.889,1.016c0,0,3.792,0.438,4.864,0.561c-0.354,1.387-1.059,4.283-1.312,6.303l-0.079,0.629l0.616,0.148
		c0.166,0.039,3.959,0.879,11.242-0.41c-0.491,1.17-1.074,3.045-1.074,5.418c0,2.197,0.502,4.807,2.042,7.643l0.411,0.756
		l0.663-0.549c0.336-0.277,2.811-2.371,4.083-4.387c0.725,1.34,1.822,3.625,1.926,5.383l0.065,1.119l0.983-0.541
		c0.271-0.148,6.508-3.639,9.208-8.092c1.374-0.066,6.222-0.533,10.388-3.805l-0.875-1.115c-4.408,3.463-9.842,3.516-9.896,3.516
		h-0.416l-0.202,0.365c-1.85,3.33-6.154,6.223-7.999,7.359c-0.584-2.781-2.521-5.91-2.615-6.059l-0.821-1.314l-0.457,1.48
		c-0.411,1.338-2.341,3.27-3.582,4.385c-1.082-2.277-1.487-4.377-1.487-6.158c0-3.516,1.419-5.822,1.512-5.971l0.889-1.404
		l-1.628,0.33c-6.181,1.262-9.992,0.967-11.388,0.773c0.408-2.592,1.369-6.189,1.379-6.229l0.214-0.793c0,0-2.392-0.277-3.676-0.424
		c1.488-1.35,3.683-3.051,3.711-3.072l-0.866-1.121C52.366,168.612,48.784,171.386,47.585,172.755z"/>
	<path d="M100.925,197.145c-0.527-2.053-1.789-6.373-1.96-6.957l-0.336-1.146l-0.845,0.846c-1.723,1.723-4.325,2.875-5.607,3.375
		c-0.383-1.889-0.537-3.883-0.537-5.547c0-2.141,0.179-3.715,0.183-3.744l-1.408-0.166c-0.027,0.236-0.668,5.852,0.517,10.588
		l0.184,0.734l0.72-0.23c0.158-0.051,3.519-1.152,6.082-3.24c0.66,2.277,1.727,6.014,1.837,6.682l0.146,0.883l0.826-0.346
		c0.308-0.129,7.544-3.281,9.756-15.023l-1.393-0.262C107.421,192.444,102.718,196.056,100.925,197.145z"/>
	<path d="M117.551,179.64c4.247,2.918,5.263,6.273,5.474,7.221c-3.449,4.619-9.092,5.316-9.149,5.324l-0.978,0.107l0.411,0.893
		c1.447,3.135,1.803,5.793,1.803,7.648c0,0.902-0.084,1.609-0.168,2.094c-2.931-1.078-6.948-1.24-7.134-1.246l-0.66-0.023
		l-0.069,0.656c-0.22,2.088-0.813,3.609-1.154,4.357c-7.488-2.428-9.285-7.293-9.303-7.342l-0.464-1.357l-0.797,1.191
		c-4.107,6.16-9.144,5.426-10.389,5.129c-0.771-1.857-1.659-5.371-1.668-5.408l-0.228-0.908l-0.812,0.465
		c-1.552,0.885-3.185,0.863-3.923,0.799c-0.427-1.318-0.619-2.572-0.619-3.688c0-3.035,1.158-5.115,1.175-5.145l-1.229-0.707
		c-0.108,0.189-2.641,4.685-0.552,10.43l0.137,0.375l0.391,0.078c0.1,0.02,2.233,0.33,4.482-0.594
		c0.337,1.268,1.044,3.797,1.678,5.191l0.128,0.281l0.294,0.098c0.066,0.023,6.448,2.008,11.586-4.65
		c1.026,1.828,3.778,5.416,10.271,7.326l0.532,0.156l0.28-0.479c0.047-0.082,1.049-1.92,1.476-4.781
		c1.341,0.092,4.669,0.406,6.777,1.398l0.722,0.34l0.252-0.758c0.032-0.096,0.416-1.293,0.416-3.291c0-1.846-0.373-4.402-1.61-7.387
		c1.889-0.385,6.411-1.711,9.434-5.969l0.157-0.223l-0.031-0.27c-0.022-0.189-0.6-4.697-6.136-8.502L117.551,179.64z"/>
	<path d="M107.173,214.005c-0.191,0.154-4.661,3.842-3.412,9.373c0.504,2.23,1.692,3.945,3.438,4.957
		c2.007,1.162,4.196,1.119,5.462,0.73c1.397-0.43,4.451-2.184,2.645-9.188c-1.329-5.15-5.795-5.771-7.263-5.975l-0.593-0.09
		L107.173,214.005z M107.91,227.108c-1.415-0.82-2.346-2.18-2.766-4.043c-0.127-0.562-0.184-1.105-0.184-1.623
		c0-3.225,2.17-5.482,2.88-6.137l0.007,0.002c1.366,0.189,4.993,0.693,6.085,4.924c0.34,1.316,0.507,2.49,0.507,3.498
		c0,2.137-0.748,3.537-2.194,3.98C111.173,228.04,109.417,227.981,107.91,227.108z"/>
	
		<rect x="103.211" y="210.597" transform="matrix(-0.1961 -0.9806 0.9806 -0.1961 -79.1751 357.7032)" width="7.649" height="1.418"/>
	<path d="M129.011,189.524l-0.078,0.129l-0.018,0.15c-0.03,0.242-0.649,5.99,5.493,9.852c3.349,2.105,5.903,1.621,7.456,0.846
		c1.995-0.998,3.187-2.918,3.294-4.221c0.135-1.615-0.19-5.65-6.091-8.209C133.945,185.852,129.798,188.212,129.011,189.524z
		 M138.503,189.372c5.059,2.193,5.352,5.48,5.243,6.791c-0.063,0.764-0.906,2.266-2.515,3.07c-1.229,0.613-3.278,0.977-6.069-0.777
		c-4.443-2.795-4.862-6.648-4.862-8c0-0.164,0.008-0.203,0.014-0.287C130.865,189.468,134.105,187.466,138.503,189.372z"/>
	<path d="M123.198,187.759c2.492,0.311,5.869,2.225,5.903,2.244l0.703-1.23c-0.147-0.084-3.655-2.074-6.431-2.42L123.198,187.759z"
		/>
	<path d="M30.804,65.088c-0.166,0.266-0.085,0.615,0.181,0.781l2.666,1.666c0.265,0.166,0.615,0.084,0.781-0.182
		c0.166-0.264,0.085-0.615-0.181-0.779l-2.667-1.668C31.32,64.741,30.97,64.823,30.804,65.088z"/>
	<path d="M33.375,68.659l-3.667,0.5c-0.31,0.043-0.527,0.328-0.485,0.639c0.042,0.31,0.328,0.527,0.638,0.486l3.667-0.5
		c0.31-0.043,0.527-0.328,0.485-0.639C33.971,68.834,33.686,68.618,33.375,68.659z"/>
	<path d="M34.218,71.321l-2.334,2.332c-0.221,0.223-0.221,0.582,0,0.803c0.221,0.221,0.58,0.221,0.802,0l2.333-2.334
		c0.221-0.221,0.222-0.58,0-0.801C34.798,71.098,34.439,71.098,34.218,71.321z"/>
	<path d="M35.444,74.135l-1.5,3c-0.14,0.279-0.027,0.619,0.254,0.76c0.28,0.141,0.621,0.027,0.761-0.254l1.5-3
		c0.14-0.279,0.027-0.621-0.254-0.76C35.925,73.741,35.584,73.854,35.444,74.135z"/>
	<path d="M38.922,75.155c-0.312,0.016-0.553,0.283-0.536,0.596l0.167,3.168c0.016,0.312,0.283,0.553,0.596,0.535
		c0.312-0.016,0.553-0.283,0.536-0.596l-0.167-3.166C39.501,75.379,39.234,75.139,38.922,75.155z"/>
	<path d="M40.831,75.065c-0.27,0.16-0.36,0.508-0.201,0.777l1.667,2.834c0.159,0.27,0.506,0.359,0.776,0.201
		c0.27-0.16,0.36-0.508,0.201-0.777l-1.667-2.834C41.449,74.997,41.101,74.907,40.831,75.065z"/>
	<path d="M42.766,73.327c-0.125,0.287,0.005,0.621,0.292,0.748l2.667,1.166c0.287,0.125,0.621-0.006,0.747-0.293
		c0.125-0.287-0.005-0.621-0.292-0.746l-2.667-1.166C43.226,72.909,42.892,73.04,42.766,73.327z"/>
	<path d="M47.589,70.655l-3.167,0.168c-0.312,0.016-0.553,0.283-0.536,0.596c0.016,0.312,0.283,0.553,0.596,0.535l3.167-0.166
		c0.312-0.018,0.553-0.283,0.536-0.596C48.168,70.879,47.901,70.639,47.589,70.655z"/>
	<path d="M46.956,66.844l-3.333,1c-0.3,0.09-0.47,0.406-0.38,0.707c0.09,0.299,0.406,0.469,0.706,0.379l3.333-1
		c0.3-0.09,0.47-0.404,0.38-0.705C47.572,66.924,47.256,66.754,46.956,66.844z"/>
	<path d="M45.026,62.346l-2.5,2.834c-0.207,0.234-0.185,0.592,0.05,0.799c0.235,0.207,0.593,0.186,0.8-0.049l2.5-2.834
		c0.207-0.234,0.185-0.594-0.05-0.801C45.592,62.088,45.234,62.112,45.026,62.346z"/>
	<path d="M42.111,61.135l-1.333,2.666c-0.14,0.279-0.027,0.619,0.253,0.76c0.28,0.141,0.62,0.027,0.76-0.254l1.333-2.666
		c0.14-0.279,0.027-0.619-0.253-0.76C42.592,60.741,42.252,60.854,42.111,61.135z"/>
	<path d="M38.368,60.495c-0.309,0.045-0.523,0.334-0.477,0.645l0.5,3.332c0.046,0.31,0.335,0.523,0.645,0.477
		c0.31-0.045,0.523-0.334,0.477-0.645l-0.5-3.332C38.966,60.661,38.677,60.448,38.368,60.495z"/>
	<path d="M33.616,61.764c-0.252,0.185-0.307,0.539-0.122,0.793l1.833,2.5c0.185,0.252,0.54,0.307,0.793,0.121
		c0.252-0.186,0.307-0.541,0.121-0.793l-1.833-2.5C34.224,61.633,33.869,61.579,33.616,61.764z"/>
	<path d="M17.755,37.19c-0.294,0.107-0.443,0.434-0.335,0.729l1.667,4.5c0.109,0.293,0.435,0.443,0.729,0.334
		c0.294-0.109,0.443-0.436,0.335-0.729l-1.667-4.5C18.375,37.231,18.048,37.081,17.755,37.19z"/>
	<path d="M21.906,36.823c-0.312,0.025-0.545,0.299-0.52,0.611L21.72,41.6c0.025,0.312,0.298,0.545,0.61,0.52
		c0.312-0.025,0.544-0.299,0.52-0.611l-0.333-4.166C22.492,37.03,22.219,36.797,21.906,36.823z"/>
	<path d="M26.283,37.459l-2,3.832c-0.145,0.279-0.037,0.621,0.24,0.766c0.278,0.145,0.62,0.037,0.765-0.24l2-3.834
		c0.145-0.277,0.037-0.619-0.24-0.764C26.77,37.073,26.428,37.182,26.283,37.459z"/>
	<path d="M29.625,39.424l-2.833,2c-0.255,0.182-0.316,0.535-0.136,0.791c0.181,0.256,0.535,0.316,0.791,0.137l2.833-2
		c0.255-0.182,0.316-0.535,0.136-0.791C30.234,39.305,29.88,39.245,29.625,39.424z"/>
	<path d="M31.308,43.34l-3.167,0.832c-0.303,0.08-0.484,0.391-0.404,0.693c0.08,0.303,0.39,0.482,0.692,0.404l3.167-0.834
		c0.303-0.08,0.484-0.389,0.404-0.691C31.92,43.442,31.61,43.26,31.308,43.34z"/>
	<path d="M27.596,47c-0.122,0.289,0.014,0.621,0.302,0.742l3.167,1.334c0.289,0.121,0.621-0.014,0.743-0.303
		c0.122-0.287-0.014-0.621-0.302-0.742l-3.167-1.334C28.05,46.577,27.718,46.711,27.596,47z"/>
	<path d="M26.399,48.805c-0.229,0.213-0.243,0.572-0.03,0.801l2.167,2.334c0.213,0.23,0.572,0.242,0.801,0.029
		c0.229-0.213,0.243-0.57,0.03-0.801l-2.167-2.334C26.988,48.606,26.629,48.592,26.399,48.805z"/>
	<path d="M23.32,51.17c-0.305,0.072-0.493,0.377-0.42,0.682l0.833,3.5c0.073,0.305,0.378,0.492,0.683,0.42
		c0.305-0.072,0.493-0.377,0.42-0.682l-0.834-3.5C23.931,51.286,23.625,51.096,23.32,51.17z"/>
	<path d="M21.4,51.922l-0.833,3.5c-0.073,0.305,0.115,0.611,0.42,0.684c0.305,0.072,0.61-0.115,0.683-0.42l0.833-3.5
		c0.073-0.305-0.115-0.611-0.42-0.684C21.778,51.43,21.473,51.618,21.4,51.922z"/>
	<path d="M19.02,50.688l-2.833,3.332c-0.203,0.24-0.174,0.598,0.065,0.801c0.239,0.201,0.596,0.174,0.799-0.066l2.833-3.332
		c0.203-0.24,0.174-0.598-0.065-0.801C19.58,50.42,19.223,50.448,19.02,50.688z"/>
	<path d="M16.811,48.579l-2.833,1.834c-0.263,0.17-0.338,0.52-0.168,0.783c0.17,0.264,0.521,0.338,0.784,0.168l2.833-1.834
		c0.263-0.17,0.338-0.52,0.168-0.783C17.424,48.483,17.074,48.409,16.811,48.579z"/>
	<path d="M12.567,44.59c-0.073,0.305,0.115,0.609,0.42,0.682l3.5,0.834c0.305,0.072,0.61-0.115,0.683-0.42
		c0.073-0.305-0.115-0.611-0.42-0.684l-3.5-0.832C12.945,44.096,12.64,44.286,12.567,44.59z"/>
	<path d="M15.384,41.153c-0.221,0.223-0.221,0.582,0,0.803l2,2c0.221,0.221,0.58,0.221,0.802,0c0.221-0.221,0.221-0.58,0-0.803l-2-2
		C15.965,40.932,15.605,40.932,15.384,41.153z"/>
	<path d="M50.089,33.356c-0.294,0.107-0.444,0.434-0.336,0.729l1.167,3.166c0.108,0.293,0.434,0.443,0.728,0.336
		c0.294-0.107,0.444-0.434,0.336-0.729l-1.166-3.166C50.709,33.399,50.383,33.249,50.089,33.356z"/>
	<path d="M46.809,36.413c-0.17,0.264-0.095,0.613,0.168,0.785l2.833,1.832c0.263,0.17,0.614,0.096,0.784-0.168
		c0.17-0.262,0.095-0.613-0.168-0.783l-2.833-1.834C47.33,36.075,46.979,36.149,46.809,36.413z"/>
	<path d="M44.92,39.526c-0.108,0.293,0.042,0.619,0.336,0.727l3.167,1.168c0.294,0.107,0.62-0.043,0.728-0.336
		c0.108-0.295-0.042-0.621-0.336-0.729l-3.167-1.166C45.354,39.081,45.028,39.231,44.92,39.526z"/>
	<path d="M49.433,46.327L47.6,50.493c-0.126,0.287,0.004,0.619,0.291,0.748c0.287,0.125,0.62-0.004,0.748-0.291l1.833-4.166
		c0.126-0.287-0.004-0.621-0.291-0.748C49.894,45.909,49.561,46.04,49.433,46.327z"/>
	<path d="M52.718,47.221v4.834c0,0.312,0.254,0.566,0.567,0.566s0.567-0.254,0.567-0.566v-4.834c0-0.313-0.254-0.566-0.567-0.566
		S52.718,46.909,52.718,47.221z"/>
	<path d="M54.865,46.381c-0.28,0.139-0.394,0.48-0.254,0.76l2.167,4.334c0.14,0.279,0.48,0.393,0.76,0.254
		c0.28-0.141,0.394-0.482,0.253-0.762l-2.166-4.332C55.486,46.354,55.145,46.241,54.865,46.381z"/>
	<path d="M57.599,44.495c-0.125,0.287,0.006,0.621,0.294,0.746l3.835,1.668c0.287,0.125,0.621-0.006,0.745-0.295
		c0.125-0.287-0.006-0.621-0.294-0.746l-3.833-1.666C58.058,44.077,57.724,44.208,57.599,44.495z"/>
	<path d="M62.308,40.506l-3.167,0.834c-0.303,0.078-0.483,0.389-0.404,0.691c0.08,0.303,0.39,0.484,0.693,0.404l3.167-0.834
		c0.303-0.078,0.483-0.389,0.403-0.692C62.921,40.608,62.611,40.426,62.308,40.506z"/>
	<path d="M62.001,36.397l-3.167,1.834c-0.271,0.156-0.363,0.504-0.207,0.773c0.157,0.271,0.504,0.363,0.775,0.207l3.167-1.832
		c0.271-0.158,0.363-0.504,0.206-0.775C62.62,36.333,62.273,36.241,62.001,36.397z"/>
	<path d="M58.856,33.018l-3.167,3.666c-0.205,0.236-0.178,0.594,0.059,0.799c0.237,0.205,0.595,0.18,0.8-0.059l3.167-3.666
		c0.205-0.236,0.178-0.594-0.059-0.799C59.419,32.754,59.061,32.78,58.856,33.018z"/>
	<path d="M53.719,33.026l-0.167,3.334c-0.016,0.312,0.226,0.578,0.538,0.594c0.313,0.016,0.579-0.225,0.595-0.537l0.166-3.334
		c0.016-0.312-0.226-0.578-0.538-0.594C54.001,32.473,53.734,32.713,53.719,33.026z"/>
	<path d="M100.458,76.776l-1.5,2.668c-0.153,0.271-0.057,0.617,0.216,0.771c0.273,0.152,0.618,0.057,0.772-0.217l1.5-2.666
		c0.153-0.273,0.057-0.617-0.216-0.771C100.958,76.407,100.613,76.504,100.458,76.776z"/>
	<path d="M103.719,76.534l-0.167,4.5c-0.012,0.313,0.232,0.576,0.545,0.588c0.313,0.012,0.576-0.232,0.588-0.547l0.167-4.5
		c0.012-0.312-0.232-0.574-0.545-0.586C103.994,75.977,103.731,76.221,103.719,76.534z"/>
	<path d="M106.264,76.112c-0.244,0.195-0.284,0.553-0.088,0.797l2,2.5c0.195,0.244,0.552,0.283,0.797,0.088
		c0.244-0.195,0.284-0.551,0.088-0.797l-2-2.5C106.866,75.956,106.509,75.916,106.264,76.112z"/>
	<path d="M108.259,75.678c-0.116,0.291,0.025,0.619,0.315,0.736c0.89,0.355,4.08,0.373,4.711,0.373c0.313,0,0.566-0.254,0.566-0.566
		c0.001-0.313-0.253-0.566-0.566-0.566c-1.478,0-3.785-0.092-4.289-0.293C108.706,75.245,108.375,75.387,108.259,75.678z"/>
	<path d="M114.31,71.672l-4.5,1.166c-0.303,0.08-0.484,0.389-0.406,0.691c0.079,0.303,0.388,0.486,0.691,0.406l4.5-1.166
		c0.303-0.078,0.484-0.389,0.406-0.691C114.922,71.776,114.614,71.594,114.31,71.672z"/>
	<path d="M113.365,68.213l-2.666,1.334c-0.279,0.141-0.394,0.48-0.253,0.76c0.14,0.281,0.48,0.395,0.761,0.254l2.666-1.332
		c0.279-0.141,0.394-0.482,0.253-0.762C113.986,68.188,113.645,68.075,113.365,68.213z"/>
	<path d="M112.242,64.131l-3,2.666c-0.233,0.207-0.255,0.566-0.047,0.801c0.208,0.234,0.566,0.254,0.801,0.047l3-2.666
		c0.233-0.209,0.255-0.566,0.047-0.801C112.834,63.944,112.476,63.922,112.242,64.131z"/>
	<path d="M109.123,62.28l-1.666,3c-0.151,0.273-0.053,0.617,0.221,0.77c0.273,0.152,0.618,0.055,0.771-0.219l1.666-3
		c0.152-0.275,0.054-0.619-0.22-0.771C109.621,61.907,109.275,62.006,109.123,62.28z"/>
	<path d="M105.39,61.657c-0.312,0.035-0.535,0.316-0.501,0.627l0.333,3c0.034,0.311,0.314,0.535,0.626,0.5
		c0.312-0.033,0.535-0.314,0.501-0.625l-0.333-3C105.982,61.848,105.702,61.623,105.39,61.657z"/>
	<path d="M102.448,62.848c-0.299,0.094-0.464,0.412-0.37,0.711l1,3.166c0.095,0.299,0.413,0.465,0.712,0.369
		c0.299-0.094,0.464-0.412,0.37-0.711l-1-3.166C103.065,62.918,102.747,62.752,102.448,62.848z"/>
	<path d="M99.006,65.538c-0.193,0.246-0.15,0.604,0.096,0.797l2.333,1.832c0.246,0.193,0.603,0.15,0.796-0.096
		c0.194-0.246,0.151-0.602-0.095-0.795l-2.333-1.834C99.557,65.248,99.2,65.291,99.006,65.538z"/>
	<path d="M96.573,68.737c-0.084,0.301,0.093,0.613,0.395,0.697l3,0.834c0.302,0.082,0.614-0.094,0.697-0.395
		c0.084-0.303-0.093-0.615-0.394-0.699l-3-0.832C96.968,68.258,96.656,68.434,96.573,68.737z"/>
	<path d="M99.641,71.84l-3.167,0.832c-0.303,0.08-0.483,0.391-0.403,0.693c0.079,0.303,0.39,0.482,0.692,0.404l3.167-0.834
		c0.303-0.08,0.483-0.389,0.403-0.691C100.254,71.942,99.944,71.76,99.641,71.84z"/>
	<path d="M99.279,73.934l-2.666,2c-0.251,0.188-0.302,0.543-0.113,0.795c0.188,0.25,0.543,0.301,0.793,0.113l2.666-2
		c0.251-0.189,0.302-0.545,0.113-0.795C99.884,73.797,99.529,73.747,99.279,73.934z"/>
	<path d="M94.398,36.104c-0.064,0.307,0.132,0.607,0.438,0.672l3.166,0.666c0.307,0.064,0.607-0.131,0.672-0.438
		c0.064-0.307-0.132-0.607-0.438-0.672l-3.166-0.666C94.763,35.602,94.462,35.797,94.398,36.104z"/>
	<path d="M96.026,32.68c-0.206,0.236-0.183,0.594,0.054,0.801l2.666,2.334c0.235,0.205,0.593,0.182,0.8-0.053
		c0.206-0.236,0.183-0.594-0.054-0.801l-2.666-2.334C96.59,32.422,96.233,32.446,96.026,32.68z"/>
	<path d="M97.95,29.764c-0.252,0.185-0.307,0.541-0.12,0.793l2.333,3.168c0.186,0.252,0.54,0.305,0.792,0.119
		c0.252-0.186,0.307-0.541,0.12-0.793l-2.333-3.166C98.556,29.633,98.202,29.579,97.95,29.764z"/>
	<path d="M102.179,27.498c-0.308,0.059-0.509,0.356-0.45,0.662l0.667,3.5c0.059,0.307,0.355,0.51,0.663,0.451
		c0.308-0.059,0.509-0.355,0.45-0.664l-0.667-3.5C102.784,27.641,102.487,27.44,102.179,27.498z"/>
	<path d="M105.557,27.645l-0.5,3.666c-0.043,0.311,0.175,0.596,0.485,0.639c0.31,0.043,0.596-0.176,0.638-0.484l0.5-3.668
		c0.043-0.311-0.175-0.596-0.485-0.639C105.885,27.118,105.599,27.334,105.557,27.645z"/>
	<path d="M108.814,28.573l-1.667,2.5c-0.174,0.262-0.104,0.613,0.157,0.787c0.261,0.174,0.612,0.104,0.786-0.158l1.667-2.5
		c0.174-0.26,0.104-0.611-0.157-0.785C109.339,28.243,108.988,28.313,108.814,28.573z"/>
	<path d="M112.617,29.598l-3.167,2.334c-0.252,0.186-0.307,0.541-0.12,0.793c0.186,0.252,0.54,0.305,0.792,0.119l3.167-2.334
		c0.252-0.186,0.307-0.539,0.12-0.793C113.223,29.465,112.869,29.413,112.617,29.598z"/>
	<path d="M114.865,31.381l-3.333,1.666c-0.279,0.141-0.394,0.48-0.253,0.76c0.14,0.281,0.48,0.395,0.761,0.254l3.333-1.666
		c0.279-0.141,0.394-0.48,0.253-0.76C115.486,31.354,115.145,31.241,114.865,31.381z"/>
	<path d="M117.682,34.331l-4.5,0.832c-0.308,0.059-0.511,0.354-0.454,0.662c0.058,0.307,0.352,0.51,0.661,0.453l4.5-0.832
		c0.308-0.057,0.511-0.354,0.454-0.66C118.286,34.477,117.991,34.274,117.682,34.331z"/>
	<path d="M59.432,137.02c-0.296,0.104-0.452,0.426-0.348,0.723l1.167,3.332c0.104,0.297,0.427,0.451,0.723,0.348
		c0.295-0.104,0.451-0.426,0.348-0.721l-1.167-3.334C60.05,137.071,59.727,136.917,59.432,137.02z"/>
	<path d="M63.09,135.989c-0.312,0.016-0.554,0.281-0.538,0.594l0.167,3.334c0.016,0.312,0.282,0.553,0.595,0.537
		c0.312-0.016,0.554-0.281,0.538-0.594l-0.167-3.334C63.669,136.214,63.403,135.974,63.09,135.989z"/>
	<path d="M67.787,138.095l-3,2.168c-0.254,0.182-0.311,0.537-0.128,0.791c0.184,0.254,0.538,0.311,0.792,0.127l3-2.166
		c0.254-0.184,0.311-0.537,0.128-0.791C68.395,137.97,68.041,137.911,67.787,138.095z"/>
	<path d="M71.322,140.837l-3.5,0.834c-0.305,0.072-0.493,0.377-0.421,0.682c0.072,0.305,0.379,0.492,0.683,0.42l3.5-0.832
		c0.305-0.072,0.493-0.379,0.421-0.684C71.932,140.952,71.625,140.765,71.322,140.837z"/>
	<path d="M70.726,144.825l-3.167,0.332c-0.312,0.033-0.537,0.312-0.504,0.623c0.032,0.312,0.312,0.537,0.623,0.506l3.167-0.334
		c0.312-0.033,0.537-0.313,0.504-0.623C71.317,145.019,71.038,144.792,70.726,144.825z"/>
	<path d="M66.941,147.811c-0.135,0.283-0.015,0.619,0.267,0.756l3.5,1.666c0.283,0.135,0.62,0.014,0.756-0.268
		c0.135-0.283,0.015-0.621-0.268-0.756l-3.5-1.666C67.414,147.409,67.077,147.528,66.941,147.811z"/>
	<path d="M65.079,149.526c-0.291,0.115-0.435,0.443-0.321,0.734l1.5,3.834c0.114,0.291,0.443,0.436,0.735,0.322
		c0.291-0.115,0.435-0.443,0.321-0.734l-1.5-3.834C65.7,149.558,65.371,149.413,65.079,149.526z"/>
	<path d="M61.052,150.856l-0.166,3c-0.017,0.312,0.223,0.58,0.535,0.598c0.312,0.018,0.58-0.223,0.598-0.535l0.166-3
		c0.017-0.312-0.223-0.58-0.535-0.596C61.337,150.306,61.07,150.544,61.052,150.856z"/>
	<path d="M58.935,149.942l-2.334,1.834c-0.246,0.193-0.289,0.549-0.096,0.795c0.193,0.246,0.55,0.289,0.796,0.096l2.333-1.832
		c0.247-0.193,0.289-0.551,0.096-0.797C59.538,149.792,59.181,149.749,58.935,149.942z"/>
	<path d="M57.272,147.185l-2.5,0.832c-0.297,0.1-0.458,0.42-0.358,0.717c0.099,0.299,0.42,0.459,0.717,0.359l2.5-0.834
		c0.297-0.098,0.458-0.42,0.358-0.717C57.891,147.245,57.569,147.085,57.272,147.185z"/>
	<path d="M54.619,143.821c-0.313,0-0.567,0.254-0.567,0.566c0,0.315,0.254,0.568,0.567,0.568h3.667c0.313,0,0.567-0.254,0.567-0.568
		c0-0.312-0.254-0.566-0.567-0.566H54.619z"/>
	<path d="M56.051,139.153c-0.221,0.223-0.221,0.582,0,0.803l2.5,2.5c0.221,0.221,0.58,0.221,0.802,0c0.221-0.221,0.222-0.58,0-0.803
		l-2.5-2.5C56.631,138.933,56.272,138.933,56.051,139.153z"/>
	<path d="M94.885,154.987c-0.222,0.221-0.222,0.58,0,0.803l2.5,2.5c0.221,0.221,0.58,0.221,0.801,0c0.222-0.223,0.222-0.58,0-0.803
		l-2.5-2.5C95.465,154.767,95.106,154.767,94.885,154.987z"/>
	<path d="M98.725,153.472l-0.5,3.332c-0.047,0.311,0.167,0.6,0.477,0.645c0.31,0.047,0.599-0.166,0.645-0.477l0.5-3.332
		c0.047-0.311-0.167-0.6-0.477-0.645C99.06,152.948,98.771,153.161,98.725,153.472z"/>
	<path d="M102.599,152.829l-1.666,3.834c-0.125,0.287,0.007,0.621,0.294,0.746c0.287,0.125,0.621-0.008,0.745-0.295l1.666-3.834
		c0.125-0.287-0.007-0.621-0.294-0.746C103.057,152.411,102.723,152.542,102.599,152.829z"/>
	<path d="M105.751,155.456l-3.333,2.834c-0.238,0.203-0.268,0.561-0.064,0.799c0.202,0.238,0.56,0.268,0.799,0.064l3.333-2.832
		c0.238-0.203,0.268-0.561,0.064-0.801C106.348,155.282,105.99,155.253,105.751,155.456z"/>
	<path d="M107.644,158.413l-3.334,2.166c-0.263,0.172-0.337,0.521-0.167,0.785c0.171,0.262,0.521,0.336,0.784,0.166l3.334-2.166
		c0.263-0.172,0.337-0.522,0.167-0.785C108.257,158.317,107.907,158.243,107.644,158.413z"/>
	<path d="M109.911,162.155l-4.5,0.334c-0.312,0.023-0.547,0.295-0.523,0.607c0.023,0.313,0.295,0.547,0.607,0.523l4.5-0.334
		c0.312-0.021,0.547-0.295,0.523-0.607C110.495,162.368,110.223,162.134,109.911,162.155z"/>
	<path d="M104.769,164.989c-0.129,0.285-0.002,0.621,0.284,0.75l3.333,1.5c0.285,0.127,0.622,0,0.749-0.285
		c0.129-0.285,0.002-0.621-0.284-0.75l-3.333-1.5C105.233,164.575,104.897,164.702,104.769,164.989z"/>
	<path d="M103.865,165.714c-0.28,0.141-0.394,0.482-0.253,0.762c0.342,0.682,2.017,3.125,2.207,3.4
		c0.177,0.258,0.53,0.324,0.788,0.146c0.258-0.178,0.323-0.531,0.146-0.789c-0.503-0.732-1.867-2.748-2.127-3.266
		C104.486,165.688,104.145,165.575,103.865,165.714z"/>
	<path d="M102.119,167.987c-0.313,0.002-0.567,0.254-0.567,0.568c0,0.522,0.521,2.904,0.681,3.623
		c0.068,0.305,0.371,0.498,0.677,0.43c0.306-0.068,0.498-0.371,0.431-0.676c-0.321-1.445-0.653-3.104-0.653-3.377
		C102.685,168.241,102.431,167.987,102.119,167.987z"/>
	<path d="M98.721,168.499l-0.333,3.334c-0.031,0.311,0.196,0.588,0.508,0.619c0.312,0.031,0.59-0.195,0.621-0.508l0.333-3.334
		c0.031-0.311-0.196-0.588-0.508-0.619C99.031,167.96,98.752,168.186,98.721,168.499z"/>
	<path d="M96.6,167.159l-1.333,3c-0.127,0.285,0.003,0.621,0.288,0.748c0.286,0.127,0.623-0.004,0.748-0.289l1.334-3
		c0.127-0.285-0.003-0.623-0.288-0.748C97.063,166.743,96.726,166.872,96.6,167.159z"/>
	<path d="M96.293,165.677l-4,1.168c-0.3,0.088-0.473,0.402-0.385,0.703c0.087,0.301,0.402,0.473,0.703,0.385l4-1.166
		c0.3-0.088,0.473-0.404,0.385-0.703C96.909,165.763,96.594,165.589,96.293,165.677z"/>
	<path d="M91.953,162.487c-0.313,0-0.567,0.254-0.567,0.568c0,0.313,0.254,0.566,0.567,0.566h3.5c0.313,0,0.567-0.254,0.567-0.566
		c0-0.314-0.254-0.568-0.567-0.568H91.953z"/>
	<path d="M92.795,158.27c-0.157,0.271-0.064,0.617,0.206,0.775l3.167,1.834c0.271,0.156,0.617,0.064,0.774-0.207
		c0.157-0.271,0.065-0.617-0.206-0.775l-3.167-1.834C93.298,157.907,92.953,157.999,92.795,158.27z"/>
	<path d="M67.117,169.958l-1.833,3.5c-0.146,0.277-0.038,0.619,0.239,0.766c0.277,0.145,0.619,0.037,0.765-0.238l1.833-3.5
		c0.146-0.277,0.038-0.621-0.239-0.766C67.604,169.573,67.262,169.681,67.117,169.958z"/>
	<path d="M69.065,170.769l-0.833,3.832c-0.066,0.307,0.127,0.607,0.434,0.676c0.306,0.066,0.607-0.129,0.674-0.434l0.833-3.834
		c0.066-0.307-0.127-0.607-0.434-0.674C69.433,170.269,69.131,170.462,69.065,170.769z"/>
	<path d="M71.051,171.388v3.834c0,0.313,0.254,0.566,0.567,0.566s0.567-0.254,0.567-0.566v-3.834c0-0.312-0.254-0.566-0.567-0.566
		S71.051,171.075,71.051,171.388z"/>
	<path d="M74.512,173.452c-0.312,0.033-0.589-0.182-0.622-0.494l0.328,3.098c0.033,0.311,0.315,0.596,0.627,0.563
		c0.311-0.033,0.54-0.252,0.508-0.563l-0.338-3.238C75.047,173.13,74.823,173.419,74.512,173.452z"/>
	<path d="M76.967,172.175c-0.302,0.084-0.479,0.396-0.395,0.699l0.834,3c0.084,0.301,0.396,0.477,0.697,0.395
		c0.302-0.084,0.478-0.396,0.394-0.699l-0.834-3C77.581,172.269,77.268,172.091,76.967,172.175z"/>
	<path d="M78.481,171.573c-0.174,0.262-0.104,0.613,0.157,0.787l3,2c0.261,0.174,0.612,0.104,0.786-0.158
		c0.174-0.26,0.104-0.611-0.157-0.785l-3-2C79.006,171.243,78.655,171.313,78.481,171.573z"/>
	<path d="M89.34,142.872c-0.194,0.246-0.151,0.602,0.095,0.795l2.333,1.834c0.246,0.193,0.603,0.15,0.796-0.096
		c0.194-0.246,0.151-0.602-0.095-0.797l-2.333-1.832C89.89,142.583,89.534,142.624,89.34,142.872z"/>
	<path d="M92.051,140.206c-0.285,0.129-0.411,0.465-0.281,0.75l1.666,3.668c0.13,0.283,0.466,0.41,0.751,0.281
		c0.285-0.131,0.411-0.467,0.282-0.752l-1.668-3.666C92.672,140.202,92.336,140.075,92.051,140.206z"/>
	<path d="M95.048,138.825c-0.311,0.039-0.531,0.322-0.492,0.633l0.334,2.668c0.039,0.311,0.322,0.531,0.633,0.492
		c0.311-0.039,0.531-0.322,0.492-0.633l-0.334-2.668C95.642,139.007,95.359,138.786,95.048,138.825z"/>
	<path d="M99.066,137.927l-1,4.334c-0.07,0.305,0.12,0.609,0.425,0.68c0.306,0.07,0.61-0.119,0.681-0.424l1-4.334
		c0.07-0.305-0.12-0.609-0.425-0.68C99.441,137.433,99.136,137.622,99.066,137.927z"/>
	<path d="M103.017,138.192l-2.5,3c-0.2,0.24-0.168,0.598,0.072,0.799c0.241,0.199,0.599,0.168,0.799-0.074l2.5-3
		c0.2-0.24,0.168-0.598-0.072-0.797C103.575,137.919,103.217,137.952,103.017,138.192z"/>
	<path d="M105.478,140.413l-2.833,1.832c-0.264,0.17-0.339,0.521-0.168,0.785c0.17,0.262,0.52,0.338,0.783,0.168l2.833-1.834
		c0.264-0.17,0.339-0.521,0.168-0.783C106.091,140.317,105.741,140.243,105.478,140.413z"/>
	<path d="M109.023,141.72l-3.833,2c-0.277,0.145-0.385,0.486-0.24,0.764c0.146,0.277,0.487,0.385,0.766,0.24l3.833-2
		c0.277-0.145,0.385-0.486,0.24-0.764C109.643,141.681,109.301,141.573,109.023,141.72z"/>
	<path d="M51.16,80.18c0,0-0.125,4.875-0.125,5.75c0,0,11.25,3.5,19.375,14.5s9.5,23.25,9.5,23.25l2.625,1
		c0,0-2.125,4.875-1.625,7.625l0.875,0.5l5.25,1.375c0,0,1.5-3.875,3.125-4.625c0,0,4.875,3.125,5.375,3.75s0.375-1.125,0.875-0.875
		s5.5-5.5,5.5-5.5s3,3.125,3.75,4.25c0,0,1.75-4.125,2.25-13.375c0.5-9.25,1.75-16.5,1.75-16.5s-1.125,1-1.625,2.5s-5.5,6-8.5,9.875
		s-6.375,10-6.375,10s-3.25-11.25-7.875-21.125c0,0-0.75-5,3.75-9.625c0,0-2.125-6.25,1.5-12.75l-0.75-0.625l-1.875,0.125
		c0,0-5.75,6.75-8.75,14.375c0,0-7.125-9.75-20.125-14L57.91,80.43L51.16,80.18z"/>
	<path d="M50.535,86.43c0,0-6.125-0.5-8.5-2.625c0,0-1.25,4.375-3.25,6.5c0,0-0.25,6.25,6,9.625s11,5.375,11,5.375
		s-0.375-5.75-0.625-8.875S52.66,88.305,50.535,86.43z"/>
	<path d="M18.16,79.18c0,0-2.875,2.5-3.5,6.875c-0.625,4.375-0.875,8-2,9.875s-0.125,1,0.625,0.375s2.875-3,5.25-4.5
		s6.625-3.75,8-7.5l-0.125-4.5C26.41,79.805,21.535,80.93,18.16,79.18z"/>
	<path d="M58.035,60.805l2.625,1l-1,2.25c0,0,4.75,3.125,8.25,4.75s6.5,5.5,6.875,6.5s0.75,1.25,1,0s0.5-5.5,0.5-8.875
		s-2.5-7.625-2.5-7.625s4.375-1.625,6.75-2.75s3.5-1.75,3.5-1.75s-2.125-2.125-2.5-4s-5.75-6.375-11.875-5.875
		c0,0,4.625,4.125,2.875,9.625l-4.125,0.125c0,0,1,3,0.125,5.25c0,0-1.125,0.125-2.125-0.25s-5-2.875-5-2.875L58.035,60.805z"/>
	<path d="M16.285,26.18c0,0-2.5-2.125-2.625-7.625s-0.25-7.75-0.25-8.125s2.75,2.875,5.25,4.5s6,6.625,6.375,8.5l-0.875-0.25
		l-2.75,5.125l-3.625-2L16.285,26.18z"/>
	<path d="M44.785,21.055c0,0-1.25-3-4.375-5.75s-8.625-4.25-8.625-4.25s3.625-1.5,9.125-0.875s13.625,2.5,17.125,9.125l-5.625,3.25
		c0,0-1.125-3.875-2.375-4.75S44.785,21.055,44.785,21.055z"/>
	<path d="M58.66,19.805c0,0,2.875,3.375,2.625,8l0.5,0.125c0,0,4.625-4.5,11.125-2c0,0-0.25,2.625-1.25,3.875s2,0.75,5.875-0.875
		s6.125-5.75,8.875-6.75c0,0-4.75-4-13-1.75c0,0,0.875-9.5,7.25-13C80.661,7.43,67.411,9.68,58.66,19.805z"/>
	<path d="M91.786,23.93c0,0-1.25-8.75-9.25-12.75c0,0-0.125-0.75,1.625-0.5s11.125,1.125,19.625,8.625l-0.375,1.375
		c0,0-2.5,2.5-3.625,6.75l-1.25-0.5C98.536,26.93,93.911,24.305,91.786,23.93z"/>
	<path d="M107.911,17.18c0,0,1-2.5,3.75-5s3.875-3.25,4.375-4.5s1.375,0,1.5,0.75s2.875,7.25,1.25,12.875c0,0-1.75-2.5-2.375-3.25
		s-2,0-2,0l-3,3.25L107.911,17.18z"/>
	<path d="M120.536,28.305c0,0,2.125-4.5,8.5-5.125c6.375-0.625,11.375,1.625,14.375,0.625c0,0,1.375-0.75,1.375-0.125
		s-3.125,2.875-3.625,3.375s-5.25,5.25-11,6.375c0,0-2-2.875-7.625-4.125C122.536,29.305,120.286,29.18,120.536,28.305z"/>
	<path d="M122.786,89.555l-6.375-2.375c0,0-0.75,3.75-3.125,6.125c0,0,0.5,2.875,3.375,5.5s7,7.875,7.375,10.5
		c0,0,0.375,0.625,1-0.5s1.125-5.25,1.375-7.875S125.911,92.93,122.786,89.555z"/>
	<path d="M122.536,83.93c0,0,4.375,1.625,8.375,1.875c4,0.25,9.5,2.5,10.125,3.375s1.25-9.375-12.25-15.375l-0.75,0.125
		c0,0-2.375,4.625-7.625,4.625l0.25,1.25C120.661,79.805,122.411,82.18,122.536,83.93z"/>
	<path d="M43.035,139.181c0,0-3-5.875-12.5-8s-17.5,1.25-17.5,1.25s-0.5,1,1.75,1.375s3.75-1.625,7.5,0.625s11.5,12.25,19.75,11.875
		c0,0,0-0.25-0.75-0.875s-3-1.625-3-1.625S41.41,140.181,43.035,139.181z"/>
	<path d="M49.66,156.681c0,0-6.5,1.625-10.875,5.375s-5.875,6.25-9.375,7.25s-6.5,2.125-9.125,3.625s-4.25,3.25-2,2.625
		s6.75-2.25,9.75-1.625s8.25,1,11.25,0s8.625-0.375,9-0.25l0.875-1.375l3.625-3.125c0,0-0.125-8.625-0.25-12.625L49.66,156.681z"/>
	<path d="M51.16,179.556c0,0-2.25,2.5-6.375,2.875s-9.375-0.375-13.5,1.75s-5.25,5.625-9.25,7.5s-12.625,2.75-14.25,8.375v22.375
		c0,0,1,7.625,8.375,8.375l10-0.125c0,0,8.244-12.07,19.75-20.125c16.25-11.375,26.125-10.75,31.125-12.375c0,0-0.125-5.875,1-7.625
		c0,0-0.375-0.625-1.125,0.25s-5.75,4.125-5.75,4.125s-1.25-4.25-3-6c0,0-2.625,3.875-4.75,4.5c0,0-3.25-6.875-0.375-13.5
		c0,0-6.5,2.25-11.25,0.875C51.785,180.806,50.535,180.056,51.16,179.556z"/>
	<path d="M88.786,204.931c0,0-2.5,2.625-3.875,6.875s-3.875,9.875-5,10.875s-1.875,2.75,0.75,0.5s5.25-3.5,7.5-4.5
		s11.125-4.875,14.5-12.25c0,0-6-3.375-6.625-6.75C96.036,199.681,94.786,203.556,88.786,204.931z"/>
	<path d="M113.536,203.306c0,0,0.375,3.875,4.5,7s8.625,2.5,11.625,3.125c3,0.625,6.25,1.875,6.75,2.125s1.5,1,0.25-0.75
		s-5.125-5.375-6.625-8.375s-6.625-10.875-15.125-12.625l-0.25,0.625c0,0,2.25,5.625,0.75,9.5L113.536,203.306z"/>
	<path d="M117.536,169.431c0,0,4,3.75,10.625,2.5c6.625-1.25,14.875-5.875,16.25-6.25c0,0-3.875-1.125-6.875-2.5
		s-11.25-3.875-17.75-1.125c0,0,2.375,2.625,2.25,3.75S118.536,169.431,117.536,169.431z"/>
</g>
</svg>
