<?xml version="1.0" encoding="iso-8859-1"?>
<!-- Generator: Adobe Illustrator 19.1.0, SVG Export Plug-In . SVG Version: 6.00 Build 0)  -->
<svg version="1.1" id="&#xB808;&#xC774;&#xC5B4;_1" xmlns="http://www.w3.org/2000/svg" xmlns:xlink="http://www.w3.org/1999/xlink"
	 x="0px" y="0px" viewBox="0 0 153.071 238.11" style="enable-background:new 0 0 153.071 238.11;" xml:space="preserve">
<rect style="fill:#E60012;" width="153.071" height="238.11"/>
<g>
	<path style="fill:#FFFFFF;" d="M8.604,15.388v206.833c0,0,0.5,8.334,9.333,9.166h117.667c0,0,9.166-1.334,9-10.166v-206
		c0,0-1-7.999-10-8.667L17.938,6.888C17.938,6.888,9.271,7.388,8.604,15.388z"/>
	<path style="fill:#F5B090;" d="M44.771,79.972l-2.25-1.625c0,0-3.75,5.125-7.75,6.625l-3.5-4.5c0,0-3,2.125-4.375,2.75
		c0,0-1.75-6.25-1.75-7.375s-1.125-2.75-1.125-2.75l-4.125-3.5c0,0-3.875-1.375-5.125-3.25l5.875-7.5l-5.75-5.125
		c0,0,2.875-3.5,8.875-4.625s8.5-7.125,8.5-7.125l1.25-0.75l-2.875-3.75l3.875-4.25l-2.5-4.5c0,0,0-0.25,1.25-0.625
		s5.875-1.125,5.875-1.125l6-2.5c0,0,3.875-4.375,6.625-5.5l2.5,3.75l4.5-3.75c0,0,4.25,1.25,6.75,11.125l3,5.125l8.75-5
		c0,0-1.875-10.625,2.375-16.75c0,0,3.375,1,6.625,3.375c0,0,1-3.875,1.875-5.625c0,0,5,2.125,7.375,4.75s3.875,2.875,3.875,2.875
		l5,2.5c0,0,5,2.125,5.875,2.875c0,0-0.75,1.875-1.25,2.875s3.75,5.5,3.75,5.5l0.625,3c0,0-5.25,5.125-7.875,6.125
		c0,0,2.25,10.5-1.5,14s-8.5,5-8.5,5l-33.5,18.875l-6.75,6.125h-7.25L44.771,79.972z"/>
	<path style="fill:#F5B090;" d="M8.604,132.054l1.333-0.5c0,0-0.666-8.666,2.167-12c0,0,3.167,0.834,5,1.668l3-5.167
		c0,0,4.833-0.001,8.833,4.499c0,0,4-5.332,8-6.332c0,0,1.833,2.166,2,4.832l4.833-2.332l3.5,0.833l1.167,4.999l0.667,11.333
		l-3.833,14.334c0,0-6.5,1.166-7.333,1c-0.833-0.168-12.5-2.668-12.5-2.668l-15,1.668l-2-1.668L8.604,132.054z"/>
	<path style="fill:#F5B090;" d="M81.896,150.722c0,0,4.377-1.168,8.543,1.5c0,0,2.832-7,10.832-9c0,0,1,3,0.334,5.5
		c0,0,5.5-1.668,6.166-2.168c0,0,1.5,5.418,0.375,12.168c0,0,7.125,3.25,8,7.625s1,5.875,1,5.875l-2.375,2.5
		c0,0-8.75,3.5-10.25,3.875s-9.125,1.875-9.5,1.75s-10-5.5-10-5.5l-6.625-3l-3-3.75l0.75-6.25L81.896,150.722z"/>
	<path style="fill:#F5B090;" d="M25.396,187.472c0,0-9.5-1-15,7.25c0,0,3.625,3.375,4,3.75c0,0-3.125,5-3.375,5.875
		s0.625,3,4.125,4.125s7.75,1.75,7.75,1.75l3.75,8.375c0,0,1.5,4,2.5,5.5c0,0,3.25-1.375,4.625-3.5l4.875,3.875l2.75,1.125l0.875-6
		l0.5-4.25c0,0,5.75,0.75,10-0.5c0,0,0.125-2.875-0.625-5.5c0,0,5.125-1.75,6.375-3.875c0,0-1.25-5.875-4.125-7.875
		s-15-9.625-15-9.625L25.396,187.472z"/>
	<path style="fill:#E60012;" d="M51.438,44.055l12-0.333c0,0-1.5-9.333,1-14c0,0,2.958,1.291,4.958,3.625l4.125-4.75
		c0,0,3.625,0.75,7.625,6.75c0,0,3-5.25,14.375-2.125c0,0-0.625,3.25-1.875,5.25c0,0,5-0.125,5.75-0.375
		c0,0,0.75,6.125-3.125,10.875c0,0,6.125,2.5,8.875,8.875c0,0,7.125-4,10-2.75s5,3.25,5,3.25l1.625,3.875c0,0-1.375,5.25-5.125,9.25
		c0,0,2.875,2.75,4.625,7.375l-0.25,4.25c0,0,0.375,5.75-0.5,10.125c0,0,3.625,1.875,5.25,5.25s1.625,6.125,1.625,6.125l-5.625,1
		l1,7.501c0,0-2.625-0.125-4-0.125s-13.625,2-13.625,2s-1.5,5.25-3.75,5.75s-4.875,0.25-4.875,0.25l-3.5-2.125l-2.5-3.875
		c0,0-3,14.251-3.75,18.499c-0.75,4.25-4.875,17.25-4.875,17.25l-4.75,14.375l4,2.625l3.125-2.75c0,0,1,0,1.25,0.375
		s4.5,4.75,4.5,4.75s5-1.375,9-0.875s4.625,1,4.625,1l-3.25,5.375l4.125,3.375c0,0,0.25,0.625,0.125,1s-1.625,2.75-1.625,2.75
		l-3.5,7.375c0,0,1.625,3.25,1.75,6.125s-1.375,7.125-1.375,7.125l-8.75,3c0,0-8.125-2.625-10.25-5.25c0,0-4.375,8.375-12,6
		l-1.5-3.375l1.625-4.875c0,0-4.625-0.375-6.375-1.375l-41.875-0.875c0,0-0.625-0.5,0.125-1.25s5.625-10,7.375-13.875
		c0,0-4.5-3.375-5.25-4.25c0,0-3.375,3.375-6,3.875c0,0-2.625-4.125-1-10.375c0,0-6.5-1.75-7.375-5.625l0.25-7.5
		c0,0,1.25-2.25,2.625-3c0,0-3-2.625-2.875-5l0.125-4.25c0,0,3.625-2.375,9.75-3.25l5-8.625l0.625,0.25l3.375,3.875l0.875-0.5
		c0,0,3-1.375,4-1.625c0,0,3.5,3.125,5.75,9.25l3.75,0.25c0,0,6.042-18.083,8.708-40.916C53.271,81.222,53.604,61.222,51.438,44.055
		z"/>
	<path style="fill:#E60012;" d="M23.271,23.555c0,0,0.333-5-3-8s-9.667-3.333-10.667,0.5s2.5,6.667,5.333,8
		S22.604,24.222,23.271,23.555z"/>
	<path style="fill:#E60012;" d="M121.938,16.388c0,0,0.666-3.833,5.5-5.167c4.832-1.334,7,1.499,7.332,2.666
		c0.334,1.167,0.168,3.667-5,4.834C124.604,19.888,122.438,16.888,121.938,16.388z"/>
	<path style="fill:#E60012;" d="M121.896,153.472c0,0,1.75-4.625,7.625-5.75c5.875-1.125,7.375,0.875,7.875,2.875s0.5,4.5-1.875,5.5
		S124.146,157.722,121.896,153.472z"/>
	<path style="fill:#E60012;" d="M79.396,211.722c0,0-3.5,0.875-4.875,5.25s1.25,8.375,4.5,8.375c3.25,0,4.5-2.5,4.75-6.375
		S81.521,212.347,79.396,211.722z"/>
	<path style="fill:#E60012;" d="M35.646,221.972c0,0-0.5,2.75,0.625,5.375s5.125,3.875,5.5,4s5,0,5,0s2.625-2.5,1.25-6.875
		s-5.75-4.875-5.75-4.875s-1.125,4-2.375,4.625L35.646,221.972z"/>
	<path style="fill:#E60012;" d="M21.771,107.097c0,0-5.5-2.375-6.5-6.125s1.25-8.375,4.125-8.75s5.875,2.375,5.875,6.625
		S23.271,106.597,21.771,107.097z"/>
	<path style="fill:#E60012;" d="M39.438,57.972c0,0-3.917,0.583-4.25,4.5s3.417,5.417,5.75,5.167s4.75-2.5,4.25-5.917
		C44.688,58.305,40.521,57.555,39.438,57.972z"/>
	<path style="fill:#E60012;" d="M48.604,43.638c0,0,1.083-3.75,5.417-5s7.75,0.334,8.417,1.417s1.25,3.833,1.25,3.833l-12,0.5
		l-0.083,2.333L48.604,43.638z"/>
	<path style="fill:#E60012;" d="M88.688,32.388c0,0,1.416-1.5,4.666-1.333c3.25,0.166,5.834,2.833,4.166,7.417l-3.75-0.417
		L88.688,32.388z"/>
	<path style="fill:#E60012;" d="M86.521,165.972c0,0,1.375-3.25,4.5-4.375s9.5,0.625,8.5,7.375l-4.125,4.5l-6.375-0.25l-2.625-3.875
		L86.521,165.972z"/>
	<path style="fill:#E60012;" d="M28.271,197.222c0,0,0.625,6.375,7.625,6.75s9.25-6.375,9.25-6.375L28.271,197.222z"/>
	<path style="fill:#E60012;" d="M21.396,136.847c0,0-2.426-0.338-1.375-3.375c1.125-3.249,6.375-3.749,9.125-1.875
		c2.75,1.875,2.125,4,2.125,4l-4.25,4.875L21.396,136.847z"/>
	<path d="M18.526,6.013c-5.861,0-10.63,4.769-10.63,10.63v204.825c0,5.861,4.769,10.629,10.63,10.629h116.157
		c5.861,0,10.631-4.768,10.631-10.629V16.643c0-5.861-4.77-10.63-10.631-10.63H18.526z M9.313,221.468V16.643
		c0-5.08,4.133-9.213,9.213-9.213h116.157c5.08,0,9.213,4.133,9.213,9.213v204.825c0,5.08-4.133,9.211-9.213,9.211H18.526
		C13.446,230.679,9.313,226.548,9.313,221.468z"/>
	<path d="M91.245,42.014L50.48,43.542l0.087,0.76c9.855,85.903-30.487,151.39-30.896,152.042l-0.663,1.055l44.188,1.041l0.204-0.393
		c43.119-82.766,28.715-154.754,28.564-155.472l-0.123-0.585L91.245,42.014z M90.688,43.453c0.471,2.585,2.291,13.692,2.291,30.676
		c0,28.59-5.174,73.798-30.642,122.874c-0.856-0.021-38.57-0.908-40.836-0.961c4.487-7.662,32.032-57.457,32.032-124.499
		c0-8.611-0.477-17.515-1.494-26.641C53.448,44.849,89.53,43.496,90.688,43.453z"/>
	<path d="M43.771,39.347c-0.188,0-1.827,0.036-2.324,1.278c-0.223,0.557-2.049,3.101-2.829,4.188c0,0-0.07,0.099-0.096,0.135
		c-1.123-1.163-3.542-3.647-4.457-4.431l-0.574-0.492l-0.454,0.605c-0.12,0.161-2.822,3.823-4.1,8.146
		c-2.1-0.241-9.263-0.643-14.327,4.271l-0.525,0.51l0.527,0.509c1.402,1.352,4.025,3.912,5.091,5.048
		c-0.688,0.997-1.953,2.74-2.728,3.404c-1.218,1.044-2.878,3.361-2.948,3.459l-0.324,0.455l0.365,0.422
		c0.095,0.109,2.352,2.682,5.374,3.393c2.054,0.483,4.388,0.017,5.75-0.349c-0.214,1.257-0.522,3.439-0.63,6.131
		c-0.008,0.21-0.012,0.417-0.012,0.622c0,4.001,1.518,7.087,1.586,7.223l0.332,0.664l0.648-0.363c0.786-0.44,2.953-1.694,4.17-2.755
		c0.656,1.161,1.88,3.202,2.983,4.304l0.347,0.347l0.447-0.203c0.221-0.1,5.138-2.408,7.858-6.594
		c1.452,1.186,5.335,4.092,9.248,4.651l0.2-1.403c-4.394-0.628-9.081-4.784-9.127-4.826l-0.661-0.592l-0.431,0.775
		c-1.962,3.532-5.911,5.79-7.214,6.466c-1.339-1.55-2.856-4.419-2.873-4.451l-0.639-1.22l-0.622,1.232
		c-0.215,0.426-1.968,1.615-3.696,2.63c-0.42-1.073-1.139-3.28-1.139-5.896c0-0.184,0.003-0.369,0.011-0.555
		c0.162-4.047,0.811-7.012,0.817-7.042l0.279-1.259l-1.212,0.439c-0.035,0.012-3.507,1.252-6.096,0.643
		c-1.91-0.449-3.525-1.843-4.236-2.538c0.536-0.714,1.585-2.062,2.369-2.734c1.227-1.052,3.212-4.019,3.295-4.145l0.294-0.44
		l-0.339-0.407c-0.685-0.822-3.73-3.791-4.988-5.01c5.335-4.583,13.076-3.352,13.157-3.338l0.642,0.11l0.164-0.63
		c0.853-3.288,2.738-6.33,3.599-7.608c1.492,1.419,4.338,4.387,4.371,4.421l0.593,0.619l1.083-1.525
		c1.37-1.908,2.729-3.827,2.993-4.488c0.091-0.228,0.521-0.327,0.838-0.359c2.883,1.72,7.91,7.659,7.962,7.72l1.084-0.913
		c-0.221-0.263-5.453-6.452-8.531-8.163l-0.161-0.089H43.771L43.771,39.347z"/>
	<path d="M35.717,54.199c-0.289,0.121-0.424,0.454-0.302,0.743l1.333,3.167c0.122,0.289,0.454,0.424,0.743,0.302
		c0.289-0.122,0.424-0.454,0.302-0.743l-1.333-3.166C36.338,54.213,36.006,54.078,35.717,54.199z"/>
	<path d="M38.988,53.334c-0.307,0.064-0.502,0.365-0.438,0.671l0.666,3.167c0.065,0.307,0.365,0.502,0.671,0.438
		c0.307-0.064,0.502-0.365,0.438-0.671l-0.667-3.167C39.595,53.465,39.294,53.269,38.988,53.334z"/>
	<path d="M42.038,53.492c-0.311,0.037-0.533,0.318-0.497,0.629l0.333,2.833c0.037,0.311,0.318,0.533,0.629,0.497
		c0.311-0.037,0.534-0.318,0.497-0.629l-0.333-2.833C42.631,53.678,42.349,53.456,42.038,53.492z"/>
	<path d="M45.9,55.46l-2.5,2.167c-0.237,0.205-0.262,0.563-0.057,0.8c0.205,0.236,0.563,0.262,0.799,0.057l2.5-2.167
		c0.237-0.205,0.262-0.563,0.057-0.8C46.494,55.28,46.136,55.255,45.9,55.46z"/>
	<path d="M48.774,58.512l-3.333,1c-0.3,0.09-0.47,0.406-0.38,0.706c0.09,0.3,0.406,0.47,0.706,0.38l3.333-1
		c0.3-0.09,0.47-0.406,0.38-0.706C49.391,58.592,49.075,58.422,48.774,58.512z"/>
	<path d="M46.271,62.655c-0.313,0-0.567,0.254-0.567,0.567c0,0.313,0.254,0.567,0.567,0.567h2.833c0.313,0,0.567-0.254,0.567-0.567
		c0-0.313-0.254-0.567-0.567-0.567H46.271z"/>
	<path d="M45.169,65.525c-0.201,0.24-0.168,0.598,0.073,0.798l2,1.667c0.24,0.201,0.598,0.168,0.798-0.073
		c0.201-0.24,0.168-0.598-0.073-0.798l-2-1.667C45.727,65.252,45.369,65.285,45.169,65.525z"/>
	<path d="M42.839,67.054c-0.277,0.146-0.382,0.49-0.236,0.766l1.5,2.833c0.146,0.277,0.49,0.382,0.766,0.236
		c0.277-0.146,0.382-0.49,0.236-0.766l-1.5-2.833C43.459,67.013,43.116,66.908,42.839,67.054z"/>
	<path d="M39.706,68.502l-0.333,3.5c-0.03,0.311,0.199,0.588,0.511,0.618c0.311,0.03,0.588-0.199,0.618-0.511l0.333-3.5
		c0.03-0.312-0.199-0.588-0.511-0.618C40.013,67.961,39.736,68.19,39.706,68.502z"/>
	<path d="M36.825,67.538l-1.833,2.334c-0.193,0.246-0.15,0.602,0.096,0.796c0.246,0.193,0.602,0.15,0.796-0.096l1.833-2.334
		c0.193-0.246,0.15-0.602-0.096-0.796C37.375,67.249,37.019,67.292,36.825,67.538z"/>
	<path d="M35.044,65.702l-2.666,1.167c-0.287,0.125-0.418,0.46-0.292,0.747c0.125,0.287,0.46,0.418,0.747,0.293l2.666-1.167
		c0.287-0.125,0.418-0.46,0.293-0.747C35.665,65.708,35.331,65.577,35.044,65.702z"/>
	<path d="M30.707,62.999c-0.031,0.312,0.196,0.589,0.508,0.62l3.333,0.333c0.312,0.031,0.589-0.196,0.62-0.508
		c0.031-0.312-0.196-0.589-0.508-0.62l-3.333-0.333C31.016,62.46,30.738,62.688,30.707,62.999z"/>
	<path d="M30.449,58.601c-0.159,0.27-0.069,0.617,0.201,0.776l2.834,1.667c0.27,0.159,0.617,0.069,0.776-0.201
		c0.159-0.27,0.069-0.617-0.201-0.776L31.225,58.4C30.955,58.241,30.608,58.331,30.449,58.601z"/>
	<path d="M33.187,56.338c-0.211,0.231-0.196,0.589,0.035,0.801l2,1.833c0.231,0.211,0.59,0.196,0.801-0.035
		c0.211-0.231,0.196-0.59-0.035-0.801l-2-1.833C33.757,56.092,33.398,56.108,33.187,56.338z"/>
	<path d="M51.795,18.251c-5.124,2.489-7.963,7.104-8.753,8.542c-6.843-1-11.527,1.026-11.727,1.116L30.5,28.274l0.539,0.71
		c1.261,1.659,2.645,3.703,2.823,4.296c-0.296,0.451-2.208,2.268-3.893,3.742l-0.542,0.475l3.65,4.034l1.051-0.951
		c0,0-2.001-2.212-2.69-2.973c2.388-2.121,3.717-3.504,3.852-4.047c0.013-0.052,0.029-0.115,0.029-0.208
		c0-0.41-0.335-1.416-2.579-4.454c1.627-0.528,5.52-1.487,10.579-0.644l0.521,0.087l0.232-0.476
		c0.026-0.054,2.632-5.221,7.762-8.005c0.495,0.884,2.404,4.294,2.404,4.294l0.665-0.567c0.971-0.854,3.312-2.903,4.348-3.771
		c1.106,1.011,4.308,4.379,5.488,10.539l1.392-0.267c-1.534-8.011-6.238-11.618-6.437-11.767l-0.425-0.319l-0.425,0.319
		c-0.524,0.393-3.014,2.568-4.218,3.624c-0.578-1.032-2.242-4.004-2.242-4.004L51.795,18.251z"/>
	<path d="M73.181,27.995c-0.442,0.663-2.572,2.953-3.846,4.297c-1.625-1.94-4.459-3.312-4.593-3.376l-0.635-0.303L63.8,29.246
		c-2.737,5.646-1.128,14.403-1.059,14.773l1.393-0.263c-0.009-0.048-0.498-2.716-0.498-5.974c0-2.365,0.292-5.017,1.178-7.227
		c1.035,0.576,2.982,1.788,3.854,3.204l0.48,0.781l0.635-0.662c0.343-0.358,2.999-3.138,4.155-4.546
		c1.232,0.806,4.508,3.166,6.552,6.741l0.637,1.116l0.607-1.143c0.023-0.044,2.453-4.241,13.018-2.404
		c-0.254,1.083-0.801,3.146-1.578,4.365l-0.662,1.041l1.232,0.047c0.375,0.015,3.15,0.106,4.932-0.153
		c-0.178,2.374-1.129,9.275-6.32,13.038l0.832,1.147c6.881-4.988,6.961-14.664,6.961-15.074v-1.022l-0.959,0.359
		c-0.699,0.262-2.664,0.324-4.264,0.309c0.869-1.931,1.352-4.389,1.375-4.513l0.133-0.693l-0.693-0.135
		c-9.359-1.819-13.195,0.708-14.576,2.156c-2.764-4.231-6.855-6.636-7.041-6.742l-0.574-0.328L73.181,27.995z"/>
	<path d="M87.294,10.758c-0.701,1.521-1.305,3.758-1.629,5.073c-2.725-1.979-5.824-3.213-5.968-3.269l-0.604-0.236l-0.289,0.579
		c-4.062,8.123-2.305,17.396-2.229,17.787l1.391-0.273c-0.008-0.043-0.398-2.108-0.398-5.086c0-3.146,0.478-7.302,2.255-11.178
		c1.189,0.525,3.796,1.774,5.83,3.448l0.896,0.737l0.246-1.134c0.008-0.035,0.699-3.166,1.549-5.286
		c1.549,0.517,6.266,2.572,9.279,9.259l0.25,0.552l0.588-0.161c0.043-0.012,4.313-1.047,11.09,2.979
		c-0.387,0.873-1.404,2.665-3.623,3.885l-0.918,0.505l0.812,0.664c2.076,1.7,4.549,3.665,5.781,4.45
		c-0.412,1.32-1.984,5.255-6.605,7.181l-0.664,0.276l0.285,0.66c0.018,0.038,0.977,2.318,0.977,5.534
		c0,2.114-0.414,4.632-1.783,7.183l1.248,0.67c1.512-2.818,1.973-5.566,1.973-7.868c0-2.539-0.557-4.514-0.883-5.464
		c5.709-2.73,6.932-8.122,6.98-8.359l0.117-0.571l-0.596-0.246c-0.443-0.186-2.854-2.046-5.178-3.928
		c2.822-1.948,3.611-4.587,3.645-4.708l0.143-0.511l-0.451-0.28c-6.273-3.904-10.658-3.745-12.164-3.525
		c-3.961-8.243-10.293-9.678-10.566-9.734l-0.551-0.113L87.294,10.758z"/>
	<path d="M112.347,74.686c-7.283,0.944-10.846,4.378-12.107,5.907c-2.811-3.278-6.178-4.938-6.33-5.01l-0.611,1.278
		c0.037,0.018,3.723,1.814,6.412,5.294l0.623,0.807l0.541-0.868c0.029-0.047,2.99-4.564,10.9-5.857
		c0.029,0.628,0.062,1.538,0.062,2.56c0,1.325-0.059,2.769-0.262,3.785l-0.195,0.979l0.988-0.137
		c0.225-0.031,4.947-0.705,7.484-1.974c0.285,1.008,0.719,2.93,0.719,5.564c0,1.803-0.209,3.904-0.818,6.191l-0.139,0.518
		l0.463,0.274c0.043,0.026,4.309,2.581,5.371,5.161c0.791,1.918,1.184,4.003,1.35,5.074c-1.611,0.111-4.891,0.364-5.75,0.651
		l-0.582,0.193c0,0,1.068,6.009,1.297,7.296c-1.951-0.006-7.416-0.409-13.965-4.262l-0.789-0.464l-0.252,0.88
		c-0.021,0.075-2.064,7.075-4.68,10.555c-0.852-1.021-4.018-4.82-4.018-4.82l-0.535,0.385c-0.356,0.256-2.975,2.147-4.279,3.195
		c-1.074-1.566-2.098-3.354-2.098-3.953h-1.418c0,1.488,2.334,4.773,2.801,5.418l0.488,0.67l0.586-0.586
		c0.414-0.414,2.574-2.016,4.213-3.205c0.685,0.822,4.266,5.119,4.266,5.119l0.547-0.609c2.553-2.834,4.561-8.785,5.234-10.94
		c8.213,4.565,14.537,4.033,14.811,4.006l0.76-0.076c0,0-1.146-6.455-1.346-7.576c1.244-0.196,3.883-0.408,5.559-0.513l0.738-0.046
		l-0.076-0.735c-0.016-0.133-0.357-3.301-1.551-6.196c-1.043-2.532-4.369-4.826-5.533-5.572c0.545-2.235,0.773-4.303,0.773-6.075
		c0-4.061-1.006-6.684-1.068-6.843l-0.342-0.865l-0.742,0.558c-1.295,0.97-4.76,1.715-6.764,2.055
		c0.111-0.977,0.174-2.057,0.174-3.105c0-1.781-0.104-3.318-0.111-3.431l-0.053-0.75L112.347,74.686z"/>
	<path d="M96.161,50.041c8.082,3.419,8.393,8.174,8.402,8.375l0.061,1.338l1.072-0.798c2.838-2.128,6.062-3.043,7.533-3.373
		c0,1.25,0,5.62,0,5.62l0.68,0.06c0.408,0.037,3.695,0.84,6.826,1.636c-1.139,4.593-4.606,8.294-4.643,8.333l-0.594,0.619
		l0.721,0.466c2.092,1.354,3.125,6.348,3.348,8.158l1.406-0.172c-0.033-0.271-0.812-6.183-3.381-8.628
		c1.104-1.281,3.871-4.829,4.707-9.151l0.127-0.656l-0.646-0.165c-2.205-0.564-5.643-1.429-7.133-1.735c0-0.952,0-6.062,0-6.062
		l-0.811,0.115c-0.182,0.026-4.225,0.654-8.076,3.187c-0.533-1.88-2.402-5.661-9.047-8.472L96.161,50.041z"/>
	<path d="M94.431,72.635c-0.141,0.28-0.025,0.621,0.254,0.76l2.666,1.334c0.279,0.14,0.621,0.026,0.76-0.254
		c0.141-0.28,0.027-0.621-0.252-0.76l-2.666-1.334C94.911,72.241,94.569,72.355,94.431,72.635z"/>
	<path d="M97.241,69.786c-0.24,0.201-0.273,0.558-0.072,0.798l1.666,2c0.201,0.241,0.559,0.273,0.799,0.073
		c0.24-0.201,0.273-0.558,0.072-0.798l-1.666-2C97.839,69.618,97.481,69.586,97.241,69.786z"/>
	<path d="M100.06,67.362c-0.289,0.116-0.432,0.446-0.315,0.737l1,2.5c0.115,0.291,0.445,0.432,0.736,0.316
		c0.291-0.116,0.432-0.446,0.316-0.737l-1-2.5C100.681,67.387,100.351,67.246,100.06,67.362z"/>
	<path d="M103.708,65.658c-0.311,0.035-0.535,0.315-0.5,0.626l0.332,3c0.035,0.311,0.314,0.536,0.627,0.501
		c0.311-0.035,0.535-0.315,0.5-0.626l-0.332-3C104.3,65.848,104.021,65.624,103.708,65.658z"/>
	<path d="M106.708,66.326l-0.334,3c-0.033,0.311,0.189,0.591,0.502,0.626c0.311,0.035,0.592-0.19,0.625-0.501l0.334-3
		c0.033-0.311-0.189-0.591-0.502-0.626C107.022,65.79,106.741,66.015,106.708,66.326z"/>
	<path d="M111.179,67.18l-2.5,2.833c-0.207,0.235-0.184,0.593,0.051,0.8c0.234,0.207,0.592,0.185,0.799-0.05l2.5-2.833
		c0.207-0.235,0.186-0.593-0.049-0.8C111.745,66.923,111.386,66.945,111.179,67.18z"/>
	<path d="M114.407,69.857l-3.166,1.167c-0.293,0.108-0.443,0.434-0.336,0.728c0.109,0.293,0.436,0.444,0.729,0.335l3.166-1.167
		c0.295-0.108,0.445-0.434,0.336-0.728C115.028,69.899,114.702,69.748,114.407,69.857z"/>
	<path d="M105.224,86.99c-0.312,0.026-0.543,0.3-0.517,0.612l0.166,2c0.027,0.312,0.301,0.543,0.613,0.518
		c0.312-0.026,0.543-0.3,0.517-0.612l-0.168-2C105.81,87.196,105.536,86.964,105.224,86.99z"/>
	<path d="M101.603,86.681c-0.299,0.093-0.467,0.411-0.373,0.71l0.834,2.667c0.092,0.299,0.41,0.465,0.709,0.372
		c0.299-0.093,0.467-0.411,0.373-0.71l-0.834-2.667C102.218,86.754,101.901,86.587,101.603,86.681z"/>
	<path d="M97.313,89.386c-0.186,0.252-0.131,0.607,0.123,0.792l2.5,1.834c0.252,0.185,0.605,0.131,0.791-0.122
		c0.186-0.252,0.131-0.607-0.121-0.792l-2.5-1.834C97.854,89.079,97.499,89.134,97.313,89.386z"/>
	<path d="M95.724,93.242c-0.082,0.302,0.1,0.613,0.4,0.694l2.5,0.667c0.303,0.08,0.613-0.099,0.695-0.402
		c0.08-0.302-0.1-0.613-0.402-0.694l-2.5-0.667C96.114,92.76,95.804,92.94,95.724,93.242z"/>
	<path d="M95.212,96.467c-0.049,0.309,0.162,0.6,0.471,0.648l3.166,0.5c0.311,0.049,0.6-0.162,0.649-0.472
		c0.049-0.309-0.162-0.6-0.471-0.648l-3.166-0.5C95.55,95.946,95.261,96.158,95.212,96.467z"/>
	<path d="M98.249,98.446l-1.666,1.334c-0.244,0.195-0.283,0.552-0.088,0.797c0.195,0.244,0.553,0.284,0.797,0.088l1.666-1.333
		c0.244-0.196,0.285-0.553,0.088-0.797C98.851,98.29,98.495,98.25,98.249,98.446z"/>
	<path d="M99.989,100.043l-1.668,2.167c-0.191,0.248-0.145,0.604,0.104,0.795c0.248,0.191,0.605,0.145,0.795-0.104l1.668-2.167
		c0.191-0.248,0.145-0.604-0.104-0.795C100.536,99.748,100.179,99.795,99.989,100.043z"/>
	<path d="M102.235,101.322c-0.313,0.02-0.549,0.289-0.529,0.602l0.166,2.667c0.019,0.312,0.289,0.55,0.601,0.53
		c0.312-0.02,0.549-0.289,0.529-0.602l-0.166-2.667C102.817,101.54,102.548,101.303,102.235,101.322z"/>
	<path d="M104.634,101.005c-0.305,0.076-0.488,0.384-0.412,0.688l0.666,2.667c0.076,0.304,0.385,0.488,0.688,0.412
		c0.305-0.076,0.488-0.384,0.412-0.688l-0.666-2.666C105.245,101.114,104.937,100.929,104.634,101.005z"/>
	<path d="M106.825,100.205c-0.193,0.246-0.15,0.603,0.096,0.796l2.332,1.833c0.246,0.193,0.604,0.151,0.797-0.096
		c0.193-0.246,0.15-0.603-0.096-0.796l-2.332-1.833C107.376,99.916,107.019,99.959,106.825,100.205z"/>
	<path d="M108.759,98.481c-0.135,0.283-0.014,0.622,0.271,0.754l2.832,1.334c0.283,0.133,0.623,0.012,0.754-0.271
		c0.135-0.284,0.014-0.623-0.271-0.755l-2.832-1.333C109.229,98.075,108.89,98.197,108.759,98.481z"/>
	<path d="M109.55,95.939c-0.064,0.306,0.131,0.607,0.438,0.671l3.166,0.667c0.307,0.064,0.607-0.131,0.672-0.438
		c0.064-0.306-0.131-0.607-0.438-0.671l-3.166-0.666C109.915,95.436,109.614,95.632,109.55,95.939z"/>
	<path d="M109.884,93.439c-0.064,0.306,0.131,0.607,0.438,0.671l3.166,0.667c0.307,0.064,0.607-0.131,0.672-0.438
		c0.064-0.306-0.133-0.607-0.438-0.671l-3.166-0.666C110.249,92.936,109.948,93.132,109.884,93.439z"/>
	<path d="M110.554,89.805l-2.168,2c-0.229,0.212-0.244,0.571-0.031,0.801c0.213,0.23,0.57,0.244,0.801,0.032l2.168-2
		c0.229-0.212,0.244-0.571,0.031-0.801C111.142,89.607,110.784,89.593,110.554,89.805z"/>
	<path d="M107.737,87.694l-0.666,1.833c-0.107,0.294,0.045,0.62,0.34,0.727c0.293,0.107,0.619-0.044,0.727-0.339l0.666-1.833
		c0.107-0.295-0.045-0.62-0.34-0.727C108.171,87.249,107.845,87.4,107.737,87.694z"/>
	<path d="M9.603,14.721c-0.746,0.746-1.039,2.107-0.767,3.554c0.223,1.181,1.187,4.123,5.316,5.93
		c4.602,2.013,7.594,0.766,8.631,0.172c0.667,0.377,8.471,4.795,8.471,4.795c0.341,0.193,0.773,0.073,0.966-0.268
		c0.062-0.11,0.092-0.23,0.092-0.349c0-0.247-0.129-0.487-0.36-0.617c0,0-6.731-3.81-8.042-4.552c0.016-0.059,0.068-0.1,0.068-0.165
		c0-1.03-0.21-6.293-4.344-8.774C14.594,11.422,11.397,12.926,9.603,14.721z M14.722,22.906c-3.511-1.536-4.311-3.935-4.492-4.895
		c-0.21-1.111,0.037-1.948,0.376-2.289c2.09-2.091,4.883-2.111,8.301-0.06c3.117,1.87,3.579,5.849,3.645,7.17
		c-0.104,0.078-0.212,0.159-0.212,0.159C22.229,23.077,19.56,25.023,14.722,22.906z"/>
	<path d="M126.206,11.052c-4.617,1.599-5.104,4.966-5.135,5.232c-6.012,1.675-12.857,5.649-13.158,5.827
		c-0.227,0.132-0.352,0.369-0.352,0.612c0,0.122,0.031,0.246,0.098,0.358c0.199,0.337,0.633,0.45,0.971,0.252
		c0.074-0.043,7.303-4.25,13.225-5.801c0.771,0.818,2.904,2.447,7.338,1.893c3.352-0.419,4.889-1.884,5.586-3.039
		c0.807-1.332,0.768-2.671,0.488-3.413C134.581,11.144,130.96,9.407,126.206,11.052z M126.669,12.392
		c4.27-1.478,6.932,0.173,7.271,1.079c0.174,0.464,0.131,1.345-0.375,2.182c-0.535,0.887-1.76,2.018-4.549,2.366
		c-4.758,0.594-6.254-1.586-6.316-1.68c0,0-0.072-0.109-0.143-0.217C122.772,15.355,123.599,13.455,126.669,12.392z"/>
	<path d="M23.209,132.79c-0.135,0.174-3.221,4.221-5.241,8.604c-1.47,0.184-6.572,1.051-9.877,4.504l1.024,0.98
		c3.431-3.586,9.32-4.113,9.379-4.117l0.418-0.035l0.171-0.383c1.506-3.389,3.797-6.699,4.771-8.043
		c1.934,1.953,3.299,4.107,3.314,4.131l0.567,0.906l0.614-0.877c0.744-1.062,2.854-1.979,4.01-2.396
		c3.187,3.963,5.061,8.855,5.08,8.906l0.157,0.418l4.278,0.373l0.123-1.412c0,0-2.713-0.236-3.397-0.295
		c-0.539-1.33-2.428-5.686-5.455-9.289l-0.305-0.363l-0.452,0.145c-0.342,0.109-2.982,0.984-4.528,2.373
		c-0.673-0.967-1.965-2.691-3.608-4.217l-0.57-0.529L23.209,132.79z"/>
	<path d="M7.991,149.946c0.124,0.373,1.125,3.262,2.571,4.768c-0.785,0.668-2.059,1.826-2.666,2.799l1.202,0.752
		c0.628-1.006,2.381-2.496,3.003-2.986l0.808-0.635l-0.881-0.529c-1.048-0.629-2.207-3.166-2.692-4.617L7.991,149.946z"/>
	<path d="M7.758,164.923c0.057,0.191,1.475,4.564,7.704,6.439c-0.145,0.826-0.372,2.395-0.372,4.275
		c0,1.898,0.234,4.076,1.025,6.018l0.28,0.688l0.673-0.311c0.168-0.078,3.796-1.781,5.753-3.818
		c0.869,0.754,2.732,2.297,5.071,3.773l0.757-1.197c-3.069-1.939-5.374-4.066-5.397-4.088l-0.57-0.529l-0.474,0.617
		c-1.14,1.48-3.705,2.922-4.981,3.58c-0.494-1.543-0.714-3.203-0.714-4.711c0-2.541,0.441-4.584,0.449-4.617l0.148-0.67l-0.664-0.17
		c-5.994-1.537-7.279-5.518-7.331-5.686L7.758,164.923z"/>
	<path d="M84.116,164.04c-0.59,0.561-2.23,2.125-3.094,3.037c-0.759-0.615-2.972-2.406-2.972-2.406l-0.892,1.102l4.093,3.312
		l0.441-0.637c0.184-0.264,1.559-1.621,2.93-2.93c2.502,2.219,4.537,5.23,4.559,5.264l0.287,0.43l0.498-0.143
		c6.105-1.744,10.98-0.793,12.861-0.281c-0.75,1.145-3.338,5.088-3.338,5.088s3.906,3.07,4.684,3.682
		c-2.355,4.119-7.506,6.838-7.559,6.867l-0.889,0.457l0.727,0.688c0.025,0.025,2.707,2.596,3.803,6.51
		c0.244,0.869,0.338,1.777,0.338,2.66c0,2.199-0.58,4.238-0.914,5.234c-1.104-0.41-7.363-2.74-7.363-2.74l-0.084,0.924
		c-0.119,1.32-0.893,4.162-1.268,5.486c-5.986-1.951-9.512-5.08-9.549-5.113l-0.625-0.568l-0.452,0.715
		c-4.649,7.385-9.714,6.143-10.963,5.689c-0.206-0.717-0.302-1.549-0.302-2.408c0-2.32,0.547-4.709,0.555-4.742l0.19-0.82
		l-0.839-0.049c-2.698-0.158-5.942-1.283-5.974-1.295l-0.468,1.338c0.127,0.045,2.877,0.992,5.553,1.295
		c-0.175,0.928-0.432,2.551-0.432,4.248c0,1.123,0.114,2.256,0.444,3.191l0.097,0.273l0.261,0.127
		c0.069,0.035,6.78,3.123,12.615-5.438c1.324,1.055,4.824,3.545,10.158,5.146l0.682,0.203l0.203-0.682
		c0.047-0.16,1.018-3.453,1.395-5.564c1.289,0.48,6.984,2.6,6.984,2.6l0.262-0.631c0.066-0.158,1.256-3.08,1.256-6.398
		c0-1.006-0.111-2.051-0.395-3.064c-0.873-3.119-2.607-5.396-3.551-6.469c1.705-1.006,5.748-3.684,7.668-7.521l0.26-0.518
		c0,0-3.783-2.973-4.609-3.623c0.576-0.877,3.623-5.52,3.623-5.52l-0.816-0.318c-0.248-0.096-6.082-2.254-14.107-0.127
		c-0.687-0.975-2.662-3.641-5.033-5.594l-0.482-0.398L84.116,164.04z"/>
	<path d="M9.708,194.29l-0.377,0.494l0.439,0.438c0.094,0.096,2.114,2.1,4.131,3.494c-0.936,1.189-2.958,3.883-3.631,5.768
		l-0.061,0.172l0.03,0.182c0.093,0.561,1.328,5.406,14.973,6.211c-0.001,0.119-0.005,0.205-0.005,0.352
		c0,2.527,0.348,9.02,3.658,13.572l0.417,0.572l0.573-0.416c0.334-0.242,2.851-2.113,3.964-3.799
		c1.085,0.891,3.331,2.623,5.802,3.859l0.362,0.18l0.34-0.219c0.12-0.078,2.716-1.838,2.716-8.494c0-0.256-0.019-0.545-0.027-0.814
		c1.527,0.375,4.82,0.84,10.071-0.26l0.615-0.129l-0.054-0.625c-0.013-0.145-0.289-3.205-0.968-5.338
		c1.318-0.477,4.284-1.658,6.526-3.371l0.374-0.287l-0.118-0.453c-0.057-0.221-1.435-5.438-4.927-8.057l-0.851,1.135
		c2.554,1.914,3.871,5.56,4.264,6.81c-2.682,1.899-6.35,3.1-6.389,3.113l-0.734,0.234l0.296,0.713
		c0.583,1.396,0.914,3.811,1.046,4.967c-6.358,1.201-9.584-0.045-9.616-0.059l-1.053-0.439l0.07,1.137
		c0.039,0.617,0.057,1.193,0.057,1.732c0,4.486-1.235,6.385-1.798,7.021c-3.033-1.609-5.72-3.971-5.748-3.994l-0.831-0.738
		l-0.319,1.065c-0.272,0.906-1.972,2.449-3.301,3.49c-2.697-4.217-2.997-10.055-2.997-12.227c0-0.527,0.016-0.838,0.017-0.854
		l0.041-0.715l-0.715-0.033c-11.783-0.555-13.938-4.123-14.276-4.924c0.882-2.207,3.759-5.715,3.789-5.752l0.519-0.627l-0.693-0.428
		c-1.526-0.939-3.248-2.502-4.061-3.271c6.092-7.48,13.752-6.473,14.083-6.424l0.214-1.4
		C25.174,186.796,16.387,185.558,9.708,194.29z"/>
	<path d="M46.504,199.855c-0.202,0.24-0.172,0.598,0.067,0.799l2.167,1.834c0.239,0.201,0.597,0.172,0.799-0.066
		c0.203-0.24,0.172-0.598-0.066-0.799l-2.167-1.834C47.064,199.587,46.706,199.616,46.504,199.855z"/>
	<path d="M43.744,201.45c-0.242,0.199-0.276,0.557-0.077,0.799L46,205.081c0.199,0.242,0.556,0.277,0.798,0.078
		c0.242-0.199,0.276-0.557,0.077-0.799l-2.333-2.832C44.343,201.286,43.986,201.251,43.744,201.45z"/>
	<path d="M42.227,203.528c-0.291,0.115-0.432,0.445-0.316,0.736l1,2.5c0.116,0.291,0.446,0.432,0.737,0.316
		c0.291-0.117,0.432-0.447,0.316-0.738l-1-2.5C42.848,203.554,42.518,203.411,42.227,203.528z"/>
	<path d="M39.5,204.831c-0.308,0.059-0.51,0.354-0.453,0.662l0.5,2.666c0.058,0.307,0.354,0.51,0.662,0.453
		c0.308-0.059,0.51-0.355,0.453-0.662l-0.5-2.666C40.104,204.976,39.808,204.773,39.5,204.831z"/>
	<path d="M35.039,205.358l-0.167,3.166c-0.017,0.312,0.224,0.58,0.536,0.596c0.312,0.018,0.58-0.223,0.596-0.535l0.167-3.166
		c0.017-0.314-0.224-0.58-0.536-0.598C35.322,204.806,35.055,205.046,35.039,205.358z"/>
	<path d="M32.299,204.573l-1.666,2.5c-0.174,0.262-0.104,0.613,0.157,0.787c0.261,0.174,0.612,0.104,0.786-0.158l1.667-2.5
		c0.174-0.26,0.104-0.611-0.157-0.785C32.825,204.243,32.473,204.314,32.299,204.573z"/>
	<path d="M29.593,201.605l-2.833,2.166c-0.249,0.191-0.296,0.547-0.106,0.795c0.19,0.248,0.546,0.297,0.794,0.105l2.833-2.166
		c0.249-0.191,0.296-0.547,0.106-0.795C30.198,201.462,29.842,201.413,29.593,201.605z"/>
	<path d="M27.183,199.829l-3.167,0.5c-0.31,0.049-0.521,0.338-0.472,0.649c0.049,0.309,0.339,0.52,0.648,0.471l3.167-0.5
		c0.309-0.049,0.52-0.34,0.472-0.648C27.782,199.991,27.492,199.78,27.183,199.829z"/>
	<path d="M76.042,190.657c-0.311,0.035-0.536,0.314-0.501,0.627l0.333,3c0.035,0.311,0.315,0.535,0.626,0.5
		c0.311-0.033,0.536-0.314,0.501-0.625l-0.333-3C76.633,190.847,76.353,190.624,76.042,190.657z"/>
	<path d="M78.807,190.571c-0.267,0.164-0.351,0.514-0.186,0.779l1.334,2.168c0.164,0.266,0.513,0.35,0.78,0.185
		c0.266-0.164,0.35-0.514,0.185-0.779l-1.334-2.168C79.422,190.491,79.074,190.407,78.807,190.571z"/>
	<path d="M81.353,189.171c-0.211,0.23-0.195,0.59,0.035,0.801l2,1.834c0.23,0.213,0.59,0.197,0.801-0.035
		c0.213-0.23,0.197-0.588-0.035-0.801l-2-1.834C81.923,188.925,81.565,188.941,81.353,189.171z"/>
	<path d="M83.425,187.982c-0.133,0.283-0.012,0.621,0.273,0.754l2.5,1.166c0.283,0.133,0.621,0.012,0.754-0.273
		c0.133-0.283,0.01-0.621-0.273-0.754l-2.5-1.166C83.894,187.575,83.558,187.696,83.425,187.982z"/>
	<path d="M84.384,184.931c-0.066,0.307,0.125,0.609,0.432,0.678l3,0.666c0.305,0.068,0.607-0.125,0.676-0.43
		c0.068-0.307-0.125-0.609-0.43-0.678l-3-0.666C84.755,184.433,84.452,184.626,84.384,184.931z"/>
	<path d="M83.874,182.161c-0.033,0.312,0.193,0.592,0.504,0.623l3.166,0.334c0.313,0.033,0.592-0.193,0.623-0.504
		c0.033-0.312-0.191-0.592-0.504-0.623l-3.166-0.334C84.187,181.624,83.907,181.851,83.874,182.161z"/>
	<path d="M87.153,178.999l-3.166,0.668c-0.307,0.064-0.502,0.365-0.438,0.672c0.064,0.305,0.365,0.502,0.672,0.438l3.166-0.668
		c0.307-0.064,0.502-0.365,0.438-0.672C87.761,179.132,87.46,178.935,87.153,178.999z"/>
	<path d="M82.29,177.749c-0.246,0.193-0.324,0.576-0.131,0.822c0.193,0.246,0.514,0.314,0.76,0.121l2.379-1.865
		c-0.248,0.193-0.611,0.158-0.805-0.09c-0.193-0.246-0.16-0.594,0.086-0.787L82.29,177.749z"/>
	<path d="M80.206,174.507l-0.167,2c-0.025,0.312,0.206,0.586,0.519,0.613c0.311,0.025,0.586-0.207,0.611-0.52l0.166-2
		c0.027-0.311-0.205-0.586-0.518-0.611C80.507,173.964,80.232,174.194,80.206,174.507z"/>
	<path d="M77.038,173.657c-0.311,0.037-0.533,0.318-0.497,0.631l0.334,2.832c0.037,0.311,0.318,0.533,0.629,0.498
		c0.31-0.037,0.533-0.318,0.497-0.631l-0.334-2.832C77.631,173.845,77.349,173.622,77.038,173.657z"/>
	<path d="M73.018,175.673c-0.211,0.232-0.194,0.59,0.038,0.801l1.834,1.668c0.231,0.209,0.59,0.193,0.801-0.039
		c0.21-0.232,0.194-0.59-0.038-0.801l-1.833-1.668C73.587,175.425,73.229,175.441,73.018,175.673z"/>
	<path d="M71.438,178.952c-0.148,0.275-0.046,0.619,0.23,0.768l2.167,1.168c0.276,0.148,0.62,0.045,0.768-0.23
		c0.148-0.275,0.046-0.619-0.23-0.768l-2.167-1.168C71.931,178.573,71.586,178.677,71.438,178.952z"/>
	<path d="M69.878,182.46c-0.052,0.311,0.157,0.602,0.466,0.654l2,0.334c0.309,0.051,0.601-0.158,0.652-0.467
		c0.052-0.309-0.157-0.602-0.466-0.652l-2-0.334C70.222,181.944,69.93,182.151,69.878,182.46z"/>
	<path d="M67.938,185.987c-0.313,0-0.567,0.254-0.567,0.566c0,0.314,0.254,0.568,0.567,0.568h3.5c0.313,0,0.567-0.254,0.567-0.568
		c0-0.312-0.254-0.566-0.567-0.566H67.938z"/>
	<path d="M71.152,188.732l-2,1.168c-0.271,0.156-0.362,0.504-0.204,0.775c0.158,0.27,0.505,0.361,0.775,0.203l2-1.168
		c0.271-0.156,0.362-0.504,0.204-0.775C71.77,188.665,71.422,188.573,71.152,188.732z"/>
	<path d="M73.221,190.251l-0.667,2.666c-0.076,0.303,0.108,0.611,0.412,0.688c0.304,0.076,0.612-0.109,0.688-0.412l0.667-2.666
		c0.076-0.305-0.108-0.611-0.412-0.688S73.297,189.946,73.221,190.251z"/>
	<path d="M28.74,149.155c-0.313,0.018-0.552,0.285-0.535,0.598l0.167,3c0.017,0.312,0.285,0.551,0.597,0.535
		c0.313-0.018,0.552-0.285,0.535-0.598l-0.167-3C29.32,149.378,29.052,149.138,28.74,149.155z"/>
	<path d="M25.719,150.364c-0.289,0.121-0.425,0.453-0.305,0.742l0.833,2c0.121,0.289,0.453,0.426,0.742,0.305
		c0.288-0.119,0.425-0.451,0.305-0.74l-0.834-2C26.34,150.382,26.008,150.245,25.719,150.364z"/>
	<path d="M22.165,151.528c-0.198,0.242-0.162,0.6,0.08,0.799l1.833,1.5c0.242,0.197,0.6,0.162,0.798-0.08
		c0.198-0.242,0.162-0.6-0.08-0.797l-1.833-1.5C22.721,151.251,22.364,151.286,22.165,151.528z"/>
	<path d="M19.931,153.468c-0.14,0.279-0.027,0.619,0.253,0.76l2.333,1.168c0.28,0.141,0.62,0.025,0.76-0.254
		c0.14-0.279,0.027-0.619-0.253-0.76l-2.334-1.168C20.411,153.073,20.071,153.189,19.931,153.468z"/>
	<path d="M22.571,156.321l-2.833,0.166c-0.312,0.02-0.551,0.287-0.533,0.6c0.018,0.312,0.287,0.551,0.599,0.533l2.833-0.166
		c0.312-0.018,0.551-0.287,0.533-0.6C23.152,156.542,22.884,156.304,22.571,156.321z"/>
	<path d="M22.081,158.687l-2.333,0.834c-0.295,0.105-0.449,0.43-0.343,0.725c0.105,0.295,0.429,0.449,0.724,0.344l2.334-0.834
		c0.295-0.105,0.449-0.43,0.343-0.725C22.7,158.735,22.375,158.583,22.081,158.687z"/>
	<path d="M23.456,161.083l-2.5,1.666c-0.261,0.174-0.331,0.525-0.157,0.787c0.174,0.26,0.526,0.33,0.786,0.156l2.5-1.666
		c0.261-0.174,0.331-0.525,0.157-0.787C24.069,160.98,23.717,160.909,23.456,161.083z"/>
	<path d="M24.448,163.769l-1.167,2c-0.158,0.271-0.066,0.617,0.204,0.775c0.27,0.158,0.618,0.066,0.775-0.203l1.166-2
		c0.158-0.271,0.066-0.619-0.204-0.775C24.953,163.407,24.605,163.499,24.448,163.769z"/>
	<path d="M26.871,164.554v3.168c0,0.312,0.254,0.566,0.567,0.566c0.313,0,0.567-0.254,0.567-0.566v-3.168
		c0-0.312-0.254-0.566-0.567-0.566C27.124,163.987,26.871,164.241,26.871,164.554z"/>
	<path d="M29.06,164.528c-0.291,0.115-0.432,0.445-0.316,0.736l1,2.5c0.116,0.291,0.446,0.432,0.737,0.316
		c0.291-0.117,0.432-0.447,0.316-0.738l-1-2.5C29.681,164.554,29.351,164.411,29.06,164.528z"/>
	<path d="M32.296,163.579c-0.263,0.17-0.338,0.52-0.168,0.783l1.833,2.834c0.17,0.264,0.521,0.338,0.784,0.168
		c0.263-0.17,0.338-0.521,0.168-0.783l-1.833-2.834C32.911,163.483,32.56,163.407,32.296,163.579z"/>
	<path d="M33.545,160.46c-0.052,0.311,0.157,0.602,0.466,0.654l2,0.334c0.309,0.051,0.601-0.158,0.652-0.467
		c0.052-0.309-0.157-0.602-0.466-0.652l-2-0.334C33.889,159.944,33.597,160.151,33.545,160.46z"/>
	<path d="M37.822,156.333l-4,0.834c-0.307,0.062-0.503,0.363-0.44,0.67c0.064,0.307,0.364,0.504,0.671,0.439l4-0.834
		c0.307-0.062,0.503-0.363,0.439-0.67C38.429,156.466,38.128,156.269,37.822,156.333z"/>
	<path d="M35.457,153.083l-2.5,1.666c-0.261,0.174-0.331,0.525-0.157,0.787c0.174,0.26,0.526,0.33,0.786,0.156l2.5-1.666
		c0.261-0.174,0.331-0.525,0.157-0.787C36.069,152.98,35.717,152.909,35.457,153.083z"/>
	<path d="M33.052,150.974l-2.333,2.166c-0.229,0.213-0.243,0.57-0.03,0.801c0.213,0.229,0.572,0.242,0.801,0.029l2.333-2.166
		c0.229-0.213,0.243-0.572,0.03-0.801C33.64,150.773,33.281,150.759,33.052,150.974z"/>
	<path d="M81.995,163.866c-0.195,0.244-0.156,0.602,0.088,0.797l0.834,0.668c0.244,0.195,0.602,0.156,0.797-0.088
		c0.195-0.244,0.156-0.602-0.088-0.797l-0.834-0.668C82.548,163.583,82.19,163.622,81.995,163.866z"/>
	<path d="M84.519,161.839c-0.211,0.232-0.193,0.592,0.037,0.803l1.834,1.666c0.232,0.211,0.59,0.193,0.801-0.037
		c0.211-0.232,0.193-0.592-0.037-0.801l-1.834-1.668C85.087,161.591,84.729,161.608,84.519,161.839z"/>
	<path d="M85.644,158.403c-0.268,0.164-0.354,0.512-0.189,0.779l2.332,3.834c0.164,0.268,0.512,0.352,0.779,0.189
		c0.268-0.164,0.353-0.512,0.189-0.779l-2.332-3.834C86.259,158.325,85.911,158.241,85.644,158.403z"/>
	<path d="M89.741,157.487c-0.312,0.018-0.553,0.283-0.537,0.598l0.168,3.166c0.016,0.312,0.283,0.553,0.596,0.537
		c0.312-0.018,0.553-0.283,0.537-0.598l-0.168-3.166C90.321,157.712,90.054,157.472,89.741,157.487z"/>
	<path d="M91.538,157.019l-0.166,2.668c-0.02,0.312,0.219,0.582,0.531,0.6c0.312,0.02,0.58-0.217,0.6-0.529l0.166-2.668
		c0.02-0.312-0.217-0.58-0.529-0.6S91.558,156.706,91.538,157.019z"/>
	<path d="M95.724,157.407l-0.668,2.5c-0.08,0.303,0.1,0.613,0.402,0.695c0.303,0.08,0.613-0.1,0.693-0.402l0.668-2.5
		c0.08-0.303-0.1-0.613-0.402-0.693C96.114,156.925,95.804,157.107,95.724,157.407z"/>
	<path d="M99.522,158.669l-2.166,2.334c-0.215,0.229-0.201,0.588,0.029,0.801c0.229,0.213,0.588,0.199,0.801-0.029l2.166-2.334
		c0.215-0.23,0.201-0.588-0.029-0.801C100.095,158.425,99.735,158.439,99.522,158.669z"/>
	<path d="M102.651,161.667l-3.834,0.834c-0.307,0.066-0.5,0.367-0.434,0.674c0.066,0.307,0.369,0.5,0.674,0.434l3.834-0.834
		c0.307-0.066,0.5-0.367,0.434-0.674C103.259,161.794,102.956,161.601,102.651,161.667z"/>
	<path d="M100.386,165.095c-0.07,0.307,0.121,0.609,0.426,0.68l3.666,0.832c0.307,0.07,0.609-0.121,0.68-0.426
		c0.068-0.307-0.123-0.609-0.428-0.68l-3.666-0.832C100.759,164.599,100.454,164.79,100.386,165.095z"/>
	<path d="M100.657,167.87c-0.193,0.248-0.15,0.604,0.096,0.797l2.334,1.834c0.248,0.193,0.604,0.15,0.797-0.096
		c0.193-0.248,0.15-0.604-0.096-0.797l-2.334-1.834C101.208,167.581,100.851,167.624,100.657,167.87z"/>
	<path d="M19.8,136.671l-3.333,0.834c-0.304,0.076-0.488,0.383-0.412,0.688c0.076,0.303,0.383,0.488,0.687,0.412l3.333-0.834
		c0.304-0.076,0.489-0.383,0.413-0.688C20.412,136.78,20.104,136.595,19.8,136.671z"/>
	<path d="M18.133,134.671l-2,0.5c-0.304,0.076-0.488,0.385-0.412,0.688c0.076,0.305,0.384,0.488,0.687,0.412l2-0.5
		c0.304-0.076,0.488-0.383,0.412-0.688C18.745,134.78,18.437,134.595,18.133,134.671z"/>
	<path d="M15.407,131.855c-0.11,0.293,0.039,0.621,0.332,0.73l2.667,1c0.293,0.109,0.62-0.039,0.73-0.332
		c0.11-0.293-0.039-0.619-0.332-0.73l-2.667-1C15.843,131.413,15.517,131.562,15.407,131.855z"/>
	<path d="M17.37,128.988c-0.222,0.221-0.221,0.58,0,0.803l1.667,1.665c0.222,0.221,0.58,0.221,0.802-0.002
		c0.222-0.22,0.221-0.579,0-0.8l-1.667-1.666C17.95,128.768,17.591,128.768,17.37,128.988z"/>
	<path d="M21.402,126.824c-0.312,0.019-0.55,0.287-0.53,0.6l0.167,2.666c0.02,0.312,0.289,0.551,0.601,0.531
		c0.312-0.02,0.55-0.289,0.53-0.602l-0.167-2.666C21.984,127.041,21.714,126.804,21.402,126.824z"/>
	<path d="M24.571,126.324c-0.312,0.018-0.551,0.285-0.533,0.598l0.167,2.834c0.018,0.312,0.287,0.551,0.599,0.533
		c0.312-0.02,0.551-0.287,0.533-0.6l-0.166-2.835C25.152,126.543,24.884,126.304,24.571,126.324z"/>
	<path d="M27.716,126.271l-0.667,3.167c-0.064,0.307,0.131,0.607,0.438,0.672c0.306,0.064,0.607-0.131,0.671-0.438l0.667-3.166
		c0.064-0.307-0.131-0.607-0.438-0.672C28.081,125.769,27.781,125.966,27.716,126.271z"/>
	<path d="M31.425,128.106l-2.167,1.668c-0.248,0.189-0.294,0.547-0.103,0.795c0.191,0.248,0.547,0.295,0.795,0.104l2.167-1.668
		c0.248-0.189,0.294-0.547,0.104-0.795C32.029,127.961,31.673,127.914,31.425,128.106z"/>
	<path d="M34.133,130.34l-3.333,0.832c-0.304,0.076-0.489,0.384-0.413,0.687c0.076,0.305,0.383,0.488,0.687,0.412l3.334-0.832
		c0.304-0.075,0.488-0.384,0.412-0.687C34.745,130.447,34.438,130.264,34.133,130.34z"/>
	<path d="M35.894,133.323l-2.166,0.166c-0.312,0.023-0.546,0.297-0.522,0.607c0.024,0.312,0.296,0.547,0.609,0.523l2.167-0.166
		c0.312-0.025,0.546-0.297,0.522-0.609C36.479,133.532,36.206,133.3,35.894,133.323z"/>
	<path d="M34.372,136.521c-0.019,0.312,0.22,0.582,0.533,0.6l2.833,0.168c0.312,0.018,0.581-0.221,0.599-0.533
		c0.019-0.312-0.22-0.582-0.533-0.6l-2.833-0.166C34.658,135.97,34.39,136.208,34.372,136.521z"/>
	<path d="M71.633,42.074c-0.174,0.26-0.103,0.612,0.157,0.786l1.5,1c0.26,0.174,0.612,0.103,0.786-0.157
		c0.174-0.26,0.103-0.612-0.157-0.786l-1.5-1C72.159,41.743,71.807,41.814,71.633,42.074z"/>
	<path d="M74.528,39.21c-0.283,0.134-0.404,0.472-0.27,0.755l1.5,3.167c0.134,0.283,0.472,0.404,0.755,0.27
		c0.283-0.134,0.404-0.472,0.27-0.755l-1.5-3.167C75.149,39.196,74.811,39.075,74.528,39.21z"/>
	<path d="M78.206,39.52l-0.167,2.667c-0.02,0.312,0.218,0.582,0.53,0.602c0.312,0.02,0.581-0.218,0.601-0.53l0.167-2.667
		c0.02-0.312-0.218-0.582-0.53-0.602C78.494,38.97,78.225,39.207,78.206,39.52z"/>
	<path d="M82.091,39.146l-1.5,3.167c-0.133,0.283-0.012,0.621,0.27,0.755c0.283,0.134,0.623,0.012,0.756-0.27l1.5-3.167
		c0.135-0.283,0.012-0.621-0.27-0.755C82.563,38.742,82.226,38.864,82.091,39.146z"/>
	<path d="M85.853,40.339l-1.832,2c-0.213,0.23-0.197,0.589,0.035,0.801c0.23,0.211,0.588,0.196,0.801-0.035l1.832-2
		c0.213-0.23,0.197-0.589-0.035-0.801C86.423,40.092,86.065,40.108,85.853,40.339z"/>
	<path d="M45.552,38.473c-0.229,0.213-0.243,0.572-0.03,0.801l2.167,2.334c0.213,0.229,0.572,0.243,0.801,0.03
		c0.229-0.213,0.243-0.572,0.03-0.801l-2.167-2.333C46.14,38.273,45.781,38.26,45.552,38.473z"/>
	<path d="M47.388,37.137c-0.23,0.211-0.246,0.57-0.035,0.801l1.833,2c0.211,0.23,0.57,0.246,0.801,0.035
		c0.23-0.211,0.246-0.57,0.035-0.801l-1.833-2C47.977,36.942,47.619,36.926,47.388,37.137z"/>
	<path d="M50.945,34.678c-0.301,0.088-0.473,0.403-0.384,0.704l0.833,2.833c0.088,0.301,0.403,0.473,0.704,0.384
		c0.301-0.088,0.473-0.403,0.384-0.704l-0.833-2.834C51.56,34.761,51.245,34.589,50.945,34.678z"/>
	<path d="M53.871,34.055v2.833c0,0.313,0.254,0.567,0.567,0.567s0.567-0.254,0.567-0.567v-2.833c0-0.313-0.254-0.567-0.567-0.567
		S53.871,33.742,53.871,34.055z"/>
	<path d="M58.047,33.449l-0.667,3.5c-0.059,0.308,0.143,0.604,0.451,0.663c0.308,0.059,0.604-0.144,0.663-0.451l0.667-3.5
		c0.059-0.308-0.144-0.604-0.451-0.663C58.403,32.94,58.106,33.142,58.047,33.449z"/>
	<path d="M60.205,34.192l-0.166,3.167c-0.017,0.312,0.224,0.58,0.536,0.596c0.312,0.017,0.58-0.224,0.596-0.536l0.166-3.166
		c0.017-0.313-0.224-0.58-0.536-0.596C60.488,33.639,60.221,33.879,60.205,34.192z"/>
	<path d="M83.321,30.376c-0.191,0.248-0.145,0.605,0.104,0.795l2.168,1.667c0.248,0.191,0.604,0.145,0.795-0.104
		c0.191-0.249,0.145-0.604-0.104-0.795l-2.168-1.666C83.868,30.082,83.513,30.128,83.321,30.376z"/>
	<path d="M86.282,29.088c-0.258,0.178-0.322,0.531-0.145,0.789l1.834,2.666c0.176,0.258,0.529,0.323,0.787,0.146
		c0.258-0.178,0.324-0.531,0.146-0.789l-1.834-2.667C86.894,28.976,86.54,28.911,86.282,29.088z"/>
	<path d="M89.673,27.33c-0.309,0.054-0.514,0.348-0.461,0.657l0.5,2.833c0.055,0.308,0.35,0.514,0.658,0.459
		c0.309-0.054,0.514-0.348,0.459-0.657l-0.5-2.833C90.274,27.482,89.981,27.275,89.673,27.33z"/>
	<path d="M92.573,26.322c-0.312,0.016-0.553,0.283-0.535,0.596l0.166,3.167c0.018,0.313,0.283,0.553,0.598,0.536
		c0.312-0.016,0.553-0.283,0.535-0.596l-0.166-3.167C93.153,26.546,92.888,26.306,92.573,26.322z"/>
	<path d="M95.913,27.673l-1.5,3.667c-0.119,0.29,0.019,0.621,0.31,0.74c0.289,0.118,0.621-0.021,0.738-0.31l1.5-3.667
		c0.119-0.29-0.019-0.621-0.309-0.74C96.362,27.245,96.032,27.384,95.913,27.673z"/>
	<path d="M100.739,31.191l-2.668,1c-0.293,0.11-0.441,0.437-0.332,0.73c0.111,0.293,0.438,0.441,0.73,0.332l2.668-1
		c0.293-0.11,0.441-0.437,0.332-0.73C101.358,31.23,101.032,31.081,100.739,31.191z"/>
	<path d="M98.104,34.988c-0.314,0-0.568,0.254-0.568,0.567s0.254,0.567,0.568,0.567h3c0.312,0,0.566-0.254,0.566-0.567
		s-0.254-0.567-0.566-0.567H98.104z"/>
	<path d="M37.041,113.877c-4.542,1.631-6.643,4.416-7.654,5.756c0,0-0.168,0.205-0.324,0.396c-4.731-4.526-8.631-4.531-8.799-4.527
		l-0.399,0.01c0,0-2.441,4.238-3.009,5.225c-2.861-1.773-4.609-1.748-4.807-1.73l-0.38,0.034l-0.18,0.337
		c-2.574,4.805-1.622,13.861-1.58,14.244l1.409-0.154c-0.004-0.039-0.191-1.813-0.191-4.161c0-2.803,0.294-6.391,1.453-8.854
		c0.648,0.086,2.063,0.43,4.134,1.846l0.632,0.432c0,0,2.956-5.135,3.324-5.774c1.015,0.118,4.12,0.765,7.776,4.425l0.702,0.27
		c0.521-0.035,0.841-0.461,1.371-1.162c0.947-1.256,2.734-3.512,6.443-5.014c0.572,1.127,1.444,3.048,1.444,4.072v1.068l0.984-0.416
		c1.068-0.451,3.954-1.521,5.579-1.596c0.327,0.904,1.029,3.213,1.029,6.406c0,0.625-0.027,1.285-0.089,1.973l1.411,0.129
		c0.511-5.623-1.156-9.368-1.227-9.525l-0.172-0.378l-0.414-0.034c-1.621-0.135-4.403,0.833-5.822,1.38
		c-0.402-1.787-1.618-4.05-1.782-4.349l-0.292-0.529L37.041,113.877z"/>
	<path d="M101.071,142.542c-7.273,2.139-10.273,6.9-11.146,8.604c-4.695-2.018-7.943-0.805-8.084-0.75l0.523,1.318
		c0.031-0.012,3.141-1.174,7.598,0.979l0.686,0.33l0.281-0.707c0.023-0.059,2.4-5.66,9.861-8.158
		c0.15,0.619,0.334,1.574,0.334,2.729c0,0.639-0.059,1.324-0.211,2.016l-0.283,1.27l1.221-0.451c0.16-0.061,3.502-1.301,5.59-2.289
		c0.199,0.996,0.49,2.863,0.49,5.609c0,1.561-0.096,3.379-0.363,5.422l-0.066,0.521l0.479,0.217
		c0.047,0.021,4.611,2.156,7.199,6.244c-0.713,0.654-4.156,3.822-4.156,3.822s2.453,3.875,3.074,4.855
		c-1.676,0.879-6.389,3.25-9.793,3.902l0.268,1.393c4.395-0.844,10.613-4.264,10.875-4.408l0.658-0.363c0,0-2.738-4.326-3.252-5.137
		c0.699-0.643,4.146-3.816,4.146-3.816l-0.279-0.49c-2.326-4.068-6.363-6.381-7.697-7.064c0.229-1.918,0.332-3.658,0.332-5.146
		c0-4.252-0.697-6.668-0.736-6.805l-0.25-0.84l-0.77,0.42c-1.234,0.674-3.744,1.668-5.174,2.217
		c0.035-0.371,0.117-0.762,0.117-1.111c0-2.143-0.57-3.795-0.604-3.887l-0.223-0.633L101.071,142.542z"/>
	<path d="M130.997,146.689c-6.756,1.039-9.715,5.965-9.838,6.174l-0.141,0.24l0.06,0.271c0.434,1.951,4.223,4.561,10.213,4.389
		c5.816-0.166,7.355-3.48,7.355-5.209c0-0.705-0.143-3.127-1.963-4.689C135.339,146.71,133.425,146.314,130.997,146.689z
		 M131.212,148.089c2-0.309,3.531-0.021,4.549,0.852c1.398,1.199,1.469,3.221,1.469,3.613c0,0.148-0.068,3.623-5.979,3.793
		c-5.252,0.15-8.133-1.953-8.678-3.049C123.267,152.312,126.005,148.89,131.212,148.089z"/>
	<path d="M114.89,155.046l-6.861,2.342l0.484,1.332l6.805-2.322c3.162-1,6.697-2.51,6.732-2.525l-0.559-1.303
		C121.458,152.585,117.985,154.067,114.89,155.046z"/>
	<path d="M79.127,211.013l-0.133,0.057c-0.191,0.08-4.71,2.045-5.425,7.051c-0.355,2.49,0.158,4.678,1.444,6.16
		c1.001,1.154,2.431,1.816,3.924,1.816c3.545,0,5.202-2.215,5.374-7.184c0.123-3.562-1.283-5.568-2.133-6.447
		c-0.891-0.924-1.952-1.453-2.908-1.453H79.127z M76.084,223.353c-0.794-0.916-1.208-2.209-1.208-3.725
		c0-0.42,0.032-0.855,0.096-1.307c0.528-3.695,3.636-5.479,4.401-5.863c0.441,0.031,1.104,0.285,1.786,0.992
		c0.664,0.688,1.744,2.234,1.744,5.027c0,0.127-0.004,0.256-0.008,0.387c-0.168,4.842-1.639,5.814-3.958,5.814
		C77.84,224.679,76.827,224.208,76.084,223.353z"/>
	<path d="M78.577,211.579l1.389,0.285c0.013-0.064,1.329-6.402,3.067-9.092l-1.189-0.77
		C79.959,204.915,78.632,211.308,78.577,211.579z"/>
	<path d="M41.588,232.097l0.365-1.369c-6.758-1.801-5.7-8.088-5.652-8.354l-1.394-0.258
		C34.893,222.194,33.547,229.954,41.588,232.097z"/>
	<path d="M42.012,220.251c0.036,0.016,3.586,1.453,5.109,4.957c1.443,3.32-0.6,5.465-0.688,5.553l1.005,1
		c0.116-0.117,2.82-2.891,0.982-7.117c-1.764-4.059-5.724-5.646-5.892-5.711L42.012,220.251z"/>
	<path d="M19.154,91.523c-1.141,0.19-2.357,1.062-3.254,2.333c-0.75,1.063-1.919,3.341-1.327,6.657
		c0.895,5.011,6.549,7.121,6.789,7.209l0.117,0.042h0.125c0.747,0,1.489-0.671,1.865-1.071c0.623-0.663,2.633-3.189,2.342-7.849
		c-0.214-3.433-1.638-5.25-2.795-6.169C21.847,91.745,20.403,91.315,19.154,91.523z M15.969,100.264
		c-0.097-0.544-0.139-1.054-0.139-1.529c0-1.977,0.727-3.35,1.229-4.062c0.804-1.14,1.73-1.652,2.329-1.752
		c0.663-0.111,1.733,0.058,2.747,0.864c0.932,0.741,2.081,2.235,2.263,5.148c0.018,0.277,0.026,0.546,0.026,0.808
		c0,4.156-2.061,6.366-2.758,6.575C20.819,105.965,16.646,104.058,15.969,100.264z"/>
	
		<rect x="17.259" y="111.013" transform="matrix(-0.0712 -0.9975 0.9975 -0.0712 -87.9374 141.5612)" width="9.357" height="1.418"/>
	<path d="M45.604,24.222l-2.167,3.333l-6.667-0.333c0,0-3.333-13.667-5-17.667C31.771,9.555,40.604,16.555,45.604,24.222z"/>
	<path d="M33.104,40.888c0,0-4.167-1.833-8.833-1.833s-11.167,0-12.5-0.333c0,0,3.667,1.833,5.167,4.167s6,6.667,6,6.667
		l6.333-0.167C29.271,49.388,32.271,41.888,33.104,40.888z"/>
	<path d="M19.104,69.555c0,0-5.334,4.833-6.667,6.833s-3.667,5.5-3.667,5.5l-0.333,2.667c0,0,3-2,5.5-2.834
		c2.5-0.833,9.333-3.5,11.333-5.5l0.667-7.166C25.938,69.055,21.104,70.889,19.104,69.555z"/>
	<path d="M43.771,79.555c0,0-1.5,3.667-1.833,8.5s0.667,12.333,0.667,12.333s1.333-1,2.167-1.667c0.833-0.666,6.833-6,7.5-8.5
		l0.167-6.666C52.438,83.555,46.438,81.389,43.771,79.555z"/>
	<path d="M39.271,118.722c0,0,1.833-9.167,0.5-15.167c0,0,7,4.333,8.667,14.5l-1.333,6.167l-2-6.5l-1.833,0.166L39.271,118.722z"/>
	<path d="M22.604,210.222c0,0-3.667,2-5.5,5.166c-1.833,3.166-5.667,10.168-6.333,11c-0.667,0.834,0,1.334,1.5,0.334
		s5.167-2.002,6.667-2.168c1.5-0.166,7-2.498,7.833-5.166c0,0-1.333-7-1-8.666L22.604,210.222z"/>
	<path d="M68.604,200.054c0,0-4.501,2.502-7.667,6.834c-3.167,4.334-5.667,15-5.667,15s5.833-3.666,9.5-6
		c3.667-2.334,5.334-6.168,5.834-8.334c0,0-2.001-0.832-2.167-2.666C68.271,203.054,68.604,200.054,68.604,200.054z"/>
	<path d="M91.271,206.554c0,0-0.666,4.5,2.668,9.168c3.332,4.666,8,7.666,8,7.666s-0.834-2.834-0.834-4.834s3-7.832-0.666-15.666
		l-7.5-2.334L91.271,206.554z"/>
	<path d="M98.938,189.222c0,0,3.166,3.332,9,5c5.832,1.666,8.832,4.166,8.832,4.166s-0.332-3-1.332-5.666
		c-1-2.668-4.334-8.5-11.5-11c0,0-4.002,4.166-6.834,5.166L98.938,189.222z"/>
	<path d="M116.271,165.554c0,0,5.5,0,10.334,5c4.834,5,6.666,7.168,6.666,7.168s0.668,0.332-0.832,0.332s-6-0.332-8,0.168
		s-6.834-0.502-10.5-2.668l1-1.5l-2.834-4.332L116.271,165.554z"/>
	<path d="M87.438,132.222c0,0,5.832,6.834,2.166,19.166l-1.334-0.334c0,0-4.332-1.166-5-4.5L87.438,132.222z"/>
	<path d="M92.938,118.555c0,0-1.666,2.833-0.5,6.999c1.166,4.169,2.5,8.166,2.332,9c0,0,2.834-3.665,4.168-5.165
		c1.332-1.5,3.666-5.167,3.166-9.501l-4.166-4.5L92.938,118.555z"/>
	<path d="M105.104,115.222c0,0,1.332,4.332,7.5,6.832c6.166,2.5,11.834,4.5,11.834,4.5s-1-3.666-1.668-5.5
		c-0.666-1.832-1.832-6.332-4-7.999c0,0-9.166-2.334-11.166-4.167L105.104,115.222z"/>
	<path d="M118.271,73.055c0,0,7.334,0.166,11,0.666c3.668,0.5,9.668,1.667,15,4.5l0.168,0.834c0,0-3.834,0.333-6.834,1.666
		c-3,1.334-10.166,5.501-16.334,3.334l-1.166-3.167C120.104,80.888,119.438,75.555,118.271,73.055z"/>
	<path d="M114.104,54.722c0,0,3.5-3.833,9.666-3.167c6.168,0.667,10.334,2.333,10.334,2.333s-1.834,1.667-2.5,3s-5.168,5.333-10,5.5
		l-7.166-1.833L114.104,54.722z"/>
	<path d="M109.771,26.222c0,0,5.334-0.333,12,2.833c6.668,3.167,9.334,9,9.334,9s-0.834-1.167-4.834-1.333
		c-4-0.167-11.166,2-15.166,0.833l1-3.667l-5.834-5C106.271,28.888,109.438,26.722,109.771,26.222z"/>
	<path d="M94.604,15.888c0,0,3.834-4,5.834-5.166s5.5-3.834,5.5-3.834s-0.666,2.5-1,4s0.5,8.5,0,10.5c0,0-5.5-0.667-6.668-0.5
		C98.271,20.888,95.604,16.888,94.604,15.888z"/>
	<path d="M82.604,68.388c-1-1.5-3.334-1.5-4.667-1.167c-1.333,0.334-3.167,0.167-3.167,0.167s-0.5-1.833,0.167-3.833
		c0.666-2,0.5-3.833-0.5-5.333s-5.833-4.167-5.833-4.167s-0.5,0.333-0.167,1s2.167,2.667,2.5,4.333c0.333,1.666,0,8.5,0,8.5
		s-4,0.833-5.5,0.833s-2.833-0.5-3.833-0.5s-1.167,0.667-0.5,1.334s3.333,2,7.833,2.333s7.167-0.833,7.167-0.833
		s-1.834,2.166-4.667,3.833c-2.834,1.666-7.167,5.667-5.5,10.5c0.984,2.855,3.426,4.361,6.289,4.507
		c-1.412,1.83-5.022,4.186-7.455,5.577c-2.625,1.5-3.75,2.5-3.25,3s1.875,2.375,4.75,2.625c0.356,0.031,0.798,0.037,1.299,0.023
		c-1.758,1.293-3.381,3.246-4.174,6.102c-1.366,4.919,0.529,9.159,4.314,10.284c-2.154,2.648-6.678,3.287-8.939,4.717
		c-2.375,1.5-4.375,3-4.5,4.5c-0.125,1.501,1.875,3.126,1.75,3.626s-1.75,0.75-3.25,1.499c-1.5,0.75,0.125,1.625,0,3.125
		s-2,10.375-2.25,11.625s0.5,2.25,2.25,2s6.625-2.75,7.75-3.75s2.625-4,2.75-4.875s-0.125-1.875-0.5-1.625s-1.75,2-3.5,3.25
		s-3.25,1.375-3.875,1.5s-1.25,0.375-1.125-0.125s1-5.375,1.125-6.25s0.125-2.625-0.25-3.25s0.25-1.25,0.625-1.25
		s6.25-0.375,8-0.375c1.75,0,3.125-1.624,2.125-2.124s-3.375-2.626-4.125-2.501s-2.625,0.125-4.5,0.125s-1.375-1-0.875-1.75
		s3.125-2.875,4.75-3.25c1.221-0.281,3.077-0.705,5.303-1.535c0.46,0.879,1.693,3.205,2.197,3.91c0.625,0.875,0.25,1.875,0.25,1.875
		s-1.205,4.561-2.485,9.556c-0.606-0.135-0.89-0.059-0.89,0.568c0,0.484,0.188,0.963,0.398,1.359
		c-0.71,2.795-1.396,5.557-1.871,7.594c-2.972,1.494-6.937,2.6-7.278,5.672c-0.345,3.107,1.235,5.561,4.216,6.615
		c-0.727,2.418-1.452,4.557-1.966,5.635c-1.25,2.625-8.25,14.875-17.5,21.75c0,0-0.375,0.625,0.875,0.375s9-5.875,13.75-11
		c4.697-5.068,7.676-10.623,8.951-15.943c2.072,0.184,3.8,0.025,4.799-0.307c1.5-0.5,1.75-1.75,0.5-3
		c-0.984-0.984-2.735-1.652-4.048-1.895c0.6-2.473,1.32-5.398,2.042-8.297c1.878-0.684,6.591-2.059,7.006-2.059
		c0.5,0,1.25-0.375,1-1.125s0.375-3.375-0.5-3.625c-0.657-0.188-3.286-0.799-5.455-1.303c0.696-2.693,1.24-4.713,1.455-5.322
		c0.75-2.124,2.625-4.374,1.875-6.124s-3.875-3.5-4.875-4.375c-0.338-0.295-0.86-0.66-1.366-0.959
		c0.405-0.168,0.818-0.346,1.241-0.541c3.25-1.5,5.625-3.25,5.625-3.25c0.004-0.023-0.001-0.043,0.002-0.066
		c4.781-2.986,3.197-10.367-0.752-12.059c-2.094-0.897-4.374-0.641-5.941-0.26c1.721-2.127,4.04-3.18,5.053-3.562
		c2.808-0.354,5.533-0.796,6.388-0.928c1.625-0.25,1.375-1.75,0.75-2c-0.625-0.25-3.75-1.625-4.875-2s-1.625,0.125-4.25,0.875
		s-5,1.375-5.625,1.375s-1.25-0.625,0-1.375c1.25-0.75,7-3.875,9.625-5.25c2.188-1.146,3.938-3.069,4.461-3.679
		c3.929-3.131,1.716-8.543-0.794-10.112c-1.495-0.935-3.148-1.45-4.312-1.722c2.376-1.835,5.082-2.967,6.478-3.611
		C82.771,71.222,83.604,69.888,82.604,68.388z M59.646,152.597c-1-1.625-0.5-3,1.875-3.75c0.633-0.201,1.328-0.5,2.017-0.836
		c-0.005,0.027-0.012,0.061-0.017,0.086c-0.263,1.404-0.745,3.412-1.31,5.539C61.133,153.595,60.115,153.358,59.646,152.597z
		 M72.521,107.347c0.625,2.125,0,4.376-3,4.376c-2.905,0-4.744-2.116-2.928-5.769C68.872,104.785,71.977,105.496,72.521,107.347z
		 M76.938,80.555c0.166,2.333-1.333,4.5-3.5,4.5s-5-1.333-2.667-5.5c0.53-0.946,1.219-1.784,1.986-2.534
		C74.891,77.138,76.793,78.53,76.938,80.555z"/>
</g>
</svg>
