<?xml version="1.0" encoding="iso-8859-1"?>
<!-- Generator: Adobe Illustrator 19.1.0, SVG Export Plug-In . SVG Version: 6.00 Build 0)  -->
<svg version="1.1" id="&#xB808;&#xC774;&#xC5B4;_1" xmlns="http://www.w3.org/2000/svg" xmlns:xlink="http://www.w3.org/1999/xlink"
	 x="0px" y="0px" viewBox="0 0 153.071 238.11" style="enable-background:new 0 0 153.071 238.11;" xml:space="preserve">
<rect style="fill:#E60012;" width="153.071" height="238.11"/>
<g>
	<path style="fill:#FFFFFF;" d="M145.507,220.943V16.276c0,0-0.5-8.5-11.166-9L16.174,7.61c0,0-8.667,0.834-8.667,10.5v202.5
		c0,0,0.167,9.666,9.667,10.333h119.499C136.673,230.943,145.007,230.61,145.507,220.943z"/>
	<path style="fill:#E60012;" d="M145.382,50.193c0,0-10,5.5-17.25,7.375l-20.375,9.5l-3.75,13.125l-0.5,3.75
		c0,0,24.125-5.75,41.875-30.25V50.193z"/>
	<path style="fill:#FDD000;" d="M111.382,7.443h-17c0,0-38.499,15.625-38.874,39.625c0,0,0.625,8.5,3.75,14.25s3.75,7.25,3.75,7.75
		c0,0-17.875,4.375-25.75,19c0,0-9.25,1.5-11.25,9.375l2.875-2c0,0,2.625,2.125,11.625-0.25c0,0,6.25,7,17.5,7.75
		c0,0,0.75,1.125,1.625,1.875s-0.25,2.5-1.375,3.625s-5.75,3.625-6.625,8s0.5,7.875,7.125,9.875s12.5,1.75,20.25-0.375
		c7.749-2.125,23.124-10.75,30.124-16.625s11.875-11.25,11.875-11.25s0.875-0.625,1-1.5s-1.25-1.25-2.625-1s-6.5,2.625-6.5,2.625
		s-4.875-0.5-8.875,2.125c0,0-0.875-1.5-2.875-1.25s-6.125,3.25-7.125,3.875s-5.5,4.25-5.5,4.25l-0.375-1.875c0,0,1-1,1.625-2.125
		s-0.375-1.5-0.875-1.375c0,0,2.25-2,2.625-3.125s-1.25-1.625-1.75-1.5c0,0,2.625-2.125,1.625-3.5c0,0,16.125-9.75,22.125-26.125
		c0,0,22.875-14.75,31.75-24.625l0.125-1.25l-14.875-0.25c0,0-2,0.375-1.875-1.625s0.375-11.375,0.375-11.375l-4,0.25
		c0,0-13.625,17.375-30.125,29.875l-6.375,0.375c0,0-0.5-2.875-2-3.75c0,0,1.375-2.25,0-3.25c0,0,1.125-3-0.75-4.125
		c0,0,0.75-2.375-0.75-3.625c0,0,0.75-1.75,0.125-3.25l1.75-2.375c0,0,2.375-0.75,3.75-1.5s3.375-2.875,4-3.875
		s8.625-8.25,11.625-9.75s3.875-5,3.875-5l1.125-4.875c0,0,1.5-1,2.375-1.75s-0.375-2.25-1-2.375S111.382,7.443,111.382,7.443z"/>
	<path style="fill:#E60012;" d="M55.507,47.068c0,0-22.5-11.375-31.375-39.625l-1.375-0.25c0,0-3.25,12.625,0.375,30.5
		s19.625,32.5,26.75,37c0,0,8.5-4.25,13.125-5.625c0,0-0.625-3-1.25-3.875S56.132,58.068,55.507,47.068z"/>
	<path d="M135.585,231.651c5.861,0,10.631-4.768,10.631-10.629V17.364c0-5.861-4.77-10.63-10.631-10.63H17.428
		c-5.861,0-10.63,4.768-10.63,10.63v203.658c0,5.861,4.769,10.629,10.63,10.629H135.585z M144.798,17.364v203.658
		c0,5.08-4.133,9.213-9.213,9.213H17.428c-5.08,0-9.212-4.133-9.212-9.213V17.364c0-5.08,4.132-9.212,9.212-9.212h118.157
		C140.665,8.152,144.798,12.284,144.798,17.364z"/>
	<path d="M116.757,16.193c0,0-1,6-6.25,7.75s-7.834-1.001-8.334-3.667c-0.5-2.666,1.168-5.834,6.168-6.5
		C113.341,13.11,116.841,15.443,116.757,16.193z"/>
	<path d="M130.507,17.11c0,0,3,2.5,1.5,7.833c-1.5,5.333-5.834,5.499-7.334,4.333c-1.5-1.166-3.333-4.167-0.5-8.5
		C127.007,16.443,129.507,16.777,130.507,17.11z"/>
	<path d="M141.173,16.443c0,0,3.834,3.667,2,8.5c-1.832,4.833-5.832,5.499-7.666,4.333c-1.834-1.166-3.166-4.5-0.5-8.833
		C137.673,16.11,140.173,16.11,141.173,16.443z"/>
	<path d="M145.173,69.943c0,0-1.832,4.333-6.166,4.5c-4.334,0.167-6.5-1-6.666-4c-0.168-3,2.666-4.167,7-4.667
		c4.332-0.5,5.499,1.667,5.832,2.167C145.507,68.443,145.173,69.943,145.173,69.943z"/>
	<path d="M131.673,85.443c0,0-1.666,5.167-8,5c-6.332-0.167-6.832-4.167-6.666-5.667c0.166-1.5,1.5-4.667,7.5-4.5
		C130.507,80.443,131.34,84.776,131.673,85.443z"/>
	<path d="M119.341,105.776c0,0-2.667,4.167-8,4.167c-5.334,0-6.501-2.999-6.668-4.833c-0.166-1.834,1.834-3.834,7-3.667
		C116.841,101.61,119.007,104.109,119.341,105.776z"/>
	<path d="M121.341,125.443c0,0,3.166,5.167-1.168,11c-4.332,5.833-9.832,3.833-10.832,2.667c-1-1.167-3-5.334,2-9.834
		C116.341,124.777,119.507,124.443,121.341,125.443z"/>
	<path d="M136.507,116.277c0,0,5,1,5.834,6.833c0.832,5.834-2.668,9.167-5.168,9.167s-6.499-2-5.832-8.333
		C132.007,117.61,135.173,116.277,136.507,116.277z"/>
	<path d="M145.341,110.276c0,0-3.167-2.666-4-5.666c-0.834-3,1.332-6.334,4.166-6.167L145.341,110.276z"/>
	<path d="M95.841,141.776c0,0-3,4.5-8.834,4c-5.833-0.5-6.999-5.166-6.666-6.666s2.666-4.334,8.666-3.667
		C95.007,136.11,95.841,140.776,95.841,141.776z"/>
	<path d="M95.507,155.943c0,0-3.166,5-10,4c-6.833-1-7.666-5.5-7.166-7.5s3.833-4.333,9.166-3.333
		C92.841,150.11,95.841,153.943,95.507,155.943z"/>
	<path d="M111.673,154.943c0,0,1.668,4.167,9.668,4c8-0.167,8.166-5.5,8.166-6s-0.834-5.499-9.334-4.667
		C111.673,149.11,111.673,154.11,111.673,154.943z"/>
	<path d="M111.673,171.776c0,0,2.334,3.668,9.334,3c7-0.666,7.334-6.166,6.834-7.333c-0.5-1.167-2.834-4.499-9.168-2.667
		C112.341,166.61,111.507,170.444,111.673,171.776z"/>
	<path d="M92.007,171.943c0,0-3.666,3.667-9.5,2.833c-5.833-0.833-7.666-4.333-7.666-6.333s2.666-4.833,9.333-3.833
		S92.173,170.61,92.007,171.943z"/>
	<path d="M109.341,190.943c0,0,3,3.667,9.166,3.333c6.166-0.333,8.166-5.666,7.5-8c-0.666-2.333-4.334-5.166-10-3
		C110.341,185.443,109.174,189.11,109.341,190.943z"/>
	<path d="M90.007,190.11c0,0-3.833,4.666-10.166,4.5c-6.333-0.167-8-3.334-7.667-6.167c0.334-2.833,3.167-5.501,9.334-4.833
		C87.673,184.276,90.507,188.61,90.007,190.11z"/>
	<path d="M108.341,206.276c0,0,2.832,4.334,9.666,4.834c6.834,0.5,8.666-4.166,8.5-5.834c-0.166-1.666-1.166-5.5-8.666-5.166
		C110.341,200.443,108.674,204.776,108.341,206.276z"/>
	<path d="M100.673,213.11c0,0,5,0.834,6.334,6.166c1.334,5.334-2.334,8.5-4.5,8.834c-2.166,0.333-6.334-1.667-6.834-6.667
		S98.673,213.11,100.673,213.11z"/>
	<path d="M92.673,206.443c0,0-2.5,5.333-8.666,5.5c-6.166,0.167-7.999-2.833-7.999-5.333s2.166-4.666,7.499-4.834
		C88.841,201.61,92.007,204.276,92.673,206.443z"/>
	<path d="M50.84,154.943c0,0,6.834,0.333,9.167,6c2.333,5.667-1.167,9.167-3.667,9.5c-2.5,0.333-5.834-0.167-7.5-5.333
		C47.174,159.943,49.173,155.443,50.84,154.943z"/>
	<path d="M39.007,153.276c0,0,0.999,6-3.667,9.167c-4.666,3.167-9.666,2-10.666-1.5s1.332-6.499,4.666-8.167
		C32.674,151.11,38.174,151.944,39.007,153.276z"/>
	<path d="M39.84,138.61c0,0,2.668-5,0.334-9.5c-2.334-4.5-7.168-4.5-9.334-3.501c-2.166,1-3.167,6.001,0,10.001
		S38.506,138.776,39.84,138.61z"/>
	<path d="M49.84,144.943c0,0,4.5-0.167,8.5-3.5c4-3.333,3.666-10.333-0.5-12.333c-4.166-2-7.666,0-9.166,6.5
		S49.173,144.443,49.84,144.943z"/>
	<path d="M63.518,67.57c-0.431-1.417-1.202-2.609-2.095-3.99c-1.652-2.558-3.709-5.74-4.886-12.263
		c-1.665-9.229,2.127-17.72,12.295-27.531c9.282-8.957,26.913-15.613,27.088-15.679l-0.496-1.328
		c-0.733,0.274-18.08,6.823-27.577,15.987C57.303,32.941,53.385,41.824,55.143,51.569c1.227,6.802,3.46,10.257,5.091,12.779
		c0.834,1.292,1.555,2.407,1.929,3.634c1.08,3.549,0.335,5.512-1.217,7.529l1.123,0.863C63.845,74.066,64.771,71.686,63.518,67.57z"
		/>
	<path d="M67.778,42.501c3.372-2.649,6.275-6.682,8.009-9.091c0.567-0.787,1.152-1.601,1.33-1.747l1.136-1.168
		c2.364-2.543,7.898-8.499,14.43-12.098c7.771-4.282,17.104-7.125,18.996-7.6c0.701-0.176,1.155-0.716,1.214-1.445
		c0.087-1.1-0.741-2.451-1.772-2.894l-0.559,1.303c0.516,0.221,0.955,1.02,0.918,1.478c-0.012,0.145-0.051,0.16-0.144,0.184
		c-1.93,0.483-11.434,3.378-19.336,7.733c-6.731,3.709-12.375,9.782-14.784,12.375l-0.984,1.026c-0.308,0.247-0.712,0.8-1.594,2.025
		c-1.691,2.349-4.521,6.279-7.734,8.804c-4.485,3.524-11.486,5.185-11.556,5.2l0.32,1.381
		C55.966,47.897,63.041,46.222,67.778,42.501z"/>
	<path d="M82.938,21.339c9.163-7.037,22.568-13.358,22.703-13.421l-0.602-1.283c-0.137,0.063-13.678,6.448-22.965,13.579
		c-9.223,7.083-18.258,14.761-18.609,23.869l1.416,0.055C65.209,35.642,73.982,28.216,82.938,21.339z"/>
	<path d="M101.286,18.262l3.604-1.4c5.338-1.999,8.879-3.415,9.441-4.822c0.25-0.625,0.248-1.246-0.007-1.796
		c-0.473-1.019-1.63-1.429-1.76-1.472l-0.452,1.343c0.197,0.068,0.746,0.331,0.928,0.729c0.056,0.121,0.113,0.323-0.025,0.67
		c-0.379,0.933-5.741,2.941-8.621,4.02l-3.666,1.425C97.604,18.298,80.04,29.446,75.702,38.47l1.277,0.613
		C81.165,30.378,98.245,19.564,101.286,18.262z"/>
	<path d="M74.022,40.43c3.13-3.314,1.529-6.81,1.459-6.957l-1.283,0.604c0.052,0.112,1.242,2.788-1.206,5.381
		c-2.696,2.855-7.219,4.815-7.264,4.835l0.559,1.303C66.483,45.511,71.122,43.502,74.022,40.43z"/>
	<path d="M75.205,39.316L73.81,39.57c0.425,2.338-4.294,6.528-7.368,8.62l0.797,1.172C68.13,48.756,75.933,43.321,75.205,39.316z"/>
	<path d="M73.241,49.368c3.007-4.011,0.725-6.624,0.626-6.732l-1.057,0.943c0.065,0.076,1.578,1.897-0.703,4.939
		c-1.9,2.533-4.797,4.483-4.826,4.502l0.787,1.18C68.194,54.115,71.191,52.102,73.241,49.368z"/>
	<path d="M73.791,53.124c1.73-3.075-0.016-5.071-0.091-5.155l-1.059,0.942c0.047,0.055,1.129,1.359-0.085,3.518
		c-1.353,2.406-5.094,3.837-5.131,3.852l0.498,1.326C68.096,57.542,72.183,55.983,73.791,53.124z"/>
	<path d="M73.659,57.056c1.175-2.744-0.415-4.379-0.484-4.446l-1.008,0.996c0.04,0.042,0.975,1.059,0.19,2.892
		c-0.925,2.159-3.791,4.724-3.819,4.75l0.941,1.058C69.605,62.193,72.608,59.507,73.659,57.056z"/>
	<path d="M75.381,60.327c0.17-2.396-1.436-3.178-2.31-3.257l-0.138,1.411c0.27,0.032,1.14,0.256,1.034,1.744
		c-0.102,1.439-3.33,4.007-5.34,5.287l0.762,1.195C70.356,66.092,75.198,62.887,75.381,60.327z"/>
	<path d="M75.866,66.264c0.269-1.208,0.143-2.229-0.372-3.031c-0.667-1.038-1.719-1.29-1.837-1.315l-0.305,1.385
		c0.273,0.065,1.61,0.5,1.131,2.655c-0.462,2.082-4.686,3.321-6.273,3.623l0.264,1.393C69.15,70.845,75.12,69.623,75.866,66.264z"/>
	<rect x="69.299" y="68.589" transform="matrix(0.4472 0.8944 -0.8944 0.4472 103.0443 -22.8484)" width="1.417" height="6.708"/>
	<rect x="68.965" y="70.827" transform="matrix(0.3644 0.9313 -0.9313 0.3644 114.0781 -17.248)" width="1.418" height="8.233"/>
	<rect x="69.799" y="74.789" transform="matrix(0.3672 0.9301 -0.9301 0.3672 117.344 -16.103)" width="1.417" height="6.809"/>
	<rect x="70.299" y="77.477" transform="matrix(0.3364 0.9417 -0.9417 0.3364 123.5815 -12.9893)" width="1.416" height="7.433"/>
	<rect x="71.05" y="81.083" transform="matrix(0.2613 0.9653 -0.9653 0.2613 134.3564 -7.0095)" width="1.416" height="6.387"/>
	<rect x="71.048" y="84.72" transform="matrix(0.3259 0.9454 -0.9454 0.3259 130.8826 -9.0063)" width="1.417" height="5.113"/>
	<path d="M74.732,90.815l-0.058-1.414c-0.162,0-0.656,0-5.13,2.065l0.594,1.287C72.042,91.875,74.341,90.883,74.732,90.815z"/>
	<rect x="72.632" y="91.616" transform="matrix(0.2596 0.9657 -0.9657 0.2596 144.9392 -1.3355)" width="1.418" height="4.488"/>
	<rect x="74.382" y="93.336" transform="matrix(0.279 0.9603 -0.9603 0.279 146.3539 -2.8736)" width="1.418" height="5.38"/>
	<path d="M57.123,79.81l-0.232-1.398c-0.7,0.117-4.245,0.745-5.337,1.654l0.906,1.09C53.048,80.666,55.541,80.073,57.123,79.81z"/>
	<path d="M60.384,81.62l-0.42-1.354c-5.074,1.574-5.418,2.09-5.547,2.284l1.108,0.869C55.891,83.126,58.332,82.257,60.384,81.62z"/>
	<path d="M62.399,83.448l-0.449-1.344c-1.229,0.41-4.146,1.401-4.668,1.749l0.782,1.182C58.375,84.843,60.512,84.077,62.399,83.448z
		"/>
	<rect x="60.131" y="82.816" transform="matrix(0.2976 0.9547 -0.9547 0.2976 124.4662 2.0495)" width="1.418" height="5.588"/>
	<rect x="62.298" y="86.032" transform="matrix(0.4105 0.9119 -0.9119 0.4105 117.2614 -5.6589)" width="1.418" height="3.656"/>
	<rect x="63.215" y="87.812" transform="matrix(0.3389 0.9408 -0.9408 0.3389 126.9585 -0.6248)" width="1.418" height="4.429"/>
	<rect x="65.466" y="89.561" transform="matrix(0.4854 0.8743 -0.8743 0.4854 113.8556 -10.8848)" width="1.416" height="3.432"/>
	<rect x="67.3" y="91.695" transform="matrix(0.3164 0.9486 -0.9486 0.3164 134.9727 -0.7515)" width="1.416" height="3.162"/>
	<rect x="50.339" y="90.985" transform="matrix(0.9993 0.0369 -0.0369 0.9993 3.4159 -1.8764)" width="4.503" height="1.417"/>
	<polygon points="56.84,93.734 51.387,93.403 51.293,94.817 56.84,95.152 	"/>
	<rect x="54.006" y="95.651" transform="matrix(0.9993 0.0371 -0.0371 0.9993 3.6123 -2.02)" width="4.503" height="1.417"/>
	<rect x="55.839" y="97.485" transform="matrix(0.9994 0.0343 -0.0343 0.9994 3.4044 -1.9416)" width="4.837" height="1.417"/>
	<path d="M61.895,99.404c-2.584-0.199-6.721-0.579-7.526-0.81l-0.389,1.363c1.201,0.343,7.134,0.807,7.806,0.858L61.895,99.404z"/>
	<path d="M26.066,98.879c0.045-0.058,4.595-5.772,12.347-6.563l-0.145-1.41c-4.937,0.504-8.575,2.785-10.802,4.633
		c0.486-0.823,1.137-1.759,2.066-2.786c2.957-3.268,7.711-4.102,7.759-4.109l0.343-0.059l0.165-0.307
		c7.588-14.206,25.361-18.602,25.54-18.645l-0.329-1.379c-0.184,0.044-18.297,4.526-26.28,19.055
		c-1.192,0.252-5.386,1.328-8.248,4.492c-3.279,3.624-3.663,6.437-3.678,6.555l-0.317,2.545L26.066,98.879z"/>
	<path d="M90.344,94.733c14.659-7.924,21.538-21.299,23.815-26.681l-1.305-0.553c-2.219,5.245-8.92,18.276-23.185,25.987
		c-12.77,6.902-28.733,10.246-37.129,7.776c-8.153-2.398-11.616-6.559-11.65-6.6l-0.314-0.386l-0.471,0.163
		c-5.839,2.052-10.813,0.352-10.861,0.334l-0.474,1.336c0.215,0.076,5.221,1.752,11.328-0.212c1.008,1.082,4.677,4.558,12.042,6.724
		C60.999,105.229,77.067,101.911,90.344,94.733z"/>
	<path d="M81.841,39.485c3.704,0,4.803-1.477,5.771-2.778l0.128-0.172l0.616-0.998c1.537-2.648,5.135-8.852,14.96-13.623
		l-0.619-1.275C92.482,25.6,88.595,32.303,87.131,34.826l-0.524,0.859l-0.131,0.175c-0.918,1.233-1.643,2.207-4.635,2.207
		c-3.612,0-7.305,1.66-7.46,1.73l0.586,1.291C75.002,41.072,78.541,39.485,81.841,39.485z"/>
	<path d="M91.242,37.194c1.522-1.047,2.917-2.635,4.265-4.171c1.123-1.278,2.184-2.486,3.276-3.359
		c2.72-2.176,6.316-4.799,7.337-5.236l-0.559-1.303c-1.299,0.557-5.264,3.512-7.664,5.432c-1.189,0.952-2.342,2.264-3.455,3.532
		c-1.291,1.47-2.627,2.99-4.004,3.938c-2.461,1.692-5.603,1.875-5.634,1.876l0.071,1.416C85.02,39.311,88.442,39.12,91.242,37.194z"
		/>
	<path d="M82.538,43.218c4.233-2.54,5.186-4.44,5.28-4.648l-1.286-0.595c-0.008,0.017-0.869,1.715-4.723,4.028
		c-4.049,2.43-7.831,3.758-7.868,3.771l0.466,1.338C74.566,47.058,78.357,45.727,82.538,43.218z"/>
	<path d="M83.419,46.52c3.123-2.231,3.055-5.118,2.582-6.333l-1.323,0.508c0.038,0.104,0.898,2.544-2.083,4.673
		c-3.413,2.438-8.685,5.083-8.738,5.109l0.634,1.268C74.71,51.635,79.915,49.023,83.419,46.52z"/>
	<path d="M86.438,47.491c0.448-0.705,0.596-1.421,0.439-2.127c-0.254-1.142-1.215-1.782-1.324-1.851l-0.765,1.192
		c0.288,0.189,1.172,0.896,0.454,2.024c-0.826,1.297-7.265,5.876-11.129,8.458l0.787,1.178C75.319,56.086,85.159,49.5,86.438,47.491
		z"/>
	<path d="M87.337,51.359c0.418-1.113,0.435-2.086,0.051-2.891c-0.478-1.002-1.388-1.33-1.49-1.364l-0.458,1.341
		c0.019,0.007,0.458,0.173,0.677,0.65c0.203,0.442,0.167,1.037-0.106,1.766c-0.857,2.283-9.647,7.543-10.599,7.924l0.526,1.316
		C76.773,59.767,86.198,54.393,87.337,51.359z"/>
	<path d="M86.907,55.368c0.884-1.179,1.178-2.199,0.873-3.033c-0.355-0.972-1.337-1.224-1.447-1.249l-0.329,1.379
		c0.004,0.001,0.354,0.096,0.447,0.362c0.056,0.162,0.104,0.65-0.678,1.691c-1.892,2.522-9.383,6.937-9.458,6.98l0.718,1.223
		C77.351,62.535,84.846,58.118,86.907,55.368z"/>
	<path d="M89.044,59.031c0.387-3.101-2.24-4.64-2.352-4.703l-0.707,1.229c0.079,0.046,1.92,1.149,1.652,3.299
		c-0.18,1.429-4.654,4.764-11.136,8.299l0.679,1.244C81.466,66.062,88.705,61.736,89.044,59.031z"/>
	<path d="M92.667,66.871c-0.015-0.324-0.2-1.389-1.961-1.469c-3.736-0.169-9.156,1.295-9.385,1.357l0.373,1.367
		c0.054-0.015,5.436-1.468,8.948-1.309c0.463,0.021,0.589,0.12,0.607,0.136c-0.004,0.064-0.053,0.247-0.275,0.544
		c-0.98,1.304-4.381,3.509-9.729,4.243l0.192,1.404C87.882,72.261,92.767,69.046,92.667,66.871z"/>
	<path d="M96.287,69.621c0.188-0.701-0.166-1.088-0.327-1.223c-1.17-0.975-4.115-0.721-4.693-0.66l0.147,1.41
		c1.052-0.11,2.737-0.092,3.435,0.238c-0.42,1.11-4.461,4.669-8.462,5.358l0.24,1.396C90.905,75.404,95.774,71.536,96.287,69.621z"
		/>
	<path d="M99.339,73.07c0.05-0.533-0.189-0.988-0.654-1.246c-1.621-0.9-4.352-1.081-4.467-1.088l-0.089,1.414
		c0.024,0.002,2.407,0.169,3.766,0.873c-0.18,0.876-3.292,3.585-6.278,4.581l0.448,1.344C95.097,77.938,99.169,74.905,99.339,73.07z
		"/>
	<path d="M100.665,75.113c-0.104-1.169-1.164-1.814-1.773-2.012l-0.44,1.348c0.007,0.003,0.761,0.272,0.804,0.794
		c0.033,0.413-0.307,2.001-6.081,5.074l0.666,1.252C98.594,79.038,100.827,76.927,100.665,75.113z"/>
	<path d="M102.552,78.064l-1.09-0.908c-0.023,0.029-2.436,2.909-4.128,3.832l0.679,1.244C99.942,81.18,102.445,78.19,102.552,78.064
		z"/>
	<path d="M103.907,81.201l-1.133-0.852c-0.014,0.019-1.381,1.803-3.26,2.236l0.318,1.381
		C102.224,83.415,103.84,81.292,103.907,81.201z"/>
	<rect x="78.632" y="76.271" transform="matrix(0.5474 0.8369 -0.8369 0.5474 101.9071 -30.7054)" width="1.417" height="5.177"/>
	<rect x="81.632" y="77.915" transform="matrix(0.4244 0.9055 -0.9055 0.4244 120.608 -28.0153)" width="1.417" height="5.89"/>
	<rect x="84.798" y="79.697" transform="matrix(0.3446 0.9387 -0.9387 0.3446 133.3529 -26.2924)" width="1.417" height="5.325"/>
	<rect x="87.548" y="81.805" transform="matrix(0.2178 0.976 -0.976 0.2178 151.1243 -20.3477)" width="1.417" height="4.61"/>
	<rect x="90.548" y="83.09" transform="matrix(0.3047 0.9525 -0.9525 0.3047 144.6773 -27.6223)" width="1.417" height="4.374"/>
	<rect x="94.298" y="83.662" transform="matrix(0.1543 0.988 -0.988 0.1543 165.673 -20.8345)" width="1.417" height="5.397"/>
	<path d="M53.174,83.11c0,0-2.666-0.667-5.5-0.167s-3.001,2.833-2.834,4c0.167,1.167,2.168,2.001,3.834,1.167
		c1.666-0.834,0.5-3.667,0.5-3.667s2.333-0.334,3.333,0C53.507,84.777,53.174,83.11,53.174,83.11z"/>
	<path d="M125.73,29.049l-1.114-0.877c-15.098,19.2-39.291,37.355-39.533,37.537l0.848,1.135
		C86.175,66.662,110.515,48.398,125.73,29.049z"/>
	<path d="M95.513,58.964l-0.344-1.375c-0.039,0.01-3.915,0.965-6.75,0.65l-0.156,1.408C91.352,59.991,95.344,59.006,95.513,58.964z"
		/>
	<path d="M145.007,41.234l-8.148-0.272l-6.686-0.228c-0.432,0-0.648-0.071-0.781-0.138c0.018-0.69,0.324-12.468,0.324-12.468
		l-1.418-0.037l-0.339,13.058l0.124,0.187c0.092,0.137,0.619,0.816,2.09,0.816l6.633,0.226l8.201,0.274V41.234z"/>
	<path d="M129.394,30.387l-1.105-0.887c-0.182,0.227-18.328,22.749-37.028,36.201l0.827,1.15
		C110.948,53.285,129.211,30.614,129.394,30.387z"/>
	<path d="M129.251,35.855l-1.154-0.822c-0.145,0.202-14.656,20.363-34.627,32.641l0.742,1.207
		C114.434,56.448,129.104,36.06,129.251,35.855z"/>
	<path d="M129.261,41.34l-1.174-0.794c-0.118,0.174-12.009,17.514-33.762,29.78l0.696,1.234
		C117.078,59.122,129.142,41.517,129.261,41.34z"/>
	<path d="M135.409,42.198l-1.138-0.845c-0.114,0.154-11.724,15.574-36.299,30.484l0.735,1.211
		C123.54,57.984,135.294,42.355,135.409,42.198z"/>
	<path d="M139.919,42.353l-1.157-0.818c-0.124,0.175-12.735,17.707-39.422,31.951l0.667,1.25
		C127.009,60.323,139.793,42.53,139.919,42.353z"/>
	<path d="M145.683,43.27l-1.018-0.986c-0.158,0.162-16.11,16.45-45,32.372l0.684,1.241C129.438,59.864,145.522,43.434,145.683,43.27
		z"/>
	<path d="M50.535,74.166c-0.145-0.085-14.592-8.779-23.057-26.199c-4.181-8.604-5.243-18.512-5.243-26.361
		c0-6.775,0.785-11.972,1.047-13.517c0.163-0.019,0.185-0.021,0.358-0.04c0.97,3.684,7.335,24.372,31.311,40.153l0.779-1.184
		C29.97,30.063,24.915,7.357,24.868,7.13l-0.133-0.629l-2.656,0.296l-0.1,0.511c-0.046,0.232-4.445,23.438,4.224,41.278
		c8.659,17.819,23.463,26.713,23.611,26.801L50.535,74.166z"/>
	<path d="M135.786,7.799l-1.227-0.711c-0.568,0.984-5.574,9.672-5.918,11.739l1.398,0.233
		C130.269,17.686,133.602,11.572,135.786,7.799z"/>
	<path d="M134.601,9.77l-0.52-1.318c-0.776,0.307-19.044,7.518-20.39,8.191l0.633,1.267C115.356,17.394,128.039,12.359,134.601,9.77
		z"/>
	<path d="M143.546,10.847l-1.41-0.141c-0.127,1.272-1.806,5.204-2.441,6.612l1.292,0.584
		C141.229,17.362,143.372,12.578,143.546,10.847z"/>
	<path d="M145.646,50.471l-0.945-1.056c-0.048,0.042-4.919,4.285-17.89,8.015l0.391,1.361
		C140.539,54.958,145.444,50.652,145.646,50.471z"/>
	<path d="M146.272,53.154l-1.199-0.756c-0.148,0.236-15.179,23.689-41.751,30.86l0.369,1.369
		C130.811,77.307,146.122,53.395,146.272,53.154z"/>
	<path d="M76.356,101.682c0.505-1.055,0.16-1.806,0.118-1.888l-1.283,0.601c0.004,0.012,0.102,0.292-0.165,0.773
		c-0.575,1.043-2.812,3.067-11.337,4.916l0.301,1.385C71.094,105.929,75.254,103.981,76.356,101.682z"/>
	<path d="M76.228,104.513c0.522-1.675-0.482-2.826-0.525-2.874l-1.064,0.937c0.021,0.025,0.524,0.638,0.227,1.545
		c-0.4,1.222-2.431,3.6-11.525,5.802l0.334,1.377C71.165,109.485,75.39,107.202,76.228,104.513z"/>
	<path d="M74.801,109.495c1.286-2.056,0.739-3.856,0.715-3.932l-1.354,0.42c0.015,0.053,0.368,1.305-0.589,2.801
		c-0.997,1.559-3.6,3.626-10.337,4.625l0.207,1.402C69.318,113.94,73.139,112.152,74.801,109.495z"/>
	<path d="M76.306,112.396c0.348-2.139-1.656-3.487-1.742-3.544l-0.783,1.182c0.013,0.009,1.33,0.911,1.124,2.143
		c-0.205,1.221-2.003,3.656-11.748,6.249l0.365,1.37C71.666,117.628,75.848,115.208,76.306,112.396z"/>
	<path d="M77.013,116.834c0.291-0.873,0.065-1.507-0.174-1.885c-0.716-1.127-2.394-1.354-2.582-1.376l-0.167,1.407
		c0.308,0.038,1.253,0.253,1.554,0.73c0.07,0.111,0.149,0.303,0.025,0.675c-0.476,1.426-3.388,3.433-8.822,4.701l0.322,1.38
		C72.577,121.205,76.258,119.099,77.013,116.834z"/>
	<path d="M82.96,117.749c0.115-0.522-0.073-1.019-0.518-1.365c-1.707-1.327-5.782-0.561-6.241-0.469l0.278,1.39
		c1.479-0.295,4.145-0.498,5.066,0.188c-0.245,0.791-3.854,2.989-11.531,4.76l0.318,1.381
		C76.275,122.263,82.483,119.911,82.96,117.749z"/>
	<path d="M92.442,94.522c0.072-0.821-0.436-1.345-0.748-1.525l-0.734,1.212c0.09,0.065,0.073,0.176,0.068,0.213
		c-0.066,0.46-1.12,3.019-15.428,8.189l0.482,1.332C86.875,100.042,92.227,96.961,92.442,94.522z"/>
	<path d="M92.226,98.594c0.056-1.258-0.985-2.04-1.609-2.304l-0.557,1.304c0.008,0.004,0.781,0.351,0.75,0.943
		c-0.039,0.736-1.307,3.506-16.019,8.231l0.434,1.35C86.541,104.482,92.102,101.367,92.226,98.594z"/>
	<path d="M85.526,107.225c3.456-1.987,5.039-3.552,4.98-4.924c-0.032-0.747-0.561-1.189-0.867-1.333l-0.623,1.272
		c0.074,0.044,0.074,0.108,0.074,0.133c-0.002,0.195-0.213,1.29-4.271,3.623c-6.424,3.693-9.245,4.245-9.272,4.25l0.249,1.395
		C75.917,111.62,78.83,111.075,85.526,107.225z"/>
	<path d="M89.211,105.198l-1.409,0.149c0.004,0.048,0.094,1.168-0.928,2.062l0.934,1.066
		C89.401,107.082,89.22,105.274,89.211,105.198z"/>
	<path d="M92.618,104.827c7.27-5.876,9.585-5.201,10.704-4.668c0.099,0.196,0.218,0.435,0.218,0.435l1.268-0.635l-0.439-0.877
		l-0.211-0.105c-2.104-1.052-5.066-1.204-12.43,4.749c-7.62,6.16-16.488,8.677-16.577,8.702l0.38,1.365
		C75.904,113.689,84.762,111.18,92.618,104.827z"/>
	<path d="M121.452,98.175c0.448-0.227,1.379-0.793,1.392-1.671c0.001-0.007,0.001-0.013,0.001-0.02c0-0.384-0.181-0.921-1.021-1.342
		c-2.169-1.085-5.666,0.41-8.3,1.909c-1.037-0.086-5.94-0.271-10.932,3.316l-5.031,3.892c-4.984,3.965-11.185,8.9-17.173,11.535
		l0.301,1.357c0.321-0.007,7.96-0.235,17.183-5.768c5.779-3.468,9.477-7.014,12.177-9.604c1.598-1.532,2.86-2.742,3.979-3.391
		c3.275-1.896,5.887-2.618,7.161-1.979c0,0,0.081,0.055,0.157,0.105c-0.123,0.139-0.377,0.33-0.639,0.452l-0.142,0.066l-0.103,0.121
		c-13.099,15.618-38.179,30.074-51.606,29.746c-7.715-0.188-12.802-1.53-15.119-3.989c-1.085-1.15-1.583-2.55-1.523-4.278
		c0.161-4.643,3.671-7.345,5.558-8.796c2.292-1.765,3.1-4.078,2.535-5.211c-0.364-0.73-1.628-2.161-1.771-2.321l-1.059,0.941
		c0.491,0.554,1.351,1.589,1.562,2.013c0.115,0.277-0.134,1.917-2.133,3.455c-1.923,1.48-5.925,4.561-6.108,9.871
		c-0.072,2.096,0.569,3.879,1.908,5.299c2.623,2.784,7.895,4.234,16.115,4.434C82.569,128.653,108.102,114.02,121.452,98.175z
		 M109.067,100.758c-2.65,2.542-6.282,6.025-11.926,9.411c-4.926,2.956-9.382,4.317-12.435,4.968
		c4.903-2.792,9.713-6.566,13.736-9.769l4.978-3.85c3.084-2.217,6.129-2.838,8.082-3.002
		C110.759,99.153,109.969,99.894,109.067,100.758z"/>
	<path d="M146.116,79.472l-1.219-0.723c-0.182,0.308-18.273,30.909-25.049,47.764l1.316,0.528
		C127.899,110.287,145.935,79.777,146.116,79.472z"/>
	<path d="M137.198,117.953c-1.333-5.864-3.316-15.055-3.316-16.342h-1.417c0,1.859,3.008,15.147,3.35,16.657L137.198,117.953z"/>
	<path d="M131.604,104.646l-0.195-1.404c-0.119,0.017-12.006,1.664-15.106,1.827l0.074,1.416
		C119.538,106.317,131.113,104.714,131.604,104.646z"/>
	<path d="M142.778,84.978l-0.209-1.402c-0.111,0.017-11.113,1.651-14.154,1.33l-0.148,1.41
		C131.485,86.654,142.318,85.046,142.778,84.978z"/>
	<path d="M101.048,215.246c-0.02-0.462-1.864-46.581,9.296-79.073l-1.341-0.459c-11.246,32.747-9.391,79.129-9.371,79.594
		L101.048,215.246z"/>
	<path d="M100.358,206.323c0.158,0.014,9.252,0.826,9.252,0.826l0.126-1.412l-9.414-0.84l-0.081,0.011
		c-3.587,0.503-9.449,1.31-9.91,1.327l0.01,1.416C90.845,207.651,98.044,206.647,100.358,206.323z"/>
	<path d="M100.823,193.243c1.15-0.574,7.185-1.67,10.961-2.266l-0.221-1.4c-0.946,0.149-8.941,1.432-11.084,2.293
		c-0.393-0.102-13.283-3.443-13.283-3.443l-0.379,1.365l13.772,3.571L100.823,193.243z"/>
	<path d="M101.782,176.097c3.258-1.372,11.125-3.857,11.777-3.947l-0.053-1.414c-0.748,0-9.029,2.732-12.023,3.955
		c-1.199-0.386-9.269-2.994-11.547-3.905l-0.526,1.316c2.494,0.997,11.497,3.894,11.88,4.017l0.25,0.08L101.782,176.097z"/>
	<path d="M104.823,156.911c0.562-0.281,4.992-1.034,8.95-1.6l-0.2-1.403c-1.316,0.189-7.627,1.11-9.137,1.652
		c-1.391-0.112-10.351-0.821-11.842-0.655l0.157,1.408c1.051-0.116,7.571,0.337,11.698,0.67l0.197,0.016L104.823,156.911z"/>
	<path d="M106.923,144.946c-0.416-0.156-10.253-3.859-13.437-4.529l-0.292,1.387c3.078,0.648,13.128,4.432,13.229,4.469
		L106.923,144.946z"/>
	<path d="M82.988,143.303l-0.295-1.386c-0.077,0.016-7.753,1.631-11.741,0.993c-1.258-0.201-2.396-0.673-3.602-1.171
		c-2.644-1.094-5.64-2.334-10.834-1.153l0.314,1.382c4.755-1.08,7.411,0.02,9.977,1.081c1.284,0.531,2.497,1.033,3.92,1.261
		C74.977,144.989,82.663,143.372,82.988,143.303z"/>
	<path d="M68.619,143.936l4.307-1.829c5-1.897,7.752-2.773,9.865-2.623l0.101-1.414c-2.377-0.169-5.27,0.74-10.468,2.711
		l-4.382,1.861c-3.342,1.494-6.797,3.037-9.336,2.928c-3.571-0.156-6.76-2.352-6.791-2.373l-0.812,1.161
		c0.143,0.101,3.549,2.454,7.543,2.628C61.516,147.109,64.966,145.567,68.619,143.936z"/>
	<path d="M51.943,156.404c-0.144-0.233-3.548-5.736-5.719-8.407c-2.102-2.588-7.258-11.387-8.743-14.523L36.2,134.08
		c1.521,3.21,6.7,12.072,8.925,14.809c2.113,2.601,5.578,8.203,5.613,8.26L51.943,156.404z"/>
	<path d="M42.531,151.987c1.572-0.561,3.057-1.09,3.979-1.586c2.306-1.242,5.153-7.151,5.471-7.821l-1.281-0.606
		c-0.807,1.703-3.253,6.313-4.861,7.18c-0.828,0.445-2.264,0.957-3.783,1.5c-2.473,0.882-4.809,1.715-5.716,2.623l1.002,1.002
		C38.023,153.597,40.523,152.704,42.531,151.987z"/>
	<path d="M38.666,225.8c3.402-0.785,4.266-3.674,4.266-5.628c0-0.038-0.007-0.065-0.008-0.103c1.444-0.219,4.759-1.07,6.851-4.417
		c0.691-1.105,0.965-2.217,0.965-3.284c0-3.168-2.393-5.924-3.464-7.002c0.641-0.951,1.823-3.103,1.823-6.008
		c0-0.699-0.069-1.443-0.23-2.225c-0.515-2.486-2.236-4.295-4.493-4.72c-2.53-0.476-5.07,0.823-6.795,3.477
		c-2.353,3.618-0.466,7.837-0.385,8.015l1.289-0.59c-0.017-0.036-1.638-3.697,0.283-6.652c1.401-2.154,3.399-3.223,5.345-2.855
		c1.707,0.32,2.966,1.672,3.367,3.613c0.914,4.415-1.654,7.534-1.681,7.564l-0.441,0.525l0.508,0.459
		c0.543,0.489,5.232,4.893,2.708,8.932c-2.262,3.617-6.386,3.832-6.428,3.834l-0.777,0.033l0.104,0.773
		c0.022,0.164,0.51,4.039-3.124,4.877c-2.744,0.634-6.089,0.015-8.131-1.506c-1.339-0.997-2.069-2.291-2.17-3.85
		c-0.298-4.613,3.923-6.729,4.103-6.816l1.109-0.541l-1.025-0.685c-0.752-0.502-4.302-4.213-3.036-9.753
		c0.559-2.448,2.056-6.217,3.639-10.207c2.121-5.347,4.525-11.405,5.204-15.673c1.174-7.385-0.761-15.754-0.844-16.107l-1.379,0.324
		c0.015,0.065,1.177,5.097,1.177,10.661c0,1.625-0.099,3.294-0.354,4.898c-0.653,4.113-3.027,10.095-5.121,15.373
		c-1.604,4.042-3.119,7.86-3.702,10.414c-0.216,0.941-0.309,1.835-0.309,2.68c0,3.822,1.906,6.576,3.148,7.858
		c-1.416,0.949-4.041,3.229-4.041,7.099c0,0.186,0.006,0.374,0.018,0.566c0.127,1.964,1.073,3.656,2.737,4.895
		C31.761,225.828,35.497,226.532,38.666,225.8z"/>
	<path d="M27.012,184.733c3.448-1.869,3.966-4.805,4.514-7.914l0.504-2.544c0.762-3.177,3.783-6.474,6.705-9.663l2.139-2.369
		c3.634-4.152,3.676-11.17,3.676-11.467h-1.418c0,0.067-0.045,6.785-3.324,10.533l-2.117,2.346
		c-3.044,3.322-6.19,6.756-7.039,10.289l-0.521,2.629c-0.529,3.001-0.947,5.371-3.794,6.914c-1.659,0.898-3.101,1.095-4.168,0.567
		c-0.936-0.462-1.573-1.488-1.794-2.888c-0.392-2.48,4.457-4.031,4.506-4.045l-0.411-1.358c-0.249,0.076-6.084,1.889-5.495,5.623
		c0.295,1.867,1.207,3.266,2.567,3.938C22.585,185.841,24.382,186.157,27.012,184.733z"/>
</g>
</svg>
