<?xml version="1.0" encoding="iso-8859-1"?>
<!-- Generator: Adobe Illustrator 19.1.0, SVG Export Plug-In . SVG Version: 6.00 Build 0)  -->
<svg version="1.1" id="&#xB808;&#xC774;&#xC5B4;_1" xmlns="http://www.w3.org/2000/svg" xmlns:xlink="http://www.w3.org/1999/xlink"
	 x="0px" y="0px" viewBox="0 0 153.07 238.11" style="enable-background:new 0 0 153.07 238.11;" xml:space="preserve">
<rect style="fill:#E60012;" width="153.07" height="238.11"/>
<g>
	<path style="fill:#FFFFFF;" d="M7.296,15.773l-0.167,204.5l135.834,7.333c0,0,2.667-1.667,2.667-7l0.333-203.833
		c0,0,0.166-8.333-9.167-9.666H17.462C17.462,7.106,8.796,7.273,7.296,15.773z"/>
	<path style="fill:#FDD000;" d="M63.712,156.605c0,0-1.333-3.25-4.667-5.5s-11.167-4.917-15.5-6.25c-4.333-1.333-10-3.749-11-4.166
		c-1-0.417-1.917-0.834-1.917-0.834s-0.417,0.667-0.25,1.167s1.833,6.667,2.333,8.667s0.583,8.832,0.417,10.166
		s5.167,14.084,5.167,14.084l3.333,6.333l3.5,4.167l5.583,1.416l7.083-3.333c0,0,6.666,4.333,12.333,4.5
		c5.666,0.167,14.334-3.417,15.084-3.667s3.499-2.582,7.333-3.166c3.834-0.584,6.334-1.084,6.334-1.084s-5.5-6.166-6.667-7.416
		s-6.25-7-11.833-10.417c-5.584-3.417-11.085-4.666-14.751-3.833C65.629,157.439,64.546,155.938,63.712,156.605z"/>
	<path style="fill:#FDD000;" d="M120.13,184.272c0,0-4.333-0.417-8,1.083s-9.084,5.501-9.917,6.084
		c-0.833,0.583-5.667,2.916-9.667,3.583c-4,0.667-6.332-1.083-6.666-1.25c-0.334-0.167-0.584,0.249-0.584,0.583s-0.75,2.916-1,4.5
		s1.418,6.334,5.084,8.167c3.666,1.833,6.5,0.251,8.583,2.667c2.083,2.416,5.583,3.916,10,2.583
		c4.417-1.333,21.917-0.333,21.917-0.333l11.25-12.167l-0.5-5.417c0,0,4.499-4.416,4.916-5.916v-22.667c0,0-3.416,5.083-8.416,8
		c-5,2.917-9.084,4.083-10.834,4.583s-4.084,3.083-4.75,5.25L120.13,184.272z"/>
	<path style="fill:#E60012;" d="M113.213,38.272l-10.625-3.5h-9.875l-5.125,1c0,0-4.375-0.375-7.125,3s-6.751,4.875-6.751,4.875
		l-11.5,13.125l-2.75,15.25c0,0-2.875,3.25-4.75,7.125s-3.125,8.5-2.875,10s16.625,21.25,16.625,21.25l9.376,5.625
		c0,0,4.75,4.5,6.25,7.25s5.625,4.875,8.75,4.375c3.125-0.5,6.625,5.125,6.625,5.125l11.125-4.125c0,0,5.625,1.5,10.625-1
		c5-2.5,8.125-2,8.125-2l9.875-8.25c0,0,4.125-0.625,5-6.75s-3.75-9.5-3.75-9.5s0.75-3,0.75-5.375s1-9.75,1.25-11.625
		s1.375-7-2.125-10.875c0,0,5.25-3.25,5.5-5.375l-0.25-16.75c0,0-1-2.25-3.125-3.75s-5.375-3.75-7-5.75s-11-4.875-11-4.875
		L113.213,38.272z"/>
	<path style="fill:#E60012;" d="M38.462,148.689c0,0-1.75-0.25-2.333,2.083c-0.583,2.333,2.083,2.833,3.333,3
		c1.25,0.167,2.25-1.583,1.917-3.333S38.462,148.689,38.462,148.689z"/>
	<path style="fill:#E60012;" d="M41.046,158.355c0,0-1.75,0.084-2.583,1.584s-0.167,3.582,1.917,4.416s4.25-1,4.25-2.75
		S43.296,158.105,41.046,158.355z"/>
	<path style="fill:#E60012;" d="M68.879,175.105c0,0-2.583-0.834-3.583,1.75s1,4.168,3,4.334c2,0.166,3.333-0.75,3.166-3.5
		C71.296,174.939,68.879,175.105,68.879,175.105z"/>
	<path style="fill:#E60012;" d="M83.963,171.689c0,0-2.499-0.167-3.333,1.833s0.083,4.001,2.333,4.417
		c2.25,0.416,3.833-1.25,3.75-3.25S85.213,171.856,83.963,171.689z"/>
	<path style="fill:#E60012;" d="M46.629,173.522c0,0-4.667-0.751-8.25-5.417s-4.833-12.333-4.833-12.333s-3.667,4.416-5.583,8.833
		c-1.917,4.417-4.167,19.416,12.417,19.5c0,0-0.25,7.418,8.167,8.834c8.417,1.416,15.833-7.167,15.833-7.167
		s-8.417-3.749-10.25-6.083c0,0-3.833,2-6.417,2.75s-3-1.084-3.083-2.084S45.962,174.439,46.629,173.522z"/>
	<path style="fill:#E60012;" d="M92.963,198.272c0,0-2.666,0.417-2.833,2.25c-0.167,1.833,1.666,3,3.666,3s2.918-2,2.834-3.5
		S94.713,197.772,92.963,198.272z"/>
	<path style="fill:#E60012;" d="M101.463,202.939c0,0-2.251,0.5-2.417,2.75s1.666,2.666,3.5,3.083c1.834,0.417,2.75-1.667,2.75-3.75
		C105.296,202.939,102.63,202.606,101.463,202.939z"/>
	<path style="fill:#E60012;" d="M140.046,177.439c0,0-2.25,0.499-2.75,2.666c-0.5,2.167,2.334,3.5,4.084,3.25s1.749-1.5,1.666-3.583
		C142.963,177.689,141.129,177.189,140.046,177.439z"/>
	<path style="fill:#E60012;" d="M138.963,187.272c0,0-2.583-0.5-3.5,2c-0.917,2.5,1.5,3.751,3,3.917
		c1.5,0.166,3.084-0.334,3.167-2.917C141.713,187.689,138.963,187.272,138.963,187.272z"/>
	<path style="fill:#E60012;" d="M122.546,204.022c0,0-6.249,1.583-11.416,0.583c0,0-2,3.584-2.75,6.917
		c-0.75,3.333,2.833,7.749,9.333,8.083s10.916-4.416,12.083-7.416C129.796,212.189,126.046,211.439,122.546,204.022z"/>
	<path style="fill:#E60012;" d="M129.88,211.939c0,0,1.916-4.25,0.333-12.25c0,0,9.5-4,10-5.167c0,0,5.084,1.75,5.417,4.75
		l-0.334,7.333c0,0-0.832,4.001-6.416,5.584C133.296,213.772,129.88,211.939,129.88,211.939z"/>
	<path style="fill:#E60012;" d="M143.963,225.939c0,0-6.917-6.168-15.25-0.084c0,0-6-7.084-13-2.75c0,0-0.917-3.332-4.167-3.916
		c-3.25-0.584-5.333,0.916-5.333,0.916s-2.25-5-6.25-5.5s-6.5,3-6.75,4.667c0,0-4.918-3.666-12.917-1.083
		c0,0-1.499-4.834-12.084-5.834c0,0,0.333-5.75-6.083-7.583c-6.417-1.833-11.25,3.333-11.25,3.333s-5.75-2.083-6.583-2.333
		s-1.333-1-1.333-1s-1.25-2.833-5-4.333c0,0,2.276-5.259-2.917-10c-5.75-5.25-11.75-2.334-11.75-2.334s-6.667-8.25-15.917-5.25
		v39.584c0,0,1.25,7.999,10.25,8.416l119.001-0.333C136.63,230.522,142.296,230.606,143.963,225.939z"/>
	<path style="fill:#FDD000;" d="M111.38,75.356c0,0-3.584-1.584-5.167,1.083c-1.583,2.667-6.416,9.917-6.833,10.917
		s-0.584,2.249-0.584,3.833c0,1.583,1,3.834,2.417,4.417c1.417,0.583,5.417,0.166,8.25-2.334s4.334-9.333,4.417-12.166
		C113.963,78.272,113.297,76.356,111.38,75.356z"/>
	<path d="M17.217,6.398c-5.861,0-10.63,4.768-10.63,10.63v203.824c0,5.861,4.769,10.63,10.63,10.63h118.492
		c5.861,0,10.63-4.769,10.63-10.63V17.027c0-5.861-4.769-10.63-10.63-10.63H17.217z M8.004,220.852V17.027
		c0-5.08,4.133-9.213,9.213-9.213h118.492c5.08,0,9.212,4.133,9.212,9.213v203.824c0,5.08-4.132,9.212-9.212,9.212H17.217
		C12.137,230.063,8.004,225.932,8.004,220.852z"/>
	<path d="M104.878,76.872c-1.139,1.664-2.498,4.044-3.697,6.143c-1.069,1.871-2.078,3.639-2.61,4.322
		c-0.892,1.146-0.693,3.669-0.13,5.526c0.325,1.077,1.079,2.952,2.466,3.414c1.124,0.375,3.995,0.707,6.816-0.715
		c2.465-1.243,4.23-3.454,5.247-6.571c1.002-3.071,1.422-5.665,1.422-7.768c0-3.697-1.301-5.872-3.03-6.453
		C109.961,74.246,106.833,74.016,104.878,76.872z M101.354,94.934c-0.545-0.182-1.156-1.155-1.557-2.481
		c-0.572-1.888-0.518-3.719-0.107-4.245c0.593-0.763,1.58-2.49,2.722-4.489c1.187-2.076,2.53-4.43,3.637-6.046
		c1.815-2.652,4.71-1.616,4.832-1.57l0.026,0.009c2.087,0.695,3.047,5.293,0.716,12.441c-0.896,2.745-2.422,4.679-4.538,5.745
		C104.854,95.422,102.436,95.294,101.354,94.934z M111.361,74.771c0.006,0.002,0.015,0.003,0.021,0.006l-0.028-0.011
		C111.356,74.768,111.358,74.771,111.361,74.771z"/>
	<path d="M103.996,67.631c-2.395,1.117-5.021,1.446-6.283,1.604c-1.796,0.225-4.994,3.285-4.621,6.454
		c0.324,2.749,0.334,7.006,0.168,8.329c-0.141,1.12,0.985,2.422,1.476,2.93c1.026,1.062,2.605,2.153,3.959,2.03l-0.129-1.411
		c-0.671,0.061-1.854-0.614-2.811-1.604c-0.8-0.827-1.118-1.532-1.089-1.769c0.174-1.385,0.181-5.731-0.166-8.671
		c-0.285-2.416,2.428-4.762,3.384-4.881c1.339-0.168,4.114-0.516,6.712-1.728c1.559-0.728,3.337-0.903,4.529-0.448
		c0.648,0.247,1.104,0.668,1.354,1.252c0.89,2.074-0.022,5.5-0.032,5.534l1.367,0.373c0.044-0.16,1.053-3.935-0.032-6.466
		c-0.401-0.937-1.145-1.634-2.15-2.018C108.074,66.548,105.915,66.735,103.996,67.631z"/>
	<path d="M116.269,67.925c-1.426,0.407-4.589,2.788-5.478,5.457l1.344,0.448c0.745-2.236,3.507-4.253,4.522-4.542
		c2.075-0.593,4.403-0.736,4.839,0.135c0.825,1.65,3.401,5.481,5.383,6.923c1.107,0.806,1.932,2.016,2.005,2.942
		c0.027,0.351-0.056,0.618-0.255,0.817c-1.555,1.555-3.538,6.037-4.319,7.893c-0.57,1.355-2.763,5.694-7.001,4.589
		c-3.305-0.862-3.789-4.729-3.809-4.895l-1.408,0.159c0.022,0.203,0.604,4.996,4.859,6.106c3.604,0.94,6.843-1.082,8.665-5.41
		c1.535-3.647,3.074-6.499,4.015-7.44c0.496-0.496,0.726-1.164,0.666-1.931c-0.106-1.352-1.121-2.912-2.584-3.978
		c-1.646-1.197-4.069-4.651-4.949-6.41C121.659,66.582,117.514,67.569,116.269,67.925z"/>
	<path d="M121.44,93.084c0.16,0.179,1.526,1.801-0.03,3.746c-1.084,1.355-3.116,2.68-4.91,3.849
		c-1.393,0.908-2.711,1.767-3.537,2.593l-1.432,1.582c-1.562,1.802-3.509,4.044-5.234,4.044c-0.924,0-1.78-0.384-2.476-1.11
		c-1.024-1.07-1.564-2.765-1.482-4.65c0.16-3.687,1.124-6.787,1.134-6.817l-1.352-0.427c-0.042,0.134-1.029,3.301-1.198,7.183
		c-0.099,2.27,0.584,4.344,1.874,5.691c0.956,0.998,2.199,1.548,3.5,1.548c2.373,0,4.553-2.513,6.305-4.532l1.363-1.509
		c0.722-0.722,1.979-1.54,3.31-2.407c1.883-1.228,4.016-2.617,5.243-4.15c1.883-2.355,0.802-4.687-0.033-5.59L121.44,93.084z"/>
	<path d="M128.924,81.284c3.463,1.054,6.122,8.53,5.172,14.545c-0.651,4.129-3.104,8.466-5.829,10.312
		c-0.713,0.483-1.779,1.01-2.814,0.774c-2.238-0.509-3.112-1.273-3.452-1.825c-0.222-0.361-0.283-0.746-0.184-1.145
		c0.345-1.379,0.354-5.387,0.354-5.839h-1.418c0.001,1.181-0.055,4.471-0.312,5.494c-0.193,0.771-0.071,1.542,0.352,2.231
		c0.7,1.14,2.162,1.97,4.345,2.465c1.211,0.275,2.567-0.064,3.923-0.982c3.069-2.079,5.716-6.712,6.435-11.265
		c1.062-6.733-2.046-14.869-6.16-16.121L128.924,81.284z"/>
	<path d="M98.069,52.35c-1.7,1.134-4.371,2.72-7.906,3.394c-3.291,0.627-7.798,1.486-10.497,6.704
		c-0.887,1.715-0.955,3.685-0.196,5.697c1.292,3.432,4.618,6.264,7.235,7.288c4.061,1.59,7.245,0.214,7.379,0.154l-0.573-1.296
		c-0.028,0.012-2.802,1.187-6.29-0.179c-2.268-0.887-5.291-3.456-6.425-6.468c-0.621-1.649-0.578-3.179,0.13-4.546
		c2.382-4.606,6.165-5.327,9.503-5.963c3.788-0.723,6.624-2.404,8.428-3.607c2.147-1.432,4.761-0.564,5.51-0.265l0.878,0.369
		c1.614,0.692,3.443,1.478,4.942,0.978l1.384-0.637c1.18-0.615,2.4-1.252,3.535-0.59l0.1,0.058c2.033,1.185,5.436,3.168,5.887,7.078
		c0.468,4.056-1.081,7.238-1.097,7.27l1.269,0.633c0.072-0.144,1.754-3.574,1.236-8.064c-0.533-4.615-4.468-6.908-6.582-8.141
		l-0.098-0.058c-1.812-1.056-3.6-0.123-4.905,0.558l-1.177,0.549c-0.987,0.329-2.622-0.372-3.936-0.937l-0.909-0.382
		C103.981,51.583,100.793,50.533,98.069,52.35z"/>
	<path d="M76.329,75.289c-2.374,4.748-0.347,10.101,2.957,11.937c1.992,1.107,6.218,1.472,9.838,0.164
		c2.697-0.974,4.6-2.712,5.499-5.026l-1.32-0.514c-0.944,2.428-3.056,3.628-4.66,4.207c-3.198,1.154-6.989,0.862-8.669-0.07
		c-2.737-1.52-4.335-6.147-2.377-10.063c1.938-3.877,4.116-4.279,4.138-4.283l-0.198-1.403
		C81.419,70.253,78.637,70.674,76.329,75.289z"/>
	<path d="M124.291,53.919c-2.962,0.74-4.092,3.122-4.139,3.224l1.285,0.597c0.036-0.076,0.913-1.874,3.197-2.445
		c2.366-0.592,3.778,1.331,4.311,3.328c0.701,2.632,3.927,7.909,6.882,10.516c2.534,2.235,3.221,7.671,1.361,10.771
		c-1.66,2.767-5.466,1.272-5.626,1.208l-0.534,1.312c1.751,0.714,5.546,1.258,7.375-1.791c2.201-3.669,1.39-9.892-1.639-12.562
		c-2.699-2.382-5.803-7.39-6.45-9.818C129.588,55.529,127.443,53.13,124.291,53.919z"/>
	<path d="M84.411,92.367l0.143,0.093c2.727,1.764,7.289,4.715,9.019,6.917c1.396,1.775,3.804,3.167,5.857,3.384
		c1.192,0.126,2.226-0.143,2.986-0.777l-0.907-1.089c-0.467,0.39-1.116,0.543-1.931,0.457c-1.676-0.177-3.732-1.376-4.891-2.851
		c-1.876-2.388-6.383-5.303-9.364-7.231l-0.143-0.092c-2.375-1.537-2.036-3.688-2.021-3.779l-1.394-0.257
		C81.742,87.27,81.215,90.3,84.411,92.367z"/>
	<path d="M91.421,103.439c0,2.963,3.1,5.955,5.999,7.768c1.05,0.656,1.917,1.484,2.756,2.285c1.241,1.187,2.414,2.307,3.972,2.64
		c2.125,0.455,3.357-0.428,5.399-1.892l1.977-1.378c1.111-0.741,2.284-1.358,3.418-1.954c2.39-1.258,4.861-2.558,6.752-5.04
		l-1.127-0.858c-1.701,2.232-3.928,3.404-6.284,4.643c-1.167,0.613-2.372,1.248-3.546,2.029l-2.015,1.405
		c-1.956,1.402-2.766,1.982-4.277,1.658c-1.166-0.25-2.15-1.189-3.29-2.278c-0.849-0.811-1.811-1.731-2.982-2.463
		c-2.655-1.658-5.333-4.332-5.333-6.565c0-2.31,1.754-3.963,1.771-3.979l-0.959-1.043C93.56,98.5,91.421,100.494,91.421,103.439z"/>
	<path d="M137.991,71.078l0.224,1.398c0.012-0.001,1.282,0.007,2.938,3.594c1.54,3.338,0.53,7.941-0.073,10.693l-0.316,1.569
		c-0.35,2.274-0.505,6.163-0.34,8.491c0.164,2.3-0.229,3.821-2.717,4.789c-2.4,0.934-3.755-1.13-3.812-1.218l-1.199,0.754
		c0.684,1.094,2.719,2.876,5.524,1.785c3.471-1.351,3.79-3.783,3.617-6.211c-0.16-2.242-0.01-5.986,0.326-8.176l0.301-1.481
		c0.642-2.925,1.715-7.82-0.024-11.59C140.312,70.868,138.36,71.004,137.991,71.078z"/>
	<path d="M118.696,43.546c-3.837,2.965-4.888,8.531-4.931,8.767l1.395,0.254c0.01-0.052,1.002-5.271,4.403-7.899
		c5.508-4.257,10.155-5.168,14.207-2.783c4.137,2.434,5.916,3.951,6.979,4.858l0.986,0.786c0.858,0.572,2.867,1.912,3.019,4.946
		l1.416-0.071c-0.188-3.746-2.701-5.423-3.648-6.054l-0.854-0.685c-1.099-0.938-2.938-2.506-7.181-5.002
		C129.881,37.95,124.715,38.894,118.696,43.546z"/>
	<path d="M140.256,72.595l0.41,1.356c0.149-0.045,3.682-1.151,5.62-5.911l-1.312-0.535C143.304,71.604,140.38,72.557,140.256,72.595
		z"/>
	<path d="M71.384,50.529c-1.524,1.089-3.92,5.989-6.892,12.283c-1.279,2.708-2.383,5.046-2.953,5.9
		c-0.472,0.709-1.251,1.601-2.154,2.634c-2.131,2.439-5.05,5.781-6.264,9.542c-1.785,5.532-0.144,14.111,6.411,19.114l6.123,4.517
		c3.438,2.487,6.153,4.452,7.073,5.679c1.891,2.521,4.763,3.59,7.879,2.935c3.6-0.758,4.356-5.061,4.387-5.244l-1.398-0.233
		c-0.006,0.035-0.633,3.533-3.279,4.091c-2.556,0.537-4.908-0.337-6.455-2.398c-1.049-1.398-3.703-3.318-7.377-5.977l-6.094-4.495
		c-5.819-4.441-7.581-12.412-5.922-17.552c1.124-3.483,3.818-6.567,5.982-9.045c0.935-1.07,1.742-1.994,2.266-2.78
		c0.627-0.941,1.752-3.323,3.055-6.081c2.027-4.29,5.089-10.774,6.434-11.735c1.751-1.25,5.207-2.978,8.676-0.5
		c3.204,2.289,3.872,6.325,3.879,6.365l1.4-0.217c-0.029-0.188-0.755-4.658-4.455-7.302C77.365,46.928,73.042,49.346,71.384,50.529z
		"/>
	<path d="M74.591,91.358c-0.409,3.549,1.336,7.44,5.187,11.564c0.775,0.831,1.473,1.853,2.211,2.936
		c1.421,2.082,2.89,4.234,5.05,5.075c3.299,1.282,7.051-0.589,8.078-3.055l-1.309-0.545c-0.68,1.633-3.607,3.309-6.256,2.278
		c-1.751-0.681-3.094-2.649-4.393-4.553c-0.736-1.079-1.497-2.194-2.347-3.104c-3.503-3.753-5.169-7.361-4.814-10.436
		c0.455-3.951,2.55-5.676,2.571-5.692l-0.878-1.113C77.588,84.798,75.119,86.783,74.591,91.358z"/>
	<path d="M92.256,119.316c0.429,6.867,3.762,9.389,6.483,10.295c2.125,0.709,9.313,2.325,12.557-6.597
		c2.783-7.655-0.028-10.766-0.15-10.895l-1.038,0.965c0.023,0.026,2.311,2.695-0.144,9.445c-2.729,7.509-8.446,6.514-10.777,5.737
		c-3.355-1.118-5.212-4.159-5.517-9.039c-0.321-5.145,0.963-9.887,0.977-9.935l-1.367-0.376
		C93.224,109.12,91.919,113.928,92.256,119.316z"/>
	<path d="M76.663,115.64c1.391,1.217,5.801,6.014,7.357,8.659c1.186,2.017,4.002,4.118,6.664,4.145
		c1.223,0.013,2.947-0.405,4.216-2.467l-1.207-0.742c-0.74,1.201-1.747,1.805-2.995,1.792c-2.131-0.021-4.492-1.806-5.457-3.446
		c-1.688-2.872-6.249-7.787-7.644-9.007c-0.962-0.842-0.635-2.052-0.62-2.103l-1.36-0.401
		C75.59,112.155,75.006,114.189,76.663,115.64z"/>
	<path d="M139.926,101.543c2.31,1.416,3.163,3.641,3.472,5.258c0.512,2.681-0.106,5.852-1.501,7.713
		c-1.621,2.161-5.048,3.055-8.362,3.918c-1.432,0.374-2.783,0.726-3.987,1.178c-4.114,1.542-8.063,5.779-9.331,7.59
		c-0.888,1.268-4.979,1.871-7.271,1.38c-2.11-0.452-4.147-2.309-4.168-2.328l-0.961,1.042c0.094,0.087,2.337,2.138,4.832,2.673
		c2.548,0.545,7.329,0.045,8.728-1.954c1.139-1.625,4.902-5.663,8.669-7.076c1.135-0.425,2.452-0.768,3.847-1.132
		c3.55-0.926,7.221-1.882,9.139-4.439c1.643-2.189,2.35-5.738,1.759-8.829c-0.52-2.722-1.945-4.865-4.123-6.2L139.926,101.543z"/>
	<path d="M80.117,40.069l-2.505,8.851l1.367,0.373l2.495-8.816c0.917-3.058,4.64-4.712,8.297-3.688
		c3.651,1.021,8.565,2.047,11.405,1.857c2.245-0.149,4.55,1.445,7.046,4.877c2.809,3.86-1.303,9.084-1.48,9.307l1.107,0.886
		c1.856-2.32,4.264-7.254,1.52-11.026c-2.806-3.856-5.516-5.642-8.286-5.457c-2.227,0.148-6.415-0.545-10.929-1.809
		C85.757,34.193,81.255,36.276,80.117,40.069z"/>
	<path d="M82.463,37.772c0,0-1.333-7.333-1.833-10.833s-4.334-10.833-7.334-13.833c-3-3-4-5.834-4-5.834s-0.833,1.334-2,4
		c-1.167,2.667-3.667,8.5-3.833,12.667c0,0-3.5-4.166-10.833-5.833c-7.333-1.667-17.333-2.834-19.833-4.834c0,0-1.5-0.167-1.5,1.167
		c0,1.333,1.667,9.167,1.167,12.333c-0.5,3.167,0.5,14,1.833,18.5c0,0-1.5,0.334-3.5-0.166s-7.833-0.167-9.833,1.833
		c0,0,6.667,2,10.5,6s7,10.666,12.667,15c5.667,4.333,12.833,4.833,15.5,3.833c0,0,3-3.166,4.667-6.666
		c1.666-3.5,5.333-11.833,6.833-13.5c0,0,2.458-2.459,4.083-2.459c1.626,0,2.751,0.625,3.501-1.5S80.963,39.022,82.463,37.772z"/>
	<path d="M87.088,35.522c0,0,2,0.25,5.375,1.25s6.583,0.834,7.625,1c1.042,0.167,3.75,0.25,5.75,1.875s3.875,3.875,4,6.375
		s-2,7-3,7.5c0,0,1.375,0.833,3.125,0.417c0,0,1.125-1.042,2.25-1.042s1.75,0.125,2.625-2s1.875-5.625,6.875-8.5s9.75-3.5,14.5,0
		c0,0,6.25-2.25,9.125-9.75l0.125-17.25c0,0-0.375,1.625-2.125,2.375s-6,2.75-6.625,4.75c0,0,0.75-4.625-0.5-8.5s-2-6.125-2-6.625
		s-1.5,0-2.5,0.875s-3.625,1.375-6.25,2.125c-2.625,0.75-12.375,3.875-15.375,9.75c0,0-0.25-5-1.75-7.375s-2.75-5.5-2.75-5.5
		l-1.875,0.25c0,0-4,3.875-6.5,6.625S87.463,24.522,87.088,35.522z"/>
	<path d="M53.129,85.606c0,0-6.333-0.5-12,1.5s-10.666,5.5-16.333,6.5c0,0-1.166,1.333,0,1.5c1.167,0.166,3.5,1.333,4.333,3
		c0.833,1.666,2.833,5.167,6.333,6.5c0,0-5.167,0.999-9.833,4.333c-4.667,3.333-6.833,7.5-7.333,8.167
		c-0.5,0.666,0.333,1.667,1.167,1.333c0.833-0.334,3.833-2.167,5.833-1.167s9.666,4.501,15.833,6.167
		c6.167,1.666,11.333,0.333,11.333,0.333s-0.667,3-1.5,5c-0.833,2-1.667,6.501,0.5,9.667c0,0,2.5-2.5,5.167-3
		s12.166-2.501,16.5-7.834c4.334-5.333,5.334-11.166,5.334-11.166s-0.291-0.625-1.333-1.333c0,0-1.293-2.334-0.418-2.959
		c0,0-2.875-1.875-3.75-2.875s-9.625-7-11.875-8.875S53.17,94.689,53.129,85.606z"/>
	<path d="M91.088,127.897c0,0,0.5,3-3.875,9.125s-11.626,9.625-15.376,10.375c0,0-0.125,0.75,1.5,1.875s17.626,4.375,25.376-5.5
		c0,0-0.25,3.5,4.25,7.25s13,6.75,13,6.75s-4.75-6.25-6-10.125s-2.125-12.375,1.25-18.875l-1.25-1c0,0-1.25-1.25-2.125-0.375
		c-0.875,0.875-2.5,2.5-6.75,1.875s-6.25-3.625-6.25-3.625l-1.875,1.25L91.088,127.897z"/>
	<path d="M120.838,128.022c0,0-1.75,4.25,2.125,13.25s10.125,19.125,10.125,24.5c0,0,0.875-1.25,1.5-4.125s1-5.625,2.5-8.875
		s3.25-8.125,3.25-8.125s4.875,9.125,5.25,11l0.125-34.125c0,0-0.75-3.875-5.25-4.5c0,0-4,1.125-7.125,2
		S123.338,122.397,120.838,128.022z"/>
	<path d="M65.132,156.75l0.325,1.38c0.061-0.015,6.187-1.354,14.304,3.581c5.506,3.347,10.648,9.101,14.402,13.302
		c1.321,1.479,2.438,2.716,3.354,3.611c-2.576,0.39-7.67,1.229-9.352,2.005l-1.766,1.042c-2.736,1.743-7.83,4.986-15.247,4.727
		c-9.114-0.319-16.797-7.404-16.874-7.476l-0.968,1.035c0.328,0.307,8.138,7.519,17.792,7.856
		c7.857,0.275,13.192-3.122,16.058-4.947l1.598-0.95c1.698-0.784,8.131-1.788,10.467-2.108l1.78-0.244l-1.468-1.037
		c-0.902-0.637-2.485-2.407-4.317-4.458c-3.814-4.268-9.038-10.112-14.724-13.568C71.849,155.242,65.403,156.686,65.132,156.75z"/>
	<path d="M64.521,156.072H64.52c-0.228,0.035-5.652,0.955-12.736,8.378c-6.005,6.292-7.938,13.481-7.773,16.779
		c0.048,0.949,0.263,1.576,0.658,1.914c0.39,0.334,1.031,0.418,2.02,0.264c3.028-0.473,11.105-3.838,15.378-10.763
		c3.992-6.47,5.378-13.716,3.949-15.872C65.659,156.236,65.115,155.98,64.521,156.072z M64.758,157.472
		c0.032,0.017,0.141,0.135,0.235,0.464c0.101,0.351,0.153,0.812,0.153,1.366c0,2.734-1.272,7.713-4.287,12.599
		c-4.585,7.43-13.937,10.533-15.266,10.14c-0.104-0.168-0.173-0.536-0.173-1.098c0-2.672,1.484-9.326,7.389-15.514
		c6.706-7.025,11.866-7.945,11.93-7.956C64.741,157.473,64.753,157.472,64.758,157.472z"/>
	<path d="M33.142,131.404c0.111,0.057,11.206,5.711,19.227,11.767c3.121,2.355,5.451,5.038,7.162,7.442
		c-1.2-0.899-2.63-1.806-4.434-2.649c-3.639-1.703-8.007-3.024-12.231-4.303c-4.792-1.45-9.318-2.819-11.661-4.468l-0.487-0.344
		l-0.421,0.422c-0.371,0.37-0.891,1.265-0.49,2.265c0.279,0.696,2.263,8.999,2.958,13.511c0.605,3.935,3.358,16.937,13.385,19.086
		l0.297-1.387c-9.14-1.958-11.711-14.207-12.282-17.914c-0.655-4.262-2.654-12.854-3.042-13.823
		c-0.029-0.074-0.042-0.146-0.042-0.215c0-0.019,0.012-0.029,0.013-0.047c2.625,1.591,6.839,2.902,11.363,4.27
		c4.176,1.264,8.494,2.57,12.041,4.23c5.535,2.591,7.697,5.788,8.441,7.251c0.212,0.482,0.354,0.833,0.359,0.848l1.35-0.429
		c-0.002-0.005-0.022-0.065-0.023-0.067c-0.033-0.11-0.138-0.427-0.392-0.941c-1.019-2.347-4.24-8.759-11.008-13.868
		c-8.124-6.133-19.328-11.843-19.44-11.899L33.142,131.404z"/>
	<path d="M45.562,148.515c-0.051,0.067-1.238,1.679-0.584,3.204c0.086,0.201,0.216,1.085,0.342,1.939
		c0.492,3.351,1.409,9.589,4.421,13.388l1.11-0.881c-2.776-3.501-3.656-9.493-4.13-12.713c-0.19-1.298-0.289-1.938-0.441-2.292
		c-0.058-0.135-0.082-0.28-0.082-0.429c0-0.36,0.137-0.696,0.282-0.978c9.353,1.753,13.663,8.806,13.705,8.878l0.155,0.263
		l0.3,0.069c0.027,0.006,2.7,0.647,4.023,3.293l1.268-0.635c-1.373-2.746-3.844-3.701-4.681-3.956
		c-0.761-1.2-5.361-7.845-15.005-9.426l-0.424-0.069L45.562,148.515z"/>
	<path d="M65.613,159.564l0.031,1.417c0.069-0.002,6.817-0.032,13.81,5.121c-0.079,0.062-0.127,0.128-0.254,0.179l-1.015,0.724
		c-2.444,1.958-8.936,7.162-16.496,4.597l-0.455,1.342c8.295,2.815,15.477-2.941,17.837-4.833l0.687-0.527
		c1.104-0.439,1.365-1.367,1.392-1.472l0.112-0.448l-0.364-0.283C73.286,159.46,65.922,159.557,65.613,159.564z"/>
	<path d="M45.947,152.457c7.831,2.078,12.257,7.379,12.301,7.432l1.096-0.899c-0.189-0.231-4.741-5.702-13.034-7.902L45.947,152.457
		z"/>
	<path d="M46.151,155.633c6.812,1.426,10.069,5.224,10.102,5.262l1.088-0.909c-0.142-0.171-3.575-4.207-10.899-5.739L46.151,155.633
		z"/>
	<path d="M46.796,158.294c4.609,1.112,8.182,3.998,8.218,4.027l0.897-1.098c-0.155-0.126-3.848-3.117-8.783-4.307L46.796,158.294z"
		/>
	<path d="M47.405,160.944c3.329,1.11,5.758,3.029,5.782,3.049l0.885-1.107c-0.107-0.085-2.64-2.092-6.219-3.285L47.405,160.944z"/>
	<polygon points="48.809,164.797 52.109,165.623 52.483,164.256 49.116,163.414 	"/>
	<path d="M58.237,160.944c0.042,0.015,4.214,1.45,5.569,4.764l1.312-0.537c-1.604-3.922-6.235-5.505-6.432-5.57L58.237,160.944z"/>
	<path d="M55.186,163.473c0.041,0.007,4.132,0.704,7.729,5.083l1.096-0.9c-3.961-4.82-8.419-5.555-8.607-5.583L55.186,163.473z"/>
	<path d="M52.692,166.141c0.043,0.007,4.384,0.732,7.65,6.642l1.24-0.686c-3.629-6.566-8.481-7.329-8.687-7.358L52.692,166.141z"/>
	<path d="M49.463,167.583l0.322,1.381c0.039-0.009,3.877-0.742,9.131,5.594l1.091-0.904
		C54.127,166.561,49.651,167.538,49.463,167.583z"/>
	<path d="M48.104,171.647c0.197,0.008,4.883,0.249,8.613,5.533l1.158-0.816c-4.156-5.888-9.498-6.126-9.723-6.133L48.104,171.647z"
		/>
	<path d="M46.852,173.973c0.041,0.007,4.109,0.709,7.539,5.386l1.143-0.838c-3.796-5.178-8.275-5.919-8.463-5.948L46.852,173.973z"
		/>
	<path d="M45.789,176.314c0.029,0,2.93,0.11,6.459,4.408l1.095-0.9c-4-4.869-7.404-4.926-7.547-4.926L45.789,176.314z"/>
	<path d="M44.866,177.447l0.478,1.333c0.013-0.003,1.312-0.246,3.522,3.207l1.193-0.764C47.221,176.787,45.235,177.3,44.866,177.447
		z"/>
	<path d="M65.539,163.476c0.077,0.01,7.73,1.018,12.53,4.22l0.787-1.18c-5.081-3.387-12.812-4.404-13.138-4.446L65.539,163.476z"/>
	<path d="M64.795,165.814c0.053,0,5.396,0.053,11.305,3.567l0.725-1.219c-6.263-3.724-11.797-3.767-12.029-3.767L64.795,165.814z"/>
	<path d="M63.939,167.064l0.046,1.416c0.048-0.001,4.821-0.108,9.056,3.028l0.844-1.139
		C69.239,166.93,64.153,167.057,63.939,167.064z"/>
	<path d="M62.763,170.647c0.035,0.002,3.526,0.187,6.487,2.058l0.757-1.199c-3.288-2.076-7.022-2.268-7.179-2.274L62.763,170.647z"
		/>
	<path d="M65.535,156.446l0.522,1.318c0.087-0.034,8.722-3.419,13.967-2.625c4.511,0.684,13.84,3.304,25.652,13.177l0.908-1.088
		c-12.076-10.094-21.691-12.784-26.348-13.489C74.611,152.887,65.903,156.301,65.535,156.446z"/>
	<path d="M37.773,147.898c-0.138,0.002-0.971,0.04-1.632,0.747c-0.486,0.52-0.731,1.24-0.731,2.146c0,0.117,0.004,0.238,0.012,0.361
		c0.077,1.149,0.492,2.046,1.235,2.667c1.086,0.908,2.482,0.906,3.218,0.824c0.781-0.087,1.45-0.535,1.885-1.262
		c0.596-0.994,0.67-2.351,0.194-3.54C41.276,148.148,39.752,147.457,37.773,147.898z M37.566,152.732
		c-0.435-0.364-0.681-0.927-0.73-1.674c-0.043-0.65,0.07-1.145,0.328-1.432c0.266-0.296,0.629-0.312,0.644-0.314l0.074-0.002
		l0.087-0.018c1.35-0.338,2.249,0.023,2.67,1.076c0.31,0.775,0.273,1.672-0.094,2.285c-0.208,0.348-0.486,0.543-0.827,0.581
		C39.306,153.281,38.273,153.324,37.566,152.732z"/>
	<path d="M40.098,157.832l0.165-0.072c-1.18,0.347-3.326,1.686-3.003,4.267c0.151,1.21,0.823,2.175,1.893,2.718
		c1.247,0.633,2.994,0.624,4.155-0.021c1.844-1.024,2.08-3.254,1.495-5.009c-0.283-0.849-1-1.523-2.021-1.9
		C41.783,157.446,40.73,157.452,40.098,157.832z M39.794,163.481c-0.655-0.332-1.034-0.881-1.128-1.63
		c-0.253-2.024,1.908-2.705,2-2.733l0.083-0.025l0.078-0.046c0.192-0.115,0.807-0.145,1.462,0.098
		c0.6,0.222,1.026,0.593,1.167,1.019c0.371,1.112,0.374,2.65-0.838,3.323C41.958,163.852,40.72,163.952,39.794,163.481z"/>
	<path d="M67.814,174.252c-1.185,0.159-3.404,1.056-3.72,3.427c-0.021,0.156-0.031,0.311-0.031,0.466
		c0,1.088,0.508,2.135,1.436,2.926c1.141,0.973,2.682,1.394,3.834,1.048c1.99-0.597,2.838-1.896,2.838-4.346
		c0-1.112-0.504-2.105-1.419-2.796C69.864,174.306,68.691,174.021,67.814,174.252z M66.418,179.991
		c-0.403-0.344-1.06-1.077-0.919-2.125c0.255-1.913,2.456-2.212,2.549-2.224l0.054-0.007l0.055-0.015
		c0.386-0.11,1.127,0.023,1.742,0.487c0.39,0.294,0.855,0.821,0.855,1.664c0,2.051-0.643,2.633-1.829,2.988
		C68.249,180.964,67.17,180.633,66.418,179.991z M67.768,174.258c0.014-0.004,0.031-0.002,0.045-0.006
		c0.019-0.003,0.047-0.014,0.066-0.017L67.768,174.258z"/>
	<path d="M83.065,170.899l-0.014,0.002c-1.256,0.14-3.631,1.059-3.631,3.538c0,1.477,0.462,2.68,1.336,3.477
		c0.735,0.672,1.719,0.989,2.77,0.895c2.495-0.227,3.99-1.77,3.81-3.931c-0.104-1.244-0.668-2.381-1.547-3.119
		C85.02,171.116,84.052,170.81,83.065,170.899z M84.877,172.848c0.593,0.497,0.975,1.281,1.047,2.15
		c0.162,1.946-1.712,2.328-2.524,2.401c-0.66,0.06-1.243-0.123-1.687-0.528c-0.564-0.515-0.874-1.378-0.874-2.432
		c0-1.812,2.23-2.112,2.363-2.129C83.815,172.257,84.395,172.442,84.877,172.848z"/>
	<path d="M29.021,160.908c-0.055,0.091-5.425,9.216-1.359,17.349c3.284,6.567,9.369,7.052,12.058,6.712
		c0.042,1.977,0.938,6.411,7.889,8.32c8.818,2.421,17.033-6.493,17.379-6.873l-1.049-0.953c-0.079,0.087-7.979,8.649-15.955,6.459
		c-7.728-2.122-6.865-7.462-6.824-7.688l0.204-1.135l-1.104,0.328c-1.454,0.436-8.04,0.774-11.329-5.805
		c-3.722-7.443,1.256-15.899,1.307-15.985l3.831-6.329l-1.211-0.736L29.021,160.908z"/>
	<path d="M53.754,180.295c0.007,0.233,0.251,5.767,6.518,9.423l0.714-1.225c-5.562-3.244-5.808-8.043-5.815-8.245L53.754,180.295z"
		/>
	<path d="M56.403,192.029l0.786-1.18c-5.561-3.707-5.205-9.286-5.187-9.521l-1.413-0.113
		C50.568,181.484,50.128,187.846,56.403,192.029z"/>
	<path d="M48.42,182.105c0,0.283,0.042,6.986,3.685,10.977l1.047-0.955c-3.269-3.581-3.315-9.959-3.315-10.022H48.42z"/>
	<path d="M47.794,192.842l1.337-0.472c-0.019-0.054-1.872-5.442,0.132-9.447l-1.268-0.635
		C45.72,186.838,47.709,192.599,47.794,192.842z"/>
	<path d="M43.427,190.675l1.403,0.195c0.225-1.614,1.054-6.105,2.18-7.482l-1.097-0.896
		C44.334,184.423,43.515,190.041,43.427,190.675z"/>
	<path d="M40.263,186.823l1.397,0.236c0.005-0.027,0.517-2.756,3.542-4.873l-0.812-1.162
		C40.854,183.5,40.286,186.688,40.263,186.823z"/>
	<path d="M33.036,182.067l-0.148,1.41c0.269,0.028,6.652,0.653,11.972-2.951l-0.795-1.174
		C39.184,182.659,33.097,182.074,33.036,182.067z"/>
	<path d="M29.065,177.95l-0.539,1.311c0.362,0.148,8.945,3.582,17.002-1.902l-0.798-1.172
		C37.319,181.232,29.147,177.983,29.065,177.95z"/>
	<path d="M27.002,174.977c0.251,0.216,6.301,5.218,19.05,0.289l-0.511-1.322c-11.896,4.6-17.564,0.001-17.62-0.045L27.002,174.977z"
		/>
	<path d="M26.437,171.58c0.202,0.225,5.105,5.448,18.204,2.045l-0.356-1.371c-12.187,3.166-16.754-1.578-16.799-1.627L26.437,171.58
		z"/>
	<path d="M26.804,168.616c0.194,0.186,4.863,4.564,14.108,3.023l-0.233-1.399c-8.501,1.417-12.851-2.606-12.894-2.646
		L26.804,168.616z"/>
	<path d="M27.437,164.748c0.137,0.151,3.451,3.722,10.993,4.065l0.064-1.416c-6.909-0.314-9.978-3.569-10.009-3.603L27.437,164.748z
		"/>
	<path d="M29.141,161.786c0.143,0.136,3.54,3.329,7.222,3.854l0.2-1.402c-3.229-0.462-6.414-3.45-6.446-3.479L29.141,161.786z"/>
	<path d="M119.592,183.979l-0.069,0.08l-0.042,0.098c-0.121,0.276-2.903,6.894,1.325,17.381c3.897,9.668,7.097,11.111,8.657,11.111
		c0.321,0,0.615-0.172,0.873-0.512c1.037-1.362,2.297-6.472-0.357-16.054c-2.324-8.393-6.027-12.014-8.492-12.563
		C120.686,183.342,119.996,183.508,119.592,183.979z M121.387,184.961c2.049,0.667,5.171,4.079,7.227,11.501
		c1.155,4.174,1.52,7.385,1.52,9.737c0,3.052-0.601,4.608-0.891,5.003c-0.861-0.144-3.549-1.332-7.122-10.194
		c-1.72-4.266-2.211-7.868-2.211-10.592c0-3.205,0.65-5.102,0.81-5.521C120.792,184.865,120.981,184.829,121.387,184.961z"/>
	<path d="M112.943,184.422c-4.197,1.145-9.642,5.319-10.249,5.791c-1.354,1.054-5.875,3.366-9.686,4.028
		c-2.355,0.409-4.797,0.027-7.061-1.102c-0.271-0.135-0.572-0.135-0.829,0.001c-0.611,0.322-0.739,1.236-0.95,2.752l-0.39,2.193
		c-0.357,1.311,0.275,3.822,1.471,5.843c0.861,1.454,2.377,3.305,4.715,3.866l2.038,0.473c2.878,0.654,5.363,1.22,6.037,2.231
		c0.557,0.834,3.685,4.864,10.67,2.271l-0.494-1.328c-5.834,2.166-8.359-0.776-8.996-1.729c-0.988-1.481-3.469-2.046-6.902-2.827
		l-2.022-0.469c-1.854-0.445-3.104-1.991-3.825-3.21c-0.968-1.635-1.375-3.321-1.375-4.263c0-0.196,0.018-0.36,0.052-0.484
		l0.427-2.371c0.068-0.491,0.155-1.11,0.247-1.495c2.396,1.082,4.947,1.477,7.431,1.045c4.097-0.712,8.821-3.145,10.314-4.306
		c2.119-1.649,6.558-4.672,9.751-5.543c3.487-0.951,6.711-0.647,6.743-0.645l0.141-1.41
		C120.059,183.72,116.694,183.399,112.943,184.422z"/>
	<path d="M101.254,191.605c0,0.279,0.065,6.89,5.76,11.549c5.734,4.691,14.947,1.752,15.337,1.625l-0.44-1.348
		c-0.088,0.029-8.868,2.823-13.998-1.375c-5.16-4.222-5.24-10.391-5.24-10.452L101.254,191.605z"/>
	<path d="M137.646,172.639l-1.753,0.927c-2.446,1.32-5.797,3.129-9.114,4.022c-4.666,1.257-6.104,6.116-6.164,6.323l1.362,0.391
		c0.013-0.043,1.289-4.3,5.171-5.345c3.476-0.937,6.91-2.79,9.418-4.145l1.714-0.906c4.076-2.038,7.965-8.006,8.204-8.962
		l-1.37-0.361C144.917,165.162,141.448,170.737,137.646,172.639z"/>
	<path d="M130.634,198.583l0.323,1.38c0.421-0.099,10.371-2.517,15.464-12.022l-1.25-0.67
		C140.389,196.197,130.731,198.56,130.634,198.583z"/>
	<path d="M139.883,195.27c0.042,0.016,4.173,1.594,5.063,4.856l1.367-0.373c-1.083-3.972-5.739-5.738-5.938-5.812L139.883,195.27z"
		/>
	<path d="M107.949,210.074c-0.589,2.019-0.305,4.066,0.8,5.762c1.081,1.66,3.454,3.783,8.62,4.472
		c6.997,0.934,11.608-4.413,12.921-7.327c1.019,0.585,3.039,1.126,6.953,0.491c6.396-1.037,8.888-6.041,9.093-8.303l-1.412-0.127
		c-0.165,1.827-2.387,6.136-7.907,7.031c-5.382,0.873-6.428-0.635-6.438-0.65l-0.994-1.533l-0.321,1.767
		c-0.284,1.705-4.738,8.176-11.707,7.247c-4.633-0.618-6.701-2.43-7.619-3.84c-0.889-1.365-1.106-2.953-0.627-4.593
		c1.091-3.741,2.641-5.351,2.656-5.366l-1.005-1C110.889,204.178,109.153,205.947,107.949,210.074z"/>
	<path d="M109.865,180.903c-1.606,0.224-3.475,0.704-5.453,1.214c-5.557,1.431-12.473,3.21-19.04,0.822l-0.484,1.332
		c6.98,2.538,14.132,0.697,19.878-0.782c1.938-0.498,3.769-0.97,5.295-1.182c5.567-0.774,9.21,2.61,9.246,2.645l0.979-1.025
		C120.119,183.768,116.133,180.032,109.865,180.903z"/>
	<path d="M127.553,172.963c-1.557,1.093-3.026,2.125-4.248,3.299c-4.597,4.42-3.563,7.911-3.518,8.058l1.354-0.419
		c-0.033-0.115-0.767-2.855,3.146-6.617c1.143-1.099,2.569-2.101,4.08-3.161c4.057-2.848,9.105-6.392,11.604-14.132l-1.35-0.435
		C136.27,166.844,131.639,170.095,127.553,172.963z"/>
	<path d="M101.953,191.563l0.02,1.418c12.16-0.17,17.772-5.976,18.006-6.223l-1.03-0.974
		C118.895,185.842,113.474,191.403,101.953,191.563z"/>
	<path d="M102.924,194.408l-0.257,1.395c0.46,0.085,11.331,1.995,16.864-5.44l-1.137-0.846
		C113.393,196.238,103.028,194.428,102.924,194.408z"/>
	<path d="M104.148,197.755l-0.371,1.368c0.313,0.086,7.765,2.02,16.113-4.285l-0.854-1.131
		C111.27,199.571,104.218,197.774,104.148,197.755z"/>
	<path d="M106.26,200.576l-0.262,1.393c0.264,0.05,6.543,1.161,14.361-4.108l-0.793-1.176
		C112.263,201.607,106.319,200.587,106.26,200.576z"/>
	<path d="M120.937,199.231l-0.308,0.012l-0.202,0.233c-2.968,3.436-8.386,4.591-8.44,4.602l0.286,1.389
		c0.236-0.049,5.68-1.224,8.994-4.836c1.094-0.081,5.139-0.536,8.601-2.943l-0.809-1.164
		C125.451,199.033,120.981,199.229,120.937,199.231z"/>
	<path d="M122.702,184.113l0.521,1.318c0.333-0.132,8.206-3.282,12.435-8.02l-1.057-0.943
		C130.598,180.952,122.78,184.082,122.702,184.113z"/>
	<path d="M126.922,189.428l0.416,1.355c0.273-0.084,6.707-2.081,8.647-4.199l-1.045-0.957
		C133.545,187.149,128.679,188.887,126.922,189.428z"/>
	<path d="M128.49,193.077l0.278,1.391c0.453-0.091,4.462-0.937,5.915-2.753l-1.107-0.885
		C132.617,192.029,129.58,192.859,128.49,193.077z"/>
	<path d="M124.607,186.422c-2.467,0.322-5.295,1.48-5.414,1.528l0.539,1.311c0.027-0.012,2.78-1.137,5.157-1.453
		c0.373-0.096,6.97-1.94,11.701-5.997l-0.922-1.076C131.183,184.58,124.673,186.404,124.607,186.422z"/>
	<path d="M119.029,191.238l0.201,1.402c0.242-0.034,5.954-0.858,7.858-1.723l-0.586-1.291
		C125.075,190.276,120.624,191.01,119.029,191.238z"/>
	<path d="M119.639,195.414l0.314,1.383c1.253-0.285,7.566-1.759,8.804-2.819l-0.922-1.076
		C127.122,193.512,122.613,194.738,119.639,195.414z"/>
	<path d="M134.025,175.81c0.019,0.031,1.439,2.426,1.439,6.318c0,1.237-0.144,2.627-0.521,4.14
		c-2.107,8.432-4.892,12.61-5.169,13.013c-2.76,2.4-7.738,2.285-7.789,2.284l-0.044,1.416c0.229,0.008,5.651,0.143,8.826-2.679
		l0.058-0.051l0.046-0.063c0.128-0.177,3.166-4.446,5.447-13.576c1.719-6.877-0.969-11.355-1.084-11.543L134.025,175.81z"/>
	<path d="M126.212,208.568l0.167,1.408c0.125-0.015,3.098-0.383,4.918-2.203l-1.002-1.002
		C128.827,208.239,126.238,208.565,126.212,208.568z"/>
	<path d="M109.823,206.577l0.278,1.391c0.141-0.028,3.465-0.703,6.027-2.07l-0.666-1.25
		C113.087,205.914,109.856,206.571,109.823,206.577z"/>
	<path d="M108.56,209.567l0.139,1.41c0.219-0.02,5.439-0.579,12.679-5.797l-0.828-1.15
		C113.651,209.003,108.61,209.562,108.56,209.567z"/>
	<path d="M123.937,205.731l-0.217,0.008l-0.176,0.129c-8.96,6.561-15.281,6.038-15.344,6.032l-0.143,1.41
		c0.274,0.028,6.797,0.594,16.139-6.175c0.906-0.055,4.983-0.413,7.101-2.529l-1.002-1.002
		C128.354,205.545,123.981,205.729,123.937,205.731z"/>
	<path d="M109.215,214.902l-0.173,1.406c0.284,0.035,7.069,0.783,16.856-6.81l-0.869-1.119
		C115.754,215.575,109.279,214.909,109.215,214.902z"/>
	<path d="M112.945,217.731l0.034,1.416c0.305-0.007,7.553-0.262,14.346-7.904l-1.059-0.941
		C119.905,217.457,113.014,217.729,112.945,217.731z"/>
	<path d="M133.715,197.736l-0.17,1.406c0.234,0.029,5.808,0.667,9.979-2.113l-0.787-1.18
		C139.01,198.335,133.768,197.742,133.715,197.736z"/>
	<path d="M130.677,201.43l-0.429,1.351c0.314,0.101,7.763,2.379,15.299-3.102l-0.834-1.146
		C137.776,203.577,130.747,201.452,130.677,201.43z"/>
	<path d="M130.845,204.598l-0.431,1.35c0.355,0.114,8.797,2.721,15.522-3.314l-0.947-1.055
		C138.881,207.06,130.925,204.622,130.845,204.598z"/>
	<path d="M130.877,207.901l-0.162,1.408c0.362,0.042,8.953,0.99,14.747-2.078l-0.664-1.252
		C139.396,208.839,130.962,207.911,130.877,207.901z"/>
	<path d="M93.264,197.397l-0.009,0.001c-1.18,0.068-3.497,0.807-3.826,3.107c-0.134,0.935,0.096,1.774,0.663,2.429
		c0.945,1.09,2.563,1.381,3.371,1.381c1.299,0,3.095-0.371,3.696-3.578c0.204-1.09-0.166-1.795-0.513-2.194
		C95.592,197.328,93.499,197.387,93.264,197.397z M95.578,199.474c0.133,0.153,0.297,0.424,0.188,1.001
		c-0.419,2.235-1.368,2.422-2.304,2.422c-0.614,0-1.732-0.237-2.3-0.892c-0.237-0.273-0.356-0.599-0.356-0.986
		c0-0.1,0.008-0.204,0.024-0.312c0.246-1.721,2.403-1.886,2.505-1.893C93.767,198.798,95.068,198.885,95.578,199.474z"/>
	<path d="M102.047,201.901c-1.169,0.138-3.466,1.035-3.786,3.444c-0.144,1.077,0.122,2.035,0.767,2.773
		c0.825,0.941,2.152,1.363,3.103,1.363c1.663,0,3.504-1.221,3.868-3.948c0.126-0.943-0.042-1.722-0.501-2.314
		c-0.782-1.013-2.142-1.178-3.133-1.299l-0.231-0.028L102.047,201.901z M100.094,207.185c-0.305-0.349-0.455-0.767-0.455-1.27
		c0-0.122,0.009-0.25,0.026-0.382c0.245-1.838,2.243-2.176,2.487-2.211c0.016,0.002,0.04,0.005,0.04,0.005
		c0.786,0.096,1.764,0.215,2.184,0.759c0.165,0.212,0.246,0.495,0.246,0.857c0,0.124-0.01,0.259-0.028,0.402
		c-0.269,2.006-1.495,2.718-2.464,2.718C101.621,208.063,100.659,207.83,100.094,207.185z"/>
	<path d="M140.18,176.74l-0.037,0.006l-0.036,0.011c-0.144,0.04-3.52,1.006-3.52,3.516c0,2.23,1.902,3.467,3.788,3.703
		c0.912,0.114,1.703-0.098,2.287-0.613c0.67-0.591,1.01-1.518,1.01-2.757c0-1.263-0.506-2.414-1.386-3.161
		C141.635,176.893,140.848,176.63,140.18,176.74z M141.369,178.525c0.331,0.28,0.885,0.923,0.885,2.08
		c0,0.803-0.183,1.389-0.529,1.694c-0.342,0.302-0.827,0.312-1.174,0.27c-0.425-0.054-2.546-0.414-2.546-2.297
		c0-1.377,2.304-2.095,2.442-2.137C140.661,178.117,141.017,178.227,141.369,178.525z"/>
	<path d="M134.608,189.268c-0.264,1.054-0.152,1.996,0.33,2.799c0.777,1.295,2.33,1.847,3.185,2.061
		c0.531,0.133,1.89,0.35,3.03-0.483c0.561-0.41,1.249-1.234,1.349-2.827c0.12-1.921-0.93-3.029-1.566-3.518
		c-0.552-0.425-1.355-0.792-1.963-0.732C137.684,186.386,135.245,186.721,134.608,189.268z M138.468,192.752
		c-0.644-0.161-1.8-0.558-2.315-1.415c-0.285-0.476-0.341-1.04-0.17-1.726c0.488-1.955,2.624-1.678,2.866-1.64l0.127,0.021
		c0,0,0.063-0.015,0.124-0.028c0.134,0.002,0.761,0.181,1.3,0.753c0.462,0.49,0.695,1.095,0.695,1.802
		c0,0.069-0.003,0.139-0.007,0.21c-0.053,0.839-0.312,1.435-0.773,1.77C139.642,192.993,138.73,192.817,138.468,192.752z"/>
	<path d="M13.371,193.069c-4.144,0.541-6.436,4.689-6.531,4.865l1.246,0.677c0.02-0.037,2.05-3.69,5.469-4.136
		c3.398-0.443,6.177,2.727,6.205,2.759l0.307,0.355l0.448-0.144c0.056-0.018,5.616-1.756,7.481,1.977
		c0.958,1.915,0.97,3.836,0.033,5.136c-1.087,1.508-3.324,2.105-6.299,1.68l-0.2,1.402c3.523,0.504,6.239-0.297,7.649-2.253
		c1.251-1.736,1.283-4.203,0.085-6.6c-1.823-3.646-6.274-3.466-8.733-2.798C19.657,195.099,16.882,192.611,13.371,193.069z"/>
	<path d="M6.949,182.321l0.69,1.238c0.263-0.145,6.532-3.429,15.331,5.056l0.334,0.323l0.431-0.18
		c0.242-0.101,5.976-2.415,10.567,2.023c4.595,4.441,3.056,9.228,2.988,9.429l-0.214,0.637l0.624,0.251
		c0.059,0.023,5.917,2.416,6.22,7.88c0.147,2.649-2.202,5.349-5.464,6.277c-3.112,0.887-5.868-0.231-7.373-2.989l-0.641-1.176
		l-0.613,1.194c-0.062,0.122-1.588,2.997-6.104,3.449c-4.449,0.444-6.394-2.988-6.475-3.135l-0.587-1.066l-0.64,1.037
		c-0.012,0.021-1.264,2.023-3.41,2.421c-1.421,0.264-2.953-0.224-4.555-1.448l-0.861,1.125c1.94,1.483,3.855,2.059,5.69,1.713
		c1.774-0.334,3.025-1.453,3.717-2.245c0.998,1.256,3.301,3.404,7.261,3.009c3.727-0.372,5.714-2.2,6.614-3.326
		c2.239,3.105,5.689,3.562,8.365,2.801c3.763-1.072,6.5-4.221,6.5-7.412c0-0.102-0.003-0.204-0.009-0.307
		c-0.299-5.385-4.928-8.074-6.543-8.856c0.103-0.47,0.215-1.161,0.215-2.053c0-2.145-0.66-5.271-3.72-8.229
		c-4.577-4.423-10.105-3-11.672-2.469C14.189,178.452,7.243,182.156,6.949,182.321z"/>
	<path d="M23.539,221.773l-0.77-0.279l-0.168,0.807c-0.032,0.153-0.844,3.763-6.472,3.763c-5.83,0-7.752-2.365-7.771-2.389
		l-1.129,0.855c0.09,0.121,2.288,2.951,8.9,2.951c5.22,0,7.038-2.817,7.614-4.18c2.356,0.627,10.631,2.112,14.534-6.743
		l-1.297-0.572C32.973,225.08,23.922,221.913,23.539,221.773z"/>
	<path d="M40.319,220.078c-3.758,0.778-4.988,3.691-5.192,5.627c-8.643-0.371-10.277,4.643-10.343,4.863l1.356,0.413
		c0.058-0.182,1.51-4.445,9.603-3.835l0.784,0.059l-0.022-0.788c-0.005-0.167-0.069-4.088,4.102-4.95
		c2.226-0.461,4.289,1.273,5.177,3.226c0.733,1.611,0.878,3.819-0.916,5.183l0.857,1.129c2.025-1.539,2.555-4.247,1.348-6.898
		C45.987,221.718,43.41,219.438,40.319,220.078z"/>
	<path d="M50.695,207.429c-1.028-0.508-3.842-1.824-6.735-2.513l-0.328,1.379c3.369,0.802,6.801,2.587,6.836,2.605l0.44,0.23
		l0.367-0.336c0.059-0.054,5.909-5.321,11.573-2.872c5.457,2.36,4.325,6.138,4.274,6.297l-0.267,0.84l0.876,0.086
		c2.878,0.267,10.535,1.622,11.383,4.651c0.422,1.508,0.283,2.888-0.414,4.099c-0.938,1.63-2.81,2.849-5.414,3.524
		c-4.558,1.182-13.372,0.035-15.248-2.562c-1.202-1.664-1.637-3.309-1.165-4.402c0.524-1.209,2.109-1.653,3.347-1.812
		c4.87-0.628,8.877,1.405,8.917,1.426l0.653-1.258c-0.178-0.093-4.425-2.261-9.751-1.574c-2.903,0.375-4.031,1.651-4.466,2.656
		c-0.684,1.578-0.204,3.69,1.315,5.795c2.413,3.341,12.148,4.298,16.752,3.104c2.981-0.772,5.156-2.222,6.288-4.189
		c0.557-0.968,0.838-2.04,0.838-3.169c0-0.657-0.096-1.334-0.287-2.019c-1.12-4-9.249-5.286-11.878-5.6
		c0.02-0.186,0.05-0.334,0.05-0.57c0-1.735-0.744-4.678-5.24-6.622C57.686,202.146,52.141,206.232,50.695,207.429z"/>
	<path d="M47.351,225.767l-0.446,1.345c0.242,0.081,5.982,1.914,11.067-3.347l-1.019-0.984
		C52.506,227.38,47.56,225.835,47.351,225.767z"/>
	<path d="M94.205,225.402c-5.526,0.713-7.172,4.942-7.239,5.121l1.326,0.5c0.057-0.147,1.44-3.615,6.095-4.215
		c4.41-0.569,5.18,3.573,5.211,3.75l1.397-0.235C100.668,228.36,98.828,224.807,94.205,225.402z"/>
	<path d="M99.277,229.259l1.368,0.37c0.031-0.107,0.823-2.626,5.629-2.481c4.957,0.15,6.792,4.385,6.867,4.564l1.31-0.543
		c-0.089-0.215-2.243-5.26-8.134-5.438C100.323,225.55,99.317,229.107,99.277,229.259z"/>
	<path d="M135.774,222.564c-4.793,0.145-8.067,3.404-9.14,4.634c-0.766-0.388-2.287-0.867-5.229-0.632
		c-4.464,0.357-6.456,3.36-6.538,3.488l1.188,0.773c0.068-0.105,1.721-2.549,5.463-2.849c3.668-0.293,4.782,0.636,4.793,0.645
		l0.573,0.499l0.477-0.591c0.033-0.044,3.374-4.396,8.455-4.551c5.101-0.154,7.951,2.6,7.979,2.628l1-1.004
		C144.666,225.473,141.515,222.39,135.774,222.564z"/>
	<path d="M98.369,213.903c-4.275,0.569-5.386,3.7-5.674,5.123c-2.068-0.062-5.434,0.67-6.881,3.961
		c-2.018,4.586,1.31,7.618,1.345,7.648l0.943-1.057c-0.105-0.097-2.585-2.397-0.991-6.02c1.592-3.618,5.909-3.106,6.093-3.082
		l0.763,0.098l0.037-0.771c0.008-0.16,0.228-3.918,4.553-4.494c4.385-0.584,6.725,5.168,6.747,5.226l0.428,1.076l0.772-0.879
		c0.054-0.062,1.356-1.489,4.987-0.763c3.403,0.68,3.29,3.281,3.266,3.575l-0.143,1.739l1.316-1.145
		c0.22-0.191,5.447-4.602,12.358,2.463l1.014-0.99c-6.01-6.144-11.121-4.427-13.246-3.239c-0.33-1.456-1.446-3.226-4.288-3.794
		c-2.91-0.582-4.625,0.053-5.533,0.61C105.335,217.401,102.778,213.315,98.369,213.903z"/>
	<path d="M79.869,217.613l0.521,1.318c0.068-0.026,6.889-2.631,12.491,1.415l0.83-1.148
		C87.468,214.689,80.177,217.492,79.869,217.613z"/>
</g>
</svg>
