<?xml version="1.0" encoding="iso-8859-1"?>
<!-- Generator: Adobe Illustrator 19.1.0, SVG Export Plug-In . SVG Version: 6.00 Build 0)  -->
<svg version="1.1" id="&#xB808;&#xC774;&#xC5B4;_1" xmlns="http://www.w3.org/2000/svg" xmlns:xlink="http://www.w3.org/1999/xlink"
	 x="0px" y="0px" viewBox="0 0 153.071 238.111" style="enable-background:new 0 0 153.071 238.111;" xml:space="preserve">
<rect style="fill:#E60012;" width="153.071" height="238.111"/>
<g>
	<path style="fill:#E60012;" d="M8.035,15.389L7.869,142.222l29.333,8.166l66.666,5.5l35.334,2.167l6-3.333l-0.166-139.333
		c0,0-0.668-7.833-9.668-8.5L16.702,7.055C16.702,7.055,9.368,8.056,8.035,15.389z"/>
	<circle style="fill:#FFFFFF;" cx="75.857" cy="78.97" r="50.49"/>
	<path d="M17.957,6.347c-5.861,0-10.63,4.769-10.63,10.63v204.158c0,5.861,4.768,10.629,10.63,10.629h117.158
		c5.861,0,10.631-4.768,10.631-10.629V16.976c0-5.861-4.77-10.63-10.631-10.63H17.957z M8.744,221.134V16.976
		c0-5.08,4.133-9.213,9.213-9.213h117.158c5.08,0,9.213,4.133,9.213,9.213v204.158c0,5.08-4.133,9.211-9.213,9.211H17.957
		C12.877,230.345,8.744,226.214,8.744,221.134z"/>
	<path d="M8.369,140.805c0,0,18.25-12.5,65-10.5c46.749,2,69.999,21,71.499,23.75v68.749c0,0-1.508,8.25-9.754,8.25H16.619
		c0,0-7.917-0.592-8.583-9.92L8.369,140.805z"/>
	<path d="M24.326,78.97c0,28.23,22.967,51.198,51.198,51.198c28.231,0,51.198-22.968,51.198-51.198
		c0-28.231-22.967-51.198-51.198-51.198C47.293,27.772,24.326,50.739,24.326,78.97z M25.743,78.97
		c0-27.449,22.332-49.781,49.781-49.781c27.45,0,49.78,22.332,49.78,49.781s-22.33,49.78-49.78,49.78
		C48.075,128.751,25.743,106.419,25.743,78.97z"/>
</g>
<circle style="fill:#E60012;" cx="40.776" cy="196.619" r="23.5"/>
<g>
	<path style="fill:#FFFFFF;" d="M32.817,187.119c0,0-0.999-0.251-1.582-0.584c-0.584-0.333-1.751-0.833-1.667-0.083
		c0.083,0.75,0.584,2.833,0.667,3.25c0.083,0.417,0.833,0.667,1.25-0.083C31.901,188.869,33.401,187.369,32.817,187.119z"/>
	<path style="fill:#FFFFFF;" d="M37.901,187.952c0,0,0.5-7.333,0.25-8.083s-0.667-1.668-0.584-2.084
		c0.084-0.416,0.751-0.166,1.418,0.334c0.666,0.5,0.916,1.083,0.832,1.583c-0.082,0.5-0.332,1.333-0.332,1.917
		c0,0.583,0,3.75,0,3.75s-0.001,0.333,0.582,0c0.584-0.334,4.668-4.418,4.918-4.834c0.25-0.416,0.25-1.584,1.25-0.75
		c1,0.834,1.916,2,1.332,2.334c-0.582,0.333-8.249,6.582-8.582,6.916c-0.334,0.334-0.334,0.916-0.25,1.5
		c0.082,0.584,0.082,0.917,0.082,0.917s0.75,0.167,1.5-0.083s3.084-1.668,3.5-1.834c0.418-0.166,0.417-0.833,1.5-0.166
		c1.084,0.666,1.167,1.416,0.5,1.916c-0.666,0.5-3.582,2.917-3.582,2.917s0.416,0.583,0.832,0.833
		c0.418,0.25,0.584,0.417,0.584,1.084c0,0.666-0.416,1.166-1,2.583c-0.584,1.417-1.167,3.417-1.334,5
		c-0.166,1.583,0.001,3.333,1.668,3.333c1.666,0,6.416,0.167,6.416,0.167s1.583-0.167,2.416-1.5c0.834-1.333,1.834-2.417,1.918-2.75
		c0.082-0.333,0.416-0.167,0.832,0.583c0.418,0.75,1.5,3.25,1.834,4.084c0.334,0.833,0.416,1.083-0.334,1.333s-1.416,0.75-2.5,0.917
		c-1.082,0.166-10.416,0.25-11.832,0.25c-1.418,0-2.251-1.751-2.418-3.834c-0.166-2.083,0.417-7.166,0.5-7.583
		c0.084-0.417-0.333-0.417-0.75-0.25c-0.416,0.167-1.5,0.917-1.916,1.417s-4.667,4.666-5.584,5.916
		c-0.916,1.25-3.583,3.084-4.499,3.167c-0.917,0.083-1.917-1-1.917-1l1.834-1.083c0,0,1.999-2.667,3.333-3.75
		c1.333-1.084,6.167-6.584,6.417-6.917c0.25-0.333,1-2.333,1-2.333s-0.334-0.417-0.834-0.25c-0.5,0.166-4,2.25-5.166,2.75
		c-1.167,0.5-1.917,0.833-2.334,0.333c-0.416-0.5,0.001-1,0.834-1.75s2.332-2.167,2.832-2.25c0.5-0.083,0.168,0.5,1.584,0.167
		c1.416-0.334,2.5-0.25,2.666-0.667c0.168-0.417,0.334-0.917-0.166-1.083c-0.5-0.167-1.084,0-1.834,0s0.084-0.584,0.834-1.417
		C36.901,188.869,37.901,187.952,37.901,187.952z"/>
</g>
</svg>
