<?xml version="1.0" encoding="iso-8859-1"?>
<!-- Generator: Adobe Illustrator 19.1.0, SVG Export Plug-In . SVG Version: 6.00 Build 0)  -->
<svg version="1.1" id="&#xB808;&#xC774;&#xC5B4;_1" xmlns="http://www.w3.org/2000/svg" xmlns:xlink="http://www.w3.org/1999/xlink"
	 x="0px" y="0px" viewBox="0 0 153.07 238.11" style="enable-background:new 0 0 153.07 238.11;" xml:space="preserve">
<rect style="fill:#E60012;" width="153.07" height="238.11"/>
<g>
	<path style="fill:#FFFFFF;" d="M8.701,16.217L8.535,220.884c0,0,0.667,9.333,8.833,9.833l116.334,0.334c0,0,10.667-0.168,11-9.834
		v-205c0,0-1.001-8.167-10.334-8.833H17.201C17.201,7.384,9.868,8.217,8.701,16.217z"/>
	<path style="fill:#E60012;" d="M106.16,7.384l-27.5,0.125c0,0-3.5,1.125-3.875,5.75s3.625,7.625,3.625,7.625
		s-3.125,12.5,5.875,16.75s18.125,0.125,18.875-2.75s-0.5-5.875-0.5-5.875s4.875-1.125,7.375-5.625S112.535,12.009,106.16,7.384z"/>
	<path style="fill:#E60012;" d="M19.16,125.009c0,0-2.875,0.75-4,2.5c-1.125,1.75-1.625,8-1.75,10.125s-0.125,5.375-1,6.75
		s-0.75,4.75-0.75,6.125s1.125,4.75,0.75,6.125s-0.75,5.125-1,7s0,7.125,3.125,10c0,0-1.375,2.75-2,5s-0.375,7,7.375,9l1.5,5.75
		l19.125,9.375l9.25,2.5l8.75,0.125l3.125-0.375c0,0,3.75-0.375,4.375-0.625s8.75,6.5,9.375,6.375s11-5.125,11-5.125l7.5-8.75
		l0.5-2.875c0,0-11.875-13-20-28.375s-16.125-34.5-20.75-49.75l-13.25-1.125l-12.75,2.75L19.16,125.009z"/>
	<path style="fill:#FDD000;" d="M66.285,149.384c0,0-6.375-2.875-10.25-3.25s-5.625,3.125-5.25,7.5s5.25,8.75,8.5,8.75
		c0,0,0.125-3,2.625-4.375c2.5-1.375,4-1,5.375,0s4,1.25,4,1.25L66.285,149.384z"/>
	<path style="fill:#005BAC;" d="M84.66,54.134l-40.75,0.5c0,0,1.75,18.75,2.875,27.125s6.75,33,10.125,43.5
		s17.625,48.75,38.875,70.625l44.375-1.375l-0.75-1.25c0,0-26.042-30.208-40.042-71.875c-4.002-11.911-10.333-35-10.333-35
		s-2.833-12.667-2.833-17c0-4.334,1-10.334,1-10.334L84.66,54.134z"/>
	<path d="M58.16,70.634c0,0-2,1.625-3.25,1.75s-2.5-0.125-2.875,0.625s0,2.875,0.5,3.625s6.125,0.75,10.75-3
		c0,0,0.375,0.75,0.125,1.75s-5,7.25-8.5,11.625c0,0-0.75,1.25-0.75,2.125s0.75,1.375,4-0.125s4-4.375,4-4.375s0.875-0.25,1.25,0.75
		s2.125,3.25,3.5,4.875s3.25,0.25,3.625-1c0.375-1.25-0.5-3.25-2.125-5.25s-4.25-2.5-4.25-2.5s3.125-5.625,3.5-8.125
		s-1.25-4.125-2.125-4.75s-3.5,0.5-3.5,0.5s-1.625-2.25-2.25-3.25s-2.75-1.375-3.375-1.75s-2,1-2,1.875s2.75,1,3.25,2
		S58.16,70.634,58.16,70.634z"/>
	<path d="M69.16,64.634c-0.625-1.125-2.25-1.125-3.125-2.375s0.25-2.5,3-1.75c2.75,0.75,4.875,1.75,5.75,4.5s2.25,11.875,2.25,18.25
		S74.66,93.384,74.66,93.384c1.875,0.25,6.625,2.25,7.25,6.625s-2,8.875-4,11.25s-5.5,7.5-5.625,12s2.25,7.125,3.125,6.625
		s4.625-2.375,5.5-2.75s3.5,0.5,3.625,1.625c0.125,1.125-0.75,2.875-2.25,3.875s-4.875,2.5-4.75,4.75s1.625,5.25,5.125,3
		s5-6.5,5.375-7.125s1.125-0.875,1.875-0.375s1.375,1.75,1.375,1.75c-0.375,6.5-2.375,10.875-7.375,12.25s-8.875-0.375-10.5-4.75
		s0.375-8.75,0.375-8.75c-3.25-2.125-5.625-6.5-4.375-12.625s4.375-8.75,4.375-8.75s-2.625,1.125-5.25-2.125
		c-3.118-3.86-3.5-8.125-2.125-11.5s5-6.5,6.375-10s0-8.875,0-8.875s-4.25,2.875-5.25,2.625s-2-2.5-1.125-3s5.625-4.375,5.625-4.375
		C70.91,69.134,69.785,65.759,69.16,64.634z M74.035,97.134c0,0-3.5-0.375-4.875,4.125s2.25,7.25,4,7.375s4.125-1.25,4.625-6
		S74.785,97.134,74.035,97.134z"/>
	<path d="M86.535,121.009c2.375,0.75,6.375,3,6.75,4.625s3.5,10.375,3.5,10.375s2.375,2,4.75,3.5s3.375,5.625,2.5,8
		s-3.125,3.375-3.625,3.875s-0.375,1.125-0.375,1.125l2.875,11.25c1.625-0.625,3-2.25,3.625-3.375s2.75-2.375,3.75-2.125
		s3.5,1,3.5,2.25s-0.125,2.875-2.25,4.5s-6.5,4.5-6.5,4.5s0.375,1.25,0.75,3.25s-1,4.75-1.375,6.375s0.375,4.375,0.5,6
		s-1.75,2.125-1.75,1.5s-0.75-1.5-1.25-3.875s-0.5-5.375,0.125-7.75s-0.625-5.125-0.625-5.125c-0.75,0-6.25,1.625-9.625-2.125
		s-3.875-8.125-2.125-10.75s6.875-6.5,6.875-6.5s-0.5-3.375-4-13.25s-8.25-12.875-9.25-14s-0.625-2.125-0.625-2.125
		S84.16,120.259,86.535,121.009z M97.285,139.259c0,0,1.625,6.75,1.875,8.5c0,0,2.375-1.25,1.625-4.5S97.285,139.259,97.285,139.259
		z M92.285,159.134c-1,3,0.875,5.25,3.375,5.75s4.75-0.375,4.75-0.375l-3-10.625C97.41,153.884,93.285,156.134,92.285,159.134z"/>
	<path d="M18.456,6.675c-5.861,0-10.63,4.769-10.63,10.63v203.658c0,5.861,4.768,10.63,10.63,10.63h116.158
		c5.861,0,10.63-4.769,10.63-10.63V17.305c0-5.861-4.769-10.63-10.63-10.63H18.456z M9.243,220.963V17.305
		c0-5.08,4.133-9.213,9.213-9.213h116.158c5.08,0,9.212,4.133,9.212,9.213v203.658c0,5.08-4.132,9.212-9.212,9.212H18.456
		C13.376,230.175,9.243,226.043,9.243,220.963z"/>
	<path d="M84.017,53.342L43.963,54.36l0.03,0.72c3.966,94.194,50.745,140.358,51.217,140.814l0.211,0.203l46.422-0.693l-0.926-1.135
		C88.684,130.209,84.776,54.773,84.743,54.019l-0.031-0.695L84.017,53.342z M83.369,54.776c0.494,7.486,6.434,78.23,55.556,139.253
		c-2.667,0.04-42.36,0.633-42.934,0.642c-3.298-3.344-46.528-48.932-50.541-138.931C46.833,55.705,82.074,54.809,83.369,54.776z"/>
	<path d="M47.461,116.884c-3.775,1.359-3.687,5.942-3.112,8.177l1.373-0.353c-0.055-0.213-1.285-5.229,2.22-6.491
		c3.696-1.33,6.031,0.619,6.13,0.703l0.931-1.069C54.88,117.744,51.969,115.261,47.461,116.884z"/>
	<path d="M51.948,146.895c-1.225,1.131-1.955,2.934-1.955,4.821c0,2.248,0.702,9.723,9.736,11.529l0.278-1.391
		c-7.76-1.551-8.598-7.606-8.598-10.139c0-1.5,0.561-2.912,1.5-3.779c0.851-0.785,1.995-1.127,3.401-1.015
		c3.97,0.317,9.173,3.06,9.225,3.087l0.665-1.252c-0.224-0.118-5.512-2.906-9.776-3.247
		C54.633,145.367,53.085,145.847,51.948,146.895z"/>
	<path d="M61.917,157.255c-1.777,0.765-2.873,2.202-3.086,4.048c-0.623,5.397,2.615,9.73,8.662,11.592
		c6.662,2.05,10.959,0.387,11.139,0.314l-0.524-1.317c-0.04,0.016-4.048,1.54-10.197-0.353c-5.422-1.668-8.218-5.34-7.671-10.074
		c0.156-1.358,0.909-2.337,2.238-2.908c1.685-0.725,3.633-0.48,4.132-0.105c1.425,1.067,4.441,1.913,4.569,1.948l0.38-1.365
		c-0.8-0.223-3.094-0.964-4.099-1.718C66.459,156.566,63.993,156.362,61.917,157.255z"/>
	<path d="M52.479,134.782c-2.427,1.2-3.842,3.354-3.984,6.064c-0.342,6.48,1.665,8.516,1.896,8.727l0.967-1.036
		c-0.018-0.018-1.754-1.802-1.447-7.616c0.146-2.79,1.819-4.188,3.197-4.868c2.194-1.085,5.208-1.048,6.862,0.083l0.8-1.17
		C58.697,133.549,55.133,133.47,52.479,134.782z"/>
	<path d="M47.052,157.417c-1.893,0.946-5.259,3.326-6.539,8.634c-0.435,1.799-0.027,3.639,1.175,5.322
		c2.125,2.973,6.448,5.1,11.282,5.55c4.043,0.376,6.577-1.081,7.992-2.37c1.797-1.638,2.615-3.741,2.615-5.002H62.16
		c0,0.77-0.585,2.525-2.153,3.954c-1.203,1.097-3.378,2.335-6.906,2.006c-4.368-0.406-8.396-2.355-10.261-4.962
		c-0.956-1.338-1.284-2.778-0.949-4.166c1.146-4.75,4.122-6.862,5.795-7.698c2.143-1.072,3.867-3.632,3.939-3.74l-1.18-0.787
		C50.43,154.181,48.855,156.515,47.052,157.417z"/>
	<path d="M37.319,133.361c-1.871,1.272-2.604,3.776-2.491,5.566l0.066,0.935c0.203,2.73,0.543,7.3-1.159,10.704
		c-2.078,4.157-0.838,12.764,1.571,15.914c2.008,2.625,4.851,2.034,6.073,1.355l-0.686-1.24c-0.102,0.055-2.505,1.322-4.262-0.976
		c-1.919-2.509-3.349-10.58-1.43-14.419c1.877-3.754,1.52-8.567,1.306-11.443l-0.065-0.918c-0.09-1.446,0.524-3.39,1.874-4.306
		c1.162-0.79,2.716-0.737,4.617,0.158c5.2,2.447,5.943,4.852,5.95,4.875l1.372-0.355c-0.076-0.307-0.916-3.071-6.719-5.803
		C40.364,132.011,38.424,132.611,37.319,133.361z"/>
	<path d="M34.493,178.551c0,6.687,4.205,11.434,11.25,12.697c2.536,0.455,4.615,0.656,6.449,0.834
		c2.82,0.272,4.857,0.47,6.679,1.429c1.422,0.748,3.443,0.599,5.55-0.41c2.775-1.329,6.065-4.413,6.976-9.081
		c1.385-7.096-2.659-11.745-2.832-11.939l-1.061,0.94c0.038,0.043,3.748,4.343,2.502,10.728c-0.811,4.152-3.732,6.894-6.197,8.075
		c-1.673,0.801-3.271,0.963-4.277,0.434c-2.068-1.089-4.334-1.308-7.202-1.586c-1.808-0.175-3.855-0.373-6.336-0.817
		c-6.313-1.133-10.083-5.358-10.083-11.303c0-6.19,2.853-10.564,2.882-10.607l-1.181-0.786
		C37.484,167.349,34.493,171.912,34.493,178.551z"/>
	<path d="M70.759,184.378l-0.448,1.345c0.364,0.122,8.985,2.903,15.059-3.171l-1.003-1.002
		C78.922,186.995,70.84,184.405,70.759,184.378z"/>
	<path d="M39.367,126.216c-2.996,2.996-3.2,8.096-3.207,8.311l1.416,0.048c0.002-0.048,0.197-4.761,2.793-7.357
		c2.735-2.735,6.658-1.455,7.417-1.171c1.078,0.405,7.138,1.92,9.897-0.644l-0.965-1.039c-2.024,1.88-7.221,0.812-8.435,0.356
		C47.383,124.382,42.717,122.866,39.367,126.216z"/>
	<path d="M26.959,133.551c-4.076,1.483-6.621,7.366-7.126,11.07c-0.477,3.496-1.62,9.156-2.637,12.206
		c-1.104,3.312-1.186,9.28,3.112,12.146l0.786-1.18c-3.612-2.408-3.483-7.73-2.554-10.52c1.042-3.126,2.211-8.902,2.696-12.462
		c0.443-3.255,2.724-8.662,6.206-9.93c3.465-1.261,9.121-0.635,9.178-0.628l0.161-1.408
		C36.537,132.818,30.739,132.176,26.959,133.551z"/>
	<path d="M28.654,155.786c-3.529,2.245-9.726,9.327-8.988,14.858c0.693,5.197,4.243,8.461,4.394,8.598l0.951-1.05
		c-0.033-0.03-3.317-3.067-3.94-7.735c-0.604-4.524,4.622-11.107,8.344-13.476c3.553-2.26,4.194-2.837,4.287-2.93l-0.989-1.015
		C32.688,153.06,32.084,153.604,28.654,155.786z"/>
	<path d="M26.259,176.064c-2.119,0.896-3.904,2.916-4.896,5.54c-1.062,2.808-1.05,5.83,0.033,8.086
		c1.74,3.627,3.735,3.851,5.338,4.03l1.114,0.18l0.907,0.22c1.523,0.346,2.963,0.671,4.351,2.815
		c1.831,2.829,4.342,4.324,7.262,4.324l2.257-0.158c2.41-0.238,5.41-0.534,8.104,0.755l2.163,1.115
		c2.651,1.423,4.94,2.651,10.124,2.787c2.372,0.062,4.048-1.198,4.596-3.46c0.804-3.312-1.032-8.497-4.602-10.22l-0.616,1.275
		c2.858,1.381,4.502,5.888,3.842,8.61c-0.394,1.622-1.464,2.423-3.182,2.378c-4.847-0.127-6.896-1.228-9.491-2.62l-2.222-1.146
		c-3.052-1.46-6.406-1.128-8.855-0.886l-2.117,0.15c-2.45,0-4.493-1.236-6.072-3.676c-1.701-2.629-3.574-3.054-5.226-3.428
		l-0.848-0.205l-1.329-0.221c-1.449-0.163-2.817-0.316-4.219-3.235c-0.918-1.913-0.912-4.52,0.015-6.972
		c0.855-2.263,2.358-3.989,4.123-4.736c4.062-1.719,8.36-0.803,8.403-0.793l0.308-1.384
		C35.329,175.149,30.749,174.164,26.259,176.064z"/>
	<path d="M82.955,199.176c-1.224-0.136-2.031-0.226-2.598,0.089c-0.562,0.312-1.033,0.899-1.578,1.58
		c-1.189,1.483-2.669,3.33-5.744,3.33c-4.365,0-5.928-1.877-5.943-1.896l-1.118,0.87c0.076,0.101,1.938,2.444,7.061,2.444
		c3.756,0,5.618-2.324,6.85-3.861c0.434-0.541,0.843-1.052,1.161-1.229c0.208-0.09,1.063,0.006,1.752,0.082
		c3.2,0.355,9.156,1.018,12.385-6.246l-1.295-0.576C91.08,200.08,86.19,199.536,82.955,199.176z"/>
	<path d="M31.314,121.462l-3.551,1.6c-2.005,0.83-4.079,0.937-5.909,1.03c-2.504,0.128-4.869,0.248-6.379,2.19
		c-2.581,3.317-2.798,11.302-2.644,12.68c0.156,1.412-0.363,4.026-1.293,6.506c-0.598,1.593-0.399,4.179-0.209,6.68
		c0.146,1.898,0.295,3.858,0.021,4.887c-0.469,1.757-0.469,4.26-0.469,6.468l-0.054,3.005c-0.192,3.076,1.775,7.29,5.402,9.017
		c3.731,1.777,6.126,0.893,6.226,0.854l-0.503-1.325c-0.02,0.007-1.976,0.685-5.113-0.809c-3.399-1.619-4.735-5.448-4.598-7.649
		l0.057-3.093c0-2.121,0-4.525,0.421-6.103c0.336-1.261,0.184-3.252,0.023-5.359c-0.171-2.238-0.364-4.775,0.123-6.074
		c1.017-2.711,1.556-5.521,1.374-7.16c-0.166-1.494,0.189-8.869,2.355-11.653c1.111-1.43,2.974-1.525,5.333-1.646
		c1.943-0.1,4.147-0.212,6.378-1.135l3.616-1.63c2.456-1.165,3.938-1.868,5.868-1.654c2.751,0.306,4.891,2.838,5.444,3.945
		l1.268-0.633c-0.688-1.38-3.198-4.349-6.556-4.721C35.616,119.421,33.812,120.276,31.314,121.462z"/>
	<path d="M11.504,179.759c-0.34,1.902,0.375,3.848,2.011,5.479c2.173,2.166,5.676,3.46,8.147,3.011l-0.254-1.395
		c-2.022,0.368-5.05-0.783-6.893-2.62c-0.918-0.915-1.943-2.391-1.615-4.225c0.759-4.255,2.377-5.545,2.394-5.558l-0.841-1.141
		C14.367,173.372,12.377,174.867,11.504,179.759z"/>
	<path d="M79.723,18.195c-1.323,1.213-2.47,3.836-2.47,7.194c0,2.135,0.463,4.567,1.638,7.124c2.906,6.325,8.388,6.869,8.872,6.905
		c5.06,1.488,10.322,0.714,13.433-1.992c2.041-1.776,2.943-4.196,2.54-6.816c-0.523-3.405-2.322-7.66-7.917-8.591
		c-1.803-0.3-5.877-1.882-8.233-3.397C83.54,16.02,81.077,16.954,79.723,18.195z M88.072,38.039l-0.077-0.023l-0.082-0.005
		c-0.208-0.014-5.124-0.407-7.734-6.089c-2.695-5.867-1.294-11.035,0.502-12.682c1.435-1.315,3.5-1.123,6.139,0.574
		c2.312,1.486,6.572,3.237,8.767,3.603c3.819,0.636,6.09,3.128,6.749,7.409c0.331,2.152-0.385,4.065-2.069,5.531
		C97.492,38.769,92.706,39.429,88.072,38.039z"/>
	<path d="M84.335,10.168c-1.802,3.322-0.033,7.792,0.043,7.981l1.314-0.53c-0.016-0.04-1.595-4.048-0.109-6.78
		c0.684-1.256,1.946-2.073,3.755-2.427l-0.271-1.391C86.82,7.461,85.229,8.52,84.335,10.168z"/>
	<path d="M104.675,8.425c0.194,0.009,4.763,0.308,5.825,8.055c0.545,3.971-1.193,6.786-2.748,8.448
		c-2.077,2.223-4.461,3.129-4.898,3.099l-0.346,1.372c0.977,0.279,3.323-0.839,5.23-2.492c1.877-1.628,4.913-5.171,4.166-10.619
		c-1.233-8.99-6.937-9.271-7.18-9.279L104.675,8.425z"/>
	<path d="M75.812,9.386c-0.873,1.229-1.808,3.26-1.308,5.96c0.887,4.792,3.758,6.277,3.88,6.338l0.639-1.265
		c-0.097-0.05-2.375-1.276-3.125-5.331c-0.41-2.213,0.355-3.876,1.069-4.881c0.992-1.397,2.31-2.156,3.175-2.289l-0.216-1.401
		C78.511,6.735,76.896,7.861,75.812,9.386z"/>
	<path d="M77.197,53.822l1.342,0.456c2.783-8.184,6.917-16.154,6.958-16.234L84.24,37.39C84.198,37.47,80.016,45.533,77.197,53.822z
		"/>
	<path d="M77.868,7.55l-26-0.333c0,0,4.5,2.167,6.167,4.167c1.666,2,4.5,2.167,8.5,2.833c4,0.667,7.833,1.5,9,3
		C75.535,17.217,74.035,13.383,77.868,7.55z"/>
	<path d="M77.785,20.384c0,0-0.875,1.875-5.125,2.625c-4.25,0.75-9.375,0.125-11.75-0.125s-5.375,0.125-8.125,1.5
		s-6.125,4.375-6.125,4.375s0.625,0.75,2.25,0.375s6.25-0.625,8.875,0.75s5.125,2.875,11.875,3.125
		c6.75,0.25,9.375-2.375,9.375-2.375s-2.25-4.75-0.125-9.25L77.785,20.384z"/>
	<path d="M111.41,16.009c0,0,4.375-0.875,9.875-0.625s10.875-0.125,14.75-1.5c0,0,0.375,1.25-0.875,1.625s-8.5,4.75-10.5,6.25
		s-9.25,5.875-17.375,4.875C107.285,26.634,111.535,23.134,111.41,16.009z"/>
	<path d="M103.41,31.009c0,0,8.875,3.5,15.5,7.875s9.5,11.625,9.5,11.625s-0.25,0.625-4.875-2c-4.625-2.625-8.625-5.25-12.875-6.125
		s-9.25-3.25-11.25-4.625C99.41,37.759,103.66,35.884,103.41,31.009z"/>
	<path d="M81.785,54.134l2.25-0.084l2,19.084c0,0,9.25-11.5,17.625-15.25c8.375-3.75,17.375-0.25,23.375,6.375
		c0,0,0.125-0.375-0.25-2s-5.125-9.875-16.25-13.375S88.535,49.384,81.785,54.134z"/>
	<path d="M51.41,55.009c0,0,0.25-2-1.375-6.125s-9.5-11.25-22.875-13.125c0,0,8.125-1.625,21.875,0.75s23.5,14.375,24.125,17.875
		L51.41,55.009z"/>
	<path d="M51.41,55.009c0,0-3.75-5-8.5-9.125s-12.625-8.75-21.625-8.625c0,0,4.125,3.5,5,6.375s2.875,9.625,8.25,14.375
		c0,0-6.875-1.75-13.25-1.625s-12.75,0.75-12.75,0.75v0.75c0,0,5.375,1.125,7.875,3.375s9.25,8.375,15.75,12.375
		s14.375,6.375,14.625,7c0,0-1.542-21.042-2.084-25.584L51.41,55.009z"/>
	<path d="M54.91,118.259c0,0-2.875-1.75-6.375-1s-3.625,3.875-3.75,7.25l-1,0.5c0,0-1.625-2.625-4.125-4.125s-5.875,0.125-7,0.75
		c-1.125,0.625-3.5,2.375-6.75,2.75s-7.5,1-7.5,1s-3.875-4.125-5.5-7.625s-3.375-6.875-3.375-6.875l-0.75-1.25
		c0,0,2.375-0.375,3.875,0.25s4.625,1,4.625,1s0.25-0.875-0.375-1.375s-3.625-5.375-4.875-11s-2.375-14.75-2.5-15.5
		s1.125,0.125,1.5,0.75s4.375,4.625,9,6.875s9.5,0.25,17.75,2.25s12,4.75,12,4.75L54.91,118.259z"/>
	<path d="M88.868,85.217c0,0,4.167-4.333,8.667-6.5s14.833-4,23.333-0.167c8.5,3.834,15,5.667,22.5,6c0,0-3.5,1.834-5.833,3.334
		c-2.333,1.5-6.001,5-7.667,5.5c0,0,5.334,2.833,8.167,7.166c2.833,4.334,6.5,8.667,6.5,8.667l0.167,5.167
		c0,0-1.667-1.834-5.667-2.5c-4-0.667-5.5,0.5-5.5,0.5s4.333,1.5,6.5,6.5c2.167,5,2.333,8,2.333,8s-2.833-1.667-4.333-2.167
		s-4.667,0.166-5.5,1c-0.833,0.834-6.167,3-13.5,3.167c-7.333,0.167-16.833-3.501-19-5.667
		C100.035,123.217,92.201,104.384,88.868,85.217z"/>
	<path d="M18.868,187.551c0,0-4,2.834-4.167,9c-0.166,6.166,3.5,14.334,5.5,18s1.5,11.334-1.166,15.5c0,0,3.833-4.501,7.333-6.334
		c3.5-1.833,11.166-3.334,20.333-6.5c9.167-3.166,14.667-10,15.667-12c0,0-6.167-0.666-8.833-2.666c-2.667-2-5-2.166-10.167-2
		s-7.667-1.166-9.667-4s-4.833-3.5-6.666-3.5c-1.834,0-4.334-1.501-5.334-4.334C21.701,188.717,21.868,187.051,18.868,187.551z"/>
	<path d="M65.035,204.634l1.75-1.25c0,0,2.125,1.25,5.875,1.375c3.75,0.125,7.125-4.25,7.125-4.25s1-1,2.125-0.625
		c0,0,3.375,1.5,7-0.375s5.5-5,5.5-5s1.125,0.875,2.375,0.875s27.375-0.5,27.375-0.5s3.875,4.875,4.125,9.875s2.5,12.875,4.5,15.5
		s4.125,4.875,4.125,4.875s0.125,0.875-1,0s-2.875-3-7.375-3.25c-4.5-0.25-7,1.375-10,2.25s-18.75,0.875-26.75-3.25
		c0,0,0.625,2.375,0.25,5.25s0,4.75,0,4.75h-2.25c0,0-1.625-2.875-4.375-4.625S66.91,217.884,65.035,204.634z"/>
</g>
</svg>
