<?xml version="1.0" encoding="iso-8859-1"?>
<!-- Generator: Adobe Illustrator 19.1.0, SVG Export Plug-In . SVG Version: 6.00 Build 0)  -->
<svg version="1.1" id="&#xB808;&#xC774;&#xC5B4;_1" xmlns="http://www.w3.org/2000/svg" xmlns:xlink="http://www.w3.org/1999/xlink"
	 x="0px" y="0px" viewBox="0 0 153.07 238.11" style="enable-background:new 0 0 153.07 238.11;" xml:space="preserve">
<rect style="fill:#E60012;" width="153.07" height="238.11"/>
<g>
	<path style="fill:#FFFFFF;" d="M7.451,15.888l-0.166,85.5l8.833,17.333l6,5.834l75.167,87.167l30.167,19.333h9.833
		c0,0,9-1.833,8.5-10.333l0.167-71.667l-0.167-133.834c0,0-1.333-7.667-10-8.167l-116-0.167C19.785,6.888,8.451,5.722,7.451,15.888z
		"/>
	<path style="fill:#E60012;" d="M63.951,28.055l-44.166,1c0,0-1.834,47.167,10.666,86.833c3.451,10.95,0.334,30,0.334,30l14.333,33
		l27.167,22.167l32.667-7.667l1.333-4.166l2.833-3l-16-45.167l-17.833-62.5l-10-3.833C65.285,74.721,62.118,40.388,63.951,28.055z"
		/>
	<path style="fill:#FDD000;" d="M7.451,89.055l-0.166,12.334l3.5,7.333l3.166,0.167l0.334-5.834c0,0,1.5-4.166,0.333-10
		C13.451,87.221,8.618,86.221,7.451,89.055z"/>
	<path style="fill:#FDD000;" d="M92.618,51.221c0,0-1.5-2.5-1.833-6.5s1.333-9.5,3-11s5-0.5,6,1.667c0,0,0.667,9.167-2.833,13
		s-3.167,6.5-3.167,6.5L92.618,51.221z"/>
	<path style="fill:#FDD000;" d="M134.618,181.055c0,0-3.166-2.166-7.166,0.667c-4,2.833-5.166,7.499-5.5,8.666
		c-0.334,1.167-1.5,4.667-1.5,4.667l4.166,2l3.834-2.833l0.5-2.334c0,0,4.5-3,5.5-5.5S134.951,182.222,134.618,181.055z"/>
	<path d="M17.206,6.346c-5.861,0-10.63,4.769-10.63,10.63v204.158c0,5.861,4.769,10.63,10.63,10.63h118.658
		c5.861,0,10.63-4.769,10.63-10.63V16.976c0-5.861-4.768-10.63-10.63-10.63H17.206z M7.993,221.134V16.976
		c0-5.08,4.133-9.213,9.213-9.213h118.658c5.08,0,9.212,4.133,9.212,9.213v204.158c0,5.08-4.132,9.212-9.212,9.212H17.206
		C12.126,230.346,7.993,226.214,7.993,221.134z"/>
	<path d="M64.103,27.346l-45.007,1.015l-0.02,0.673c-1.553,54.374,11.436,95.189,22.605,119.854
		c12.115,26.75,24.787,40.837,24.913,40.976l0.224,0.245l41.633-1.734l-0.754-1.063C56.456,115.049,64.733,28.989,64.823,28.128
		l0.083-0.8L64.103,27.346z M63.345,28.781c-0.146,1.801-0.482,6.716-0.482,14.083c0,27.807,4.853,89.741,42.968,144.203
		c-2.34,0.097-37.758,1.572-38.403,1.6c-3.398-3.922-47.061-56.245-47.061-150.729c0-2.693,0.045-5.428,0.117-8.19
		C21.783,29.718,61.845,28.815,63.345,28.781z"/>
	<path d="M86.785,178.18c-1.75-0.375-5.125-0.375-8.25-3.25s-3.625-4.75-7.375-14.625c-0.61-1.606-1.233-3.524-1.852-5.614
		c3.288-0.841,5.931-2.59,6.352-3.011c0.5-0.5,1.875-1.375,0.875-1.875s-4.5-2.125-5.625-1.375
		c-0.714,0.476-1.381,1.254-2.793,2.015c-1.048-3.915-2.046-8.098-2.905-11.88c2.192-4.627,4.937-10.237,5.198-10.76
		c0.375-0.75-1.125-1.125-2.625-1.25s-1.75,0.25-2.75,0.625c-0.31,0.116-1.14,0.426-2.134,0.797
		c-0.167-0.783-0.293-1.362-0.366-1.672c-0.625-2.625-2.5-11.251-2.875-13.251s-1.5-2.75-3.375-3
		c-1.413-0.188-3.889-0.589-5.024-0.776c1.81-2.452,3.781-5.358,4.89-7.015c0.178-0.238,0.343-0.483,0.491-0.738
		c0.246-0.371,0.393-0.596,0.393-0.596s-0.033,0.015-0.084,0.039c1.381-2.867,1.069-6.444-0.416-8.164
		c-2.375-2.75-6.75-2.5-8.75-2.125c-0.804,0.15-1.601,0.583-2.089,0.991c1.768-3.18,4.949-5.823,6.339-6.866
		c1.5-1.125,3.375-2.625,3.375-3.375s-1.25-1.75-2.125-1.5s-2.875,1.125-2.875,1.125c0-0.625-0.625-1.625-2.625-0.625
		s-7.5,3.125-8.25,3.25s-2.125,0.125-0.625-2s6.25-7,6.875-7.75s4.75-5,3.5-8.875s-5.334-4.666-6-5c-0.667-0.333,0-1.167,1.5-1.667
		s5-2.333,6.333-2.333c1.334,0,1.167-1.333,0.167-1.833s-4.834-1.333-4.834-1.333s-2.666,0.667-3.5,1c-0.833,0.333-1-2-1-3.667
		s0.334-3.333,0.167-4.167c-0.166-0.833-1.667-2-3.5-2.833s-2.333-0.5-2.333-0.5s1.333,4,2,5.667c0.666,1.667,0.5,6.833,0.5,6.833
		s-3,1.333-4.875,1.583s-3.5-0.25-4.375-0.25S28.16,56.68,28.91,57.43s3,2.375,5.375,2.25s6.25-1,6.25-1s-6.5,6.125-5.75,11.375
		s6.25,5.375,6.25,5.375s-1.875,2.875-2.75,4.5s-3,3.125-2.625,4.625s2.625,3.25,5.5,3.125s6.125-2,6.125-2
		c-2.75,1.625-7.375,7.875-6.5,13.25c0.677,4.157,4.575,6.763,9.279,6.35c0.748,0.488,0.181,1.161-0.404,3.15
		c-0.625,2.125-7.5,11.5-8,12.875s-0.5,1.375,0.25,1.876c0.75,0.5,2.5,1.5,2.375,2.125s-2.125,3.75-2.875,4.875s-1,2,0.125,2.875
		s2,1.25,3.125,3.125s0.875,5.5,2.25,8.625s3.125,4.875,5.5,3.625s4.5-5.125,4.75-6.75s1.125-6.125,1.125-6.875
		s-0.625-1.625-1.125-0.625s-3.375,6.125-4.125,7.375s-1.625,1.625-2.25,1.75s-1.5-2-1.5-3.75s-0.125-3.375-1.375-4.75
		s-3-1.875-4.125-2.125s-2.5-0.625-1.5-2s3.125-3.375,5.25-5s4.125-3.626,4-4.001s-1-1.875-1.875-1.625s-3.125,0.375-4.25,0.75
		s-1.5-0.5-1.125-1.125s2.25-4.5,5.125-8c0.272-0.331,0.565-0.704,0.864-1.093c0.65,0.091,2.016,0.447,2.761,1.843
		c0.836,1.567,3.681,10.995,5.468,17.186c-0.511,0.19-0.843,0.314-0.843,0.314c-1.125,0.625-0.75,1.75,1.75,2.875
		c0.473,1.693,1.517,4.99,2.783,8.878c-0.096,0.214-0.191,0.424-0.283,0.622c-1.625,3.5-3.75,7.625-2.375,10
		c1.286,2.222,3.467,3.114,7.117,2.814c1.461,4.343,2.738,8.091,3.383,9.936c1.875,5.375,3.875,11.5,9.375,13.875
		s8.25,0.5,8.75,0.25S88.535,178.555,86.785,178.18z M37.535,66.93c0.25-4.625,4-4.875,4-4.875s4.125-0.375,4.375,3.75
		c0.257,4.244-2.25,5.5-3.75,5.75S37.285,71.555,37.535,66.93z M49.035,100.43c-4.375,0-5.5-4.25-3.75-8
		c0-0.001,0.001-0.002,0.001-0.003c0.141,0.128,0.554,0.127,1.374-0.122c2.875-0.875,6,0.625,6.375,2.625
		S53.41,100.43,49.035,100.43z M63.93,132.776c0.241-0.121,0.452-0.244,0.605-0.346c0.75-0.5,1.375-0.625,1.375-0.25
		c0,0.181-0.554,1.73-1.307,3.673C64.362,134.765,64.137,133.736,63.93,132.776z M64.785,151.68c-4,1-3.75-0.375-3.75-1.375
		c0-0.986,0.249-2.955,1.816-6.609c0.828,2.521,1.718,5.203,2.588,7.808C65.23,151.564,65.014,151.623,64.785,151.68z"/>
	<path d="M93.645,33.484c-1.659,1.227-2.745,3.686-3.229,7.31c-1.035,7.758,1.43,10.323,1.535,10.428l0.231,0.23l0.325-0.025
		c0.196-0.015,4.834-0.456,7.285-7.987c0.653-2.008,0.98-3.764,0.98-5.256c0-1.377-0.278-2.529-0.835-3.447
		c-0.906-1.493-2.291-1.924-3.036-2.048C96.237,32.578,94.931,32.534,93.645,33.484z M91.58,44.369c0-0.98,0.069-2.104,0.24-3.387
		c0.425-3.184,1.347-5.382,2.667-6.358c0.822-0.608,1.64-0.627,2.182-0.537v0c0.616,0.103,1.475,0.427,2.057,1.386
		c0.337,0.555,0.627,1.414,0.627,2.721c0,1.192-0.241,2.757-0.908,4.808c-1.792,5.505-4.697,6.685-5.69,6.935
		C92.369,49.326,91.58,47.67,91.58,44.369z M96.901,32.689L96.901,32.689L96.901,32.689L96.901,32.689z"/>
	<path d="M131.595,179.621c-1.379,0.1-4.125,0.769-7.015,4.141c-4.179,4.875-3.199,9.894-3.156,10.105l0.06,0.285l0.241,0.161
		c1.517,1.012,5.65,0.006,9.684-3.381c3.194-2.684,4.351-5.96,4.372-7.951c0.011-1.089-0.295-1.962-0.861-2.458
		C134.154,179.853,132.943,179.524,131.595,179.621z M122.709,192.262c0-1.655,0.421-4.631,2.947-7.579
		c2.555-2.98,4.881-3.565,6.04-3.648c1.129-0.081,1.923,0.233,2.289,0.554c0.188,0.164,0.385,0.612,0.377,1.377
		c-0.017,1.69-1.04,4.507-3.866,6.88c-3.739,3.142-6.805,3.627-7.74,3.335C122.731,192.956,122.709,192.645,122.709,192.262z"/>
	<path d="M6.807,88.928l1.285,0.596c0.027-0.056,0.699-1.363,2.943-1.099c2.367,0.279,3.208,4.913,3.208,8.796
		c0,4.069-1.475,8.856-2.192,9.825c-0.782-0.483-2.945-2.252-4.072-7.637L6.591,99.7c1.564,7.472,5.142,8.804,5.293,8.857
		l0.114,0.039h0.12c2.046,0,3.542-7.982,3.542-11.375c0-2.91-0.434-9.73-4.459-10.204C7.892,86.628,6.85,88.833,6.807,88.928z"/>
	<path d="M65.451,73.555c0,0,10.833-20.5,25.667-27.5c0,0-0.166,4.167,1.334,4.667s4.666-2.833,5.666-5.167
		c0,0,8.167,12,13.167,38.75s0.75,84-2,106.5c0,0,6.166-2.251,13.333-2.917c0,0-1,4.166-0.5,5.5s6.001-0.666,7.334-1.666
		c0,0,2.334,16.999-0.5,39.166H16.451c0,0-9.667-1.5-9.5-9.333l0.5-118.334l0.334-1.167c0,0,3,5.667,4.333,5.834
		c1.333,0.166,2.333-5.667,2.333-5.667s7.001,3.5,15.167,11.333c0,0,5,19.834,12.5,35.168s18.334,34.832,25,40.666l40-1.666
		l-1.166-2c0,0-13.333-19.334-20.167-36.167S68.118,106.721,65.451,73.555z"/>
	<path d="M64.484,68.521c-0.294,0.258-0.324,0.705-0.066,1l2.334,2.666c0.258,0.295,0.705,0.324,1,0.066
		c0.294-0.258,0.324-0.705,0.066-1l-2.334-2.666C65.227,68.293,64.779,68.264,64.484,68.521z"/>
	<path d="M64.297,59.256c-0.349,0.178-0.487,0.604-0.311,0.953l5,9.833c0.178,0.349,0.604,0.488,0.953,0.311
		c0.349-0.178,0.488-0.604,0.311-0.953l-5-9.833C65.072,59.218,64.646,59.079,64.297,59.256z"/>
	<path d="M67.026,54.729c-0.364,0.142-0.544,0.553-0.401,0.918l4.5,11.5c0.143,0.364,0.554,0.545,0.918,0.401
		c0.364-0.143,0.545-0.553,0.402-0.918l-4.5-11.5C67.802,54.766,67.392,54.585,67.026,54.729z"/>
	<path d="M69.327,52.075c-0.356,0.16-0.516,0.58-0.354,0.937l4.5,10c0.16,0.357,0.58,0.516,0.936,0.355
		c0.358-0.16,0.516-0.58,0.356-0.937l-4.5-10C70.104,52.073,69.685,51.915,69.327,52.075z"/>
	<path d="M71.873,49.056c-0.367,0.135-0.555,0.543-0.42,0.91l4.667,12.667c0.135,0.367,0.543,0.555,0.91,0.42
		c0.367-0.135,0.555-0.543,0.42-0.91l-4.667-12.667C72.648,49.109,72.24,48.921,71.873,49.056z"/>
	<path d="M74.361,46.228c-0.364,0.142-0.545,0.553-0.403,0.917l4.666,12c0.143,0.365,0.553,0.545,0.918,0.404
		c0.364-0.142,0.545-0.553,0.403-0.918l-4.666-12C75.137,46.267,74.727,46.086,74.361,46.228z"/>
	<path d="M77.578,45.043c-0.375,0.114-0.585,0.511-0.471,0.885l3.667,12c0.114,0.375,0.511,0.585,0.885,0.471
		c0.374-0.114,0.585-0.511,0.471-0.885l-3.667-12C78.349,45.14,77.952,44.929,77.578,45.043z"/>
	<path d="M80.072,42.379c-0.374,0.118-0.581,0.516-0.463,0.889l3.833,12.167c0.117,0.374,0.516,0.581,0.889,0.463
		c0.373-0.118,0.581-0.516,0.463-0.889l-3.833-12.166C80.844,42.468,80.445,42.261,80.072,42.379z"/>
	<path d="M83.918,40.208c-0.375,0.11-0.59,0.504-0.479,0.88l3.334,11.333c0.11,0.376,0.504,0.59,0.88,0.48
		c0.375-0.11,0.59-0.504,0.479-0.88l-3.334-11.333C84.688,40.312,84.294,40.098,83.918,40.208z"/>
	<path d="M86.248,37.542c-0.374,0.112-0.587,0.507-0.475,0.882l3.5,11.667c0.112,0.375,0.508,0.587,0.883,0.475
		c0.374-0.112,0.587-0.507,0.475-0.882l-3.5-11.667C87.019,37.643,86.623,37.43,86.248,37.542z"/>
	<path d="M103.371,40.483l-6.5,9.333c-0.225,0.321-0.145,0.762,0.176,0.986c0.321,0.224,0.763,0.145,0.986-0.177l6.5-9.333
		c0.225-0.321,0.145-0.762-0.176-0.986C104.036,40.083,103.595,40.162,103.371,40.483z"/>
	<path d="M105.968,44.538l-8,7.5c-0.286,0.268-0.301,0.716-0.032,1.002c0.268,0.285,0.716,0.3,1.001,0.032l8-7.5
		c0.286-0.268,0.301-0.716,0.032-1.002C106.701,44.285,106.253,44.27,105.968,44.538z"/>
	<path d="M108.15,47.022l-9.666,8.5c-0.294,0.258-0.323,0.706-0.064,1c0.259,0.294,0.706,0.323,1,0.064l9.666-8.5
		c0.294-0.258,0.323-0.706,0.064-1C108.892,46.793,108.444,46.764,108.15,47.022z"/>
	<path d="M109.97,50.036l-9.667,9c-0.287,0.267-0.303,0.715-0.036,1.001c0.267,0.287,0.715,0.302,1.001,0.036l9.667-9
		c0.287-0.267,0.303-0.715,0.036-1.001C110.704,49.785,110.256,49.77,109.97,50.036z"/>
	<path d="M111.483,54.19l-8.5,7.5c-0.294,0.259-0.321,0.707-0.062,1c0.259,0.293,0.707,0.322,1,0.062l8.5-7.5
		c0.294-0.259,0.321-0.707,0.062-1C112.225,53.959,111.776,53.931,111.483,54.19z"/>
	<path d="M113.32,57.186l-8.833,7.667c-0.295,0.256-0.327,0.704-0.07,1c0.257,0.296,0.704,0.327,1,0.071l8.833-7.667
		c0.295-0.256,0.327-0.704,0.07-0.999C114.063,56.961,113.616,56.93,113.32,57.186z"/>
	<path d="M114.824,61.016l-10.333,8.834c-0.297,0.254-0.332,0.702-0.078,0.999c0.255,0.297,0.702,0.332,1,0.078l10.333-8.833
		c0.297-0.254,0.332-0.702,0.078-0.999C115.569,60.797,115.122,60.762,114.824,61.016z"/>
	<path d="M116.663,65.678l-10.333,8.667c-0.3,0.251-0.34,0.698-0.088,0.998c0.252,0.3,0.698,0.339,0.998,0.087l10.333-8.667
		c0.3-0.252,0.339-0.698,0.088-0.998C117.409,65.466,116.963,65.427,116.663,65.678z"/>
	<path d="M116.981,69.358l-10.334,9.166c-0.292,0.26-0.319,0.707-0.06,1c0.26,0.293,0.708,0.32,1.001,0.06l10.334-9.167
		c0.292-0.26,0.319-0.707,0.06-1S117.274,69.099,116.981,69.358z"/>
	<path d="M118.154,74.186l-10,8.667c-0.296,0.256-0.328,0.704-0.071,1c0.256,0.295,0.703,0.328,0.999,0.071l10-8.667
		c0.296-0.256,0.328-0.704,0.071-1C118.897,73.961,118.45,73.929,118.154,74.186z"/>
	<path d="M119.495,79.347l-11.834,10c-0.3,0.253-0.337,0.7-0.084,0.999c0.252,0.299,0.699,0.337,0.998,0.084l11.834-10
		c0.3-0.253,0.337-0.7,0.084-0.999C120.241,79.132,119.794,79.094,119.495,79.347z"/>
	<path d="M120.655,83.685l-10.833,9.333c-0.296,0.256-0.329,0.703-0.074,0.999c0.256,0.297,0.703,0.33,1,0.075l10.833-9.334
		c0.296-0.255,0.329-0.703,0.074-0.999C121.399,83.462,120.952,83.429,120.655,83.685z"/>
	<path d="M121.153,87.02L108.32,98.187c-0.296,0.257-0.326,0.705-0.069,1c0.257,0.295,0.704,0.326,0.999,0.069l12.833-11.167
		c0.296-0.257,0.326-0.705,0.069-1C121.896,86.794,121.448,86.763,121.153,87.02z"/>
	<path d="M121.335,92.174l-11.333,9.334c-0.303,0.248-0.346,0.695-0.097,0.997c0.249,0.302,0.695,0.345,0.997,0.096l11.333-9.334
		c0.303-0.248,0.346-0.695,0.097-0.997C122.083,91.969,121.637,91.925,121.335,92.174z"/>
	<path d="M121.472,97.368l-10.834,10c-0.288,0.265-0.306,0.713-0.04,1.001c0.266,0.288,0.714,0.306,1.001,0.04l10.834-10
		c0.288-0.266,0.306-0.714,0.04-1.001C122.207,97.12,121.759,97.102,121.472,97.368z"/>
	<path d="M122.198,102.317l-12,8.833c-0.315,0.232-0.383,0.676-0.15,0.991c0.231,0.315,0.675,0.383,0.99,0.151l12-8.833
		c0.315-0.232,0.383-0.676,0.15-0.991C122.957,102.153,122.514,102.085,122.198,102.317z"/>
	<path d="M122.671,107.672l-13.5,11c-0.304,0.247-0.35,0.693-0.103,0.997c0.248,0.303,0.694,0.349,0.997,0.102l13.5-11
		c0.304-0.247,0.35-0.693,0.103-0.997C123.42,107.47,122.974,107.425,122.671,107.672z"/>
	<path d="M122.336,113.507l-13,10.667c-0.303,0.248-0.347,0.695-0.099,0.997c0.248,0.303,0.694,0.347,0.997,0.099l13-10.667
		c0.303-0.248,0.347-0.695,0.099-0.998C123.085,113.303,122.639,113.259,122.336,113.507z"/>
	<path d="M122.34,118.503l-12.167,9.834c-0.305,0.246-0.352,0.692-0.105,0.996c0.245,0.305,0.691,0.352,0.996,0.105l12.167-9.833
		c0.305-0.246,0.352-0.692,0.105-0.997C123.09,118.305,122.644,118.257,122.34,118.503z"/>
	<path d="M122.296,123.709l-11.167,10.666c-0.283,0.27-0.294,0.719-0.023,1.002c0.271,0.283,0.719,0.294,1.002,0.023l11.167-10.666
		c0.283-0.271,0.294-0.719,0.023-1.002C123.027,123.45,122.579,123.439,122.296,123.709z"/>
	<path d="M122.671,129.005l-14.333,11.667c-0.304,0.247-0.35,0.693-0.103,0.997s0.693,0.35,0.997,0.103l14.333-11.667
		c0.304-0.247,0.35-0.693,0.103-0.997C123.421,128.804,122.975,128.758,122.671,129.005z"/>
	<path d="M122.663,134.679l-13.333,11.166c-0.3,0.251-0.34,0.698-0.088,0.998c0.251,0.3,0.698,0.34,0.998,0.088l13.333-11.166
		c0.3-0.251,0.34-0.698,0.088-0.998C123.41,134.467,122.963,134.427,122.663,134.679z"/>
	<path d="M121.787,142.051l-12.833,12.667c-0.278,0.274-0.281,0.724-0.006,1.002c0.274,0.278,0.723,0.281,1.002,0.006l12.833-12.667
		c0.278-0.274,0.281-0.723,0.006-1.002C122.515,141.779,122.066,141.776,121.787,142.051z"/>
	<path d="M122.822,147.352l-14.667,12.667c-0.297,0.256-0.329,0.703-0.073,0.999c0.256,0.297,0.703,0.329,0.999,0.073l14.667-12.667
		c0.297-0.256,0.329-0.703,0.073-0.999C123.565,147.128,123.118,147.096,122.822,147.352z"/>
	<path d="M121.506,153.504l-13.167,10.667c-0.304,0.246-0.351,0.692-0.104,0.997c0.246,0.304,0.692,0.351,0.997,0.104l13.167-10.667
		c0.304-0.246,0.351-0.692,0.104-0.997C122.257,153.305,121.81,153.258,121.506,153.504z"/>
	<path d="M120.131,159.208l-12.5,11.833c-0.284,0.27-0.297,0.718-0.027,1.002c0.269,0.284,0.718,0.297,1.002,0.027l12.5-11.833
		c0.284-0.27,0.297-0.718,0.027-1.002C120.863,158.951,120.415,158.938,120.131,159.208z"/>
	<path d="M119.454,165.717l-12.167,12c-0.278,0.275-0.281,0.724-0.007,1.003c0.275,0.278,0.724,0.281,1.003,0.007l12.167-12
		c0.278-0.275,0.281-0.724,0.007-1.003C120.182,165.446,119.733,165.443,119.454,165.717z"/>
	<path d="M120.641,170.199l-13.166,12c-0.289,0.264-0.31,0.712-0.046,1.001c0.264,0.289,0.712,0.309,1.001,0.046l13.166-12
		c0.289-0.264,0.31-0.712,0.046-1.001C121.378,169.956,120.93,169.935,120.641,170.199z"/>
	<path d="M119.656,176.685l-13.166,11.333c-0.297,0.256-0.33,0.703-0.075,0.999c0.255,0.297,0.703,0.33,0.999,0.075
		c0,0,10.656-9.173,12.247-10.542c0.384,1.919,2.096,10.477,2.096,10.477c0.077,0.384,0.45,0.633,0.834,0.557
		c0.384-0.077,0.633-0.45,0.557-0.834l-2.572-12.855L119.656,176.685z"/>
	<path d="M121.438,180.235l-11.834,12.5c-0.27,0.284-0.257,0.732,0.027,1.002c0.284,0.27,0.732,0.257,1.002-0.027l11.834-12.5
		c0.27-0.284,0.257-0.732-0.027-1.002C122.155,179.938,121.707,179.951,121.438,180.235z"/>
	<path d="M124.076,181.431l-7.166,8.5c-0.252,0.3-0.214,0.746,0.085,0.999c0.3,0.252,0.746,0.214,0.999-0.085l7.166-8.5
		c0.252-0.3,0.214-0.746-0.085-0.999C124.775,181.094,124.329,181.132,124.076,181.431z"/>
	<path d="M112.555,180.385c-0.37,0.127-0.567,0.53-0.439,0.9l3.667,10.667c0.127,0.37,0.53,0.567,0.9,0.439
		c0.37-0.127,0.567-0.53,0.439-0.9l-3.667-10.667C113.328,180.455,112.925,180.258,112.555,180.385z"/>
	<path d="M109.617,183.263c-0.345,0.186-0.475,0.614-0.29,0.96l5,9.334c0.186,0.345,0.614,0.475,0.96,0.29
		c0.345-0.186,0.475-0.614,0.29-0.96l-5-9.334C110.392,183.208,109.963,183.079,109.617,183.263z"/>
	<path d="M116.111,177.869c-0.38,0.096-0.609,0.481-0.513,0.86l2.833,11.167c0.096,0.38,0.481,0.609,0.86,0.513
		c0.38-0.096,0.609-0.481,0.513-0.86l-2.833-11.167C116.876,178.001,116.49,177.772,116.111,177.869z"/>
	<path d="M135.022,188.992l-7,5.333c-0.312,0.237-0.371,0.682-0.134,0.993c0.237,0.311,0.682,0.371,0.993,0.134l7-5.333
		c0.312-0.237,0.371-0.682,0.134-0.993C135.778,188.814,135.334,188.754,135.022,188.992z"/>
	<path d="M135.322,193.352l-7.333,6.334c-0.297,0.256-0.329,0.703-0.073,0.999c0.256,0.297,0.703,0.329,0.999,0.073l7.333-6.334
		c0.297-0.256,0.329-0.703,0.073-0.999C136.065,193.128,135.618,193.096,135.322,193.352z"/>
	<path d="M136.518,196.996l-9,7c-0.309,0.24-0.365,0.686-0.125,0.995c0.24,0.309,0.686,0.364,0.994,0.124l9-7
		c0.31-0.24,0.365-0.686,0.125-0.995C137.271,196.811,136.826,196.755,136.518,196.996z"/>
	<path d="M136.676,202.834l-8.333,6.667c-0.306,0.245-0.355,0.69-0.111,0.996c0.245,0.306,0.69,0.355,0.996,0.111l8.333-6.667
		c0.306-0.245,0.355-0.69,0.111-0.996C137.427,202.64,136.981,202.59,136.676,202.834z"/>
	<path d="M136.323,208.351l-9.5,8.167c-0.297,0.255-0.33,0.702-0.075,0.999c0.255,0.297,0.702,0.33,0.999,0.075l9.5-8.167
		c0.297-0.255,0.33-0.702,0.075-0.999C137.067,208.129,136.62,208.096,136.323,208.351z"/>
	<path d="M136.528,214.154l-10.5,7.833c-0.313,0.234-0.378,0.679-0.145,0.992c0.234,0.314,0.679,0.378,0.992,0.145l10.5-7.833
		c0.313-0.234,0.378-0.679,0.145-0.992C137.286,213.985,136.842,213.921,136.528,214.154z"/>
	<path d="M135.798,219.374l-9.333,8.834c-0.284,0.27-0.297,0.718-0.027,1.002c0.269,0.284,0.718,0.297,1.002,0.027l9.333-8.834
		c0.284-0.27,0.297-0.718,0.027-1.002C136.531,219.117,136.082,219.104,135.798,219.374z"/>
	<path d="M134.469,225.704l-5,4.666c-0.286,0.268-0.302,0.716-0.035,1.002c0.267,0.286,0.716,0.302,1.002,0.035l5-4.666
		c0.286-0.268,0.302-0.716,0.035-1.002C135.203,225.453,134.755,225.437,134.469,225.704z"/>
	<path d="M18.76,94.772l-4.5,10.375c-0.155,0.359,0.01,0.775,0.368,0.933c0.359,0.155,0.775-0.01,0.932-0.368l4.5-10.375
		c0.156-0.359-0.009-0.775-0.367-0.932C19.333,94.249,18.917,94.414,18.76,94.772z"/>
	<path d="M21.124,96.798l-4.375,11.25c-0.142,0.365,0.039,0.775,0.404,0.917c0.364,0.142,0.775-0.039,0.917-0.404l4.375-11.25
		c0.142-0.365-0.039-0.775-0.403-0.918C21.677,96.252,21.267,96.433,21.124,96.798z"/>
	<path d="M24.922,99.7l-6,10.375c-0.196,0.339-0.08,0.772,0.258,0.968c0.339,0.196,0.772,0.08,0.969-0.258l6-10.375
		c0.196-0.339,0.08-0.772-0.259-0.968C25.551,99.245,25.117,99.361,24.922,99.7z"/>
	<path d="M26.572,105.284l-4.375,6.5c-0.219,0.325-0.133,0.765,0.192,0.983c0.324,0.219,0.765,0.132,0.983-0.192l4.375-6.5
		c0.219-0.325,0.132-0.765-0.192-0.983C27.23,104.873,26.791,104.959,26.572,105.284z"/>
</g>
</svg>
