<?xml version="1.0" encoding="iso-8859-1"?>
<!-- Generator: Adobe Illustrator 19.1.0, SVG Export Plug-In . SVG Version: 6.00 Build 0)  -->
<svg version="1.1" id="&#xB808;&#xC774;&#xC5B4;_1" xmlns="http://www.w3.org/2000/svg" xmlns:xlink="http://www.w3.org/1999/xlink"
	 x="0px" y="0px" viewBox="0 0 153.071 238.111" style="enable-background:new 0 0 153.071 238.111;" xml:space="preserve">
<rect style="fill:#E60012;" width="153.071" height="238.111"/>
<g>
	<path style="fill:#FFFFFF;" d="M7.535,15.305l0.167,205.833c0,0,0.167,9.166,10.5,9.5l119.001,0.166c0,0,8-2.498,8.333-9.832
		l0.167-205.167c0,0-1.334-7.833-9.167-8.5L16.702,7.139C16.702,7.139,9.535,7.139,7.535,15.305z"/>
	<path style="fill:#E60012;" d="M96.286,29.93L56.91,30.055c0,0,0.458,18.083-0.875,31.083s-7.167,44-12.667,57.167
		s-14.5,40.165-27.167,55.333l44.167,0.834c0,0,15.167-23.834,23.833-53C92.869,92.305,97.703,60.472,96.286,29.93z"/>
	<g>
		<path d="M121.536,213.472c0,0-6.167-0.5-5.167-6.668c1-6.166,5.334-8.666,5.334-8.666s4.666,3.168,4.666,8.834
			S123.036,213.638,121.536,213.472z"/>
		<path d="M105.703,199.972c0,0,3.365-4.811-3.334-9.834c-4-3-11.333-3.334-11.333-3.334s0.667,7,5,10.834
			S103.87,200.972,105.703,199.972z"/>
		<path d="M101.703,220.138c0,0,0.486-4.465-7-6.666c-5.667-1.668-10.834,0-10.834,0s1.501,7.5,8.834,9
			C100.036,223.972,101.37,221.638,101.703,220.138z"/>
		<path d="M111.203,224.138c0,0-3.667-1.334-8.667,0s-5.667,6.334-5.667,6.334l10.5,0.5
			C107.369,230.972,111.203,229.97,111.203,224.138z"/>
		<path d="M70.202,189.472c0,0-3.667-3.834-9-1.5c-5.333,2.332-7.167,8-7.167,8s3.833,1.832,10.166,0.166
			C70.535,194.472,70.535,191.638,70.202,189.472z"/>
		<path d="M125.869,177.804c0,0,2.834-4-1.166-9.166c-4-5.166-9.667-5.834-9.667-5.834s-1.333,5.334,0.667,9.834
			S121.035,179.138,125.869,177.804z"/>
		<path d="M96.703,167.972c0,0-6.167,0.998-8.167-4.334c-2-5.334-1.334-9.834-1.334-9.834s6.667,3.334,8.834,4.834
			S100.87,166.472,96.703,167.972z"/>
		<path d="M78.869,165.638c0,0,3.19-2.273,0.833-8.166c-1.666-4.168-6.5-6.834-6.5-6.834l-3,5.666c0,0-0.333,4.334,2,7
			C74.535,165.972,77.536,166.304,78.869,165.638z"/>
		<path d="M109.536,148.138c0,0-0.167-6.166-6.5-7.666s-11.333,0-11.333,0s1.666,6,7.666,8.832
			C105.369,152.138,108.369,150.638,109.536,148.138z"/>
		<path d="M127.369,142.804c0,0-2.333-4.832,2.167-8.499c4.5-3.667,9.5-4.5,9.5-4.5s0.833,5.833-1.167,9.667
			C135.869,143.304,130.202,146.638,127.369,142.804z"/>
		<path d="M122.369,118.638c0,0-1.166-5.833,6.667-7.833s11.333,0.5,11.333,0.5s-3,6.5-8.5,8.5
			C126.369,121.805,123.035,119.971,122.369,118.638z"/>
		<path d="M88.369,106.805c0,0,2.5-0.334,5.667,2.333s2.667,7,2.667,7s-1.833,2.333-5.5,1.833c-3.667-0.5-5.001-3.5-5.001-3.5
			L88.369,106.805z"/>
		<path d="M118.036,100.972c0,0-4.334-5.333,0.833-10.333s10.5-5.5,11.167-5.333c0.667,0.166,0.833,6.499-2,10.666
			C125.203,100.139,120.869,102.805,118.036,100.972z"/>
		<path d="M101.203,95.305c0,0,1.666-4.501-0.834-8.334s-7.333-4.666-7.333-4.666l-1.333,8.333
			C91.703,90.639,92.37,95.472,101.203,95.305z"/>
	</g>
	<path d="M105.578,86.836c1.599,36.541,14.346,83.947,39.221,107.484l0.975-1.029c-24.587-23.266-37.193-70.262-38.779-106.516
		c-1.723-39.375,7.61-64.718,7.705-64.97l-1.326-0.499C113.277,21.56,103.841,47.15,105.578,86.836z"/>
	<path d="M104.142,199.406c0.131,0.168,13.144,17.072,17.718,31.611l1.352-0.426c-4.651-14.783-17.816-31.883-17.948-32.053
		L104.142,199.406z"/>
	<path d="M94.871,204.994c0.111,0.027,11.169,2.682,16.712,5.127l0.572-1.297c-5.661-2.498-16.496-5.1-16.954-5.209L94.871,204.994z
		"/>
	<polygon points="119.499,224.88 120.906,225.062 122.407,212.214 120.999,212.062 	"/>
	<path d="M99.814,220.81c0.142,0.047,14.227,4.693,21.453,7.65l0.537-1.313c-7.272-2.975-21.405-7.637-21.547-7.684L99.814,220.81z"
		/>
	<path d="M60.909,174.002c0.525,0.096,52.838,9.799,84.152,37.996l0.949-1.053c-31.617-28.471-84.321-38.242-84.849-38.338
		L60.909,174.002z"/>
	<path d="M77.414,164.978c0,0,7.547,13.764,8.165,14.891c-1.127,0.643-16.896,9.654-16.896,9.654l0.703,1.23l18.104-10.346
		l-8.834-16.111L77.414,164.978z"/>
	<path d="M96.08,167.476c4.015,7.391,10.487,19.494,10.77,20.504l1.374-0.348c-0.338-1.352-9.137-17.592-10.897-20.832
		L96.08,167.476z"/>
	<path d="M124.308,177.072c0.067,0.086,6.757,8.916,9.36,25.674l1.4-0.217c-2.664-17.15-9.356-25.959-9.64-26.324L124.308,177.072z"
		/>
	
		<rect x="106.076" y="151.18" transform="matrix(-0.8584 -0.5129 0.5129 -0.8584 134.0165 340.7663)" width="15.92" height="1.417"/>
	<path d="M121.2,157.238l1.338,0.469c2.282-6.521,7.06-14.627,7.107-14.707l-1.219-0.723
		C128.377,142.359,123.529,150.582,121.2,157.238z"/>
	
		<rect x="116.994" y="115.532" transform="matrix(-0.6326 -0.7745 0.7745 -0.6326 97.1789 291.3771)" width="1.417" height="14.213"/>
	<path d="M94.566,115.67c0.479,0.423,11.783,10.417,17.605,13.91l0.729-1.215c-5.71-3.427-17.278-13.654-17.395-13.756
		L94.566,115.67z"/>
	<path d="M108.586,111.757l0.898,1.097c3.705-3.031,10.038-12.421,10.306-12.819l-1.176-0.791
		C118.55,99.339,112.131,108.857,108.586,111.757z"/>
	<path d="M99.754,93.992c0.032,0.055,3.236,5.603,7.545,11.402l1.139-0.845c-4.258-5.73-7.424-11.209-7.455-11.264L99.754,93.992z"
		/>
	<path d="M106.339,92.168l1.059,0.941c3.92-4.41,7.564-7.57,7.601-7.602l-0.926-1.072C114.036,84.467,110.324,87.685,106.339,92.168
		z"/>
	<path d="M101.265,75.677c1.883,3.06,3.927,6.509,4.088,6.985l1.37-0.363c-0.175-0.697-3.031-5.383-4.251-7.366L101.265,75.677z"/>
	<path d="M105.569,79.822l1.263,0.643c0.357-0.597,3.983-3.392,7.283-5.749l-0.824-1.153
		C111.143,75.096,106.091,78.777,105.569,79.822z"/>
	<path d="M101.45,60.703c0.03,0.046,3.121,4.615,3.914,6.993l1.344-0.448c-0.853-2.563-3.954-7.146-4.086-7.34L101.45,60.703z"/>
	<path d="M105.946,67.412l1.18,0.786c0.681-1.021,4.753-4.138,7.323-5.984l-0.826-1.151
		C112.947,61.548,106.988,65.85,105.946,67.412z"/>
	<rect x="101.889" y="49.513" transform="matrix(-0.6702 -0.7421 0.7421 -0.6702 138.7215 162.082)" width="6.962" height="1.418"/>
	<path d="M106.941,51.24l0.855,1.13c1.743-1.321,10.481-7.981,11.34-9.356l-1.201-0.751C117.438,43.058,111.9,47.482,106.941,51.24z
		"/>
	
		<rect x="100.83" y="32.096" transform="matrix(-0.4692 -0.8831 0.8831 -0.4692 128.0378 142.5735)" width="12.079" height="1.418"/>
	<polygon points="109.92,33.923 110.817,35.02 119.157,28.183 118.249,27.094 	"/>
	<path d="M24.027,17.357c0.105,0.326,10.75,32.9,29.272,57.871l1.139-0.845c-18.38-24.78-28.958-57.138-29.062-57.462L24.027,17.357
		z"/>
	<path d="M49.193,67.543c-1.521-0.847-5.191-2.509-7.537-3.551l-0.575,1.295c3.503,1.557,7.382,3.37,7.811,3.709
		c0.176,0.179,0.458,0.254,0.73,0.179c0.42-0.116,0.997-0.274,3.1-8.527l-1.373-0.35C50.627,63.127,49.687,66.361,49.193,67.543z"/>
	<rect x="41.826" y="46.751" transform="matrix(-0.9466 -0.3224 0.3224 -0.9466 66.3927 112.773)" width="1.417" height="8.275"/>
	<path d="M31.645,50.978c0.795,0.265,6.723,2.84,8.94,3.811l0.568-1.299c-0.328-0.143-8.042-3.517-9.06-3.856L31.645,50.978z"/>
	<path d="M33.784,40.431c-1.239-0.686-7.072-3.913-7.072-3.913l-0.686,1.24l8.594,4.753l2.759-8.829l-1.353-0.423
		C36.025,33.26,34.201,39.099,33.784,40.431z"/>
	<path d="M27.026,23.572c-1.299-0.68-6.162-3.228-6.162-3.228L20.207,21.6l7.838,4.106l1.686-8.428L28.34,17
		C28.34,17,27.311,22.147,27.026,23.572z"/>
	<path d="M13.196,106.696c0.034,0.101,3.443,10.209,10.092,19.684c6.577,9.372,9.946,14.747,9.979,14.802l1.202-0.752
		c-0.034-0.053-3.42-5.457-10.021-14.864c-6.526-9.299-9.875-19.218-9.908-19.317L13.196,106.696z"/>
	<polygon points="29.842,134.99 31.228,135.287 33.726,124.128 32.344,123.816 	"/>
	<rect x="23.412" y="135.764" transform="matrix(-0.9701 -0.2425 0.2425 -0.9701 21.1489 275.548)" width="8.246" height="1.417"/>
	<rect x="18.384" y="125.513" transform="matrix(-0.9043 -0.427 0.427 -0.9043 -12.5664 249.6258)" width="6.635" height="1.417"/>
	<rect x="19.743" y="110.111" transform="matrix(-0.9528 -0.3037 0.3037 -0.9528 5.2423 229.2594)" width="1.418" height="8.223"/>
	<rect x="14.74" y="115.429" transform="matrix(-0.9284 -0.3716 0.3716 -0.9284 -11.2685 230.1051)" width="3.59" height="1.418"/>
	<g>
		<path style="fill:#E60012;" d="M29.702,18.305c0,0-3.5-1.167-2.833-5.333s3.333-5.5,3.333-5.5l5.167,0.5
			c0,0,1.5,2.834-0.167,6.667S30.868,18.472,29.702,18.305z"/>
		<path style="fill:#E60012;" d="M16.535,7.805c0,0,0.667,3,2.167,6.833s5.167,3.833,6.5,3.333s1.667-5.167,1-7.167
			s-3-3.333-3-3.333L16.535,7.805z"/>
		<path style="fill:#E60012;" d="M21.035,21.639c0,0,2.5-2.667-0.5-6.167s-9-0.167-10.167-0.167s0.333,4.667,3.333,6.5
			S20.702,22.806,21.035,21.639z"/>
		<path style="fill:#E60012;" d="M27.702,35.472c0,0-0.333-5.333-7-6.167c-5.873-0.734-9.833,2.5-9.833,2.5s2.5,3.667,7.667,5.833
			S27.535,39.305,27.702,35.472z"/>
		<path style="fill:#E60012;" d="M37.702,35.139c0,0-5.833-2.5-2.333-8.667c3.165-5.576,6.5-7.833,6.5-7.833
			s1.166,5.333,1.333,7.167S44.368,35.972,37.702,35.139z"/>
		<path style="fill:#E60012;" d="M44.369,47.972c0,0-4.833-3.333-1-8.833s7-7.333,7.333-8.5s0.833,1.167,0.833,2.667
			s0.5,6.5-0.833,10.167S46.536,48.972,44.369,47.972z"/>
		<path style="fill:#E60012;" d="M34.035,48.639c0,0-0.667-5.5-7.167-6.333s-9.667,2.167-12,2.167c0,0,0,0.833,1.5,1.333
			s4.833,2.167,6.5,3.833S32.202,53.972,34.035,48.639z"/>
		<path style="fill:#E60012;" d="M42.702,62.972c0,0-0.833-4.666-7-5.333s-9.5,1.666-12,0.833c0,0-0.167,0.667,0.833,1
			s3.667,2.334,4.333,3.167s4.333,4.5,9.167,3.667C42.869,65.472,42.535,64.472,42.702,62.972z"/>
		<path style="fill:#E60012;" d="M56.869,44.972c0,0-2.667,3.833-4.167,4.833s-2.5,5.167-2.667,8.5s4.333,3.833,5.5,2.5
			S57.202,52.638,56.869,44.972z"/>
		<path style="fill:#E60012;" d="M104.369,28.472c0,0-5.166,0.167-7.333-4.167c-2.271-4.541-1.167-7.333-1.167-7.333
			s4.501-0.833,7.834,2.833S106.202,27.638,104.369,28.472z"/>
		<path style="fill:#E60012;" d="M114.203,22.972c0,0-5.668-2.666-3.334-7.333s5.334-6.333,5.834-7s1.834,2,2,3
			C118.869,12.639,121.536,23.472,114.203,22.972z"/>
		<path style="fill:#E60012;" d="M118.536,28.305c0,0-2.667-5.833,2.5-8.333s10.5-3,10.5-3s0.333,0.334,0,1.167
			c-0.333,0.833-2.666,6-4.833,8.5S121.203,30.972,118.536,28.305z"/>
		<path style="fill:#E60012;" d="M127.869,33.139c0,0-4.832,1.333-7.166,1.833c-2.334,0.5-6.168,4.167-3.834,7.5s6.5,2.167,9.167-2
			C128.703,36.305,129.369,32.972,127.869,33.139z"/>
		<path style="fill:#E60012;" d="M96.536,37.639c0,0,4.834,1,7.167,3.333s2.667,5.833,0,7.5s-6.5-0.166-7.167-1.833V37.639z"/>
		<path style="fill:#E60012;" d="M112.869,62.139c0,0-2.166-4,3.167-7.833s9.667-3.167,9.667-3.167s0,5.167-3.667,9
			S116.202,64.472,112.869,62.139z"/>
		<path style="fill:#E60012;" d="M96.369,51.972c8.166,0.833,7.667,7.5,7.667,7.5s-1.666,4.333-8.333,2.5L96.369,51.972z"/>
		<path style="fill:#E60012;" d="M112.203,74.472c0,0-1.667-4.5,3.833-7.166c5.5-2.667,9.833-2.334,9.833-2.334s0,0.501-0.333,1.167
			c-0.333,0.667-1.167,6.333-5.167,8.833S114.537,77.138,112.203,74.472z"/>
		<path style="fill:#E60012;" d="M103.036,75.472c0,0,0.5-4.833-2.667-7.333c-3.411-2.692-5.333-1.5-5.333-1.5l-0.667,6.333
			c0,0-0.209,3.191,3.834,4C102.369,77.805,103.036,75.472,103.036,75.472z"/>
		<path style="fill:#E60012;" d="M113.703,85.472c0,0-2-4,3.333-7.5s10-4.666,10-4.666s-0.333,0.833-0.333,1.333
			s-0.668,6-3.834,9.333C119.703,87.305,116.203,88.305,113.703,85.472z"/>
		<path style="fill:#E60012;" d="M34.369,125.305c0,0-5.667-1-4-7.334c1.667-6.333,5.833-8.667,5.833-9.5s2.334,4.167,3.167,6.834
			C40.202,117.972,39.869,125.972,34.369,125.305z"/>
		<path style="fill:#E60012;" d="M21.869,111.472c0,0-5.5-2.333-2.5-7.833s7-7.166,7.333-8.5c0.333-1.333,1,5.166,1.333,7.333
			S28.536,113.138,21.869,111.472z"/>
		<path style="fill:#E60012;" d="M15.369,107.805c0,0,1.666-4.333-0.667-8.667c-2.333-4.333-6.667-5.5-6.667-5.5l-0.5,9.667
			C7.535,103.305,7.702,108.139,15.369,107.805z"/>
		<path style="fill:#E60012;" d="M20.369,124.472c0,0-0.5-4.168-5.833-4.834s-6.833,2.334-6.833,2.334v2
			c0,0,0.167,3.499,6.167,4.166C19.869,128.805,20.369,124.472,20.369,124.472z"/>
		<path style="fill:#E60012;" d="M24.035,134.972c0,0-1.333-4.668-7.167-4.334s-7.833,4.666-7.833,4.666s1.833,4.168,8.5,4
			C24.202,139.138,24.035,134.972,24.035,134.972z"/>
		<path style="fill:#E60012;" d="M15.369,115.805c0,0,0.5-4.334-3.5-5.334s-4.667,1.167-4.667,1.167l0.333,5.333
			c0,0,2.167,1,4.333,0.834C14.035,117.639,15.369,115.805,15.369,115.805z"/>
		<path style="fill:#E60012;" d="M97.369,204.472c0,0-0.665-5.5-7.166-6.168c-6.501-0.666-9.667,4-9.667,4s0.999,4.834,8.833,5.168
			C97.203,207.804,97.369,204.472,97.369,204.472z"/>
	</g>
	<path d="M96.369,29.263H56.304l0.023,0.731c2.628,82.121-40.432,142.958-40.867,143.564l-0.8,1.111l46.1,0.348l0.21-0.338
		c40.65-65.105,36.157-143.963,36.106-144.752l-0.042-0.664H96.369z M95.694,30.68c0.05,1.098,0.136,3.536,0.136,7.123
		c0,21.419-3.11,83.09-35.866,135.79c-0.78-0.006-40.107-0.301-42.591-0.32c5.563-8.258,40.486-63.036,40.486-136.046
		c0-2.165-0.041-4.351-0.104-6.546C59.119,30.68,94.416,30.68,95.694,30.68z"/>
	<path d="M17.457,6.597c-5.861,0-10.63,4.769-10.63,10.63v203.658c0,5.861,4.768,10.629,10.63,10.629h118.158
		c5.861,0,10.63-4.768,10.63-10.629V17.227c0-5.861-4.769-10.63-10.63-10.63H17.457z M8.244,220.884V17.227
		c0-5.08,4.133-9.213,9.213-9.213h118.158c5.08,0,9.212,4.133,9.212,9.213v203.658c0,5.08-4.132,9.211-9.212,9.211H17.457
		C12.376,230.095,8.244,225.964,8.244,220.884z"/>
</g>
</svg>
