<?xml version="1.0" encoding="iso-8859-1"?>
<!-- Generator: Adobe Illustrator 19.1.0, SVG Export Plug-In . SVG Version: 6.00 Build 0)  -->
<svg version="1.1" id="&#xB808;&#xC774;&#xC5B4;_1" xmlns="http://www.w3.org/2000/svg" xmlns:xlink="http://www.w3.org/1999/xlink"
	 x="0px" y="0px" viewBox="0 0 153.071 238.11" style="enable-background:new 0 0 153.071 238.11;" xml:space="preserve">
<rect style="fill:#E60012;" width="153.071" height="238.11"/>
<g>
	<path style="fill:#FFFFFF;" d="M8.035,15.971v205.834c0,0,0.5,8.833,9.833,9h117.834c0,0,9-1.5,9.5-10l-0.167-205.167
		c0,0-0.667-7.667-10.167-8.333H16.702C16.702,7.305,9.535,7.304,8.035,15.971z"/>
	<g>
		<path d="M79.536,102.638c0,0,0.834,3.5,0.167,5.666c-0.667,2.167-2.001,6-1.501,9s2.667,5.5,5.834,5.5s6.5-3.667,4.5-9.833
			C86.536,106.805,79.536,102.638,79.536,102.638z"/>
		<path d="M69.869,115.138c0,0-0.5,4.667-1.333,6.833c-0.834,2.167-1.5,6.667,1.5,9.333c3,2.667,7.333,1.5,7.333-3
			c0-4.5-1.834-6.5-3.667-9S69.869,115.138,69.869,115.138z"/>
		<path d="M58.035,124.638c0,0-0.334,3.167-0.834,5.167c-0.5,2-3.166,6.501-1.333,11.167s8.333,5.5,9.167,0
			c0.833-5.5-1.501-8.166-2.834-10.5S58.035,124.638,58.035,124.638z"/>
		<path d="M12.202,111.638c0,0,0.167,2.833-0.5,4.833c-0.666,2-1.666,6.499,0.667,9.167c2.333,2.667,7.333,2.835,7.333-1.666
			c0-4.501-1.833-6.001-3.666-8.334C14.202,113.305,12.202,111.638,12.202,111.638z"/>
		<path d="M8.035,132.472c0,0,4.667,5.666,4.833,8.333c0.167,2.667-4,3.5-4.833,3V132.472z"/>
		<path d="M47.202,128.972c0,0-3.833,1.667-7.5,2.5c-3.666,0.833-8,4.332-7,8.166s6.001,5,9.667,1.5
			C46.035,137.638,47.202,128.972,47.202,128.972z"/>
		<path d="M30.035,159.472c0,0-1.167-5.334,6-7.334c7.166-2,13.333-1.333,13.333-1.333s-4.333,4.501-5.833,6.167
			s-4.833,4.499-9.167,4.666C30.035,161.805,30.369,160.806,30.035,159.472z"/>
		<path d="M8.035,158.138c0,0,3.333,2.334,6.5,6.167c3.166,3.833,0.166,7.667,0.166,7.667s-4.499,1.167-6.833-2.5L8.035,158.138z"/>
		<path d="M40.202,200.472c0,0-1.833-5.168,3.834-9.334c5.666-4.166,14.5-3.166,14.5-3.166s-2.334,5-3.5,6.833
			c-1.167,1.833-6,5.666-9.667,6.333C41.702,201.805,40.202,200.472,40.202,200.472z"/>
		<path d="M81.703,162.805c0,0,1.832-5.666,8.666-4.833c6.834,0.833,10.334,4.166,14.667,5.166c0,0-4.833,1.001-6.5,1.834
			c-1.667,0.833-6.499,2.333-10.833,1.833S81.87,165.805,81.703,162.805z"/>
		<path d="M112.703,148.305c0,0-4.333-1.333-6.5-2.333s-6.666-2.666-11-2.5s-6.333,2.5-6.5,4.333
			c-0.167,1.833,1.332,4.999,7.166,5.333s10.667-3,12.667-3.5S112.703,148.305,112.703,148.305z"/>
		<path d="M122.703,133.805c0,0-4-1-7-2s-6.668-1.834-12.334-1.167c-5.666,0.667-6.167,4.333-6,5
			c0.167,0.667,1.668,4.334,6.834,4.167c5.166-0.167,10-2.501,12-3.167S122.703,133.805,122.703,133.805z"/>
		<path d="M78.369,229.472c0,0-5.333-2.5-8.333-3.167c-3-0.667-9.167-6.166-7.167-9.833c2-3.667,10.333,0.167,12.667,5.5
			C77.869,227.305,78.369,229.472,78.369,229.472z"/>
		<path d="M49.702,230.638c0,0-5.167-0.166-9-4.333c-3.833-4.167-2.5-7.667-2.5-7.667s5.5-3.332,11.5,3.334s4.5,8.333,4.5,8.333
			L49.702,230.638z"/>
		<path d="M24.535,230.638c0,0-6.167-3.799-3.834-9.166c1.667-3.834,12.334,2.499,12.167,9.333L24.535,230.638z"/>
	</g>
	<path d="M34.067,206.597c-16.746-0.75-25.651,3.72-26.022,3.911l0.647,1.261c0.088-0.045,8.979-4.487,25.311-3.756
		c12.308,0.551,54.971,0.402,87.217-24.648l-0.869-1.119C88.487,207,46.252,207.143,34.067,206.597z"/>
	<path d="M28.079,209.326c-4.808,2.155-19.758,10.584-20.392,10.941l0.696,1.234c0.155-0.087,15.527-8.754,20.275-10.883
		c4.777-2.142,10.538-7.748,13.103-11.045l-1.119-0.87C38.168,201.884,32.634,207.283,28.079,209.326z"/>
	<path d="M26.14,211.561c2.038,1.367,12.239,8.209,12.912,8.545l0.636-1.267c-0.536-0.28-7.923-5.21-12.758-8.456L26.14,211.561z"/>
	<path d="M14.428,218.125c0.05,0.021,5.077,2.141,6.962,3.869l0.958-1.045c-2.067-1.895-7.156-4.041-7.372-4.131L14.428,218.125z"/>
	<polygon points="50.306,207.726 63.635,216.723 64.436,215.553 51.097,206.55 	"/>
	<path d="M66.113,205.966c4.983,1.927,12.819,5.132,13.98,6.06l0.885-1.107c-1.703-1.361-13.064-5.775-14.354-6.274L66.113,205.966z
		"/>
	<path d="M66.698,205.076l1.341,0.459c1.025-2.997,4.371-12.87,4.371-14.062l-1.417-0.006
		C70.956,192.257,68.753,199.069,66.698,205.076z"/>
	<path d="M84.862,200.251l1.347,0.441c0.36-1.097,3.523-10.748,3.693-11.772l-1.398-0.232
		C88.388,189.383,86.263,195.984,84.862,200.251z"/>
	<path d="M86.546,200.936c2.868,1.467,7.559,3.884,7.93,4.126l0.785-1.18c-0.508-0.339-6.812-3.564-8.07-4.208L86.546,200.936z"/>
	<path d="M103.66,182.305c0,1.61-2.46,8.299-4.114,12.402l1.314,0.529c0.432-1.07,4.218-10.53,4.218-12.932H103.66z"/>
	<path d="M101.574,194.783c3.938,1.802,10.011,4.611,10.598,4.963l0.729-1.215c-0.842-0.506-9.727-4.574-10.736-5.037
		L101.574,194.783z"/>
	<path d="M61.822,171.268c-21.392,18.442-45.039,27.035-45.276,27.12l0.477,1.334c0.239-0.085,24.124-8.76,45.724-27.38
		c21.408-18.455,54.687-69.433,68.214-113.078l-1.354-0.42C116.153,102.261,83.084,152.939,61.822,171.268z"/>
	<path d="M55.838,36.68c0.052,0.292,5.235,29.429,4.989,50.367c-0.253,21.54-9.661,47.646-15.923,59.938
		c-6.648,13.05-37.137,55.48-37.444,55.907l1.15,0.828c0.308-0.428,30.859-42.946,37.556-56.093
		c7.575-14.869,15.837-40.164,16.077-60.563c0.248-21.074-4.958-50.34-5.011-50.633L55.838,36.68z"/>
	<path d="M23.428,188.191c-2.962,4.937-12.894,20.829-12.994,20.988l1.202,0.752c0.1-0.16,10.038-16.064,13.006-21.012
		c2.836-4.727,17.76-31.23,22.56-43.862l-1.325-0.504C41.11,157.098,26.252,183.482,23.428,188.191z"/>
	<path d="M16.104,127.251c3.201,11.081,9.419,49.282,9.481,49.667l1.399-0.227c-0.063-0.386-6.294-38.672-9.519-49.833
		L16.104,127.251z"/>
	<path d="M22.055,148.919c-0.77-0.604-10.082-7.922-10.082-7.922l-0.876,1.115l10.918,8.578l12.682-9.06l-0.824-1.152
		C33.873,140.479,22.86,148.345,22.055,148.919z"/>
	<path d="M16.138,158.892l8.163,5.529l6.902-5.044l-0.836-1.145c0,0-5.389,3.938-6.098,4.456c-0.74-0.502-7.337-4.971-7.337-4.971
		L16.138,158.892z"/>
	<path d="M13.496,172.015c0,0,6.869,8.047,8.052,9.432c-1.774,0.551-13.473,4.182-13.473,4.182l0.42,1.354l15.527-4.818
		l-9.448-11.068L13.496,172.015z"/>
	<path d="M27.167,182.856l0.235,1.398c0.239-0.041,24.186-4.24,45.34-22.158l-0.916-1.082
		C50.982,178.671,27.403,182.817,27.167,182.856z"/>
	<polygon points="67.572,166.629 67.998,167.981 83.009,163.227 82.561,161.883 	"/>
	<path d="M63.334,167.661l1.401-0.211c-1.032-6.882-2.883-20.607-2.499-23.294l-1.403-0.201
		C60.325,147.517,63.211,166.839,63.334,167.661z"/>
	<path d="M54.619,152.296c0.136,0.376,3.382,9.244,8.737,13.323l0.859-1.127c-5.02-3.825-8.231-12.589-8.263-12.678L54.619,152.296z
		"/>
	<path d="M42.827,164.305c0,3.369-2.947,14.707-2.977,14.821l1.371,0.357c0.124-0.473,3.023-11.629,3.023-15.179H42.827z"/>
	
		<rect x="63.295" y="142.722" transform="matrix(-0.2002 -0.9798 0.9798 -0.2002 -50.3228 245.7792)" width="23.73" height="1.417"/>
	
		<rect x="85.327" y="144.939" transform="matrix(-0.2289 -0.9735 0.9735 -0.2289 -39.6152 267.2292)" width="1.416" height="8.732"/>
	<path d="M83.627,121.818l6.725,16.811l8.34-1.883l-0.312-1.383c0,0-6.153,1.39-7.16,1.617c-0.419-1.046-6.275-15.69-6.275-15.69
		L83.627,121.818z"/>
	<rect x="83.651" y="116.596" transform="matrix(-0.2157 -0.9765 0.9765 -0.2157 0.5379 235.0415)" width="22.019" height="1.418"/>
	<path d="M99.285,123.642l0.502,1.326c0.379-0.144,9.327-3.535,12.088-5.042l-0.679-1.244
		C108.52,120.142,99.376,123.608,99.285,123.642z"/>
	<path d="M100.594,93.208c0.985,4.434,3.964,21.054,3.994,21.221l1.395-0.25c-0.029-0.167-3.014-16.816-4.006-21.279L100.594,93.208
		z"/>
	
		<rect x="111.577" y="103.437" transform="matrix(-0.3557 -0.9346 0.9346 -0.3557 50.2957 252.7845)" width="1.417" height="11.236"/>
	
		<rect x="100.239" y="90.972" transform="matrix(-0.2456 -0.9694 0.9694 -0.2456 48.0297 220.7389)" width="19.342" height="1.416"/>
	<rect x="118.327" y="90.343" transform="matrix(-0.3941 -0.9191 0.9191 -0.3941 77.666 243.3115)" width="1.417" height="11.424"/>
	<path d="M115.095,67.962l4.208,18.413l11.821-6.448l-0.679-1.244c0,0-8.771,4.784-10.178,5.552
		c-0.375-1.64-3.792-16.587-3.792-16.587L115.095,67.962z"/>
	<path d="M34.38,86.575c0.107,0.26,10.795,26.196,16.22,46.662l1.37-0.363c-5.449-20.558-16.172-46.579-16.28-46.839L34.38,86.575z"
		/>
	<path d="M32.783,109.717c0.104,0.04,10.405,3.979,12.778,6.115l0.948-1.054c-2.569-2.312-12.788-6.22-13.222-6.385L32.783,109.717z
		"/>
	<rect x="28.343" y="95.596" transform="matrix(-0.9255 -0.3786 0.3786 -0.9255 29.5535 198.4208)" width="11.885" height="1.417"/>
	<path d="M42.863,107.081l1.344,0.449c0.187-0.546,3.451-7.29,5.465-11.413l-1.273-0.622
		C47.859,96.598,43.12,106.308,42.863,107.081z"/>
	<rect x="50.007" y="96.346" transform="matrix(-0.4321 -0.9018 0.9018 -0.4321 -6.3814 190.0911)" width="13.306" height="1.417"/>
	<rect x="64.452" y="88.596" transform="matrix(-0.7071 -0.7071 0.7071 -0.7071 44.4638 207.2769)" width="1.417" height="11.667"/>
	<path d="M55.354,77.25c0.512,1.79,5.059,9.32,5.576,10.172l0.518,0.854l7.635-9.271l-1.094-0.901c0,0-5.309,6.447-6.362,7.726
		c-1.607-2.685-4.562-7.753-4.909-8.97L55.354,77.25z"/>
	<path d="M51.767,64.288c0.701,0.754,6.905,7.382,8.739,8.169l0.559-1.303c-1.175-0.503-5.69-5.071-8.261-7.832L51.767,64.288z"/>
	<rect x="63.952" y="60.053" transform="matrix(-0.7388 -0.674 0.674 -0.7388 68.0774 157.9976)" width="1.417" height="11.503"/>
	<rect x="61.076" y="44.422" transform="matrix(-0.8798 -0.4753 0.4753 -0.8798 92.5284 122.7573)" width="1.417" height="10.515"/>
	<rect x="47.639" y="51.596" transform="matrix(-0.6887 -0.725 0.725 -0.6887 54.1753 127.8676)" width="13.793" height="1.417"/>
	<g>
		<path style="fill:#E60012;" d="M54.285,20.805c0,0-1.262,2.858-2.25,5c-1.5,3.25-1,12.5,4.75,12s3-10.25,1.75-12
			S54.285,20.805,54.285,20.805z"/>
		<path style="fill:#E60012;" d="M39.869,35.305c0,0,0.666,2,0.833,3.667s2.167,5.5,5.667,6.667s6-2.167,3.833-5.333
			c-2.166-3.167-4.333-3.667-5.666-4C43.202,35.971,39.869,35.305,39.869,35.305z"/>
		<path style="fill:#E60012;" d="M75.369,33.638c0,0-3,1.667-5.5,2s-6,3-6.833,6.667c-0.834,3.667,3,5.167,5.5,4.333
			s5.499-4.333,6.166-7.833S75.369,33.638,75.369,33.638z"/>
		<path style="fill:#E60012;" d="M44.202,53.971c0,0,1,3,1.5,5s2.833,5,6,5.667c3.167,0.666,4.834-3.167,3.167-5.667
			s-4.166-3.333-6.5-4C46.035,54.305,44.202,53.971,44.202,53.971z"/>
		<path style="fill:#E60012;" d="M77.702,49.638c0,0-2.833,1.667-5.333,2s-5.5,3.5-5.5,6.333s2.333,4,6.167,2.333
			c3.833-1.667,4.167-6.667,4.333-7.667C77.535,51.638,77.702,49.638,77.702,49.638z"/>
		<path style="fill:#E60012;" d="M45.869,69.138c0,0,1.666,3.5,2.833,5s3.833,3.499,6.5,3.333c2.667-0.167,4.334-3.333,2-6.167
			c-2.701-3.28-5.999-2.5-7.333-2.5C48.535,68.805,45.869,69.138,45.869,69.138z"/>
		<path style="fill:#E60012;" d="M78.202,66.805c0,0-4.166,1.5-6.833,2.167s-6.334,3.833-6.167,7.333s3.5,4.5,7,2.5
			s4.5-6.5,4.834-7.833C77.369,69.638,78.202,66.805,78.202,66.805z"/>
		<path style="fill:#E60012;" d="M55.869,80.805l-3.167,2.167c0,0-2.666-0.5-3.833-1s-2.5-1-2.5-1s0.333,1,0.333,2s1.167,3.5,1.5,4
			c0,0-1.499,2-2.333,3.667c-0.833,1.666-1,4.5,2.333,5.5c3.334,1,4.833-3,5-4c0,0,2.167,1,3.834-1c1.666-2-1.167-4.834-1.167-4.834
			V80.805z"/>
		<path style="fill:#E60012;" d="M79.369,79.805c0,0-3.167,1.334-4.667,1.5c-1.5,0.167-5.833,2-7,4.667c-1.166,2.667,1,6,5,4.833
			c4-1.166,4.833-5.166,5.5-6.666S79.369,79.805,79.369,79.805z"/>
		<path style="fill:#E60012;" d="M29.202,70.971c0,0,0.667,3.334,0.5,5.167c-0.166,1.833-0.167,6.166,2.5,8.666s6.667,1,6.667-1.5
			s-1.834-6-4.167-7.833S29.202,70.971,29.202,70.971z"/>
		<path style="fill:#E60012;" d="M15.535,86.638c0,0,1.833,1.667,2.833,3s4.167,4.499,8.667,5.333
			c4.5,0.833,6.333-3.833,3.333-7.167c-3-3.333-8.5-2-9.833-2C19.202,85.805,15.535,86.638,15.535,86.638z"/>
		<path style="fill:#E60012;" d="M20.369,102.971c0,0,2.334,2.167,3.5,3.333c1.167,1.167,3.5,3.167,6.667,3.834
			c3.166,0.666,7.333-2.167,4.166-5.834c-3.166-3.666-7.333-2.833-9.833-2.666C22.369,101.805,20.369,102.971,20.369,102.971z"/>
		<path style="fill:#E60012;" d="M87.369,91.471c0,0,0.333,3.167,0,5.333c-0.333,2.167-0.334,7.667,2.5,10.167s6.166-0.333,6-3.667
			c-0.166-3.333-2.666-7.333-4.333-8.833S87.369,91.471,87.369,91.471z"/>
		<path style="fill:#E60012;" d="M96.203,79.805c0,0,0.167,2.833,0,5.167c-0.167,2.333,0.334,6.167,2.5,8.333
			c2.166,2.167,6.5,1.167,5.833-2.5c-0.667-3.666-1.5-6.166-4-8C98.036,80.971,96.203,79.805,96.203,79.805z"/>
		<path style="fill:#E60012;" d="M102.536,68.805c0,0,0.333,2.667,0.333,3.834c0,1.166-0.332,5.667,0.834,9s7.332,3.999,7.166-1.167
			c-0.166-5.167-4.833-9.167-4.833-9.167L102.536,68.805z"/>
		<path style="fill:#E60012;" d="M110.703,53.971c0,0-0.333,3.167-0.5,5.5s-0.001,6.5,3.166,9s6-0.5,5.167-3.833
			c-0.833-3.333-2.999-4.833-4.333-6.5S110.703,53.971,110.703,53.971z"/>
		<path style="fill:#E60012;" d="M136.036,45.805c0,0-2,1.167-4.5,3s-3.834,5.667-3.667,8.5s2.834,3.833,5.834,2.333
			s3.667-5,3.5-8.333C137.036,47.971,136.036,45.805,136.036,45.805z"/>
		<path style="fill:#E60012;" d="M138.703,69.305c0,0-3.834,1-5.667,1.5c-1.833,0.5-5.001,2.167-5.167,5.5
			c-0.166,3.334,2.833,4.001,5.5,3.334c2.667-0.667,4.334-2.834,5.167-5.667C139.369,71.138,138.703,69.305,138.703,69.305z"/>
		<path style="fill:#E60012;" d="M135.203,86.805c0,0-3.5-0.333-5.667-0.333c-2.167,0-5.667,1-7.167,3.333
			c-1.5,2.334,0.501,7.334,5.334,6c4.833-1.333,5.666-4.833,6.166-6.333S135.203,86.805,135.203,86.805z"/>
		<path style="fill:#E60012;" d="M130.369,99.638c0,0-3.832-0.5-5.666-0.5s-6.668,1.167-8.334,4.5s0.833,6.333,4.5,5.833
			s5.501-3.5,6.834-5.167C129.036,102.638,130.369,99.638,130.369,99.638z"/>
		<path style="fill:#E60012;" d="M124.369,112.471c0,0-4.5-0.334-6-0.5c-1.5-0.167-5.999-0.333-8.166,2.833
			c-2.167,3.167-1.168,6.334,3.666,6c4.834-0.333,6.333-3.499,7.5-4.666S124.369,112.471,124.369,112.471z"/>
		<path style="fill:#E60012;" d="M8.035,149.472c0,0,2.833-0.667,5.833,0.333s4.333,3.833,4.333,5.833s-2.666,3.001-5.666,1.834
			c-3-1.167-4.334-3.167-4.334-3.167L8.035,149.472z"/>
		<path style="fill:#E60012;" d="M49.202,140.305c0,0-0.5,4.333,0.5,8c1,3.667,4.001,6.001,7.167,4.667
			c3.167-1.334,1.666-6.5-0.667-8.667C53.869,142.138,49.202,140.305,49.202,140.305z"/>
		<path style="fill:#E60012;" d="M47.369,153.472c0,0,1.167,3.166,0.5,6.333c-0.667,3.167-1.333,5.334-3.5,5.667
			c-2.167,0.333-4.833-2.834-4.5-6.167C40.202,155.972,47.369,153.472,47.369,153.472z"/>
		<path style="fill:#E60012;" d="M74.035,178.638c0,0-0.834,2.5-2,3.5c-1.167,1-4.334,5-3.834,8.167c0.5,3.167,4.167,4.333,7,1.5
			c2.834-2.833,1.5-6.833,0.5-8.833S74.035,178.638,74.035,178.638z"/>
		<path style="fill:#E60012;" d="M89.536,173.805c0,0-0.834,2.667-1.667,4.5c-0.833,1.833-2.5,5.167-1.5,9
			c1,3.833,7.5,3.499,7.667-1.167s-1.667-7-2.667-9S89.536,173.805,89.536,173.805z"/>
		<path style="fill:#E60012;" d="M108.369,169.138c0,0-2.5,2.834-3.833,4.167c-1.333,1.333-3.5,4.667-3,7.667
			s5.999,5.666,7.833-0.334S108.369,169.138,108.369,169.138z"/>
		<path style="fill:#E60012;" d="M134.203,175.138c0,0-3,1-6,1c-3,0-7.666,1-8.5,4.167c-0.834,3.167,1.6,5.702,6.166,4.833
			c3.5-0.666,5.168-4.5,5.834-5.5S134.203,175.138,134.203,175.138z"/>
		<path style="fill:#E60012;" d="M125.203,204.138c0,0-2.833-2.834-4.5-4.5c-2.834-2.833-8.666-5.5-11-2.333
			c-2.334,3.167,0.499,7.501,6.166,7.667S124.037,203.804,125.203,204.138z"/>
		<path style="fill:#E60012;" d="M110.203,211.472c0,0-2.334-2-3.334-3.5s-2.499-4.167-6.166-5.667s-6.167,0.667-6.667,2
			c-0.5,1.333,0.167,4.667,4.667,6.5C103.203,212.638,106.703,210.806,110.203,211.472z"/>
		<path style="fill:#E60012;" d="M94.369,217.638c0,0-2.333-1.332-3.833-3.166s-3.5-5-7.667-5.667
			c-4.167-0.667-6.666,3.499-3.166,6.333c3.5,2.834,7.666,2.834,9.833,2.834S94.369,217.638,94.369,217.638z"/>
	</g>
	<path d="M17.956,6.596c-5.861,0-10.63,4.769-10.63,10.63v203.658c0,5.861,4.769,10.63,10.63,10.63h117.158
		c5.861,0,10.63-4.769,10.63-10.63V17.226c0-5.861-4.768-10.63-10.63-10.63H17.956z M8.744,220.884V17.226
		c0-5.08,4.133-9.213,9.213-9.213h117.158c5.08,0,9.212,4.133,9.212,9.213v203.658c0,5.08-4.132,9.212-9.212,9.212H17.956
		C12.876,230.096,8.744,225.964,8.744,220.884z"/>
</g>
</svg>
