<?xml version="1.0" encoding="iso-8859-1"?>
<!-- Generator: Adobe Illustrator 19.1.0, SVG Export Plug-In . SVG Version: 6.00 Build 0)  -->
<svg version="1.1" id="&#xB808;&#xC774;&#xC5B4;_1" xmlns="http://www.w3.org/2000/svg" xmlns:xlink="http://www.w3.org/1999/xlink"
	 x="0px" y="0px" viewBox="0 0 153.071 238.11" style="enable-background:new 0 0 153.071 238.11;" xml:space="preserve">
<rect style="fill:#E60012;" width="153.071" height="238.11"/>
<g>
	<path style="fill:#FFFFFF;" d="M6.868,25.888l0.167,195.333c0,0,0.167,8.833,8.833,9.5l120.667,0.334c0,0,8.999-1.834,9.166-9.167
		l0.334-206.166c0,0-0.333-7.333-10-8.5l-66.5-0.167l-52.833,7.5L6.868,25.888z"/>
	<path style="fill:#FDD000;" d="M124.868,152.888c0,0-3.5-6-10.25-11.625s-13.75-9.5-13.75-9.5l-8.375-5.625
		c0,0-3.625-0.5-4.125-1.125s-1.25-2-1.25-2s-4.375-1.75-5.375-2.625s-3.375-1.5-3.375-1.5s-0.25-0.75-0.875-1.25
		s-4.625-1.625-4.625-1.625s-1.125-1.25-2.75-2.25s-10.375-1.25-16.25-0.125s-11,4-14,4.625s-9.875,1.75-13.25,1.25
		s-11-4.125-12.875-5.125s-3.25-2-3.25-2s-1.25-0.25-1.5,1.125s1.625,8.5,1.625,8.5l3.625,4l0.625,0.875c0,0-1.125,5.5,1.125,9.375
		s10.75,7.5,10.75,7.5s1.25,1.875,1.5,2.625s2.625,6.75,5,8.5c0,0-6.375,1.125-8.5,1.375s-3.75,2-3.875,3.5s1.25,3.25,1.625,3.75
		s3.25,4.375,3.25,4.375s-2.625,5.25-3,6.5s-5.625,12.375-5.625,12.375l9.75-1.375c0,0,1.75-7.625,5-10.875
		c0,0,4.375,7.125,6,11.875l7.25-4.125c0,0-4.125-8.375-4.375-11c0,0,7.625,0.625,9.5,0.875s12.125,0.75,17-2.875l20.875,1.375
		l1.25,1.125c0,0,2.25,4.125,3.25,5.25c0,0-8.5,5.375-11.125,7.125s-4.75,4.625-3.875,7.75c0,0,6.875,0.5,7.875,0.625
		s4.5-0.125,4.5-0.125l2.25,1.125l2,2c0,0,2.5-2.75,3.625-3s1.625-2.375,3-2.5s4.125,1.5,5.625,1.5s4.375-0.625,4.375-0.625
		s5-3.875,7.375-5.5s6.625-3.75,7.125-4.125s1.75-2.5,2.625-3.875c0.875-1.375,3.5-3,3.5-3s0.75-5.125,1.625-6.625
		s-0.5-6.25-1.375-9.375S127.118,153.388,124.868,152.888z"/>
	<path style="fill:#E60012;" d="M6.868,25.888l0.167-9.833c0,0-0.666-8.667,11.667-9l52,0.167c0,0-2.167,6.666-14.5,4.666
		c0,0-0.834,3.667-5.167,4.834c-4.333,1.166-7.834-0.334-8.5-1.167c0,0-3.666,6-11.833,3.5c0,0-2.333,5.833-12,3.333
		C18.702,22.388,14.202,29.055,6.868,25.888z"/>
	<path d="M16.956,6.513c-5.861,0-10.63,4.769-10.63,10.63v203.824c0,5.861,4.769,10.63,10.63,10.63h119.158
		c5.861,0,10.63-4.768,10.63-10.63V17.143c0-5.861-4.768-10.63-10.63-10.63H16.956z M7.743,220.967V17.143
		c0-5.08,4.133-9.213,9.213-9.213h119.158c5.08,0,9.212,4.133,9.212,9.213v203.824c0,5.08-4.132,9.212-9.212,9.212H16.956
		C11.876,230.179,7.743,226.047,7.743,220.967z"/>
	<path d="M9.306,111.978c-0.727,0.438-1.108,1.418-0.974,2.498c0.009,0.075,1.047,7.592,1.869,8.413l0.56,0.468
		c0.68,0.526,1.818,1.409,3.548,3.634c2.349,3.019,6.938,6.682,10.555,7.585c3.069,0.768,5.938,4.074,5.968,4.107
		c0.255,0.296,0.702,0.33,0.999,0.075c0.297-0.254,0.331-0.701,0.076-0.998c-0.128-0.15-3.188-3.682-6.699-4.56
		c-3.275-0.818-7.626-4.312-9.779-7.08c-1.84-2.366-3.114-3.354-3.799-3.884l-0.426-0.35c-0.336-0.59-1.244-5.818-1.465-7.587
		c-0.07-0.561,0.102-0.99,0.299-1.108c0.178-0.107,0.522-0.002,0.925,0.277c1.813,1.27,9.875,6.114,16.183,6.625
		c6.519,0.528,15.027-1.464,18.987-3.048c4.078-1.632,13.5-5.4,24.725-2.473c0.378,0.1,0.766-0.128,0.864-0.507
		c0.099-0.378-0.128-0.766-0.507-0.864c-11.676-3.046-21.4,0.846-25.554,2.506c-3.887,1.555-12.111,3.483-18.401,2.974
		c-5.93-0.48-13.843-5.226-15.484-6.374C10.561,111.457,9.707,111.735,9.306,111.978z"/>
	<path d="M55.109,116.895c-0.364,0.143-0.543,0.554-0.4,0.918c0.142,0.364,0.554,0.544,0.918,0.401
		c0.129-0.05,12.96-4.967,22.208,0.614c0.335,0.202,0.771,0.095,0.973-0.24c0.202-0.335,0.095-0.771-0.24-0.974
		C68.715,111.669,55.66,116.679,55.109,116.895z"/>
	<path d="M58.7,118.366c-0.38,0.093-0.612,0.476-0.521,0.855c0.093,0.381,0.475,0.613,0.856,0.521
		c0.128-0.031,12.919-3.049,24.39,1.797c0.36,0.152,0.775-0.016,0.928-0.377c0.152-0.36-0.016-0.775-0.377-0.928
		C72.064,115.202,59.24,118.234,58.7,118.366z"/>
	<path d="M69.043,120.697c-0.382,0.088-0.619,0.468-0.531,0.85c0.088,0.381,0.468,0.619,0.849,0.531
		c0.085-0.02,8.59-1.902,18.094,1.641c0.366,0.137,0.774-0.05,0.911-0.417c0.137-0.366-0.05-0.774-0.417-0.911
		C78.029,118.693,69.404,120.613,69.043,120.697z"/>
	<path d="M76.743,124.19c-0.385,0.068-0.641,0.437-0.572,0.821c0.068,0.386,0.437,0.642,0.821,0.573
		c0.092-0.016,9.227-1.578,17.418,2.115c0.357,0.161,0.776,0.003,0.937-0.354c0.161-0.356,0.003-0.776-0.354-0.937
		C86.392,122.53,77.134,124.12,76.743,124.19z"/>
	<path d="M18.868,120.814c-1.56,4.335,0.083,10.032,0.154,10.273c0.11,0.375,0.504,0.59,0.879,0.48
		c0.309-0.091,0.509-0.373,0.509-0.68c0-0.066-0.009-0.133-0.028-0.199c-0.011-0.038-0.763-2.651-0.763-5.548
		c0-0.96,0.129-1.934,0.349-2.873c1.103,1.061,3.233,4.015,4.366,11.724c0.057,0.387,0.417,0.654,0.804,0.598
		c0.388-0.057,0.655-0.417,0.599-0.805c-1.679-11.41-5.512-13.221-5.943-13.39l-0.678-0.266L18.868,120.814z"/>
	<path d="M32.712,124.424l-0.67,0.343l0.383,0.649c4.102,6.958,13.134,3.162,13.225,3.123l0.89-0.384l-0.636-0.731
		C40.106,120.748,32.785,124.387,32.712,124.424z M44.029,127.603c-2.116,0.662-6.97,1.579-9.849-2.242
		C35.905,124.748,40.146,123.884,44.029,127.603z"/>
	<path d="M14.18,126.389c-0.024,0.099-0.297,1.269-0.297,2.989c0,1.899,0.332,4.469,1.694,7.012
		c2.458,4.587,9.63,7.509,10.681,7.917c0.2,0.268,0.634,0.879,0.977,1.565l0.199,0.433c4.167,9.236,8.936,13.801,12.205,16.004
		c7.725,5.206,25.456,7.756,32.359,8.12c5.048,0.266,15.552,0.82,16.676,1.141c0.376,0.107,0.769-0.111,0.876-0.487
		c0.107-0.376-0.111-0.769-0.487-0.876c-1.063-0.304-7.29-0.682-16.99-1.193c-5.778-0.305-24.012-2.738-31.642-7.88
		c-3.115-2.1-7.676-6.478-11.705-15.41l-0.224-0.485c-0.527-1.055-1.218-1.923-1.246-1.959l-0.122-0.152l-0.183-0.068
		c-0.078-0.029-7.781-2.964-10.125-7.338c-2.335-4.358-1.279-8.954-1.268-9c0.091-0.38-0.144-0.763-0.524-0.854
		C14.653,125.775,14.271,126.009,14.18,126.389z"/>
	<path d="M86.839,165.707c-0.376,0.108-0.593,0.501-0.484,0.877c0.104,0.363,2.642,8.953,9.258,13.872
		c6.535,4.859,10.415,5.908,10.577,5.95c0.378,0.099,0.764-0.128,0.863-0.505c0.1-0.378-0.127-0.766-0.504-0.866
		c-0.038-0.01-3.811-1.046-10.091-5.716c-6.225-4.629-8.718-13.044-8.742-13.128C87.607,165.815,87.214,165.599,86.839,165.707z"/>
	<path d="M123.51,152.566c-0.085,0.382,0.155,0.761,0.537,0.846c0.042,0.01,4.261,0.98,6.075,3.552
		c1.837,2.601,1.87,5.398,1.87,5.426c0.002,0.391,0.319,0.707,0.711,0.706c0.391-0.001,0.707-0.317,0.707-0.708
		c0-0.132-0.024-3.259-2.13-6.242c-2.134-3.021-6.73-4.073-6.925-4.116C123.974,151.944,123.595,152.185,123.51,152.566z"/>
	<path d="M125.982,156.348c-0.385,0.029-0.668,0.359-0.647,0.745c0.021,0.385,0.354,0.683,0.739,0.67
		c0.039-0.002,3.962-0.02,6.103,9.611c0.085,0.383,0.463,0.623,0.845,0.538c0.383-0.085,0.623-0.463,0.538-0.845
		C131.122,156.095,126.191,156.333,125.982,156.348z"/>
	<path d="M124.681,160.223c-0.091,0.379,0.144,0.762,0.522,0.854c0.211,0.052,5.179,1.351,5.792,8.702
		c0.032,0.391,0.375,0.68,0.765,0.647c0.391-0.032,0.68-0.375,0.648-0.765c-0.701-8.417-6.625-9.905-6.877-9.964
		C125.15,159.608,124.771,159.844,124.681,160.223z"/>
	<path d="M124.821,163.604c-0.248,0.302-0.205,0.748,0.097,0.997c0.044,0.037,4.484,3.759,5.587,9.585
		c0.072,0.385,0.443,0.638,0.828,0.564c0.385-0.072,0.637-0.443,0.564-0.828c-1.201-6.346-5.881-10.253-6.079-10.416
		C125.516,163.259,125.07,163.303,124.821,163.604z"/>
	<path d="M125.114,166.984c-0.314,0.232-0.382,0.677-0.149,0.991c0.027,0.037,2.729,3.74,3.2,7.664
		c0.046,0.388,0.399,0.665,0.787,0.619c0.389-0.047,0.666-0.4,0.619-0.788c-0.516-4.303-3.346-8.175-3.466-8.337
		C125.873,166.819,125.43,166.752,125.114,166.984z"/>
	<path d="M122.582,168.677c-0.301,0.25-0.342,0.696-0.092,0.997c0.032,0.039,3.216,3.908,3.844,8.15
		c0.058,0.388,0.418,0.655,0.805,0.598c0.388-0.058,0.655-0.418,0.598-0.805c-0.688-4.644-4.016-8.681-4.157-8.851
		C123.329,168.467,122.883,168.426,122.582,168.677z"/>
	<path d="M121.212,171.876c-0.283,0.271-0.293,0.719-0.022,1.002c0.036,0.038,3.637,3.869,3.637,8.843
		c0,0.392,0.317,0.709,0.709,0.709s0.709-0.317,0.709-0.709c0-5.555-3.867-9.651-4.031-9.823
		C121.942,171.615,121.494,171.605,121.212,171.876z"/>
	<path d="M113.406,178.243c-0.356,0.164-0.513,0.584-0.35,0.939c0.077,0.168,1.906,4.13,4.125,6.521
		c0.267,0.286,0.715,0.304,1.002,0.037c0.286-0.267,0.304-0.715,0.037-1.002c-2.062-2.221-3.857-6.107-3.875-6.146
		C114.183,178.236,113.762,178.08,113.406,178.243z"/>
	<path d="M111.438,180.729c-0.363,0.146-0.54,0.559-0.395,0.922c0.071,0.177,1.758,4.352,3.871,6.113
		c0.301,0.251,0.748,0.21,0.998-0.09c0.251-0.301,0.21-0.748-0.09-0.998c-1.838-1.532-3.447-5.513-3.463-5.553
		C112.214,180.761,111.801,180.584,111.438,180.729z"/>
	<path d="M108.653,182.018c-0.389,0.026-0.683,0.357-0.659,0.745c0.007,0.128,0.232,3.172,4.407,6.825
		c0.295,0.258,0.742,0.228,1-0.066c0.258-0.295,0.229-0.742-0.066-1c-3.682-3.222-3.925-5.823-3.927-5.85
		C109.378,182.285,109.041,181.99,108.653,182.018z"/>
	<path d="M105.759,183.902c-0.36,0.152-0.528,0.568-0.376,0.929c0.077,0.182,1.91,4.483,3.984,6.558
		c0.276,0.276,0.726,0.277,1.002,0c0.276-0.276,0.276-0.726,0-1.002c-1.878-1.878-3.663-6.066-3.682-6.108
		C106.535,183.918,106.119,183.75,105.759,183.902z"/>
	<path d="M100.971,182.551c-0.37,0.127-0.567,0.53-0.439,0.9c0.077,0.224,1.918,5.519,4.669,8.27c0.276,0.277,0.726,0.277,1.002,0
		c0.277-0.276,0.276-0.726,0-1.002c-2.518-2.519-4.313-7.678-4.331-7.729C101.744,182.62,101.341,182.424,100.971,182.551z"/>
	<path d="M96.562,179.86c-0.383,0.076-0.632,0.449-0.556,0.833c0.057,0.28,1.404,6.896,4.013,9.679
		c0.268,0.286,0.716,0.301,1.001,0.032c0.286-0.268,0.3-0.716,0.032-1.001c-2.331-2.488-3.643-8.923-3.656-8.988
		C97.319,180.032,96.945,179.783,96.562,179.86z"/>
	<path d="M92.827,178.036c-0.008,0.267-0.12,6.621,4.424,14.699c0.191,0.341,0.623,0.462,0.965,0.269
		c0.341-0.191,0.462-0.623,0.27-0.965c-4.338-7.713-4.243-13.906-4.242-13.968c0.01-0.391-0.3-0.716-0.69-0.726
		C93.162,177.337,92.837,177.645,92.827,178.036z"/>
	<path d="M90.327,177.862c-0.014,0.381-0.294,9.437,3.732,17.994c0.167,0.355,0.589,0.506,0.943,0.34
		c0.354-0.167,0.506-0.589,0.34-0.943c-3.876-8.236-3.603-17.25-3.6-17.34c0.014-0.391-0.291-0.72-0.683-0.733
		C90.67,177.165,90.341,177.471,90.327,177.862z"/>
	<path d="M92.002,176.614c-0.433,0.261-10.64,6.437-13.19,9.667c-2.747,3.48-1.626,5.825-1.577,5.924
		c0.173,0.345,0.587,0.482,0.935,0.316c0.349-0.166,0.498-0.587,0.339-0.939c-0.031-0.068-0.73-1.703,1.417-4.423
		c2.392-3.03,12.705-9.27,12.81-9.333c0.335-0.202,0.442-0.638,0.24-0.973C92.772,176.52,92.337,176.412,92.002,176.614z"/>
	<path d="M87.278,179.685c-0.388,0.05-0.663,0.404-0.613,0.793c0.041,0.323,1.024,7.954,2.37,11.652
		c0.134,0.368,0.54,0.558,0.908,0.424c0.368-0.134,0.558-0.54,0.424-0.908c-1.292-3.55-2.286-11.27-2.296-11.348
		C88.021,179.91,87.667,179.636,87.278,179.685z"/>
	<path d="M84.327,182.198c-0.008,0.225-0.151,5.54,1.722,9.966c0.152,0.36,0.568,0.528,0.929,0.376
		c0.36-0.152,0.528-0.568,0.376-0.929c-1.749-4.133-1.611-9.316-1.61-9.368c0.013-0.392-0.295-0.719-0.685-0.73
		C84.666,181.5,84.339,181.808,84.327,182.198z"/>
	<path d="M82.169,183.774c-0.036,0.221-0.853,5.437,0.74,8.445c0.183,0.346,0.611,0.478,0.958,0.294
		c0.346-0.183,0.478-0.611,0.294-0.958c-1.37-2.587-0.602-7.506-0.594-7.556c0.062-0.386-0.2-0.75-0.587-0.812
		C82.595,183.126,82.23,183.389,82.169,183.774z"/>
	<path d="M79.701,185.816c-0.038,0.105-0.909,2.618,0.34,5.828c0.142,0.365,0.553,0.546,0.917,0.403
		c0.365-0.142,0.546-0.553,0.403-0.917c-1.048-2.693-0.332-4.819-0.325-4.841c0.128-0.368-0.065-0.773-0.433-0.902
		C80.235,185.258,79.832,185.449,79.701,185.816z"/>
	<path d="M58.302,122.031c-0.013,0.313,0.231,0.577,0.544,0.59c0.039,0.002,3.979,0.191,6.288,2.501c0.222,0.221,0.58,0.221,0.802,0
		c0.222-0.222,0.222-0.581,0-0.803c-2.626-2.626-6.865-2.824-7.045-2.831C58.578,121.476,58.315,121.719,58.302,122.031z"/>
	<path d="M56.987,123.908c-0.081,0.303,0.099,0.613,0.401,0.694c0.048,0.013,4.833,1.319,6.854,4.117
		c0.184,0.254,0.538,0.311,0.792,0.128c0.254-0.184,0.311-0.538,0.127-0.792c-2.259-3.128-7.268-4.492-7.48-4.549
		C57.379,123.427,57.068,123.606,56.987,123.908z"/>
	<path d="M55.676,125.677c-0.116,0.291,0.024,0.62,0.315,0.737c0.031,0.013,3.208,1.307,4.92,3.642
		c0.186,0.253,0.54,0.308,0.793,0.122c0.252-0.185,0.307-0.54,0.121-0.792c-1.907-2.602-5.271-3.968-5.413-4.024
		C56.122,125.245,55.792,125.387,55.676,125.677z"/>
	<path d="M53.985,128.75c-0.076,0.304,0.108,0.611,0.412,0.688c0.031,0.008,3.182,0.819,4.871,2.816
		c0.203,0.239,0.561,0.269,0.8,0.067c0.238-0.202,0.269-0.56,0.066-0.799c-1.929-2.28-5.319-3.148-5.463-3.184
		C54.369,128.262,54.061,128.446,53.985,128.75z"/>
	<path d="M52.646,131.281c-0.059,0.308,0.143,0.604,0.45,0.663c0.024,0.005,2.501,0.51,4.499,2.968
		c0.197,0.243,0.555,0.28,0.798,0.083c0.243-0.198,0.279-0.555,0.082-0.798c-2.272-2.795-5.051-3.345-5.168-3.367
		C53,130.772,52.704,130.975,52.646,131.281z"/>
	<path d="M50.979,134.776c-0.062,0.307,0.137,0.605,0.443,0.667c0.031,0.007,3.143,0.652,4.492,2.451
		c0.188,0.251,0.543,0.302,0.794,0.113c0.25-0.187,0.301-0.543,0.113-0.793c-1.611-2.148-5.031-2.854-5.176-2.883
		C51.339,134.27,51.041,134.47,50.979,134.776z"/>
	<path d="M49.181,136.499c-0.122,0.288,0.012,0.619,0.3,0.743c0.029,0.013,3.03,1.336,5.393,5.588
		c0.151,0.273,0.497,0.372,0.771,0.22c0.274-0.151,0.372-0.497,0.221-0.77c-2.565-4.618-5.806-6.023-5.942-6.081
		C49.634,136.077,49.303,136.212,49.181,136.499z"/>
	<path d="M47.861,141.467c-0.14,0.28-0.026,0.621,0.253,0.761c0.04,0.02,3.953,1.987,5.871,3.745
		c0.23,0.212,0.589,0.196,0.801-0.035c0.212-0.23,0.196-0.589-0.035-0.801c-2.034-1.865-5.963-3.84-6.129-3.923
		C48.342,141.073,48.002,141.187,47.861,141.467z"/>
	<path d="M48.195,144.967c-0.141,0.28-0.027,0.621,0.253,0.761c0.976,0.489,3.673,2.059,4.423,3.432
		c0.149,0.275,0.494,0.376,0.769,0.227c0.275-0.15,0.376-0.495,0.227-0.77c-1.073-1.967-4.755-3.824-4.911-3.902
		C48.676,144.573,48.335,144.688,48.195,144.967z"/>
	<path d="M47.519,147.818c-0.131,0.284-0.006,0.62,0.279,0.752c0.038,0.018,3.894,1.798,5.127,3.339
		c0.195,0.244,0.553,0.284,0.797,0.088c0.244-0.195,0.284-0.552,0.088-0.797c-1.401-1.751-5.371-3.584-5.539-3.661
		C47.986,147.409,47.65,147.534,47.519,147.818z"/>
	<path d="M46.262,150.03c-0.197,0.243-0.16,0.6,0.083,0.797c0.729,0.593,2.731,2.271,3.248,2.915
		c0.195,0.244,0.552,0.284,0.797,0.088c0.244-0.195,0.283-0.552,0.088-0.797c-0.697-0.87-3.308-2.995-3.418-3.085
		C46.816,149.75,46.459,149.787,46.262,150.03z"/>
	<path d="M48.49,118.065c-0.087,0.302,0.088,0.615,0.389,0.701l3.5,1c0.302,0.086,0.615-0.088,0.701-0.39
		c0.086-0.301-0.089-0.614-0.39-0.7l-3.5-1C48.89,117.59,48.576,117.765,48.49,118.065z"/>
	<path d="M48.861,119.468c-0.14,0.28-0.027,0.62,0.254,0.761l2.333,1.166c0.28,0.141,0.62,0.027,0.761-0.253
		c0.14-0.28,0.027-0.621-0.254-0.761l-2.333-1.167C49.342,119.074,49.002,119.188,48.861,119.468z"/>
	<path d="M48.861,121.301c-0.14,0.28-0.027,0.621,0.254,0.761l2,1c0.279,0.141,0.62,0.027,0.76-0.253
		c0.141-0.28,0.027-0.621-0.253-0.761l-2-1C49.342,120.907,49.001,121.021,48.861,121.301z"/>
	<path d="M48.655,123.405c-0.083,0.303,0.096,0.614,0.398,0.696l1.833,0.5c0.302,0.082,0.613-0.096,0.696-0.398
		c0.082-0.303-0.096-0.614-0.398-0.696l-1.833-0.5C49.049,122.926,48.737,123.104,48.655,123.405z"/>
	<path d="M49.321,124.905c-0.082,0.303,0.096,0.614,0.397,0.696l1.834,0.5c0.302,0.082,0.613-0.096,0.696-0.397
		c0.082-0.303-0.096-0.614-0.398-0.696l-1.833-0.5C49.716,124.426,49.403,124.604,49.321,124.905z"/>
	<path d="M74.537,128.118c-0.149,0.274-0.047,0.619,0.229,0.768c1.561,0.847,4.086,2.387,4.642,3.164
		c0.182,0.255,0.535,0.315,0.79,0.133c0.255-0.183,0.314-0.536,0.132-0.791c-0.883-1.238-4.603-3.274-5.024-3.502
		C75.03,127.74,74.687,127.843,74.537,128.118z"/>
	<path d="M71.349,130.161c-0.125,0.287,0.006,0.621,0.294,0.746c0.037,0.017,3.805,1.664,6.224,3.438
		c0.252,0.186,0.607,0.131,0.792-0.122c0.186-0.252,0.131-0.607-0.122-0.792c-2.521-1.85-6.283-3.494-6.441-3.562
		C71.808,129.743,71.474,129.874,71.349,130.161z"/>
	<path d="M70.352,132.487c-0.129,0.285-0.002,0.621,0.283,0.75c0.051,0.023,5.072,2.306,6.801,4.35
		c0.202,0.239,0.56,0.269,0.799,0.066c0.239-0.202,0.269-0.56,0.066-0.799c-1.894-2.239-6.983-4.553-7.199-4.65
		C70.816,132.075,70.479,132.202,70.352,132.487z"/>
	<path d="M67.853,134.485c-0.13,0.284-0.005,0.622,0.28,0.751c0.057,0.026,5.709,2.638,7.76,5.793
		c0.171,0.263,0.522,0.337,0.784,0.167c0.263-0.171,0.338-0.522,0.167-0.784c-2.231-3.433-7.995-6.096-8.239-6.207
		C68.319,134.075,67.983,134.2,67.853,134.485z"/>
	<path d="M66.697,138.296c-0.143,0.279-0.032,0.62,0.246,0.764c0.067,0.034,6.756,3.479,8.987,6.188
		c0.199,0.242,0.557,0.276,0.798,0.077c0.242-0.199,0.276-0.557,0.077-0.798c-2.38-2.891-9.063-6.332-9.346-6.478
		C67.182,137.907,66.841,138.018,66.697,138.296z"/>
	<path d="M66.037,142.95c-0.149,0.275-0.049,0.618,0.228,0.769c0.057,0.031,5.741,3.131,7.15,5.009
		c0.188,0.251,0.543,0.302,0.794,0.113c0.25-0.187,0.301-0.543,0.113-0.793c-1.557-2.075-7.274-5.193-7.517-5.325
		C66.53,142.573,66.187,142.675,66.037,142.95z"/>
	<path d="M64.687,146.318c-0.131,0.284-0.005,0.62,0.279,0.752c0.039,0.018,3.927,1.817,6.154,4.204
		c0.214,0.229,0.572,0.241,0.802,0.027c0.229-0.213,0.241-0.572,0.027-0.801c-2.383-2.553-6.344-4.385-6.511-4.462
		C65.153,145.909,64.817,146.034,64.687,146.318z"/>
	<path d="M64.491,150.061c-0.089,0.3,0.083,0.615,0.383,0.704c0.026,0.008,2.646,0.8,3.683,2.428
		c0.168,0.264,0.519,0.342,0.782,0.174c0.265-0.168,0.343-0.519,0.174-0.783c-1.267-1.989-4.193-2.869-4.317-2.906
		C64.895,149.589,64.58,149.76,64.491,150.061z"/>
	<path d="M62.82,152.411c-0.079,0.304,0.102,0.613,0.405,0.692c1.425,0.372,3.927,1.204,4.575,1.853c0.222,0.221,0.58,0.221,0.802,0
		c0.222-0.222,0.222-0.581,0-0.803c-1.077-1.077-4.684-2.041-5.091-2.148C63.209,151.927,62.898,152.108,62.82,152.411z"/>
	<path d="M62.312,155.109c-0.062,0.308,0.138,0.605,0.444,0.667c0.033,0.007,3.265,0.659,4.67,1.439
		c0.273,0.152,0.618,0.054,0.771-0.22c0.152-0.273,0.054-0.618-0.22-0.77c-1.56-0.867-4.858-1.533-4.998-1.561
		C62.673,154.604,62.374,154.803,62.312,155.109z"/>
	<path d="M83.514,134.497c-0.123,0.288,0.01,0.623,0.298,0.745c0.058,0.024,5.729,2.469,7.288,4.342
		c0.2,0.24,0.558,0.272,0.799,0.072c0.24-0.2,0.272-0.558,0.072-0.799c-1.733-2.08-7.469-4.554-7.712-4.658
		C83.971,134.076,83.638,134.21,83.514,134.497z"/>
	<path d="M82.512,138.171c-0.12,0.289,0.018,0.621,0.307,0.74c0.047,0.02,4.742,1.98,6.633,4.028
		c0.213,0.229,0.571,0.244,0.802,0.032c0.229-0.213,0.244-0.571,0.031-0.802c-2.061-2.232-6.83-4.223-7.032-4.306
		C82.963,137.744,82.631,137.882,82.512,138.171z"/>
	<path d="M82.521,141.98c-0.133,0.284-0.009,0.622,0.273,0.754c0.05,0.023,4.971,2.326,6.9,3.773
		c0.25,0.188,0.605,0.138,0.793-0.113c0.188-0.25,0.138-0.605-0.113-0.793c-2.023-1.519-6.894-3.798-7.1-3.895
		C82.991,141.574,82.653,141.698,82.521,141.98z"/>
	<path d="M82.223,146.083c-0.168,0.265-0.09,0.615,0.174,0.783c0.036,0.022,3.629,2.312,4.737,3.422
		c0.222,0.222,0.581,0.222,0.802,0.001c0.222-0.222,0.222-0.581,0.001-0.802c-1.196-1.197-4.779-3.481-4.931-3.578
		C82.741,145.741,82.391,145.819,82.223,146.083z"/>
	<path d="M81.33,149.875c-0.099,0.297,0.062,0.618,0.358,0.718c1.058,0.354,3.963,1.537,4.693,2.754
		c0.161,0.269,0.51,0.355,0.778,0.194c0.269-0.161,0.356-0.51,0.194-0.778c-1.077-1.794-4.877-3.102-5.307-3.246
		C81.751,149.418,81.43,149.578,81.33,149.875z"/>
	<path d="M80.851,152.49c-0.128,0.286,0.001,0.621,0.287,0.748c1.231,0.548,4.598,2.11,5.367,2.752
		c0.241,0.2,0.599,0.168,0.799-0.072c0.2-0.241,0.168-0.599-0.072-0.799c-1.031-0.858-5.165-2.708-5.633-2.916
		C81.312,152.075,80.979,152.204,80.851,152.49z"/>
	<path d="M80.165,154.87c-0.102,0.296,0.056,0.618,0.352,0.721c1.956,0.675,4.94,1.855,5.451,2.365c0.221,0.221,0.58,0.221,0.801,0
		c0.222-0.222,0.222-0.581,0-0.803c-0.881-0.88-5.055-2.349-5.883-2.635C80.59,154.417,80.268,154.574,80.165,154.87z"/>
	<path d="M79.549,156.763c-0.161,0.269-0.073,0.616,0.194,0.778c1.137,0.682,4.224,2.617,4.857,3.377
		c0.2,0.24,0.558,0.272,0.799,0.072c0.24-0.2,0.272-0.558,0.072-0.799c-0.869-1.043-4.709-3.362-5.144-3.623
		C80.059,156.407,79.71,156.495,79.549,156.763z"/>
	<path d="M97.738,145.561c-0.181,0.256-0.12,0.61,0.136,0.79l5.667,4c0.256,0.181,0.61,0.12,0.79-0.136
		c0.181-0.256,0.12-0.61-0.136-0.79l-5.667-4C98.272,145.244,97.919,145.305,97.738,145.561z"/>
	<path d="M97.976,147.812c-0.226,0.216-0.234,0.575-0.018,0.801c0.151,0.157,3.7,3.865,5.037,5.035
		c0.235,0.206,0.594,0.183,0.8-0.054c0.206-0.235,0.183-0.594-0.054-0.8c-1.299-1.137-4.927-4.927-4.964-4.965
		C98.562,147.603,98.202,147.595,97.976,147.812z"/>
	<path d="M96.223,151.417c-0.168,0.265-0.09,0.615,0.175,0.782c1.888,1.196,5.044,3.377,5.479,4.137
		c0.155,0.272,0.502,0.366,0.773,0.211c0.272-0.155,0.366-0.502,0.211-0.773c-0.701-1.227-5.001-3.99-5.855-4.531
		C96.74,151.074,96.39,151.153,96.223,151.417z"/>
	<path d="M95.941,155.015c-0.206,0.235-0.183,0.594,0.054,0.8c0.109,0.096,2.708,2.366,4.381,3.538
		c0.257,0.179,0.61,0.117,0.79-0.14c0.179-0.257,0.117-0.61-0.14-0.79c-1.622-1.136-4.259-3.438-4.285-3.462
		C96.506,154.755,96.147,154.778,95.941,155.015z"/>
	<path d="M94.415,157.881c-0.189,0.25-0.138,0.605,0.113,0.793c0.911,0.685,3.387,2.598,3.897,3.235
		c0.195,0.244,0.552,0.284,0.797,0.088c0.244-0.195,0.284-0.553,0.088-0.797c-0.691-0.864-3.755-3.173-4.103-3.433
		C94.958,157.579,94.603,157.63,94.415,157.881z"/>
	<path d="M93.309,160.311c-0.226,0.216-0.234,0.575-0.018,0.802c0.967,1.014,3.563,3.759,3.957,4.283
		c0.188,0.25,0.543,0.301,0.794,0.112c0.25-0.188,0.301-0.543,0.112-0.794c-0.505-0.673-3.683-4.007-4.043-4.385
		C93.896,160.103,93.536,160.095,93.309,160.311z"/>
	<path d="M114.18,150.025c-0.168,0.264-0.521,0.34-0.785,0.172l5.515,3.51c0.265,0.168,0.603,0.082,0.771-0.182
		c0.168-0.265,0.077-0.623-0.187-0.791l-5.485-3.49C114.271,149.412,114.348,149.761,114.18,150.025z"/>
	<path d="M111.77,151.854c-0.203,0.238-0.174,0.597,0.064,0.799c0.915,0.778,3.405,2.941,3.925,3.59
		c0.195,0.244,0.553,0.284,0.797,0.088c0.244-0.195,0.284-0.552,0.088-0.797c-0.681-0.851-3.729-3.451-4.075-3.744
		C112.33,151.586,111.973,151.615,111.77,151.854z"/>
	<path d="M110.312,154.573c-0.194,0.245-0.553,0.285-0.798,0.09l6.515,5.178c0.245,0.195,0.589,0.145,0.783-0.101
		c0.195-0.245,0.142-0.611-0.104-0.806l-6.485-5.156C110.468,153.973,110.507,154.328,110.312,154.573z"/>
	<path d="M108.974,155.813c-0.225,0.218-0.231,0.577-0.013,0.802c2.045,2.108,5.414,5.665,5.754,6.231
		c0.161,0.269,0.51,0.355,0.778,0.194c0.269-0.161,0.356-0.51,0.194-0.778c-0.519-0.864-5.361-5.869-5.912-6.436
		C109.558,155.602,109.198,155.596,108.974,155.813z"/>
	<path d="M108.759,161.033c-0.196,0.245-0.156,0.602,0.088,0.797l5,4c0.245,0.196,0.602,0.156,0.797-0.088
		c0.196-0.245,0.156-0.602-0.088-0.797l-5-4C109.31,160.749,108.954,160.789,108.759,161.033z"/>
	<path d="M108.106,163.184c-0.205,0.236-0.18,0.595,0.058,0.8l5,4.333c0.236,0.205,0.595,0.18,0.8-0.058
		c0.205-0.236,0.18-0.595-0.058-0.8l-5-4.333C108.67,162.921,108.312,162.946,108.106,163.184z"/>
	<path d="M107.781,166.174c-0.21,0.231-0.193,0.59,0.039,0.801l3.667,3.333c0.231,0.21,0.59,0.193,0.801-0.039
		c0.21-0.232,0.193-0.59-0.039-0.801l-3.667-3.333C108.351,165.925,107.992,165.941,107.781,166.174z"/>
	<path d="M41.138,161.682c-14.635,1.33-16.921,7.287-18.149,10.487l-0.114,0.295c-1.144,2.943-6.262,13.846-6.313,13.956
		l-0.544,1.157l11.421-1.377l0.118-0.474c3.155-12.621,8.974-13.879,10.682-13.964c1.605-0.08,4.122,0.166,7.036,0.451
		c3.023,0.296,6.45,0.631,9.911,0.715c6.938,0.169,12.93-2.948,13.181-3.081c0.347-0.183,0.479-0.611,0.297-0.957
		c-0.183-0.347-0.611-0.48-0.958-0.297c-0.059,0.031-5.927,3.078-12.485,2.919c-3.408-0.083-6.808-0.416-9.808-0.709
		c-2.97-0.291-5.534-0.542-7.244-0.457c-1.931,0.097-8.425,1.458-11.854,14.561c-0.733,0.088-6.121,0.738-7.928,0.956
		c1.36-2.913,4.859-10.443,5.81-12.887l0.116-0.301c1.117-2.912,3.198-8.333,16.954-9.583c0.368-0.034,0.644-0.343,0.644-0.705
		c0-0.021-0.001-0.043-0.003-0.065C41.872,161.934,41.527,161.646,41.138,161.682z"/>
	<path d="M24.601,155.854c-1.944,0.277-3.4,1.278-3.993,2.747c-0.602,1.488-0.225,3.27,1.034,4.889l3.652,4.815
		c0.237,0.312,0.69,0.384,1.002,0.147c0.311-0.236,0.381-0.67,0.144-0.981l-3.68-4.851c-0.955-1.228-1.253-2.467-0.84-3.489
		c0.399-0.986,1.449-1.67,2.88-1.875l8.843-1.335c-0.387,0.059-0.752-0.207-0.811-0.595c-0.059-0.387,0.204-0.747,0.592-0.806
		L24.601,155.854z"/>
	<path d="M40.425,170.52c-0.35,0.056-0.599,0.357-0.599,0.699c0,0.037,0.003,0.074,0.009,0.111c0.438,2.77,3.442,8.839,4.422,10.765
		c-0.902,0.492-4.825,2.632-5.952,3.247c-1.447-5.191-5.516-10.793-5.699-11.042c-0.232-0.315-0.676-0.383-0.991-0.15
		c-0.314,0.231-0.382,0.676-0.15,0.99c0.046,0.062,4.592,6.277,5.712,11.398l0.202,0.923l8.773-4.785l-0.321-0.616
		c-0.041-0.079-4.119-7.935-4.596-10.95C41.174,170.724,40.81,170.46,40.425,170.52z"/>
	<path d="M19.494,180.192c-0.016,0.391,0.288,0.721,0.68,0.736l8.333,0.334c0.391,0.016,0.721-0.289,0.736-0.68
		c0.016-0.391-0.289-0.721-0.68-0.736l-8.333-0.334C19.839,179.497,19.51,179.802,19.494,180.192z"/>
	<path d="M23.553,180.437l-2.334,5.334c-0.156,0.358,0.007,0.777,0.365,0.934c0.359,0.156,0.777-0.007,0.934-0.365l2.334-5.334
		c0.156-0.358-0.007-0.777-0.365-0.934C24.127,179.915,23.709,180.078,23.553,180.437z"/>
	<path d="M42.367,176.597l-6.834,3.667c-0.345,0.185-0.475,0.614-0.289,0.959c0.185,0.345,0.614,0.475,0.959,0.289l6.834-3.667
		c0.345-0.185,0.475-0.614,0.289-0.959C43.142,176.541,42.712,176.411,42.367,176.597z"/>
	<path d="M39.9,178.025c-0.385,0.074-0.636,0.445-0.562,0.83l1,5.167c0.074,0.384,0.446,0.636,0.831,0.561
		c0.384-0.074,0.635-0.445,0.561-0.83l-1-5.167C40.656,178.202,40.284,177.95,39.9,178.025z"/>
	<path d="M33.839,114.42c-0.008,0.041-0.944,4.05-9.767,3.594c-0.391-0.021-0.724,0.28-0.744,0.671
		c-0.02,0.391,0.28,0.725,0.671,0.744c10.174,0.526,11.196-4.534,11.234-4.75c0.068-0.381-0.184-0.741-0.564-0.815
		C34.288,113.79,33.918,114.041,33.839,114.42z"/>
	<path d="M39.303,114.462c-0.154,0.204-3.855,4.985-10.503,4.058c-0.388-0.054-0.746,0.216-0.8,0.604
		c-0.054,0.388,0.216,0.746,0.603,0.8c7.495,1.047,11.658-4.378,11.832-4.609c0.234-0.313,0.171-0.756-0.142-0.991
		C39.982,114.087,39.538,114.15,39.303,114.462z"/>
	<g>
		<path d="M103.868,132.221c0,0,0.086-3.847-8-5.666c-6.667-1.5-10.667,1-10.667,1s1.834,4.834,9.834,6.5
			S103.868,132.221,103.868,132.221z"/>
		<path d="M38.035,124.221c0,0,2.5,2.167,0.167,4.167c0,0-4.001,0.001-5.167-3.333C33.035,125.055,34.868,123.221,38.035,124.221z"
			/>
		<path d="M12.702,117.222c0,0,2.166-0.001,2.833,0.833c0.667,0.833-0.334,1.5-2,1.5c-1.667,0-2.167-0.166-2-1.333
			S12.702,117.222,12.702,117.222z"/>
		<path d="M93.701,115.055c0,0,0.834-6.167-4.166-9s-10.334-2-11.167-2.667c0,0,1,3,1.5,5.5S85.534,117.221,93.701,115.055z"/>
		<path d="M116.201,120.388c0,0-5.5-1.166-5-9c0.5-7.833,4.834-10.333,4.834-10.333s5.833,3.5,5.833,10.833
			C121.868,119.222,117.534,120.388,116.201,120.388z"/>
		<path d="M127.368,109.555c0,0-2.167,3.667-3.167,6.167c-0.756,1.889-0.334,9.665,4.5,9.999c4.834,0.334,5.834-6.332,3.834-9.499
			S127.201,110.388,127.368,109.555z"/>
		<path d="M108.701,96.388c0,0-4.834-4.333-10.5-3.166c-5.666,1.166-9.332,4.666-11.166,5.333c0,0,5.167,1.333,7.5,2
			S108.534,101.222,108.701,96.388z"/>
		<path d="M89.701,86.888c0,0-3.833-4.666-10-1.5c-6.166,3.167-8.833,7.334-9.666,7.834c0,0,4.666,0,7.833,0
			S89.534,91.888,89.701,86.888z"/>
		<path d="M74.035,80.388c0,0-1.517-4.568-8.667-2.333c-5.333,1.667-6.833,6.333-9.5,8.5c0,0,3.667,0.166,6.5,0.5
			C65.202,87.388,73.201,88.722,74.035,80.388z"/>
		<path d="M51.368,73.722c0,0-3.333-4.5-10.833-1.5c-6.667,2.666-8.833,7.166-8.833,7.166s4.666,0.667,7.166,0.834
			C41.368,80.388,50.535,79.889,51.368,73.722z"/>
		<path d="M36.868,66.055c0,0-2.5-4.167-9-3.667s-8.833,4.334-12.833,4.834c0,0,3.5,0.833,5.833,2.333
			C23.202,71.055,33.868,74.555,36.868,66.055z"/>
		<path d="M51.202,58.222c0,0-6.167,1.5-10.167-4s-5.667-10.167-6.167-11c0,0,5.501,1.333,7.834,1.833S54.035,51.389,51.202,58.222z
			"/>
		<path d="M64.535,42.555c0,0,0.666,3.5,0.5,5c-0.167,1.5,2.666,14.666,9.666,12.5c0,0,6.653-3.146,1.5-8.833
			C71.368,45.888,65.201,43.388,64.535,42.555z"/>
		<path d="M82.201,46.055c0,0,1.167,3.833,1.667,7.333s2.356,14.613,8.667,12.334c6-2.167-1-13.334-4.5-15.167
			S82.201,46.055,82.201,46.055z"/>
		<path d="M101.868,58.388c0,0,1,4.167,1,5.667c0,1.5,1.334,16.333,10.167,13.5c0,0,5-3.667-0.5-10.167
			S102.868,59.722,101.868,58.388z"/>
		<path d="M141.535,52.055c0,0-3.334,0.334-6.834,2.667s-7.832,9.333-3.166,12.833s10.5-4.833,10.333-9.333
			C141.701,53.722,141.535,52.055,141.535,52.055z"/>
		<path d="M145.201,68.888c0,0-3.833,3.167-6.333,5c-2.5,1.834-10.167,11-4.167,14s10.166-4.667,10.5-8.833
			C145.535,74.888,145.201,68.888,145.201,68.888z"/>
		<path d="M118.535,147.721c0,0-2.834-5.332-8.167-6.166s-10.167-0.334-10.167-0.334s3.667,4.834,7.667,7.167
			C111.868,150.721,118.035,149.721,118.535,147.721z"/>
		<path d="M124.368,192.388c0,0-4.833,0.167-5.833-6.5s0.666-11.333,0.666-11.333s4,1.666,7.5,7.333
			C130.201,187.555,127.035,191.555,124.368,192.388z"/>
		<path d="M112.868,203.555c0,0,0.501-6.5-5.333-8.167c-5.834-1.667-10.5-1.667-10.5-1.667s2.5,5.834,5.333,9.167
			C105.201,206.221,110.535,205.889,112.868,203.555z"/>
		<path d="M133.035,194.388c0,0-3.001-5.333,1.166-9c4.167-3.667,9.334-5.5,9.334-5.5s0.167,6.167-1.5,10.667
			C140.368,195.055,135.535,196.221,133.035,194.388z"/>
		<path d="M123.868,221.555c0,0-1.333-5.168-7.333-4.834c-6,0.334-11.5,4.334-11.5,4.334s3.833,4.499,10.333,5.166
			C121.868,226.888,123.368,223.222,123.868,221.555z"/>
		<path d="M80.201,208.888c0,0,2.834-5.334-1.166-8.667c-4-3.333-9.5-3.332-10.5-4.166c-1-0.834,1.166,4,1.5,6
			C70.368,204.055,74.201,211.888,80.201,208.888z"/>
		<path d="M62.535,206.555c0,0,3-5.001-1.167-8.334c-4.166-3.333-9.5-5.5-10-6s0.667,4.668,1.167,7.334
			C53.035,202.221,56.535,207.889,62.535,206.555z"/>
		<path d="M81.701,222.888c0,0-5-0.334-8.166,1.833c-3.167,2.167-4,6-4,6l9.333,0.667c0,0,2.834-1,3.667-4
			S81.701,222.888,81.701,222.888z"/>
		<path d="M63.535,219.721c0,0-4.167-1.166-8.167,1.667c-4,2.833-5.166,8.833-5.166,8.833l1.666,0.334c0,0,5-1.166,9.5-4
			S64.368,220.554,63.535,219.721z"/>
	</g>
	<path d="M34.859,66.597c55.594,0.738,110.343,45.716,110.889,46.17l0.906-1.09c-0.551-0.458-55.675-45.753-111.776-46.497
		L34.859,66.597z"/>
	<path d="M111.468,77.419c0.045,0.104,4.344,10.052,6.892,15.49c-1.448,0.362-11.163,2.791-11.163,2.791l0.344,1.375l12.84-3.21
		l-0.372-0.782c-2.466-5.178-7.191-16.116-7.239-16.226L111.468,77.419z"/>
	<path d="M91.659,65.138c0,0.986,3.691,12.528,5.1,16.895c-0.95,0.488-8.715,4.476-8.715,4.476l0.647,1.261l9.786-5.025
		l-0.186-0.573c-1.975-6.112-5.137-16.148-5.216-17.054L91.659,65.138z"/>
	<rect x="69.078" y="66.179" transform="matrix(-0.4036 -0.9149 0.9149 -0.4036 48.8039 165.5867)" width="18.581" height="1.418"/>
	<path d="M71.146,80.359l0.945,1.057c0.047-0.042,4.714-4.195,8.562-5.879l-0.568-1.299C76.026,76.014,71.343,80.184,71.146,80.359z
		"/>
	<path d="M49.617,57.389c0.078,0.078,7.344,7.35,10.858,11.276c-4.601,2.288-9.525,4.64-10.179,4.77l0.071,1.412
		c0.759,0,6.709-2.896,11.567-5.325l0.816-0.408l-0.598-0.689c-3.229-3.726-11.452-11.954-11.535-12.037L49.617,57.389z"/>
	<path d="M30.229,38.333c11.042,2.208,36.344,13.586,36.598,13.701l0.583-1.292c-1.045-0.471-25.702-11.56-36.902-13.799
		L30.229,38.333z"/>
	<polygon points="39.021,33.27 45.286,42.791 46.451,41.984 40.215,32.506 	"/>
	<path d="M55.202,36.88c0.411,1.13,4.028,11.067,4.532,12.075l1.268-0.634c-0.354-0.707-2.865-7.52-4.468-11.926L55.202,36.88z"/>
	<path d="M115.909,23.904c0.011,0.446,1.167,45.019,15.308,78.013l1.303-0.559c-14.031-32.738-15.183-77.043-15.193-77.486
		L115.909,23.904z"/>
	<path d="M129.956,98.386l1.324,0.505c0.411-1.079,4.023-10.569,4.275-11.581l-1.375-0.344
		C134.005,87.67,131.558,94.181,129.956,98.386z"/>
	<path d="M124.467,81.108l1.303,0.559c0.737-1.721,6.682-14.603,6.742-14.732l-1.287-0.594
		C130.979,66.872,125.212,79.37,124.467,81.108z"/>
	<path d="M120.158,61.5c-3.331-1.546-6.21-5.022-6.24-5.06l-1.1,0.895c0.138,0.169,3.41,4.16,7.286,5.711l0.497,0.198l8.827-11.423
		l-1.121-0.866C128.308,50.955,120.804,60.666,120.158,61.5z"/>
	<path d="M118.693,47.378c-0.957-0.708-5.154-3.81-5.154-3.81l-0.842,1.14l6.391,4.724l0.396-0.692
		c0.764-1.337,5.025-6.398,7.172-8.889l-1.074-0.926C125.348,39.196,120.38,44.97,118.693,47.378z"/>
	<path d="M116.748,30.54c-0.994-0.954-5.639-5.413-5.639-5.413l-0.982,1.023l6.861,6.586l4.97-7.454l-1.18-0.786
		C120.778,24.495,117.502,29.41,116.748,30.54z"/>
	<path d="M92.182,114.696c0.262,0.205,26.491,20.856,52.872,55.62l1.129-0.857c-26.499-34.919-52.865-55.674-53.128-55.88
		L92.182,114.696z"/>
	<path d="M128.159,124.902c0,0,0.45,22.256,0.482,23.878c-1.477-0.276-11.143-2.089-11.143-2.089l-0.262,1.393l12.857,2.411
		l-0.518-25.622L128.159,124.902z"/>
	<path d="M115.41,119.409c0,0,0.416,13.754,0.47,15.508c-1.657-0.515-13.552-4.206-13.552-4.206l-0.42,1.354l15.448,4.794
		l-0.53-17.492L115.41,119.409z"/>
	<path d="M111.741,203.487c0.174,0.11,17.604,11.117,31.39,24.165l0.975-1.029c-13.891-13.146-31.434-24.225-31.61-24.335
		L111.741,203.487z"/>
	
		<rect x="127.659" y="213.841" transform="matrix(-0.124 -0.9923 0.9923 -0.124 -73.8981 374.5402)" width="1.417" height="12.093"/>
	<path d="M123.409,190.888c0,1.02,3.761,19.457,4.515,23.142l1.389-0.283c-1.78-8.704-4.444-21.977-4.486-22.868L123.409,190.888z"
		/>
	
		<rect x="129.285" y="192.168" transform="matrix(-0.7485 -0.6631 0.6631 -0.7485 95.9903 432.4292)" width="1.417" height="11.689"/>
	<path d="M26.516,209.589c40.272,5.93,80.082,12.927,80.479,12.997l0.246-1.396c-0.397-0.069-40.226-7.07-80.52-13.003
		L26.516,209.589z"/>
	
		<rect x="93.765" y="216.054" transform="matrix(-0.6247 -0.7809 0.7809 -0.6247 -7.8203 429.7668)" width="11.205" height="1.417"/>
	<path d="M80.765,223.773l0.707,1.229c2.282-1.314,8.423-4.812,9.41-5.206l-0.527-1.316
		C89.073,218.992,81.104,223.579,80.765,223.773z"/>
	<path d="M60.843,205.613c0,0,7.679,8.486,8.833,9.762c-2.325,1.181-6.729,4.443-7.732,5.196l0.851,1.134
		c3.373-2.53,7.359-5.229,8.191-5.368l1.278-0.213l-10.37-11.462L60.843,205.613z"/>
	<rect x="41.774" y="207.554" transform="matrix(-0.7255 -0.6883 0.6883 -0.7255 -59.6651 392.726)" width="13.44" height="1.417"/>
	
		<rect x="52.409" y="212.237" transform="matrix(-0.5883 -0.8087 0.8087 -0.5883 -90.0158 385.4431)" width="1.418" height="6.801"/>
	<path d="M32.117,205.139c0,0,4.597,4.597,5.618,5.618c-1.217,0.756-6.49,4.028-6.49,4.028l0.747,1.205l8.009-4.972l-6.882-6.882
		L32.117,205.139z"/>
	
		<rect x="76.215" y="212.429" transform="matrix(-0.6247 -0.7809 0.7809 -0.6247 -32.2033 410.7978)" width="12.806" height="1.417"/>
	<path d="M60.521,11.513c-7.963,0.153-9.418-4.15-9.476-4.333l-1.356,0.412c0.067,0.225,1.759,5.514,10.859,5.338
		c9.005-0.173,11.525-5.355,11.628-5.575l-1.282-0.603C70.804,6.939,68.591,11.358,60.521,11.513z"/>
	<path d="M50.01,16.206c-4.756,1.337-6.67-0.987-6.749-1.087l-0.628-0.79l-0.535,0.854c-0.017,0.027-1.737,2.764-4.894,3.515
		c-3.255,0.775-6.26-0.143-6.29-0.153l-0.511-0.159l-0.295,0.449c-0.018,0.025-1.74,2.606-5.063,3.362
		c-3.33,0.757-5.959-0.739-5.985-0.755l-0.624-0.362l-0.354,0.631c-0.14,0.251-3.5,6.104-10.981,3.508l-0.465,1.339
		c7.217,2.504,11.176-2.005,12.312-3.603c1.057,0.472,3.451,1.297,6.411,0.624c3.094-0.703,4.942-2.688,5.625-3.553
		c1.04,0.254,3.654,0.74,6.548,0.051c2.711-0.646,4.466-2.452,5.268-3.457c1.062,0.848,3.464,2.111,7.594,0.95
		c5.691-1.601,6.474-5.39,6.505-5.55l-1.392-0.27C55.48,11.876,54.808,14.856,50.01,16.206z"/>
	<path d="M28.085,12.855c-5.515,0.919-8.406-2.147-8.526-2.278L18.237,9.14l0.09,1.949c0.012,0.25,0.231,6.155-4.683,7.793
		c-4.755,1.585-5.918-0.694-5.967-0.792l-1.29,0.586c0.064,0.146,1.664,3.564,7.705,1.551c4.285-1.428,5.316-5.514,5.565-7.727
		c1.487,1.045,4.399,2.465,8.66,1.755c6.497-1.083,6.757-6.62,6.758-6.676L33.66,7.527C33.652,7.709,33.412,11.968,28.085,12.855z"
		/>
	<path d="M38.979,11.848c-3.789,0.303-5.802-1.32-5.822-1.337l-0.912,1.085c0.098,0.082,2.44,2.018,6.848,1.665
		c4.608-0.368,6.066-5.468,6.126-5.685l-1.365-0.378C43.84,7.242,42.591,11.56,38.979,11.848z"/>
	<path d="M47.202,10.013c-2.462,0-2.813-0.968-2.816-0.977l-1.376,0.34c0.047,0.211,0.562,2.055,4.192,2.055
		c3.564,0,4.592-1.975,4.634-2.059l-1.262-0.646C50.546,8.777,49.832,10.013,47.202,10.013z"/>
	<path d="M14.087,12.015c-2.912-0.216-3.524-1.067-3.516-1.377l-1.4-0.21c-0.02,0.114-0.1,0.72,0.411,1.378
		c0.706,0.913,2.186,1.459,4.4,1.622c1.864,0.139,5.152-0.456,6.231-5.984l-1.392-0.271C18.367,9.508,17.176,12.243,14.087,12.015z"
		/>
	<g>
		<path style="fill:#E60012;" d="M114.868,55.888c0,0-0.5-5.333-6-6.666c-5.5-1.334-10.333-1.167-10.333-1.167
			s2.832,5.167,7.166,8.167C110.035,59.222,113.535,58.722,114.868,55.888z"/>
		<path style="fill:#E60012;" d="M114.535,42.888c0,0,0.332-3.667-4.834-5.833c-5.166-2.167-8.666-1-8.666-1s0.499,4.5,5.666,7.667
			C111.868,46.888,113.869,43.888,114.535,42.888z"/>
		<path style="fill:#E60012;" d="M112.201,25.888c0,0-0.334-6-5-6.5c-4.666-0.5-8,0.167-9-0.333s2.834,3.833,4.167,6
			S109.534,29.722,112.201,25.888z"/>
		<path style="fill:#E60012;" d="M118.701,25.222c0,0-5.5,0.333-5.5-5.834c0-6.166,3.167-9.833,3.167-10.333s3.667,3.667,5.5,8.333
			C123.701,22.055,121.701,24.889,118.701,25.222z"/>
		<path style="fill:#E60012;" d="M121.701,26.722c0,0-2.5-4.167,2.667-7.667s9.5-4.167,9.5-4.167s-0.5,5.334-2.5,8.834
			S124.367,29.722,121.701,26.722z"/>
		<path style="fill:#E60012;" d="M126.701,42.555c0,0-3.167-4.166,1-7.833c4.167-3.667,10.5-5.5,10.5-5.5s0.333,4.833-2.5,9.5
			C132.868,43.388,130.701,44.721,126.701,42.555z"/>
		<path style="fill:#E60012;" d="M128.535,52.888c0,0-2-3.666,1.833-7.5c3.833-3.833,8.667-4.5,8.667-4.5s0.666,4.501-2.167,8.834
			C134.035,54.055,129.535,54.055,128.535,52.888z"/>
		<path style="fill:#E60012;" d="M56.535,37.555c0,0-5.5,1-6.667-4.167c-1.166-5.166,0.834-9.666,0.834-10.5
			c0,0,4.666,3.333,6.333,5.667C58.702,30.888,60.701,36.388,56.535,37.555z"/>
		<path style="fill:#E60012;" d="M41.035,34.055c0,0,1.834-3.667-2.333-7s-8.667-4.167-8.667-4.167s0,4,2,8
			S37.701,35.721,41.035,34.055z"/>
		<path style="fill:#E60012;" d="M32.702,37.388c0,0-0.5-4.833-6-4.833s-9.5,3.667-9.5,3.667s3.333,4,8,5
			C29.868,42.222,32.702,39.222,32.702,37.388z"/>
		<path style="fill:#E60012;" d="M44.702,204.721c0,0,3.333-3.332-0.5-7.666c-3.834-4.334-8-5.334-8-5.334s-0.167,4.166,0.833,7.5
			C38.035,202.555,40.035,205.387,44.702,204.721z"/>
		<path style="fill:#E60012;" d="M34.368,205.055c0,0,2.334-2.501-1.166-6.834c-3.5-4.333-8-4.5-8-4.5s-0.167,3.668,1.666,8.334
			C28.702,206.721,32.535,206.222,34.368,205.055z"/>
		<path style="fill:#E60012;" d="M28.035,209.388c0,0,0.167-5.334-7.333-5.667c-7.5-0.333-10,3.334-10,3.334s3.333,4.834,9.666,5.5
			C26.702,213.221,28.035,210.721,28.035,209.388z"/>
		<path style="fill:#E60012;" d="M33.535,214.221c0,0-3.833-2.5-7.333,1.167c-3.5,3.667-1.834,5.666-3.334,8.333
			c0,0,4.333-0.166,6.167-0.833C30.868,222.221,36.868,219.554,33.535,214.221z"/>
		<path style="fill:#E60012;" d="M96.868,213.055c0,0,2.833-4-1.167-8s-8.333-4.834-8.333-4.834s0.833,4.667,1.833,8.167
			S92.368,214.222,96.868,213.055z"/>
		<path style="fill:#E60012;" d="M51.368,215.555c0,0-3.667-3.167-7.833,1.333c-4.167,4.5-3.667,8.333-3.667,8.333
			s5.167-1,8.834-1.833C52.368,222.555,54.035,218.555,51.368,215.555z"/>
	</g>
</g>
</svg>
