<?xml version="1.0" encoding="iso-8859-1"?>
<!-- Generator: Adobe Illustrator 19.1.0, SVG Export Plug-In . SVG Version: 6.00 Build 0)  -->
<svg version="1.1" id="&#xB808;&#xC774;&#xC5B4;_1" xmlns="http://www.w3.org/2000/svg" xmlns:xlink="http://www.w3.org/1999/xlink"
	 x="0px" y="0px" viewBox="0 0 153.071 238.11" style="enable-background:new 0 0 153.071 238.11;" xml:space="preserve">
<rect style="fill:#E60012;" width="153.071" height="238.11"/>
<g>
	<path style="fill:#FFFFFF;" d="M7.283,16.055v173.667l2.333,37.333l1.667,1.333c0,0,2.333,2,5.5,2l118.333,0.167
		c0,0,9.999,0.166,10.666-10.167l0.167-204.167c0,0-0.834-8.499-10.167-8.833L16.116,7.555C16.116,7.555,9.283,8.055,7.283,16.055z"
		/>
	<path style="fill:#E60012;" d="M63.075,25.18c0,0-2.25,3.5-0.5,8.875l-3.25,4c0,0-1.125,3,2,5.5s5.125,3.125,5.125,3.125
		s2.875,0.875,4,2.25s2.875,4.125,3.375,4.25s7.375-0.125,7.375-0.125l2.375-2.625c0,0,3,2.125,6.125,2.5s6.375-1.25,7.5-2
		s5.125-5.375,5.125-5.375l0.25-2.625c0,0,2.5-2.625,3.5-4.625s3.375-6.75,3.125-8.375s-1.875-4.625-1.875-4.625L102.7,21.18
		c0,0-4.25-6.375-11.625-4.25c0,0-1.75-5.375-7.25-6s-9.5,2.625-11.375,5.125s-6.5,3.75-6.5,3.75L63.075,25.18z"/>
	<path style="fill:#E60012;" d="M14.95,185.055c0,0-1.333-6.667-1.5-9.167s-1.167-7-2.167-8.833c-1-1.833-1-4.833,0-6.5
		l-3.667-2.833l-0.5-25.5c0,0,2.5-3.166,6-3.5c0,0-2.333-6.167,1.833-10.334c4.166-4.167,8.833-5.333,10-5.833s5.167-4.834,6.5-7
		c1.333-2.167,9.833-7.167,9.833-7.167l7.5-3.333l6.667,0.333c0,0,4.5,0.833,5.667,0.833s2.667,0.001,3.5-0.333
		c0.834-0.333,10.167-2.333,16.334,2c6.167,4.333,9.167,2.167,9.167,2.167l18.166,4.833l3.167,3.667l1.5,6.333
		c0,0-0.666,5.833,1.167,9.5c1.833,3.667,6.5,11.667,4.5,17.667s-9,24.5-9,24.5l-4.334,7.167l-12.166,5.5l-3.5,0.833
		c0,0-11.5,8.834-13.333,12.167c-1.833,3.333-11,8.333-11,8.333l-20.167,1.167l-21-4.5l-7.5-4.834l-3.166-3.666L14.95,185.055z"/>
	<path style="fill:#FDD000;" d="M46.783,143.055c0,0,0.167,1.167,1.167,1.667s4,1.999,4.5,3.166c0.5,1.167,3.167,1.166,5,1.5
		s5.333,0.833,8.333-1c3-1.833,5-5.5,4.833-10c-0.166-4.5-2.667-6.499-3.5-7.166c-0.833-0.667-2-1.167-3-1.167
		c-1,0-1.5,0.833-2,1.333s-2.167,2.001-4,2.834c-1.833,0.833-4.5,2.166-5.333,3.333c-0.833,1.167-4,3.666-4.5,3.833
		C47.783,141.555,46.783,143.055,46.783,143.055z"/>
	<path d="M17.205,6.846c-5.861,0-10.63,4.769-10.63,10.63v203.158c0,5.861,4.768,10.63,10.63,10.63h118.824
		c5.861,0,10.63-4.769,10.63-10.63V17.476c0-5.861-4.768-10.63-10.63-10.63H17.205z M7.992,220.634V17.476
		c0-5.08,4.133-9.213,9.213-9.213h118.824c5.08,0,9.212,4.133,9.212,9.213v203.158c0,5.08-4.132,9.212-9.212,9.212H17.205
		C12.125,229.846,7.992,225.714,7.992,220.634z"/>
	<path d="M63.466,129.421c-0.532,0.266-1.186,0.891-1.944,1.614c-0.881,0.843-1.88,1.797-2.723,2.219l-1.511,0.581
		c-1.514,0.513-3.398,1.149-5.19,3.069c-3.061,3.279-4.662,4.447-5.465,4.85c-0.555,0.277-0.86,0.755-0.837,1.309
		c0.051,1.227,1.708,2.378,2.391,2.65c0.764,0.306,2.959,1.746,3.506,2.567c1.048,1.572,6.608,2.195,9.729,2.315
		c4.644,0.179,9.192-4.402,9.732-9.804c0.523-5.229-0.775-8.373-4.34-10.512l0.078,0.054
		C66.555,130.065,64.804,128.753,63.466,129.421z M47.267,143.022c1.339-0.67,3.259-2.355,5.868-5.15
		c1.548-1.658,3.173-2.208,4.608-2.693l1.691-0.656c1.034-0.518,2.115-1.55,3.069-2.461c0.618-0.591,1.257-1.201,1.598-1.372
		c0.379-0.189,1.369,0.325,1.908,0.753l0.037,0.029l0.041,0.024c3.106,1.863,4.132,4.431,3.66,9.156
		c-0.47,4.694-4.333,8.68-8.268,8.528c-5.112-0.197-8.272-1.186-8.604-1.685c-0.798-1.198-3.312-2.76-4.161-3.099
		c-0.558-0.223-1.414-1.015-1.48-1.353C47.249,143.034,47.267,143.022,47.267,143.022z"/>
	<path d="M55.562,120.682l-3.177,0.31l-5.808,0.522l-1.565,0.045c-3.464,0.062-8.698,0.158-11.588,3.353
		c-2.59,2.863-1.669,6.411-1.06,8.759c0.202,0.777,0.376,1.448,0.376,1.884c0,0.684-0.184,1.841-0.378,3.066
		c-0.366,2.311-0.781,4.93-0.443,6.731c0.344,1.836,1.199,3.094,2.285,3.364c0.621,0.155,1.231-0.052,1.632-0.553
		c0.035-0.044,3.811-4.394,10.631-4.568l-0.036-1.416c-7.573,0.193-11.663,5.051-11.702,5.1c-0.055,0.069-0.098,0.084-0.181,0.062
		c-0.295-0.073-0.933-0.639-1.236-2.251c-0.292-1.559,0.12-4.159,0.451-6.248c0.212-1.338,0.395-2.493,0.395-3.288
		c0-0.616-0.195-1.369-0.421-2.24c-0.597-2.297-1.338-5.155,0.738-7.451c2.479-2.739,7.344-2.828,10.563-2.887l1.617-0.047
		l5.878-0.528l3.137-0.307c1.737-0.134,5.272,1.041,5.574,4.358c0.31,3.418-1.087,6.436-1.102,6.467l1.282,0.606
		c0.064-0.137,1.579-3.387,1.231-7.202C62.295,122.367,58.233,120.477,55.562,120.682z"/>
	<path d="M33.919,153.515c0.257,1.413,2.017,2.795,3.881,4.259c0.974,0.765,1.981,1.555,2.627,2.26
		c0.489,0.533,0.995,1.363,1.531,2.242c1.394,2.283,3.127,5.125,6.025,4.987c2.445-0.117,3.633-1.54,4.124-2.379
		c0.726-1.24,0.848-2.737,0.31-3.813c-0.779-1.558-1.907-6.22-1.604-7.889c0.258-1.417,2.043-3.221,4.725-2.923l0.156-1.408
		c-3.35-0.372-5.866,1.827-6.275,4.077c-0.388,2.135,0.906,7.129,1.73,8.777c0.319,0.638,0.21,1.65-0.265,2.463
		c-0.346,0.591-1.191,1.594-2.968,1.679c-2.058,0.099-3.487-2.243-4.748-4.31c-0.573-0.939-1.114-1.826-1.696-2.461
		c-0.725-0.791-1.778-1.618-2.797-2.418c-1.426-1.12-3.201-2.514-3.362-3.398c-0.216-1.188,0.884-4.583,1.627-6.442l-1.315-0.527
		C35.413,146.823,33.56,151.538,33.919,153.515z"/>
	<path d="M68.36,146.883c2.908,1.126,6.152,4.619,7.714,8.306c0.919,2.172,1.117,4.098,0.556,5.423
		c-1.234,2.917-3.954,3.712-8.314,2.431c-2.364-0.695-6.381-0.619-9.609-0.558l-2.09,0.028c-2.65,0-4.317-1.611-4.334-1.628
		l-1,1.004c0.083,0.083,2.078,2.042,5.334,2.042l2.117-0.029c2.966-0.056,7.027-0.134,9.183,0.5
		c6.358,1.869,8.958-0.729,10.02-3.237c0.912-2.155,0.201-4.74-0.557-6.528c-1.725-4.071-5.223-7.804-8.507-9.075L68.36,146.883z"/>
	<path d="M77.199,133.018c-4.439,0.533-7.222,4.637-7.339,4.811l1.179,0.787c0.025-0.037,2.547-3.736,6.329-4.189
		c1.587-0.191,3.011,0.175,4.117,1.058c1.161,0.926,1.924,2.376,2.093,3.979c0.146,1.38-0.334,2.47-0.843,3.624
		c-0.552,1.251-1.177,2.67-0.99,4.539l0.091,0.884c0.312,2.983,0.608,5.801-0.555,9.146c-0.836,2.404-2.26,3.48-4.23,3.198
		l-0.201,1.402c2.661,0.382,4.71-1.087,5.769-4.136c1.268-3.645,0.941-6.753,0.627-9.759l-0.091-0.877
		c-0.149-1.498,0.349-2.63,0.877-3.827c0.561-1.272,1.141-2.589,0.956-4.344c-0.209-1.978-1.163-3.777-2.619-4.938
		C80.958,133.251,79.171,132.782,77.199,133.018z"/>
	<path d="M69.4,121.626c-2.185,1.406-7.847,2.388-7.903,2.398l0.239,1.396c0.244-0.042,6.004-1.041,8.431-2.603
		c1.292-0.831,4.635-2.666,7.75-1.75c2.2,0.647,2.833,1.873,2.336,4.523c-0.478,2.548-0.727,7.008,0.049,8.752l1.295-0.576
		c-0.578-1.299-0.45-5.25,0.049-7.914c0.395-2.102,0.478-5.023-3.329-6.145C74.64,118.627,70.856,120.689,69.4,121.626z"/>
	<path d="M78.662,111.407c-1.394,0.619-5.942,1.606-7.878,1.606c-2.389,0-5.452,0.639-6.887,2.433
		c-1.333,1.666-4.717,6.498-4.861,6.703l1.161,0.813c0.035-0.05,3.502-5,4.806-6.63c1.122-1.403,3.815-1.901,5.78-1.901
		c2.161,0,6.884-1.03,8.455-1.728c1.129-0.501,4.912,0.156,6.418,3.016c1.613,3.064,4.317,7.211,6.153,8.863
		c1.597,1.438,2.197,4.944,1.605,9.38c-0.575,4.309-4.486,7.552-9.512,7.887l0.094,1.414c5.707-0.38,10.157-4.128,10.822-9.113
		c0.664-4.973-0.088-8.844-2.062-10.62c-1.65-1.487-4.269-5.474-5.847-8.471C85.076,111.574,80.463,110.607,78.662,111.407z"/>
	<path d="M75.573,163.177c0.066,0.08,1.623,2.008,1.174,5.453c-0.476,3.647-4.024,5.815-6.097,6.782l-2.204,0.987
		c-2.606,1.147-5.849,2.575-7.422,3.755c-1.613,1.21-3.566,2.215-6.903,1.38c-3.107-0.777-6.037-4.058-6.813-7.63
		c-0.769-3.538,0.766-6.846,0.781-6.879l-1.28-0.608c-0.072,0.152-1.761,3.765-0.886,7.788c0.883,4.062,4.259,7.805,7.854,8.704
		c3.922,0.981,6.294-0.269,8.097-1.62c1.443-1.082,4.603-2.475,7.143-3.593l2.232-0.999c2.336-1.091,6.339-3.566,6.903-7.884
		c0.534-4.097-1.413-6.451-1.496-6.55L75.573,163.177z"/>
	<path d="M24.716,126.219c-1.948,0.682-8.209,3.628-6.969,12.93c1.018,7.63,5.013,15.926,9.338,16.114
		c3.88,0.169,7.688-0.647,7.848-0.683l-0.301-1.385c-0.038,0.008-3.795,0.812-7.486,0.651c-3.164-0.138-6.975-7.232-7.995-14.886
		c-1.099-8.24,4.338-10.812,6.031-11.404c3.128-1.094,7.621-0.474,7.666-0.468l0.2-1.402
		C32.852,125.659,28.172,125.01,24.716,126.219z"/>
	<path d="M56.311,109.86c-1.606,0.321-6.729,0.981-8.807,0.822c-2.364-0.182-11.242,1.207-14.415,4.732
		c-3.085,3.428-4.759,10.351-4.829,10.644l1.379,0.328c0.016-0.068,1.661-6.865,4.504-10.024c2.701-3.002,10.989-4.441,13.252-4.268
		c2.234,0.172,7.482-0.503,9.193-0.845c0.059-0.012,5.971-1.133,9.996,3.44l1.063-0.937
		C64.001,109.609,58.637,109.394,56.311,109.86z"/>
	<path d="M20.497,157.878c-1.13,2.035,1.291,5.861,4.211,7.923c2.689,1.898,7.205,5.392,10.107,7.952
		c2.139,1.888,6.713,2.981,9.79,2.34c1.335-0.278,2.253-0.88,2.654-1.738l-1.284-0.6c-0.202,0.432-0.791,0.77-1.66,0.95
		c-2.611,0.545-6.772-0.435-8.562-2.015c-2.938-2.592-7.507-6.128-10.227-8.048c-2.792-1.97-4.313-5.134-3.789-6.077
		c0.616-1.108,3.298-3.089,4.28-3.758l-0.799-1.172C24.828,153.902,21.386,156.278,20.497,157.878z"/>
	<path d="M93.286,136.912c0.025,0.006,2.483,0.614,3.17,2.398c0.775,2.015,1.413,7.311-0.133,10.248
		c-1.786,3.392-1.915,6.543-1.915,11.33c0,5.179-2.117,10.947-2.941,11.366l-0.807,0.45c-1.574,0.914-4.505,2.616-6.699,1.398
		c-2.826-1.57-5.908-5.757-5.938-5.799l-1.145,0.836c0.133,0.183,3.295,4.479,6.396,6.201c2.897,1.609,6.28-0.356,8.099-1.411
		l0.728-0.408c1.884-0.94,3.726-8.029,3.726-12.634c0-4.992,0.173-7.672,1.751-10.67c1.854-3.52,1.03-9.264,0.201-11.418
		c-0.957-2.487-4.035-3.237-4.166-3.268L93.286,136.912z"/>
	<path d="M86.668,102.373c-0.791,0.543-1.297,1.468-1.423,2.604c-0.191,1.717-1.032,6.573-1.886,7.852l1.18,0.786
		c1.3-1.951,2.107-8.417,2.114-8.481c0.057-0.51,0.245-1.199,0.816-1.592c0.579-0.397,1.464-0.442,2.632-0.135
		c3.039,0.799,8.193,5.235,9.059,6.821c0.838,1.537,2.09,6.361,0.608,11.463c-1.385,4.771-5.566,6.699-5.608,6.718l0.577,1.294
		c0.195-0.087,4.818-2.196,6.393-7.618c1.547-5.328,0.376-10.517-0.726-12.536c-1.091-2-6.626-6.641-9.941-7.513
		C88.878,101.619,87.602,101.732,86.668,102.373z"/>
	<path d="M65.905,95.059c-1.648,0.267-3.206,0.52-4.245,0.455l-2.144-0.313c-2.503-0.452-5.617-1.015-8.593,0.744
		c-4.382,2.589-6.686,5.7-6.848,9.245c-0.18,3.96,2.78,6.62,2.906,6.73l0.939-1.062c-0.026-0.023-2.578-2.335-2.429-5.604
		c0.138-3.037,2.208-5.758,6.152-8.088c2.522-1.49,5.231-1.001,7.621-0.57l2.308,0.334c1.198,0.075,2.756-0.178,4.561-0.471
		c2.347-0.38,5.008-0.812,7.229-0.534c5.131,0.642,7.635,2.657,7.881,6.344c0.321,4.819-0.801,9.231-0.812,9.275l1.372,0.355
		c0.049-0.188,1.191-4.669,0.854-9.725c-0.295-4.422-3.277-6.926-9.119-7.656C71.114,94.215,68.347,94.664,65.905,95.059z"/>
	<path d="M35.492,102.075c-2.299,1.034-4.504,3.458-6.636,5.802c-1.125,1.236-2.187,2.404-3.21,3.314
		c-1.008,0.896-2.226,1.323-3.636,1.816c-2.428,0.85-5.45,1.908-8.306,5.973c-2.683,3.817-2.115,8.267-0.689,11.157
		c1.315,2.665,3.386,4.374,5.405,4.458l0.059-1.416c-1.456-0.061-3.142-1.535-4.194-3.669c-1.614-3.272-1.398-6.904,0.577-9.715
		c2.595-3.693,5.262-4.627,7.615-5.45c1.487-0.521,2.892-1.013,4.109-2.095c1.08-0.96,2.167-2.155,3.317-3.42
		c2.035-2.237,4.139-4.55,6.17-5.464c1.712-0.77,3.314-0.876,4.287-0.285c0.643,0.391,0.996,1.068,1.048,2.012l0.333,6.825
		l1.416-0.062l-0.334-6.842c-0.1-1.792-0.994-2.699-1.727-3.145C39.705,101.024,37.662,101.099,35.492,102.075z"/>
	<path d="M6.64,132.425l1.287,0.594c1.754-3.801,4.995-3.601,5.132-3.591l0.119-1.412C13.001,128.001,8.823,127.695,6.64,132.425z"
		/>
	<path d="M14.559,157.716c-2.122,0.707-3.651,1.942-4.423,3.57c-0.745,1.572-0.751,3.424-0.015,5.354
		c1.444,3.791,2.801,7.702,2.955,10.619c0.066,1.266,0.903,9.168,1.982,9.886c0.778,0.519,1.69,0.774,3.833,0.443
		c2.105-0.323,10.679-1.304,14.178-0.19c2.483,0.789,6.388,0.671,9.517-1.372c2.955-1.93,4.766-5.294,5.236-9.729l-1.409-0.15
		c-0.43,4.055-1.978,6.978-4.602,8.692c-2.725,1.779-6.219,1.873-8.312,1.208c-3.699-1.177-12.153-0.27-14.823,0.141
		c-1.873,0.288-2.407,0.036-2.732-0.172c-0.389-0.769-1.283-5.624-1.452-8.831c-0.172-3.269-1.662-7.417-3.045-11.049
		c-0.302-0.793-0.453-1.561-0.453-2.286c0-0.7,0.142-1.359,0.425-1.957c0.602-1.271,1.844-2.25,3.59-2.833
		c3.63-1.21,5.775-0.212,5.796-0.202l0.63-1.27C21.328,157.536,18.789,156.305,14.559,157.716z"/>
	<path d="M6.412,156.462c0.38,3.612,4.517,4.732,4.692,4.778l0.36-1.371c-0.034-0.009-3.366-0.924-3.643-3.556L6.412,156.462z"/>
	<path d="M88.081,175.327c0.98,0.6,1.507,1.328,1.564,2.166c0.065,0.957-0.5,2.048-1.478,2.847l-1.316,1.056
		c-2.085,1.655-5.234,4.157-8.069,6.992c-3.853,3.853-8.785,3.592-10.727,3.3c-2.471-0.37-9.159,0.519-13.584,1.107
		c-1.49,0.198-2.897,0.385-3.187,0.385c-0.141,0-1.428-0.168-3.154-5.992c-1.267-4.274-0.163-9.937-0.151-9.993l-1.39-0.277
		c-0.049,0.245-1.185,6.058,0.182,10.673c1.397,4.716,2.874,7.008,4.513,7.008c0.367,0,1.354-0.13,3.374-0.397
		c4.083-0.543,10.915-1.451,13.188-1.11c2.154,0.323,7.629,0.61,11.939-3.7c2.777-2.777,5.89-5.249,7.948-6.885l1.334-1.067
		c1.346-1.103,2.091-2.613,1.993-4.042c-0.062-0.908-0.502-2.215-2.24-3.277L88.081,175.327z"/>
	<path d="M103.232,108.053c-1.778,0.969-2.896,2.89-2.99,5.139l1.416,0.06c0.073-1.747,0.915-3.225,2.253-3.954
		c1.084-0.591,2.305-0.578,3.347,0.035c2.821,1.659,4.514,3.543,4.818,8.268c0.239,3.71,1.128,5.959,2.741,10.042l2.466,6.485
		c2.401,6.699-0.188,8.766-2.928,10.953l-1.906,1.641c-2.723,2.723-3.495,6.946-4.39,11.838l-0.472,2.527
		c-1.073,5.517-5.006,7.454-8.116,8.108c-2.934,0.617-5.453-0.142-5.479-0.149l-0.421,1.354c0.116,0.036,2.882,0.879,6.19,0.183
		c3.53-0.742,7.995-2.945,9.216-9.224l0.476-2.544c0.887-4.85,1.587-8.681,3.997-11.091l1.789-1.535
		c2.869-2.29,6.121-4.886,3.377-12.539l-2.481-6.527c-1.561-3.949-2.421-6.126-2.646-9.612c-0.344-5.329-2.364-7.547-5.514-9.399
		C106.516,107.252,104.743,107.23,103.232,108.053z"/>
	<path d="M90.675,16.401c-5.938,2.49-6.686,11.475-6.932,14.428c-0.127,1.526-0.621,3.434-1.144,5.454
		c-0.812,3.135-1.733,6.688-1.524,9.818c0.161,2.425,1.938,4.747,4.751,6.21c3.436,1.787,7.391,1.792,10.323,0.015
		c5.423-3.287,6.369-7.895,6.479-8.554c0.234-0.632,0.844-1.217,1.555-1.894c1.528-1.453,3.621-3.442,3.972-7.768
		c0.036-0.441,0.053-0.857,0.053-1.249c0-3.31-1.198-4.981-2.362-6.603c-0.736-1.028-1.433-1.999-1.889-3.421
		c-0.806-2.517-3.024-4.873-5.79-6.147C95.654,15.533,92.993,15.43,90.675,16.401z M86.481,51.055
		c-2.335-1.215-3.865-3.149-3.991-5.047c-0.193-2.903,0.696-6.338,1.481-9.369c0.539-2.08,1.048-4.045,1.185-5.692
		c0.621-7.456,2.605-11.787,6.068-13.239c1.946-0.816,4.201-0.72,6.351,0.271c2.379,1.097,4.355,3.174,5.033,5.292
		c0.523,1.636,1.318,2.744,2.087,3.815c1.258,1.753,2.344,3.267,2.049,6.912c-0.308,3.786-2.022,5.417-3.536,6.855
		c-0.814,0.774-1.583,1.506-1.925,2.463l-0.024,0.067l-0.011,0.072c-0.006,0.045-0.713,4.557-5.832,7.66
		C92.413,52.935,88.831,52.277,86.481,51.055z"/>
	<path d="M70.942,18.503c-2.209,6.827-0.398,12.46,4.724,14.701c5.624,2.461,8.875,0.364,9.011,0.274l-0.782-1.182
		c-0.111,0.072-2.794,1.739-7.66-0.39c-5.257-2.3-5.484-8.206-3.943-12.966c1.795-5.55,7.385-7.928,11.732-7.349
		c4.49,0.599,6.237,5.638,6.255,5.689l1.344-0.449c-0.08-0.242-2.034-5.928-7.411-6.645C79.294,9.53,72.974,12.223,70.942,18.503z"
		/>
	<path d="M62.383,24.963c-2.092,2.789-1.235,6.484-0.669,8.931l0.363,1.882c0.038,0.49-0.079,1.282-0.201,2.119
		c-0.375,2.557-0.942,6.42,2.035,8.263c1.644,1.018,2.969,1.538,4.033,1.956c1.211,0.475,2.01,0.789,2.62,1.551
		c0.991,1.239,4.22,2.257,7.057,1.765c2.411-0.418,4.081-1.793,4.832-3.977l-1.34-0.461c-0.581,1.689-1.838,2.713-3.735,3.042
		c-2.563,0.445-5.152-0.559-5.709-1.254c-0.846-1.057-1.888-1.466-3.208-1.984c-1.011-0.397-2.27-0.891-3.805-1.842
		c-2.185-1.353-1.738-4.402-1.378-6.852c0.141-0.958,0.262-1.786,0.212-2.434l-0.395-2.093c-0.538-2.321-1.274-5.5,0.422-7.76
		c2.286-3.047,7.305-3.716,7.355-3.722l-0.176-1.406C70.465,20.714,65.033,21.43,62.383,24.963z"/>
	<path d="M69.081,95.296l1.405,0.184c0.15-1.145,3.672-28.084,3.838-32.565l-1.416-0.053C72.744,67.278,69.117,95.017,69.081,95.296
		z"/>
	<path d="M62.45,26.055c0,0,3-4,8.25-4.375c0,0,1.875-5.875,3.125-6.625c0,0-5.125-3-10-3.5s-14-1.125-17.5-2.75
		c0,0-2.625-1.125-0.875,0.125s5.25,4,7.5,6.375S59.45,23.93,62.45,26.055z"/>
	<path d="M61.95,32.68c0,0-7.625-0.25-12.125,1.75S38.2,41.18,35.2,41.68s-7,1.125-6.5,1.5s2.25,0.5,3.75,0.375
		s7.875,0.75,11.125,1.625s7.75,2.25,13.75,3.625s10.5-1.5,10.5-1.5s-3.125-1-4.75-2.75s-0.875-4.75-0.625-6
		S62.825,34.305,61.95,32.68z"/>
	<path d="M67.95,47.68c0,0,1.75,2.75,2,3.875s1.5,14.125,2.875,17.125c0,0,0.625,0,1.5-0.75s9.75-9.125,11.25-10.125
		s3.875-4.625,3.875-4.625s-6.5-2.375-7.5-5.625c0,0-1.375,2.625-4.875,3.125s-4.75-0.875-6.25-1.875S67.95,47.68,67.95,47.68z"/>
	<path d="M102.075,20.555c0,0,5.125-1.125,9.25-0.125s7,2.25,10.5,2.125s5.875-0.5,6.875-0.625s3.25,0.625,2.25,1.125
		s-6,3.75-7.375,5s-5.25,3.625-8.875,4.875s-7,2.75-7.875,3.875c0,0,1.375-4.375,0.625-6.375s-2.75-3.75-3.25-5.625
		S102.075,20.555,102.075,20.555z"/>
	<path d="M95.783,51.721c0,0,5.667-4.416,6.167-8.166l0.75-1.25c0,0,3.75,1.75,4.875,2.25s7,3.25,7.875,9.625s2.25,12.875,2.625,14
		s1.125,1.875-0.25,1s-7-3.875-10.125-5.375C104.575,62.305,96.866,57.638,95.783,51.721z"/>
	<path d="M84.2,112.805c0,0,1.625-6,1.75-7.75s1.875-3,3.375-2.625s8.375,4.625,9.5,5.875s2.125,3.875,2.125,3.875
		c1.75-4.625,5-5,8.25-2.25s3.875,7.875,3.875,7.875c2.25-5.5,8-7.125,14.125-5.125s11.375,6.625,11.75,7.75s1.5,1.25,1.5,1.25
		c1.5-6.75-0.125-18.625-6.75-27.125s-15.5-10.75-17.25-11s-4.875-1-4.875-1c7.375-6.75,8.25-12.75,7.75-14.25s-1.5-0.625-1.5-0.625
		c-5.375,6.25-14,6.875-17.625,7.875s-11.75,2.375-16.375,8s-4.875,13.25-4.875,13.25s3.25,1.75,3,5.125s-1.25,10-1.25,10
		L84.2,112.805z"/>
	<path d="M118.95,139.18c0,0,7.125-1.625,13.75,4.875s10.5,10,12.875,10.125l0.125,1.125c0,0-4,6.5-11.875,8.5c0,0,5.625,3.375,8,14
		s0.25,13.875,1,19.5s3,10.125,3,10.125l0.125,1.5c0,0-3.5-3.75-7.5-4.625s-14-3.25-18.5-7.375c0,0,0.125,3.375,1.25,5.875
		s2.125,6.375,2.125,6.375s-0.5,0.5-1.5-0.375s-8.5-4-12-4.75s-16.625-7.375-20.5-24c0,0,3.75-2.625-1.375-5.25
		c0,0,3.375-1.5,4.25-2.5s1.25-2.25,1.25-2.25s7,1.625,11.375-2.625s4.375-11.25,4.375-11.25s0.625-6,3-8.5
		S118.075,144.555,118.95,139.18z"/>
	<path d="M78.2,190.18c0,0,0.375,3.875-3.25,8.625s-8.875,9.375-11.75,12.375s-6.25,12.125-6.5,18.875l-1.125,0.625
		c0,0,0.625-0.875-1.25-2.75s-8.5-5.125-10-9.75c0,0-4.375,6-11.25,6.5s-17.75,0-21.5,3.875c0,0-4.375-1.375-4.375-7.25v-32.25
		c0,0,3.625-4.125,7.125-5.5c0,0,0.625,3.625,3.125,3.5c2.5-0.125,9.625-1.25,13.75-0.5s13.25,0.75,15-5.875c0,0,0.375,4,2,8.75
		s2.5,4.625,4.875,4.25s12.625-1.375,15.75-1.25S76.7,191.18,78.2,190.18z"/>
	<path d="M30.7,106.93c0,0-6.75,1-10.75-4.75s-7.5-13.625-12.375-11.125l-0.125-3c0,0,2.75-7.875,10.25-8.875
		c0,0-3.625-5-4.625-11.375S12.2,55.43,7.575,50.93l-0.75-2c0,0,3.75,4.375,6.5,6.625s7.25,3.375,12.625,4.25s13,2.125,15.125,6.5
		c0,0,1.625-3.875,3.75-7s4-7.875,3.75-10.875c0,0,0.5-0.75,1.25,1.625S51.7,58.18,52.95,61.43c1.25,3.25,5.75,10.125,5.375,18.75
		s-3.5,13-2.75,14.75l-0.125,0.5c0,0-3.875,0.625-6.5,2.875c0,0-2.875,1.75-4,5.25s1.75,7.5,1.75,7.5s0.125,0.25-0.75,0.5
		s-3.875,0.625-3.875,0.625s0.5-5.5-0.25-8.25S35.825,100.805,30.7,106.93z"/>
</g>
</svg>
