<?xml version="1.0" encoding="iso-8859-1"?>
<!-- Generator: Adobe Illustrator 19.1.0, SVG Export Plug-In . SVG Version: 6.00 Build 0)  -->
<svg version="1.1" id="&#xB808;&#xC774;&#xC5B4;_1" xmlns="http://www.w3.org/2000/svg" xmlns:xlink="http://www.w3.org/1999/xlink"
	 x="0px" y="0px" viewBox="0 0 153.071 238.11" style="enable-background:new 0 0 153.071 238.11;" xml:space="preserve">
<rect style="fill:#E60012;" width="153.071" height="238.11"/>
<g>
	<path style="fill:#FFFFFF;" d="M7.694,16.555v205.167c0,0-0.333,8.499,10.333,8.666l118.834,0.167c0,0,7.5-0.667,8.333-9.5v-205
		c0,0-0.666-8-9.833-8.5L16.361,7.388C16.361,7.388,8.194,8.055,7.694,16.555z"/>
	<g>
		<path d="M83.862,226.222c0,0,3.166-2.501,4.333-3.834c1.167-1.333,7-5.834,12-5s4.834,6.166,2.167,8
			c-2.667,1.834-7.167,1.666-10.167,1.5S83.862,226.222,83.862,226.222z"/>
		<path d="M59.528,212.722c0,0,3.166-3.501,4.333-4.834c1.167-1.333,7.334-5.834,12.5-4.5c5.167,1.334,4.5,5.5,1.166,7.667
			c-3.333,2.167-9,2.499-11.666,2.333C63.194,213.222,59.528,212.722,59.528,212.722z"/>
		<path d="M108.528,187.222c0,0-0.166,3.5-0.666,6.333c-0.5,2.833-1,10.167,3.333,12.667c4.333,2.5,8.333,0.333,7.333-5.667
			s-4.166-7.166-6.166-8.833C110.362,190.055,108.528,187.222,108.528,187.222z"/>
		<path d="M133.028,166.388c0,0-2.332,3.5-3.666,5.167c-1.334,1.667-3.666,6.666-2,10.833c1.666,4.167,7.166,3.168,8.666,0.834
			s1.5-7.168,0.167-10.334C134.862,169.722,133.028,166.388,133.028,166.388z"/>
		<path d="M117.028,152.388c0,0-0.999,4.834-1.666,6.334c-0.667,1.5-3.5,7.333-1,12.333s7.5,3.001,9-0.833s-0.5-8.666-2.5-12
			S117.028,152.388,117.028,152.388z"/>
		<path d="M78.027,142.388c0,0-0.666,4.5-0.666,7s-0.5,9.5,5,12.167c5.5,2.667,7.332-0.334,6.666-4.667
			c-0.666-4.333-2.834-6.5-5.5-8.833C80.862,145.722,78.027,142.388,78.027,142.388z"/>
		<path d="M72.028,181.555c0,0,2.833-2.5,4.333-4.5s6.834-5.5,10.334-5s6.667,4.834,4,7.667c-2.667,2.833-6.499,2.166-9.833,1.833
			C77.527,181.222,72.028,181.555,72.028,181.555z"/>
		<path d="M141.695,126.722c0,0-3.667,3.167-6,5c-2.333,1.833-4.5,6-3,10s7.167,4.166,8.667-1.167
			C142.862,135.222,141.695,126.722,141.695,126.722z"/>
		<path d="M77.194,138.055c0,0,4.667-3.334,7.001-4.167c2.333-0.833,12.5-1.5,13.5,3.667c1,5.167-4.667,5.833-10.667,4
			C81.028,139.722,77.194,138.055,77.194,138.055z"/>
		<path d="M56.361,138.555c0,0,2.333-3.167,3.333-5.5c1-2.333,4.833-7,10.667-7.5c5.833-0.5,7.333,4.666,4.667,7.833
			c-2.667,3.167-9.667,3.666-11.834,4C61.028,137.722,56.361,138.555,56.361,138.555z"/>
		<path d="M39.028,141.555c0,0,1.667-4.5,2-6.5c0.333-2,3.5-7.167,8-8s7.833,2.167,6.667,6.167s-5.999,6-10.166,6.833
			C41.361,140.888,39.028,141.555,39.028,141.555z"/>
		<path d="M7.861,139.222c0,0,3.5-4.001,4.5-5.834c1-1.833,5-6.166,9.333-6.166s6.333,4.834,2.833,8s-9.334,4.166-11.167,4.166
			S7.861,139.222,7.861,139.222z"/>
		<path d="M25.861,99.555c0,0,3.5,5.167,5.167,8c1.667,2.834,6,4.667,10,4.667s5.5-2.333,3.666-6.167
			c-1.833-3.833-5.833-5.666-10.833-6C28.861,99.721,25.861,99.555,25.861,99.555z"/>
		<path d="M52.528,87.055c0,0,0.333,5.001,0.167,7.334s0.667,7.333,4.667,9.833s8.333-0.334,8.333-3c0-2.667-1.499-7.5-6.167-9.667
			C54.861,89.388,52.528,87.055,52.528,87.055z"/>
		<path d="M72.361,92.721c0,0,0,5.166,0.167,8c0.166,2.833,0.667,8,5.833,9.5c5.167,1.5,7.5-2.334,6.5-6
			c-1-3.667-3.167-5.834-6.834-8C74.361,94.055,72.361,92.721,72.361,92.721z"/>
		<path d="M99.028,97.388c0,0-0.499,4.833-1.166,7c-0.667,2.166-1.959,6.941,1.5,10.833c2.666,3,8.5,2.333,8.5-3s-2.166-7.834-4-9.5
			C102.028,101.055,99.028,97.388,99.028,97.388z"/>
		<path d="M115.695,104.388c0,0-1.834,4.166-2.667,6.333s-3.166,7.832,0.334,11.666s7.5,0.667,8.5-1.999
			c1-2.667-0.167-6.833-2.167-10S115.695,104.388,115.695,104.388z"/>
	</g>
	<path d="M59.525,113.866c-13.179,3.233-35.928,14.941-36.156,15.059l0.65,1.26c0.227-0.117,22.828-11.749,35.844-14.941
		c12.466-3.058,26.771-0.294,45.018,8.697c14.673,7.229,29.224,24.331,39.923,46.918l1.281-0.607
		c-6.366-13.439-20.104-37.493-40.577-47.582C86.945,113.522,72.333,110.725,59.525,113.866z"/>
	<path d="M103.362,123.208c0.113,0.163,11.376,16.406,20.787,27.798l20.254,24.256l1.084-0.914l-20.246-24.244
		c-9.371-11.345-20.601-27.54-20.713-27.702L103.362,123.208z"/>
	
		<rect x="104.236" y="128.291" transform="matrix(-0.0537 -0.9986 0.9986 -0.0537 -26.7797 249.7303)" width="1.418" height="18.527"/>
	<path d="M99.253,100.709l1.383-0.309c-0.057-0.256-5.604-25.913,2.986-54.139l-1.355-0.413
		C93.563,74.446,99.195,100.45,99.253,100.709z"/>
	<path d="M93.894,45.538c0.347,0.695,5.141,6.16,6.601,7.818l1.065-0.937c-2.899-3.289-6.127-7.045-6.404-7.526L93.894,45.538z"/>
	<path d="M98.772,62.662l1.18,0.786c3.318-4.978,9.048-13.171,10.291-13.962l-0.762-1.195
		C107.577,49.503,99.667,61.318,98.772,62.662z"/>
	<path d="M89.749,58.078c1.209,2.071,8.014,8.24,8.303,8.502l0.951-1.051c-1.924-1.741-7.118-6.602-8.029-8.165L89.749,58.078z"/>
	<polygon points="88.861,74.389 97.851,83.712 98.873,82.73 89.863,73.387 	"/>
	<path d="M97.666,79.416l1.057,0.944c1.013-1.133,9.916-11.11,10.605-12.489l-1.267-0.634
		C107.606,68.147,101.444,75.19,97.666,79.416z"/>
	<polygon points="87.891,88.418 98.712,98.407 99.677,97.369 88.832,87.358 	"/>
	<path d="M98.649,93.77l1.092,0.903c10.417-12.602,10.574-13.072,10.626-13.227l-1.307-0.537
		C108.68,81.562,102.472,89.144,98.649,93.77z"/>
	<path d="M35.988,30.112c3.144,38.396,16.968,60.602,17.107,60.822l1.197-0.758C54.156,89.958,40.514,68.019,37.4,29.997
		L35.988,30.112z"/>
	<path d="M38.892,48.908l1.271,0.627c0.058-0.118,5.816-11.779,7.735-14.019l-1.076-0.922
		C44.788,36.968,39.132,48.421,38.892,48.908z"/>
	<path d="M29.877,42.688c2.236,1.118,8.636,6.361,8.701,6.414l0.899-1.096c-0.268-0.22-6.589-5.397-8.966-6.586L29.877,42.688z"/>
	<path d="M33.361,58.18c2.989,1.594,7.687,4.175,8.38,4.752l0.907-1.089c-1.026-0.855-7.846-4.501-8.62-4.914L33.361,58.18z"/>
	<path d="M43.069,66.722l1.251,0.666c0.081-0.153,8.169-15.336,9.148-16.968l-1.215-0.73C51.255,51.353,43.403,66.095,43.069,66.722
		z"/>
	<path d="M40.351,76.741c0.462,0.133,4.311,1.963,7.699,3.617l0.622-1.273c-1.697-0.829-7.286-3.546-7.973-3.717L40.351,76.741z"/>
	<rect x="52.652" y="65.2" transform="matrix(-0.8198 -0.5726 0.5726 -0.8198 54.9453 164.5634)" width="1.417" height="16.876"/>
	<path d="M39.041,91.521c0.511,0.259,12.533,6.349,14.033,7.015l0.575-1.295c-1.466-0.652-13.842-6.921-13.967-6.985L39.041,91.521z
		"/>
	<path d="M61.199,103.974c0.111,0.293,2.77,7.204,6.039,9.957l0.913-1.084c-2.988-2.517-5.602-9.309-5.628-9.377L61.199,103.974z"/>
	<path d="M43.346,111.172c3.627,2.045,8.965,5.156,9.472,5.671l1.109-0.88c-0.513-0.684-6.414-4.068-9.885-6.025L43.346,111.172z"/>
	<path d="M51.976,128.11l1.105,0.889c4.412-5.481,11.19-13.851,11.782-14.443l-1.002-1.002
		C63.023,114.39,53.104,126.709,51.976,128.11z"/>
	<path d="M73.352,127.268l0.686,1.24c0.156-0.087,15.666-8.66,18.921-9.962l-0.527-1.315
		C89.096,118.565,73.993,126.913,73.352,127.268z"/>
	<polygon points="81.126,109.478 86.285,116.466 87.439,115.643 82.263,108.632 	"/>
	<path d="M103.012,115.911c0.069,0.25,1.721,6.153,3.282,8.235l1.135-0.85c-1.403-1.871-3.035-7.707-3.052-7.766L103.012,115.911z"
		/>
	<path d="M115.823,123.122c0.229,2.41,0.663,7.204,0.663,8.1h1.418c0-1.186-0.643-7.947-0.671-8.234L115.823,123.122z"/>
	<path d="M125.82,140.59l1.416-0.07c-0.164-3.269-0.001-10.047,0-10.114l-1.416-0.035C125.813,130.65,125.654,137.269,125.82,140.59
		z"/>
	<path d="M133.851,150.847l1.35,0.432c0.171-0.515,0.778-5.75,1.031-7.976l-1.408-0.16
		C134.513,145.876,133.973,150.387,133.851,150.847z"/>
	<path d="M85.669,162.197c0.334,0.369,33.703,37.081,58.85,50.977l0.685-1.24c-24.939-13.782-58.151-50.321-58.484-50.689
		L85.669,162.197z"/>
	<path d="M127.492,199.301l1.406,0.174c0.728-5.885,1.856-14.848,1.985-15.419l-1.376-0.34
		C129.338,184.39,127.798,196.816,127.492,199.301z"/>
	<path d="M116.998,172.515c0.636,3.493-2.137,17.761-2.165,17.904l1.391,0.272c0.117-0.598,2.852-14.675,2.169-18.43
		L116.998,172.515z"/>
	<path d="M100.486,163.888c0,4.449-2.737,10.306-2.765,10.364l1.281,0.605c0.118-0.251,2.901-6.199,2.901-10.97H100.486z"/>
	<path d="M26.944,188.981l0.833,1.146c25.617-18.601,53.538-14.911,53.818-14.872l0.199-1.402
		C81.51,173.812,53.042,170.031,26.944,188.981z"/>
	
		<rect x="93.569" y="170.888" transform="matrix(-0.0193 -0.9998 0.9998 -0.0193 -79.0123 272.7726)" width="1.417" height="8.502"/>
	
		<rect x="102.236" y="179.528" transform="matrix(-0.1268 -0.9919 0.9919 -0.1268 -65.3359 308.0915)" width="1.418" height="6.553"/>
	<path d="M77.652,205.015l0.083,1.414c0.281-0.016,28.528-1.354,63.224,22.543l0.805-1.168
		C106.636,203.611,77.938,204.997,77.652,205.015z"/>
	<path d="M127.175,211.396c0,0,2.285,9,2.529,9.964c-0.861,0.466-7.847,4.237-7.847,4.237l0.674,1.248l8.819-4.763l-2.803-11.036
		L127.175,211.396z"/>
	<path d="M114.326,207.15c0,0,0.803,5.886,0.928,6.801c-0.917,0.397-13.341,5.786-13.341,5.786l0.565,1.301l14.325-6.214
		l-1.072-7.865L114.326,207.15z"/>
	<rect x="62.226" y="168.679" transform="matrix(-0.756 -0.6545 0.6545 -0.756 11.3724 343.0151)" width="14.77" height="1.418"/>
	
		<rect x="51.736" y="170.346" transform="matrix(-0.8281 -0.5606 0.5606 -0.8281 10.6442 345.3735)" width="13.083" height="1.418"/>
	<path d="M38.36,173.556c0.498,0.498,6.748,3.079,11.903,5.156l0.53-1.314c-4.109-1.656-10.859-4.446-11.477-4.885L38.36,173.556z"
		/>
	<rect x="29.811" y="180.68" transform="matrix(-0.9487 -0.3163 0.3163 -0.9487 8.9427 364.2278)" width="8.433" height="1.417"/>
	<rect x="40.319" y="180.067" transform="matrix(-0.9266 -0.3761 0.3761 -0.9266 8.8113 375.1627)" width="1.418" height="13.308"/>
	<rect x="52.153" y="175.979" transform="matrix(-0.856 -0.5169 0.5169 -0.856 4.4808 363.5243)" width="1.417" height="10.318"/>
	<rect x="66.735" y="174.286" transform="matrix(-0.9016 -0.4326 0.4326 -0.9016 50.9429 369.0316)" width="1.418" height="8.871"/>
	<g>
		<path style="fill:#E60012;" d="M33.861,14.388c0,0,0,2.833-0.667,4.666s-1.334,8.167,1,10.333s5.833,1.5,6.5-2.5
			c0.666-4-2.333-7.167-4-8.667S33.861,14.388,33.861,14.388z"/>
		<path style="fill:#E60012;" d="M17.028,35.055c0,0,2.333,1.667,3.333,3.333s4.333,4.5,7.833,4.667s5.748-4.273,2.5-6.667
			c-3.167-2.333-7.167-1.833-9.167-1.833S17.028,35.055,17.028,35.055z"/>
		<path style="fill:#E60012;" d="M57.528,20.888c0,0-4.167,2.333-6.667,3.333s-5.833,4.333-6.167,7
			c-0.333,2.667,2.667,6.667,7.333,4.833s4.5-7.833,4.667-10S57.528,20.888,57.528,20.888z"/>
		<path style="fill:#E60012;" d="M61.361,35.888c0,0-2.833,2.833-5.167,3.667s-5.499,4.833-6.167,7.333
			c-0.667,2.5,1.5,6.833,6,4.833s4.833-5.833,5-9.333S61.361,35.888,61.361,35.888z"/>
		<path style="fill:#E60012;" d="M19.361,51.221c0,0,2.333,2,4.5,4s4.833,4,7.833,4s6.167-3,3.167-6.167s-7.333-2-9.167-2.333
			S19.361,51.221,19.361,51.221z"/>
		<path style="fill:#E60012;" d="M67.361,51.555c0,0-3.167,2.667-5.167,4.167s-5.833,4.333-6.667,7.333
			c-0.833,3,1.833,7,6.167,5.333s4.833-7.5,5.167-10.167C67.194,55.555,67.361,51.555,67.361,51.555z"/>
		<path style="fill:#E60012;" d="M25.194,69.888c0,0,3.667,4,5.667,5.5s4.667,2.999,8.334,2.333c3.666-0.667,4.166-4.667,1-7.167
			c-3.167-2.5-6.833-1.999-9.667-1.666S25.194,69.888,25.194,69.888z"/>
		<path style="fill:#E60012;" d="M24.194,85.555c0,0,3.667,2.667,5,3.834c1.333,1.166,4.834,3.167,7.834,3s4.833-0.834,4.667-3.667
			c-0.167-2.833-4-5.333-9.5-4.667C26.694,84.721,24.194,85.555,24.194,85.555z"/>
		<path style="fill:#E60012;" d="M81.862,32.721c0,0,2.832,3.5,3.666,5.5c0.834,2,2.667,5.334,5.167,6.667s6.501,1.167,6.167-3.5
			c-0.334-4.667-5.501-6.667-8.334-7.667S81.862,32.721,81.862,32.721z"/>
		<path style="fill:#E60012;" d="M105.028,29.888c0,0-1.833,3.5-3.333,5.167s-3.499,5.167-2.833,8.167
			c0.666,3,4.666,6.167,7.666,1.333s1.001-7.833,0.334-10.167C106.195,32.055,105.028,29.888,105.028,29.888z"/>
		<path style="fill:#E60012;" d="M119.028,35.388c0,0-4.332,2.833-6.666,3.667c-2.334,0.833-5.667,4.833-5.667,8.167
			s3.333,5,7.333,2.833s4.166-7.667,4.5-9.167C118.862,39.388,119.028,35.388,119.028,35.388z"/>
		<path style="fill:#E60012;" d="M84.695,47.555c8.783,2.026,8.167,7.833,7.333,9.5c-0.834,1.667-3.5,2.333-6.333,1.167
			c-2.833-1.167-5.001-3.833-6.001-6s-3.833-6-3.833-6S82.528,47.055,84.695,47.555z"/>
		<path style="fill:#E60012;" d="M119.195,54.721c0,0-6.001,1.5-7.667,2.333c-1.666,0.833-6.499,4.667-6.166,8.167
			c0.333,3.5,2.666,4.333,6.666,3.5s5.834-6,6.167-8.167C118.528,58.388,119.195,54.721,119.195,54.721z"/>
		<path style="fill:#E60012;" d="M74.361,64.221c0,0,3.334,3.834,4.5,6.167c1.166,2.333,3.834,4.499,8.334,5.333
			c4.5,0.833,4.833-4.167,3.333-6.5s-4.166-3.5-8.5-4C78.293,64.79,74.361,64.221,74.361,64.221z"/>
		<path style="fill:#E60012;" d="M121.362,70.721c0,0-4.166,0.667-6,0.833c-1.834,0.167-7,2.501-8,6.334s1.166,6.167,5.166,6
			s6.334-4.5,7.334-7.5S121.362,70.721,121.362,70.721z"/>
		<path style="fill:#E60012;" d="M73.861,79.221c0,0,2.167,2,3,3.833c0.833,1.834,4.834,5.5,8,6.167c3.166,0.667,5-1,5.333-3.5
			c0.333-2.5-2.667-5.667-8.167-6.167C76.527,79.055,73.861,79.221,73.861,79.221z"/>
		<path style="fill:#E60012;" d="M126.028,112.888c0,0-1,3.333-1.833,4.833c-0.833,1.5-3.166,7.499-1.333,11.166
			c1.833,3.667,6.999,3.333,8.666,0c1.667-3.333-0.999-8.166-2.666-10.999C127.195,115.055,126.028,112.888,126.028,112.888z"/>
		<path style="fill:#E60012;" d="M101.195,146.388c0,0-2.834,4.5-3.667,6.667c-0.833,2.167-2.333,6.834,0.667,10.167
			c3,3.333,7.5,1.999,7.5-3.334c0-5.333-2.5-8.999-3-10.666C102.195,147.555,101.195,146.388,101.195,146.388z"/>
		<path style="fill:#E60012;" d="M51.028,154.888c0,0,2.5,2.334,3.5,4.167c1,1.833,3.5,5.499,7.5,6.333s5.166-2.999,3.833-6.166
			c-1.333-3.167-4.167-4.333-8.5-4.5C53.028,154.555,51.028,154.888,51.028,154.888z"/>
		<path style="fill:#E60012;" d="M39.028,158.888c0,0,2.667,2.168,3.5,3.334c0.833,1.166,2.666,4.833,6.833,5.833s5.833-0.333,6-3.5
			c0.167-3.167-2.833-6.667-8.167-6.667S39.028,158.888,39.028,158.888z"/>
		<path style="fill:#E60012;" d="M23.861,164.222c0,0,2.333,2.166,3,3.166s3.667,5.334,7.334,6.667c3.667,1.333,6.333-0.333,6.833-3
			c0.5-2.667-2.334-6.333-6.667-7C30.028,163.388,24.361,164.056,23.861,164.222z"/>
		<path style="fill:#E60012;" d="M14.528,170.888c0,0,2.666,3.666,4.166,6s3.667,4.167,7.667,5.167s6.5-2.834,4.833-6.167
			c-1.667-3.333-4.833-3.666-9.833-4.666S14.528,170.888,14.528,170.888z"/>
		<path style="fill:#E60012;" d="M14.194,201.722c0,0,1.333-3.668,1.5-5.834s2.333-6.834,6.666-9s8,2.334,6,6.667
			c-2,4.333-7.166,5.334-9.333,6.167S14.194,201.722,14.194,201.722z"/>
		<path style="fill:#E60012;" d="M33.861,209.222c0,0-1.5-4.167-2-6.167c-0.5-2-0.833-7,2.334-10c3.167-3,9.666-0.167,7.666,5.833
			C39.861,204.888,33.861,209.222,33.861,209.222z"/>
		<path style="fill:#E60012;" d="M47.528,201.388c0,0-1.667-5-2.167-6.5s-1.167-5.5,0.5-8.833c1.667-3.333,8-3.666,8.333,2.167
			s-2.833,8.666-3.833,9.666S47.528,201.388,47.528,201.388z"/>
		<path style="fill:#E60012;" d="M62.028,199.888c0,0-0.667-4.5-1.5-5.833c-0.833-1.333-2-7.333-0.333-11.333s8.334-3.001,8.5,2.166
			c0.167,5.167-2.833,8.833-4,10C63.528,196.055,62.028,199.888,62.028,199.888z"/>
		<path style="fill:#E60012;" d="M83.362,191.055c0,0,2.166-3.834,3.333-5.667c1.167-1.833,3.166-5.833,8.833-5.333
			s6.834,6.333,2.834,7.833s-7.833,1.834-10,2.167C86.195,190.388,83.362,191.055,83.362,191.055z"/>
		<path style="fill:#E60012;" d="M125.862,195.722c0,0-0.666,3.834-1.5,5.5c-0.834,1.666-1.833,6.667,0,9.5
			c1.833,2.833,7.334,2.167,8-1c0.666-3.167-1.001-8.334-2.834-9.834C127.695,198.388,125.862,195.722,125.862,195.722z"/>
		<path style="fill:#E60012;" d="M109.528,230.722c0,0,2.167-4.5,5.667-6.167c3.5-1.667,6.667-1.167,8,1.833
			c1.333,3-0.333,4.334-1.333,4.334S109.528,230.722,109.528,230.722z"/>
	</g>
	<path d="M17.616,6.846c-5.861,0-10.63,4.768-10.63,10.63v203.158c0,5.861,4.768,10.63,10.63,10.63h117.658
		c5.861,0,10.63-4.769,10.63-10.63V17.476c0-5.861-4.768-10.63-10.63-10.63H17.616z M8.403,220.634V17.476
		c0-5.08,4.133-9.213,9.213-9.213h117.658c5.08,0,9.212,4.133,9.212,9.213v203.158c0,5.08-4.132,9.212-9.212,9.212H17.616
		C12.536,229.846,8.403,225.714,8.403,220.634z"/>
</g>
</svg>
