<?xml version="1.0" encoding="iso-8859-1"?>
<!-- Generator: Adobe Illustrator 19.1.0, SVG Export Plug-In . SVG Version: 6.00 Build 0)  -->
<svg version="1.1" id="&#xB808;&#xC774;&#xC5B4;_1" xmlns="http://www.w3.org/2000/svg" xmlns:xlink="http://www.w3.org/1999/xlink"
	 x="0px" y="0px" viewBox="0 0 153.071 238.11" style="enable-background:new 0 0 153.071 238.11;" xml:space="preserve">
<rect style="fill:#E60012;" width="153.071" height="238.11"/>
<g>
	<path style="fill:#FFFFFF;" d="M7.869,16.555L7.62,221.888c0,0,0.915,8.333,10.749,8.833h117.833c0,0,9-1,9.167-10V16.888
		c0,0-0.167-8.167-9.5-9.333L18.035,7.388C18.035,7.388,8.869,7.388,7.869,16.555z"/>
	<path style="fill:#E60012;" d="M52.244,71.763c0,0-1.875,0.625-3.875,0.625s-3.5-3.375-3.125-5.125s1.125-5.125,0.875-7.5
		s-2.375-5.625-4-7.625s-1.375-6.5,0.375-9.375s9-8.5,9-8.5s3,0.125,4-0.625s1.5-2.625,1.625-4s2.375-3.75,4.625-4.5
		s4.125-2.25,5-3.375s3.125-1.625,5.625-0.75c0,0,1.375-2.625,4.25-3.125c2.874-0.5,4.374,0.5,5.749,0.875s4.5,0.125,6.5-0.875
		s4.625-1.125,7-0.25s2.375,0.75,3.625,0.75s6-0.25,9.625,4c0,0,5.125-1.125,8.875,2.75s10,13.5,10,13.5s3,0.875,4.25,3.125
		s0.875,4.875,0.375,6.25s-1.875,4.75-1.875,6.75s-0.5,8.5-2,11.625c-1.5,3.125-3.625,6-3.625,6l-3.125-2.125c0,0-5.875-1.75-8.25-3
		s-7.25-0.75-7.25-0.75l-6.625,6.125l-1.875,3.75c0,0-2.375,2.5-4.375,2.75s-4.25-2.125-5-3.375s-3.375-0.375-3.375-0.375
		l-14.499,8.25c0,0-6,4.875-11.125,5.375s-8-2.125-8.875-7.375S52.244,71.763,52.244,71.763z"/>
	<path style="fill:#FDD000;" d="M80.993,40.763c0,0-1.75-2.25-7.499-1.5c-5.75,0.75-8.5,5.125-4.375,9.875
		c0,0,5.125-3.375,11.499,0.5C80.618,49.638,81.243,43.763,80.993,40.763z"/>
	<path style="fill:#E60012;" d="M21.869,176.721c0,0-0.833-8.5,5.833-12l-1.167-2.666c0,0-2.833-6.834-2.833-7.334
		s0.833-7.5,1.333-8.333c0.5-0.833,6.333-10.5,6.5-11c0.167-0.5,7.667-7.167,7.667-7.167s6.333-3.333,14.333,0.667l3.167-7.667
		l8.167-4.833l13.666-7.5c0,0,6.332-1.667,11.666-0.333c5.334,1.333,11.834,2.5,11.834,2.5l20.5,4.667l4.833,7.499l4.667,8.5
		c0,0,2.166,2.001,2.333,5.334c0.167,3.333,2.999,11,4.333,13.5s-1.5,16.333-1.5,16.333l-7.166,10.5l-8.5,17.667
		c0,0-6.5,9.166-7.667,9.166s-14.667,2.334-15.5,2.167c-0.833-0.167-23.833,0.667-23.833,0.667s-3.666,3-10.333,0.333
		c-6.667-2.667-13.167-3.167-13.167-3.167s-23-6.834-23.5-8s-5.5-13.833-5.5-13.833L21.869,176.721z"/>
	<path style="fill:#FDD000;" d="M73.369,163.138c0,0,3.5-6.375,3.875-9.375s0.25-6,4.249-8c4-2,7.5-0.125,8.875,2
		s0.5,7.5-2.625,11.125c0,0-5,1.5-5.875,1.75S73.369,163.138,73.369,163.138z"/>
	<path d="M17.624,6.846c-5.861,0-10.63,4.768-10.63,10.63v203.158c0,5.861,4.768,10.63,10.63,10.63h117.824
		c5.861,0,10.63-4.769,10.63-10.63V17.476c0-5.861-4.769-10.63-10.63-10.63H17.624z M8.411,220.634V17.476
		c0-5.08,4.133-9.213,9.213-9.213h117.824c5.08,0,9.212,4.133,9.212,9.213v203.158c0,5.08-4.132,9.212-9.212,9.212H17.624
		C12.543,229.846,8.411,225.714,8.411,220.634z"/>
	<path d="M85.301,159.004c-0.828,0.414-3.092,0.978-5.488,1.574c-3.15,0.784-6.72,1.673-8.978,2.66
		c-1.697,0.743-3.006,2.226-3.785,4.29c-1.018,2.696-0.949,5.997,0.177,8.409c1.776,3.806,6.432,3.717,8.933,3.668l0.709-0.009
		c1.116,0,2.051,0.52,3.237,1.181c0.918,0.511,1.959,1.09,3.288,1.532c3.399,1.134,6.134-1.819,6.249-1.945l0.052-0.057l0.76-1.322
		c0.572-0.945,1.164-1.924,1.352-2.676c0.199-0.796,1.328-2.146,3.901-3.55c1.568-0.855,2.545-2.008,2.903-3.425
		c0.473-1.87-0.166-4.169-1.898-6.833C93.423,157.441,87.968,157.671,85.301,159.004z M68.511,175.338
		c-0.957-2.051-1.011-4.988-0.135-7.31c0.447-1.184,1.335-2.751,3.027-3.491c2.148-0.939,5.657-1.813,8.751-2.584
		c2.582-0.643,4.812-1.197,5.78-1.682c1.496-0.748,6.467-1.801,9.59,3.003c1.211,1.863,1.821,3.471,1.821,4.794
		c0,0.323-0.037,0.63-0.109,0.919c-0.262,1.034-0.983,1.86-2.208,2.528c-2.564,1.399-4.24,3.021-4.598,4.45
		c-0.136,0.545-0.72,1.511-1.189,2.287c0,0-0.57,0.993-0.687,1.195c-0.143,0.151-2.27,2.331-4.713,1.518
		c-1.204-0.402-2.141-0.923-3.047-1.428c-1.257-0.699-2.443-1.359-3.926-1.359l-0.736,0.01
		C73.8,178.233,69.897,178.309,68.511,175.338z"/>
	<path d="M62.763,183.586c-0.737,3.258,0.224,6.709,2.392,8.587c3.262,2.828,7.399,2.001,10.723,1.336l2.335-0.419
		c1.84-0.245,3.561,0.156,5.383,0.581c1.688,0.393,3.434,0.8,5.319,0.674c4.607-0.307,5.188-3.921,5.411-7.918
		c0.27-4.854-4.136-7.763-4.323-7.884l-0.771,1.189c0.039,0.025,3.901,2.593,3.678,6.616c-0.272,4.912-1.189,6.389-4.089,6.582
		c-1.676,0.111-3.244-0.254-4.904-0.641c-1.865-0.434-3.795-0.885-5.892-0.604l-2.425,0.434c-3.178,0.636-6.779,1.355-9.517-1.017
		c-1.755-1.522-2.552-4.484-1.937-7.204c0.368-1.627,1.561-4.516,5.412-5.577l-0.377-1.367
		C65.847,177.874,63.508,180.291,62.763,183.586z"/>
	<path d="M43.679,149.474c-1.396,5.865,1.03,9.993,3.533,11.744c1.714,1.2,2.604,5.453,3.193,8.268l0.53,2.339
		c1.253,4.596,4.185,6.73,8.964,6.521c5.908-0.257,8.305-2.071,8.404-2.148l-0.866-1.122c-0.021,0.017-2.205,1.62-7.6,1.855
		c-5.352,0.232-6.864-3.016-7.536-5.479l-0.51-2.256c-0.71-3.394-1.594-7.616-3.768-9.138c-2.139-1.497-4.199-5.082-2.967-10.256
		c1.057-4.438,8.542-3.782,14.944-2.715l0.233-1.398C55.348,144.874,45.178,143.179,43.679,149.474z"/>
	<path d="M60.415,140.88c-2.177,2.975-2.449,7.672-0.709,12.259c2.819,7.434,10.774,11.232,11.112,11.391l0.602-1.283
		c-0.078-0.036-7.776-3.723-10.389-10.609c-1.572-4.144-1.37-8.328,0.528-10.919c1.507-2.06,4.021-3.053,7.271-2.872
		c8.366,0.464,10.519,7.679,10.607,7.985l1.364-0.385c-0.024-0.085-2.496-8.494-11.893-9.017
		C64.168,137.167,61.674,139.161,60.415,140.88z"/>
	<path d="M83.724,144.444c-6.606,1.376-7.082,6.612-7.311,9.129c-0.234,2.574-3.634,8.915-3.668,8.979l1.248,0.672
		c0.146-0.271,3.572-6.66,3.831-9.521c0.228-2.509,0.61-6.708,6.188-7.871c2.225-0.463,4.267,0.355,5.327,2.133
		c1.265,2.121,1.268,5.984-2.514,10.467l1.084,0.914c4.262-5.052,4.162-9.565,2.646-12.106
		C89.177,144.924,86.559,143.854,83.724,144.444z"/>
	<path d="M90.077,137.68c-2.885,3.409-2.918,7.773-2.918,7.958l1.418,0.001c0-0.04,0.041-4.04,2.582-7.043
		c1.307-1.544,3.118-2.297,4.729-1.965c1.614,0.333,2.876,1.74,3.553,3.963c1.805,5.932,4.101,10.464,5.309,12.638
		c0.608,1.096,1.006,4.218-0.071,7.439c-0.767,2.291-2.576,5.421-6.848,7.319l0.576,1.295c4.742-2.107,6.759-5.604,7.615-8.164
		c1.227-3.667,0.719-7.224-0.034-8.577c-1.18-2.125-3.424-6.557-5.191-12.362c-0.834-2.742-2.476-4.496-4.622-4.938
		C94.056,134.806,91.719,135.74,90.077,137.68z"/>
	<path d="M113.002,135.933c-1.404,1.619-1.506,4.61-1.335,5.806c0.304,2.128,0.215,10.481-5.773,12.477l0.448,1.344
		c6.804-2.268,7.145-11.105,6.728-14.023c-0.176-1.234,0.08-3.61,1.004-4.676c0.305-0.352,0.637-0.515,1.045-0.515
		c2.271,0,4.291,1.56,4.291,2.791c0,0.597,0.268,1.647,0.672,3.239c0.908,3.57,2.428,9.546,2.08,15.469
		c-0.467,7.936-7.181,12.338-13.57,12.584c-6.27,0.241-10.446-1.196-10.487-1.21l-0.472,1.336c0.18,0.063,4.453,1.543,11.014,1.29
		c7.028-0.271,14.414-5.138,14.93-13.916c0.361-6.144-1.191-12.252-2.12-15.902c-0.337-1.325-0.628-2.471-0.628-2.89
		c0-2.163-2.774-4.209-5.709-4.209C114.304,134.929,113.572,135.276,113.002,135.933z"/>
	<path d="M100.644,125.466c-1.613,0.537-2.797,1.546-3.332,2.84c-0.482,1.165-0.422,2.461,0.173,3.649
		c0.713,1.426,0.21,3.895-0.044,4.725l1.355,0.416c0.044-0.144,1.07-3.547-0.044-5.774c-0.407-0.815-0.454-1.694-0.131-2.474
		c0.381-0.921,1.236-1.626,2.471-2.038c1.099-0.365,2.426-0.195,3.74,0.481c1.604,0.825,2.891,2.283,3.358,3.805
		c1.015,3.295,3.028,7.846,3.588,8.685l1.18-0.786c-0.435-0.652-2.416-5.075-3.412-8.315c-0.586-1.902-2.105-3.641-4.065-4.649
		C103.824,125.179,102.107,124.977,100.644,125.466z"/>
	<path d="M74.796,122.265c-0.832,0.584-1.298,1.448-1.384,2.568c-0.262,3.408,1.064,8.882,5.794,9.994
		c4.169,0.981,10.871,3.211,10.938,3.232l0.447-1.344c-0.067-0.023-6.829-2.272-11.062-3.268c-3.862-0.909-4.93-5.585-4.705-8.506
		c0.054-0.697,0.303-1.18,0.785-1.519c1.399-0.982,4.702-0.765,9.819,0.647c7.036,1.94,11.983,5.363,12.032,5.397l0.812-1.161
		c-0.208-0.146-5.184-3.594-12.468-5.604C80.105,121.132,76.607,120.992,74.796,122.265z"/>
	<path d="M70.997,138.049l1.244,0.679c1.383-2.536,5.188-4.701,5.226-4.723l-0.695-1.234
		C76.601,132.866,72.576,135.153,70.997,138.049z"/>
	<path d="M68.715,128.946c-2.243,0.498-9.874,3.26-12.281,5.132c-0.749,0.583-1.572,1.358-1.287,2.191
		c0.209,0.609,0.897,0.827,1.472,0.827c0.76,0,4.386,1.428,6.717,2.441l0.565-1.3c-0.96-0.418-5.703-2.448-7.162-2.542
		c0.12-0.126,0.285-0.281,0.564-0.499c2.137-1.662,9.578-4.392,11.719-4.868c2.172-0.482,5.612-0.732,5.646-0.734l-0.101-1.414
		C74.423,128.191,70.99,128.44,68.715,128.946z"/>
	<path d="M69.302,118.004l-0.431,0.213c-2.053,1.004-7.505,3.672-11.503,7.67c-4.648,4.648-1.085,9.153-1.049,9.198l1.101-0.892
		c-0.115-0.145-2.78-3.575,0.949-7.305c3.831-3.831,9.129-6.424,11.124-7.4l0.442-0.218c0.48-0.24,1.498-0.181,2.442,0.402
		c0.666,0.411,1.783,1.409,1.783,3.464h1.417c0-2.743-1.538-4.103-2.455-4.669C71.852,117.684,70.316,117.497,69.302,118.004z"/>
	<path d="M41.854,126.678c-1.978,0.529-3.319,1.451-3.879,2.663l-0.564,1.232c-1.708,3.735-5.263,11.509-8.136,15.93
		c-3.24,4.984-6.841,12.566-0.725,20.808c6.276,8.459,12.816,7.151,15.958,6.523c4.015-0.804,6.613-5.151,6.722-5.336l-1.221-0.72
		c-0.023,0.04-2.391,3.988-5.779,4.665c-3.076,0.615-8.801,1.761-14.542-5.977c-5.59-7.534-2.235-14.561,0.775-19.191
		c2.931-4.509,6.382-12.058,8.237-16.112l0.562-1.227c0.372-0.806,1.423-1.477,2.958-1.889c3.118-0.835,7.349-0.413,9.239,0.921
		c4.377,3.089,2.565,8.709,2.486,8.947c-0.391,1.173-2.977,5.715-3.94,7.366l1.225,0.715c0.144-0.248,3.543-6.082,4.06-7.633
		c0.093-0.279,2.213-6.864-3.014-10.554C50.055,126.24,45.379,125.732,41.854,126.678z"/>
	<path d="M78.323,109.12c-1.534,1.001-2.413,2.374-2.413,3.768c0,3.271,0.968,9.119,1.009,9.366l1.398-0.232
		c-0.01-0.06-0.991-5.98-0.991-9.134c0-0.905,0.645-1.847,1.77-2.58c1.876-1.225,5.486-2.03,9.485-0.271
		c4.683,2.061,10.988,5.916,14.376,7.986c0,0,1.714,1.023,1.954,1.167c0.065,0.142,0.098,0.395,0.098,0.763
		c0,1.315-0.368,3.854-0.836,6.037l1.387,0.297c1.614-7.536,0.531-8.078,0.123-8.282l-1.986-1.19
		c-3.416-2.088-9.775-5.976-14.545-8.074C84.637,106.752,80.496,107.702,78.323,109.12z"/>
	<path d="M107.912,122.573c-0.253,2.782,0.229,8.151,0.25,8.379l1.412-0.129c-0.005-0.054-0.491-5.468-0.25-8.121
		c0.225-2.477,1.511-3.355,2.544-3.355c0.516,0.041,1.982,1.856,3.053,3.182c1.273,1.575,2.716,3.361,4.239,4.65l2.499,1.876
		c2.16,1.512,3.588,2.511,3.752,5.127c0.215,3.446-5.261,5.779-5.316,5.802l0.546,1.309c0.264-0.11,6.463-2.746,6.185-7.198
		c-0.206-3.298-2.128-4.643-4.354-6.2l-2.396-1.797c-1.421-1.202-2.819-2.933-4.053-4.459c-1.969-2.438-3.048-3.708-4.155-3.708
		C110.238,117.93,108.224,119.146,107.912,122.573z"/>
	<path d="M129.975,132.798c-1.107,0.739-1.271,1.388-1.52,2.37c-0.165,0.653-0.392,1.548-0.988,2.94
		c-1.366,3.188-6.565,5.352-6.617,5.373l0.537,1.312c0.235-0.097,5.787-2.403,7.383-6.127c0.641-1.496,0.883-2.453,1.06-3.152
		c0.23-0.911,0.278-1.102,0.932-1.537c0.547-0.364,1.168-0.436,1.662-0.194c0.701,0.343,1.141,1.286,1.238,2.655
		c0.245,3.424,1.237,7.825,2.31,10.237c0.185,0.416,0.268,0.931,0.268,1.509c0,2.05-1.04,4.91-2.242,7.114
		c0,0-4.913,8.645-5.749,10.118c-1.959-2.262-4.477-5.204-4.789-5.672l-1.18,0.786c0.511,0.765,5.04,5.98,5.555,6.571l0.657,0.755
		l6.75-11.88c1.631-2.99,3.14-7.371,2.025-9.878c-1.015-2.282-1.956-6.479-2.191-9.763c-0.183-2.554-1.35-3.494-2.028-3.826
		C132.094,132.043,130.946,132.151,129.975,132.798z"/>
	<path d="M120.884,164.154c0.039,0.037,3.951,3.712,4.895,5.127c0.466,0.698-0.036,1.59-0.898,2.984l-0.896,1.556
		c-0.784,1.567-1.785,5.221-3.06,11.168l-0.083,0.396c-0.737,3.485-1.851,8.754-8.656,10.568
		c-7.316,1.951-14.563,0.746-20.408-3.393l-0.818,1.156c6.193,4.388,13.861,5.668,21.592,3.607
		c7.646-2.039,8.918-8.052,9.677-11.645l0.084-0.392c1.231-5.748,2.221-9.392,2.94-10.831l0.834-1.445
		c0.917-1.487,1.865-3.025,0.872-4.515c-1.033-1.551-4.939-5.219-5.105-5.374L120.884,164.154z"/>
	<path d="M22.227,169.838c-1.279,2.74-1.521,5.728-0.631,7.796c0.518,1.204,1.399,2.043,2.549,2.426
		c2.983,0.995,11.85,4.977,13.441,6.795c1.901,2.173,4.415,0.295,5.916-0.827l0.761-0.55c0.587-0.392,1.765-1.52,3.256-2.947
		c2.12-2.031,5.669-5.43,6.773-5.705l-0.344-1.375c-1.363,0.341-3.931,2.725-7.409,6.056c-1.326,1.271-2.579,2.47-3.062,2.792
		l-0.823,0.595c-2.007,1.5-3.118,2.036-4,1.028c-1.974-2.256-11.42-6.326-14.059-7.205c-0.766-0.256-1.336-0.808-1.695-1.642
		c-0.724-1.683-0.483-4.288,0.613-6.637c1.649-3.533,4.505-5.712,4.534-5.733l-0.851-1.133
		C27.065,163.667,24.031,165.972,22.227,169.838z"/>
	<path d="M39.118,191.639c0.694,0.694,1.785,0.456,3.166,0.154c1.604-0.351,3.6-0.786,5.572,0.003
		c3.838,1.535,12.235,3.158,16.543-1.688l-1.06-0.941c-3.51,3.948-10.868,2.948-14.957,1.312c-2.376-0.95-4.703-0.442-6.401-0.071
		c-0.661,0.145-1.658,0.362-1.862,0.227c-0.216-0.219-0.312-0.806-0.312-1.526c0-0.719,0.094-1.57,0.254-2.322l-1.386-0.297
		C38.537,187.137,37.906,190.428,39.118,191.639z"/>
	<path d="M57.514,202.007c2.844,4.654,7.991,7.09,11.604,7.09c2.035,0,4.957-1.111,8.051-2.289c2.039-0.775,4.147-1.577,5.86-1.981
		c4.277-1.006,6.212-1.838,6.788-5.582c0.544-3.535-1.337-5.732-1.417-5.824l-1.069,0.931c0.062,0.073,1.525,1.819,1.086,4.679
		c-0.434,2.813-1.541,3.437-5.712,4.418c-1.805,0.424-3.958,1.243-6.04,2.035c-2.838,1.079-5.773,2.195-7.547,2.195
		c-3.14,0-7.851-2.246-10.396-6.41c-2.529-4.14-1.199-8.107-1.186-8.146l-1.337-0.471C56.135,192.839,54.622,197.274,57.514,202.007
		z"/>
	<path d="M74.369,207.055c0,0-1.167,13.166,8.499,23.333l2.167,0.5c0,0-0.666-2.999,0.5-5.833c1.166-2.834,3.166-5.167,3.166-5.167
		s2.333,6.5,14.5,8s20.5,2.667,20.5,2.667h2.5c0,0-1.834-1.668-1.5-4.334s1.834-6,1.667-7.333c0,0,11.5,0.834,19-5.833
		c0,0-3.167-0.668-6.5-3.334c-3.333-2.666-5.834-10.834-11.667-16c0,0,12.5-1.666,18-8.666v-33.167l-8.666-6.167
		c0,0,0.334,2.333,0,5c-0.334,2.667-8.334,15.334-8.334,15.334l-4.166-4.5c0,0-1.167-1.501-1.667-0.334
		c-0.5,1.167-1.333,2.834-1.333,2.834s4.833,3.833,5.333,4.833s-0.333,3.333-1,4.333s-2.999,8.167-3.333,9.667
		s-1.542,7.875-3.792,10.375s-9.5,5.125-16.375,4.125s-9.125-3.25-9.125-3.25l-1.75-1.25l-2.125,0.75c0,0-0.625,1.125-0.125,2.25
		s1.25,4.625-1.125,6.625s-7.5,2.625-7.5,2.625L74.369,207.055z"/>
	<path d="M21.702,175.388c0,0-0.333,2.167,2.167,3.667s11.5,3.999,15.5,8.166c0,0-0.375,1.542-0.25,2.792s1.375,1.5,2.875,1.125
		s4.375-0.875,6.125,0s5.5,1.875,8.25,1.75c0,0-0.625,4.375,0.625,7.25s5.75,7,9.625,7.5c0,0-10.375,4.625-21.5,6.5
		c0,0-2.875,0-4.375,1.75s-8.5,8-9,8.125c-0.5,0.125-0.5-8.875-0.5-8.875s-6.25,0.875-11.375,0.75s-10,1-12,3.75l-0.125-20.625
		c0,0,1.875-4.25,4.625-6c0,0-2-0.125-4.5,0.5l0.25-7.125C8.119,186.388,14.286,179.263,21.702,175.388z"/>
	<path d="M39.994,128.013c0,0-1.5-1.125-2.125-2.625s-8.25-16.375-30-11.5v4c0,0,4.75,2.25,6.625,7.5c0,0-5.25-0.375-6.5-0.625
		l-0.125,33.5c0,0,6.375,4.75,19.125,5.375c0,0-1.75-3.25-0.625-8.375s4.375-10.375,4.875-11.125s5.875-11.25,6.25-12.5
		S39.244,128.388,39.994,128.013z"/>
	<path d="M51.244,128.263c0,0-4.375-8-10.125-14.25s-17.125-9-20-9.125c0,0,6-6.125,19-7.875c0,0-2.875-15.25-2.875-15.625
		s0.25-0.25,0.875,0.375s3.875,4.375,8.875,7.75s11.625,4,16.25,6s13.125,5.75,17.374,13.125c0,0-3.624,0.25-3.999,4.25l0.75,8
		c0,0,0.25,1.25-0.25,1.375s-1.875,0.75-1.875,0.75s-0.625-3.125-2.875-4.25s-8.25,2.875-8.25,2.875s-9.875,4-8.25,10.75
		c0,0-0.625,0.5-1.25-0.5S52.869,128.888,51.244,128.263z"/>
	<path d="M81.993,108.263c0,0,4.125-3.25,6.625-6.625s6.125-15.5,23.375-17.75c0,0,3.25-9.875,12.25-16.5s21-10.5,21-10.5
		s-2.875,2.375-3.75,4.125s-3,8.375-3.875,10.125c0,0,4.25,2.25,8,7.125l-0.125,2.125c0,0-3.375-0.125-6.375-0.25
		s-8.625-0.25-12,5.75c0,0,4.5,1.5,8.5,2.125s8.25-0.625,9.625-3.5l-0.125,2.125c0,0-2.625,3.875-3,6.375s-1.75,9.875-8.25,16.75
		c0,0,4.25,1.25,7.25,4.75s4,3.625,4,3.625s-4.75,9.375-11.375,15.25c0,0-1.25-0.75-2.5-0.5s-1.875,1.125-2.25,2.5
		s-1.125,5.75-6.75,8.25c0,0-1.25,0.375-1.375-0.75l-0.125-1.25c0,0-0.75-0.875,0.75-1.5s4.5-2,4.625-6s-3.5-5.25-4.625-6
		s-7.5-7.5-8-8.25s-1.875-1.375-3.25-0.875s-2.375,5.25-1.5,11c0,0-1.5-2.375-3.375-3.125c0,0-0.875-0.625-0.375-1.875
		s1.125-4.875,0.75-5.625s-2-1.875-2-1.875s-8.25-4.375-10.875-6.125S84.493,108.013,81.993,108.263z"/>
	<path d="M100.029,29.867c-1.118,0.279-2.926,0.473-5.018,0.695c-2.788,0.298-5.948,0.636-8.805,1.302
		c-6.387,1.49-6.241,8.356-6.044,10.424c0.269,2.839-0.25,7.619-0.629,11.109l-0.204,1.92c-0.215,2.153,0.398,4.037,1.683,5.168
		c0.857,0.753,2.421,1.525,5.015,0.927c4.551-1.051,5.729-5.471,5.846-5.961c0.47-0.956,0.883-2.085,1.357-3.395l1.293-3.398
		c0.996-2.419,5.37-5.5,8.145-6.795l0.406-0.188c2.277-1.05,5.946-2.741,5.946-6.393c0-0.379-0.04-0.778-0.124-1.201
		c-0.312-1.553-1.097-2.736-2.334-3.52C104.618,29.332,101.913,29.396,100.029,29.867z M81.949,59.421
		c-0.938-0.825-1.378-2.27-1.209-3.963l0.202-1.907c0.387-3.551,0.915-8.415,0.631-11.396c-0.169-1.779-0.312-7.681,4.956-8.91
		c2.771-0.646,5.886-0.979,8.633-1.272c2.145-0.229,3.997-0.427,5.211-0.73c1.599-0.399,3.865-0.474,5.432,0.518
		c0.897,0.568,1.47,1.443,1.701,2.6c0.63,3.143-1.903,4.589-5.025,6.028l-0.412,0.19c-2.322,1.084-7.543,4.353-8.855,7.539
		l-1.314,3.455c-0.474,1.306-0.882,2.433-1.331,3.331l-0.038,0.076l-0.02,0.086c-0.038,0.166-0.97,4.08-4.801,4.965
		C84.119,60.397,82.819,60.186,81.949,59.421z"/>
	<path d="M63.212,60.924c-7.881,4.028-13.386,11.347-13.386,17.798c0,7.309,3.254,9.929,5.984,10.839
		c3.316,1.105,14.306-1.006,21.822-12.792c7.459-11.698,5.303-16.49,5.207-16.688l-1.282,0.604c0.02,0.044,1.822,4.434-5.12,15.322
		c-6.996,10.971-17.269,13.179-20.178,12.209c-3.328-1.109-5.016-4.304-5.016-9.494c0-5.941,5.187-12.74,12.614-16.536
		c7.286-3.725,16.154-4.584,16.243-4.592l-0.131-1.411C79.597,56.217,70.748,57.072,63.212,60.924z"/>
	<path d="M42.655,42.771c-2.369,2.877-2.221,6.898,0.429,11.63c2.118,3.784,3.08,6.547,2.099,10.309
		c-0.716,2.744-0.567,6.192,1.379,7.714c1.523,1.189,3.76,0.995,6.646-0.579L52.529,70.6c-1.612,0.879-3.804,1.715-5.094,0.706
		c-1.368-1.068-1.479-3.947-0.881-6.239c1.103-4.226,0.065-7.252-2.234-11.358c-2.373-4.238-2.565-7.615-0.571-10.036
		c2.318-2.813,5.787-3.11,9.768-0.835c3.021,1.727,4.792,4.017,6.844,6.667c1.007,1.303,2.049,2.648,3.32,4.03
		c3.96,4.304,10.001,5.187,10.257,5.222l0.196-1.403c-0.058-0.008-5.801-0.855-9.41-4.778c-1.23-1.337-2.253-2.659-3.242-3.937
		c-2.054-2.655-3.995-5.164-7.261-7.03C49.638,38.987,45.422,39.412,42.655,42.771z"/>
	<path d="M85.611,61.382c0.091,0.036,2.215,0.939,2.215,4.84c0,2.906-1.67,5.589-3.241,6.637c-0.573,0.382-1.1,0.519-1.444,0.375
		c-1.035-0.431-1.248-3.706-1.067-5.783l-1.412-0.125c-0.091,1.033-0.426,6.232,1.934,7.217c0.801,0.334,1.786,0.154,2.775-0.505
		c1.925-1.283,3.873-4.38,3.873-7.815c0-4.935-2.999-6.116-3.127-6.164L85.611,61.382z"/>
	<path d="M93.298,66.85c-2.818,0.281-3.949-1.432-3.996-1.505l-1.204,0.748c0.064,0.104,1.609,2.54,5.341,2.167
		c3.789-0.379,5.226-6.127,5.285-6.371l-1.377-0.335C97.006,62.948,95.614,66.618,93.298,66.85z"/>
	<path d="M107.844,38.096c3.722,0.127,6.162,1.207,7.057,3.126c1.024,2.193-0.127,4.906-1.423,6.563
		c-2.742,3.503-3.471,7.499-3.952,10.143l-0.185,0.987c-0.249,1.25-1.538,3.433-3.622,4.374c-1.796,0.812-3.813,0.582-5.994-0.681
		c-5.927-3.432-6.645-9.402-6.65-9.463l-1.41,0.15c0.029,0.273,0.78,6.735,7.35,10.539c3.238,1.874,5.751,1.44,7.289,0.745
		c2.702-1.221,4.129-3.891,4.429-5.387l0.189-1.012c0.457-2.507,1.147-6.296,3.673-9.523c1.544-1.973,2.887-5.261,1.592-8.036
		c-0.791-1.697-2.872-3.759-8.292-3.942L107.844,38.096z"/>
	<path d="M115.582,42.377l1.237,0.69c0.096-0.169,2.393-4.138,7.716-4.138c5.32,0,7.81,3.914,7.959,6.009
		c0.076,1.058-0.544,2.874-1.144,4.631c-0.625,1.831-1.271,3.726-1.357,5.279c-0.16,2.91-0.973,8.325-2.272,11.252
		c-1.141,2.566-2.502,4.388-8.655,2.606c-5.985-1.732-8.988-5.84-8.988-7.652h-1.418c0,2.563,3.479,7.123,10.012,9.014
		c6.52,1.888,8.791,0.102,10.345-3.393c1.373-3.091,2.225-8.73,2.393-11.749c0.075-1.358,0.689-3.159,1.283-4.9
		c0.675-1.978,1.312-3.845,1.216-5.189c-0.212-2.953-3.337-7.324-9.373-7.324C118.356,37.513,115.692,42.179,115.582,42.377z"/>
	<path d="M73.725,46.848c-2.945,0.104-5.07,1.126-5.985,2.879c-2.215,4.245-0.129,6.406-0.039,6.496l1.01-0.994
		c-0.059-0.064-1.421-1.575,0.286-4.847c0.659-1.262,2.4-2.034,4.778-2.118c2.783-0.099,5.457,0.797,5.99,1.662l1.207-0.742
		C79.995,47.596,76.521,46.748,73.725,46.848z"/>
	<path d="M70.579,39.19c-1.913,0.718-3.198,1.919-3.716,3.474c-1.472,4.414,1.435,6.839,1.559,6.94l0.897-1.098
		c-0.093-0.077-2.265-1.935-1.111-5.395c0.478-1.434,1.824-2.203,2.87-2.596c2.844-1.068,6.791-0.664,9.6,0.982l0.717-1.223
		C78.192,38.399,73.846,37.963,70.579,39.19z"/>
	<path d="M73.87,32.262c-5.79,3.076-4.357,7.795-4.342,7.842l1.351-0.427c-0.045-0.148-1.055-3.66,3.656-6.163
		c4.847-2.575,8.581,0.155,8.74,0.273l0.856-1.13C83.945,32.517,79.538,29.251,73.87,32.262z"/>
	<path d="M69.924,19.824c-1.912,0.019-3.635,0.805-4.189,1.913c-0.719,1.439-2.338,2.322-3.005,2.456
		c-0.035,0.007-3.536,0.729-5.268,3.111c-0.757,1.041-1.029,2.275-1.268,3.364c-0.202,0.918-0.393,1.784-0.826,2.218
		c-0.325,0.325-0.905,0.498-1.576,0.698c-1.249,0.373-2.804,0.837-3.865,2.604c-1.629,2.715-1.119,4.278-1.056,4.447l1.334-0.479
		c-0.003-0.011-0.328-1.131,0.938-3.239c0.778-1.297,1.935-1.642,3.054-1.976c0.82-0.245,1.594-0.476,2.172-1.055
		c0.727-0.727,0.96-1.789,1.208-2.915c0.22-1,0.448-2.034,1.031-2.835c1.164-1.602,3.628-2.401,4.399-2.556
		c1.071-0.214,3.081-1.383,3.995-3.212c0.268-0.534,1.51-1.115,2.935-1.129c0.967-0.01,2.726,0.235,3.637,1.975
		c1.756,3.352,2.586,8.724,2.594,8.777l1.401-0.212c-0.035-0.229-0.873-5.659-2.739-9.224
		C73.909,20.801,72.121,19.804,69.924,19.824z"/>
	<path d="M87.89,17.419c-1.088,0.502-2.116,0.976-3.109,1.1c-1.029,0.128-2.102-0.297-3.237-0.746
		c-1.481-0.588-3.162-1.253-5.031-0.733c-3.23,0.897-4.687,3.213-4.747,3.311l1.205,0.746c0.012-0.02,1.248-1.948,3.921-2.691
		c1.41-0.392,2.731,0.131,4.129,0.686c1.251,0.496,2.546,1.009,3.935,0.835c1.211-0.151,2.388-0.694,3.526-1.219
		c1.535-0.707,2.985-1.375,4.43-1.12c1.309,0.23,2.35,0.648,3.269,1.015c1.025,0.411,1.911,0.765,2.775,0.657
		c1.18-0.147,7.497,0.47,9.812,4.172c1.718,2.75,0.525,5.03-0.627,7.237l-0.936,1.972l1.326,0.498l0.865-1.814
		c1.213-2.319,2.722-5.206,0.572-8.644c-2.667-4.267-9.646-5.021-11.188-4.827c-0.502,0.062-1.195-0.215-2.073-0.566
		c-0.934-0.374-2.096-0.839-3.549-1.095C91.277,15.858,89.556,16.651,87.89,17.419z"/>
	<path d="M109.304,21.683l0.127,1.411c0.052-0.005,5.206-0.399,8.908,3.765c3.686,4.147,1.539,11.587,1.517,11.661l1.358,0.404
		c0.101-0.335,2.397-8.267-1.816-13.007C115.208,21.204,109.543,21.66,109.304,21.683z"/>
	<path d="M99.661,63.763c0.003,0.056,0.306,5.587-1.132,9.901c-0.897,2.69-3.302,4.25-5.155,4.559
		c-0.738,0.123-2.102,0.166-2.943-0.933c-2-2.615-2.186-6.559-2.188-6.599l-1.416,0.058c0.007,0.179,0.201,4.425,2.479,7.402
		c0.942,1.232,2.511,1.769,4.302,1.469c2.762-0.461,5.339-2.727,6.266-5.509c1.526-4.577,1.217-10.195,1.202-10.433L99.661,63.763z"
		/>
	<path d="M80.984,108.071l1.268,0.634c6.316-12.633,8.425-30.557,8.445-30.736l-1.408-0.161
		C89.269,77.984,87.187,95.666,80.984,108.071z"/>
	<path d="M89.118,76.388c0,0-3,1.75-5.5,6.5s-2.25,8.125-2.375,9.875s-0.75,6-1.125,7.5s-6.499-5.375-9.374-16.75
		c0,0,7.625-5.375,10.249-14.5c0,0-0.75,3.375,1.875,4.875s4.25-3,4.25-3S88.243,74.888,89.118,76.388z"/>
	<path d="M97.493,77.013c0,0,3-4.5,3-12.75c0,0,6.5,1.875,8.5-2.75c0,0,1.375,4.5,6.625,6.625c0,0-0.75,3.5-3.875,6.125
		s-8.75,7.5-8.375,12.75s-0.75,3.75-0.75,3.75s-0.625-2.75-0.75-4.375S97.618,81.513,97.493,77.013z"/>
	<path d="M128.618,38.763c0,0,0.5-1.875,0-2.875s7.25-9.5,15.625-4.875c0,0-0.875-6-8-9.375s-16.5-0.625-19.375,2.5
		c0,0,5.875,2.5,3.5,15C120.368,39.138,122.993,37.138,128.618,38.763z"/>
	<path d="M53.994,34.263c0,0,0.375-8.25-9-14.875s-14.875-6.25-18-7.375s-5.25-3.25-6-4.125l-4.125-0.5c0,0,1.375,2,1.375,4.25
		s0.875,12,5.25,17.125c0,0-4,0.125-8.25,1.125s-6.375,0.875-7.125-0.25v5.625c0,0,2.125,5.875,10,10.125c0,0-1.75,2.125-3.75,3.5
		s-5.125,2.625-6.5,3.125v0.75c0,0,3.125,0.625,4.625,1.375s20.542,9.458,31.208-0.083c0,0-2.708-3.542-1.833-7.917
		c0,0-1.25-4.625,7.375-5.375C49.244,40.763,48.744,36.388,53.994,34.263z"/>
</g>
</svg>
