<?xml version="1.0" encoding="iso-8859-1"?>
<!-- Generator: Adobe Illustrator 19.1.0, SVG Export Plug-In . SVG Version: 6.00 Build 0)  -->
<svg version="1.1" id="&#xB808;&#xC774;&#xC5B4;_1" xmlns="http://www.w3.org/2000/svg" xmlns:xlink="http://www.w3.org/1999/xlink"
	 x="0px" y="0px" viewBox="0 0 153.071 238.11" style="enable-background:new 0 0 153.071 238.11;" xml:space="preserve">
<rect style="fill:#E60012;" width="153.071" height="238.11"/>
<g>
	<path style="fill:#FFFFFF;" d="M7.535,16.555L7.369,221.555c0,0-0.333,9.834,13.167,9.334l116.166,0.166c0,0,8.5-1.166,8.834-11
		V16.389c0,0-1-9-9.834-9.334L16.869,7.222C16.869,7.222,8.202,8.222,7.535,16.555z"/>
	<path style="fill:#005BAC;" d="M44.035,95.555c0,0-4.167-3.666-11.334-4c-7.166-0.333-13,4.001-15,6.334s-5.333,7.833-10,9.666
		v2.167c0,0,6.833,1.834,14.5,0.667s17.501-4.5,22.667-12.5L44.035,95.555z"/>
	<path style="fill:#005BAC;" d="M61.369,101.389c0,0-6.333-3.333-8.5-9s-1.167-10.834-0.167-12.834s3-8,3-8s3.834,7.834,5.334,10.5
		c1.5,2.667,5.999,8.667,5.666,17.667c0,0,3.5-0.167,6,2.833s3.5,9.834,1.167,17.667s-6.5,8.834-7.833,9.667
		c-1.334,0.833-5.334,2.666-7.334,10.333c0,0-2.333-5.167-4.666-8.167c-2.334-3-5.834-5.833-8.5-8.833c-2.667-3-4.5-8.333-4-13
		s2.833-9,9.166-9c6.334,0,7,2.833,7,2.833L61.369,101.389z"/>
	<path style="fill:#005BAC;" d="M69.202,96.722c0,0,2.501-0.167,4.667,2.833c2.167,3,3.5,5.834,10.167,7.5
		c6.666,1.667,10.832,0.167,14-1c3.166-1.166,6.666-3.5,9-3c0,0-2.834-4.833-3.668-6.333c-0.832-1.5-1.332-6.999-7.666-11.833
		c-6.334-4.834-19.333-8-28.166,2c0,0,4.167-1.5,8,1.333c3.833,2.833,1.833,5-1.167,5.833
		C71.369,94.889,69.202,96.722,69.202,96.722z"/>
	<path style="fill:#FDD000;" d="M46.869,102.055c0,0-3.333-6.5-3.833-9.333s-0.667-4.167-0.667-4.167s-3.333-1.666-5.333-6.333
		s-0.5-8.333-0.5-8.333s3,0.833,5.333,4.166c2.333,3.334,5.667,8.5,5.667,8.5s3.333,1.834,2,14.834L46.869,102.055z"/>
	<path style="fill:#FDD000;" d="M58.702,140.222c0,0-2,9.167-9.666,20.5l0.166,17.167l9.334,22.166l8.5-13.666
		c0,0-5.167-2.5-10.334-18.334C56.702,168.055,62.368,157.055,58.702,140.222z"/>
	<path style="fill:#FDD000;" d="M88.868,174.389l20.168-8l-10,17c0,0-16.167,7-16.834,7.666c-0.667,0.668-0.834-0.5-0.167-2
		C82.702,187.555,88.868,174.389,88.868,174.389z"/>
	<path d="M17.456,6.513c-5.861,0-10.63,4.769-10.63,10.63v203.824c0,5.861,4.769,10.631,10.63,10.631h118.157
		c5.861,0,10.631-4.769,10.631-10.631V17.143c0-5.861-4.769-10.63-10.631-10.63H17.456z M8.244,220.967V17.143
		c0-5.08,4.133-9.213,9.213-9.213h118.157c5.08,0,9.213,4.133,9.213,9.213v203.824c0,5.08-4.133,9.213-9.213,9.213H17.456
		C12.376,230.18,8.244,226.047,8.244,220.967z"/>
	<path d="M7.535,156.805c0,0,9,9,14,19c0,0-0.5-31.75-14-53l-0.25-5c0,0,15,10.25,23,21.25c0,0-4.75-17.5-9.25-23
		c0,0,5.5-0.5,8.25-1s6.25-3,6.25-3s2.25,0.25,2.5,1.25s-0.25,11,9,17.5c0,0,3.75,3.25,3.5,4.75s-4.5,32.5,8.25,62.25
		c0,0,19.999-25.5,18-87.75c0,0,12.75,3.5,13.75,3.5s2,0.25,2.5,1.5s0.75,9,0.75,11.5c0,0,22-40.75,45.75-52.25
		c0,0,1.25-0.25-0.25,2s-18.5,21.75-26.25,44.75c0,0,12.75-10.25,28-13.5c0,0,0.5,1-0.75,1.75s-27,21.5-42,48.75
		c-15.001,27.25-19.75,45-23.75,72.5l-53,0.25c0,0-3-16.25-14-33.75V156.805z"/>
	<path d="M75.785,230.555c0,0,23.75-71.25,69.5-104.5l0.25,1.5c0,0-16.75,18.75-26,42.25c0,0,11.75-12.75,25.5-20.25v2.25
		c0,0-33.75,30.5-42.25,78.75H75.785z"/>
	<path d="M27.34,91.623c-7.102,2.029-10.513,6.424-12.771,9.332l-1.536,1.85c-2.166,2.165-6.085,4.625-6.125,4.649l0.751,1.202
		c0.166-0.104,4.095-2.569,6.376-4.85l1.653-1.982c2.144-2.762,5.384-6.936,12.041-8.838c7.375-2.107,12.982,1.58,14.825,2.791
		l0.664,0.412c0.329,0.164,0.559,1.097,0.594,1.916c-1.182,1.666-11.282,14.671-35.93,11.248l-0.195,1.404
		c27.14,3.768,37.348-11.916,37.447-12.075l0.109-0.173v-0.205c0-0.448-0.067-2.721-1.392-3.383l-0.519-0.328
		C41.356,93.293,35.341,89.338,27.34,91.623z"/>
	<path d="M54.859,71.342l-3.494,10.48c-0.393,1.129-0.581,2.398-0.581,3.738c0,5.832,3.596,12.967,9.442,15.872
		c-0.756,0.595-1.444,1.135-2.024,1.59c-0.831-0.979-2.992-2.426-8.667-2.426c-2.571,0-4.663,0.998-6.218,2.967
		c-2.701,3.419-3.162,9.206-2.222,13.155c1.117,4.691,4.953,8.117,8.336,11.141l1.621,1.465c3.369,3.128,6.101,8.559,7.074,10.994
		l0.742,1.855l0.593-1.908c0.604-1.944,2.667-7.278,4.93-8.598c3.034-1.77,8.524-4.971,10.579-12.936
		c0.611-2.367,0.88-4.662,0.88-6.779c0-5.3-1.687-9.496-3.923-10.988c-2.155-1.436-3.788-1.871-4.668-2.022
		c0-0.062,0.002-0.098,0.002-0.17c0-2.235-0.364-8.615-4.115-15.074c-4.439-7.646-6.961-12.427-6.986-12.475l-0.774-1.47
		L54.859,71.342z M58.473,104.612l4.478-3.519l-1.161-0.449c-6.192-2.396-9.561-9.779-9.561-15.197c0-1.167,0.156-2.244,0.475-3.159
		c0,0,2.226-6.679,2.983-8.95c1.06,1.957,3.183,5.818,6.234,11.073c3.61,6.218,3.918,12.509,3.918,14.474
		c0,0.393-0.012,0.613-0.013,0.625l-0.047,0.742l0.749,0.012c0.019,0,1.864,0.049,4.612,1.881c1.913,1.276,3.291,5.059,3.291,9.765
		c0,2.027-0.256,4.226-0.834,6.469c-1.908,7.392-6.872,10.286-9.837,12.017c-2.346,1.367-4.158,5.413-5.047,7.744
		c-1.364-2.922-3.764-7.129-6.697-9.854l-1.642-1.483c-3.228-2.884-6.888-6.151-7.901-10.411c-0.26-1.092-0.401-2.363-0.401-3.688
		c0-2.951,0.702-6.168,2.356-8.262c1.272-1.611,2.99-2.428,5.105-2.428c6.924,0,7.816,2.232,7.824,2.254l0.334,0.92L58.473,104.612z
		"/>
	<path d="M42.606,82.852c-0.064,0.213-1.545,5.266,0.003,10.167c1.502,4.757,3.707,8.942,3.799,9.118l1.253-0.663
		c-0.022-0.042-2.239-4.252-3.701-8.882c-0.473-1.498-0.631-3.032-0.631-4.413c0-1.77,0.252-3.216,0.438-4.081
		c1.443,0.821,4.526,3.065,5.063,7.542c0.245,2.041,0.326,3.786,0.326,5.204c0,2.773-0.311,4.291-0.316,4.314l1.386,0.295
		c0.032-0.146,0.766-3.687,0.011-9.982c-0.79-6.588-6.445-8.973-6.685-9.071l-0.723-0.296L42.606,82.852z"/>
	<path d="M35.846,73.643c-0.024,0.1-2.27,10.038,5.792,15.5l0.795-1.174c-4.644-3.146-5.509-7.864-5.509-10.941
		c0-0.772,0.057-1.419,0.12-1.934c3.28,2.713,5.562,8.169,5.586,8.229l1.312-0.535c-0.116-0.283-2.884-6.991-7.031-9.583
		l-0.837-0.523L35.846,73.643z"/>
	<path d="M66.241,86.852l-1.501,1.801l2.248-0.668c0.047-0.014,4.751-1.373,8.422,0.922c1.003,0.627,1.509,1.271,1.509,1.916
		c0,0.059-0.004,0.117-0.012,0.174c-0.15,1.062-1.596,2.101-2.566,2.377c-1.512,0.433-4.811,2.195-5.969,2.827
		c-1.144,0.114-2.007,0.412-2.085,0.441l0.497,1.327c0.017-0.006,0.8-0.271,1.811-0.359c0.003,0.006,0.036,0.066,0.036,0.066
		c0.003-0.003,0.078-0.044,0.14-0.077c1.141-0.07,2.522,0.107,3.489,1.182l1.155,1.52c2.119,2.978,5.666,7.967,15.605,8.215
		c5.773,0.145,8.707-1.361,11.297-2.688c2.049-1.05,3.818-1.958,6.746-2.062l1.225-0.044l-0.65-1.04
		c-0.037-0.059-3.717-5.963-4.678-8.849c-0.967-2.901-3.537-10.609-16.268-13.468C74.163,77.551,66.318,86.758,66.241,86.852z
		 M86.379,81.746c11.949,2.684,14.252,9.586,15.234,12.533c0.785,2.357,3.135,6.375,4.236,8.195c-2.555,0.293-4.35,1.15-6.182,2.09
		c-2.559,1.311-5.203,2.668-10.615,2.532c-9.229-0.231-12.393-4.678-14.485-7.62l-1.256-1.646c-0.683-0.759-1.492-1.177-2.314-1.417
		c1.332-0.684,2.889-1.437,3.732-1.678c1.294-0.369,3.328-1.751,3.58-3.541c0.017-0.119,0.026-0.244,0.026-0.375
		c0-0.875-0.432-2.026-2.176-3.116c-2.483-1.552-5.274-1.67-7.204-1.493C71.704,83.859,77.851,79.832,86.379,81.746z"/>
	<path d="M48.456,161.396l1.158,0.817c0.061-0.086,6.113-8.752,9.853-21.966l-1.363-0.386
		C54.434,152.829,48.516,161.312,48.456,161.396z"/>
	<path d="M57.619,139.297c0.066,0.183,6.453,18.436-6.927,38.869l1.186,0.777c13.785-21.054,7.142-39.943,7.073-40.131
		L57.619,139.297z"/>
	<path d="M56.347,167.725c0.156,0.633,3.897,15.57,11.04,20.416l0.796-1.172c-6.693-4.541-10.423-19.434-10.46-19.583
		L56.347,167.725z"/>
	<path d="M88.032,174.394l0.506,1.323c0.83-0.317,20.375-7.812,24.398-10.578l-0.803-1.168
		C108.248,166.643,88.233,174.316,88.032,174.394z"/>
	<path d="M81.2,190.93l0.67,1.25c0.139-0.074,13.965-7.459,19.293-8.428l-0.254-1.395C95.362,183.367,81.776,190.623,81.2,190.93z"
		/>
	<path d="M40.035,90.805c0,0-2.25,0-4.25-1s-8.5-1-12,0.5c0,0-6.5-21.25-16-36.25l-0.25-4.5
		C7.535,49.555,26.285,63.055,40.035,90.805z"/>
	<path d="M48.035,87.055c0,0-1.333-1.999-2.667-2.666c-1.333-0.667-2.167-2-2.667-2.834c-0.5-0.833-3.167-5.5-5-7
		c0,0-1.666-6.666,3.334-14.333s10.166-15.5,11.166-18.5c0,0-0.333,6.333-0.333,9.333S54.535,71.222,48.035,87.055z"/>
	<path d="M72.202,80.222c0,0-4.916-23.417-20.166-41.666c0,0,14,8.5,29.249,35.749c0,0,18.751-45.499,44.751-66.749l2,0.25
		c0,0-14.5,17.5-33.25,73.499C94.786,81.305,83.368,74.389,72.202,80.222z"/>
	<path d="M72.589,220.904l0.559,1.303c0.069-0.029,6.973-2.971,12.142-3.615l-0.176-1.406
		C79.744,217.855,72.879,220.779,72.589,220.904z"/>
</g>
</svg>
