<?xml version="1.0" encoding="iso-8859-1"?>
<!-- Generator: Adobe Illustrator 19.1.0, SVG Export Plug-In . SVG Version: 6.00 Build 0)  -->
<svg version="1.1" id="&#xB808;&#xC774;&#xC5B4;_1" xmlns="http://www.w3.org/2000/svg" xmlns:xlink="http://www.w3.org/1999/xlink"
	 x="0px" y="0px" viewBox="0 0 153.071 238.11" style="enable-background:new 0 0 153.071 238.11;" xml:space="preserve">
<rect style="fill:#E60012;" width="153.071" height="238.11"/>
<g>
	<path style="fill:#FFFFFF;" d="M8.285,16.555v22.75l4.75,68.5l18.75,63.5l11.25,14.5l47.999,1.5l29.001-2l24.75-7.75v-132.5
		l-8.5-10.25l-21.5-17.167l-26.333-5L67.785,6.972L17.952,7.305C17.952,7.305,9.452,6.805,8.285,16.555z"/>
	<path style="fill:#007581;" d="M97.453,213.973l47.166,0.666l0.167,7.334c0,0-1.501,8.834-9.167,9l-24.5-0.334l-12-9.666
		L97.453,213.973z"/>
	<path style="fill:#005BAC;" d="M14.285,171.639l33.333,2l35.167,1l61.834,2.166v37.834l-48-0.834l-59-0.332l-29.333-5.668v-29.5
		C8.285,178.305,8.619,171.805,14.285,171.639z"/>
	<path style="fill:#E60012;" d="M55.952,158.471l36.501,22.168l4.5-7.5c0,0,19.667,3.832,36-8.168c0,0-1-14.333-14.5-32.166
		c-13.5-17.834-35.334-22.667-35.334-22.667l-10-10l-9-20.667l-11.833-5l-7.333-3.666l-10.5-5.5c0,0-8.833-2.5-10.333-3
		s-11.833,2.166-11.833,2.166l-4.333,6.834l0.167,31.5L7.91,145.68l5.208,10.625l9.5,3l18.833-2.334L55.952,158.471z"/>
	<path style="fill:#E60012;" d="M60.285,44.68c0,0-4.125,3.375-10,2.625s-11.5-3.25-14.5-4.375s-7.75-2.25-7.75-2.25l8-3.625
		l5.75-8.875c0,0-1.5-2.5-4.375-4.125s-4.625-2.25-4.625-2.25s4.625-1.125,6.5-1.625s8.75-0.875,13.875,2l8.625-2
		c0,0,2-6.125,2.125-6.75s-0.25-2.75,0.5-1.125s2.25,4,3.125,5.375s2.75,4,2.75,4l5.25,7.875c0,0,3.125-3.25,5.875-4.25
		s6.749-2.625,6.749-2.625s-1.5,3.5-1.625,4.375s-1.125,3.5-1.125,3.5l5.375,3.625c0,0,4.126-1.375,6.876-1.875s7-0.25,7-0.25
		s-2.875,1.875-4.25,3.25s-4,5.875-5.375,7.125l11,7.25l5.75,7.25l1.625,2.875c0,0-6.625-0.125-10.75-0.5s-12.376-1.125-20.25-7.25
		l-14.125-3.5L60.285,44.68z"/>
	<path style="fill:#FDD000;" d="M17.035,141.805c0,0,0.375,6.75,3.5,10.5s6.375,5,6.375,5l3-3.25v-2.625c0,0-5.25-2.625-5.5-12.625
		C24.41,138.805,22.035,143.305,17.035,141.805z"/>
	<path style="fill:#FDD000;" d="M28.785,139.305c0,0,2.375,6.875,7.625,9.375s8,1,8,1l-1.75-7c0,0-6.125-1.25-7.75-7
		C34.91,135.68,32.66,138.43,28.785,139.305z"/>
	<path style="fill:#FDD000;" d="M25.16,125.43c0,0-1.375,6.875-1.625,8.75s2.625,5.25,6.375,4.625s6.875-5.375,6.25-11.25
		l-3.875-4.125C32.285,123.43,30.285,126.18,25.16,125.43z"/>
	<path style="fill:#FDD000;" d="M8.285,122.305l3.375-2.875l2.125,4.375c0,0-1.375,2.625-1.625,6.875c-0.25,4.25,1,6.75,1,6.75
		s-1,4.375-2.5,6.125s-2.75,2.125-2.75,2.125L8.285,122.305z"/>
	<path style="fill:#FDD000;" d="M15.035,109.805c0,0-1.875,1.75-2.875,5s1.25,8.375,1.25,8.375s0.5,0.75,1.5,0.75s5.125-3,5.5-6
		s1.625-9.5,1.625-9.5l-1.25,1.5C20.785,109.93,17.285,112.555,15.035,109.805z"/>
	<path style="fill:#FDD000;" d="M33.41,104.555c0,0,1.625,5.625,4.375,7.375s7.625,1.125,8.875-0.625s1.625-6.125-1.875-8.25
		s-6.875-1.5-6.875-1.5s-1.625,2.125-2.875,2.125S33.41,104.18,33.41,104.555z"/>
	<path style="fill:#FDD000;" d="M18.16,91.305c0,0-3.625,0.25-6.625,2.625s-3.125,4.625-3.125,5.5s-0.375,2.25,2.25,3.25
		s3.875,0,3.875,0s2.5-4.375,6.25-7.5C20.785,95.18,18.41,93.305,18.16,91.305z"/>
	<path style="fill:#FDD000;" d="M16.16,83.055c0,0,0.25-2-1.5-4.125s-4.5-2.25-5.375-1.75S8.16,78.93,8.16,78.93l0.125,6.375
		C8.285,85.305,11.16,81.555,16.16,83.055z"/>
	<path style="fill:#FDD000;" d="M15.785,82.93c0,0,3.125,0.625,4.125,4.75c0,0,1.875-2,4.625-1.75c0,0,1.125-1.875,1.375-2.625
		s0.25-4-3.875-4.75S16.035,81.305,15.785,82.93z"/>
	<path style="fill:#FDD000;" d="M20.66,78.43c0,0-0.375-8.875,0.5-11.625s5.875-1.375,6.25-1.25s3.125,5.125,3.125,5.125
		l-0.625,2.875c0,0-1.375,3.5-1.25,7l-2.75,2.75C25.91,83.305,26.16,77.93,20.66,78.43z"/>
	<path style="fill:#FDD000;" d="M27.785,92.93c0,0,3.75-2,9.25,1.25c0,0,1.375-2.375,0.875-4.5s-3.125-3.125-5.75-2.75
		s-4.375,2-4.375,2V92.93z"/>
	<path style="fill:#FDD000;" d="M37.91,92.555c0,0,5.5-3.375,13.5,1.5c0,0,3-0.25,3.125-3.75s-2.375-5-4.5-5.375
		s-8-0.125-12.125,4.75V92.555z"/>
	<path style="fill:#FDD000;" d="M40.41,71.055c0,0,0.75-2.625,3.625-3.5s5.875,0.125,7.125,3.25s1.25,6.375,1.25,6.375l-1.5-0.25
		c0,0-4.5-2.5-7.75-1C43.16,75.93,43.66,73.93,40.41,71.055z"/>
	<path style="fill:#FDD000;" d="M58.035,39.555c0,0-0.75,3-8.75,2.125s-12.625-4.5-13.625-5.125s-6.875-3.5-6.875-3.5
		s0-0.375,1.875-1s4.125-1.25,5.5-2.125s4.5-2.25,6.375-1.625c0,0,2.5,3.125,6.25,5.125s7.5,2,7.5,2L58.035,39.555z"/>
	<path style="fill:#FDD000;" d="M65.035,44.305c0,0-4.625-0.125-7.75-6.75s-3.875-13.75-4-17.125s-0.25-7.625-0.25-7.625
		s2.5,2.625,4,3.75s4.5,4,4.5,4s-0.75,2.875-0.75,10.125S64.035,42.68,65.035,44.305z"/>
	<path style="fill:#FDD000;" d="M71.91,16.555c0,0-2.375,7.375-3.125,10.375s-1.5,7.75-0.375,12.125s3.5,9,3.5,9l0.75-1.375l1-2
		c0,0,2.375-6.625,2-13.125s-2.5-11.5-2.75-12.25S71.785,15.93,71.91,16.555z"/>
	<path style="fill:#FDD000;" d="M85.41,30.555c0,0,5.75-2.25,7.25-3c1.501-0.75,2.001-0.75,2.001-0.75s0,1-0.625,1.75
		S91.41,31.93,90.66,33.68s-2.5,6-6,10.25c-3.499,4.25-7.374,3.375-8.374,3.375s-1.875-1.875-1.5-2.125s3.75-1.125,6.375-5
		S84.91,32.68,85.41,30.555z"/>
	<path style="fill:#FDD000;" d="M82.535,48.305c0,0,1,2.125,7.124,3c6.126,0.875,11.626,0.375,16.001,1.75s7.125,5.125,7.125,5.125
		s-2-5.5-2.75-7.5s-3.625-5.875-8.625-7.75s-7.5,0-7.5,0s-2.376,4.375-8.376,4.75C85.535,47.68,82.285,47.43,82.535,48.305z"/>
	<path style="fill:#E60012;" d="M60.16,7.555c0,0,1.875,4.5,7.75,5.25s10.125-1.875,10.125-1.875s-1.875,3.25,0.375,6.25
		s7.499,4.125,10.624,1c0,0,1.75,7.375,9.251,8.625c7.5,1.25,9.625-2.875,9.625-2.875s2,3.625,6.75,4.75c0,0,2.25,5.875,4,7.375
		c0,0-3.25,3.875-2.375,8.125s6.625,8,12.25,8.25c5.625,0.25,10.625-4.625,11.25-6.875c0,0,3.125,2.375,5,2V16.43
		c0,0-0.5-8.5-9.375-9.25h-72L60.16,7.555z"/>
	<path d="M18.206,6.597c-5.861,0-10.63,4.769-10.63,10.63v203.659c0,5.861,4.768,10.629,10.63,10.629h116.658
		c5.861,0,10.63-4.768,10.63-10.629V17.226c0-5.861-4.769-10.63-10.63-10.63H18.206z M8.994,220.885V17.226
		c0-5.08,4.133-9.213,9.213-9.213h116.658c5.08,0,9.212,4.133,9.212,9.213v203.659c0,5.08-4.132,9.211-9.212,9.211H18.206
		C13.126,230.096,8.994,225.965,8.994,220.885z"/>
	<path d="M47.351,110.371l-0.473,0.127l-0.048,0.487c-1.905,19.181,5.952,32.959,12.879,41.139
		c10.459,12.352,26.368,20.944,40.529,21.888c22.556,1.504,32.624-8.043,33.042-8.449l0.244-0.238l-0.034-0.34
		c-0.026-0.268-2.945-26.933-27.531-45.248C81.466,101.493,47.689,110.28,47.351,110.371z M105.112,120.873
		c22.545,16.793,26.493,40.721,26.924,43.899c-1.61,1.379-11.646,9.164-31.703,7.826c-13.798-0.92-29.318-9.315-39.541-21.39
		c-6.052-7.147-12.833-18.678-12.833-34.454c0-1.661,0.099-3.382,0.258-5.136C52.376,110.632,82.748,104.214,105.112,120.873z"/>
	<path d="M47.494,110.348c-0.391,0.022-0.689,0.357-0.667,0.748c0.015,0.266,1.837,26.815,29.301,46.04
		c27.488,19.242,56.614,8.692,56.905,8.584c0.366-0.137,0.553-0.545,0.416-0.912c-0.137-0.366-0.545-0.553-0.912-0.416
		c-0.284,0.106-28.735,10.387-55.596-8.416c-26.877-18.814-28.684-44.702-28.699-44.961
		C48.22,110.623,47.885,110.325,47.494,110.348z"/>
	<path d="M56.438,158.673l-0.398,0.622l0.638,0.372c0.288,0.167,28.794,16.788,35.435,21.708l0.637,0.471l4.899-8.436l-1.227-0.711
		c0,0-3.462,5.961-4.11,7.08c-7.053-5.016-30.101-18.523-34.282-20.965c0.646-1.008,3.602-5.628,3.602-5.628l-1.193-0.764
		L56.438,158.673z"/>
	<g>
		<path d="M81.119,133.639c-0.84-3.99-3.2-7.183-4.832-9.002c0.761-1.535,1.796-0.971,2.832-0.165c1.5,1.167,2.833,7.833,2.833,10.5
			c0,2.667,0,5.834,0,6.334s0.667,0.167,0.834-1.167c0.167-1.333,1.833-6.5,1.833-12s0-7.667-2.833-9.333
			c-2.675-1.573-6.683,0.27-8.386,3.145c-0.121-0.414-0.141-0.992,0.052-1.812c0.667-2.833,0.5-4,0-5.167
			c-0.5-1.166-1.833-1.666-1.833-1.666s-2.667,0.666-4.667,0c-2-0.667-1.167,0.833-1,1.5c0.167,0.666,0.501,2.333,0.167,3.5
			c0,0-3-3.001-4.667-4.334s-4.833-1.833-6.333-1.666c-1.5,0.166-3.167,3-2.833,4.5s2.5,4.499,4.167,6.166s5,3.167,3.833,1.834
			c0,0-3.167-4.334-3.667-5.5c-0.5-1.167,3.5-0.167,9.167,5c0,0-0.333,3.333-1.667,5.166c-1.333,1.834-2.333,2.5-2.333,2.5
			s-0.167,0.334,1,0.334s5.166-1.833,7-4.667l0.666-0.667c0,0,0.541,0.3,1.316,0.798c-0.361,2.807-0.367,5.892,0.018,8.202
			c0.666,4,3.333,5.5,5.5,5.5C79.452,141.472,82.452,139.972,81.119,133.639z M77.285,137.305c-1.423,0.285-2.235-2.595-2.028-6.864
			c0.678,0.642,1.283,1.331,1.695,2.031C78.619,135.305,78.952,136.972,77.285,137.305z"/>
		<path d="M113.953,150.638c-0.303-6.046-2.392-12.631-5.637-16.168c1.453-0.148,3.19-0.583,4.47-1.665
			c2.167-1.834-0.499-5.334-4.833-6.334c-3.341-0.771-9.047-0.057-11.796,0.541c0.566-0.964,1.073-1.763,1.629-2.041
			c1-0.5,2.001-0.333,2.667-1.666c0.666-1.334,0-3.501-2-4.334s-4.834,0-5.834,1.5s-2.168,2.167-3.5,2.5
			c-1.334,0.334-3.334,1.167-3.334,3.5c0,2.334-3.999,18.501-4.166,19.167c-0.166,0.667-0.333,1.667-1,0
			c-0.667-1.667-2.667-4-2.333-1.833c0,0,0.5,3.667,1.333,7.333c0.833,3.667,0.834,4.833,2.5,4.833c1.667,0,3.834-2.333,4.166-3.499
			c0.311-1.089,3.523-17.557,4.359-20.837c0.121-0.014,0.762-0.01,1.809,1.336c0.07,0.091,0.152,0.205,0.242,0.337
			c-1.881,1.78-3.076,5.05-3.076,10.83c0,6.834,2.666,12.834,7,14.5c4.334,1.666,8-2.001,6.667-8.667
			c-1.124-5.622-3.903-11.113-5.848-14c2.142-0.613,4.681,0.392,6.681,2.999c3.834,5,5.834,13.167,6.167,16.667
			c0.333,3.5,0.501,7,0.167,7.666c-0.334,0.666,0.999,0.167,1.666-0.166C112.786,162.805,114.263,156.835,113.953,150.638z
			 M96.786,153.638c-1,0-4.667-4.833-3.501-11.833c0.308-1.839,0.941-3.241,1.771-4.235c1.397,2.865,2.904,6.538,3.562,9.735
			C99.786,152.972,97.786,153.638,96.786,153.638z M94.318,132.197c-0.499-0.612-0.894-1.198-1.092-1.792
			c0.485-0.109,0.972-0.355,1.393-0.933c0.237-0.327,0.455-0.663,0.665-0.999c0.001-0.001,0.001-0.001,0.002-0.001
			c0,0,5.167-0.333,8.667,0.667c3.083,0.881,4.481,3.311,3.178,4.22C103.512,130.525,97.145,130.92,94.318,132.197z"/>
	</g>
	<path d="M23.786,85.213l-0.024,0.001c-1.735,0.12-5.235,1.327-6.061,5.042c-0.33,1.487-0.044,2.846,0.828,3.934
		c1.437,1.791,4.034,2.347,4.818,2.347c1.727,0,5.036-1.113,5.197-5.325c0.087-2.272-0.786-3.676-1.534-4.454
		c-1.022-1.062-2.375-1.545-3.199-1.545H23.786z M19.634,93.304c-0.436-0.544-0.652-1.157-0.652-1.858
		c0-0.279,0.034-0.573,0.103-0.881c0.781-3.516,4.418-3.904,4.737-3.931c0.432,0.003,1.392,0.303,2.167,1.108
		c0.76,0.79,1.144,1.85,1.144,3.152c0,0.087-0.001,0.175-0.005,0.264c-0.148,3.852-3.41,3.963-3.781,3.963
		C22.849,95.121,20.742,94.685,19.634,93.304z"/>
	<path d="M14.467,101.692c-1.062,2.477-1.075,5.868-0.032,8.062c0.522,1.098,1.267,1.812,2.155,2.065
		c1.155,0.33,2.375,0.136,3.436-0.545c1.236-0.794,2.839-2.6,3.46-6.697c0.848-5.598-0.149-8.85-0.191-8.986l-1.352,0.425
		c0.009,0.03,0.937,3.107,0.142,8.349c-0.422,2.787-1.426,4.817-2.825,5.716c-0.724,0.465-1.512,0.595-2.28,0.375
		c-0.613-0.175-1.026-0.81-1.264-1.312c-0.87-1.829-0.847-4.793,0.054-6.895c1.404-3.277,5.558-6.343,5.6-6.374l-0.836-1.145
		C20.35,94.867,16.026,98.056,14.467,101.692z"/>
	<path d="M25.738,95.403c0.053,0.034,5.268,3.389,6.024,6.566c0.893,3.753-0.015,5.922-2.858,6.827
		c-3.192,1.016-6.242-2.116-6.273-2.147l-1.025,0.979c0.148,0.156,3.686,3.806,7.728,2.52c3.598-1.145,4.878-4.006,3.808-8.506
		c-0.889-3.736-6.408-7.285-6.642-7.434L25.738,95.403z"/>
	<path d="M8.492,96.759c-0.812,1.656-0.948,3.516-0.365,4.975c1.214,3.035,6.436,1.812,6.658,1.759l-0.332-1.378
		c-0.043,0.01-4.262,0.963-5.01-0.908c-0.438-1.093-0.317-2.523,0.321-3.825c0.856-1.744,3.034-4.154,8.549-5.731l-0.39-1.362
		C11.908,92.009,9.474,94.757,8.492,96.759z"/>
	<path d="M7.813,88.612c2.206,4.598,9.134,3.443,9.428,3.392l-0.244-1.396c-0.061,0.011-6.164,1.021-7.907-2.608L7.813,88.612z"/>
	<path d="M7.705,85.732l1.16,0.814c0.021-0.03,2.186-3.033,5.754-3.033c3.386,0,4.435,4.117,4.478,4.292l1.377-0.334
		c-0.449-1.859-2.25-5.376-5.855-5.376C10.299,82.097,7.809,85.584,7.705,85.732z"/>
	<path d="M27.135,92.671l0.632,1.269c0.037-0.019,3.754-1.808,7.701,0.166c1.416,0.708,2.241,1.847,2.453,3.385
		c0.263,1.907-0.546,3.971-1.446,4.79c-1.473,1.339-3.2,0.722-3.273,0.695l-0.504,1.325c0.105,0.04,2.599,0.967,4.731-0.971
		c1.176-1.069,2.24-3.546,1.898-6.032c-0.192-1.396-0.908-3.302-3.224-4.459C31.504,90.539,27.311,92.583,27.135,92.671z"/>
	<path d="M27.243,89.182l1.083,0.914c0.024-0.028,2.483-2.866,6.038-2.421c2.297,0.287,2.799,2.429,2.898,3.079
		c0.188,1.231-0.167,2.209-0.603,2.407l0.587,1.29c1.108-0.504,1.691-2.112,1.417-3.911c-0.282-1.851-1.513-3.945-4.123-4.271
		C30.207,85.727,27.362,89.041,27.243,89.182z"/>
	<path d="M29.722,79.416c-2.867,1.146-5.478,4.351-5.478,6.722h1.417c0-1.802,2.272-4.48,4.588-5.406
		c1.042-0.417,2.529-0.658,3.69,0.562c2.863,3.006,1.176,5.496,1.103,5.601l1.152,0.826c0.025-0.035,2.468-3.523-1.229-7.404
		C33.632,78.917,31.77,78.597,29.722,79.416z"/>
	<path d="M20.54,77.768c-4.038,0.448-5.23,3.581-5.297,5.174l1.416,0.062c0.007-0.139,0.219-3.404,4.037-3.828
		c2.125-0.236,3.208,0.726,3.742,1.575c0.64,1.018,0.65,2.131,0.412,2.512l1.202,0.751c0.6-0.961,0.422-2.688-0.414-4.018
		C25.025,79.021,23.546,77.433,20.54,77.768z"/>
	<path d="M7.677,78.441l1.216,0.729c0.41-0.683,1.433-1.724,3.681-1.022c2.222,0.694,2.843,3.76,2.849,3.791l1.392-0.267
		c-0.031-0.16-0.782-3.928-3.818-4.877C9.611,75.738,8.069,77.787,7.677,78.441z"/>
	<path d="M20.264,118.643c1.224,4.896,3.844,7.704,7.188,7.704c1.739,0,3.568-0.888,5.016-2.436c1.781-1.903,2.701-4.51,2.524-7.153
		c-0.347-5.206-3.569-8.483-3.706-8.62l-1.003,1.001c0.03,0.03,2.984,3.057,3.295,7.714c0.15,2.253-0.632,4.473-2.146,6.09
		c-1.164,1.244-2.652,1.987-3.981,1.987c-3.75,0-5.314-4.637-5.812-6.63c-0.917-3.669,1.079-9.384,1.408-9.945l-1.185-0.776
		C21.494,108.13,19.193,114.359,20.264,118.643z"/>
	<path d="M11.245,116.415c-0.333,4.167,1.648,8.135,3.068,8.419c1.431,0.286,5.477-1.619,6.995-8.031l-1.379-0.327
		c-1.368,5.777-4.721,6.961-5.304,6.968c-0.457-0.247-2.002-2.627-2.002-6.022c0-0.29,0.011-0.588,0.036-0.892
		c0.305-3.813,2.904-6.169,2.931-6.193l-0.939-1.062C14.525,109.383,11.597,112.013,11.245,116.415z"/>
	<path d="M7.679,121.984l0.545,1.309c2.154-0.897,4.208-3.614,4.295-3.729l-1.134-0.851C11.366,118.738,9.474,121.237,7.679,121.984
		z"/>
	<path d="M38.002,101.106l0.232,1.398c0.028-0.005,2.842-0.453,5.121,0.459c1.196,0.478,2.393,1.791,3.049,3.344
		c0.553,1.307,0.632,2.572,0.225,3.562c-0.466,1.133-1.503,2.026-2.844,2.451c-1.653,0.523-3.519,0.24-5.12-0.779
		c-3.385-2.154-4.848-7.53-4.862-7.584l-1.37,0.363c0.064,0.243,1.615,5.963,5.471,8.417c1.956,1.244,4.255,1.585,6.309,0.934
		c1.742-0.552,3.1-1.741,3.726-3.262c0.553-1.342,0.471-2.995-0.23-4.653c-0.809-1.913-2.275-3.487-3.829-4.108
		C41.228,100.586,38.133,101.084,38.002,101.106z"/>
	<path d="M37.441,92.352l0.687,1.24c0.043-0.023,4.335-2.332,9.796-0.772c5.766,1.647,5.789,6.796,5.343,8.469
		c-0.104,0.388-0.433,0.728-0.979,1.009c-1.833,0.944-5.405,0.871-7.254,0.177l-0.498,1.327c2.17,0.813,6.154,0.913,8.401-0.245
		c0.917-0.472,1.488-1.113,1.699-1.903c0.804-3.014-0.202-8.448-6.323-10.197C42.268,89.73,37.636,92.245,37.441,92.352z"/>
	<path d="M46.721,84.266c-5.741,0.521-9.345,5.077-9.496,5.271l1.118,0.871c0.034-0.043,3.391-4.265,8.505-4.73
		c2.22-0.202,3.972,0.231,5.209,1.288c1.397,1.193,1.645,2.766,1.686,3.387c0.065,0.977-0.189,1.749-0.716,2.175
		c-0.317,0.256-0.719,0.357-1.049,0.263l-0.389,1.362c0.777,0.222,1.649,0.027,2.328-0.523c0.519-0.419,1.371-1.415,1.24-3.372
		c-0.113-1.691-0.908-3.284-2.18-4.371C51.462,84.592,49.298,84.032,46.721,84.266z"/>
	<path d="M42.541,75.64c-5.255,1.927-7.02,6.89-7.092,7.101l1.339,0.463c0.016-0.045,1.633-4.544,6.241-6.233
		c2.378-0.873,5.095-0.658,7.268,0.574c1.528,0.866,2.546,2.103,2.792,3.394c0.551,2.894-1.681,4.015-1.776,4.062l0.607,1.28
		c1.152-0.542,3.169-2.412,2.561-5.608c-0.324-1.7-1.594-3.289-3.485-4.361C48.466,74.877,45.305,74.626,42.541,75.64z"/>
	<path d="M31.84,70.754c-4.584,3.702-3.954,9.711-3.925,9.965l1.408-0.16c-0.006-0.054-0.56-5.498,3.408-8.703
		c2.162-1.746,5.067-1.326,6.988-0.135c1.427,0.885,2.801,2.514,2.375,4.43l1.384,0.308c0.491-2.21-0.663-4.486-3.011-5.942
		C38.12,69.062,34.542,68.571,31.84,70.754z"/>
	<path d="M23.797,65.635c-0.948,0.194-2.238,0.828-3.003,2.741c-1.379,3.447-0.903,9.878-0.882,10.15l1.413-0.108
		c-0.005-0.063-0.472-6.375,0.784-9.516c0.427-1.065,1.09-1.698,1.973-1.879c1.035-0.212,2.322,0.236,3.202,1.117
		c1.471,1.471,2.397,4.545,1.835,6.09l1.332,0.484c0.755-2.077-0.277-5.688-2.165-7.576C27.064,65.915,25.302,65.326,23.797,65.635z
		"/>
	<path d="M13.841,66.519c-0.89,0.569-2.004,1.732-2.26,4.042c-0.525,4.721,1.865,8.027,1.967,8.165l1.142-0.839
		c-0.021-0.03-2.162-3.018-1.701-7.169c0.157-1.408,0.7-2.418,1.616-3.004c1.171-0.749,2.708-0.65,3.456-0.401
		c1.072,0.357,2.165,1.314,2.019,2.93l1.411,0.128c0.183-2.01-0.988-3.738-2.981-4.403C17.304,65.565,15.33,65.566,13.841,66.519z"
		/>
	<path d="M39.964,70.866l1.308,0.547c0.061-0.145,1.539-3.524,5.292-3.235c1.614,0.124,2.999,1.235,3.703,2.972
		c0.738,1.818,0.531,3.836-0.514,5.02l1.062,0.938c1.414-1.602,1.714-4.15,0.765-6.49c-0.911-2.246-2.746-3.686-4.908-3.852
		C42.841,66.47,40.609,69.319,39.964,70.866z"/>
	<path d="M54.034,99.435l0.167,1.407c0.155-0.018,3.836-0.401,6.377,2.588c2.283,2.686,0.166,4.62-0.083,4.833l0.91,1.086
		c0.06-0.05,1.461-1.238,1.624-3.126c0.109-1.264-0.353-2.513-1.371-3.711C58.614,98.93,54.22,99.413,54.034,99.435z"/>
	<path d="M31.48,123.446c0.095,0.198,2.39,4.843,7.859,5.726c3.582,0.578,5.917-0.686,6.991-1.491
		c1.102-0.826,1.884-1.92,1.992-2.787l-1.406-0.176c-0.04,0.321-0.465,1.101-1.436,1.829c-0.894,0.67-2.85,1.72-5.915,1.226
		c-4.722-0.762-6.788-4.9-6.808-4.942L31.48,123.446z"/>
	<path d="M22.91,134.639c0,1.666,0.961,3.212,2.571,4.137c2.071,1.19,4.751,1.116,6.994-0.192c4.074-2.376,4.93-7.903,4.512-11.039
		l-1.405,0.188c0.255,1.909,0.065,7.361-3.821,9.627c-2.159,1.259-4.295,0.922-5.574,0.188c-1.165-0.669-1.86-1.756-1.86-2.908
		c0-3.2,1.625-9.254,1.642-9.315l-1.368-0.37C24.532,125.209,22.91,131.251,22.91,134.639z"/>
	<path d="M11.751,134.248c0.495,3.165,1.995,5.786,4.116,7.192c1.436,0.952,3.066,1.267,4.589,0.886
		c3.694-0.923,4.8-4.835,4.845-5.001l-1.367-0.375c-0.009,0.033-0.944,3.281-3.822,4.001c-1.149,0.287-2.346,0.048-3.462-0.692
		c-1.79-1.187-3.066-3.458-3.499-6.23c-0.789-5.046,1.42-9.877,1.442-9.925l-1.285-0.599
		C13.21,123.718,10.894,128.765,11.751,134.248z"/>
	<path d="M8.197,144.602l0.176,1.406c4.508-0.564,5.414-8.941,5.451-9.298l-1.41-0.144C12.196,138.682,11.014,144.25,8.197,144.602z
		"/>
	<path d="M39.477,128.774c0.18,0.381,4.484,9.323,11.287,7.891l-0.292-1.387c-5.707,1.201-9.674-7.026-9.713-7.109L39.477,128.774z"
		/>
	<path d="M34.141,135.766c0.114,0.25,2.852,6.14,7.436,7.55c1.885,0.58,3.597,0.198,4.824-1.075c1.509-1.569,2.011-4.243,1.22-6.503
		l-1.338,0.468c0.612,1.748,0.232,3.872-0.904,5.052c-0.848,0.881-2.019,1.124-3.385,0.704c-3.974-1.222-6.539-6.729-6.564-6.785
		L34.141,135.766z"/>
	<path d="M27.946,139.363c0.121,0.363,3.028,8.898,8.858,10.136c1.666,0.353,3.038,0.084,4.08-0.804
		c2.102-1.79,1.949-5.436,1.942-5.591l-1.416,0.068c0.001,0.031,0.124,3.111-1.448,4.445c-0.698,0.593-1.635,0.755-2.864,0.494
		c-5.035-1.068-7.781-9.116-7.808-9.198L27.946,139.363z"/>
	<path d="M23.743,138.158c0.007,0.252,0.197,6.216,2.419,10.318c2.267,4.186,6.808,4.696,8.606,3.797
		c1.647-0.824,1.87-3.304,1.89-3.584l-1.414-0.102c-0.038,0.502-0.323,2.023-1.11,2.418c-1.082,0.541-4.79,0.375-6.727-3.204
		c-2.059-3.801-2.247-9.624-2.248-9.683L23.743,138.158z"/>
	<path d="M21.954,154.265c1.986,1.051,3.748,1.258,5.237,0.612c2.215-0.96,2.916-3.446,2.945-3.552l-1.367-0.375
		c-0.005,0.019-0.562,1.948-2.15,2.631c-1.073,0.46-2.42,0.269-4.002-0.569c-5.204-2.755-4.96-11.758-4.957-11.849l-1.416-0.049
		C16.229,141.52,15.964,151.093,21.954,154.265z"/>
	<path d="M10.243,143.487c0.007,0.324,0.229,7.955,4.892,10.286c1.801,0.9,3.191,1.045,4.131,0.432
		c0.897-0.586,1.088-1.701,1.06-2.268l-1.416,0.064c0,0.008,0.012,0.738-0.424,1.02c-0.469,0.301-1.46,0.113-2.718-0.516
		c-3.897-1.949-4.107-8.979-4.108-9.05L10.243,143.487z"/>
	<path d="M54.353,89.604l0.195,1.404c0.067-0.009,6.696-0.864,8.936,3.615c2.157,4.315-3.297,7.267-3.531,7.39l0.661,1.253
		c2.403-1.265,6.36-4.831,4.137-9.277C62.056,88.595,54.667,89.56,54.353,89.604z"/>
	<path d="M71.292,15.545c-0.022,0.056-2.209,5.658-3.869,14.123c-1.701,8.675,3.217,16.675,3.427,17.012l0.189,0.302l0.355,0.029
		c0.561,0.045,1.396-0.097,2.183-1.025c2.961-3.495,3.104-15.685,2.229-19.186c-0.993-3.971-3.154-11.128-3.176-11.2l-0.59-1.952
		L71.292,15.545z M68.49,33.371c0-1.123,0.098-2.273,0.324-3.43c1.053-5.369,2.309-9.531,3.08-11.846
		c0.717,2.424,1.881,6.424,2.537,9.048c0.258,1.033,0.408,2.962,0.408,5.2c0,4.69-0.656,10.736-2.342,12.727
		c-0.27,0.319-0.485,0.423-0.665,0.475C71.069,44.185,68.49,39.163,68.49,33.371z"/>
	<path d="M63.774,11.097l-2.835,9.342c-0.896,3.043-1.509,11.713,0.511,17.436c2.039,5.777,4.47,8.438,5.47,9.038
		c0.289,0.173,0.784,0.309,1.507-0.024c1.012-0.468,2.378-1.896,2.557-2.967l-1.398-0.232c-0.111,0.67-1.5,1.969-1.97,1.982
		c-0.672-0.43-2.89-2.776-4.829-8.269c-0.944-2.674-1.283-6.024-1.283-9.083c0-3.162,0.362-6.012,0.794-7.481
		c0,0,1.458-4.805,2.213-7.292c0.613,1.566,1.542,3.654,2.562,4.878c1.525,1.83,2.012,4.163,2.016,4.186l1.39-0.278
		c-0.022-0.109-0.555-2.701-2.317-4.815c-1.559-1.87-3.022-6.384-3.037-6.43L64.432,8.93L63.774,11.097z"/>
	<path d="M52.083,12.405c0.007,0.046,0.66,4.669,0.66,8.9c0,3.56,2.332,23.119,12.646,24.039l0.126-1.412
		c-8.515-0.76-11.354-18.051-11.354-22.628c0-2.514-0.224-5.132-0.413-6.918c0.965,1.014,2.246,2.305,3.414,3.292l3.981,3.483
		l0.953-1.049l-4.019-3.517c-2.103-1.779-4.735-4.734-4.761-4.763l-1.564-1.759L52.083,12.405z"/>
	<path d="M36.083,20.194c-1.83,0.34-3.411,0.634-4.421,0.57l-0.291,1.372c0.057,0.021,5.716,2.14,7.912,4.336l0.517,0.524
		c2.798,2.845,9.352,9.509,16.516,9.184l-0.065-1.416c-6.532,0.297-12.775-6.051-15.441-8.762l-0.525-0.531
		c-1.393-1.393-3.879-2.685-5.797-3.56c0.592-0.098,1.19-0.201,1.854-0.324c2.636-0.49,5.916-1.099,9.066-0.908
		c5.17,0.313,7.74,2.324,7.765,2.344l0.892-1.101c-0.116-0.094-2.909-2.315-8.571-2.658C42.17,19.063,38.795,19.69,36.083,20.194z"
		/>
	<path d="M35.767,29.523c-1.559,0.89-4.343,1.704-8.275,2.418l-0.077,1.376c0.032,0.01,3.254,0.987,5.3,2.404
		c2.666,1.846,8.15,5.159,14.921,6.61c7.293,1.563,10.836-1.878,10.983-2.025l-1-1.005c-0.127,0.125-3.192,3.036-9.687,1.645
		c-6.531-1.399-11.833-4.604-14.412-6.39c-1.013-0.701-2.241-1.284-3.305-1.724c2.809-0.624,4.923-1.319,6.253-2.079
		c2.187-1.25,5.388-1.743,5.42-1.748l-0.211-1.401C41.539,27.625,38.188,28.141,35.767,29.523z"/>
	<path d="M31.355,38.314l-5.875,2.67l2.362,0.355c0.052,0.008,5.246,0.834,8.099,2.419c2.902,1.612,9.99,4.079,15.99,4.255
		c6.717,0.197,10.335-3.791,10.726-4.247l-1.076-0.922c-1.253,1.462-4.687,3.897-9.608,3.752
		c-5.514-0.162-12.453-2.472-15.343-4.078c-1.858-1.032-4.505-1.741-6.369-2.152c0.802-0.365,1.621-0.737,1.621-0.737l4.203-1.849
		l-0.6-1.284L31.355,38.314z"/>
	<path d="M84.894,23.299c-4.815,1.605-8.199,4.068-10.058,7.321l1.23,0.703c1.68-2.94,4.801-5.188,9.274-6.679
		c0.529-0.176,1.215-0.519,1.898-0.896c-1.139,2.112-1.928,4.52-2.721,7.047c-0.983,3.139-2.001,6.385-3.823,9.118
		c-3.625,5.438-7.074,4.583-7.219,4.544l-0.39,1.362c0.184,0.054,4.548,1.239,8.788-5.121c1.935-2.902,2.982-6.246,3.996-9.48
		c1.115-3.555,2.168-6.913,4.275-9.274l-0.922-1.062C89.197,20.901,86.287,22.835,84.894,23.299z"/>
	<path d="M91.054,27.302c-4.438,1.536-6.037,3.103-6.104,3.168l1,1.005c0.014-0.014,1.488-1.423,5.566-2.835
		c1.037-0.359,1.84-0.626,2.476-0.831c-0.958,1.107-2.087,2.453-2.63,3.269l-1.184,2.299c-1.285,2.687-3.438,7.184-6.405,10.27
		c-2.848,2.961-7.039,3.298-7.864,2.513c-0.21-0.201,0.245-0.715,0.39-0.869l-1.03-0.973c-1.471,1.557-0.63,2.588-0.337,2.867
		c1.526,1.454,6.551,0.888,9.863-2.556c3.125-3.251,5.338-7.877,6.66-10.641l1.086-2.125c0.959-1.439,4.07-4.883,4.102-4.917
		l1.071-1.184h-1.597C95.58,25.763,92.714,26.727,91.054,27.302z"/>
	<path d="M98.925,31.431c-4.474,0.172-8.678,2.831-8.855,2.944l0.764,1.194c0.041-0.025,4.065-2.564,8.147-2.722
		c1.523-0.059,2.886-0.158,4.033-0.262c-1.018,0.646-2.089,1.413-2.896,2.219c-0.58,0.58-1.257,1.485-2.04,2.534
		c-2.073,2.775-4.914,6.576-8.752,8.322c-4.301,1.955-7.332,1.555-7.706,1.161c0.035,0.036,0.054,0.109,0.054,0.176
		c0,0.038-0.009,0.071-0.022,0.098c-0.011-0.01-1.07-0.917-1.07-0.917c-0.4,0.466-0.434,1.042-0.089,1.501
		c0.961,1.279,4.977,1.292,9.42-0.728c4.171-1.896,7.137-5.865,9.302-8.764c0.751-1.005,1.398-1.873,1.906-2.38
		c1.89-1.889,5.602-3.677,5.639-3.695l-0.416-1.339C106.311,30.777,103.162,31.267,98.925,31.431z"/>
	<path d="M94.887,42.135l0.461,1.34c0.041-0.014,4.097-1.345,8.402,1.269c4.045,2.455,6.314,7.671,7.283,9.898l0.273,0.622
		c0,0,0.127,0.313,0.146,0.358c-1.274-1.236-2.917-2.438-4.93-3.152c-2.908-1.032-7.057-1.24-11.069-1.442
		c-3.255-0.164-6.329-0.318-8.3-0.903c-3.494-1.035-3.664-2.077-3.666-2.087l-0.012,0.087l-1.383-0.308
		c-0.112,0.503-0.106,2.255,4.658,3.667c2.133,0.632,5.289,0.791,8.631,0.959c3.911,0.197,7.954,0.4,10.666,1.363
		c4.826,1.712,7.411,6.765,7.437,6.816l1.296-0.569l-2.183-5.375l-0.265-0.601c-1.022-2.351-3.418-7.856-7.847-10.545
		C99.591,40.561,95.077,42.07,94.887,42.135z"/>
	<path d="M81.268,51.623c0.21,0.224,5.267,5.52,15.041,7.542c9.654,1.998,17.951,1.353,18.034,1.346l-0.115-1.412
		c-0.081,0.006-8.187,0.633-17.632-1.321c-9.31-1.926-14.246-7.073-14.295-7.125L81.268,51.623z"/>
	<path d="M83.035,51.889l1.583-1.5c0,0-1.833-1.583-1.833-2c0-0.417-0.167-0.416-0.917-0.75c-0.75-0.333-2.333-1-2.333-1
		s-1.584,0.667-2.834,0.417s-1.5-1.75-1.5-1.75s-1.583,0-1.916,0.25c-0.334,0.25-1.167,1.166-1.834,0.75
		c-0.666-0.417-1.166-1.75-1.166-1.75s-1.25,2-2.417,1.75c-1.167-0.25-2.25-1.834-2.25-1.834s-3.5-0.916-4-0.583
		c-0.5,0.333-2,1.583-2,1.583s2.167,8.667,6.917,11.25C71.285,59.305,79.868,54.806,83.035,51.889z"/>
	<path d="M8.285,207.473c0,0,6.167-10.168,24.167-7.334c0,0,6.334-14.834,24.667-14.5c18.333,0.332,29.832,13.834,49,37.666
		c0,0,3.666,5.168,6.5,7.5l-94.833,0.168c0,0-9.333-1.51-9.5-10.088V207.473z"/>
	<path d="M8.452,180.971c0,0,2.5-4.332,4.167-5.832s2.833-0.5,3,1.332c0.167,1.834,1.167,8,9.5,9.5
		c8.333,1.5,20.167-4.5,22.667-12.166c2.5-7.666,1.333-9.334,1.333-9.334s7.167-3.832,7.917-5.416c0.75-1.584,3.583-6.25,3.583-6.25
		s-8.083-10.625-9.583-15.875c0,0-0.5-1-1.125-1s-2.5,0.25-2.5,0.25s1.25,8.417-5.625,6.458c0,0,1,4.042-1.625,5.417
		s-3.875,0.5-3.875,0.5s-0.875,2.875-2.625,3.25s-3.75-0.375-3.75-0.375s-0.875,0.375-1,0.875s-0.75,2.125-3.125,2.25
		s-5.25-2.25-5.25-2.25s-0.875,0-1.25,0.75s-3.25,1.125-5.375-1s-3-7.625-3-7.625s-0.375-0.125-1,0.125c0,0-1.625,0.75-1.625,1.25
		s-0.125,32.75-0.125,32.75L8.452,180.971z"/>
	
		<rect x="46.528" y="173.596" transform="matrix(-0.9996 -0.0274 0.0274 -0.9996 124.7723 350.3192)" width="36.514" height="1.418"/>
	
		<rect x="95.774" y="175.346" transform="matrix(-0.9995 -0.0306 0.0306 -0.9995 235.128 355.7083)" width="49.023" height="1.419"/>
	<rect x="43.784" y="177.596" transform="matrix(-0.9999 -0.011 0.011 -0.9999 130.8456 357.3332)" width="45.252" height="1.418"/>
	
		<rect x="38.524" y="181.971" transform="matrix(-0.9996 -0.0269 0.0269 -0.9996 137.129 367.2059)" width="65.024" height="1.418"/>
	
		<rect x="8.525" y="186.096" transform="matrix(-0.9998 -0.0209 0.0209 -0.9998 108.6472 374.7478)" width="95.521" height="1.418"/>
	
		<rect x="11.369" y="175.109" transform="matrix(-0.7421 -0.6703 0.6703 -0.7421 -99.8799 322.3461)" width="1.416" height="10.56"/>
	<polygon points="8.271,191.014 45.271,191.764 117.523,193.014 117.548,191.596 45.297,190.346 8.299,189.596 	"/>
	<path d="M8.011,195.764l29.5,1c0.014,0,88.765,1.25,88.765,1.25l0.02-1.418l-88.751-1.25l-29.486-0.998L8.011,195.764z"/>
	<path d="M8.511,200.764l29,1c0.017,0,93.017,1,93.017,1l0.016-1.418l-93-1L8.56,199.348L8.511,200.764z"/>
	
		<rect x="91.283" y="207.596" transform="matrix(-0.9999 -0.0114 0.0114 -0.9999 223.9326 417.8898)" width="43.754" height="1.418"/>
	
		<rect x="96.534" y="213.596" transform="matrix(-0.9999 -0.0104 0.0104 -0.9999 239.0941 429.8491)" width="48.253" height="1.418"/>
	<rect x="63.91" y="55.399" transform="matrix(-0.9503 -0.3112 0.3112 -0.9503 107.2872 137.563)" width="1.417" height="9.645"/>
	<rect x="67.41" y="56.525" transform="matrix(-0.9744 -0.2246 0.2246 -0.9744 120.8017 135.6861)" width="1.417" height="8.894"/>
	<path d="M121.964,17.71c-2.415,0.138-4.695,1.481-6.257,3.686c-1.006,1.42-1.444,3.277-1.444,5.226c0,3.609,1.536,7.451,3.72,9.509
		c-0.833,0.958-2.421,3.196-2.421,6.369c0,0.614,0.06,1.263,0.195,1.944c1.134,5.667,9.694,9.414,15.648,8.393
		c4.949-0.849,7.683-4.633,8.621-6.192c0.873,0.543,2.53,1.369,4.759,1.369v-1.417c-2.688,0-4.53-1.489-4.548-1.504l-0.693-0.57
		l-0.395,0.806c-0.025,0.052-2.593,5.188-7.983,6.111c-5.676,0.974-13.143-2.901-14.017-7.274c-0.905-4.526,2.151-7.384,2.281-7.503
		l0.631-0.577l-0.683-0.514c-3.158-2.369-5.024-9.812-2.514-13.357c1.311-1.851,3.199-2.977,5.181-3.09
		c1.689-0.096,3.244,0.55,4.38,1.819c2.492,2.785,0.728,7.04,0.71,7.083l1.303,0.558c0.089-0.208,2.144-5.122-0.956-8.586
		C126.051,18.402,124.092,17.589,121.964,17.71z"/>
	<path d="M124.522,11.296c6.008,2.403,5.583,6.085,5.562,6.241l-0.122,0.902l0.906-0.097c0.201-0.023,4.959-0.503,6.745,4.853
		c1.879,5.637-0.769,11.072-0.795,11.127l1.268,0.633c0.089-0.178,1.628-3.32,1.628-7.43c0-1.497-0.204-3.121-0.757-4.778
		c-1.696-5.091-5.764-5.766-7.466-5.822c-0.107-1.504-0.993-4.765-6.442-6.945L124.522,11.296z"/>
	<path d="M76.929,13.141c-0.34,1.428-0.035,2.868,0.88,4.161c1.26,1.779,3.631,3.135,5.901,3.374
		c2.183,0.23,3.912-0.598,4.923-1.268c0.469,1.725,2.004,4.861,7.192,7.209c5.804,2.626,10.352-0.175,12.057-1.515
		c0.697,1.101,2.455,2.907,6.996,4.537l0.479-1.334c-5.902-2.119-6.541-4.459-6.547-4.483l-0.305-1.237l-0.896,0.893
		c-0.191,0.196-4.757,4.763-11.2,1.848c-6.446-2.917-6.581-7.02-6.583-7.193l-0.025-1.66l-1.184,1.163
		c-0.02,0.019-1.984,1.923-4.759,1.631c-1.859-0.196-3.871-1.341-4.893-2.784c-0.684-0.965-0.905-1.98-0.659-3.014
		C79.009,10.527,82.212,8.046,86.98,9c4.383,0.877,6.689,4.325,6.712,4.359l0.63,0.959l0.577-0.991
		c1.577-2.718,4.392-3.238,5.928-3.306c2.406-0.107,4.81,0.745,5.713,2.026c1.236,1.752,1.643,4.339,0.926,5.891
		c-0.369,0.799-1.012,1.246-1.911,1.328c-3.143,0.285-4.591-2.202-4.65-2.308l-1.237,0.691c0.077,0.139,1.937,3.398,6.017,3.028
		c1.398-0.127,2.489-0.889,3.069-2.144c0.925-2.002,0.471-5.142-1.055-7.303c-1.182-1.674-4.033-2.753-6.934-2.624
		c-2.727,0.121-4.999,1.308-6.473,3.214c-1.017-1.204-3.351-3.473-7.034-4.209C81.61,6.481,77.788,9.538,76.929,13.141z"/>
	<path d="M108.373,15.768l-0.175,1.406c0.139,0.018,13.932,1.604,18.414-9.776l-1.318-0.519
		C121.216,17.228,108.895,15.833,108.373,15.768z"/>
	<path d="M59.46,7.568c0.025,0.063,2.617,6.296,11.021,5.945c8.262-0.344,11.586-5.108,11.724-5.31l-1.171-0.798
		c-0.03,0.043-3.101,4.379-10.611,4.692c-7.371,0.307-9.557-4.838-9.646-5.058L59.46,7.568z"/>
	<path d="M60.66,102.305c0,0,5.25-1.875,3.75-7.125s-9.625-4.875-9.625-4.875s-1.25-3.125-2.625-4.125c0,0-0.25-0.5,0.625-1.375
		s3-5.125-2.125-7.875c0,0,2.25-3.625,0.25-6.875c0,0,3.125-7.625,14.5-6c0,0,3.75-5.25,11-4.25s8.999,5.125,8.249,6
		c0,0,9.001-0.625,12.626,7.375s-2.5,18-2.5,18s2.25,2.875,2,9.25s-6.876,11.375-6.876,11.375s-13.374-4.5-28.374-2.625
		c0,0,0-1.5,0.375-2.125S62.66,104.18,60.66,102.305z"/>
	<path d="M8.41,78.18c0,0,2.375-1.625,4.875-0.5l-0.125-1.125c0,0-2.25-5.875,0-8.625s5.875-3.125,7.5,1.375
		c0,0,1.375-2.875,4.125-3s4.75,3.125,5.125,6.25c0,0,0.5,0.375,1.25-0.375s4.375-3.75,9-1.125c0,0,0.625-0.75,1.25-1.25
		s3-2.25,3-2.25s1.875-8.125-4.5-14.125s-15.25-3-15.25-3s1-8.375-4.875-11.75s-11.5-0.625-11.5-0.625L8.41,78.18z"/>
</g>
</svg>
