<?xml version="1.0" encoding="iso-8859-1"?>
<!-- Generator: Adobe Illustrator 19.1.0, SVG Export Plug-In . SVG Version: 6.00 Build 0)  -->
<svg version="1.1" id="&#xB808;&#xC774;&#xC5B4;_1" xmlns="http://www.w3.org/2000/svg" xmlns:xlink="http://www.w3.org/1999/xlink"
	 x="0px" y="0px" viewBox="0 0 153.071 238.11" style="enable-background:new 0 0 153.071 238.11;" xml:space="preserve">
<rect style="fill:#E60012;" width="153.071" height="238.11"/>
<g>
	<path style="fill:#FFFFFF;" d="M7.535,16.639v204.834c0,0,1.833,9.5,10.666,9.5s117.667,0,117.667,0s10-0.5,10-13.668
		c0-13.166,0-201.166,0-201.166s-0.832-8.833-12.666-8.833s-115.334,0-115.334,0S9.535,6.806,7.535,16.639z"/>
	<path style="fill:#E60012;" d="M145.869,54.639c0,0-5-7-13.333-11.833s-20.999-10.333-22.333-11.333c0,0,2.166,5.5,2.666,8.333
		s6.668,22.333,17.834,31.833c0,0-8.334,1.334-15.334,4c-7,2.667-18.334,10.667-22,13.667s-9.166,6.5-9.166,6.5s6.667,0.167,9,0.833
		c2.333,0.667,11.167,2,19,1.667c7.833-0.334,21.832-2.667,23.666-3.667c0,0-0.5,1-1.5,2.167c-1,1.166-4.666,8.5-6.166,14.5
		c-1.5,6-3.334,23.167-3.334,24.667s-1.666,9.334-2.333,11c0,0,7.167-3.666,12.5-7.5c5.333-3.834,10.166-10.668,10.833-14.833
		V54.639z"/>
	<path style="fill:#E60012;" d="M7.535,74.472c0,0,4.167-1.166,6-1.166c0,0-3.167-9.167-2.333-17.167s2.167-17.834,1.833-19.667
		c0,0,3.166,2.834,4.166,3.667s12.5,7.667,18.5,27.167c0,0,2.833-5.333,6.833-8.167s11.833-5.333,12.667-5.833s9.5-4,10.833-5
		c0,0,0.667,6.167-0.833,12.333s-4,13.333-10.167,20.833c0,0,6.167,1.667,11.5,7.334c5.334,5.666,13.834,19.5,13.834,19.5
		s-3.501-1-5.168-1.166c-1.666-0.168-4.332,0.166-5.166,0.332c-0.833,0.168-13.667,2.167-21.333-1.5c0,0,1.167,7.168,1.167,8.668
		s0.667,10.832,0.667,10.832l-2-0.832c0,0-3.333-4-4.667-5s-10-7.668-13.167-18.668c0,0-2.666,1.833-3.833,3.5
		c-1.167,1.668-9,11.5-19.333,11.834v-15.834l5.333-8.833l-5.333-1.667V74.472z"/>
	<path style="fill:#E60012;" d="M37.702,230.805c0,0,3.5-8.666,6.667-11.832c0,0-6.167,0.998-9.833,0.666
		c-3.667-0.334-8.833-2.166-10.333-2.834c-1.5-0.666-8-2.832-8-2.832s4.5-3.834,5.333-4.668c0.833-0.832,4.167-5.166,9.667-7.832
		c5.5-2.668,11.333-2.5,11.333-2.5s-7.833-6.002-10.833-9.834c-3-3.834-6.666-13-7.833-15.5s-6-13.166-6-13.166
		s8.333,4.666,11.5,6.166s13.5,5.334,20.667,9.834s14.167,10.832,14.167,10.832s3.667-5.332,10.667-8.332
		c7.001-3,32-12.834,38-16.834c0,0-4.499,8.666-5.666,11.666s-4.333,11.002-7,15.168s-6.501,10.332-14.334,12.832c0,0,0.333,0.5,2,1
		s7.666,4.834,11,9.5c3.334,4.668,12,11.834,15.5,14.834c0,0-1.166,0.332-2.333,0c-1.167-0.334-11-0.832-13.5-0.666
		s-19.668-0.502-33.334-6.334c0,0-5.5,8.666-12.667,10.666H37.702z"/>
	<path style="fill:#FDD000;" d="M29.035,142.18c0,0-3.625,0.875-7.25,3.875s-8,10.375-10.625,12.5c0,0-0.5,0.375,1,0.25
		s13.75-2.75,15.5-3s10.75-2.625,10.75-2.625l14,3.75c0,0,6.5,7.75,7.375,9.25s5.5,12,6.625,17.375c0,0,1.125-1.375,1.875-2.25
		s7.75-12,5-23.625l12.251-8.625c0,0,7.25-2,11.625-4.125s7.625-3.875,9.375-4.375s5.875-0.25,5.875-0.25s-2.375-1.25-3.75-2.25
		s-7.875-3.625-11.875-5.125s-12.125-3-12.125-3l-37.5,4.625L29.035,142.18z"/>
	<path d="M17.456,6.597c-5.861,0-10.63,4.769-10.63,10.63v203.658c0,5.861,4.769,10.629,10.63,10.629h118.158
		c5.861,0,10.63-4.768,10.63-10.629V17.226c0-5.861-4.769-10.63-10.63-10.63H17.456z M8.244,220.885V17.226
		c0-5.08,4.133-9.213,9.213-9.213h118.158c5.08,0,9.212,4.133,9.212,9.213v203.658c0,5.08-4.132,9.211-9.212,9.211H17.456
		C12.376,230.096,8.244,225.965,8.244,220.885z"/>
	<path d="M35.035,7.555c0,0-4.75,5.25-9,9.75s-14.75,10-14.75,10s11.75-2,17-2.5s25-1,32.25-4.75c0,0-2.25,5.5-1,12.25
		s6.75,12.75,7,17.25c0,0,5-7.25,7.75-11.5s5.75-11.25,5-17.5c0,0,5.251,2.75,14.501,3.75s17-0.75,27.5,6c0,0-5.75-6.25-8.75-9.75
		s-9.25-10.5-15-13.25L35.035,7.555z"/>
	<path d="M12.33,36.125c0.017,0.17,0.025,0.372,0.025,0.605c0,1.36-0.27,3.767-0.599,6.7c-0.412,3.672-0.924,8.242-1.179,13.088
		c-0.043,0.815-0.062,1.614-0.062,2.396c0,6.779,1.464,12.104,2.08,14.05c-1.492,0.206-4.431,0.666-5.411,1.226l0.703,1.23
		c0.759-0.434,3.919-0.942,5.733-1.162l0.888-0.107l-0.307-0.84c-0.025-0.068-2.267-6.301-2.267-14.449
		c0-0.742,0.019-1.5,0.059-2.271c0.253-4.804,0.763-9.351,1.172-13.004c0.264-2.358,0.478-4.282,0.563-5.71
		c1.146,1.221,2.924,3.002,4.64,4.25c3.539,2.574,13.443,12.234,16.728,25.843l0.529,2.192l0.82-2.102
		c0.029-0.075,3.02-7.518,11.855-11.1c7.47-3.028,14.769-6.542,17.298-7.78c0.008,0.456,0.014,0.999,0.014,1.625
		c0,1.811-0.052,4.083-0.277,5.377c-1.041,5.984-3.831,17.176-10.827,24.896l-0.75,0.827l1.067,0.327
		c0.056,0.017,5.662,1.77,10.718,6.585c3.519,3.351,8.409,10.815,11.645,15.754c0.787,1.201,1.388,2.113,1.871,2.828
		c-1.893-0.449-4.693-1.055-6.027-1.055l-2.334,0.276c-4.469,0.646-14.932,2.158-21.856-1.204l-1.226-0.596l0.217,1.346
		c0.013,0.076,1.241,7.729,1.241,10.637c0,0,0.132,4.778,0.198,7.141c-1.628-1.727-4.47-4.637-6.565-6.207
		c-2.838-2.129-10.519-11.545-11.477-17.055l-0.195-1.121l-0.92,0.669c-0.117,0.085-2.885,2.111-3.948,3.972
		c-0.93,1.627-7.841,10.199-18.233,11.65l0.196,1.402c10.907-1.521,18.077-10.267,19.267-12.35c0.593-1.037,1.896-2.201,2.749-2.899
		c1.677,5.967,8.831,14.704,11.71,16.864c2.911,2.184,7.603,7.357,7.65,7.409l1.287,1.423l-0.303-10.898
		c0-2.342-0.72-7.348-1.07-9.648c7.214,2.883,16.753,1.552,21.48,0.869l2.131-0.262c1.887,0,7.515,1.462,7.571,1.477l2.526,0.658
		l-1.846-1.845c-0.347-0.347-1.535-2.159-2.91-4.259c-3.272-4.993-8.216-12.539-11.853-16.003
		c-4.111-3.916-8.443-5.854-10.316-6.571c6.733-7.936,9.493-18.857,10.525-24.794c0.243-1.399,0.299-3.762,0.299-5.625
		c0-1.49-0.036-2.662-0.039-2.768l-0.035-1.107l-0.991,0.495c-0.09,0.045-9.083,4.531-18.199,8.227
		c-6.919,2.805-10.405,7.708-11.831,10.257c-3.778-13.087-13.237-22.378-16.736-24.923c-2.649-1.927-5.6-5.354-5.629-5.388
		l-1.467-1.711L12.33,36.125z"/>
	<path d="M16.079,50.613c0.042,0.504,1.037,12.425,3.542,19.189c1.796,4.849,4.619,9.955,6.09,12.488
		c-1.494-0.375-3.837-0.726-6.989-0.439c-5.69,0.517-7.848,2.615-7.937,2.705l-1.08,1.08l1.522,0.127
		c2.097,0.175,8.638,2.898,12.103,4.422c-5.906,3.946-9.468,10.651-10.729,15.442c-1.168,4.439-5.437,7.574-5.48,7.606l0.725,1.212
		c5.693-2.766,8.663-6.606,11.534-10.321c1.624-2.102,3.158-4.086,5.12-5.78c3.995-3.45,7.315-4.73,8.705-5.152
		c0.418,4.571,2.6,9.185,6.793,14.077c2.892,3.374,4.622,7.284,4.639,7.323l1.342-0.433c-0.007-0.034-0.741-3.507-0.985-8.139
		c-0.169-3.224-1.205-6.584-1.906-8.544c4.618,1.86,12.043,1.967,15.293,1.534c3.568-0.476,10.162,1.216,10.228,1.233l0.373-1.368
		c-1.588-0.454-11.894-6.3-16.794-9.653c-3.447-2.358-6.831-3.419-8.575-3.851c2.738-3.139,11.722-13.643,14.318-19.268
		c3.02-6.544,3.303-10.341,3.313-10.5l0.174-2.617l-1.468,2.173c-0.062,0.092-6.273,9.24-12.381,14.615
		c-5.012,4.411-10.021,7.846-11.742,8.991c-1.718-3.592-5.585-8.437-8.757-12.396c-1.785-2.227-3.326-4.15-3.92-5.17
		c-1.719-2.946-5.688-10.88-5.728-10.96L16.079,50.613z M27.887,83.182c-0.045-0.072-4.492-7.27-6.938-13.873
		c-1.582-4.271-2.56-10.854-3.056-14.994c1.303,2.554,3.018,5.863,4.029,7.597c0.648,1.11,2.144,2.978,4.039,5.342
		c3.344,4.173,7.505,9.367,8.917,12.819l0.322,0.787l0.716-0.459c0.063-0.04,6.368-4.092,12.586-9.564
		c4.223-3.717,8.341-8.984,10.674-12.159c-0.457,1.684-1.217,3.973-2.536,6.83C53.72,71.838,41.875,85.2,41.755,85.334l-0.859,0.967
		l1.278,0.204c0.046,0.007,4.66,0.771,9.211,3.885c3.012,2.061,8.38,5.253,12.379,7.451c-1.906-0.276-3.977-0.451-5.573-0.239
		c-3.725,0.497-12.269,0.204-16.031-2.148l-1.917-1.198l0.89,2.078c0.022,0.052,2.204,5.194,2.444,9.758
		c0.083,1.584,0.221,3.004,0.368,4.227c-0.76-1.234-1.724-2.635-2.873-3.975c-4.239-4.946-6.392-9.548-6.58-14.068l-0.034-0.809
		l-0.797,0.141c-0.182,0.032-4.506,0.839-10.09,5.662c-2.069,1.787-3.646,3.826-5.314,5.985c-1.812,2.344-3.679,4.735-6.252,6.846
		c0.815-1.186,1.556-2.557,1.966-4.115c1.27-4.825,4.957-11.732,11.168-15.316l1.196-0.69l-1.258-0.569
		c-0.37-0.168-7.851-3.54-11.958-4.687c1.1-0.548,2.921-1.206,5.73-1.462c5.199-0.472,8.093,0.915,8.121,0.929l2.218,1.09
		L27.887,83.182z"/>
	<path d="M108.88,31.076c0.03,0.072,2.992,7.248,3.968,11.151c1.035,4.143,6.26,18.098,16.516,29.089
		c-3.6,0.628-13.844,2.744-22.186,7.627c-6.024,3.526-11.887,8.157-16.167,11.539c-3.07,2.425-5.495,4.34-6.771,4.929l-2.391,1.104
		l2.621,0.246c0.08,0.007,8.026,0.756,12.45,1.494c4.041,0.673,22.762,2.169,37.804-2.53c-1.918,2.567-5.138,7.688-6.878,15.171
		c-1.775,7.633-2.804,17.451-3.419,23.318c-0.248,2.375-0.445,4.25-0.586,4.953c-0.49,2.451-1.976,8.152-1.99,8.211l-0.418,1.602
		l1.447-0.805c0.046-0.023,4.568-2.543,7.81-4.785l1.101-0.738c3.831-2.527,10.963-7.236,14.417-17.367l-1.342-0.457
		c-3.297,9.673-10.166,14.207-13.856,16.642l-1.126,0.754c-2.068,1.432-4.657,2.971-6.243,3.887
		c0.482-1.893,1.253-4.973,1.592-6.666c0.153-0.766,0.343-2.576,0.605-5.084c0.611-5.834,1.634-15.596,3.39-23.144
		c2.422-10.414,8.016-16.361,8.071-16.42l-0.756-1.155c-15.076,5.528-35.213,3.913-39.39,3.216
		c-3.079-0.513-7.776-1.024-10.463-1.299c1.354-0.938,3.062-2.274,5.199-3.962c4.248-3.355,10.066-7.951,16.006-11.428
		c10.003-5.855,22.857-7.642,22.986-7.659l1.398-0.188l-0.986-1.009c-10.836-11.088-16.221-26.032-17.069-29.427
		c-0.698-2.792-2.308-7.019-3.27-9.45c1.452,0.778,3.422,1.76,5.773,2.926c5.617,2.784,12.609,6.248,17.165,9.286
		c7.273,4.848,11.006,10.727,11.043,10.786l1.201-0.751c-0.156-0.25-3.917-6.188-11.458-11.214
		c-4.632-3.088-11.668-6.575-17.322-9.376c-3.382-1.676-6.303-3.123-7.428-3.873l-1.938-1.292L108.88,31.076z"/>
	<path d="M119.959,42.967c0.397,0.555,1.216,2.371,2.166,4.473c1.872,4.146,4.701,10.411,7.824,15.013
		c3.663,5.399,7.331,11.104,8.798,13.399c-2.469,0.065-8.028,0.484-13.25,2.805l-11.41,5.359c-5.539,2.65-11.268,5.39-13.809,6.378
		l0.335,1.365c0.09-0.01,9.043-0.996,15.922-0.996l4.146,0.073c6.294,0.162,14.128,0.365,24.764-2.091l-0.318-1.381
		c-10.461,2.414-18.195,2.215-24.409,2.055l-4.182-0.073c-3.894,0-8.387,0.31-11.648,0.586c2.804-1.285,6.344-2.978,9.812-4.637
		l11.374-5.343c6.515-2.896,13.865-2.691,13.938-2.689l1.338,0.044l-0.716-1.131c-0.048-0.075-4.811-7.59-9.513-14.519
		c-3.054-4.501-5.852-10.699-7.705-14.8c-0.167-0.371-0.314-0.694-0.467-1.03c1.741,1.646,3.807,3.582,4.869,4.511l1.215,0.972
		c2.91,2.258,9.724,7.546,15.883,18.59l1.238-0.69c-6.3-11.296-13.275-16.708-16.252-19.019l-1.15-0.919
		c-1.966-1.72-7.67-7.174-7.727-7.229L119.959,42.967z"/>
	<path d="M137.618,107.319c-1.247,3.514-2.356,8.494-3.532,13.768c-1.386,6.221-2.819,12.654-4.443,16.171l1.265,0.639l8.503-15.505
		c0.635-1.18,1.531-2.279,2.482-3.443c1.57-1.927,3.352-4.11,4.32-7.18l-1.352-0.426c-0.888,2.81-2.504,4.793-4.067,6.71
		c-0.993,1.218-1.932,2.368-2.631,3.667c0,0-2.466,4.496-4.838,8.822c0.742-2.853,1.45-6.025,2.145-9.146
		c1.114-5,2.267-10.17,3.484-13.604c2.67-7.524,6.83-12.479,6.872-12.527l-1.08-0.918
		C144.569,94.554,140.379,99.535,137.618,107.319z"/>
	<path d="M45.285,121.305l2.5,5.25c0,0-7.5-1-14.25,0.75c-6.75,1.749-23.25,8.749-25.5,9.499l0.25,1.25c0,0,3.25,0.75,5.5,1.5
		s17.75,4,28,3.75c0,0-2.75,5.75-5.5,12.5s-4,12.25-4,12.25s8.25-2.5,12.5-5s9.75-5.5,17-15.75c0,0,2.5,3.75,12.5,12
		c10.001,8.25,19.751,7.75,19.751,7.75s-3.75-4.75-5.25-9s-4.5-16.25-10.751-22.5c0,0,7.251-3,15.501-11.499
		c8.25-8.5,10.5-14.25,11.5-15.25c0,0-7.25,2.5-12,3.5s-19.251,3.25-25.751,8.5c0,0-4.25-5-7.5-7.25s-6.75-6-6.75-6l-4.167-1.084
		c0,0,0.5,6.834,0.667,8.334s0.167,10.166,0.167,10.166L45.285,121.305z"/>
	<path d="M20.299,146.789c-2.221,2.09-4.12,4.6-5.795,6.812c-1.554,2.053-3.022,3.992-4.423,5.16l-2.144,1.785l12.721-2.543
		l2.271-0.383c4.786-0.789,12.019-1.98,15.923-3.932l-0.634-1.268c-3.712,1.855-10.818,3.025-15.52,3.801l-2.287,0.385
		c0,0-5.007,1.002-7.735,1.547c0.968-1.09,1.944-2.359,2.957-3.697c1.642-2.17,3.503-4.627,5.637-6.637
		c4.063-3.824,8.174-5.074,8.215-5.086l-0.401-1.359C28.905,141.428,24.623,142.721,20.299,146.789z"/>
	<path d="M51.7,156.705c0.154,0.225,3.807,5.572,6.311,8.326c2.409,2.65,7.078,14.43,7.57,19.098l0.162,1.537l1.059-1.125
		c0.168-0.18,4.15-4.479,6.171-12.564c2.016-8.064,0.809-14.064,0.756-14.316l-1.387,0.289c0.006,0.031,0.365,1.83,0.365,4.73
		c0,2.369-0.24,5.477-1.109,8.953c-1.348,5.391-3.621,9.018-4.892,10.75c-1.144-5.572-5.295-15.719-7.646-18.305
		c-2.438-2.682-6.152-8.117-6.189-8.172L51.7,156.705z"/>
	<path d="M17.137,160.592l10.254,22.76c3.483,7.547,10.063,12.951,13.127,15.176c-9.064,0.887-15.018,5.811-17.234,8.027
		c-2.705,2.703-7.424,6.93-7.472,6.973l-1.263,1.129l1.691,0.105c1.685,0.105,4.155,1.137,6.771,2.227
		c3.361,1.402,7.171,2.99,10.716,3.273c3.725,0.297,7.139-0.092,9.37-0.473c-3.667,3.934-5.877,10.225-5.984,10.537l1.341,0.459
		c0.029-0.086,2.982-8.566,7.48-11.645l-0.586-1.27c-0.054,0.016-5.463,1.461-11.507,0.979c-3.321-0.266-7.02-1.809-10.284-3.17
		c-2.143-0.893-4.065-1.693-5.704-2.086c1.57-1.424,4.495-4.1,6.432-6.037c2.258-2.258,8.558-7.537,18.268-7.793l2.35-0.062
		l-1.993-1.246c-0.099-0.062-9.877-6.26-14.232-15.697c0,0-7.765-17.234-9.31-20.664c3.008,1.801,8.821,5.16,12.664,6.623
		c2.282,0.869,22.558,8.797,31.718,19.305l0.644,0.738l0.501-0.846c0.035-0.059,3.601-5.875,16.646-10.949
		c12.145-4.723,24.155-10.314,30.005-13.398c-1.222,2.314-3.198,6.115-4.652,9.186l-1.259,3.098
		c-2.735,7.09-8.426,21.844-21.062,25.779l0.175,1.385c0.05,0.002,5.048,0.332,10.013,5.77l0.386,0.422
		c4.675,5.121,11.984,13.109,17.44,17.434c-2.098-0.35-4.999-0.67-8.33-0.541c-7.453,0.285-27.533-0.996-38.651-6.674l-0.586-0.299
		l-0.342,0.562c-0.049,0.08-4.954,8.045-12.098,10.189l0.407,1.357c6.668-2,11.322-8.416,12.568-10.293
		c11.463,5.568,31.309,6.857,38.756,6.572c6.295-0.242,11.221,1.205,11.27,1.221l0.563-1.289
		c-5.276-3.119-14.822-13.576-19.951-19.195l-0.386-0.422c-3.218-3.525-6.409-5.037-8.524-5.703
		c11.683-5.066,17.026-18.902,19.674-25.766l1.218-3c2.216-4.68,5.698-11.154,5.733-11.219l1.186-2.203l-2.165,1.254
		c-4.514,2.613-18.112,9.09-31.902,14.453c-11.056,4.299-15.461,9.037-16.816,10.805c-9.628-10.441-29.405-18.191-31.674-19.057
		c-5.125-1.953-14.287-7.633-14.378-7.689l-1.976-1.229L17.137,160.592z"/>
	<path d="M28.744,171.764c0.055,0.064,5.48,6.486,7.179,9.398c0.66,1.133,6.594,10.701,22.876,19.615
		c-2.296-0.072-5.442,0.166-9.464,1.348c-4.207,1.238-8.966,3.293-13.165,5.105c-4.329,1.867-8.417,3.633-11.018,4.129l0.156,1.404
		c0.076-0.002,7.68-0.234,11.032,0.723c3.306,0.945,13.501-0.307,20.36-3.055c-0.962,1.232-2.066,2.842-3.049,4.807
		c-2.381,4.762-5.808,9.707-7.801,11.258l0.659,1.231c0.156-0.051,3.839-1.285,6.12-2.553l0.636-0.344
		c2.655-1.422,8.744-4.727,12.97-11.771c1.405,0.943,5.188,3.227,10.646,4.437l8.784,1.676c4.807,0.852,9.346,1.656,11.885,2.551
		l0.668-1.229c-0.031-0.025-3.243-2.502-5.681-4.939c-2.317-2.318-10.567-7.746-18.929-10.764c2.518-1.082,7.348-3.73,13.436-9.992
		c8.789-9.039,10.851-17.965,10.934-18.34l0.528-2.375l-1.721,1.721c-0.055,0.055-5.479,5.463-8.62,7.396l-1.414,0.889
		c-4.279,2.709-13.112,8.289-19.806,9.693c-1.286-0.988-7.673-5.803-14.827-9.604c-8.335-4.428-18.893-10.863-22.413-13.445
		L28.744,171.764z M63.099,201.42c-18.711-9.221-25.266-19.797-25.951-20.973c-0.887-1.52-2.679-3.873-4.269-5.873
		c5.115,3.273,12.789,7.783,18.574,10.857c7.849,4.17,14.825,9.627,14.895,9.682l0.255,0.199l0.318-0.062
		c6.988-1.352,16.174-7.168,20.589-9.963l1.397-0.879c2.05-1.26,4.911-3.82,6.828-5.623c-1.223,3.271-3.983,9.139-9.707,15.025
		c-8.468,8.711-14.599,10.291-14.66,10.307l-2.462,0.604l2.416,0.76c8.748,2.75,17.809,8.672,20.212,11.076
		c1.048,1.047,2.204,2.074,3.216,2.936c-2.51-0.582-5.586-1.141-8.838-1.717l-8.723-1.662c-6.503-1.445-10.683-4.59-10.724-4.621
		l-0.648-0.494l-0.4,0.709c-4.029,7.164-10.19,10.465-12.821,11.873l-0.656,0.355c-0.868,0.482-1.973,0.965-2.995,1.375
		c2.104-2.574,4.425-6.344,5.973-9.438c2.16-4.32,5.066-7.02,5.095-7.045l-0.844-1.131c-6.094,3.656-19.233,5.344-22.44,4.426
		c-1.752-0.5-4.465-0.693-6.818-0.766c2.034-0.771,4.321-1.748,6.82-2.826c4.162-1.797,8.879-3.834,13.003-5.047
		c8.13-2.391,12.761-0.779,12.807-0.764L63.099,201.42z"/>
	<path d="M84.654,131.002c0.092,0.018,9.264,1.76,13.918,3.229c3.115,0.984,8.497,3.762,11.716,5.49
		c-1.768-0.002-3.898,0.131-5.266,0.676l-3.018,1.486c-4.414,2.279-11.803,6.094-17.02,6.465l0.102,1.414
		c5.507-0.393,13.057-4.291,17.568-6.619l2.895-1.43c2.311-0.924,7.619-0.457,7.672-0.451l0.412-1.324
		c-0.4-0.227-9.868-5.553-14.635-7.059c-4.735-1.494-13.702-3.199-14.081-3.27L84.654,131.002z"/>
	<path d="M27.604,146.742c-4.238,3.242-6.717,5.709-6.82,5.812l0.931,1.064c0.041-0.031,4.112-3.105,7.82-3.105
		c3.915,0,9.986-1.691,12.251-3.957l-1.002-1.002c-1.788,1.787-7.36,3.541-11.249,3.541c-1.158,0-2.315,0.26-3.401,0.623
		c0.708-0.582,1.475-1.195,2.332-1.852c4.1-3.135,7.524-4.383,7.558-4.395l-0.477-1.334
		C35.399,142.189,31.893,143.463,27.604,146.742z"/>
	<path d="M65.114,159.736c0,1.787,0.061,3.477,0.219,4.662c0.079,0.588,0.111,1.164,0.111,1.717c0,0.859-0.088,1.621-0.197,2.318
		c-0.677-2.396-1.738-5.861-2.82-8.178c-1.743-3.736-4.501-8.508-4.529-8.557l-1.227,0.711c0.027,0.047,2.755,4.768,4.471,8.445
		c1.701,3.645,3.437,10.553,3.455,10.621l0.544,2.176l0.805-2.094c0.053-0.139,1.309-3.463,0.791-7.348
		c-0.479-3.592-0.006-12.125,0.222-12.939l-1.347-0.439C65.405,151.455,65.114,155.832,65.114,159.736z"/>
	<path d="M77.847,136.121l0.377,1.367c6.717-1.854,10.959-0.629,14.366,0.354l0.502,0.145c0,0,1.738,0.48,3.47,0.957
		c-1.694,0.195-3.714,0.482-5.679,0.92c-4.409,0.98-8.88,1.483-8.925,1.488l0.156,1.408c0.045-0.006,4.59-0.516,9.075-1.514
		c4.387-0.975,9.333-1.23,9.382-1.232l0.147-1.393l-7.238-1.998l-0.497-0.143C89.592,135.502,84.95,134.162,77.847,136.121z"/>
	<path d="M7.535,181.555c0,0,2.5-1.75,7.5-3.5s8.5-4.25,8.5-4.25l1,2c0,0-2.5,1.5-2.75,3.5s-2.25,14.25-9.25,19.5
		c0,0,5.333,7.168,8,11.168l-4.25,4.082c0,0,2.583,0.252,3.75,0.918s5.333,2.166,6,2.5c0,0,5.833,9.332,6.833,10.666s1.333,2,0.5,2
		s-2.833-1.668-5.5-2.5c-2.667-0.834-8.5-2.166-10.667-3.666c0,0-1.167,5.5-1.666,6.5c0,0-8-0.834-8-8.834
		S7.535,181.555,7.535,181.555z"/>
	<path d="M7.671,90.986c0,0,3.011,0.874,4.251,1.234c-1.093,1.695-3.665,5.757-4.861,8.282l1.281,0.606
		c1.461-3.085,5.247-8.856,5.285-8.914l0.527-0.802l-6.088-1.768L7.671,90.986z"/>
</g>
</svg>
