<?xml version="1.0" encoding="iso-8859-1"?>
<!-- Generator: Adobe Illustrator 19.1.0, SVG Export Plug-In . SVG Version: 6.00 Build 0)  -->
<svg version="1.1" id="&#xB808;&#xC774;&#xC5B4;_1" xmlns="http://www.w3.org/2000/svg" xmlns:xlink="http://www.w3.org/1999/xlink"
	 x="0px" y="0px" viewBox="0 0 153.071 238.11" style="enable-background:new 0 0 153.071 238.11;" xml:space="preserve">
<rect style="fill:#E60012;" width="153.071" height="238.11"/>
<g>
	<path style="fill:#FFFFFF;" d="M7.535,16.388L7.369,221.222c0,0,1.333,8.833,9.166,9.333l119.167,0.167c0,0,9.666-1.333,9.833-10
		l0.167-204.001c0,0-1-8.499-9.667-9.333H16.702C16.702,7.388,9.535,7.722,7.535,16.388z"/>
	<path style="fill:#005BAC;" d="M61.66,45.68l41.875,0.875c0,0,0.25,4.875,0.25,7.5s0.5,16.375,1,19.25s-1.25,14.5-1.25,14.5
		l-3.25,6.625c0,0-2,13.25-2.625,15.5s0.625,21.75,0.625,21.75l-14.5,44.375l-22.5,23.125l-7.75,1.75l-14-4.125l-26-0.25
		c0,0,22.5-32.625,30.5-56.25c3.198-9.443,3.5-33.875,3.5-33.875L58.16,94.055C58.16,94.055,62.785,70.055,61.66,45.68z"/>
	<path style="fill:#E60012;" d="M64.16,186.555c0,0,19.626-28.375,23.876-47.25l7.75-3.125l6.5,1.125l9.75,4l9,7.875l-1.375,3.75
		l-0.5,3.125l3.25,2.875l4.875,3.25l6.125,9.25l0.375,8.125l-5.5,13.875l-4.75,2.75h-7.25l-3.875-2.5l-1.125-0.042l-4.625,4.542
		l-6.5,2.375l-4.125,0.625l-8.125-1.25l-5,4.75l-10.626-1.625l-4.875-10L64.16,186.555z"/>
	<path style="fill:#E60012;" d="M29.785,46.138c0,0-11.083-3.25-12-3.417s-3.333-1.25-3.333-1.25l5.75-2.5l3.583-2.333l2.667-8.917
		c0,0,2.333-4.583,7.333-4.583s7.583,0.75,7.583,0.75l8.667-3.333c0,0,0.5-4,1-7.166s1.667-5.167,1.667-5.167l1.167,0.083
		c0,0,3,1.667,3.75,3.417s3.25-0.417,3.5-0.417s2.667,3.083,2.667,3.083s2-2.25,3.917-3.917s3.583-2.75,3.583-2.75l4.417-0.167
		c0,0,0.084,2.5-0.083,3.25s7.084,1.5,7.084,1.5l4.833,0.5c0,0,7.667-1.083,13.5,0c0,0-1.667,1.5-2.667,2.333s-2.583,2-2.833,2.416
		s-0.083,1.25-0.083,1.25l2.75,8.833c0,0,6.332,3,9.416,5.583s4,4.5,4,4.5s-4.084-0.25-6.25-0.167s-10.583,0.333-14.583-0.333
		s-10.168-2.583-13.668-5.75l-12.999,1.667l-10.75,3.583l-9.667,4.5l-9.833,4.75L29.785,46.138z"/>
	<path style="fill:#FDD000;" d="M33.285,39.305c0,0-2.875,4.25-4.125,8s-1,5.625-1,5.625s1.375-1.542,3.042-2.125
		s11.583-4.25,14.25-5.75s7.333-6.75,7.833-8s-0.167-1.25-0.5-1.083s-2.25,0.917-4.083,1s-2.833-0.25-2.833-0.25
		s-4.917-1.667-7.5-3.5s-7.167-4.667-10.667-5.417s-9.667,2.167-13,4.083l0.417,0.75c0,0,2,0.667,4.916,2.25
		S29.535,39.138,33.285,39.305z"/>
	<path style="fill:#FDD000;" d="M54.285,35.638c0,0-5.417-0.917-8.75-5.25s-4.167-8.5-4.833-9.667s-2.333-3.166-3.25-3.833
		s-0.25-0.583,1.25-0.5s9.083,0.333,11.5,5c0,0,0.25,6.25,4.417,13.167C54.619,34.555,55.285,36.222,54.285,35.638z"/>
	<path style="fill:#FDD000;" d="M57.952,12.138c0,0,2.417-3.583,2.833-4.083s2.083-0.333,2.083-0.333s0.75,5.084,1.083,8.167
		c0.333,3.083,0.084,8.833-1.583,12.25s-2.667,4.083-2.667,4.083l-1.583-0.5c0,0,2.667-5.083,2-10.167s-2.083-8.5-2.083-8.5
		L57.952,12.138z"/>
	<path style="fill:#FDD000;" d="M71.785,28.471c0,0,2.333,2.167,6.834,2.5c4.5,0.333,11.666-1.167,16.25-2.667
		s9.916-3.083,12.5-3.25s3.167-0.333,3.167-0.333s-3.416-1.417-4.583-2.167s-5.75-3.917-10.5-3.75c0,0-0.833-0.25-1,0.667
		s-2.334,4.667-6.417,6.583s-10.416,2.167-12.667,2C73.119,27.888,71.785,27.888,71.785,28.471z"/>
	<path style="fill:#FDD000;" d="M66.369,26.721c0,0,1,0.75,2.916,0.833c1.917,0.083,4.417-1.417,5.084-1.833
		c0.666-0.417,7.334-4.333,10.584-9s4-9.333,4-9.333l-5.334,0.083c0,0-5.749,1.417-8,4.667c0,0-0.75,1.333-0.75,2.25
		s-1.583,5.667-3.5,8.25S66.369,26.721,66.369,26.721z"/>
	<path style="fill:#FDD000;" d="M95.703,148.055c0,0,0.666-0.333,1.083-3.167s3.167-5.334,5.417-4.667
		c2.25,0.667,5.25,2.167,5.333,2.417s3.583,4.333,3.583,4.333l-2.75,4.584l-5.833,1.916
		C102.536,153.471,99.537,149.471,95.703,148.055z"/>
	<path style="fill:#FDD000;" d="M108.619,151.971c0,0,3.501-4.25,4.584-5.5s4.582-0.999,5.666,1.417s0.5,5.25,0.5,5.25
		s-0.332,4.833-1.666,6.417c-1.334,1.583-3.834,2.833-5.167,3.25c-1.333,0.416-0.25-1.084-0.25-1.084
		S114.952,155.971,108.619,151.971z"/>
	<path style="fill:#FDD000;" d="M116.369,170.138l-0.916,2.5c0,0,5.166,1.166,6.083,2.833c0.917,1.667,0.25,2.583,1.25,3
		c1,0.417,4.417,1.75,6-0.666c1.583-2.417,2.751-3.75,2.417-5.25s-1.25-3.334-1.917-3.584c-0.667-0.25-1.416-0.749-1.833-0.833
		s-4.5-0.25-4.5-0.25S118.452,168.305,116.369,170.138z"/>
	<path style="fill:#FDD000;" d="M101.619,165.555c0,0-2.666-6.167-12.333-5l-1.167,3.5c0,0,4.834,1.249,7.667,8.916
		c0,0,2.75,1.167,4.5,0.584c1.75-0.584,2.083-1,2.083-1l2.167,2.833c0,0,2.333,0.084,4.25,0c1.917-0.083,5.834-1.167,6.917-3.333
		c1.083-2.167,2-6.833-2.167-8.667s-9.583,0.917-10.083,1.25C102.953,164.971,101.619,165.555,101.619,165.555z"/>
	<path style="fill:#FDD000;" d="M92.203,148.388c0,0-0.416-2.5-1.75-4.25s-3.25-0.833-3.917,0.5c-0.667,1.333-4,8.917-4,8.917
		l2.75,0.75C85.286,154.305,89.37,149.055,92.203,148.388z"/>
	<path style="fill:#FDD000;" d="M83.203,166.555l-6.251-0.917l-4.417,8.167c0,0-0.083,3.25,1.75,5.333
		c1.834,2.083,4.001,1.667,5.751,0.75c1.75-0.917,4.333-3.583,4.333-6.833S83.203,166.555,83.203,166.555z"/>
	<path style="fill:#FDD000;" d="M74.369,179.471l-0.917-1.666l-1.75-3.5l-7.75,12.666c0,0-0.333,5.5,0.667,7.084
		c1,1.583,3.25,2.249,5.916,0.666c2.667-1.583,4.917-6.166,4.917-6.166s-1.917-2.417-1.917-4.75
		C73.535,181.471,74.369,179.471,74.369,179.471z"/>
	<path style="fill:#FDD000;" d="M74.285,190.888c0,0-1.917,4.084-7.333,4.75c-5.417,0.667,2,8.417,2,8.417s4.083,1,4.5,0.75
		s2.167-2.75,2.167-2.75v-2.167c0,0-1-5.333-0.75-8.333L74.285,190.888z"/>
	<path style="fill:#FDD000;" d="M110.786,198.221c-1.203,2.406-3,4.667-3,4.667l-3.917,1.833l-5.083,2.75l-7-1.5l-5.083-5
		c0,0-3.5-4.083-3.667-7c-0.167-2.917,0.25-5.25,0.25-5.25l1.833-2.5c0,0,3.334,2,5.167,2.25c0,0,1,0.333,0.75,1
		c-0.25,0.667,0.5,5.001,2.75,6.917c2.25,1.917,5.667,2.333,7.417,0.417c1.75-1.917,2.583-6.334,2.583-7.5c0-1.167-1-4.584-1-4.584
		l2.75-3.916c0,0,5.917,2.75,6.417,2.833c0.5,0.083,1.416,0.083,2.083,1.083s1.333,5.334,1.333,6.584s-0.666,2.167-1.583,2.333
		c-0.917,0.167-2.5,0-2.5,0S111.536,196.721,110.786,198.221z"/>
	<path d="M17.456,6.846c-5.861,0-10.63,4.768-10.63,10.63v203.158c0,5.861,4.769,10.63,10.63,10.63h118.158
		c5.861,0,10.63-4.769,10.63-10.63V17.476c0-5.861-4.769-10.63-10.63-10.63H17.456z M8.244,220.634V17.476
		c0-5.08,4.133-9.213,9.213-9.213h118.158c5.08,0,9.212,4.133,9.212,9.213v203.158c0,5.08-4.132,9.212-9.212,9.212H17.456
		C12.376,229.846,8.244,225.714,8.244,220.634z"/>
	<path d="M60.827,45.754c3.941,84.073-47.986,149.869-48.511,150.523l-0.915,1.142l45.816,0.347l0.215-0.28
		c52.227-68.093,46.871-150.327,46.812-151.149l-0.048-0.646L60.792,45L60.827,45.754z M62.458,54.893
		c0-2.793-0.076-5.614-0.197-8.451c1.399,0.022,39.349,0.625,40.604,0.645c0.053,1.03,0.143,3.277,0.143,6.595
		c0,21.484-3.812,86.814-46.493,142.662c-0.685-0.005-39.578-0.3-42.218-0.319C20.809,187.382,62.458,129.187,62.458,54.893z"/>
	<path d="M25.658,27.014c-5.463,0.341-11.595,4.446-11.853,4.62l-1.364,0.922l1.607,0.357c0.382,0.085,1.391,0.579,2.559,1.151
		c2.961,1.451,7.917,3.88,14.081,5.509c8.152,2.153,14.053-1.39,15.349-2.27c2.458,0.442,5.123,0.353,7.657-0.953l-0.649-1.26
		c-4.897,2.522-10.547-0.052-13.478-1.811l-1.812-1.223C34.735,29.936,30.171,26.732,25.658,27.014z M25.746,28.429
		c4.018-0.251,8.337,2.782,11.195,4.789l1.896,1.279c1.312,0.787,3.161,1.683,5.231,2.312c-2.22,1.163-6.98,2.991-13.019,1.395
		c-6.029-1.593-10.906-3.983-13.82-5.411c-0.599-0.294-1.046-0.508-1.467-0.704C17.76,30.908,22,28.662,25.746,28.429z"/>
	<path d="M36.376,15.864l-1.515,0.35l1.257,0.914c3.237,2.354,3.846,3.805,4.855,6.209c0.642,1.53,1.441,3.434,3.13,6.097
		c4.504,7.104,10.551,6.843,10.806,6.828l-0.078-1.415c-0.223,0.011-5.493,0.196-9.531-6.172c-1.625-2.563-2.399-4.406-3.021-5.887
		c-0.915-2.18-1.576-3.729-3.989-5.758c2.639-0.201,7.976,0.092,11.681,4.955l1.127-0.859
		C45.552,13.846,36.467,15.843,36.376,15.864z"/>
	<path d="M53.012,7.953c-0.375-0.169-0.789-0.356-0.789-0.356c-0.132,0.293-3.235,7.258-2.561,15.02
		c0.677,7.791,4.65,12.837,4.819,13.048l0.395,0.494l0.535-0.336c0.253-0.159,6.186-4.023,5.33-15.154
		c-0.86-11.178-7.218-13.365-7.488-13.453C53.254,7.214,53.132,7.587,53.012,7.953z M51.075,22.493
		c-0.061-0.702-0.089-1.4-0.089-2.087c0-5.373,1.67-10.074,2.288-11.634c1.357,0.675,5.391,3.375,6.055,12.003
		c0.055,0.714,0.081,1.394,0.081,2.043c0,7.069-3.003,10.338-4.227,11.385C54.192,32.754,51.593,28.458,51.075,22.493z"/>
	<path d="M25.612,27.162l1.18,0.786c4.309-6.465,14.917-3.088,15.023-3.053l0.442-1.347C41.779,23.392,30.521,19.798,25.612,27.162z
		"/>
	<path d="M18.868,38.596c-2.428,1.295-5.056,2.286-5.082,2.295l-2.011,0.755l7.89,2.254l0.837,0.255
		c2.43,0.743,7.485,2.288,9.308,2.439l0.117-1.412c-1.67-0.139-6.814-1.711-9.011-2.383l-0.844-0.257c0,0-2.141-0.612-3.872-1.106
		c0.958-0.413,2.155-0.96,3.335-1.589c2.442-1.303,4.756-2.297,4.779-2.307l-0.558-1.303C23.732,36.247,21.366,37.264,18.868,38.596
		z"/>
	<path d="M45.933,43.939c-1.899,1.085-4.241,1.938-6.721,2.839c-3.684,1.34-7.416,2.779-10.276,5.097
		c0.175-1.196,0.499-2.867,1.101-4.587c1.119-3.196,4.043-7.279,4.073-7.32l-1.15-0.828c-0.125,0.174-3.073,4.289-4.26,7.68
		c-1.187,3.391-1.365,6.564-1.372,6.697l-0.101,1.921l1.323-1.396c2.712-2.863,7-4.423,11.147-5.931
		c2.538-0.923,4.935-1.795,6.939-2.941c5.413-3.093,7.479-8.639,7.564-8.873l-1.332-0.485C52.85,35.864,50.883,41.111,45.933,43.939
		z"/>
	<path d="M57.235,12.071l1.268,0.634c0.016-0.031,1.604-3.171,3.57-4.38L61.33,7.118C59.017,8.54,57.307,11.928,57.235,12.071z"/>
	<path d="M62.176,8.04c0.012,0.053,1.15,5.293,1.15,8.182l0.086,1.59c0.278,3.702,0.743,9.897-5.914,13.972l0.74,1.209
		c7.395-4.527,6.869-11.527,6.587-15.288l-0.082-1.484c0-3.041-1.134-8.264-1.183-8.484L62.176,8.04z"/>
	<path d="M74.829,7.61c0.006,0.082,0.587,8.312-3.694,14.02c-4.263,5.684-9.348,6.719-9.398,6.729l0.263,1.393
		c0.229-0.042,5.657-1.121,10.27-7.271c4.607-6.144,4.001-14.623,3.973-14.981L74.829,7.61z"/>
	<path d="M63.364,15.992l1.341,0.458c2.176-6.373,6.679-7.825,6.869-7.884l-0.41-1.357C70.947,7.275,65.788,8.896,63.364,15.992z"/>
	<path d="M74.536,12.811l1.329,0.493c0.071-0.187,1.846-4.576,10.21-5.041l-0.078-1.415C76.638,7.367,74.618,12.589,74.536,12.811z"
		/>
	<path d="M80.721,20.202c-6.347,5.881-11.245,8.097-14.165,6.406l-0.71,1.227c3.563,2.062,8.891-0.156,15.837-6.593
		c6.936-6.429,8.01-13.133,8.053-13.415l-1.401-0.212C88.325,7.679,87.271,14.131,80.721,20.202z"/>
	<path d="M86.903,12.359l0.266,1.392c5.257-1.007,10.09-0.707,12.598-0.422c-0.908,0.662-2.105,1.585-3.673,2.839
		c-0.528,0.422-0.998,1.188-1.647,2.247c-1.695,2.763-4.256,6.94-9.888,8.112c-7.762,1.617-14.336,0.507-14.401,0.496l-0.244,1.396
		c0.278,0.048,6.894,1.17,14.934-0.504c6.23-1.298,9.095-5.969,10.807-8.759c0.531-0.866,0.99-1.614,1.324-1.882
		c3.392-2.714,4.614-3.539,5.042-3.752l1.861-0.931l-2.043-0.399C101.554,12.137,94.78,10.85,86.903,12.359z"/>
	<path d="M95.203,19.597c3.862,0,6.457,1.449,8.747,2.728l1.602,0.864c0,0,1.278,0.639,2.553,1.276
		c-1.477,0.042-3.309,0.183-5.207,0.562c-1.461,0.292-3.304,0.91-5.438,1.626c-4.113,1.379-9.232,3.096-14.646,3.529
		c-7.858,0.629-11.093-2.281-11.125-2.31l-0.973,1.03c0.145,0.138,3.66,3.377,12.212,2.693c5.587-0.447,10.798-2.195,14.984-3.599
		c2.089-0.701,3.893-1.306,5.265-1.58c4.014-0.802,7.931-0.492,7.97-0.489l0.375-1.34l-5.333-2.666l-1.545-0.834
		c-2.32-1.295-5.208-2.907-9.438-2.907V19.597z"/>
	<path d="M97.338,28.235c5.025,1.455,7.874,4.091,9.759,5.835l1.157,1.033c0.783,0.641,1.518,1.334,2.121,1.928
		c-1.135-0.091-2.289-0.184-2.289-0.184l-3.168,0.054c-4.276,0.165-11.434,0.44-17.207-1.033
		c-7.474-1.908-10.433-5.395-10.462-5.431l-1.095,0.899c0.128,0.157,3.239,3.87,11.206,5.904c5.973,1.525,13.26,1.244,17.613,1.077
		l3.012-0.056l5.94,0.475l-1.197-1.325c-0.069-0.077-1.723-1.89-3.576-3.405l-1.091-0.976c-1.983-1.835-4.98-4.608-10.327-6.156
		L97.338,28.235z"/>
	<path d="M52.91,36.18c0,0,1.625-0.667,2.125-0.958s2.875-3.167,2.875-3.167s2.292-1.5,3.125-2.25s1.875-1.125,2.5-1.375l1.625-1
		c0,0,1.5-0.125,2.125,0.25s3.25,0.25,3.875,0.125s1.5,0.375,1.5,0.375l-0.25,1.125l3.75,1.25l1.25,1.25c0,0-5.125,5.25-9.5,6.625
		s-6,1.125-7.75,0.5s-7.375-0.875-7.375-0.875L52.91,36.18z"/>
	<path d="M82.471,153.183l0.125,1.412c0.132-0.011,3.253-0.222,5.155,3.143c0.849,1.501,0.917,3.181,0.191,4.729
		c-0.744,1.587-2.226,2.759-3.867,3.058c-3.419,0.622-6.755-0.619-6.788-0.632l-0.504,1.325c0.15,0.058,3.729,1.396,7.546,0.702
		c2.085-0.379,3.961-1.855,4.896-3.851c0.912-1.947,0.824-4.145-0.24-6.028C86.621,152.856,82.64,153.167,82.471,153.183z"/>
	<path d="M82.263,166.923c0.018,0.028,1.708,2.869,1.399,6.574c-0.314,3.775-4.106,6.646-5.909,6.518
		c-1.03-0.073-2.423-1.01-3.389-2.277c-0.564-0.742-1.463-2.231-1.134-3.876l-1.39-0.278c-0.325,1.624,0.171,3.404,1.397,5.013
		c1.232,1.618,2.965,2.729,4.414,2.833c2.878,0.205,7.074-3.62,7.423-7.814c0.349-4.183-1.521-7.298-1.602-7.429L82.263,166.923z"/>
	<path d="M82.661,177.656c0.02,0.013,1.731,1.178,1.731,5.261c0,0.437-0.02,0.906-0.062,1.411c-0.417,4.867-4.325,5.589-4.92,5.672
		c-0.56-0.149-4.041-1.2-4.854-4.45c-0.213-0.854-0.295-1.644-0.295-2.352c0-2.305,0.865-3.751,0.877-3.77l-1.204-0.749
		c-0.074,0.119-1.814,2.971-0.753,7.214c1.094,4.375,5.833,5.476,6.034,5.521l0.109,0.024l0.112-0.011
		c0.058-0.006,5.761-0.63,6.305-6.979c0.531-6.202-2.224-7.931-2.342-8.001L82.661,177.656z"/>
	<path d="M87.784,164.717c0.045,0.018,4.586,1.802,6.602,6.454c2.28,5.261-0.596,7.642-0.625,7.664
		c-0.821,0.42-7.212,0.037-9.102-3.45l-1.246,0.675c1.438,2.654,4.649,3.658,6.436,4.021c1.833,0.372,4.069,0.443,4.797-0.138
		c1.307-1.044,3.206-4.339,1.041-9.335c-2.26-5.215-7.19-7.136-7.399-7.215L87.784,164.717z"/>
	<path d="M89.197,159.867l0.343,1.375c0.062-0.015,6.304-1.493,10.126,2.941c2.376,2.756,2.724,4.851,2.597,6.124
		c-0.098,0.984-0.532,1.864-1.162,2.355c-1.141,0.887-4.255,0.084-5.033-0.382l-0.728,1.216c0.92,0.552,4.788,1.72,6.633,0.284
		c0.943-0.734,1.564-1.949,1.702-3.332c0.153-1.549-0.231-4.053-2.934-7.19C96.339,158.153,89.487,159.795,89.197,159.867z"/>
	<path d="M92.182,147.705c-3.878,1.058-7.261,6.077-7.403,6.29l1.18,0.786c0.031-0.047,3.231-4.792,6.597-5.709
		c1.661-0.453,4.056,0.117,6.099,1.452c1.972,1.288,3.253,3.038,3.514,4.802c0.574,3.872-4.019,5.659-4.215,5.733l0.499,1.327
		c2.029-0.761,5.712-3.26,5.118-7.268c-0.321-2.164-1.83-4.271-4.141-5.78C97.025,147.767,94.248,147.141,92.182,147.705z"/>
	<path d="M63.494,187.098c0.014,0.232,0.357,5.692,1.596,7.814c0.518,0.889,1.587,1.383,2.859,1.324
		c2.325-0.108,5.664-2.061,8.062-7.216l-1.285-0.598c-2.133,4.587-5.02,6.312-6.842,6.397c-0.736,0.034-1.323-0.198-1.57-0.622
		c-0.886-1.52-1.314-5.702-1.404-7.186L63.494,187.098z"/>
	<path d="M93.542,179.647c0.914,2.336,0.9,5-0.034,6.63c-0.464,0.81-1.108,1.284-1.916,1.412c-2.81,0.443-6.402-2.484-6.438-2.515
		l-0.902,1.094c0.166,0.138,4.12,3.364,7.562,2.82c1.235-0.195,2.247-0.924,2.925-2.107c1.154-2.014,1.203-5.096,0.125-7.851
		L93.542,179.647z"/>
	<path d="M101.593,173.374c0.144,0.061,3.528,1.554,3.235,5.798c-0.158,2.304-0.763,3.849-1.747,4.467
		c-0.756,0.475-1.805,0.449-3.115-0.075c-3.005-1.202-4.591-5.067-4.607-5.107l-1.315,0.527c0.073,0.182,1.821,4.465,5.395,5.895
		c1.756,0.702,3.235,0.689,4.396-0.04c1.404-0.882,2.214-2.755,2.408-5.569c0.363-5.279-4.057-7.184-4.102-7.203L101.593,173.374z"
		/>
	<path d="M85.583,144.377l1.235,0.694c0.027-0.047,0.682-1.142,2.217-1.142c0.379,0,0.758,0.332,1.008,0.611
		c1.06,1.178,1.672,3.308,1.628,3.721l1.393,0.265c0.178-0.895-0.667-3.358-1.809-4.75c-0.689-0.839-1.435-1.264-2.22-1.264
		C86.646,142.513,85.625,144.301,85.583,144.377z"/>
	<path d="M87.884,139.538l0.969,1.035c0.675-0.63,2.784-2.215,4.415-1.982c0.34,0.048,0.894,0.493,1.429,1.595
		c1.087,2.24,1.505,5.928,0.393,7.849l1.227,0.71c1.382-2.385,0.897-6.621-0.345-9.178c-0.689-1.421-1.556-2.244-2.502-2.379
		C90.829,136.81,88.002,139.426,87.884,139.538z"/>
	<path d="M102.253,152.905l0.564,1.3c1.029-0.447,4.033-1.608,5.551-1.608c0.481,0,1.663,0.924,2.628,2.66
		c0.541,0.972,2.159,4.381,0.27,7.425l1.205,0.747c1.55-2.497,1.461-5.81-0.236-8.861c-0.937-1.687-2.497-3.388-3.866-3.388
		C106.246,151.18,102.415,152.835,102.253,152.905z"/>
	<path d="M108.586,162.022c-3.093,0.516-7.073,2.823-7.241,2.92l0.715,1.225c0.038-0.023,3.925-2.274,6.759-2.747
		c1.687-0.281,3.881,0.383,5.336,1.616c0.763,0.646,1.672,1.752,1.672,3.352c0,3.562-3.327,6.165-5.712,6.464
		c-2.52,0.314-5.09-0.154-5.116-0.16l-0.261,1.393c0.113,0.021,2.808,0.516,5.553,0.173c2.842-0.355,6.954-3.362,6.954-7.87
		c0-1.695-0.752-3.229-2.174-4.433C113.292,162.449,110.687,161.672,108.586,162.022z"/>
	<path d="M114.646,173.595c0.039,0.003,3.969,0.341,6.096,2.164c0.729,0.625,0.936,1.814,0.54,3.104
		c-0.541,1.767-2.269,3.786-5.493,4.154c-5.453,0.624-9.601-2.647-9.642-2.681l-0.89,1.104c0.186,0.15,4.634,3.679,10.691,2.985
		c3.905-0.446,6.016-2.951,6.688-5.146c0.562-1.837,0.19-3.598-0.974-4.596c-2.479-2.125-6.725-2.486-6.904-2.501L114.646,173.595z"
		/>
	<path d="M102.038,184.801c1.577,4.258,1.276,9.306-0.671,11.253c-0.991,0.99-2.321,1.498-3.649,1.395
		c-1.486-0.117-2.85-0.974-3.942-2.477c-2.469-3.396-2.367-6.354-2.365-6.383l-1.416-0.071c-0.007,0.14-0.146,3.462,2.635,7.287
		c1.698,2.336,3.645,2.951,4.978,3.056c1.742,0.138,3.479-0.52,4.763-1.805c2.341-2.34,2.778-7.939,0.997-12.747L102.038,184.801z"
		/>
	<path d="M84.817,199.5c2.14,2.648,4.508,2.439,5.73,2.077c2.172-0.642,3.975-2.697,4.194-4.782l-1.41-0.148
		c-0.16,1.522-1.56,3.091-3.187,3.572c-1.077,0.318-2.684,0.297-4.224-1.609c-3.237-4.008-2.038-9.679-2.025-9.735l-1.384-0.307
		C82.454,188.827,81.145,194.954,84.817,199.5z"/>
	<path d="M74.683,199.732c0.639,2.477,2.507,4.015,4.874,4.015c2.697,0,5.096-1.993,5.833-4.848l-1.373-0.355
		c-0.671,2.601-2.782,3.785-4.46,3.785c-1.715,0-3.024-1.104-3.502-2.952c-1.271-4.923-0.338-9.122-0.329-9.164l-1.381-0.317
		C74.302,190.08,73.321,194.458,74.683,199.732z"/>
	<path d="M66.169,195.501c0.107,0.658,1.104,6.479,3.246,8.265c1.7,1.417,4.19,0.411,6.831-2.758l-1.089-0.907
		c-0.542,0.651-3.325,3.834-4.835,2.576c-1.472-1.227-2.487-5.76-2.754-7.402L66.169,195.501z"/>
	<path d="M113.205,184.471c0.577,1.533,1.84,5.898,0.761,7.667c-0.259,0.423-0.633,0.649-1.179,0.713
		c-3.905,0.45-8.5-4.869-8.546-4.923l-1.078,0.92c0.207,0.243,5.131,5.948,9.786,5.411c0.974-0.112,1.743-0.591,2.227-1.384
		c1.631-2.675-0.407-8.274-0.645-8.904L113.205,184.471z"/>
	<path d="M110.33,193.795c0.34,3.221-0.385,5.896-1.987,7.342c-0.882,0.796-1.945,1.112-2.994,0.891
		c-2.654-0.559-3.44-4.884-3.448-4.928l-1.396,0.242c0.037,0.217,0.957,5.315,4.552,6.072c1.505,0.317,3.009-0.118,4.236-1.225
		c1.942-1.753,2.835-4.866,2.448-8.543L110.33,193.795z"/>
	<path d="M90.182,200.899c0.511,1.978,2.536,5.679,6.547,5.53c4.011-0.148,5.682-3.607,6.004-5.416l-1.395-0.251
		c-0.031,0.168-0.801,4.108-4.662,4.251c-3.866,0.143-5.072-4.282-5.122-4.47L90.182,200.899z"/>
	<path d="M103.173,140.68c-4.315,0.18-6.954,4.152-7.065,4.321l1.187,0.775c0.023-0.035,2.36-3.531,5.937-3.68
		c1.292-0.054,2.476,0.562,3.334,1.735c1.434,1.958,1.678,4.953,0.637,7.815l1.332,0.484c1.2-3.301,0.884-6.801-0.825-9.136
		C106.563,141.428,104.952,140.606,103.173,140.68z"/>
	<path d="M113.853,146.037c-2.672,0.712-5.725,4.961-6.063,5.444l1.158,0.815c0.841-1.193,3.427-4.398,5.271-4.89
		c0.891-0.237,2.19-0.169,3.17,0.734c0.907,0.837,1.837,2.665,1.117,6.622c-1.218,6.695-6.022,7.397-6.226,7.424l0.174,1.407
		c0.246-0.03,6.035-0.819,7.446-8.577c0.835-4.591-0.383-6.839-1.551-7.917C116.948,145.805,115.108,145.702,113.853,146.037z"/>
	<path d="M116.065,169.581l0.607,1.281c1.697-0.804,6.626-2.751,9.016-2.122c2.782,0.732,3.735,4.178,3.327,5.81
		c-0.153,0.614-0.926,1.387-2.015,2.016c-1.497,0.864-3.253,1.266-4.271,0.976l-0.389,1.362c1.701,0.486,3.955-0.295,5.368-1.11
		c0.854-0.493,2.337-1.525,2.681-2.899c0.596-2.384-0.832-6.601-4.341-7.524C122.67,166.48,116.333,169.454,116.065,169.581z"/>
	<path d="M122.837,178.829c0.031,0.019,3.143,1.927,4.369,5.145c0.463,1.214,0.863,2.911,0.143,4.103
		c-0.527,0.873-1.614,1.414-3.23,1.608c-3.756,0.45-7.209-2.09-9.025-4.401l-1.115,0.876c2.044,2.6,5.97,5.453,10.309,4.933
		c2.072-0.249,3.511-1.017,4.275-2.282c0.815-1.35,0.806-3.146-0.031-5.341c-1.405-3.686-4.818-5.768-4.964-5.855L122.837,178.829z"
		/>
	<path d="M116.618,159.392l0.502,1.326c0.044-0.017,4.502-1.657,7.31,0.56c0.892,0.704,1.26,1.596,1.095,2.651
		c-0.238,1.526-1.493,2.913-2.07,3.129l0.498,1.327c1.025-0.384,2.652-2.182,2.973-4.237c0.172-1.099,0.03-2.682-1.616-3.982
		C121.866,157.447,116.829,159.311,116.618,159.392z"/>
	<path d="M61.02,39.083c0.219,0.767,0.1,4.659-0.026,6.933l1.415,0.078c0.057-1.021,0.322-6.18-0.026-7.4L61.02,39.083z"/>
	<path d="M64.34,38.36c0.255,1.276-0.161,5.567-0.342,7.111l1.407,0.166c0.07-0.592,0.67-5.829,0.325-7.556L64.34,38.36z"/>
	<path d="M103.703,52.055c0,0,4.999-3,13.666-2.333s10.666,6,10.5,7.333c0,0,12.334,0.333,14.667,7.833
		c2.333,7.5-2.834,16.166-12.167,19.666c-9.333,3.5-15,0.834-15,0.834s-2.832,7.833-15.166,9.833
		C100.203,95.221,104.203,71.221,103.703,52.055z"/>
	<path d="M97.703,106.888c0,0,8.166-4.334,10-5.5c1.834-1.167,10-3.5,15.333,0.5c5.333,4,6.667,10,6,13c0,0,4.501,1.833,7.667,7.666
		c3.166,5.834,0.5,13.166-3.667,18c0,0-0.167,11-13.5,13.333c0,0,1.166-3.833-1.667-6.333s-6.666-0.167-9.166,3.666
		c0,0-0.167-1-0.167-1.666c0-0.667,0.667-5-2.333-7.5s-8.834,2.333-9.167,2.833s-0.334-1.167-0.667-2.167s-0.121-3.785-3-4.833
		c-1.833-0.667-5,1.5-5,1.5l5.334-17L97.703,106.888z"/>
	<path d="M119.203,155.721c0,0,8.834-2.5,15.5-0.5s9.667,8.333,10,11c0.333,2.667-1.834,2.833-1.334,4.834
		c0.5,2,2.001,3.499,1.834,5.666l0.166,12.5c0,0-1.333,2.834-8.333,2.334c0,0,2.167,7.333-4,12.5
		c-6.167,5.166-17.166,3.666-21.333-10c0,0,4.334,1,3-7.167c0,0,3.166,3.667,8.166,3.667s6.5-3.001,5-6.834
		c-1.5-3.833-3-4.166-3-4.166s-0.832-1,0.834-1.5s4.834-1.667,4-5.834c-0.834-4.167-4.5-4.5-7.5-4c0,0,4.666-1.167,4.166-5
		c-0.5-3.833-5-4.167-8.5-3.5c0,0,0-0.999,0.5-1.833S119.203,155.721,119.203,155.721z"/>
	<path d="M108.869,201.721c0,0-2.333,3-5.833,0c0,0-0.501-1.333-1.167,0.167s-2.166,3.5-5.166,3.833
		c-3,0.334-5.334-3.333-5.334-3.333s-0.334-1.666-1-1.5c-0.666,0.167-3.5,0.333-5-1.833c0,0-0.666,0.166-1.166,1
		c-0.5,0.833-2,2.5-4.167,2.833c-2.167,0.333-4.001-1.667-4.001-1.667s-1.166,0.001-1.666,0.667c-0.5,0.667-1.833,2-3.5,1.833
		c-1.667-0.166-3.334-3-3.834-7.666c0,0-0.833-1.167-1.333-1.5c-0.5-0.334-1.333-5.834-1.333-5.834s-0.167-1.333-1.167-0.333
		s-6.333,8.667-6.333,8.667l-18,0.166c0,0-0.5,6.334,2.5,13.667c3,7.334,12,8.667,12,8.667s-0.5,8.667,8,10
		c8.5,1.333,11.5-4.5,11.5-4.5s2.165,5.334,10,5.667c7.834,0.333,10.334,0,10.334,0s4.332-2.333,6.166-8c0,0,6.833,7.167,15,1
		C122.536,217.555,112.035,203.554,108.869,201.721z"/>
	<path d="M57.869,94.555c0,0-7.833-14.499-23.333-10.166c0,0-2.167-8.167-11.833-11c-9.666-2.834-14.833,4.167-15,6l-0.166,6.666
		c0,0-0.5,3.001,4.833,5.834c0,0,1.667,1.666,0.5,2.833s-4.167,2.333-5.167,10s1.667,15.333,8.333,19s17.167,1.5,17.167,1.5
		s2,9.667,10.5,16.167C43.702,141.388,56.036,111.555,57.869,94.555z"/>
	<g>
		<path d="M102.161,66.18c-1.375-1.375-3.625-3-3.625-3s-1.875-1.625-2.375-2s-1.625,0.25-1.25,1s0.75,1.625,0.75,2.625
			c0,1-0.875,8.75-2.875,10.5s-4.625,1.25-4.625,1.25s-1.946,0.155-3.382,0.098c0.28-0.846,0.479-1.493,0.507-1.723
			c0.125-1,3.75-2.125,3.75-2.125s1.375-0.125,1.625-1.625s0.25-2.625,0.25-2.625s0.375-0.5-0.75-0.875s-1.875-0.875-1.875-0.875
			s-0.625-4.25-0.75-4.75s0.375-0.25-1-1.125s-2.25-1.75-3.125-2.25s-2.75-0.5-2.5,0.375s0.375,2,0.375,2s1.375,3.375,0.75,4.125
			c0,0-4.501-2.25-5.501-3.125s-2-1.375-2.625-1s-0.625,1.375,0,2.75c0.625,1.375,1.75,3.625,1.625,4s4.501,2.625,4.501,2.625
			s-4.501,2.125-7.876,2.75s-4.875,0.875-5.5,1s-0.5,0.5-0.125,1.125s1.75,2.5,1.75,2.5s-0.125,0.125,1,0.25s5.375,0,6.375-0.125
			s2.251-0.625,2.251-0.625s0.375,3.75-0.626,5.125c-1,1.375-0.875,3,0.501,3.5c1.375,0.5,3.375,0.125,3.75-0.25s0.375-1,0.375-1
			s1.248-3.361,2.228-6.155c0.675,0.834,1.272,1.655,1.272,1.655s1.25,0,2,0s2.875-0.375,3,0.25s-1.75,4-5.75,6.125
			s-4.625,2.25-7.876,3c-3.25,0.75-8,2.75-9.875,6.75c-1.768,3.771,0.133,9.204,4.544,11.281c-1.753,0.393-3.737,1.004-5.669,1.969
			c-4,2-8.125,5.25-8.875,8s0.75,6.25,0.75,6.25s-4.75,3.375-5.375,7.25c-0.798,4.95,1.5,7.875,5.5,8.625s6.75,1.125,8.625,0
			s3.375-5.5,3.5-6.625s-0.25-1.5-1.25-1s-1.75,2.125-5.25,2.375c-3.5,0.25-5.75-0.25-6.125-0.625s0.375-3.375,0.875-4.375
			s1-2.25,2.375-2.125s2.75,0.5,5.5-0.25c2.75-0.75,3.5-2,3.375-2.375s-0.75-1.5-1.625-1.375s-4.5-0.125-6.125-0.25
			s-3-1.875-1-5.125s5.5-6.625,9.875-8.25c1.46-0.542,2.943-0.943,4.278-1.239c4.425,0.334,9.112-2.157,10.473-6.761
			c1.245-4.214-0.811-7.688-2.459-9.366c1.952-0.73,4.013-1.698,6.209-3.259c5.625-4,8-9.5,9.5-12.75s3.25-7,3.625-7.625
			S103.536,67.555,102.161,66.18z M80.411,97.18c0.5,3.5-2.625,6.375-6.126,5.875c-3.5-0.5-4.125-5.625,0.125-7.75
			c1.401-0.701,2.858-1.184,4.381-1.66C79.483,94.428,80.182,95.58,80.411,97.18z"/>
		<path d="M76.66,123.055c-0.75-0.5-3.125-2.625-3.125-2.625s-1.25-0.75-1.75-1.125s-1.625,0.25-1.25,1.125s1,3.125,1,4.75
			s-2.125,13.125-3.625,18.75c-0.585,2.193-1.364,4.73-2.285,7.341c-3.303,0.281-7.487,0.534-9.84,0.534
			c-3.5,0-7.5,4.75-4.375,11.25c1.464,3.044,2.819,5.271,4.56,6.754c-1.253,1.632-2.407,2.907-3.56,4.121
			c-2.375,2.5-3.625,6.125-4.25,8.375s-0.75,2.5,0.625,2.25s2.5-0.75,2.625-1.625s1-4.375,3.625-7.625
			c0.864-1.069,1.946-2.495,3.123-4.126c1.171,0.511,2.514,0.804,4.127,0.876c5.625,0.25,10.875-1.5,11.625-2.25
			c0.75-0.751,0.625-2.626-0.625-3.875c-1.25-1.25-3.125-2.125-5.25-1.75c-1.356,0.239-3.278,0.628-5.593,0.718
			c1.091-1.696,2.15-3.425,3.093-5.093c0.782-1.384,1.717-3.445,2.703-5.853c1.753-0.125,3.356-0.306,4.422-0.772
			c2-0.875,4.25-3.875,3.875-6.25c-0.281-1.778-2.033-6.009-2.896-8.023c1.056-3.311,1.885-6.2,2.271-7.977
			C77.16,125.18,77.41,123.555,76.66,123.055z M60.41,163.055c-0.359,0.622-0.707,1.204-1.046,1.759
			c-0.396-0.036-0.793-0.073-1.204-0.134c-4.25-0.625-5.25-4.75-3.125-7.125s5.25-2.875,8.5-3.25
			c0.326-0.038,0.661-0.067,0.997-0.096C63.313,157.341,61.92,160.442,60.41,163.055z M74.16,146.305
			c0.238,1.666-1.904,4.007-4.698,4.552c0.964-2.518,1.937-5.232,2.83-7.863C73.011,143.897,73.999,145.176,74.16,146.305z"/>
	</g>
</g>
</svg>
