<?xml version="1.0" encoding="iso-8859-1"?>
<!-- Generator: Adobe Illustrator 19.1.0, SVG Export Plug-In . SVG Version: 6.00 Build 0)  -->
<svg version="1.1" id="&#xB808;&#xC774;&#xC5B4;_1" xmlns="http://www.w3.org/2000/svg" xmlns:xlink="http://www.w3.org/1999/xlink"
	 x="0px" y="0px" viewBox="0 0 153.072 238.11" style="enable-background:new 0 0 153.072 238.11;" xml:space="preserve">
<rect style="fill:#E60012;" width="153.072" height="238.11"/>
<g>
	<path style="fill:#FFFFFF;" d="M7.114,15.555v99.75l9.25,11.5l27,4.5l72.999,9.25l30-4.75l-0.25-119.75c0,0-0.5-9-9.5-9.25
		L16.364,7.055C16.364,7.055,9.614,5.305,7.114,15.555z"/>
	<path style="fill:#E60012;" d="M79.989,47.805c0,0,2.125,1.75,6.25,0.375s5.75-5.25,6.375-6.625s1.375-4.375,4.25-5.375
		s4.5-0.375,8.125-1.875s5.875-4.625,5.875-4.625l-3.875-2.625l-6.125,0.5l-10,4.375l-5,6.5L79.989,47.805z"/>
	<path style="fill:#FDD000;" d="M9.489,67.43c0,0-0.5-4.375,4-6.75s8.875-1.75,8.875-1.75s-5.375-4.125-6.5-4.875
		S6.989,46.68,6.989,46.68l0.5-4.25c0,0,1.75-0.75,7.25,2.5c0,0,3.125-2,7.625,0.25c0,0,2.25-1.375,5.125-0.25
		c0,0,2.625-2.625,8,0.125c0,0,0.375-1.875,2.625-2.125s8,4,8,4s4-3.875,9.5-4c0,0,1.375-4.625,1.75-5.25s1.375-0.5,1.875,0.25
		c0,0,1-3.375,3.875-0.25c0,0,2.5-6.25,4.375-1.5c0,0,0.75-3.25,3.5-2.625s1.25,8.5-2.125,11.75c0,0-1.75-0.375-4.125,0.125
		s-8.5,3.875-10.875,8.625c0,0,11.125,1.25,17.625,14.875l1.25,0.25c0,0,0.75-2.625,5.375-2.75c0,0,2-3.5,7.125-4.125
		s6.75,0.75,6.75,0.75l-2.75,1.625c0,0-3.75,1.5-5.75,3.25s-9,6.75-10.5,7.75s-8.625,3.625-8.625,3.625l-0.625,1
		c0,0-5.625-0.625-8.25-0.75s-4.625-0.125-4.625-0.125s1-2.75,7.125-3.75c0,0,1.625-2.625,5.625-3.375c0,0-5.125-7.125-10.625-10
		c0,0-5.25,3.75-10.625,4.25s-9.75-1-10.625-1.25c-0.875-0.25-3.625-0.375-5.375,0.375s-4.375,4-7.125,5.25
		S10.114,72.055,9.489,67.43z"/>
	<path style="fill:#FDD000;" d="M106.739,29.305c0,0-5.875,2.25-10.375,4c-4.5,1.75-5.625,3.875-6.25,6.75s-3.125,8.625-8.25,8.125
		c-5.125-0.5-3.625-5.375-1.625-8c2-2.625,5.5-7.25,5.75-8.125c0,0-3.75-0.625-5.375-0.875s-4-1.25-6.375-0.875s-7.625,1.5-11,1.75
		c-3.375,0.25-4.625,0-5.75-0.875c-1.125-0.875-0.125-1.5,1.25-2.25s6.375-1.375,6.375-1.375s1.125-4.125,6-5.125
		c0,0,1.25-4.125,7.25-3.375c0,0,1-2.25,4.625-3s7.375,2.5,7.375,2.5s0.75-3.625,7.25-1.375c0,0,2.375-3.5,6.5-0.625
		c0,0,2.5-4.625,7.75-4.875c0,0,1.25-3.625,4.125-4.5l13.25-0.25c0,0,2.75,1.75,2.375,6.375s-4.5,6.5-7.5,6.75c0,0,3.75,3.5,5.5,8.5
		c0,0,1.625,2.625,2.125,5.75c0,0,2.75,2.875,3.125,6.625c0,0,2.25,3.125,3.125,6.5c0,0,3.5,4.125,4,5.625c0,0-2.5,0.25-5.875-0.75
		s-6.5-4.25-7.75-6.875s-6.25-10.375-10-12.75C114.614,30.305,108.239,28.305,106.739,29.305z"/>
	<path style="fill:#E60012;" d="M63.239,80.43l1.875,0.625c0,0-3.125,1.25-4.25,4s0.75,6.25,4,6.625s7.5-1.5,9.875-2.75
		s5.75-3,7.125-3.125s11.5,0.125,17.375-7.125c0,0,4.5,1.625,6.875,4.25s5.375,6.125,9.625,8.5c4.25,2.375,11.125,2.5,13.5,2.75
		s4,0.75,6.125,1.75s6.25,2.5,6.25,2.5s0.25-1,0.25-1.625s-6.25-4.625-6.625-4.875s-1.75-3.875-7.25-6.25
		c0,0-0.875-3.625-4.125-5.625c0,0-0.25-2.375-3.75-4.75c0,0-1.625-2.5-3.25-3.75c0,0,0.375-2.125-2.25-4.25
		c0,0,10.375,2.125,9.875-9.75c0,0,1.125-0.25,1.25-4.375s-1.25-4.125-2-4s-1.125,1-1.125,1s-1.25-1-4-0.375
		c0,0-1.625-1.5-4.625,1.375c0,0-3.5-0.375-5.875,2s-5.75,6.125-5.75,6.125s-6.75,1-9.5,3.125c-2.75,2.125-4.75,2.75-4.75,2.75
		s-4.875,2-6.375,3.875s-5.75,5-9.75,6.875s-8,3.625-8,3.625L63.239,80.43z"/>
	<path style="fill:#E60012;" d="M53.864,54.055c0,0,12.25,2.25,18,15.125h0.875c0,0,1.625-2.25,4.875-3l-0.375-1.25
		c0,0,0.25-2.375-1.625-4c0,0,0.5-2.125-1.75-4.25c0,0,0.375-2.125-1.25-3.625c0,0,0.125-2.125-2.625-3.875c0,0,0-1.5-0.375-2.75
		s-3.125-1.125-3.125-1.125S58.489,46.555,53.864,54.055z"/>
	<path d="M17.036,6.347c-5.861,0-10.63,4.769-10.63,10.63v204.159c0,5.861,4.769,10.629,10.63,10.629h119.157
		c5.861,0,10.63-4.768,10.63-10.629V16.977c0-5.861-4.768-10.63-10.63-10.63H17.036z M7.823,221.135V16.977
		c0-5.08,4.133-9.213,9.213-9.213h119.157c5.08,0,9.212,4.133,9.212,9.213v204.159c0,5.08-4.132,9.211-9.212,9.211H17.036
		C11.955,230.346,7.823,226.215,7.823,221.135z"/>
	<path d="M56.747,37.255c-1.059,1.209-1.691,4.061-1.912,5.211c-6.524,1.249-9.98,4.616-12.751,7.348
		c-0.892,0.879-1.734,1.709-2.567,2.344c-3.414,2.601-10.318,5.06-13.224,5.705c-1.02,0.227-2.438,0.293-3.938,0.364
		c-2.849,0.134-6.078,0.287-8.559,1.527c-3.073,1.537-4.784,3.989-4.784,6.575c0,0.894,0.204,1.803,0.627,2.695
		c1.512,3.192,4.841,4.421,8.687,3.206c2.339-0.739,4.32-2.567,5.767-3.902l1.58-1.351c1.371-0.915,4.328-1.499,6.232-0.913
		c3.968,1.222,8.108,1.447,12.659,0.688c6.166-1.028,8.792-3.765,8.9-3.881l-1.032-0.972c-0.023,0.025-2.451,2.513-8.102,3.454
		c-4.328,0.722-8.256,0.511-12.008-0.645c-2.375-0.731-5.762-0.028-7.435,1.088l-1.754,1.489c-1.423,1.313-3.195,2.948-5.232,3.592
		c-3.167,1-5.775,0.08-6.979-2.461c-1.293-2.728,0.118-5.7,3.51-7.396c2.213-1.106,5.283-1.251,7.992-1.379
		c1.563-0.074,3.04-0.144,4.179-0.396c2.837-0.63,10.024-3.103,13.775-5.961c0.904-0.689,1.778-1.55,2.703-2.462
		c2.702-2.664,6.064-5.979,12.487-7.07l0.497-0.084l0.083-0.498c0.177-1.058,0.82-4.016,1.667-4.983
		c0.239-0.273,0.379-0.221,0.438-0.199c0.479,0.18,1.154,1.354,1.154,3.399h1.417c0-2.398-0.813-4.252-2.072-4.726
		C58.04,36.396,57.309,36.611,56.747,37.255z"/>
	<path d="M58.803,37.928l1.289,0.59c0.025-0.054,0.631-1.319,1.717-1.102c0.729,0.146,1.202,2.224,1.264,3.668l1.416-0.059
		c-0.032-0.761-0.296-4.578-2.402-4.999C60.332,35.676,59.171,37.117,58.803,37.928z"/>
	<path d="M65.889,34.016c-2.498,0.208-3.27,3.743-3.302,3.894l1.387,0.294c0.005-0.027,0.607-2.656,2.032-2.775
		c0.204-0.017,0.385,0.204,0.502,0.392c0.849,1.373,0.922,5.261-1.167,8.701l1.212,0.735c2.282-3.758,2.379-8.211,1.16-10.182
		C67.094,34.073,66.304,33.981,65.889,34.016z"/>
	<path d="M46.414,59.735c0.094,0.028,9.515,2.896,16.115,12.554l1.17-0.8c-6.897-10.093-16.481-12.995-16.886-13.114L46.414,59.735z
		"/>
	<path d="M67.935,44.513c-9.631,0.172-14.728,9.149-14.94,9.531l-0.564,1.016l1.162,0.037c10.12,0.316,17.32,14.142,17.391,14.281
		l1.262-0.646c-0.296-0.578-7.122-13.638-17.407-14.921c1.499-2.181,5.967-7.693,13.032-7.869c0.246,0.082,1.058,0.394,1.391,1.095
		c0.092,0.194,0.138,0.409,0.138,0.643c0,0.326-0.088,0.689-0.265,1.087l1.295,0.575c0.482-1.085,0.518-2.068,0.107-2.925
		c-0.678-1.412-2.337-1.863-2.407-1.881l-0.095-0.025L67.935,44.513z"/>
	<path d="M65.518,48.564c-4.24,1.695-8.697,5.797-8.885,5.971l0.963,1.04c0.044-0.041,4.455-4.098,8.448-5.695
		c2.19-0.876,3.997-0.073,4.957,0.971c0.605,0.658,0.721,1.237,0.646,1.387l1.268,0.634c0.4-0.801,0.06-1.972-0.87-2.981
		C70.764,48.5,68.377,47.42,65.518,48.564z"/>
	<path d="M68.882,51.516c-5.573,0.522-8.695,4.436-8.826,4.603l1.115,0.874c0.028-0.036,2.896-3.602,7.842-4.066
		c1.425-0.134,2.538,0.152,3.309,0.85c1.222,1.105,1.249,2.929,1.249,2.947l1.417-0.002c0-0.099-0.019-2.451-1.704-3.985
		C72.206,51.754,70.725,51.343,68.882,51.516z"/>
	<path d="M70.394,55.349c-4.6,0.354-6.757,3.162-6.846,3.281l1.132,0.853c0.075-0.099,1.891-2.418,5.823-2.721
		c2.163-0.167,3.585,1.033,4.195,2.211c0.363,0.701,0.33,1.201,0.256,1.29l0.011-0.008l0.634,1.268
		c0.73-0.365,0.998-1.265,0.697-2.348C75.732,57.143,73.473,55.112,70.394,55.349z"/>
	<path d="M66.831,61.572l0.565,1.3c0.037-0.016,3.722-1.598,6.681-1.442c1.249,0.066,1.842,0.785,2.12,1.377
		c0.363,0.772,0.282,1.53,0.168,1.683l0.051-0.041l0.729,1.215c0.768-0.461,0.86-1.677,0.611-2.679
		c-0.339-1.362-1.464-2.857-3.605-2.97C70.856,59.84,66.995,61.501,66.831,61.572z"/>
	<path d="M107.804,52.697c-1.667,1.515-5.12,5.216-5.872,6.026c-1.076,0.162-5.524,0.932-9.02,3.06
		c-3.902,2.376-10.126,9.892-11.066,11.397c-0.694,1.111-4.627,3.871-6.474,4.543c-0.587,0.213-1.75,0.462-3.098,0.75
		c-2.746,0.587-6.164,1.318-8.324,2.455c-2.043,1.075-3.538,2.906-3.998,4.897c-0.094,0.406-0.14,0.81-0.14,1.204
		c0,1.014,0.305,1.972,0.896,2.779c1.787,2.439,5.083,3.017,10.077,1.769c1.995-0.498,3.781-1.594,5.508-2.653
		c1.819-1.116,3.537-2.169,5.22-2.329l1.134-0.077c1.69-0.094,4.004-0.223,8.485-1.445c5.703-1.555,7.988-5.158,8.083-5.311
		l-1.204-0.748c-0.021,0.033-2.116,3.29-7.252,4.691c-4.337,1.183-6.563,1.307-8.19,1.397l-1.189,0.081
		c-2.011,0.191-3.864,1.328-5.827,2.532c-1.636,1.003-3.327,2.04-5.111,2.486c-4.372,1.093-7.181,0.69-8.59-1.231
		c-0.736-1.004-0.688-2.091-0.518-2.826c0.362-1.571,1.618-3.088,3.277-3.961c1.987-1.046,5.439-1.784,7.96-2.323
		c1.456-0.311,2.607-0.557,3.286-0.804c1.807-0.657,6.207-3.547,7.192-5.124c0.874-1.399,6.946-8.712,10.601-10.937
		c3.655-2.225,8.673-2.896,8.723-2.903l0.255-0.033l0.174-0.188c0.042-0.045,4.168-4.497,5.957-6.124
		c1.581-1.438,3.845-2.126,5.503-1.674l0.373-1.367C112.499,50.123,109.754,50.924,107.804,52.697z"/>
	<path d="M113.545,50.914l-0.766,0.807c-1.373,1.373-4.467,6.249-4.598,6.455l1.197,0.759c0.031-0.049,3.14-4.949,4.402-6.212
		l0.805-0.847c0.883-0.954,1.645-1.779,2.527-1.779c1.164,0,1.811,0.606,1.838,0.631l0.996-1.007
		c-0.042-0.043-1.061-1.041-2.834-1.041C115.612,48.68,114.561,49.815,113.545,50.914z"/>
	<path d="M120.405,48.827c-1.289,0.073-2.931,0.7-3.312,2.223c-0.33,1.322-3.235,4.697-4.989,6.513l1.02,0.984
		c0.491-0.509,4.814-5.031,5.345-7.154c0.181-0.723,1.172-1.104,2.018-1.152c0.829-0.047,1.393,0.204,1.465,0.396l1.326-0.498
		C122.948,49.261,121.82,48.746,120.405,48.827z"/>
	<path d="M120.831,51.537c-0.466,0.814-3.898,4.968-6.092,7.561l1.082,0.915c0.567-0.67,5.56-6.584,6.24-7.772
		c1.432-2.505,2.043-2.548,2.069-2.549c0.413,0.21,0.945,1.36,0.945,3.068c0,0.509-0.047,1.067-0.159,1.665
		c-0.428,2.28-3.74,5.638-6.305,7.006l0.667,1.251c2.513-1.34,6.461-4.958,7.03-7.995c0.528-2.816-0.151-5.567-1.546-6.265
		C123.09,47.584,121.507,50.354,120.831,51.537z"/>
	<path d="M93.166,77.754c0.079,0.013,7.99,1.354,12.271,5.793l1.393,1.455c3.693,3.87,5.923,6.206,10.521,8.045
		c2.957,1.183,6.528,1.46,9.68,1.705c2.232,0.173,4.341,0.337,5.683,0.807c3.077,1.076,7.094,3.051,8.251,3.631
		c0.534,0.267,1.142,0.061,1.477-0.502c0.457-0.767,0.423-2.322-1.087-3.378l-0.684-0.517c-2.412-1.867-8.82-6.825-17.007-5.435
		l0.236,1.397c7.574-1.286,13.625,3.396,15.903,5.159l0.738,0.557c0.561,0.393,0.699,0.824,0.732,1.047
		c0.008,0.053,0.011,0.103,0.011,0.148c0,0.048-0.014,0.053-0.02,0.091c-1.467-0.728-5.159-2.513-8.083-3.536
		c-1.517-0.531-3.614-0.693-6.042-0.882c-3.05-0.236-6.506-0.505-9.262-1.607c-4.312-1.725-6.462-3.977-10.022-7.708l-1.398-1.459
		c-4.61-4.781-12.719-6.152-13.062-6.208L93.166,77.754z"/>
	<path d="M118.926,83.347l0.041,1.417c11.087-0.317,15.991,7.578,16.039,7.657l1.215-0.73
		C136.008,91.336,130.87,83.005,118.926,83.347z"/>
	<path d="M112.702,77.018l0.158,1.408c11.134-1.254,14.78,7.362,14.93,7.729l1.315-0.531
		C129.064,85.523,124.929,75.64,112.702,77.018z"/>
	<path d="M109.217,73.183l0.127,1.411c12.198-1.094,14.335,5.856,14.42,6.153l1.365-0.381
		C125.035,80.023,122.652,71.978,109.217,73.183z"/>
	<path d="M106.723,69.682l0.115,1.413c11.438-0.928,12.536,4.355,12.577,4.58l1.397-0.233
		C120.768,75.164,119.562,68.642,106.723,69.682z"/>
	<path d="M123.751,57.859c0.008,0.039,0.718,3.856-1.82,6.543c-2.584,2.736-5.822,2.441-7.562,2.283
		c-1.727-0.157-3.31-0.782-3.326-0.788l-0.263-0.104l-0.263,0.104c-0.041,0.017-4.148,1.644-8.834,2.29l0.193,1.404
		c4.242-0.585,7.922-1.904,8.909-2.278c0.534,0.193,1.895,0.642,3.43,0.782c1.862,0.17,5.689,0.518,8.746-2.719
		c3.049-3.229,2.216-7.608,2.18-7.793L123.751,57.859z"/>
	<path d="M113.429,68.17c2.95,1.686,2.817,3.272,2.815,3.288l1.401,0.214c0.042-0.254,0.305-2.55-3.514-4.732L113.429,68.17z"/>
	<path d="M114.104,87.347l0.02,1.417c5.782-0.081,8.459,1.354,9.687,2.573c1.257,1.247,1.263,2.488,1.262,2.54l1.417,0.032
		c0.002-0.074,0.031-1.843-1.631-3.528C122.802,88.296,119.184,87.275,114.104,87.347z"/>
	<path d="M109.373,83.426c10.524,1.1,12.729,6.176,12.75,6.227l1.316-0.524c-0.095-0.241-2.457-5.914-13.92-7.112L109.373,83.426z"
		/>
	<path d="M106.093,78.264c10.586,0.311,12.101,6.826,12.16,7.103l1.388-0.287c-0.066-0.322-1.748-7.887-13.507-8.233L106.093,78.264
		z"/>
	<path d="M101.759,74.43c10.146,0.307,10.979,4.685,10.986,4.729l1.403-0.197c-0.03-0.229-0.877-5.6-12.347-5.948L101.759,74.43z"/>
	<path d="M99.386,69.183l0.121,1.412c8.824-0.76,9.705,4.502,9.737,4.726l1.404-0.194C110.64,75.058,109.606,68.302,99.386,69.183z"
		/>
	<path d="M49.696,78.989l-0.81,1.183l1.432-0.075c6.171-0.324,15.401,1.47,15.493,1.488l0.273-1.391
		c-0.348-0.068-7.81-1.514-13.929-1.548c2.136-1.487,7.212-3.589,17.276-0.905l0.365-1.369
		C54.488,72.288,49.884,78.713,49.696,78.989z"/>
	<path d="M79.478,70.305c-1.232,1.053-2.396,2.048-3.584,2.823c-3.729,2.433-13.278,6.23-13.374,6.269l0.523,1.317
		c0.397-0.158,9.777-3.889,13.626-6.398c1.265-0.825,2.463-1.849,3.73-2.933c2.622-2.241,5.594-4.781,10.112-6.324l-0.459-1.341
		C85.277,65.349,82.196,67.982,79.478,70.305z"/>
	<path d="M57.027,75.325l1.171,0.798c0.161-0.231,4.081-5.613,16.158-0.907l0.515-1.32C61.663,68.749,57.21,75.053,57.027,75.325z"
		/>
	<path d="M62.891,72.117l1.111,0.88c0.167-0.208,4.234-5.046,15.224-1.435l0.442-1.347C67.669,66.273,63.081,71.876,62.891,72.117z"
		/>
	<path d="M71.019,69.337l1.189,0.772c0.126-0.191,3.188-4.661,11.186-2.047l0.439-1.347C74.752,63.747,71.167,69.108,71.019,69.337z
		"/>
	<path d="M77.42,65.916l1.054,0.947c0.226-0.25,5.625-6.095,13.387-3.145l0.504-1.325C83.679,59.092,77.482,65.847,77.42,65.916z"/>
	<path d="M68.827,64.241l0.575,1.295c0.224-0.099,5.514-2.377,8.138,1.266l1.15-0.828C76.05,62.309,71.084,63.238,68.827,64.241z"/>
	<path d="M76.074,74.399c0.015,0.005,1.511,0.479,2.846,1.963l1.054-0.948c-1.614-1.793-3.414-2.349-3.49-2.372L76.074,74.399z"/>
	<path d="M80.33,71.42c0.02,0.004,1.855,0.319,2.873,1.045l0.822-1.153c-1.285-0.918-3.373-1.274-3.461-1.289L80.33,71.42z"/>
	<path d="M70.881,77.225c1.833,0.638,3.946,1.459,4.308,1.731l0.851-1.134c-0.718-0.539-4.035-1.707-4.692-1.936L70.881,77.225z"/>
	<path d="M60.517,98.937l0.824,1.291l1.779-5.781c0.547-1.643,1.872-2.211,1.928-2.234l-0.531-1.314
		c-0.081,0.032-1.98,0.815-2.742,3.101c0,0-0.451,1.465-0.845,2.746c-0.553-1.197-0.768-2.242-0.768-3.125
		c0-2.37,1.468-3.602,1.561-3.677l-0.883-1.109C60.796,88.869,56.387,92.472,60.517,98.937z"/>
	<path d="M16.226,53.167c-0.72,0.33-0.89,0.748-0.906,1.041c-0.018,0.322,0.143,0.617,0.43,0.789
		c0.661,0.396,4.877,3.476,6.445,4.629l0.84-1.142c-0.194-0.143-4.023-2.956-5.78-4.18c1.496-0.377,5.503-0.411,11.428,4.146
		l0.864-1.123C22.944,52.249,18.067,52.323,16.226,53.167z"/>
	<path d="M21.99,53.348l0.914,1.083c0.02-0.016,1.994-1.633,4.803-1.338c2.94,0.309,6.296,2.681,6.33,2.705l0.824-1.153
		c-0.149-0.106-3.69-2.612-7.005-2.961C24.426,51.323,22.088,53.265,21.99,53.348z"/>
	<path d="M32.365,49.018c-3.09,0.363-5.06,2.828-5.142,2.933l1.113,0.877c0.017-0.021,1.7-2.109,4.193-2.402
		c2.047-0.24,4.854,1.947,5.762,2.81l0.977-1.027C39.117,52.063,35.493,48.65,32.365,49.018z"/>
	<path d="M33.814,49.405l1.263,0.643c0.034-0.064,0.873-1.563,3.633-1.287c2.954,0.295,3.906,1.133,3.915,1.141l0.99-1.014
		c-0.121-0.121-1.279-1.189-4.764-1.538C35.075,46.972,33.864,49.305,33.814,49.405z"/>
	<rect x="5.4" y="49.847" transform="matrix(-0.7574 -0.6529 0.6529 -0.7574 -12.305 96.5387)" width="12.762" height="1.417"/>
	<path d="M6.727,41.961l0.742,1.207c0.037-0.019,3.836-1.731,15.637,10.382l1.015-0.989C11.415,39.52,7.169,41.673,6.727,41.961z"/>
	<path d="M14.083,44.614l0.728,1.216c0.023-0.014,2.306-1.352,4.498-0.914c2.391,0.478,6.958,3.361,8.672,6.789l1.268-0.634
		c-1.932-3.864-6.929-6.999-9.661-7.545C16.85,42.979,14.195,44.547,14.083,44.614z"/>
	<path d="M21.515,44.398l0.53,1.314c0.233-0.092,5.758-2.183,10.841,4.44l1.124-0.863C28.248,41.782,21.581,44.372,21.515,44.398z"
		/>
	<path d="M26.849,44.327l0.86,1.126c0.079-0.058,1.967-1.421,5.366-0.387c3.402,1.035,4.184,2.841,4.215,2.917l1.32-0.517
		c-0.04-0.102-1.005-2.504-5.123-3.756C29.352,42.453,26.949,44.25,26.849,44.327z"/>
	<path d="M34.608,45.165l1.343,0.452c0.028-0.081,0.712-1.984,2.785-1.855c2.003,0.126,5.807,2.82,7.104,3.848l0.881-1.11
		c-0.205-0.162-5.04-3.974-7.896-4.152C36.285,42.189,34.956,44.121,34.608,45.165z"/>
	<path d="M66.938,36.342l1.351,0.429c0.008-0.026,0.857-2.596,2.731-2.346c0.402,0.054,0.628,0.495,0.746,0.856
		c0.636,1.938-0.219,6.293-3.478,9.432l0.983,1.021c3.48-3.352,4.704-8.264,3.841-10.894c-0.346-1.055-1.022-1.701-1.905-1.819
		C68.764,32.693,67.346,35.05,66.938,36.342z"/>
	<path d="M6.324,73.222h1.417c0-2.313,2.326-4.454,2.349-4.475l-0.951-1.051C9.024,67.8,6.324,70.274,6.324,73.222z"/>
	<path d="M6.248,77.438l1.398,0.233c0.74-4.439,5.246-5.383,5.437-5.421l-0.271-1.391C12.757,70.871,7.153,72.016,6.248,77.438z"/>
	<path d="M15.281,64.889c0,0-1.333,0.333-1.333,1.333s0.666,1,1.333,1s1.833-0.333,1.333-1.333S15.281,64.889,15.281,64.889z"/>
	<path d="M65.864,84.43c0,0-1,0-1,0.875s0.75,1.25,1.25,1.25s0.875-0.125,0.875-1.25S65.864,84.43,65.864,84.43z"/>
	<path d="M83.531,42.097c0,0-1,0-1,0.875s0.75,1.25,1.25,1.25s0.875-0.125,0.875-1.25S83.531,42.097,83.531,42.097z"/>
	<path d="M103.147,17.238c-1.236,2.474-4.24,6.009-8.637,7.829c-4.962,2.053-10.456,7.795-11.06,9.406
		c-0.42,1.117-1.826,3.569-3.816,5.393c-1.431,1.313-2.351,3.557-2.235,5.457c0.082,1.35,0.648,2.436,1.635,3.142
		c2.303,1.645,6.488,2.271,10.709-1.374c2.283-1.972,3.066-4.164,3.693-5.927c0.425-1.192,0.792-2.222,1.511-2.941
		c1.692-1.692,3.321-1.478,3.39-1.467l0.116,0.017l0.123-0.021c10.029-1.87,13.021-6.628,13.143-6.829l-1.209-0.739
		c-0.027,0.044-2.843,4.41-12.133,6.16c-0.471-0.049-2.43-0.125-4.432,1.876c-0.945,0.945-1.382,2.17-1.844,3.468
		c-0.603,1.689-1.284,3.603-3.284,5.331c-3.599,3.107-7.075,2.639-8.959,1.293c-0.638-0.456-0.989-1.154-1.045-2.075
		c-0.09-1.479,0.658-3.298,1.779-4.326c2.188-2.005,3.701-4.651,4.184-5.94c0.403-1.075,5.479-6.61,10.274-8.594
		c4.753-1.967,7.953-5.683,9.363-8.504c1.124-2.25,5.393-5.747,7.315-5.61l0.102-1.414
		C109.149,10.657,104.389,14.752,103.147,17.238z"/>
	<path d="M109.741,16.323l1.411,0.132c0.007-0.067,0.696-6.752,5.544-8.57l-0.498-1.327C110.513,8.689,109.77,16.012,109.741,16.323
		z"/>
	<path d="M106.236,29.429c0.078,0.005,7.821,0.533,12.085,4.166c4.531,3.86,9.672,11.998,11.36,14.672
		c2.198,3.481,6.218,5.329,13.031,5.993l1.446,0.142l-0.78-1.227c-0.049-0.077-1.241-1.932-4.585-5.442
		c-3.289-3.454-6.51-5.247-9.067-5.051l0.109,1.413c2.094-0.161,4.985,1.522,7.933,4.615c1.663,1.746,2.765,3.057,3.46,3.938
		c-5.34-0.734-8.581-2.339-10.349-5.138c-1.717-2.719-6.944-10.995-11.639-14.995c-4.627-3.941-12.579-4.48-12.916-4.501
		L106.236,29.429z"/>
	<path d="M125.144,36.25c10.382,2.045,12.361,11.695,12.441,12.104l1.392-0.266c-0.021-0.11-2.221-10.996-13.559-13.229
		L125.144,36.25z"/>
	<path d="M122.272,29.576c9.941,2.525,12.297,11.883,12.319,11.977l1.379-0.328c-0.024-0.102-2.558-10.282-13.349-13.023
		L122.272,29.576z"/>
	<path d="M118.781,24.264c10.892,0,12.404,10.123,12.464,10.553l1.404-0.189c-0.016-0.118-1.722-11.781-13.868-11.781V24.264z"/>
	<path d="M117.841,18.922c9.385,1.408,11.496,10.247,11.581,10.622l1.383-0.311c-0.022-0.102-2.393-10.159-12.753-11.713
		L117.841,18.922z"/>
	<path d="M128.743,7.309c-0.021,0.175-0.587,4.319-6.914,7.097l0.57,1.298c4.919-2.16,6.702-5.134,7.359-6.856
		c0.592,0.809,1.296,2.105,1.296,3.951c0,0.634-0.085,1.324-0.29,2.068c-1.177,4.263-7.274,4.478-7.336,4.48l0.036,1.417
		c0.294-0.007,7.208-0.24,8.665-5.52c1.439-5.21-2.073-8.268-2.224-8.395L128.743,7.309z"/>
	<path d="M117.433,14.067l1.027,0.977c2.492-2.62,6.618-6.907,7.078-7.255l-0.85-1.134C124.008,7.165,118.526,12.918,117.433,14.067
		z"/>
	<path d="M113.993,14.714l1.242,0.683c0.994-1.807,3.902-6.688,5.403-7.563l-0.715-1.225
		C117.815,7.839,114.377,14.014,113.993,14.714z"/>
	<path d="M57.28,29.221c-0.929,0.929-0.893,1.68-0.7,2.146c0.435,1.052,2.028,1.563,4.868,1.563c1.651,0,4.044-0.435,6.578-0.895
		c3.399-0.618,7.251-1.318,9.472-0.947l8.145,1.496l0.277-1.39l-8.188-1.504c-2.465-0.411-6.275,0.281-9.959,0.951
		c-2.469,0.449-4.8,0.873-6.324,0.873c-2.672,0-3.484-0.51-3.559-0.688c-0.01-0.024,0.018-0.227,0.393-0.602
		c1.115-1.115,14.707-3.52,25.061-1.967l0.21-1.401C73.986,25.419,59.139,27.361,57.28,29.221z"/>
	<path d="M70.204,22.223c-5.326,1.953-5.932,5.243-5.955,5.382l1.397,0.241c0.021-0.107,0.555-2.645,5.046-4.292
		c4.671-1.713,15.523,3.099,15.633,3.148l0.579-1.293C86.437,25.2,75.414,20.312,70.204,22.223z"/>
	<path d="M76.394,18.349c-4.688,0.361-6.51,4.077-6.585,4.235l1.278,0.612c0.062-0.128,1.566-3.138,5.416-3.434
		c4.089-0.315,14.363,4.712,14.466,4.763l0.625-1.271C91.158,23.039,80.868,18.004,76.394,18.349z"/>
	<path d="M77.442,18.831l1.342,0.455c0.036-0.103,0.95-2.522,5.163-2.522c4.474,0,11.088,6.877,11.154,6.947l1.025-0.978
		c-0.287-0.302-7.101-7.386-12.18-7.386C78.664,15.347,77.489,18.689,77.442,18.831z"/>
	<path d="M90.006,18.357l1.213,0.733c0.053-0.085,1.322-2.087,4.122-1.667c3.013,0.452,5.527,3.545,5.553,3.576L102,20.113
		c-0.116-0.145-2.881-3.557-6.448-4.092C91.792,15.457,90.077,18.239,90.006,18.357z"/>
	<path d="M96.803,16.865l0.955,1.047c0.033-0.031,3.4-3.039,5.72-0.993l0.938-1.062C101.796,13.547,98.29,15.506,96.803,16.865z"/>
	<path d="M78.795,30.038l0.97,1.035c0.078-0.073,7.935-7.296,18.828-6.976l0.041-1.417C87.141,22.343,79.13,29.724,78.795,30.038z"
		/>
	<path d="M79.163,57.403l1.326-0.372c-0.001-0.044-0.108-4.393,2.778-7.128l-0.975-1.029c-1.75,1.658-2.537,3.746-2.904,5.409
		c-0.232-0.842-0.332-1.62-0.332-2.312c0-2.212,0.913-3.59,0.975-3.68l-1.165-0.807C78.747,47.655,75.982,51.747,79.163,57.403z"/>
	<path d="M7.281,113.722c0,0,50.833-6.917,90.583,9.583c0,0,26.25,0.25,48,11l0.25,88.084c0,0-0.175,8.166-9.921,8.666H15.614
		c0,0-8-1.174-8.5-9.92L7.281,113.722z"/>
</g>
</svg>
