<?xml version="1.0" encoding="iso-8859-1"?>
<!-- Generator: Adobe Illustrator 19.1.0, SVG Export Plug-In . SVG Version: 6.00 Build 0)  -->
<svg version="1.1" id="&#xB808;&#xC774;&#xC5B4;_1" xmlns="http://www.w3.org/2000/svg" xmlns:xlink="http://www.w3.org/1999/xlink"
	 x="0px" y="0px" viewBox="0 0 153.07 238.11" style="enable-background:new 0 0 153.07 238.11;" xml:space="preserve">
<rect style="fill:#E60012;" width="153.07" height="238.11"/>
<g>
	<path style="fill:#FFFFFF;" d="M7.905,30.888V15.721c0,0,0.999-8.166,9.333-8.833l118.167,0.167c0,0,9.001,0.5,9.834,10v97.833
		l-20.167,25.334l-12.667,46.5l-13,8.333l-19-3.5l-47.5-25.833l-7-69.168L8.072,45.721L7.905,30.888z"/>
	<path style="fill:#FDD000;" d="M11.405,47.388c0,0-3.333-2.667-3.5-5c-0.167-2.333,0-12,0-12s2.334-1,4.5,0.333
		S15.239,42.888,11.405,47.388z"/>
	<path style="fill:#FDD000;" d="M63.238,120.222c0,0-4.666-0.668-4.833,6.167c-0.167,6.834,4.833,15.5,4.833,15.5l2.5-1l2.167-6.5
		c0,0,0.667-7.167,0-10S64.905,120.222,63.238,120.222z"/>
	<path style="fill:#FDD000;" d="M129.739,82.055c0,0-3.666,0.333-4.5,5.167c-0.834,4.833,4,13.667,4,13.667l1,0.5l2-4
		c0,0,1.999-4.834,1.666-9.667C133.572,82.888,130.906,81.721,129.739,82.055z"/>
	<path d="M17.827,6.346c-5.861,0-10.63,4.769-10.63,10.63v204.158c0,5.861,4.768,10.63,10.63,10.63h117.492
		c5.861,0,10.63-4.769,10.63-10.63V16.976c0-5.861-4.769-10.63-10.63-10.63H17.827z M8.614,221.134V16.976
		c0-5.08,4.133-9.213,9.213-9.213h117.492c5.08,0,9.212,4.133,9.212,9.213v204.158c0,5.08-4.132,9.212-9.212,9.212H17.827
		C12.747,230.346,8.614,226.214,8.614,221.134z"/>
	<path d="M7.707,29.947l0.727,1.217c0.084-0.05,2.093-1.206,3.671,0.174c0.748,0.655,1.385,2.753,1.385,5.571
		c0,2.757-0.662,6.205-2.374,9.661c-0.865-0.956-2.283-2.755-2.596-4.632l-1.398,0.233c0.534,3.204,3.59,6.037,3.72,6.156
		l0.664,0.609l0.436-0.789c4.065-7.369,3.477-15.792,1.096-17.875C10.677,28.205,7.828,29.875,7.707,29.947z"/>
	<path d="M59.61,120.918c-1.555,1.468-2.226,3.969-1.995,7.434c0.514,7.703,4.806,11.573,4.988,11.734l0.201,0.178h0.268
		c1.812,0,5.652-2.673,5.958-10.933c0.311-8.396-3.84-9.57-5.12-9.73C63.139,119.505,61.176,119.44,59.61,120.918z M59.029,128.258
		c-0.027-0.404-0.04-0.794-0.04-1.169c0-2.384,0.544-4.148,1.595-5.14c1.127-1.064,2.579-1.013,3.151-0.942
		c0.939,0.117,3.895,1.004,3.895,7.436c0,0.268-0.005,0.547-0.016,0.835c-0.254,6.868-3.04,9.253-4.303,9.515
		C62.462,137.914,59.437,134.378,59.029,128.258z"/>
	<path d="M126.51,83.236c-1.051,1.19-2.188,3.527-1.641,7.906c0.767,6.145,4.271,10.209,4.42,10.379l0.36,0.412l0.489-0.245
		c1.355-0.677,4.141-5.83,4.392-11.1c0.181-3.807-0.406-6.45-1.745-7.854c-0.72-0.755-1.633-1.138-2.713-1.138
		C128.709,81.596,127.443,82.179,126.51,83.236z M126.275,90.967c-0.085-0.684-0.128-1.336-0.128-1.954
		c0-2.097,0.488-3.778,1.425-4.839c0.67-0.759,1.535-1.161,2.5-1.161c0.687,0,1.238,0.229,1.688,0.699
		c0.653,0.686,1.386,2.204,1.386,5.563c0,0.39-0.01,0.805-0.031,1.246c-0.212,4.443-2.204,8.256-3.203,9.491
		C128.982,98.752,126.834,95.432,126.275,90.967z"/>
	<path d="M8.572,44.221c0,0,1.833,3,2.75,3.583c0,0,1.751-3.917,2.083-5.25c0,0,11.917,12.5,20.667,36.75s16.5,64.25,16.5,64.25
		s4.833-4.667,9-8.667c0,0,1.833,3.5,3.5,4.167c1.666,0.667,4.333-1.333,5-5.833c0,0,15.334,12.999,25.167,52.666
		c0,0,7.5-59.333,34.166-88.834c0,0,1.833,2.667,2.5,3.334c0.667,0.666,3-4.334,3-4.334s9,7.167,12.167,17.834l0.167,108.334
		c0,0-1,8.499-9.5,8.666l-118.501,0.334c0,0-9-0.334-9.5-10.667V45.888L8.572,44.221z"/>
	<path d="M18.94,36.733L14.274,45.9c-0.178,0.349-0.039,0.775,0.31,0.953c0.349,0.178,0.775,0.039,0.953-0.31l4.667-9.167
		c0.178-0.349,0.039-0.775-0.31-0.953C19.544,36.246,19.118,36.385,18.94,36.733z"/>
	<path d="M21.78,39.221c-2.057,3.849-5.21,9.717-5.465,10.108c-0.213,0.327-0.123,0.766,0.202,0.981
		c0.325,0.215,0.761,0.129,0.978-0.196c0.343-0.514,5.005-9.233,5.536-10.226c0.185-0.345,0.054-0.775-0.291-0.959
		C22.394,38.745,21.964,38.875,21.78,39.221z"/>
	<path d="M23.934,42.58l-4.833,10c-0.17,0.353-0.023,0.777,0.33,0.947c0.353,0.17,0.777,0.023,0.947-0.33l4.833-10
		c0.17-0.353,0.023-0.777-0.33-0.947C24.528,42.08,24.103,42.228,23.934,42.58z"/>
	<path d="M26.782,46.052l-5.667,10.5c-0.186,0.344-0.057,0.774,0.287,0.96c0.344,0.186,0.774,0.057,0.96-0.287l5.667-10.5
		c0.186-0.344,0.057-0.774-0.287-0.96C27.397,45.579,26.967,45.708,26.782,46.052z"/>
	<path d="M28.608,50.064l-6,11.667c-0.179,0.348-0.042,0.775,0.306,0.955c0.348,0.179,0.775,0.042,0.955-0.306l6-11.667
		c0.179-0.348,0.042-0.775-0.306-0.954C29.214,49.579,28.788,49.716,28.608,50.064z"/>
	<path d="M31.111,54.226l-5.333,10.167c-0.182,0.347-0.049,0.775,0.298,0.957c0.347,0.182,0.775,0.049,0.956-0.298l5.333-10.167
		c0.182-0.347,0.049-0.775-0.298-0.957C31.721,53.745,31.292,53.878,31.111,54.226z"/>
	<path d="M33.45,58.881l-6.667,12.167c-0.188,0.343-0.062,0.774,0.281,0.962c0.343,0.188,0.774,0.062,0.962-0.281l6.666-12.167
		c0.188-0.343,0.062-0.774-0.281-0.962C34.069,58.412,33.638,58.537,33.45,58.881z"/>
	<path d="M35.131,63.188l-6.333,10.5c-0.202,0.335-0.094,0.771,0.241,0.973c0.335,0.202,0.771,0.094,0.973-0.241l6.333-10.5
		c0.202-0.335,0.094-0.771-0.241-0.973C35.769,62.746,35.334,62.854,35.131,63.188z"/>
	<path d="M36.807,66.842l-6.333,10c-0.21,0.331-0.111,0.769,0.219,0.978c0.331,0.209,0.769,0.111,0.978-0.219l6.333-10
		c0.209-0.331,0.111-0.769-0.219-0.978C37.454,66.413,37.016,66.512,36.807,66.842z"/>
	<path d="M39.131,70.855l-8.333,13.833c-0.202,0.336-0.094,0.771,0.241,0.973c0.335,0.202,0.771,0.094,0.973-0.241l8.333-13.833
		c0.202-0.336,0.094-0.771-0.241-0.973C39.769,70.412,39.333,70.521,39.131,70.855z"/>
	<path d="M40.13,75.525l-7.167,12c-0.201,0.336-0.09,0.771,0.245,0.972c0.336,0.201,0.771,0.09,0.972-0.245l7.166-12
		c0.201-0.336,0.09-0.771-0.245-0.972C40.766,75.079,40.33,75.189,40.13,75.525z"/>
	<path d="M41.96,79.364l-7.5,12.833c-0.197,0.338-0.084,0.772,0.254,0.969c0.338,0.197,0.772,0.084,0.969-0.254l7.5-12.834
		c0.197-0.338,0.084-0.772-0.254-0.969C42.591,78.912,42.157,79.025,41.96,79.364z"/>
	<path d="M43.826,85.314l-8.667,12.334c-0.225,0.32-0.148,0.762,0.172,0.987c0.32,0.225,0.762,0.147,0.987-0.173l8.667-12.333
		c0.225-0.32,0.148-0.762-0.172-0.987C44.493,84.916,44.051,84.994,43.826,85.314z"/>
	<path d="M45.477,89.837l-8.5,13.167c-0.212,0.329-0.118,0.768,0.211,0.979c0.329,0.212,0.768,0.118,0.979-0.211l8.5-13.167
		c0.212-0.329,0.118-0.768-0.211-0.979C46.127,89.414,45.688,89.508,45.477,89.837z"/>
	<path d="M46.487,95.32l-8,11.667c-0.221,0.323-0.139,0.764,0.184,0.985c0.323,0.221,0.764,0.139,0.985-0.184l8-11.667
		c0.221-0.323,0.139-0.764-0.184-0.985C47.15,94.916,46.709,94.998,46.487,95.32z"/>
	<path d="M47.998,100.304l-9.333,12.833c-0.23,0.317-0.16,0.76,0.156,0.99c0.317,0.23,0.76,0.16,0.99-0.156l9.333-12.833
		c0.23-0.317,0.16-0.76-0.156-0.99C48.672,99.918,48.229,99.988,47.998,100.304z"/>
	<path d="M48.477,107.169l-7.667,11.833c-0.213,0.329-0.119,0.768,0.209,0.98c0.329,0.213,0.767,0.119,0.98-0.209l7.667-11.834
		c0.213-0.329,0.119-0.767-0.21-0.98C49.128,106.747,48.69,106.841,48.477,107.169z"/>
	<path d="M50.176,110.958l-8.167,10.667c-0.238,0.311-0.179,0.756,0.132,0.993c0.311,0.238,0.755,0.179,0.993-0.132l8.167-10.667
		c0.238-0.311,0.179-0.755-0.132-0.993C50.858,110.587,50.414,110.646,50.176,110.958z"/>
	<path d="M51.141,116.34l-8.833,13.834c-0.211,0.329-0.114,0.768,0.216,0.979c0.33,0.21,0.768,0.114,0.979-0.216l8.833-13.835
		c0.211-0.33,0.114-0.768-0.216-0.979C51.79,115.913,51.352,116.01,51.141,116.34z"/>
	<path d="M52.146,121.499l-8,12.167c-0.215,0.327-0.124,0.767,0.203,0.981c0.327,0.216,0.767,0.124,0.982-0.202l8-12.167
		c0.215-0.327,0.124-0.767-0.203-0.982C52.801,121.081,52.361,121.172,52.146,121.499z"/>
	<path d="M53.164,127.307l-7.333,10.166c-0.229,0.318-0.157,0.761,0.16,0.99c0.317,0.229,0.76,0.157,0.989-0.16l7.333-10.166
		c0.229-0.318,0.157-0.761-0.16-0.99C53.835,126.918,53.393,126.99,53.164,127.307z"/>
	<path d="M55.359,131.603l-9.667,11.667c-0.25,0.302-0.208,0.748,0.094,0.998c0.301,0.249,0.748,0.208,0.998-0.094l9.667-11.667
		c0.25-0.302,0.208-0.748-0.093-0.998C56.056,131.26,55.609,131.301,55.359,131.603z"/>
	<path d="M53.993,126.39c-0.367,0.136-0.555,0.543-0.419,0.91l4,10.833c0.135,0.367,0.543,0.556,0.91,0.42
		c0.367-0.136,0.555-0.543,0.419-0.91l-4-10.833C54.768,126.443,54.36,126.254,53.993,126.39z"/>
	<path d="M51.113,127.577c-0.356,0.162-0.515,0.582-0.353,0.938l5.667,12.5c0.162,0.356,0.581,0.514,0.938,0.352
		c0.356-0.162,0.515-0.582,0.353-0.938l-5.667-12.5C51.889,127.573,51.469,127.416,51.113,127.577z"/>
	<path d="M49.506,129.885c-0.37,0.129-0.566,0.532-0.438,0.902l4.333,12.5c0.128,0.369,0.532,0.566,0.901,0.438
		c0.37-0.129,0.566-0.532,0.438-0.902l-4.334-12.5C50.28,129.954,49.876,129.757,49.506,129.885z"/>
	<path d="M72.146,127.166l-4.833,7.333c-0.215,0.326-0.125,0.766,0.202,0.981c0.327,0.215,0.767,0.125,0.982-0.202l4.833-7.333
		c0.215-0.326,0.125-0.766-0.202-0.982C72.801,126.749,72.362,126.838,72.146,127.166z"/>
	<path d="M74.823,128.818l-5.667,8.166c-0.223,0.322-0.144,0.764,0.178,0.986c0.321,0.224,0.763,0.144,0.986-0.178l5.667-8.166
		c0.223-0.322,0.144-0.764-0.178-0.986C75.488,128.417,75.046,128.497,74.823,128.818z"/>
	<path d="M76.779,130.89l-6,11.333c-0.183,0.347-0.052,0.775,0.295,0.958c0.346,0.184,0.775,0.052,0.958-0.294l6-11.333
		c0.183-0.347,0.052-0.775-0.295-0.958C77.391,130.413,76.962,130.544,76.779,130.89z"/>
	<path d="M79.646,133.333L72.313,144.5c-0.215,0.327-0.124,0.767,0.203,0.981c0.327,0.215,0.767,0.123,0.981-0.204l7.334-11.166
		c0.215-0.327,0.123-0.767-0.204-0.982C80.301,132.915,79.861,133.006,79.646,133.333z"/>
	<path d="M82.148,136.332l-7.168,10.833c-0.216,0.326-0.126,0.766,0.2,0.981c0.327,0.216,0.766,0.126,0.982-0.2l7.168-10.833
		c0.216-0.326,0.127-0.766-0.2-0.981C82.804,135.916,82.364,136.004,82.148,136.332z"/>
	<path d="M83.965,138.689l-7.333,12.167c-0.202,0.336-0.094,0.77,0.241,0.973c0.335,0.202,0.77,0.095,0.973-0.24l7.334-12.167
		c0.201-0.336,0.094-0.77-0.241-0.974C84.603,138.247,84.168,138.354,83.965,138.689z"/>
	<path d="M86.341,141.626l-8.999,11.833c-0.237,0.311-0.177,0.756,0.135,0.993c0.312,0.236,0.756,0.176,0.993-0.136l9-11.833
		c0.236-0.312,0.176-0.756-0.136-0.993C87.022,141.254,86.578,141.315,86.341,141.626z"/>
	<path d="M88.297,144.026l-8.834,14.834c-0.2,0.336-0.09,0.77,0.247,0.971c0.336,0.201,0.771,0.091,0.972-0.246l8.832-14.834
		c0.201-0.336,0.091-0.771-0.246-0.971C88.932,143.579,88.497,143.689,88.297,144.026z"/>
	<path d="M89.297,148.359l-7.666,12.833c-0.201,0.336-0.091,0.771,0.245,0.972s0.771,0.091,0.972-0.245l7.666-12.833
		c0.201-0.336,0.091-0.771-0.245-0.972C89.933,147.913,89.497,148.023,89.297,148.359z"/>
	<path d="M91.5,152.303l-10,13.666c-0.23,0.316-0.162,0.76,0.153,0.991c0.316,0.23,0.76,0.162,0.991-0.153l10-13.666
		c0.23-0.316,0.162-0.76-0.154-0.991C92.175,151.919,91.731,151.988,91.5,152.303z"/>
	<path d="M93.154,156.323l-9.334,13.666c-0.221,0.323-0.139,0.764,0.186,0.984c0.323,0.221,0.764,0.139,0.984-0.186l9.334-13.666
		c0.221-0.323,0.139-0.764-0.186-0.984C93.815,155.916,93.375,155.999,93.154,156.323z"/>
	<path d="M94.82,160.323l-9.666,14.166c-0.221,0.323-0.138,0.765,0.186,0.984c0.323,0.221,0.765,0.138,0.984-0.186l9.666-14.166
		c0.221-0.323,0.138-0.765-0.186-0.984C95.481,159.916,95.04,160,94.82,160.323z"/>
	<path d="M95.686,166.447l-9.834,12.334c-0.244,0.306-0.194,0.751,0.112,0.995c0.306,0.244,0.751,0.194,0.995-0.112l9.834-12.334
		c0.244-0.306,0.194-0.751-0.112-0.995C96.375,166.09,95.93,166.14,95.686,166.447z"/>
	<path d="M88.863,176.431c-0.252,0.299-0.214,0.746,0.085,0.999l5.334,4.5c0.299,0.252,0.746,0.214,0.999-0.085
		c0.252-0.299,0.214-0.746-0.085-0.999l-5.334-4.5C89.563,176.094,89.116,176.132,88.863,176.431z"/>
	<path d="M85.425,165.202c-0.288,0.266-0.306,0.714-0.04,1.001l10,10.833c0.266,0.288,0.714,0.306,1.001,0.04
		c0.288-0.266,0.306-0.714,0.04-1.001l-10-10.833C86.16,164.954,85.712,164.936,85.425,165.202z"/>
	<path d="M85.814,159.155c-0.186,0.14-0.284,0.353-0.284,0.568c0,0.147,0.047,0.297,0.142,0.424c0,0,9.058,12.076,9.672,12.895
		c-0.604,0.76-5.493,6.904-5.493,6.904c-0.104,0.131-0.154,0.286-0.154,0.441c0,0.208,0.092,0.415,0.268,0.555
		c0.307,0.243,0.753,0.192,0.996-0.113l6.175-7.762l-10.328-13.771C86.571,158.984,86.127,158.921,85.814,159.155z"/>
	<path d="M87.635,153.498c-0.308,0.242-0.361,0.688-0.12,0.995l12.167,15.5c0.242,0.308,0.688,0.361,0.995,0.12
		c0.308-0.242,0.361-0.688,0.12-0.995l-12.167-15.5C88.388,153.31,87.942,153.256,87.635,153.498z"/>
	<path d="M88.987,148.65c-0.315,0.23-0.385,0.674-0.154,0.99l10.334,14.166c0.23,0.315,0.674,0.385,0.99,0.154
		c0.315-0.23,0.385-0.674,0.154-0.99l-10.334-14.166C89.747,148.489,89.304,148.419,88.987,148.65z"/>
	<path d="M89.265,144.529c-0.291,0.262-0.313,0.71-0.052,1.001l10.666,11.833c0.262,0.291,0.71,0.314,1.001,0.052
		s0.313-0.71,0.052-1.001l-10.666-11.833C90.004,144.29,89.556,144.267,89.265,144.529z"/>
	<path d="M91.133,140.667c-0.308,0.243-0.359,0.688-0.116,0.995l9.5,12c0.243,0.308,0.689,0.359,0.995,0.116
		c0.308-0.243,0.359-0.689,0.116-0.995l-9.5-12C91.885,140.475,91.439,140.423,91.133,140.667z"/>
	<path d="M92.661,136.478c-0.319,0.227-0.393,0.67-0.166,0.988l9.5,13.333c0.228,0.318,0.67,0.394,0.988,0.166
		c0.318-0.228,0.394-0.67,0.166-0.988l-9.5-13.333C93.422,136.326,92.979,136.251,92.661,136.478z"/>
	<path d="M93.466,132.166c-0.307,0.243-0.359,0.688-0.117,0.996l12.5,15.833c0.243,0.307,0.688,0.359,0.996,0.117
		c0.307-0.243,0.359-0.689,0.117-0.996l-12.5-15.833C94.219,131.976,93.773,131.923,93.466,132.166z"/>
	<path d="M95.661,127.811c-0.319,0.227-0.393,0.67-0.166,0.988l11.167,15.667c0.228,0.319,0.67,0.394,0.988,0.166
		c0.319-0.228,0.394-0.67,0.166-0.988l-11.167-15.667C96.422,127.658,95.979,127.583,95.661,127.811z"/>
	<path d="M97.804,124.664c-0.309,0.24-0.364,0.686-0.123,0.994l11.166,14.333c0.24,0.309,0.686,0.364,0.994,0.123
		c0.309-0.24,0.364-0.686,0.123-0.994l-11.166-14.333C98.558,124.478,98.112,124.422,97.804,124.664z"/>
	<path d="M99.226,119.27c-0.342,0.192-0.463,0.624-0.272,0.965l9.833,17.501c0.192,0.342,0.624,0.463,0.965,0.271
		c0.342-0.192,0.463-0.624,0.271-0.965l-9.833-17.5C99.998,119.199,99.566,119.078,99.226,119.27z"/>
	<path d="M100.778,116.516c-0.297,0.254-0.332,0.702-0.078,0.999l9.833,11.5c0.255,0.297,0.702,0.332,1,0.078
		c0.297-0.255,0.332-0.702,0.078-1l-9.834-11.5C101.523,116.297,101.076,116.262,100.778,116.516z"/>
	<path d="M102.974,112.827c-0.31,0.238-0.369,0.684-0.13,0.994l10,13c0.238,0.31,0.684,0.369,0.993,0.13
		c0.311-0.238,0.368-0.684,0.13-0.993l-10-13C103.729,112.646,103.283,112.588,102.974,112.827z"/>
	<path d="M104.817,109.818c-0.314,0.233-0.381,0.677-0.147,0.991l9,12.167c0.232,0.314,0.676,0.381,0.991,0.147
		c0.314-0.232,0.381-0.676,0.147-0.991l-9-12.166C105.576,109.652,105.133,109.586,104.817,109.818z"/>
	<path d="M107.542,106.946c-0.336,0.201-0.446,0.636-0.245,0.972l7.667,12.833c0.201,0.336,0.636,0.446,0.972,0.245
		c0.336-0.201,0.445-0.636,0.245-0.972l-7.667-12.833C108.312,106.855,107.878,106.746,107.542,106.946z"/>
	<path d="M109.323,104.647c-0.316,0.229-0.388,0.673-0.158,0.99l8.333,11.499c0.23,0.317,0.673,0.388,0.99,0.158
		c0.316-0.229,0.388-0.673,0.158-0.99l-8.333-11.5C110.083,104.488,109.641,104.417,109.323,104.647z"/>
	<path d="M111.131,100.834c-0.307,0.244-0.356,0.689-0.113,0.996l8.5,10.666c0.244,0.306,0.69,0.357,0.996,0.113
		c0.307-0.244,0.356-0.69,0.113-0.996l-8.5-10.667C111.883,100.641,111.437,100.59,111.131,100.834z"/>
	<path d="M114.349,97.63c-0.327,0.216-0.416,0.655-0.2,0.982l7.166,10.834c0.216,0.326,0.655,0.416,0.981,0.2
		c0.327-0.216,0.416-0.655,0.2-0.982L115.33,97.83C115.114,97.504,114.675,97.414,114.349,97.63z"/>
	<path d="M117.502,94.638c-0.321,0.223-0.402,0.664-0.18,0.986l6.334,9.167c0.223,0.322,0.664,0.403,0.986,0.18
		c0.321-0.223,0.402-0.664,0.18-0.986l-6.334-9.167C118.266,94.497,117.824,94.416,117.502,94.638z"/>
	<path d="M120.064,92.434c-0.343,0.188-0.469,0.619-0.28,0.962l5.667,10.333c0.187,0.343,0.619,0.469,0.962,0.281
		c0.343-0.188,0.469-0.619,0.28-0.962l-5.667-10.333C120.839,92.371,120.407,92.245,120.064,92.434z"/>
	<path d="M121.819,90.655c-0.22,0.324-0.137,0.765,0.187,0.985l3.667,2.5c0.323,0.221,0.765,0.137,0.985-0.186
		c0.22-0.324,0.137-0.765-0.187-0.985l-3.667-2.5C122.481,90.249,122.04,90.332,121.819,90.655z"/>
	<path d="M136.647,90.999l-4.5,6.833c-0.215,0.327-0.125,0.766,0.202,0.981c0.327,0.215,0.766,0.125,0.982-0.202l4.5-6.833
		c0.215-0.327,0.125-0.766-0.202-0.982C137.302,90.581,136.863,90.671,136.647,90.999z"/>
	<path d="M138.632,93.023l-4.5,7.5c-0.201,0.336-0.093,0.771,0.243,0.973c0.335,0.201,0.77,0.092,0.972-0.243l4.5-7.5
		c0.201-0.336,0.093-0.771-0.243-0.973C139.269,92.579,138.833,92.688,138.632,93.023z"/>
	<path d="M141.373,96.586l-6.166,7c-0.258,0.293-0.23,0.742,0.063,1c0.294,0.259,0.742,0.23,1.001-0.063l6.166-7
		c0.258-0.293,0.23-0.742-0.064-1C142.08,96.264,141.632,96.292,141.373,96.586z"/>
	<path d="M144.191,98.938l-7.667,9.333c-0.248,0.302-0.204,0.749,0.098,0.997c0.303,0.248,0.749,0.205,0.998-0.098l7.667-9.333
		c0.248-0.302,0.204-0.749-0.098-0.997C144.887,98.592,144.44,98.636,144.191,98.938z"/>
	<path d="M144.747,104.711l-4.834,4.667c-0.281,0.272-0.289,0.72-0.018,1.002c0.271,0.282,0.721,0.29,1.002,0.018l4.834-4.667
		c0.281-0.272,0.289-0.72,0.018-1.002C145.478,104.447,145.028,104.439,144.747,104.711z"/>
</g>
</svg>
