<?xml version="1.0" encoding="iso-8859-1"?>
<!-- Generator: Adobe Illustrator 19.1.0, SVG Export Plug-In . SVG Version: 6.00 Build 0)  -->
<svg version="1.1" id="&#xB808;&#xC774;&#xC5B4;_1" xmlns="http://www.w3.org/2000/svg" xmlns:xlink="http://www.w3.org/1999/xlink"
	 x="0px" y="0px" viewBox="0 0 153.071 238.11" style="enable-background:new 0 0 153.071 238.11;" xml:space="preserve">
<rect style="fill:#E60012;" width="153.071" height="238.11"/>
<g>
	<path style="fill:#FFFFFF;" d="M6.823,18.836v201.667c0,0,0.167,10.167,11.333,10.5h92.833l27-61.833l5.5-59.833l-1.167-49.5
		l-8.833-45.833l-21.5-7.167L18.323,6.754C18.323,6.754,6.156,5.336,6.823,18.836z"/>
	<path style="fill:#FDD000;" d="M17.698,70.503c0,0-9.875-7.625-10.875-12v-13c0,0,1.5,1.25,2.375,1.625s2.25,0,3.25,1.375
		s1,3.125,0.25,4.5s-0.125,4.5,0.375,5.625s3.25,5.875,6.375,8.375c0,0-1-7.75-1.875-10.5s-2.5-5.625-3.125-6s-2.25-2.875-3.5-4.75
		s-1.75-6-1.75-7.5s0.5-2,1.375-2.25s2.625,0,3.25,0.25s0.75,0.75,0.625,1.375s-0.5,3.125-0.375,4.625s1.25,2.875,1.25,2.875
		s0.25,0.25,0.75-0.5s0.875-1.875,2.375-2.25s2,0.25,2.375,1.25s0.833,2.791,0.333,2.791s-1.917,0.917-2.583,2.084
		c-0.667,1.166,0.833,3.499,1.417,4.166c0.583,0.667,1.5,0.334,2.25,0.084s2.333-0.917,2.333-0.917s0.417-0.417,1.167,0.75
		c0.75,1.167,0.667,2.167,0.167,3.167s-2.25,2.75-2.417,4.25s2.083,7.167,2.333,7.333c0.25,0.167,0.75-0.25,3.667,0.25
		s7.167,3.084,10.5,5.75c3.333,2.667,7.417,4.416,8.667,5.083c1.25,0.667,3.583,1.417,4.083,2.334c0.5,0.916,0.5,2.833-0.25,3.333
		s-1,1.167-1.083,1.5c-0.083,0.333-0.917,2.584-2.333,3.5c-1.417,0.917-3.833,0.666-4.583,0.583c-0.75-0.083-7,0.25-9.417,0.584
		c-2.417,0.333-5.583,2.499-7,4.416c-1.417,1.917-2.583,5.167-1.917,8.334c0.667,3.166,6,7.667,12.417,8.833
		c6.417,1.167,13.5-0.166,19.167-2.5c5.667-2.333,8.917-4.75,15.167-5.25s14.25-0.166,21.5,3.5c7.25,3.667,11.751,6.25,13.834,7.083
		c2.083,0.834,3.75,0.834,3.75,0.834s0.75,1.167,1,1.583c0.25,0.417-0.167,1.417-0.167,1.417s-6.417,3.916-7.167,4.25
		c-0.75,0.333-1.666,0.667-1.583,1.083c0.083,0.417,1.916,7.251,2.333,10.833c0.417,3.583-0.416,12.332-2.333,17.166
		c-1.917,4.834-4.333,8.834-4.333,8.834s-0.333,0.583,0,1.583s1.833,5.667,2.083,6.417s-0.001,1.5-0.417,2.25
		s-3.249,6.084-4.166,7.25c-0.917,1.166-3.166,7.417-4.25,10.25c-1.084,2.833-3.418,14.166-3.584,15.666s-0.5,5.584-0.5,5.584
		s0.5,0.75-0.25,0.75s-7.25,0.416-7.25,0.416s-0.25-0.334-0.083-1c0.166-0.666,1.749-7.832,2.583-10.166
		c0.834-2.334,4.168-13.418,4.834-16.084c0.666-2.666,0.833-7.832,0.833-8.166c0-0.334-0.75-1.083-1-1
		c-0.25,0.083-3.417,2.584-4.25,4.25c-0.833,1.666-2.084,9.084-2.25,11.25c-0.167,2.166-1,10.582-1,10.916
		c0,0.334-0.334,2.25-0.334,2.25s0.167,1.25-0.833,1.25c-1,0-7.25,0.25-7.25,0.25s-2,0.251-1.5-0.666
		c0.5-0.917,0.833-1.834,0.833-1.834s2.333-4.334,2.75-6c0.417-1.666,2.917-13.916,3.334-16.416c0.416-2.5,0.999-7,0.916-9
		s-1.5-6.084-3.416-7.584c-1.917-1.5-8.417-7.916-8.417-7.916l-4.167-3.75c0,0-10.833,3.083-19,4.083l-1.833,0.25l-0.167,0.833
		c0,0,0.667,4.667,0.167,7.667s-3,9.334-3.417,10.917c-0.417,1.583-2.416,7.834-2.583,10.75c-0.167,2.916,0,6.667,0.583,10
		c0.583,3.333,2.333,11.499,2.5,12.166c0.167,0.667,0.5,4.084,0.583,5.834s-1,3.333-1,3.333l-4.75,0.25l-2.75,0.167
		c0,0-0.083-0.834-0.25-1.834s0.833-5.667,0.917-6c0.083-0.333,0.417-4.166,0-6.083c-0.417-1.917-3.25-9.75-3.417-10.25
		s-2.833-6-2.833-6s-1.917,4.583-2.25,6.75c-0.333,2.167-0.667,12.833-0.667,15.333s-0.333,5.834-0.333,5.834
		s-0.083,1.083-0.833,1.333s-4.833,0.417-4.833,0.417h-3.5c0,0,2.167-5.166,2.5-7c0.333-1.834,1.167-9.5,1.167-11.417
		c0-1.917,0.333-8.5-0.167-10s-2.25-9.833-2.75-13.833s-1.75-17.167,1.083-22.417c0,0-2.917-3.999-3.583-6.083
		c-0.667-2.084-1-4.001-1.333-4.834c-0.333-0.833-2.667-7.749-2.917-8.916c-0.25-1.167-0.666-4-0.666-4l0.083-18.5L6.656,96.253
		c0,0,0.75-1.75,1.25-2.417c0.5-0.667,0.916-0.75,0.833-1.167c-0.083-0.416-0.333-2,0-4.083c0.333-2.083,2.5-2.833,2.5-2.833
		s-0.167-1-0.167-1.5s-0.083-1.917,0.833-3.25c0.917-1.334,2.833-2.334,2.833-2.334s-1.75-0.5-2.833-1.083
		c-1.083-0.583-2.917-2.417-2.917-2.417s-0.333-0.416,0.083-1.166s3.583-2.084,5.167-2.25c1.583-0.167,2.25-0.25,2.25-0.25
		L17.698,70.503z"/>
	<path style="fill:#FDD000;" d="M57.073,22.003c0,0,4.375,4.25,4.75,7.125c0,0,1-1.875,2-2.125s12,1.875,12.375,2.125
		s4-5.625,4.125-8.75c0,0,4.5-0.375,7.875-2.5s7.625-4.75,9.25-5.375c0,0-2-0.375-3.125-1.25s-5-4.25-6.5-4.5h-29.25
		c0,0,0.625,1,1.875,1.125c1.25,0.125,3.625,1.125,3.625,1.125s-1.5,2.125-1.75,3.25s-0.625,4-1.75,5.75
		S57.073,22.003,57.073,22.003z"/>
	<path style="fill:#FDD000;" d="M118.948,7.253c0,0,7.125,19,7.625,21.125s3.375,12.25,3.375,12.25s1.375,1.875,1.875,2.25
		s4,2.25,4,2.25s-2.375,2.125-3.125,3.25s-1.125,2.375-1.125,2.375s1.875,11.875,2.5,13.875s1.875,4.75,2.875,7.125
		s-0.875,34.5-0.875,34.5l-11.375,5.875l-3.75,3.625l-5.5,1.875h-2.75l-2.125,1.875c0,0,1.25,3.625,4.5,7.375
		c0,0-2.5,1.5-3.75,4.125s-2.25,8.5-2.25,8.5l-0.75,4.25c0,0,3,0.75,4.75,1.25s6.5,0.625,8.25-0.75c0,0,0.75,4.25,2.5,6.25
		l-0.125,0.875c0,0-6.625,14.625-7.375,16.25s-9.125,21-10.625,24.125s-7,17.375-8.75,19.5s-7.75,10.375-10.25,12.625
		s-9.5,6.625-9.5,6.625s-0.125,0.375,1.75,0.375s38.5-0.25,38.5-0.25s-5.75-3.375-8.75-5.625s-7.75-7.25-7.75-7.25
		s-0.875-0.625,0-1.125s3.625-2.875,4.375-3.625s8.25-5.875,9-6.375s1.25-1.375,1.5-2.125s4.375-9.375,5.5-11.5s2.5-4.125,2.5-4.125
		s0.75,0.125,1.125,0.375s8.25,3.75,8.25,3.75l11.5-14l1.875-17v-36.25l-0.125-54.125v-52.75c0,0,0-6.375-2.125-8.5
		s-4.375-3.125-8.25-3.5s-16.875,0-16.875,0"/>
	<path style="fill:#E60012;" d="M25.823,7.169c0,0-0.5,3.333,1.167,5c0,0-2.167-0.416-3.792-0.541s-4.125,1.375-4.75,2
		s-5.875,4-9.25,3.875c0,0,1,1.125,1.75,1.75s1.375,1.75,1.5,2.625s1.375,5.5,3.75,8.5s7.125,4,7.125,4s0,4.25,0.125,5.75
		s1,4.625,2.375,6.375s3.375,4.25,3.375,5.5c0,0,1.5-1.875,3.75-3s6.5-1.25,8.75-2.25s8.625-5.5,8.625-5.5l12.5-6.875l-0.625-5.375
		c0,0-3.125-5.75-4.25-6.875c0,0,2-2.875,2.875-4.625s1.75-6.75,3.625-8.375c0,0-3.625-0.75-4.75-1.375s-2.125-0.875-2.125-0.875
		L25.823,7.169z"/>
	<path style="fill:#E60012;" d="M88.823,34.003c0,0,0-2.75,0.5-5.25s1.125-6.375,1.125-6.375l0.5-0.25c0,0,3.625,1,5.375,1.375
		s8.875,3.5,10.75,4.875l6.25-3.375l5.125-2l2.625-0.125l0.75,2.625c0,0,3.375,4.5,3,13.75c0,0,2.5,0.5,5,2.125s4.625,3.25,6,3.75
		c0,0-2.75,1.75-3.125,3.25s-4.375,5.625-5.875,6.125l-0.25,7c0,0,3,1.75,3.625,2.375s1.375,1.375,1.375,1.375s-1,3.125-1.25,3.875
		s-3.375,4.875-6,5.375c0,0,3.5,7.375,2.375,11.25s-16.875,10-16.875,10s-4.25,0-6.5-1c0,0-0.625,3.625-2,5.125s-4.5,4-4.75,4.5
		c0,0-2.25-1.875-3.875-2.875s-7.75-7.25-8.25-11.5c0,0-3,1.375-7,1s-7.125-1-8.625-1.125c0,0,0.375-2.25,0.5-4.375
		s1.125-7.125,3.125-9.875s7.875-19.5,7.875-19.5L88.823,34.003z"/>
	<path style="fill:#E60012;" d="M132.698,192.753c0,0-3.625-1.875-5.25-2.5s-3.25-1.625-3.25-1.625s-2.875,4.125-3.875,6
		s-4.875,10.875-4.875,10.875s-0.75,1.125-1.125,1.125s-3.75,2.625-6.375,4.5s-7,5.5-7.375,5.5s-0.625,0.375,0.375,1.125
		s4.25,3.375,5,4.375s9.125,7.625,12.5,8.75l16.875,0.25c0,0,4.875-0.25,7.5-2.5s3.375-4.375,3.5-7.375s-0.125-27.625-0.125-27.625
		l-5.375-0.375L132.698,192.753z"/>
	<path d="M16.744,6.294c-5.861,0-10.63,4.769-10.63,10.63v204.158c0,5.861,4.769,10.63,10.63,10.63h119.658
		c5.861,0,10.63-4.769,10.63-10.63V16.924c0-5.861-4.769-10.63-10.63-10.63H16.744z M7.531,221.082V16.924
		c0-5.08,4.133-9.213,9.213-9.213h119.658c5.08,0,9.212,4.133,9.212,9.213v204.158c0,5.08-4.132,9.212-9.212,9.212H16.744
		C11.664,230.294,7.531,226.162,7.531,221.082z"/>
	<path d="M13.339,71.311c-4.076,0.886-5.394,2.894-5.447,2.979L7.64,74.684l0.264,0.386c0.095,0.139,2.381,3.415,6.779,4.294
		c4.188,0.837,7.5,0.847,7.639,0.847l0,0c0.391,0,0.708-0.317,0.708-0.708c0,0,0,0,0,0c0-0.391-0.317-0.709-0.708-0.709
		c-0.033,0-3.32-0.012-7.362-0.82c-2.936-0.587-4.815-2.436-5.541-3.276c0.525-0.515,1.757-1.467,4.219-2.003
		c3.572-0.776,8.372,1.113,8.42,1.132c0.363,0.145,0.775-0.032,0.92-0.396c0.146-0.363-0.031-0.775-0.395-0.921
		C22.374,72.427,17.338,70.441,13.339,71.311z"/>
	<path d="M22.06,67.345c-2.562,1.025-6.184,3.813-6.336,3.931c-0.31,0.239-0.367,0.684-0.127,0.994
		c0.239,0.31,0.684,0.367,0.994,0.127c0.036-0.027,3.619-2.785,5.997-3.736c2.833-1.134,7.851-1.267,12.665,2.09
		c5.97,4.161,9.783,6.732,11.612,7.563l1.092,0.47c1.608,0.676,4.038,1.697,4.356,2.755c0.481,1.604-0.609,2.267-1.101,2.478
		c-0.646,0.277-2.287,0.443-4.387,0.443c-0.392,0-0.708,0.317-0.708,0.708c0,0.392,0.317,0.709,0.708,0.709
		c1.361,0,3.814-0.072,4.946-0.557c1.699-0.728,2.444-2.372,1.899-4.188c-0.51-1.699-3.09-2.784-5.164-3.655l-1.055-0.454
		c-1.723-0.783-5.635-3.426-11.388-7.437C29.256,64.845,23.204,66.887,22.06,67.345z"/>
	<path d="M50.786,84.581c-0.075,0.595-0.427,2.336-1.142,3.229c-0.742,0.928-2.101,1.109-4.197,1.109
		c-1.871,0-8.221,0.355-11.514,1.014c-3.392,0.678-7.463,4.607-8.54,8.244c-1.098,3.705,1.116,9.328,6.72,12.326
		c5.867,3.138,13.966,3.625,21.664,1.304c2.906-0.877,5.368-2.017,7.749-3.12c4.103-1.9,7.979-3.695,13.566-3.851
		c8.205-0.228,16.029,1.759,23.253,5.906c6.697,3.845,9.551,5.273,12.217,5.629c1.795,0.239,2.127,0.517,2.192,0.689
		c-0.533,0.796-4.513,3.835-9.224,5.962l-0.608,0.275l0.238,0.624c0.028,0.073,2.646,7.006,2.646,14.189
		c0,0.398-0.009,0.796-0.025,1.193c-0.333,7.837-3.708,15.436-6.231,20.489c-0.189,0.232-0.893,1.159-0.893,2.259
		c0,0.293,0.052,0.596,0.181,0.896c0.488,1.138,1.981,5.121,2.303,6.248c0.029,0.102,0.042,0.217,0.042,0.342
		c0,0.885-0.654,2.284-1.095,2.872c-0.672,0.896-4.775,7.046-6.767,12.689c-2.042,5.786-4.375,16.367-4.703,19.324
		c-0.334,3.004-0.338,5.314-0.338,5.411c0,0,0.008,0.094,0.01,0.107c-0.051,0.007-0.135,0.018-0.135,0.018s-4.752,0.113-6.119,0.145
		c0.423-1.975,1.517-6.963,2.298-9.566l0.862-2.685c1.818-5.557,5.172-15.806,5.172-20.591c0-0.097-0.002-0.191-0.005-0.283
		c-0.164-5.44-2.139-9.606-3.903-11.175c-2.099-1.865-6.541-6.379-8.332-10.11c-1.565-3.261-3.607-8.475-3.607-16.524
		c0-0.324,0.003-0.653,0.01-0.987c0-0.005,0-0.01,0-0.015c0-0.385-0.308-0.7-0.694-0.708c-0.392-0.009-0.715,0.303-0.723,0.693
		c-0.182,8.916,2.045,14.631,3.736,18.154c1.888,3.935,6.496,8.625,8.668,10.556c1.289,1.146,3.267,4.798,3.429,10.159
		c0.133,4.404-3.4,15.201-5.098,20.39l-0.873,2.718c-0.997,3.324-2.453,10.266-2.515,10.559l-0.183,0.875l7.876-0.187
		c0.68,0,1.053-0.282,1.247-0.518c0.393-0.479,0.304-1.054,0.282-1.164l0.014,0.139c0-0.023,0.004-2.333,0.328-5.255
		c0.322-2.902,2.618-13.307,4.631-19.01c1.929-5.463,6.015-11.576,6.565-12.31c0.314-0.42,1.376-2.195,1.376-3.723
		c0-0.253-0.029-0.498-0.095-0.73c-0.341-1.192-1.851-5.224-2.363-6.418c-0.046-0.107-0.065-0.224-0.065-0.343
		c0-0.559,0.43-1.197,0.615-1.413l0.058-0.067l0.041-0.08c2.585-5.171,6.062-12.985,6.408-21.121
		c0.019-0.428,0.026-0.854,0.026-1.28c0-6.305-1.878-12.215-2.521-14.056c4.34-2.059,9.495-5.548,9.495-6.861
		c0-1.451-1.32-1.918-3.449-2.203c-2.432-0.324-5.18-1.711-11.699-5.454c-7.453-4.279-15.527-6.329-23.997-6.094
		c-5.879,0.164-9.883,2.018-14.122,3.981c-2.336,1.082-4.752,2.201-7.563,3.048c-7.347,2.216-15.043,1.769-20.586-1.196
		c-4.967-2.657-6.966-7.513-6.029-10.674c0.916-3.092,4.611-6.686,7.459-7.256c3.068-0.614,9.31-0.986,11.236-0.986
		c2.103,0,4.091-0.125,5.303-1.641c1.112-1.391,1.429-3.835,1.441-3.938c0.048-0.388-0.227-0.742-0.615-0.791
		C51.189,83.918,50.835,84.193,50.786,84.581z"/>
	<path d="M62.958,151.366c-0.259,0.293-0.233,0.74,0.06,0.999l0.479,0.425c7.026,6.217,11.092,10.071,12.082,11.458
		c1.544,2.161,2.868,6.713,2.868,8.922c0,2.179-3.436,18.988-4.312,22.494c-0.798,3.193-3.891,8.425-3.922,8.478l-0.649,1.093
		l10.425-0.189c1.348,0,1.709-1.808,1.709-2.875l0.124-1.308l0.375-4.148c0.23-3.691,1.287-14.86,3.059-17.666
		c1.866-2.956,4.54-4.404,4.566-4.419c0.346-0.184,0.477-0.613,0.293-0.958c-0.183-0.346-0.611-0.478-0.956-0.294
		c-0.123,0.064-3.026,1.626-5.103,4.915c-2.336,3.7-3.266,18.188-3.274,18.334l-0.501,5.544c0,0.576-0.179,1.309-0.35,1.458
		c-0.1,0.002-6.024,0.11-7.874,0.143c0.979-1.756,2.827-5.257,3.454-7.764c0.85-3.4,4.354-20.377,4.354-22.838
		c0-2.479-1.368-7.277-3.132-9.746c-1.067-1.494-5.09-5.319-12.296-11.695l-0.477-0.422
		C63.667,151.047,63.218,151.073,62.958,151.366z"/>
	<path d="M39.441,145.161c-0.301,0.096-0.494,0.375-0.494,0.675c0,0.071,0.011,0.143,0.034,0.216
		c0.025,0.077,2.472,7.81,2.633,13.638c0.006,0.202,0.008,0.403,0.008,0.605c0,5.339-1.919,10.42-2.968,13.197l-0.162,0.43
		c-0.536,1.43-3.212,8.87-3.212,14.915c0,4.517,1.301,10.017,2,12.974l0.349,1.509c0.524,2.446,1.503,8.624,1.503,10.322
		c0,0.111-0.004,0.204-0.013,0.275l-0.075,0.709c-0.057,0.586-0.175,1.791-0.418,2.005c-0.143,0.006-4.991,0.217-6.886,0.299
		c0.068-1.132,0.217-3.262,0.448-4.642l0.132-0.762c0.247-1.398,0.557-3.161,0.557-4.995c0-0.767-0.054-1.546-0.19-2.316
		c-0.517-2.931-3.523-11.436-4.217-12.998l-0.374-0.788c-0.662-1.357-1.698-3.486-1.698-5.599c0-0.395,0.036-0.79,0.118-1.18
		c0.682-3.238,0.682-8.723,0.682-16.312c0-7.515-2.584-16.485-2.694-16.864c-0.109-0.375-0.503-0.592-0.878-0.482
		c-0.376,0.109-0.592,0.503-0.483,0.879c0.026,0.091,2.639,9.158,2.639,16.468c0,7.504,0,12.927-0.651,16.021
		c-0.62,2.943,0.828,5.915,1.693,7.691l0.353,0.743c0.659,1.483,3.626,9.892,4.116,12.668c0.417,2.367-0.037,4.94-0.367,6.819
		l-0.134,0.775c-0.337,2.018-0.502,5.438-0.509,5.583l-0.037,0.775l8.412-0.367c1.481,0,1.665-1.898,1.799-3.284l0.071-0.67
		c0.19-1.515-1.055-8.943-1.51-11.069l-0.355-1.538c-0.686-2.899-1.963-8.296-1.963-12.647c0-5.801,2.601-13.027,3.122-14.417
		l0.161-0.427c1.043-2.761,3.212-8.506,3.051-14.342c-0.167-6.031-2.597-13.706-2.7-14.03
		C40.212,145.248,39.813,145.042,39.441,145.161z"/>
	<path d="M6.862,128.973c-0.385,0.07-0.64,0.438-0.57,0.824c0.069,0.378,1.7,9.297,3.064,12.023l0.675,1.828
		c1.386,4.159,4.27,12.812,15.013,14.554c0.386,0.062,0.75-0.199,0.813-0.586c0.062-0.386-0.2-0.75-0.586-0.812
		c-9.896-1.605-12.497-9.41-13.895-13.604l-0.751-2.014c-1.273-2.547-2.92-11.553-2.937-11.643
		C7.617,129.158,7.248,128.902,6.862,128.973z"/>
	<path d="M73.932,145.412c-12.034,7.969-31.797,9.536-31.996,9.551c-0.39,0.029-0.683,0.37-0.653,0.76
		c0.029,0.391,0.369,0.684,0.76,0.654c0.824-0.063,20.326-1.608,32.671-9.783c0.327-0.216,0.416-0.655,0.2-0.982
		C74.698,145.285,74.258,145.196,73.932,145.412z"/>
	<path d="M14.497,151.91c-0.091,0.23-2.217,5.749-1.882,15.45c0.211,6.116,1.625,12.761,2.657,17.612
		c0.624,2.934,1.117,5.251,1.177,6.562c0.162,3.555-0.317,13.133-0.826,16.529c-0.481,3.205-2.926,8.935-2.951,8.992l-0.436,1.016
		l1.105-0.028c0.671-0.017,6.579-0.172,7.599-0.342c1.393-0.232,2.258-1.012,2.258-2.032v-4.334c0-1.118,0.502-14.574,1.308-17.477
		l1.995-6.817c-0.11,0.376-0.501,0.584-0.877,0.474c-0.375-0.109-0.589-0.511-0.479-0.886l-2.005,6.851
		c-0.857,3.085-1.359,16.675-1.359,17.856v4.334c0,0.264-0.452,0.53-1.075,0.634c-0.606,0.102-3.786,0.221-6.311,0.294
		c0.743-1.834,2.242-5.745,2.629-8.322c0.448-2.988,0.873-10.679,0.873-15.038c0-0.681-0.01-1.279-0.032-1.767
		c-0.065-1.429-0.569-3.796-1.207-6.793c-1.021-4.8-2.42-11.374-2.627-17.366c-0.023-0.675-0.034-1.329-0.034-1.962
		c0-8.173,1.799-12.87,1.819-12.921c0.033-0.085,0.049-0.172,0.049-0.258c0-0.283-0.17-0.551-0.45-0.66
		C15.051,151.368,14.64,151.546,14.497,151.91z"/>
	<path d="M6.932,44.164c-0.372,0.124-0.572,0.525-0.448,0.896c0.394,1.183,2.645,3.555,4.122,3.308
		c0.608-0.101,1.297,0.495,1.536,1.33c0.326,1.142,0.236,2.145-0.3,3.351c-0.76,1.709-0.126,4.688,1.695,7.965
		c1.687,3.036,6.234,8.084,6.427,8.298c0.262,0.291,0.71,0.313,1.001,0.051c0.29-0.262,0.313-0.71,0.051-1.001
		c-0.046-0.051-4.631-5.142-6.239-8.036c-1.559-2.805-2.202-5.435-1.639-6.701c0.674-1.516,0.788-2.847,0.367-4.316
		c-0.445-1.557-1.791-2.562-3.131-2.337c-0.49,0.059-2.25-1.478-2.544-2.358C7.705,44.241,7.303,44.041,6.932,44.164z"/>
	<path d="M6.501,57.538c-0.349,0.178-0.487,0.604-0.31,0.953c4.382,8.595,11.01,12.312,11.29,12.466
		c0.343,0.189,0.774,0.064,0.962-0.279c0.189-0.342,0.064-0.773-0.278-0.962c-0.065-0.036-6.536-3.68-10.711-11.868
		C7.276,57.499,6.85,57.36,6.501,57.538z"/>
	<path d="M10.835,35.311C8.324,35.87,8.269,38.377,8.96,41.97c0.701,3.647,1.881,5.188,2.828,6.426l0.611,0.833l0.928,1.208
		c1.174,1.444,2.781,3.422,3.642,6.743c1.145,4.414,2.143,10.703,2.152,10.766c0.061,0.387,0.424,0.651,0.811,0.59
		c0.387-0.061,0.65-0.424,0.59-0.811c-0.01-0.064-1.019-6.419-2.181-10.901c-0.939-3.62-2.73-5.823-3.915-7.281l-0.848-1.101
		l-0.665-0.909c-0.902-1.178-1.924-2.513-2.562-5.832c-0.891-4.634,0.121-4.859,0.791-5.008c0.987-0.22,2.216-0.088,2.684,0.287
		c0.121,0.097,0.121,0.156,0.121,0.188l-0.273,1.708c-0.185,0.848-0.394,1.809-0.394,2.792c0,1.399,0.679,2.631,1.175,3.531
		l0.376,0.732c0.211,0.529,0.609,0.604,0.77,0.612c0.594,0.029,0.852-0.471,1.21-1.163c0.305-0.591,0.723-1.401,1.271-1.812
		c0.449-0.337,0.824-0.477,1.114-0.415c0.411,0.087,0.775,0.606,1.008,1.026c0.56,1.007,0.625,1.462,0.625,1.62
		c0,0.012-0.001,0.009-0.001,0.018c-1.177,0.25-2.835,1.817-3.039,3.251c-0.014,0.096-0.02,0.198-0.02,0.305
		c0,1.172,0.778,2.968,1.524,3.828c0.389,0.448,0.792,0.675,1.197,0.675c0.928,0,3.361-0.794,4.318-1.585
		c0.222,0.221,0.554,0.851,0.654,1.348c0.064,0.322,0.118,0.587,0.118,0.855c0,0.41-0.125,0.826-0.524,1.464L24.629,56.5
		c-0.708,0.834-1.764,2.078-1.764,4.279c0,1.643,0.588,3.818,2.35,6.754c0.201,0.336,0.636,0.444,0.972,0.243
		c0.335-0.202,0.444-0.637,0.243-0.973c-3.599-5.997-1.797-8.119-0.72-9.387l0.547-0.706c0.958-1.533,0.78-2.419,0.608-3.276
		c-0.104-0.52-0.654-2.258-1.712-2.578c-0.417-0.126-0.842-0.012-1.165,0.311c-0.484,0.483-2.661,1.248-3.431,1.281
		c-0.482-0.271-1.376-2.143-1.376-3.034c0-0.052,0.003-0.101,0.01-0.146c0.123-0.863,1.406-1.965,1.937-2.072
		c0.455-0.091,0.805-0.354,0.983-0.74c0.09-0.196,0.137-0.414,0.137-0.66c0-0.586-0.263-1.329-0.806-2.306
		c-0.555-0.998-1.193-1.562-1.952-1.724c-0.708-0.151-1.468,0.074-2.26,0.667c-0.727,0.545-1.188,1.375-1.545,2.059
		c-0.443-0.804-0.988-1.799-0.988-2.825c0-0.832,0.184-1.675,0.362-2.491l0.305-2.009c0-0.505-0.225-0.952-0.651-1.293
		C13.799,35.142,12.071,35.037,10.835,35.311z"/>
	<path d="M27.305,76.048c-0.104,0.084-0.157,0.206-0.157,0.33c0,0.039,0.029,0.074,0.04,0.113c-0.166-0.048-0.347-0.013-0.457,0.134
		c-0.14,0.189-0.101,0.454,0.087,0.595c0.068,0.051,1.691,1.25,3.596,2.012c1.618,0.647,3.059,0.272,3.921,0.048l0.456-0.105
		l0.281-0.027c0.603-0.052,1.429-0.124,1.829-0.668c0.136-0.185,0.276-0.507,0.169-0.985c-0.304-1.368-1.705-2.996-4.653-3.083
		C29.462,74.325,27.391,75.978,27.305,76.048z M27.84,76.708c0.019-0.015,1.922-1.524,4.554-1.447
		c3.171,0.093,3.761,2.03,3.847,2.417c0.045,0.202-0.008,0.274-0.025,0.297C36.044,78.21,35.391,78.267,35,78.3l-0.313,0.031
		l-0.564,0.126c-0.76,0.197-2.033,0.528-3.392-0.016c-1.318-0.527-2.511-1.292-3.068-1.67C27.724,76.757,27.788,76.75,27.84,76.708z
		"/>
	<path d="M33.573,75.086c0,0-1.333,0.333-1.583,1.583s0.667,2.334,1.917,2.334s2.5-0.251,2.667-1.084
		C36.739,77.086,35.656,75.253,33.573,75.086z"/>
	<path d="M50.406,82.003c0,0-0.167-0.834-0.917-0.834s-1.083,0.334-1.083,0.834s-0.083,0.666,0.917,0.666
		S50.406,82.503,50.406,82.003z"/>
	<path d="M25.48,6.958c-0.021,0.066-0.29,0.953-0.29,2.137c0,0.596,0.117,1.267,0.32,1.947c-1.594-0.24-4.301-0.31-6.608,1.391
		c-3.039,2.239-6.612,4.528-10.08,4.528h-2.63l2.275,1.321c0.807,0.469,2.979,2.021,3.332,3.546
		c1.646,7.162,5.332,11.542,10.941,13.173c-0.032,0.472-0.069,1.196-0.069,2.162c0,1.248,0.063,2.838,0.283,4.594
		c0.297,2.378,1.934,4.552,3.378,6.472c1.058,1.406,2.057,2.734,2.118,3.655l0.108,1.624l1.116-1.187
		c0.023-0.025,2.379-2.508,4.622-2.957l0.802-0.15c3.34-0.61,11.164-2.038,15.275-7.098c0.247-0.304,0.201-0.75-0.103-0.997
		c-0.304-0.247-0.75-0.201-0.997,0.103c-3.782,4.653-11.244,6.016-14.431,6.597l-0.825,0.155c-1.79,0.358-3.514,1.672-4.51,2.554
		c-0.426-0.975-1.183-2.007-2.044-3.151c-1.337-1.778-2.854-3.793-3.104-5.795c-0.21-1.675-0.269-3.208-0.269-4.41
		c0-1.571,0.102-2.577,0.104-2.595l0.064-0.612l-0.597-0.149c-5.387-1.347-8.906-5.453-10.458-12.206
		c-0.333-1.442-1.534-2.674-2.542-3.497c3.234-0.597,6.371-2.541,9.082-4.539c2.828-2.083,6.66-0.907,6.698-0.895l1.814,0.573
		l-0.996-1.62c-1.142-1.856-0.434-4.229-0.427-4.253c0.115-0.374-0.094-0.77-0.467-0.886C25.992,6.378,25.596,6.585,25.48,6.958z"/>
	<path d="M48.489,36.836c0,0,1,3.166,1.167,4.333c0.167,1.167,1.5,5.667,5,9.834c0,0-2.833,3-3.833,7.5s-1.333,10.499-2.167,12.166
		c0,0,4.333-1.833,7.5-1.833s6.667-1.667,7.167-2.833c0,0,0.999,4.833,5.666,8.333s6.334,5.5,6.334,5.5s2.5-4.167,4-6.167
		s4.166-5,4.333-8.5c0,0,2.666,0,6-1.333c3.334-1.333,6.334-1.333,6.334-1.333s-1.168-3.167-1.334-4.5
		c-0.166-1.334-2.334-7.167-4-8.334c0,0,4-3.333,4.667-6.833s2.667-6.667,3.5-7.833c0,0-3.999-0.333-6.333-1.167
		c-2.334-0.833-9.001-0.833-12.001,0.5c0,0-1.333-4.5-4.666-6.167c-3.334-1.666-7.667-4.333-8.334-6.166
		c0,0-1.499,2.666-3.333,3.666c-1.833,1-4,4.167-3,7.834c0,0-3,0.666-5.167,1.666S51.322,37.67,48.489,36.836z"/>
	<path d="M57.484,7.279c-0.025,0.074-0.037,0.15-0.037,0.224c0,0.297,0.188,0.573,0.485,0.672c1.396,0.465,3.963,0.991,5.504,1.289
		c-1.483,2.047-2.693,5.931-2.96,6.839c-0.768,2.612-3.612,5.324-3.641,5.351l-0.569,0.539l0.593,0.512
		c3.424,2.957,4.259,7.218,4.267,7.261c0.072,0.384,0.442,0.638,0.827,0.566c0.341-0.064,0.579-0.361,0.579-0.696
		c0-0.042-0.004-0.086-0.012-0.129c-0.034-0.184-0.865-4.308-4.196-7.542c0.926-0.972,2.842-3.181,3.513-5.463
		c1.043-3.547,2.457-6.533,3.362-7.099l1.56-0.975l-1.811-0.324c-0.046-0.008-4.639-0.832-6.567-1.475
		C58.009,6.707,57.608,6.908,57.484,7.279z"/>
	<path d="M36.386,6.682c-0.273,0.113-0.438,0.377-0.438,0.655c0,0.09,0.018,0.182,0.054,0.27c0.028,0.068,2.539,6.231,2.539,12.273
		c0,0.611-0.029,1.22-0.086,1.822c-0.05,0.151-0.407,1.221-0.447,1.34c-0.542,0.92-7.394,12.721-7.559,22.282
		c0,0.004,0,0.008,0,0.013c0,0.385,0.309,0.701,0.696,0.708c0.391,0.007,0.714-0.305,0.721-0.696
		c0.162-9.363,7.328-21.528,7.401-21.65l0.039-0.066l0.55-1.648l0.007-0.08c0.677-6.929-2.418-14.52-2.55-14.839
		C37.162,6.704,36.748,6.532,36.386,6.682z"/>
	<path d="M58.781,12.068l-1.255,0.808c-2.672,1.731-8.233,5.334-11.342,6.821c-3.387,1.62-10.376,1.963-15.332,1.764
		c-4.054-0.163-14.928-2.625-15.038-2.649c-0.382-0.087-0.762,0.152-0.848,0.534c-0.087,0.382,0.152,0.762,0.534,0.848
		c0.452,0.103,11.112,2.516,15.295,2.684c1.853,0.074,11.331,0.332,16-1.902c3.192-1.526,8.804-5.162,11.501-6.91l1.236-0.795
		c0.329-0.212,0.432-0.655,0.22-0.984C59.541,11.957,59.11,11.856,58.781,12.068z"/>
	<path d="M38.293,21.532c-0.26,0.292-0.233,0.74,0.059,1c0.188,0.167,4.657,4.111,9.072,5.64l4.08,1.232
		c2.988,0.838,5.81,1.629,7.898,3.168c0.315,0.232,0.759,0.165,0.991-0.15c0.232-0.315,0.165-0.759-0.15-0.991
		c-2.297-1.693-5.24-2.518-8.357-3.392l-3.998-1.208c-4.145-1.435-8.551-5.321-8.595-5.36C39.001,21.213,38.553,21.24,38.293,21.532
		z"/>
	<path d="M87.979,7.291c-0.021,0.07-0.032,0.142-0.032,0.212c0,0.302,0.194,0.581,0.497,0.676c2.023,0.632,2.768,1.332,3.713,2.217
		l0.699,0.64c0.748,0.655,1.701,1.234,2.459,1.652c-1.514,0.9-4.032,2.544-6.404,4.238c-3.288,2.349-8.578,2.7-8.631,2.703
		l-0.593,0.037l-0.068,0.59c-0.469,4.063-4.132,8.411-4.169,8.455c-0.113,0.133-0.169,0.297-0.169,0.459
		c0,0.201,0.084,0.4,0.249,0.54c0.298,0.253,0.745,0.218,0.999-0.08c0.155-0.182,3.627-4.337,4.383-8.635
		c1.479-0.149,5.791-0.749,8.823-2.915c3.592-2.566,6.888-4.578,7.317-4.74l1.581-0.597l-1.514-0.717
		c-0.021-0.009-2.092-0.973-3.33-2.056l-0.664-0.607c-0.99-0.929-1.926-1.807-4.258-2.536C88.494,6.71,88.096,6.918,87.979,7.291z"
		/>
	<path d="M67.394,9.453c-0.263,0.409-6.444,10.093-6.613,18.035c-0.008,0.391,0.302,0.715,0.693,0.724
		c0.392,0.008,0.715-0.302,0.724-0.693c0.133-6.281,4.424-14.016,5.892-16.485c1.096,1.496,3.665,6.049,5.87,17.933
		c0.071,0.385,0.441,0.639,0.826,0.567c0.385-0.071,0.639-0.441,0.567-0.826c-3.015-16.246-6.772-19.309-6.931-19.431l-0.611-0.472
		L67.394,9.453z"/>
	<path d="M65.169,6.821c-0.284,0.269-0.297,0.717-0.028,1.002l2.986,3.162l0.219,0.045c0.234,0.048,5.808,1.181,11.81,1.181
		c5.868,0,12.647,1.145,12.714,1.157c0.386,0.065,0.752-0.194,0.817-0.58c0.007-0.041,0.011-0.081,0.011-0.12
		c0-0.339-0.244-0.639-0.59-0.698c-0.069-0.012-6.962-1.176-12.953-1.176c-5.27,0-10.308-0.917-11.308-1.11
		c-0.279-0.295-2.677-2.835-2.677-2.835C65.903,6.565,65.454,6.553,65.169,6.821z"/>
	<path d="M70.263,6.901l-2.333,3c-0.24,0.309-0.184,0.754,0.124,0.995c0.309,0.24,0.754,0.184,0.995-0.125l2.333-3
		c0.24-0.309,0.184-0.754-0.125-0.994C70.949,6.537,70.503,6.593,70.263,6.901z"/>
	<path d="M89.633,22c0.078,0.438-0.299,2.932-1.169,6.849c-0.697,3.135-0.181,5.092-0.158,5.174c0.103,0.376,0.49,0.597,0.867,0.496
		c0.315-0.085,0.524-0.372,0.524-0.686c0-0.06-0.008-0.121-0.023-0.181c-0.003-0.01-0.154-0.607-0.154-1.659
		c0-0.737,0.074-1.698,0.327-2.837c0.495-2.225,1.01-4.81,1.146-6.346c1.133,0.375,3.078,0.988,4.37,1.223
		c1.868,0.339,7.373,2.319,11.233,4.893l0.438,0.291l0.406-0.333c0.026-0.022,2.746-2.226,6.177-2.85
		c2.825-0.514,5.952-1.226,7.245-1.528c0.339,0.962,1.008,2.76,1.538,3.557c0.483,0.726,1.765,5.314,1.765,8.948
		c0,0.786-0.061,1.527-0.201,2.176l-0.171,0.788l0.804,0.068c0.038,0.003,3.791,0.346,6.076,2.479
		c1.617,1.509,3.027,2.424,3.917,2.942c-1.018,0.901-2.491,2.308-2.771,3.149c-0.273,0.817-2.977,4.614-5.334,5.204l-0.582,0.146
		l0.048,0.599c0.001,0.02,0.08,1.039,0.08,2.388c0,1.355-0.079,3.045-0.397,4.393c-0.494,2.099-0.803,4.68-0.938,5.964
		c-0.952-0.203-2.525-0.51-3.373-0.51l-0.149,0c-1.255,0.006-5.072,0.025-7.265-3.191l-0.619-0.907l-0.572,0.938
		c-0.023,0.037-2.261,3.676-4.712,4.901c0,0-8.581,4.29-9.493,4.746c-0.662-0.804-2.078-2.503-2.855-3.28
		c-0.869-0.87-3.33-4.592-3.806-6.972c-0.077-0.384-0.45-0.632-0.834-0.556c-0.384,0.077-0.633,0.45-0.557,0.834
		c0.545,2.724,3.181,6.682,4.194,7.695c0.963,0.963,3.097,3.586,3.118,3.612l0.358,0.441l10.508-5.254
		c2.064-1.032,3.88-3.369,4.747-4.615c2.642,3.014,6.464,3.031,7.794,3.024l0.143-0.001c0.889,0,3.071,0.468,3.838,0.648
		l0.797,0.188l0.071-0.816c0.003-0.038,0.337-3.816,0.983-6.565c0.35-1.485,0.438-3.289,0.438-4.723
		c0-0.842-0.029-1.524-0.055-1.971c2.768-1.083,5.393-4.792,5.767-5.911c0.162-0.483,1.741-2.035,3.115-3.18l0.858-0.716
		l-1.015-0.471c-0.02-0.01-2.105-0.991-4.481-3.208c-2.034-1.899-4.909-2.552-6.221-2.762c0.072-0.543,0.156-1.077,0.156-1.684
		c0-3.906-1.329-8.762-1.995-9.763c-0.503-0.755-1.314-3.021-1.585-3.831l-0.205-0.617l-0.632,0.152
		c-0.042,0.01-4.191,1.003-7.795,1.659c-3.053,0.556-5.495,2.167-6.414,2.84c-3.992-2.546-9.431-4.495-11.332-4.84
		c-1.757-0.319-5.027-1.46-5.06-1.472l-1.145-0.4L89.633,22z"/>
	<path d="M120.45,23.711c-0.076,0.089-7.612,9.01-12.757,18.967c-0.032,0.072-0.843,2.015-1.311,2.794
		c-0.536,0.893-7.246,17.49-8.596,27.94c-0.05,0.388,0.225,0.744,0.612,0.793c0.389,0.05,0.743-0.224,0.794-0.612
		c1.314-10.182,7.856-26.442,8.405-27.394c0.52-0.866,1.344-2.841,1.379-2.924c5.044-9.756,12.479-18.56,12.553-18.647
		c0.254-0.298,0.217-0.746-0.081-0.999C121.15,23.376,120.703,23.413,120.45,23.711z"/>
	<path d="M109.765,45.164c-0.29,0.097-1.773,0.318-2.659,0.451l-1.232,0.189c-1.006,0.167-13.782,3.622-15.236,4.015
		c-0.377,0.102-0.601,0.491-0.498,0.869c0.102,0.378,0.491,0.601,0.869,0.499c5.681-1.537,14.39-3.867,15.098-3.985l1.209-0.186
		c1.505-0.225,2.52-0.381,2.899-0.508c0.808-0.165,15.552-1.266,22.817,0.025c0.386,0.068,0.753-0.188,0.821-0.574
		c0.069-0.385-0.188-0.753-0.573-0.822C125.704,43.792,110.401,44.952,109.765,45.164z"/>
	<path d="M90.547,22.116c-0.306,0.245-0.356,0.691-0.11,0.996c0.188,0.237,1.721,2.566,3.494,5.263
		c4.297,6.535,10.79,16.41,12.204,17.941c1.967,2.131,16.334,19.138,16.479,19.31c0.252,0.299,0.699,0.336,0.998,0.084
		c0.299-0.253,0.337-0.7,0.084-0.999c-0.592-0.701-14.532-17.203-16.521-19.356c-1.335-1.446-8.049-11.658-12.062-17.759
		c-2.257-3.434-3.353-5.096-3.572-5.37C91.298,21.921,90.853,21.872,90.547,22.116z"/>
	<path d="M118.575,6.506c-0.367,0.137-0.553,0.545-0.416,0.912c0.066,0.178,6.682,17.881,8.327,22.65
		c1.631,4.728,2.797,10.678,2.809,10.737c0.074,0.384,0.446,0.635,0.831,0.561c0.384-0.075,0.635-0.447,0.56-0.831
		c-0.012-0.061-1.195-6.104-2.859-10.929c-1.651-4.786-8.273-22.506-8.339-22.684C119.349,6.555,118.941,6.369,118.575,6.506z"/>
	<path d="M131.568,49.8c-0.389,0.048-0.664,0.403-0.615,0.791c0.061,0.493,1.525,12.119,2.868,15.979l1.377,3.258
		c2.337,5.221,6.249,13.961,6.249,24.009c0,12.455-7.106,31.783-9.285,37.411c-1.051,2.716-5.45,12.215-10.108,22.271
		c-4.057,8.76-8.251,17.816-10.214,22.371l-4.085,9.641c-3.95,9.386-8.427,20.023-10.213,23.118
		c-1.584,2.747-10.076,16.692-21.659,21.533c-0.361,0.151-0.531,0.566-0.38,0.928c0.151,0.361,0.566,0.531,0.927,0.381
		c12.003-5.018,20.715-19.317,22.34-22.133c1.829-3.172,6.324-13.854,10.291-23.277l4.079-9.63
		c1.956-4.536,6.146-13.585,10.199-22.336c4.668-10.078,9.076-19.597,10.145-22.356c2.82-7.287,9.381-25.569,9.381-37.922
		c0-10.35-3.99-19.263-6.374-24.588l-1.332-3.145c-1.293-3.719-2.785-15.569-2.8-15.688C132.31,50.026,131.957,49.751,131.568,49.8z
		"/>
	<path d="M123.404,188.104c-0.117,0.172-2.886,4.256-4.721,8.093c-1.632,3.412-3.533,8.286-3.935,9.324
		c-5.015,2.831-11.106,8.327-11.76,8.981c-0.628,0.627-2.392,1.694-3.018,2.053l-0.78,0.446l0.616,0.654
		c0.026,0.029,2.741,2.903,7.377,7.043c4.693,4.192,10.92,7.001,11.183,7.118c0.356,0.16,0.778,0.002,0.936-0.357
		c0.042-0.094,0.062-0.192,0.062-0.289c0-0.27-0.156-0.529-0.42-0.646c-0.061-0.028-6.291-2.84-10.817-6.882
		c-3.334-2.979-5.643-5.273-6.674-6.323c0.789-0.48,1.947-1.225,2.537-1.814c0.961-0.96,7.064-6.337,11.675-8.881l0.227-0.125
		l0.093-0.242c0.021-0.057,2.178-5.685,3.978-9.447c1.412-2.953,3.434-6.116,4.243-7.349c0.686,0.406,1.861,1.069,3.021,1.534
		c5.527,2.209,9.19,5.112,10.963,8.659l0.439,0.878l0.695-0.694c0.032-0.032,3.277-3.241,7.239-4.667
		c0.368-0.133,0.559-0.539,0.427-0.907c-0.133-0.368-0.539-0.559-0.907-0.427c-3.249,1.17-5.958,3.367-7.133,4.414
		c-2.054-3.501-5.741-6.391-11.122-8.542c-1.657-0.664-3.441-1.792-3.458-1.803l-0.579-0.369L123.404,188.104z"/>
	<path d="M124.634,190.487c-0.378,0.104-0.599,0.494-0.494,0.871c0.048,0.175,4.837,17.523,5.656,21.456l3.834,17.839
		c-0.082-0.383,0.161-0.761,0.544-0.843c0.382-0.083,0.759,0.159,0.841,0.542l-3.832-17.827c-0.828-3.977-5.479-20.829-5.678-21.544
		C125.402,190.604,125.011,190.383,124.634,190.487z"/>
	<path d="M102.556,216.514c-0.362,0.147-0.537,0.56-0.39,0.922c0.146,0.363,0.56,0.538,0.922,0.392
		c0.114-0.047,11.557-4.58,28.165-2.952c-0.01,0.003,6.936,1.515,14.27,4.937c0.355,0.165,0.777,0.011,0.942-0.343
		c0.165-0.354,0.011-0.777-0.343-0.942c-7.486-3.493-14.581-5.035-14.651-5.051C114.414,211.801,103.033,216.32,102.556,216.514z"/>
	<path d="M145.363,203.964c-5.746,4.909-8.803,6.422-11.035,7.526c-1.322,0.654-2.366,1.171-3.474,2.148
		c-2.912,2.57-9.081,15.999-9.343,16.569c-0.163,0.355-0.007,0.774,0.35,0.939c0.355,0.163,0.775,0.006,0.939-0.35
		c1.744-3.81,6.761-14.128,8.991-16.097c0.967-0.852,1.889-1.309,3.165-1.94c2.299-1.138,5.447-2.695,11.326-7.719
		c0.298-0.255,0.333-0.702,0.079-0.999C146.107,203.745,145.66,203.71,145.363,203.964z"/>
	<path d="M71.507,75.552c-0.049,0.112-1.209,2.787-1.718,6.007c-0.517,3.274-1.669,7.189-2.186,7.835l-1,1.249l1.598-0.099
		c0.025-0.002,2.562-0.153,4.086,0.304c1.893,0.568,7.805,1.653,11.821,0.004c0.261,1.296,0.939,3.711,2.656,5.919
		c1.331,1.711,3.601,3.536,5.603,5.147c1.545,1.243,3.005,2.416,3.551,3.168l0.51,0.701l0.586-0.639
		c0.018-0.02,1.798-1.955,2.89-2.735c1.157-0.827,3.296-4.46,3.834-6.574c1.226,0.229,3.802,0.627,6.003,0.368
		c0.389-0.045,0.666-0.398,0.621-0.787c-0.046-0.389-0.398-0.667-0.787-0.621c-2.676,0.315-6.225-0.479-6.26-0.487l-0.865-0.196
		l-0.001,0.887c0,1.283-2.417,5.577-3.369,6.257c-0.834,0.596-1.923,1.689-2.567,2.359c-0.767-0.796-1.933-1.741-3.256-2.805
		c-1.942-1.562-4.143-3.333-5.372-4.913c-2.171-2.791-2.518-6.1-2.521-6.133l-0.107-1.083l-0.947,0.535
		c-3.604,2.037-10.078,0.731-11.614,0.271c-1.051-0.315-2.417-0.382-3.387-0.386c0.746-1.863,1.544-5.175,1.883-7.325
		c0.479-3.033,1.605-5.633,1.617-5.66c0.04-0.092,0.059-0.188,0.059-0.283c0-0.273-0.159-0.533-0.425-0.649
		C72.082,75.03,71.664,75.194,71.507,75.552z"/>
	<path d="M111.49,115.836c0,0,1.666,0.333,1.833,0.833s-0.833,1.667-0.833,1.667s1.999,0.5,2.666,0.5s4.167,1.5,9.167-2.667
		c0,0,1.499,5,4.333,7.834c2.834,2.833,4.834,4.334,4.834,5.167c0,0,5.833-15.333,7.333-24.167c1.5-8.834,1.333-15.667,0.333-20.334
		c-1-4.666-3.333-10.333-3.333-10.333l-1.833-4.167c0,0-1.333,3.667-2,4.834c-0.667,1.166-5.333,7.833-5.5,10.833
		c0,0-4.334-1.834-9.667-2.167c-5.333-0.333-12.667-1.166-15-2.333c0,0,2.001,4.334,2.667,6.5c0.666,2.167,2,10.833,8.5,15.833
		c0,0-2.167,2.5-2.667,5S111.49,115.836,111.49,115.836z"/>
	<path d="M125.706,61.158c-0.068,0.123-0.103,0.253-0.103,0.379c0,0.224,0.108,0.433,0.326,0.555l0.844,0.474
		c0.896,0.48,2.396,1.285,3.049,1.938c0,0,0.827,0.827,1.282,1.282c-0.399,0.701-1.227,2.19-2.415,4.566
		c-1.482,2.963-4.636,3.615-4.668,3.621l-1.115,0.219l0.685,0.905c2.104,2.768,2.411,7.126,2.411,9.44
		c0,0.942-0.051,1.546-0.053,1.567c-0.002,0.022-0.003,0.043-0.003,0.064c0,0.363,0.277,0.672,0.646,0.705
		c0.39,0.035,0.733-0.252,0.769-0.642c0.008-0.089,0.065-0.753,0.065-1.758c0-2.298-0.373-6.33-2.232-9.377
		c1.246-0.441,3.478-1.544,4.762-4.111c1.632-3.264,2.631-4.936,2.641-4.953l0.285-0.474l-2.059-2.058
		c-0.801-0.801-2.354-1.634-3.381-2.185l-0.727-0.404C126.374,60.724,125.896,60.816,125.706,61.158z"/>
	<path d="M96.784,73.105c-0.007,0.073-0.67,7.416-0.67,11.731l-0.167,16.657c0.004-0.391,0.325-0.703,0.716-0.699
		c0.392,0.004,0.706,0.327,0.702,0.718l0.167-16.676c0-4.25,0.657-11.53,0.664-11.603c0.035-0.39-0.252-0.734-0.642-0.77
		C97.165,72.428,96.82,72.715,96.784,73.105z"/>
	<path d="M93.656,68.814c-8.994,2.176-14.574,8.918-17.572,12.539l-1.279,1.5c-2.274,2.437-6.062,5.572-6.1,5.604
		c-0.302,0.25-0.344,0.696-0.095,0.997c0.249,0.302,0.696,0.344,0.997,0.095c0.158-0.13,3.896-3.225,6.233-5.729l1.335-1.562
		c2.893-3.495,8.277-10,16.814-12.065c0.38-0.092,0.614-0.475,0.521-0.855C94.419,68.956,94.037,68.722,93.656,68.814z"/>
	<path d="M99.955,72.737c-0.055,0.387,0.215,0.746,0.602,0.801c0.105,0.015,10.464,1.591,17.357,11.211
		c0.229,0.318,0.671,0.392,0.989,0.164c0.317-0.228,0.391-0.671,0.163-0.989c-7.26-10.13-17.863-11.726-18.312-11.789
		C100.367,72.08,100.009,72.35,99.955,72.737z"/>
	<path d="M131.409,64.965c-0.179,0.021-4.382,0.507-6.058,0.843c-0.384,0.077-0.633,0.45-0.557,0.834
		c0.077,0.384,0.45,0.632,0.834,0.556c1.619-0.324,5.899-0.819,5.942-0.824c0.389-0.045,0.668-0.396,0.623-0.785
		C132.149,65.199,131.797,64.92,131.409,64.965z"/>
	<path d="M110.47,119.153c-0.315,0.085-0.523,0.371-0.523,0.683c0,0.061,0.008,0.123,0.024,0.185
		c0.047,0.173,1.135,3.978,4.338,6.88c-1.262,0.85-3.559,2.727-4.337,5.582l-1.415,5.95c-0.541,2.419-1.053,4.704-1.4,5.66
		l-0.305,0.839l0.886,0.106c0.042,0.006,4.158,0.502,5.779,0.826c1.876,0.374,4.227,0.559,7.448-0.59
		c0.331,1.433,1.142,4.408,2.479,6.014c0.251,0.301,0.698,0.342,0.998,0.092c0.301-0.251,0.342-0.698,0.092-0.998
		c-1.527-1.833-2.34-6.133-2.349-6.176l-0.158-0.856l-0.807,0.329c-3.297,1.35-5.604,1.159-7.427,0.795
		c-1.231-0.246-3.735-0.573-5.046-0.738c0.337-1.186,0.738-2.968,1.192-4.993l1.398-5.887c0.904-3.313,4.443-5.207,4.479-5.226
		l0.977-0.514l-0.872-0.675c-3.423-2.646-4.572-6.75-4.584-6.791C111.237,119.274,110.848,119.051,110.47,119.153z"/>
	<path d="M125.798,119.513c-0.011,0.05-1.221,5.166-6.567,13.267c-5.31,8.046-11.153,10.889-11.212,10.916
		c-0.353,0.168-0.504,0.591-0.336,0.944c0.167,0.353,0.589,0.504,0.942,0.337c0.252-0.119,6.243-3.015,11.789-11.416
		c5.508-8.346,6.718-13.519,6.767-13.735c0.086-0.381-0.153-0.76-0.534-0.847C126.265,118.892,125.886,119.131,125.798,119.513z"/>
	<path d="M126.91,121.873c-0.389,0.048-0.742-0.23-0.79-0.618l2.333,18.838c0.048,0.388,0.401,0.661,0.79,0.613
		c0.389-0.048,0.664-0.404,0.616-0.793l-2.333-18.829C127.575,121.473,127.298,121.825,126.91,121.873z"/>
	<path d="M124.644,6.966c-0.112,0.375,0.101,0.77,0.476,0.882c0.11,0.033,11.112,3.412,20.689,13.476
		c0.27,0.283,0.719,0.295,1.002,0.024c0.284-0.27,0.295-0.718,0.025-1.002c-9.85-10.351-20.848-13.719-21.311-13.857
		C125.151,6.378,124.756,6.592,124.644,6.966z"/>
	<path d="M120.133,12.175c-0.09,0.381,0.147,0.762,0.527,0.852c0.155,0.036,15.562,3.755,25.123,14.937
		c0.255,0.297,0.702,0.332,1,0.078c0.297-0.254,0.332-0.702,0.078-0.999c-9.871-11.544-25.229-15.244-25.878-15.396
		C120.603,11.557,120.222,11.794,120.133,12.175z"/>
	<path d="M122.962,19.356c-0.081,0.383,0.164,0.759,0.547,0.84c0.116,0.024,11.769,2.597,22.312,13.141
		c0.276,0.277,0.726,0.277,1.002,0c0.276-0.277,0.276-0.725,0-1.002c-10.856-10.857-22.53-13.422-23.021-13.526
		C123.419,18.728,123.043,18.974,122.962,19.356z"/>
	<path d="M125.481,26.121c-0.119,0.373,0.086,0.771,0.459,0.891c0.118,0.038,11.937,3.884,20.044,12.154
		c0.273,0.279,0.723,0.284,1.002,0.01c0.279-0.274,0.284-0.722,0.01-1.002c-8.359-8.527-20.127-12.353-20.624-12.512
		C125.999,25.542,125.6,25.748,125.481,26.121z"/>
	<path d="M127.691,32.182c-0.177,0.349-0.038,0.775,0.311,0.953c0.105,0.053,10.504,5.371,17.844,12.059
		c0.29,0.264,0.738,0.243,1.001-0.047c0.264-0.289,0.243-0.737-0.046-1.001c-7.484-6.819-18.051-12.221-18.156-12.274
		C128.294,31.694,127.868,31.833,127.691,32.182z"/>
	<path d="M129.489,39.097c-0.132,0.368,0.059,0.774,0.427,0.907c0.105,0.038,10.539,3.847,15.682,10.436
		c0.241,0.309,0.687,0.363,0.995,0.122c0.308-0.241,0.363-0.686,0.122-0.995c-5.398-6.916-15.876-10.738-16.319-10.897
		C130.027,38.537,129.622,38.728,129.489,39.097z"/>
	<path d="M133.687,46.524c-0.173,0.351-0.028,0.774,0.323,0.949c0.093,0.045,9.342,4.622,11.705,8.562
		c0.201,0.335,0.637,0.444,0.972,0.243c0.336-0.202,0.444-0.637,0.243-0.973c-2.578-4.297-11.899-8.91-12.295-9.104
		C134.284,46.028,133.86,46.173,133.687,46.524z"/>
	<path d="M131.516,52.865c-0.168,0.353-0.019,0.777,0.335,0.944c0.1,0.047,10.021,4.819,13.698,10.894
		c0.203,0.335,0.639,0.442,0.974,0.239c0.335-0.203,0.441-0.638,0.239-0.973c-3.899-6.441-13.879-11.239-14.302-11.44
		C132.107,52.361,131.685,52.511,131.516,52.865z"/>
	<path d="M132.534,59.165c-0.188,0.344-0.06,0.774,0.283,0.961c0.076,0.042,7.64,4.185,12.997,9.705
		c0.273,0.281,0.722,0.288,1.002,0.015c0.281-0.272,0.288-0.721,0.016-1.002c-5.512-5.679-13.02-9.79-13.337-9.962
		C133.15,58.693,132.719,58.82,132.534,59.165z"/>
	<path d="M133.853,65.025c-0.172,0.352-0.026,0.775,0.325,0.948c0.076,0.038,7.719,3.821,11.402,8.944
		c0.229,0.318,0.671,0.39,0.989,0.162c0.317-0.228,0.39-0.671,0.161-0.989c-3.893-5.416-11.604-9.23-11.93-9.39
		C134.45,64.528,134.026,64.673,133.853,65.025z"/>
	<path d="M137.349,73.534c-0.167,0.354-0.017,0.776,0.338,0.943c0.058,0.028,5.836,2.787,7.866,6.065
		c0.206,0.333,0.643,0.436,0.976,0.23c0.333-0.206,0.436-0.643,0.23-0.976c-2.252-3.636-8.213-6.481-8.466-6.601
		C137.939,73.028,137.515,73.179,137.349,73.534z"/>
	<path d="M139.506,81.054c-0.156,0.359,0.008,0.776,0.366,0.933c0.037,0.016,3.689,1.627,5.55,4.108
		c0.235,0.313,0.68,0.377,0.992,0.142c0.314-0.235,0.377-0.679,0.143-0.992c-2.089-2.785-5.955-4.486-6.119-4.558
		C140.08,80.531,139.663,80.696,139.506,81.054z"/>
	<path d="M141.155,86.835c-0.277,0.277-0.276,0.725,0,1.002c0.028,0.028,2.83,2.834,4.457,4.786c0.25,0.301,0.697,0.341,0.998,0.091
		c0.3-0.251,0.341-0.698,0.09-0.998c-1.668-2.002-4.426-4.764-4.543-4.88C141.88,86.559,141.431,86.559,141.155,86.835z"/>
	<path d="M141.602,94.06c-0.244,0.306-0.194,0.752,0.111,0.996c1.255,1.005,3.412,2.845,3.853,3.506
		c0.218,0.326,0.657,0.414,0.983,0.196c0.325-0.217,0.413-0.657,0.196-0.982c-0.708-1.061-3.797-3.547-4.147-3.827
		C142.292,93.705,141.847,93.755,141.602,94.06z"/>
	<path d="M141.022,99.353c-0.175,0.35-0.033,0.774,0.316,0.951c0.032,0.016,3.173,1.602,4.22,3.247
		c0.21,0.33,0.648,0.428,0.979,0.217c0.33-0.21,0.427-0.648,0.217-0.978c-1.258-1.977-4.638-3.682-4.78-3.753
		C141.623,98.861,141.198,99.001,141.022,99.353z"/>
	<path d="M140.24,104.6c-0.223,0.322-0.143,0.764,0.18,0.986c1.175,0.813,4.389,3.173,5.146,4.311
		c0.218,0.326,0.657,0.414,0.983,0.197c0.325-0.217,0.413-0.657,0.196-0.983c-1.045-1.567-5.064-4.374-5.52-4.689
		C140.905,104.197,140.462,104.278,140.24,104.6z"/>
	<path d="M138.689,110.352c-0.175,0.35-0.033,0.775,0.316,0.951c0.042,0.021,4.185,2.128,6.379,5.735
		c0.203,0.334,0.64,0.44,0.974,0.237c0.335-0.204,0.441-0.64,0.237-0.974c-2.411-3.962-6.771-6.173-6.956-6.265
		C139.29,109.861,138.865,110.003,138.689,110.352z"/>
	<path d="M137.271,115.225c-0.245,0.305-0.197,0.75,0.107,0.997c0.067,0.054,6.722,5.438,8.299,8.908
		c0.162,0.355,0.583,0.514,0.938,0.352c0.356-0.162,0.514-0.582,0.353-0.938c-1.718-3.776-8.417-9.197-8.701-9.426
		C137.962,114.872,137.516,114.92,137.271,115.225z"/>
	<path d="M135.429,121.903c-0.239,0.309-0.183,0.754,0.127,0.994c0.087,0.067,8.725,6.772,10.3,9.922
		c0.175,0.35,0.601,0.492,0.95,0.317c0.351-0.175,0.492-0.601,0.317-0.95c-1.719-3.438-10.334-10.127-10.7-10.411
		C136.114,121.537,135.669,121.593,135.429,121.903z"/>
	<path d="M133.014,129.695c0.086,0.078,8.625,7.847,12.847,15.968l1.258-0.654c-4.342-8.351-12.796-16.041-13.153-16.364
		L133.014,129.695z"/>
	<path d="M130.688,136.535c0.096,0.084,9.632,8.536,14.84,18.464l1.256-0.658c-5.334-10.165-15.063-18.784-15.16-18.87
		L130.688,136.535z"/>
	<path d="M127.973,141.988c0.101,0.107,10.13,10.868,14.526,21.616l1.312-0.537c-4.498-10.994-14.703-21.94-14.806-22.05
		L127.973,141.988z"/>
	<path d="M123.904,151.908c0.109,0.08,10.98,8.168,13.558,20.737l1.389-0.285c-2.691-13.117-13.645-21.256-14.109-21.597
		L123.904,151.908z"/>
	<path d="M121.157,157.462c0.107,0.057,10.789,5.903,14.982,21.229l1.367-0.375c-4.363-15.944-15.225-21.861-15.685-22.105
		L121.157,157.462z"/>
	<path d="M118.178,163.64c0.124,0.061,12.382,6.3,15.611,26.973l1.4-0.219c-3.352-21.452-15.859-27.77-16.39-28.027L118.178,163.64z
		"/>
	<path d="M115.409,169.578c0.104,0.075,10.514,7.711,14.396,22.109l1.369-0.369c-4.02-14.905-14.494-22.571-14.938-22.891
		L115.409,169.578z"/>
	<path d="M113.033,174.545c0.083,0.07,8.355,7.113,10.273,14.145l1.367-0.373c-2.034-7.46-10.373-14.557-10.727-14.855
		L113.033,174.545z"/>
	<path d="M110.858,180.205c0.062,0.054,6.239,5.491,9.303,13.55l1.324-0.504c-3.193-8.402-9.434-13.887-9.697-14.116
		L110.858,180.205z"/>
	<path d="M108.357,186.037c0.063,0.056,6.373,5.634,8.618,13.331l1.361-0.396c-2.365-8.106-8.776-13.766-9.048-14.003
		L108.357,186.037z"/>
	<path d="M105.816,191.998c0.072,0.074,7.256,7.467,9.509,13.583l1.33-0.49c-2.358-6.402-9.521-13.772-9.825-14.083L105.816,191.998
		z"/>
	<path d="M103.184,197.198c0.06,0.054,6.011,5.424,7.279,11.287l1.385-0.299c-1.367-6.32-7.462-11.814-7.721-12.046L103.184,197.198
		z"/>
	<path d="M100.75,203.584c0.037,0.026,3.709,2.632,5.927,7.544l1.291-0.584c-2.386-5.284-6.245-8.01-6.408-8.123L100.75,203.584z"/>
	<path d="M98.332,208.348c0.038,0.036,3.775,3.623,5.042,5.84l1.23-0.703c-1.368-2.395-5.133-6.008-5.292-6.16L98.332,208.348z"/>
	<path d="M95,213.516c0.072,0.069,7.316,7.05,12.694,17.316l1.256-0.658c-5.491-10.481-12.898-17.612-12.972-17.684L95,213.516z"/>
	<path d="M92.74,217.577c0.077,0.056,7.693,5.638,10.417,13.167l1.332-0.483c-2.874-7.946-10.591-13.597-10.918-13.833
		L92.74,217.577z"/>
	<path d="M90.299,220.148c0.053,0.057,5.274,5.803,7.367,10.954l1.312-0.533c-2.189-5.39-7.412-11.136-7.633-11.378L90.299,220.148z
		"/>
	<path d="M87.606,222.783c0.036,0.045,3.619,4.463,5.061,7.988l1.312-0.537c-1.522-3.722-5.121-8.159-5.273-8.346L87.606,222.783z"
		/>
	<path d="M138.823,199.336c-2.167-5.334-6.833-6.666-6.833-6.666c0-7,6.333-18.167,8.5-22c2.167-3.833,5.666-10.334,5.666-10.334v35
		c0,0-3.666-0.166-6.333,3.167L138.823,199.336z"/>
	<path d="M14.321,78.168l0.165-0.123c-0.095,0.051-2.334,1.27-3.42,2.898c-0.887,1.33-0.998,3.395-0.546,4.488
		c0.273,0.661,0.693,0.872,0.997,0.933c1.186,0.238,2.987-0.783,3.951-2.901c0.691-1.52,0.957-4.778,0.01-5.434
		C15.179,77.821,14.706,77.784,14.321,78.168z M11.679,83.907c0-0.692,0.151-1.555,0.567-2.178c0.618-0.928,1.751-1.715,2.405-2.126
		c0.014,0.157,0.027,0.321,0.027,0.521c0,0.824-0.131,1.94-0.5,2.752c-0.662,1.455-1.778,2.108-2.29,2.107
		C11.767,84.826,11.679,84.423,11.679,83.907z"/>
	<path d="M11.531,84.961l-0.117,0.042c-0.086,0.031-2.125,0.792-3.07,2.873c-0.716,1.575-0.656,3.48-0.228,4.546
		c0.221,0.549,0.538,0.91,0.943,1.072c1.293,0.517,3.269-1.066,4.406-3.528c0.67-1.453,0.679-2.933,0.022-3.959
		c-0.425-0.665-1.093-1.046-1.832-1.046H11.531z M9.212,90.528c0-0.644,0.113-1.386,0.422-2.066c0.59-1.297,1.749-1.894,2.109-2.056
		c0.262,0.039,0.449,0.205,0.551,0.364c0.154,0.24,0.263,0.597,0.263,1.044c0,0.44-0.106,0.967-0.378,1.558
		c-0.918,1.989-2.243,2.844-2.578,2.807C9.403,92.027,9.212,91.363,9.212,90.528z"/>
	<path d="M17.315,78.983c-0.102,0.371,0.119,0.758,0.487,0.87c0.126,0.038,0.751,0.286,0.648,1.419
		c-0.094,1.034-0.307,3.39-1.704,3.898c-0.622,0.226-1.121,0.241-1.405,0.042c-0.281-0.196-0.311-0.562-0.311-0.709
		c0-0.392-0.317-0.709-0.708-0.709s-0.708,0.317-0.708,0.709c0,0.781,0.333,1.463,0.915,1.871c0.477,0.334,1.333,0.627,2.703,0.129
		c2.242-0.816,2.513-3.8,2.628-5.075c0.178-1.956-1.033-2.779-1.698-2.946C17.788,78.389,17.417,78.613,17.315,78.983z"/>
	<path d="M14.733,85.769c-0.313,0.233-0.378,0.677-0.146,0.991c0.013,0.017,1.236,1.696,0.59,3.116
		c-1.002,2.203-1.783,3.022-2.785,2.922c-0.578-0.058-0.68-0.495-0.697-0.681c-0.035-0.385-0.373-0.677-0.759-0.648
		c-0.386,0.029-0.677,0.355-0.655,0.742c0.037,0.626,0.496,1.85,1.971,1.997c2.403,0.24,3.582-2.353,4.215-3.745
		c0.996-2.19-0.673-4.456-0.745-4.552C15.489,85.599,15.047,85.536,14.733,85.769z"/>
	<path d="M9.184,92.142c-2.451,0.49-2.97,3.199-2.902,4.563c0.087,2.082,0.463,4.615,1.758,4.831
		c1.82,0.304,2.816-1.891,3.622-4.308c1.144-3.43-0.446-4.543-0.63-4.659l-0.095-0.059L9.34,92.11L9.184,92.142z M7.697,96.64
		c-0.001-0.013-0.003-0.056-0.003-0.124c0-0.531,0.125-2.535,1.678-2.937c0.261,0.065,0.732,0.183,0.941,0.235
		c0.109,0.126,0.336,0.474,0.336,1.2c0,0.44-0.085,1.018-0.334,1.765c-0.736,2.208-1.393,3.33-1.955,3.355
		C8.075,99.796,7.762,98.182,7.697,96.64z"/>
	<path d="M6.114,100.646l-0.167,6.023c0,0.859,0.424,2.397,1.22,3.05c0.436,0.357,0.853,0.367,1.127,0.312
		c1.662-0.332,2.403-1.78,2.403-4.695c0-3.594-1.313-4.636-1.463-4.744l-0.109-0.078l-2.987-0.747L6.114,100.646z M7.365,106.669
		c0,0,0.106-3.821,0.142-5.099c0.464,0.116,0.78,0.195,0.948,0.237c0.166,0.18,0.826,1.035,0.826,3.529
		c0,2.91-0.771,3.198-1.199,3.29C7.821,108.472,7.365,107.449,7.365,106.669z"/>
	<path d="M7.459,108.551c-0.825,0.278-1.201,1.454-1.324,1.946l-0.021,0.085v4.087c0,0.463,0.049,2.812,1.015,3.604
		c0.29,0.238,0.645,0.329,0.999,0.258c1.306-0.261,2.226-2.171,2.402-4.984c0.187-2.994-1.838-4.688-1.925-4.759l-0.006-0.005
		C8.249,108.504,7.845,108.421,7.459,108.551z M7.705,109.884l0-0.002L7.705,109.884L7.705,109.884z M7.856,110.032
		c0.336,0.327,1.269,1.381,1.269,3.129c0,0.097-0.003,0.197-0.009,0.298c-0.15,2.403-0.821,3.386-1.156,3.598
		c-0.195-0.315-0.428-1.249-0.428-2.388c0,0,0-3.674,0-3.887C7.615,110.481,7.742,110.204,7.856,110.032z"/>
	<path d="M6.45,119.331c-0.003,0.39,0.312,0.708,0.701,0.714c0.058,0.001,1.418,0.035,2.038,1.275
		c0.686,1.372,0.903,3.86-0.476,4.962c-0.596,0.478-0.868,0.443-0.916,0.432c-0.095-0.022-0.151-0.144-0.151-0.145
		c-0.157-0.349-0.567-0.522-0.921-0.377s-0.533,0.534-0.399,0.893c0.03,0.079,0.312,0.78,1.09,0.994
		c0.652,0.18,1.386-0.053,2.183-0.689c2.074-1.66,1.75-4.919,0.858-6.704c-1.018-2.035-3.208-2.058-3.3-2.058
		C6.767,118.628,6.453,118.942,6.45,119.331z"/>
	<path d="M14.951,210.602c-0.038,0.39,0.247,0.735,0.636,0.773l6.833,0.666c0.39,0.038,0.736-0.247,0.774-0.637
		c0.038-0.389-0.247-0.735-0.636-0.773l-6.833-0.666C15.335,209.927,14.989,210.212,14.951,210.602z"/>
	<path d="M18.486,210.606l-2,5.834c-0.127,0.37,0.07,0.773,0.44,0.899c0.371,0.127,0.773-0.07,0.9-0.44l2-5.834
		c0.127-0.37-0.07-0.772-0.44-0.899C19.016,210.039,18.613,210.236,18.486,210.606z"/>
	<path d="M38.599,207.998c-2.819,0.939-6.343,0.636-6.379,0.632c-0.39-0.035-0.734,0.253-0.769,0.643
		c-0.035,0.39,0.251,0.733,0.641,0.77c0.156,0.014,3.85,0.335,6.955-0.7c0.371-0.123,0.572-0.524,0.448-0.896
		C39.371,208.074,38.97,207.874,38.599,207.998z"/>
	<path d="M34.622,209.396c-0.035,0.229-0.843,5.607-0.672,7.665c0.032,0.391,0.375,0.68,0.765,0.648
		c0.39-0.032,0.68-0.375,0.647-0.765c-0.158-1.895,0.653-7.281,0.661-7.335c0.059-0.388-0.208-0.748-0.595-0.807
		C35.042,208.744,34.681,209.01,34.622,209.396z"/>
	<path d="M82.282,203.63c-0.022,0.391,0.276,0.726,0.668,0.748l5.833,0.332c0.391,0.022,0.726-0.275,0.747-0.667
		c0.022-0.391-0.276-0.726-0.667-0.747l-5.833-0.333C82.639,202.94,82.304,203.239,82.282,203.63z"/>
	<path d="M85.294,203.868c-0.104,0.536-1.014,5.264-1.014,6.302c0,0.392,0.317,0.709,0.709,0.709s0.709-0.317,0.709-0.709
		c0-0.684,0.59-3.982,0.986-6.032c0.075-0.385-0.177-0.756-0.561-0.83C85.74,203.232,85.369,203.484,85.294,203.868z"/>
	<path d="M80.969,197.319c-1.399,0.382-5.344,0.113-6.745-0.021c-0.39-0.038-0.736,0.247-0.774,0.637
		c-0.038,0.39,0.248,0.736,0.637,0.773c0.542,0.053,5.351,0.498,7.254-0.021c0.378-0.102,0.601-0.492,0.497-0.87
		C81.737,197.438,81.347,197.216,80.969,197.319z"/>
	<path d="M76.484,198.112c-0.399,1.198-1.703,5.178-1.703,6.058c0,0.39,0.314,0.7,0.703,0.703c0.389,0.003,0.708-0.313,0.714-0.702
		c0.007-0.466,0.852-3.275,1.631-5.611c0.124-0.371-0.077-0.773-0.448-0.896C77.009,197.54,76.608,197.74,76.484,198.112z"/>
	<path d="M27.334,108.193c-0.24,0.2-0.273,0.558-0.072,0.798c0.08,0.096,1.986,2.364,4.33,3.405
		c0.286,0.127,0.621-0.002,0.748-0.288c0.127-0.286-0.002-0.621-0.288-0.749c-2.099-0.933-3.902-3.074-3.92-3.095
		C27.933,108.024,27.575,107.992,27.334,108.193z"/>
	<path d="M26.907,110.242c-0.213,0.229-0.2,0.588,0.03,0.801c0.074,0.068,1.833,1.692,3.882,2.716c0.28,0.14,0.621,0.027,0.76-0.253
		c0.14-0.28,0.027-0.621-0.253-0.76c-1.9-0.95-3.601-2.518-3.618-2.534C27.479,109.999,27.121,110.013,26.907,110.242z"/>
	<path d="M27.316,113.374c-0.14,0.28-0.027,0.621,0.253,0.76c0.094,0.047,2.326,1.16,3.505,1.421
		c0.306,0.068,0.608-0.125,0.676-0.43c0.068-0.306-0.125-0.608-0.43-0.676c-1.044-0.232-3.223-1.318-3.245-1.329
		C27.796,112.981,27.457,113.094,27.316,113.374z"/>
	<path d="M28.035,116.449c-0.099,0.297,0.062,0.618,0.358,0.717c0.095,0.032,2.351,0.779,3.554,0.779
		c0.313,0,0.567-0.254,0.567-0.567c0-0.313-0.254-0.567-0.567-0.567c-0.846,0-2.594-0.521-3.196-0.721
		C28.455,115.991,28.134,116.152,28.035,116.449z"/>
	<path d="M28.448,118.794c-0.079,0.303,0.654,0.834,0.351,0.755l3.413,0.884c0.303,0.079,0.582-0.11,0.66-0.414
		c0.078-0.303-0.135-0.619-0.438-0.698l-3.337-0.866C29.4,118.535,28.526,118.492,28.448,118.794z"/>
	<path d="M29.428,121.401c-0.125,0.287,0.005,0.621,0.293,0.747c0.495,0.216,2.162,0.922,2.852,0.922
		c0.313,0,0.567-0.254,0.567-0.567c0-0.313-0.254-0.567-0.567-0.567c-0.312,0-1.488-0.43-2.398-0.828
		C29.888,120.983,29.554,121.113,29.428,121.401z"/>
	<path d="M29.918,124.051c-0.111,0.292,0.035,0.62,0.328,0.731l2.625,0.999c0.293,0.111,0.62-0.035,0.732-0.328
		c0.111-0.292-0.036-0.62-0.328-0.731l-2.625-1C30.357,123.612,30.029,123.759,29.918,124.051z"/>
	<path d="M31.15,127.106c-0.08,0.303,0.099,0.613,0.402,0.694l1.875,0.5c0.302,0.081,0.613-0.1,0.694-0.401
		c0.081-0.303-0.099-0.613-0.402-0.694l-1.875-0.5C31.542,126.624,31.23,126.805,31.15,127.106z"/>
	<path d="M32.412,130.066c-0.102,0.296,0.054,0.619,0.35,0.722l2.875,1c0.295,0.104,0.619-0.053,0.722-0.349
		c0.103-0.296-0.054-0.619-0.35-0.722l-2.875-1C32.838,129.614,32.515,129.77,32.412,130.066z"/>
	<path d="M33.052,111.78c-0.124,0.288,0.009,0.619,0.298,0.744c0.146,0.063,3.624,1.54,6.93,1.795
		c0.312,0.024,0.584-0.21,0.609-0.522c0.024-0.312-0.21-0.584-0.522-0.609c-3.115-0.239-6.536-1.691-6.57-1.705
		C33.508,111.358,33.175,111.493,33.052,111.78z"/>
	<path d="M34.043,113.924c-0.112,0.293,0.034,0.621,0.326,0.733c0.136,0.052,3.362,1.284,5.799,1.412
		c0.312,0.016,0.58-0.224,0.596-0.537c0.017-0.312-0.224-0.58-0.536-0.596c-2.256-0.119-5.42-1.326-5.451-1.338
		C34.484,113.486,34.156,113.632,34.043,113.924z"/>
	<path d="M35.148,116.741c-0.076,0.304,0.108,0.611,0.412,0.687c0.125,0.031,3.096,0.767,5.513,0.767
		c0.313,0,0.567-0.254,0.567-0.567c0-0.313-0.254-0.567-0.567-0.567c-2.275,0-5.208-0.726-5.238-0.733
		C35.531,116.252,35.224,116.436,35.148,116.741z"/>
	<path d="M35.768,119.012c-0.063,0.307,0.133,0.607,0.44,0.671c0.125,0.026,3.099,0.639,5.151,0.511
		c0.312-0.02,0.55-0.289,0.531-0.601c-0.02-0.312-0.289-0.55-0.601-0.531c-1.899,0.119-4.82-0.483-4.849-0.489
		C36.132,118.509,35.832,118.706,35.768,119.012z"/>
	<path d="M37.145,121.255c-0.068,0.306,0.125,0.608,0.43,0.676c0.094,0.021,2.324,0.514,3.498,0.514
		c0.313,0,0.567-0.254,0.567-0.567c0-0.313-0.254-0.567-0.567-0.567c-1.049,0-3.23-0.481-3.252-0.486
		C37.515,120.757,37.212,120.949,37.145,121.255z"/>
	<path d="M37.906,123.294c-0.027,0.312,1.044,0.799,0.732,0.772l2.935,0.253c0.312,0.027,0.537-0.206,0.564-0.518
		c0.027-0.312-0.253-0.588-0.564-0.616l-2.816-0.247C39.069,122.966,37.933,122.983,37.906,123.294z"/>
	<path d="M39.023,125.365c-0.076,0.304,0.108,0.611,0.412,0.688c0.216,0.054,2.136,0.523,3.093,0.387
		c0.31-0.045,0.525-0.332,0.481-0.642c-0.044-0.311-0.331-0.525-0.641-0.481c-0.556,0.079-1.925-0.181-2.658-0.363
		C39.406,124.877,39.099,125.062,39.023,125.365z"/>
	<path d="M39.385,127.558c-0.039,0.311,0.182,0.594,0.492,0.633c0.349,0.044,2.126,0.255,2.807,0.118
		c0.307-0.061,0.506-0.359,0.444-0.667c-0.061-0.307-0.36-0.506-0.667-0.444c-0.368,0.073-1.65-0.033-2.443-0.132
		C39.708,127.026,39.424,127.247,39.385,127.558z"/>
	<path d="M41.323,129.186c-0.313,0-0.567,0.254-0.567,0.567c0,0.313,0.254,0.567,0.567,0.567h1.625c0.313,0,0.567-0.254,0.567-0.567
		c0-0.314-0.254-0.567-0.567-0.567H41.323z"/>
	<path d="M48.843,113.446c-1.911,0.358-6.693,0.119-6.742,0.116c-0.312-0.016-0.579,0.225-0.595,0.538
		c-0.016,0.312,0.225,0.579,0.537,0.595c0.202,0.01,4.966,0.249,7.009-0.134c0.308-0.058,0.51-0.354,0.453-0.662
		C49.447,113.591,49.151,113.388,48.843,113.446z"/>
	<path d="M47.91,115.335c-0.945,0.284-4.058,0.17-5.178,0.102c-0.312-0.019-0.581,0.219-0.6,0.532
		c-0.019,0.312,0.219,0.581,0.532,0.6c0.433,0.026,4.263,0.245,5.572-0.148c0.3-0.09,0.47-0.406,0.38-0.706
		C48.526,115.415,48.21,115.245,47.91,115.335z"/>
	<path d="M42.762,117.542c-0.047,0.309,0.165,0.599,0.474,0.646c0.343,0.053,3.387,0.507,4.698,0.245
		c0.307-0.061,0.506-0.36,0.444-0.667c-0.061-0.307-0.36-0.506-0.667-0.444c-0.944,0.188-3.426-0.12-4.303-0.255
		C43.1,117.02,42.81,117.232,42.762,117.542z"/>
	<path d="M48.252,119.315c-0.954,0.119-3.9,0.121-3.93,0.121c-0.313,0-0.567,0.254-0.567,0.567c0,0.313,0.254,0.567,0.567,0.567
		c0.124,0,3.047-0.001,4.07-0.129c0.311-0.039,0.531-0.322,0.492-0.633C48.846,119.497,48.563,119.276,48.252,119.315z"/>
	<path d="M44.696,121.892c-0.131,0.278-0.027,0.606,0.249,0.743c0.713,0.357,3.285,0.29,3.865,0.174
		c0.307-0.061,0.506-0.36,0.444-0.667c-0.061-0.307-0.36-0.506-0.667-0.444c-0.592,0.118-2.76,0.089-3.138-0.078
		C45.167,121.496,44.828,121.614,44.696,121.892z"/>
	<path d="M49.002,123.565l-2.965,0.247c0.312-0.026-0.324,0.087-0.298,0.399c0.026,0.312,0.681,0.707,0.369,0.732l3.035-0.253
		c0.312-0.026,0.521-0.297,0.495-0.609C49.612,123.769,49.314,123.54,49.002,123.565z"/>
	<path d="M49.435,125.703c-0.327,0.081-1.645,0.187-2.398,0.233c-0.312,0.02-0.55,0.289-0.531,0.602
		c0.02,0.312,0.289,0.55,0.601,0.53c0.21-0.013,2.067-0.132,2.603-0.266c0.304-0.076,0.488-0.384,0.412-0.688
		C50.047,125.811,49.739,125.627,49.435,125.703z"/>
	<path d="M50.163,127.812l-2,0.125c-0.312,0.02-0.55,0.288-0.531,0.601c0.02,0.312,0.289,0.55,0.601,0.53l2-0.125
		c0.312-0.02,0.55-0.288,0.531-0.601C50.744,128.03,50.475,127.793,50.163,127.812z"/>
	<path d="M48.605,130.244c-0.143,0.258-0.092,0.566,0.153,0.73c0.428,0.285,1.699,0.346,2.69,0.346c0.313,0,0.567-0.254,0.567-0.567
		c0-0.314-0.254-0.566-0.567-0.566c-0.826-0.001-1.861-0.068-2.085-0.17C49.094,129.895,48.748,129.985,48.605,130.244z"/>
	<path d="M52.548,132.311l-2.875,0.125c-0.313,0.014-0.556,0.278-0.542,0.591c0.014,0.313,0.278,0.556,0.591,0.542l2.875-0.125
		c0.313-0.014,0.556-0.278,0.542-0.591C53.125,132.54,52.861,132.298,52.548,132.311z"/>
	<path d="M58.66,109.889c-2.033,1.196-6.685,2.428-6.732,2.44c-0.303,0.08-0.483,0.39-0.404,0.693
		c0.08,0.303,0.39,0.483,0.693,0.404c0.197-0.052,4.851-1.285,7.018-2.56c0.27-0.159,0.36-0.506,0.201-0.776
		C59.278,109.821,58.93,109.73,58.66,109.889z"/>
	<path d="M56.917,112.458l-4.338,0.991c0.305-0.07,0.602,0.122,0.671,0.428c0.069,0.305-0.129,0.611-0.434,0.681l4.412-1.009
		c0.305-0.07,0.466-0.366,0.397-0.671C57.556,112.571,57.222,112.388,56.917,112.458z"/>
	<path d="M57.06,114.203c-0.992,0.248-3.124,0.445-3.457,0.38c-0.294-0.057-0.604,0.118-0.68,0.407
		c-0.076,0.289,0.062,0.581,0.346,0.676c0.612,0.204,3.26-0.161,4.067-0.363c0.304-0.076,0.488-0.384,0.412-0.688
		C57.672,114.311,57.364,114.127,57.06,114.203z"/>
	<path d="M55.267,117.05c-0.565,0.19-1.148,0.386-1.444,0.386c-0.313,0-0.567,0.254-0.567,0.567c0,0.313,0.254,0.567,0.567,0.567
		c0.481,0,1.095-0.206,1.805-0.445c0.772-0.26,1.648-0.555,2.32-0.555c0.313,0,0.567-0.254,0.567-0.567
		c0-0.313-0.254-0.567-0.567-0.567C57.09,116.436,56.121,116.762,55.267,117.05z"/>
	<path d="M54.624,118.972c-0.293,0.11-0.441,0.437-0.332,0.729c0.11,0.293,0.437,0.442,0.729,0.332
		c0.019-0.007,1.897-0.703,3.125-0.591c0.312,0.028,0.587-0.201,0.616-0.513c0.028-0.312-0.201-0.587-0.513-0.616
		C56.762,118.178,54.71,118.939,54.624,118.972z"/>
	<path d="M58.987,120.727c-0.382,0.153-2.411,0.436-3.729,0.588c-0.311,0.036-0.534,0.317-0.498,0.628
		c0.036,0.311,0.317,0.534,0.628,0.498c0.555-0.064,3.359-0.397,4.02-0.662c0.291-0.116,0.432-0.446,0.316-0.737
		C59.608,120.751,59.278,120.61,58.987,120.727z"/>
	<path d="M59.447,123.119c-0.287,0.128-1.935,0.33-3.296,0.444c-0.312,0.026-0.544,0.3-0.518,0.612
		c0.026,0.312,0.3,0.544,0.612,0.518c0.935-0.078,3.167-0.288,3.706-0.558c0.276-0.138,0.381-0.466,0.25-0.745
		C60.069,123.111,59.729,122.994,59.447,123.119z"/>
	<path d="M59.394,124.34l-2.675,0.606c0.305-0.069-0.465,0.377-0.396,0.682c0.069,0.305,0.91,0.362,0.604,0.433l2.825-0.645
		c0.305-0.07,0.442-0.358,0.373-0.664C60.056,124.447,59.699,124.271,59.394,124.34z"/>
	<path d="M60.342,125.821l-2.625,0.5c-0.308,0.059-0.51,0.355-0.451,0.663c0.059,0.308,0.355,0.509,0.663,0.45l2.625-0.5
		c0.308-0.059,0.509-0.355,0.451-0.663C60.946,125.964,60.649,125.763,60.342,125.821z"/>
	<path d="M57.508,128.343c-0.02,0.311,0.253,0.582,0.565,0.602l0.488,0.031c1.559,0.118,2.319,0.128,2.702-0.127
		c0.237-0.158,0.28-0.449,0.153-0.705c-0.127-0.255-0.464-0.357-0.734-0.265c-0.283,0.099-1.556,0.003-2.035-0.034l-0.573-0.035
		C57.761,127.792,57.528,128.03,57.508,128.343z"/>
	<path d="M61.669,129.436l-2.5,0.125c-0.312,0.016-0.554,0.282-0.538,0.595c0.016,0.312,0.282,0.554,0.595,0.538l2.5-0.125
		c0.312-0.016,0.554-0.282,0.538-0.595S61.982,129.421,61.669,129.436z"/>
	<path d="M62.641,131.563l-2.5,0.25c-0.312,0.031-0.538,0.31-0.507,0.621c0.031,0.311,0.309,0.539,0.621,0.508l2.5-0.25
		c0.312-0.031,0.539-0.31,0.507-0.621C63.231,131.76,62.953,131.532,62.641,131.563z"/>
	<path d="M67.695,105.951c-1.668,0.385-5.939,2.455-6.12,2.542c-0.282,0.137-0.399,0.476-0.262,0.757
		c0.137,0.282,0.476,0.399,0.757,0.262c0.044-0.021,4.336-2.101,5.88-2.457c0.305-0.07,0.496-0.375,0.425-0.68
		C68.305,106.07,68,105.88,67.695,105.951z"/>
	<path d="M68.385,108.564l-5.656,0.879c0.31-0.048-0.267,0.25-0.219,0.559c0.048,0.309,0.715,0.511,0.406,0.559l5.594-0.871
		c0.31-0.048,0.546-0.341,0.497-0.65C68.96,108.731,68.694,108.517,68.385,108.564z"/>
	<path d="M68.01,110.689l-1.934,0.36c-0.838,0.177-2.106,0.444-2.394,0.397c-0.306-0.051-0.604,0.151-0.659,0.456
		c-0.056,0.305,0.135,0.596,0.438,0.656c0.467,0.094,1.387-0.091,2.849-0.399l1.825-0.343c0.308-0.058,0.552-0.36,0.494-0.668
		C68.572,110.841,68.318,110.632,68.01,110.689z"/>
	<path d="M67.627,112.315c-1.025,0.128-3.829,0.858-3.948,0.889c-0.303,0.079-0.484,0.389-0.406,0.691
		c0.079,0.303,0.389,0.484,0.692,0.406c0.028-0.008,2.851-0.742,3.802-0.861c0.311-0.039,0.531-0.322,0.492-0.633
		C68.221,112.497,67.938,112.276,67.627,112.315z"/>
	<path d="M67.667,114.208c-0.675,0.193-2.771,0.412-3.521,0.48c-0.312,0.028-0.542,0.304-0.513,0.616
		c0.028,0.312,0.304,0.541,0.616,0.513c0.115-0.01,2.814-0.258,3.729-0.52c0.301-0.086,0.475-0.399,0.389-0.701
		C68.282,114.296,67.968,114.122,67.667,114.208z"/>
	<path d="M64.535,116.437c-0.312,0.021-0.549,0.291-0.528,0.603c0.021,0.312,0.291,0.549,0.603,0.528
		c1.755-0.117,3.762-0.201,4.081-0.139c0.301,0.059,0.607-0.131,0.673-0.431c0.066-0.3-0.106-0.596-0.404-0.67
		C68.431,116.196,65.69,116.361,64.535,116.437z"/>
	<path d="M64.665,118.958c-0.094,0.295,0.06,0.609,0.354,0.708c0.391,0.13,1.377,0.154,3.179,0.154c0.313,0,0.567-0.254,0.567-0.567
		c0-0.313-0.254-0.567-0.567-0.567c-0.685,0-2.503,0-2.822-0.096C65.079,118.5,64.758,118.663,64.665,118.958z"/>
	<path d="M64.631,121.356c-0.012,0.313,0.232,0.577,0.544,0.588c0.782,0.03,3.373,0.118,3.91-0.017
		c0.301-0.075,0.479-0.376,0.408-0.678c-0.071-0.302-0.378-0.489-0.681-0.422c-0.29,0.064-2.09,0.041-3.592-0.016
		C64.907,120.799,64.643,121.043,64.631,121.356z"/>
	<path d="M68.979,123.194c-0.565,0.094-2.45,0.027-3.128-0.007c-0.312-0.016-0.579,0.226-0.595,0.538
		c-0.016,0.312,0.226,0.579,0.538,0.595c0.262,0.013,2.584,0.124,3.372-0.007c0.309-0.051,0.518-0.343,0.466-0.652
		C69.581,123.351,69.289,123.142,68.979,123.194z"/>
	<path d="M66.131,125.725c-0.016,0.312,0.226,0.579,0.538,0.595l2.5,0.125c0.312,0.016,0.579-0.226,0.595-0.538
		s-0.226-0.579-0.538-0.595l-2.5-0.125C66.414,125.171,66.147,125.412,66.131,125.725z"/>
	<path d="M66.259,127.821c-0.031,0.312,0.196,0.59,0.507,0.621l2.5,0.25c0.312,0.031,0.59-0.196,0.621-0.508
		c0.031-0.312-0.196-0.59-0.507-0.621l-2.5-0.25C66.568,127.282,66.29,127.51,66.259,127.821z"/>
	<path d="M72.647,105.188c-0.312,0.027-0.542,0.303-0.514,0.615c0.027,0.312,0.303,0.542,0.615,0.514
		c1.536-0.136,5.817-0.406,7.169-0.02c0.301,0.086,0.615-0.088,0.701-0.389c0.086-0.301-0.088-0.615-0.389-0.701
		C78.398,104.685,72.881,105.167,72.647,105.188z"/>
	<path d="M72.864,107.544c-0.016,0.313,1.002,0.666,0.689,0.65l4.832,0.247c0.312,0.016,0.612-0.222,0.628-0.534
		c0.016-0.313-0.191-0.577-0.503-0.593l-4.919-0.253C73.904,107.078,72.88,107.231,72.864,107.544z"/>
	<path d="M73.698,109.378c-0.048,0.309,0.594,0.607,0.285,0.559l4.895,0.753c0.31,0.048,0.583-0.167,0.631-0.476
		c0.047-0.31-0.181-0.602-0.49-0.649l-4.855-0.747C74.473,108.866,73.745,109.068,73.698,109.378z"/>
	<path d="M73.881,111.503c0,0.313,0.254,0.567,0.567,0.567c0.378,0,3.025,0.252,3.926,0.589c0.293,0.11,0.62-0.039,0.73-0.332
		c0.11-0.293-0.039-0.62-0.332-0.73c-1.105-0.415-3.937-0.661-4.324-0.661C74.135,110.936,73.881,111.19,73.881,111.503z"/>
	<path d="M73.882,113.337c-0.022,0.312,0.213,0.584,0.525,0.606c0.951,0.068,3.584,0.307,4.341,0.59
		c0.293,0.11,0.62-0.039,0.73-0.332c0.11-0.293-0.039-0.62-0.332-0.73c-1.047-0.393-4.292-0.633-4.659-0.66
		C74.176,112.79,73.905,113.025,73.882,113.337z"/>
	<path d="M74.885,115.433c-0.039,0.311,0.182,0.594,0.492,0.633c0.736,0.092,2.084,0.329,2.567,0.569
		c0.28,0.14,0.621,0.027,0.76-0.253c0.14-0.28,0.027-0.621-0.253-0.76c-0.813-0.407-2.719-0.654-2.933-0.681
		C75.207,114.901,74.924,115.122,74.885,115.433z"/>
	<path d="M73.528,117.472c-0.087,0.301,0.088,0.615,0.389,0.701c0.366,0.105,3.606,1.022,4.656,1.022
		c0.313,0,0.567-0.254,0.567-0.567c0-0.313-0.254-0.567-0.567-0.567c-0.675,0-2.968-0.585-4.344-0.978
		C73.927,116.997,73.614,117.171,73.528,117.472z"/>
	<path d="M74.049,119.535c-0.12,0.289,0.017,0.621,0.305,0.741c0.168,0.07,1.671,0.679,2.789,0.539
		c0.311-0.039,0.531-0.322,0.492-0.633c-0.039-0.311-0.322-0.531-0.633-0.492c-0.694,0.087-1.832-0.303-2.212-0.461
		C74.501,119.109,74.169,119.247,74.049,119.535z"/>
	<path d="M74.135,121.628c-0.076,0.304,0.345,0.623,0.041,0.548l2.535,0.633c0.304,0.076,0.585-0.114,0.661-0.418
		c0.076-0.304-0.135-0.618-0.438-0.693l-2.465-0.617C74.772,121.156,74.211,121.324,74.135,121.628z"/>
	<path d="M73.53,123.715c-0.09,0.3,0.08,0.616,0.38,0.706l2.5,0.75c0.3,0.09,0.616-0.08,0.706-0.38c0.09-0.3-0.08-0.616-0.38-0.706
		l-2.5-0.75C73.936,123.245,73.62,123.415,73.53,123.715z"/>
	<path d="M73.394,125.886c-0.064,0.307,0.068,0.59,0.375,0.655l2.45,0.52c-0.306-0.066,0.498-0.085,0.563-0.391
		c0.064-0.307-0.66-0.788-0.354-0.725l-2.3-0.48C73.821,125.401,73.458,125.58,73.394,125.886z"/>
	<path d="M72.509,128.193c-0.033,0.312,0.141,0.582,0.452,0.615l2.446,0.26c-0.311-0.033,0.591-0.212,0.624-0.523
		c0.033-0.311-0.854-0.64-0.543-0.607l-2.304-0.24C72.873,127.665,72.542,127.883,72.509,128.193z"/>
	<path d="M82.778,105.596c-0.087,0.301,0.087,0.615,0.388,0.702c2.136,0.617,5.774,1.783,6.442,2.284
		c0.25,0.188,0.605,0.137,0.793-0.113c0.189-0.251,0.138-0.605-0.113-0.794c-1.053-0.789-6.222-2.297-6.808-2.466
		C83.179,105.122,82.865,105.295,82.778,105.596z"/>
	<path d="M83.024,107.737c-0.078,0.303,0.104,0.612,0.407,0.69c1.181,0.304,4.427,1.255,5.265,2
		c0.234,0.208,0.593,0.187,0.801-0.047c0.208-0.234,0.187-0.592-0.047-0.8c-1.193-1.06-5.274-2.132-5.735-2.25
		C83.411,107.251,83.102,107.434,83.024,107.737z"/>
	<path d="M83.659,109.829c-0.097,0.298,0.067,0.617,0.365,0.713l3.875,1.25c0.298,0.096,0.617-0.067,0.713-0.366
		c0.097-0.298-0.067-0.617-0.365-0.713l-3.875-1.25C84.074,109.367,83.754,109.531,83.659,109.829z"/>
	<path d="M83.665,111.559c-0.106,0.294,0.045,0.62,0.34,0.727c0.026,0.01,2.705,0.987,3.643,1.573
		c0.266,0.166,0.615,0.085,0.781-0.181c0.166-0.265,0.085-0.615-0.18-0.781c-1.039-0.649-3.742-1.635-3.857-1.677
		C84.097,111.113,83.772,111.265,83.665,111.559z"/>
	<path d="M83.152,113.85c-0.085,0.301,0.092,0.614,0.393,0.699c1.175,0.329,3.223,0.973,3.714,1.301
		c0.261,0.174,0.612,0.103,0.786-0.157c0.174-0.26,0.104-0.612-0.157-0.786c-0.802-0.535-3.708-1.357-4.037-1.449
		C83.549,113.373,83.236,113.549,83.152,113.85z"/>
	<path d="M82.528,115.764c-0.086,0.301,0.088,0.615,0.389,0.701c0.948,0.271,3.604,1.113,4.493,1.75
		c0.255,0.182,0.609,0.123,0.791-0.132c0.183-0.254,0.123-0.609-0.131-0.79c-1.232-0.881-4.694-1.876-4.842-1.918
		C82.927,115.288,82.614,115.463,82.528,115.764z"/>
	<path d="M82.531,117.921c-0.092,0.299,0.076,0.616,0.376,0.707c1.177,0.36,3.007,1.083,3.391,1.562
		c0.195,0.245,0.552,0.284,0.797,0.089c0.244-0.196,0.284-0.552,0.088-0.797c-0.737-0.923-3.415-1.776-3.943-1.938
		C82.939,117.453,82.622,117.621,82.531,117.921z"/>
	<path d="M82.135,119.613c-0.124,0.288,0.009,0.621,0.298,0.744c0.976,0.418,2.15,1.008,2.344,1.22
		c0.196,0.215,0.546,0.275,0.779,0.102c0.233-0.174,0.319-0.468,0.17-0.718c-0.229-0.38-1.187-0.934-2.847-1.646
		C82.591,119.192,82.259,119.326,82.135,119.613z"/>
	<path d="M81.532,121.332c-0.094,0.299,0.071,0.617,0.37,0.711c0.701,0.222,1.58,0.586,1.771,0.777c0.221,0.221,0.58,0.221,0.801,0
		c0.222-0.221,0.222-0.58,0-0.802c-0.478-0.478-1.828-0.929-2.23-1.056C81.945,120.868,81.626,121.034,81.532,121.332z"/>
	<path d="M79.848,123.239c-0.054,0.309,0.153,0.602,0.461,0.656c0.504,0.088,1.946,0.396,2.555,0.761
		c0.269,0.161,0.617,0.074,0.778-0.195c0.161-0.269,0.073-0.616-0.194-0.778c-0.899-0.538-2.738-0.869-2.944-0.905
		C80.195,122.724,79.901,122.931,79.848,123.239z"/>
	<path d="M78.406,125.544c-0.053,0.309,0.629,0.654,0.32,0.601l2.918,0.5c0.309,0.053,0.6-0.155,0.652-0.464
		c0.054-0.309-0.156-0.603-0.465-0.655l-2.913-0.499C79.228,125.081,78.459,125.235,78.406,125.544z"/>
	<path d="M76.925,127.777c-0.032,0.312,0.194,0.59,0.506,0.622c1.107,0.115,2.448,0.293,2.682,0.38
		c0.291,0.109,0.621-0.034,0.732-0.324c0.112-0.289-0.023-0.612-0.311-0.729c-0.442-0.177-2.236-0.377-2.986-0.454
		C77.236,127.24,76.957,127.466,76.925,127.777z"/>
	<path d="M91.636,107.776c-0.125,0.287,0.006,0.62,0.293,0.746c1.417,0.617,5.262,2.359,6.03,3c0.241,0.201,0.599,0.168,0.799-0.073
		c0.2-0.241,0.168-0.598-0.072-0.798c-1.033-0.86-5.768-2.934-6.304-3.167C92.095,107.358,91.762,107.49,91.636,107.776z"/>
	<path d="M91.644,109.093c-0.135,0.283-0.015,0.621,0.269,0.755c0.96,0.457,3.609,1.758,4.326,2.28
		c0.254,0.184,0.607,0.128,0.792-0.125c0.185-0.254,0.129-0.608-0.125-0.792c-0.948-0.69-4.361-2.317-4.507-2.386
		C92.117,108.69,91.779,108.81,91.644,109.093z"/>
	<path d="M91.531,110.294c-0.144,0.279,0.894,1.022,0.615,0.879l3.256,1.67c0.279,0.143,0.616,0.031,0.759-0.249
		c0.142-0.279,0.027-0.623-0.251-0.766l-3.244-1.663C92.944,110.309,91.673,110.016,91.531,110.294z"/>
	<path d="M92.211,112.296c-0.113,0.292,0.03,0.62,0.321,0.734c0.848,0.332,1.877,0.797,2.06,0.96c0.229,0.205,0.589,0.199,0.8-0.024
		c0.211-0.223,0.216-0.564-0.001-0.781c-0.377-0.376-1.835-0.972-2.444-1.211C92.655,111.861,92.326,112.005,92.211,112.296z"/>
	<path d="M92.107,114.026c-0.079,0.303,0.103,0.613,0.405,0.691c0.864,0.226,1.923,0.571,2.123,0.728
		c0.246,0.192,0.604,0.151,0.796-0.093c0.193-0.245,0.156-0.597-0.087-0.792c-0.474-0.38-2.068-0.816-2.546-0.94
		C92.496,113.542,92.186,113.724,92.107,114.026z"/>
	<path d="M92.316,115.833c-0.141,0.28-0.027,0.621,0.253,0.761c0.84,0.419,1.851,0.979,2.021,1.144
		c0.223,0.218,0.582,0.217,0.802-0.005c0.219-0.222,0.22-0.577,0-0.797c-0.37-0.369-1.865-1.131-2.314-1.357
		C92.796,115.439,92.456,115.553,92.316,115.833z"/>
	<path d="M92.781,117.711c-0.259,0.176,0.084,0.871-0.093,0.612l1.246,1.828c0.177,0.259,0.532,0.33,0.791,0.153
		c0.259-0.176,0.328-0.524,0.152-0.783l-1.254-1.838C93.8,117.941,93.04,117.535,92.781,117.711z"/>
	<path d="M91.815,119.378c-0.207,0.235-0.211,0.568,0.023,0.775l1.451,1.282c-0.234-0.207,0.534,0.136,0.741-0.099
		c0.207-0.234-0.243-0.973-0.009-0.766l-1.381-1.218C92.406,119.145,92.022,119.144,91.815,119.378z"/>
	<path d="M90.55,120.866c-0.122,0.288,0.014,0.621,0.302,0.743l2.167,0.916c0.288,0.122,0.621-0.013,0.743-0.301
		c0.122-0.288-0.014-0.621-0.302-0.743l-2.167-0.917C91.005,120.442,90.672,120.577,90.55,120.866z"/>
	<path d="M89.831,121.805c-0.155,0.272-0.062,0.618,0.211,0.773l2.333,1.333c0.271,0.155,0.618,0.061,0.773-0.211
		c0.155-0.272,0.062-0.618-0.211-0.773l-2.333-1.333C90.332,121.439,89.986,121.533,89.831,121.805z"/>
	<path d="M88.138,122.937c-0.128,0.286-0.021,0.611,0.264,0.739l2.442,1.095c-0.285-0.128,0.518-0.067,0.646-0.353
		c0.129-0.286-0.475-0.813-0.188-0.686l-2.392-1.072C88.624,122.534,88.266,122.652,88.138,122.937z"/>
	<path d="M86.553,124.11c-0.125,0.287,0.007,0.622,0.294,0.746l1.917,0.833c0.287,0.125,0.621-0.008,0.745-0.294
		c0.125-0.287-0.007-0.622-0.294-0.746l-1.917-0.833C87.011,123.691,86.677,123.824,86.553,124.11z"/>
	<path d="M85.955,125.4c-0.104,0.295,0.053,0.618,0.349,0.722l1.916,0.666c0.296,0.104,0.619-0.053,0.722-0.349
		c0.104-0.296-0.053-0.619-0.349-0.723l-1.916-0.666C86.38,124.948,86.057,125.104,85.955,125.4z"/>
	<path d="M84.55,127.533c-0.122,0.288,0.014,0.62,0.303,0.742l1.583,0.667c0.288,0.121,0.621-0.014,0.742-0.303
		c0.121-0.288-0.014-0.621-0.303-0.742l-1.583-0.667C85.004,127.109,84.672,127.244,84.55,127.533z"/>
	<path d="M99.307,111.519c-0.13,0.285-0.004,0.62,0.281,0.75c1.256,0.571,4.67,2.179,5.375,2.756c0.243,0.198,0.6,0.162,0.798-0.08
		c0.198-0.242,0.163-0.6-0.079-0.798c-0.947-0.774-5.148-2.694-5.625-2.911C99.772,111.107,99.437,111.233,99.307,111.519z"/>
	<path d="M98.881,112.787c-0.119,0.29,0.018,0.621,0.308,0.74c1.442,0.596,3.912,1.723,4.399,2.21c0.222,0.221,0.581,0.221,0.803,0
		c0.221-0.221,0.221-0.58,0-0.802c-0.79-0.79-4.111-2.185-4.769-2.457C99.332,112.359,99.001,112.497,98.881,112.787z"/>
	<path d="M99.399,114.666c-0.141,0.28-0.026,0.621,0.253,0.761c1.052,0.526,2.308,1.2,2.503,1.372
		c0.213,0.189,0.555,0.212,0.77,0.025c0.215-0.188,0.278-0.483,0.12-0.719c-0.081-0.122-0.251-0.375-2.885-1.692
		C99.879,114.272,99.539,114.385,99.399,114.666z"/>
	<path d="M98.99,116.253c-0.167,0.265,0.47,1.067,0.205,0.901l2.204,1.386c0.266,0.166,0.653,0.113,0.82-0.152
		c0.167-0.265,0.125-0.588-0.139-0.755l-2.296-1.448C100.049,116.352,99.157,115.988,98.99,116.253z"/>
	<path d="M99.031,118.211c-0.221,0.221,0.267,0.983,0.045,0.762l1.795,1.793c0.222,0.221,0.549,0.192,0.77-0.029
		c0.222-0.222,0.189-0.609-0.031-0.831l-1.705-1.707C100.125,118.421,99.252,117.99,99.031,118.211z"/>
	<path d="M98.362,120.34c-0.183,0.255-0.134,0.601,0.12,0.783l1.75,1.25c0.255,0.182,0.62,0.131,0.802-0.124
		c0.183-0.255,0.134-0.601-0.12-0.783l-1.75-1.25C98.909,120.034,98.543,120.085,98.362,120.34z"/>
	<path d="M97.446,121.358c-0.265,0.163-0.353,0.504-0.192,0.771c0.281,0.468,1.37,1.266,1.825,1.587
		c0.256,0.181,0.609,0.12,0.79-0.136c0.181-0.256,0.12-0.609-0.136-0.79c-0.629-0.445-1.385-1.051-1.508-1.246
		C98.06,121.281,97.71,121.195,97.446,121.358z"/>
	<path d="M96.046,123.209c-0.116,0.29,0.025,0.621,0.315,0.737l1.25,0.5c0.291,0.116,0.621-0.025,0.737-0.316
		c0.116-0.291-0.025-0.621-0.315-0.737l-1.25-0.5C96.493,122.777,96.163,122.918,96.046,123.209z"/>
	<path d="M93.972,124.187c-0.128,0.286,0,0.621,0.285,0.749l2.416,1.084c0.286,0.128,0.621,0,0.75-0.286
		c0.128-0.285,0-0.621-0.285-0.749l-2.416-1.083C94.436,123.774,94.101,123.902,93.972,124.187z"/>
	<path d="M105.865,115.334c-0.094,0.299,0.073,0.617,0.372,0.71c0.165,0.052,4.055,1.264,5.167,1.435
		c0.525,0.081,0.65,0.212,0.651,0.213l-0.05-0.19c0.072,0.276,0.348,0.527,0.631,0.491c0.282-0.037,0.504-0.206,0.504-0.491
		c0-0.212-0.113-0.92-1.564-1.144c-0.823-0.127-3.631-0.97-5.001-1.397C106.276,114.869,105.957,115.035,105.865,115.334z"/>
	<path d="M105.778,116.436c-0.084,0.301,0.033,0.593,0.335,0.677l1.713,0.477c0.904,0.237,2.418,0.633,2.66,0.754
		c0.28,0.14,0.621,0.027,0.761-0.254c0.141-0.28,0.027-0.621-0.253-0.761c-0.324-0.162-1.352-0.436-2.881-0.837l-1.58-0.432
		C106.231,115.978,105.861,116.135,105.778,116.436z"/>
	<path d="M105.448,117.128c-0.123,0.288,0.527,0.938,0.24,0.815l3.464,1.484c0.288,0.123,0.652,0.003,0.774-0.284
		c0.124-0.288,0.021-0.607-0.267-0.73l-3.536-1.516C106.412,117.02,105.572,116.84,105.448,117.128z"/>
	<path d="M104.713,118.542c-0.116,0.291,0.025,0.621,0.315,0.737c0.221,0.088,2.504,0.936,3.307,1.036
		c0.311,0.039,0.594-0.182,0.633-0.492c0.039-0.311-0.182-0.594-0.492-0.633c-0.571-0.072-2.57-0.782-3.025-0.964
		C105.16,118.11,104.83,118.251,104.713,118.542z"/>
	<path d="M104.38,119.706c-0.118,0.29,0.021,0.621,0.312,0.739l2.25,0.917c0.29,0.118,0.621-0.021,0.739-0.311
		c0.118-0.29-0.021-0.621-0.311-0.739l-2.25-0.917C104.83,119.276,104.499,119.416,104.38,119.706z"/>
	<path d="M103.303,120.693c-0.125,0.287,0.007,0.621,0.293,0.746l1.918,0.834c0.287,0.124,0.62-0.007,0.745-0.294
		c0.125-0.287-0.007-0.621-0.294-0.746l-1.917-0.833C103.761,120.274,103.428,120.407,103.303,120.693z"/>
	<path d="M102.31,122.01c-0.134,0.283-0.013,0.622,0.27,0.755l1.583,0.75c0.283,0.134,0.622,0.013,0.756-0.27
		c0.134-0.283,0.013-0.622-0.27-0.755l-1.583-0.75C102.783,121.606,102.444,121.728,102.31,122.01z"/>
	<path d="M103.073,26.253c0,0,0.625-1.375,0.25-2.625s-1-6.375,0.25-9.25c0,0-2.125-1.125-3.375-2.75s-3.75-3.5-5.25-4.25l21.25-0.5
		c0,0,2.375-1,3.375,2.125s5.625,15.75,5.625,15.75l-2.75,1.25c0,0-1.25-2.625-3.125-1.875s-6.25,1-8.125,1.875
		s-3.875,2.125-3.875,2.125L103.073,26.253z"/>
</g>
</svg>
