<?xml version="1.0" encoding="iso-8859-1"?>
<!-- Generator: Adobe Illustrator 19.1.0, SVG Export Plug-In . SVG Version: 6.00 Build 0)  -->
<svg version="1.1" id="&#xB808;&#xC774;&#xC5B4;_1" xmlns="http://www.w3.org/2000/svg" xmlns:xlink="http://www.w3.org/1999/xlink"
	 x="0px" y="0px" viewBox="0 0 153.071 238.111" style="enable-background:new 0 0 153.071 238.111;" xml:space="preserve">
<rect style="fill:#E60012;" width="153.071" height="238.111"/>
<g>
	<path style="fill:#FFFFFF;" d="M7.785,15.888L7.619,99.055l0.166,121.668c0,0,0.834,9.332,9.5,9.832h119.167
		c0,0,8-0.498,8.833-9.832V16.388c0,0-0.333-7.834-10-8.834H16.952C16.952,7.555,9.452,7.388,7.785,15.888z"/>
	<path style="fill:#E60012;" d="M35.452,134.722c0,0,3.667,5.832,8.333,9.166c4.667,3.335-1.5,2.501-1.5,2.501l-10.167,8.334
		l0.5,6.166l8.333,6.334l8.833,4.5l3.25,2.332l-0.25,4.834l-0.333,4.834c0,0,0.5,1.834,1.333,2s6.5-0.668,7-0.668
		s11-3.832,11.5-3.832s13.667,1.832,13.667,1.832s9.666,5.834,12.666,6c3,0.168,8.334,0.834,10.667-0.166s10.499-6.666,11.833-7.334
		c1.334-0.666,8-5.832,8-5.832l-2.333-15l-3.5-11l-0.833-16.501l-3.167-2.792l3.833-7.875l-0.833-4.375c0,0,0.833-3.791-1.5-5.125
		c-2.333-1.333-6,1.834-6,1.834s-4.333,2.833-5,3c-0.667,0.166-11-2.5-11-2.5s1.167-5.667,1-9.5
		c-0.167-3.834,0.501-8.334,0.667-9.667c0,0-0.834-0.834-1.334,0c-0.5,0.833-4.834,4.667-6,5.833c-1.166,1.167-3.666,3.834-4.166,5
		c0,0-0.792-1.875-0.417-3.25s0.75-4.625,0.75-4.625s-6.375,5.625-8.5,8.375s-4,8-4.375,10.375l-6.125-1.125l-3.125-6.125
		c0,0-0.875-3.625-4.625-4.625c-3.75-1-5.5-0.125-6.375,2s-3.5,1.375-3.5,1.375l-5.625-2.625l-4.75,10.375l-0.5,4.5l-8.375,8.25
		l-1.375,4.25L35.452,134.722z"/>
	<path style="fill:#E60012;" d="M63.785,45.555c0,0-4.125,3.75-12.875,3.625s-14.625-1.25-15-1.25l1-1.125c0,0,4-2.375,6.25-5.125
		s5-5.25,8.75-5.625l7-5.375c0,0-1.625-5.5-1.125-9.625s3.25-11.125,3.25-11.125s2.625,3,3.625,4.125c1,1.125,5,6.625,5.75,7.25
		c0.75,0.625,6.75-1.75,6.75-1.75s2-3.625,2.875-5S82.41,9.68,82.41,9.68s3.125,4.375,4.25,6.25s3.75,6.125,3.125,15.5
		c0,0,5-3,5.375-3.25s4.375-2.25,5-2.25s7.875-2,7.875-2s6.25,0.375,7.875,0.125s5.5,0.625,5.5,0.625s-2.875,2.125-3.5,3.5
		s-4.375,7.125-9.5,9l0.375,8.875c0,0,2.75,1.75,4,3.75c0,0-2.625,5.375-9.625,7s-15.75-0.625-20.75-6l-4.125,1.25l-3.5-1.875
		l-2.25-0.875C72.535,49.305,64.91,46.43,63.785,45.555z"/>
	<path style="fill:#FDD000;" d="M71.66,45.68c0,0-5.125-5.75-5.25-8.875c0,0-2-2.5-6.125-5.125s-12.375-4.25-14.5-4.625
		c0,0-1,0-0.375,0.75s5.25,6.75,6.125,8.125s9.875,9.25,17.375,12c0,0,0.75,0.5,1.75-0.125C71.66,47.18,71.66,45.68,71.66,45.68z"/>
	<path style="fill:#FDD000;" d="M68.785,29.555c0,0,0-4,1-7.75s3.375-9.5,3.375-9.5s2.5,4.625,3.125,5.625s4.125,7.375,4.375,12.125
		c0,0-1.125,1.875-1.625,3.5c-0.5,1.625-0.75,4.625-0.75,4.625S71.035,31.305,68.785,29.555z"/>
	<path style="fill:#FDD000;" d="M77.91,37.555c0,0,0.5-4.125,1.625-5.625c1.125-1.5,2.375-4.875,2.75-7.25
		c0,0,2.375,3.25,3.125,5.125s1.125,5.125,1.125,5.125s-4.625,4.625-5.375,7.375L77.91,37.555z"/>
	<path style="fill:#FDD000;" d="M95.535,31.305l0.75-3.5l-0.625-0.25c0,0,1-3.625,4.75-5.625s10.375-3.125,10.375-3.125
		s-2.25,3.875-2.5,4.625s-2.5,4.25-5.875,6.125S95.535,31.305,95.535,31.305z"/>
	<path style="fill:#FDD000;" d="M92.91,38.555c0,0,9.125,1.625,15-0.875c0,0,4.875,1,6,1.875s1.75,1.375,1.75,1.375
		s-3.25,4.25-10.625,6s-13.625-0.125-17.25-1.625C87.785,45.305,92.285,41.305,92.91,38.555z"/>
	<path style="fill:#FDD000;" d="M93.285,124.055c0,0,4.75-4.375,5.5-8.25c0,0,2.875-0.875,6.75-1s6.875-0.625,6.875-0.625
		s-2.875,4.5-4,6.375s-7.125,11.5-15.625,14.5C92.785,135.055,93.66,128.805,93.285,124.055z"/>
	<path style="fill:#FDD000;" d="M67.16,110.18c0,0,4.5-0.625,8.875,8.125v3.625l-6.25,9.5c0,0-1.5-4.875-1.875-6.375
		s-0.25-2.75-0.125-3.625S68.16,113.43,67.16,110.18z"/>
	<path style="fill:#FDD000;" d="M50.785,121.805c0,0-1-3-1.125-5.25s-0.625-7.75-0.625-7.75s5.125,4.25,6.125,5.25
		s5.75,4.375,7.625,10.5c1.875,6.125,2,11.625,1,14.875l-6.75-1.875c0,0,0.875-4.75-1-9.375S50.785,121.805,50.785,121.805z"/>
	<path style="fill:#FDD000;" d="M82.66,153.304c0,0-2.75,0.25-4.5-1.5s-1.625-7.625-1.5-10.25s2-8.625,2-8.625l1.5-4.375l1.75-7
		c0,0,2.125,4,2.875,5.625s3.5,6.5,3.875,10.875s-1.375,10.375-2.375,11.5s-2.125,1.625-2.125,1.625S83.285,152.929,82.66,153.304z"
		/>
	<path style="fill:#FDD000;" d="M77.285,150.179c0,0-0.25-2.375-3.875-5.625c-3.625-3.25-5.75-4-9.625-5.125s-12-3.25-12.875-3.625
		s-0.375,0.5,0.25,1.125s2.75,4.375,3.875,5.875s4.25,5.875,8.25,8.5s8.75,3.125,11.25,2.625S77.535,151.554,77.285,150.179z"/>
	<path style="fill:#FDD000;" d="M62.41,150.554l-4.125-3.5c0,0-4.25,0.625-6.875-0.125s-4.375-0.875-6.5-0.375s-9.125,5.5-9.125,5.5
		l-3,4.375l-1.375,6.375l5.5,3.125l6.75-2.5l3.125-2.25l3.125-2.625l-0.625-0.75c0,0,3.875-3.125,7-4.75
		S62.41,150.554,62.41,150.554z"/>
	<path style="fill:#FDD000;" d="M55.41,166.679c0,0-5.375,0-7.375,0.25s-6,5.375-6,5.375l-0.25,5.125l0.25,1.875
		c0,0,2.75-1.625,4.125-1.875s6.625-2.625,6.875-3.375C53.035,174.054,53.785,169.054,55.41,166.679z"/>
	<path style="fill:#FDD000;" d="M58.66,179.304c0,0-0.75,3-0.5,3.75s0.125,4.75,0.125,4.75l3.25,1.875l5.125-4.5l2.5-7l2-4.875
		l-1-1.875C70.16,171.429,64.785,177.054,58.66,179.304z"/>
	<path style="fill:#FDD000;" d="M77.535,151.304c0,0-2.875,2.75-3.875,4.875s-1.25,8.625-1.5,9.875s-1.125,10-1.125,10l0.75,0.625
		l2.375-1l7.25-9.625l0.75-5.375c0,0,1-4.75,0.5-7.375C82.66,153.304,78.91,150.554,77.535,151.304z"/>
	<path style="fill:#FDD000;" d="M88.16,172.304c0,0,0.625,5.625,1.875,8.125s5.625,6.25,5.625,6.25l1.125-3.125l-0.75-5.125
		c0,0,0.375-7.5-1.125-11.5s-3.625-6.25-3.625-6.25l-2.375-1.875c0,0,0.625,4.5,0.5,7.125S88.66,170.929,88.16,172.304z"/>
	<path style="fill:#FDD000;" d="M92.41,161.429c0,0,3,6,3,6.75s1.625,1.75,1.625,1.75s5.625,2.75,7.75,3.75s9.375,3.5,9.375,3.5
		l4-0.875l-2-2.625l-0.875-1.875c0,0-2-6.5-4.875-8.375c0,0-2.875,1.375-7.625,1.125S92.41,161.429,92.41,161.429z"/>
	<path style="fill:#FDD000;" d="M86.66,150.054c0,0,12.5-1.5,16-2.125s10.75-3.75,12-4.625s1.5,1.25,1.5,1.25l-3,8.25
		c0,0-4,4-10.625,3.875s-14.875-5.625-14.875-5.625L86.66,150.054z"/>
	<path style="fill:#FDD000;" d="M90.91,140.43l1.25-4.625c0,0,6.375,0.125,15.5-3.75s12.875-7.25,14.625-13.875
		c0,0,2.25-0.5,2.5,2.625s-5.5,9.625-5.5,9.625s-4,4.375-11.375,7.125S91.785,140.68,90.91,140.43z"/>
	<path d="M96.096,27.122c-0.192,0.053-4.775,1.39-11.339,8.709c-6.595,7.357-6.92,14.401-6.93,14.698l-0.031,0.889l0.873-0.167
		c0.262-0.05,6.477-1.312,12.172-8.506c4.813-6.079,6.093-14.482,6.146-14.837l0.158-1.077L96.096,27.122z M85.812,36.778
		c4.409-4.917,7.849-6.99,9.527-7.804c-0.539,2.541-2.092,8.446-5.61,12.891c-4.079,5.153-8.474,7.08-10.363,7.714
		C79.693,47.464,80.956,42.194,85.812,36.778z"/>
	<path d="M17.706,6.846c-5.861,0-10.63,4.768-10.63,10.63v203.158c0,5.861,4.768,10.629,10.63,10.629h117.658
		c5.861,0,10.63-4.768,10.63-10.629V17.476c0-5.861-4.768-10.63-10.63-10.63H17.706z M8.494,220.634V17.476
		c0-5.08,4.133-9.213,9.213-9.213h117.658c5.08,0,9.212,4.133,9.212,9.213v203.158c0,5.08-4.132,9.211-9.212,9.211H17.706
		C12.627,229.845,8.494,225.714,8.494,220.634z"/>
	<path d="M63.744,26.424c0.021,0.409,0.557,10.098,4.618,16.19c4.128,6.191,9.91,7.105,10.154,7.142l0.208-1.402
		c-0.055-0.008-5.42-0.881-9.182-6.526c-2.892-4.337-3.91-10.849-4.238-13.851c1.678,1.343,5.368,4.294,5.368,4.294l1.054,0.839
		c2.783,2.193,6.595,5.198,8.576,9.729l1.299-0.568c-2.124-4.855-6.26-8.116-8.997-10.273l-1.038-0.826l-7.904-6.323L63.744,26.424z
		"/>
	<path d="M72.46,11.628c-0.022,0.055-2.194,5.582-3.357,9.735c-1.187,4.238-0.872,8.563-0.857,8.745L69.658,30
		c-0.001-0.015-0.04-0.557-0.04-1.428c0-1.583,0.129-4.253,0.85-6.827c0.785-2.806,2.031-6.225,2.749-8.13
		c1.036,1.982,2.94,5.571,4.134,7.481c1.454,2.326,2.576,5.993,2.576,8.303c0,0.152-0.005,0.298-0.016,0.438l1.414,0.101
		c0.183-2.552-1.062-6.855-2.772-9.593c-1.632-2.611-4.772-8.72-4.804-8.781l-0.715-1.394L72.46,11.628z"/>
	<path d="M81.743,24.221c0,1.168-1.445,5.71-2.729,7.796c-1.412,2.296-1.597,6.015-1.604,6.172l1.416,0.065
		c0.001-0.035,0.176-3.512,1.395-5.495c0.983-1.598,2.034-4.429,2.572-6.497c0.84,1.482,1.876,3.311,1.876,3.311
		c0.523,0.915,1.103,3.755,1.103,4.902c0,0.118-0.006,0.219-0.02,0.297l1.398,0.233c0.205-1.228-0.543-4.897-1.251-6.135
		l-4.157-7.335V24.221z"/>
	<path d="M44.087,27.523c0.05,0.057,4.998,5.67,6.952,8.44c2.059,2.918,12.343,11.832,23.495,14.975
		c0.173,0.675,0.543,2.335,0.543,4.283c0,4.072,1.938,24.99,10.891,45.616l1.301-0.564c-8.858-20.404-10.775-41.037-10.775-45.051
		c0-2.742-0.669-4.949-0.697-5.042l-0.115-0.374l-0.378-0.102c-10.964-2.945-21.102-11.72-23.105-14.558
		c-1.405-1.991-4.19-5.267-5.807-7.136c2.318,0.351,6.463,1.112,10.314,2.543c5.551,2.062,8.973,6.705,9.006,6.752l1.148-0.832
		c-0.148-0.205-3.695-5.032-9.661-7.249c-5.85-2.174-12.238-2.847-12.507-2.875l-1.802-0.185L44.087,27.523z"/>
	<path d="M60.449,9.488c-0.013,0.039-1.357,3.915-2.846,9.208c-1.544,5.491,0.911,12.314,1.017,12.602l1.331-0.487
		c-0.019-0.051-1.435-3.993-1.435-8.107c0-1.226,0.125-2.466,0.451-3.625c0.979-3.483,1.886-6.315,2.395-7.857
		c0.849,1.11,2.212,2.849,3.4,4.145c1.862,2.031,4.047,5.064,4.33,6.341l1.385-0.308c-0.406-1.826-3.08-5.257-4.67-6.992
		c-1.786-1.948-4.095-5.077-4.118-5.108l-0.798-1.083L60.449,9.488z"/>
	<path d="M81.954,9.31c-0.012,0.031-1.155,3.11-2.585,5.175c-1.544,2.229-2.552,5.39-2.593,5.523l1.352,0.427
		c0.01-0.03,0.986-3.092,2.406-5.143c0.947-1.368,1.752-3.085,2.242-4.233c1.043,1.558,2.965,4.451,4.237,6.533
		c1.188,1.944,2.339,5.965,2.339,9.949c0,1.541-0.173,3.076-0.581,4.483l1.361,0.396c1.598-5.505-0.083-12.578-1.91-15.567
		c-1.821-2.98-4.985-7.648-5.018-7.695l-0.774-1.141L81.954,9.31z"/>
	<path d="M45.312,38.693l-2.436,2.458c-2.074,2.227-4.218,4.529-8.7,6.417l0.275,1.361c0.046,0,4.665,0.009,8.892,0.659
		c2.19,0.336,13.494,1.753,21.011-3.452l-0.807-1.165c-7.076,4.898-17.893,3.538-19.989,3.216c-2.252-0.347-4.555-0.513-6.289-0.596
		c3.094-1.741,4.987-3.697,6.643-5.475l2.344-2.368c2.923-2.615,5.871-2.818,5.9-2.82l-0.077-1.415
		C51.942,35.521,48.627,35.727,45.312,38.693z"/>
	<path d="M111.39,18.015c-0.237,0.021-5.862,0.541-10.273,2.916c-4.489,2.418-6.556,6.808-6.642,6.993l1.286,0.595
		c0.02-0.042,1.966-4.153,6.027-6.34c2.879-1.551,6.381-2.262,8.297-2.56c-0.977,1.584-2.782,4.363-4.661,6.463
		c-3.124,3.49-7.651,4.592-10.072,4.938l0.201,1.403c2.611-0.373,7.504-1.57,10.928-5.396c2.851-3.186,5.477-7.761,5.587-7.955
		l0.672-1.176L111.39,18.015z"/>
	<path d="M115.913,23.347c-2.946,0.163-7.911,0.165-7.961,0.165v1.417c0.05,0,5.054-0.002,8.039-0.167
		c1.587-0.088,3.075,0.019,4.106,0.133c-1.242,1.253-3.264,3.383-4.092,4.803c-1.029,1.765-5.199,6.702-12.052,8.334
		c-6.661,1.587-11.18-0.277-11.225-0.295l-0.557,1.303c0.199,0.085,4.964,2.073,12.109,0.371c7.074-1.684,11.562-6.623,12.948-8.999
		c1.103-1.891,4.84-5.475,4.878-5.511l0.997-0.954l-1.356-0.255C121.637,23.671,118.964,23.178,115.913,23.347z"/>
	<path d="M106.911,38.262c0.053,0.003,4.997,0.342,7.884,2.59c-0.901,1.073-3.658,3.729-10.018,5.35
		c-8.061,2.054-15.262-0.27-16.292-1.447l-1.066,0.934c1.37,1.565,9.047,4.094,17.708,1.887c8.688-2.214,11.169-6.323,11.271-6.497
		l0.283-0.486l-0.409-0.386c-3.151-2.977-9.03-3.345-9.279-3.359L106.911,38.262z"/>
	<path d="M108.04,46.72c2.215,0.816,3.453,2.542,3.901,3.28c-1.211,1.546-6.734,7.799-16.072,6.685
		c-10.564-1.261-13.153-7.46-13.259-7.724l-1.318,0.518c0.115,0.295,2.952,7.245,14.409,8.613
		c11.465,1.369,17.611-7.551,17.672-7.642l0.225-0.334l-0.171-0.364c-0.06-0.126-1.496-3.111-4.896-4.363L108.04,46.72z"/>
	<path d="M92.49,101.882l1.256-0.655c-11.935-22.89-10.931-51.028-10.919-51.31l-1.416-0.059
		C81.399,50.144,80.376,78.65,92.49,101.882z"/>
	<path d="M77.766,133.544c-0.048,0.185-1.181,4.568-1.681,7.733c-0.413,2.619-0.463,10.386,3.035,12.236
		c1.885,0.998,3.152,0.644,3.883,0.17c0.969-0.625,2.07-2.176,1.822-6.008c-0.195-3.041-1.441-5.28-2.762-7.65
		c-1.054-1.895-2.145-3.852-2.933-6.506l-0.726-2.441L77.766,133.544z M79.783,152.261c-1.831-0.969-2.484-4.867-2.484-8.041
		c0-1.024,0.067-1.973,0.187-2.723c0.266-1.684,0.725-3.75,1.092-5.311c0.705,1.733,1.51,3.2,2.248,4.527
		c1.293,2.323,2.41,4.33,2.586,7.052c0.021,0.326,0.031,0.641,0.031,0.941c0,1.922-0.426,3.279-1.209,3.785
		C81.485,152.978,80.488,152.634,79.783,152.261z"/>
	<path d="M49.396,135.994c0.032,0.04,3.163,3.999,4.626,6.276c1.467,2.284,6.819,9.895,14.068,11.965
		c3.939,1.125,6.647,1.047,8.278-0.24c1.167-0.92,1.714-2.426,1.625-4.473l-0.004-0.098l-0.031-0.096
		c-0.051-0.15-1.299-3.764-6.108-7.028c-4.035-2.739-8.904-3.896-11.814-4.587l-1.402-0.345l-10.615-3.122L49.396,135.994z
		 M68.48,152.873c-6.772-1.934-11.866-9.19-13.265-11.368c-0.884-1.376-2.305-3.276-3.357-4.651
		c2.391,0.703,6.412,1.886,6.412,1.886l1.44,0.354c2.814,0.668,7.525,1.788,11.345,4.38c4.084,2.772,5.359,5.79,5.525,6.221
		c0.004,0.09,0.006,0.18,0.006,0.268c0,1.383-0.359,2.34-1.096,2.922C74.26,153.855,71.901,153.851,68.48,152.873z"/>
	<path d="M71.913,160.82l-0.409,5.512c-0.278,4.301-0.567,8.75-1.228,10.842l1.227,0.66c0.042-0.053,4.18-5.178,6.633-7.795
		c2.48-2.646,6.229-6.645,5.188-16.889l-1.41,0.143c0.119,1.172,0.174,2.252,0.174,3.254c0,7.205-2.84,10.236-4.985,12.523
		c-1.456,1.555-3.472,3.949-4.916,5.693c0.331-2.357,0.54-5.356,0.733-8.34l0.405-5.467c0.46-4.762,3.034-6.82,3.061-6.842
		l-0.863-1.123C75.396,153.087,72.437,155.408,71.913,160.82z"/>
	<path d="M83.771,152.263c0.068,0.002,1.663,0.1,3.234,2.812c1.19,2.059,1.809,7.113,1.809,10.824c0,1.645-0.121,3.023-0.367,3.764
		c0,0-1.481,4.439-2.303,6.906c-0.225-0.541-0.484-1.137-0.812-1.869c-0.703-1.562-1.498-3.334-2.037-5.027
		c-0.453-1.424-0.586-2.889-0.586-4.115c0-1.734,0.266-3,0.27-3.021l-1.385-0.299c-0.035,0.164-0.859,4.061,0.351,7.865
		c0.563,1.771,1.377,3.582,2.095,5.18c0.674,1.5,1.371,3.053,1.371,3.606l1.381,0.223l3-8.998
		c0.913-2.738,0.386-12.387-1.559-15.746c-2.015-3.48-4.348-3.521-4.446-3.521L83.771,152.263z"/>
	<path d="M81.426,120.573c-0.01,0.046-1.005,4.662-2.144,7.914c-1.192,3.409-1.205,6.601-1.205,6.734h1.416
		c0-0.03,0.018-3.094,1.127-6.266c0.665-1.899,1.262-4.168,1.667-5.827c0.789,2.02,1.96,4.936,2.697,6.41
		c0.997,1.992,3.137,6.271,3.137,10.868c0,0.779-0.062,1.568-0.201,2.357c-1.033,5.86-2.546,7.124-4.025,7.618l0.448,1.344
		c2.593-0.863,4.033-3.389,4.974-8.715c1.041-5.899-1.836-11.65-3.064-14.106c-1.138-2.273-3.447-8.372-3.471-8.434l-0.851-2.25
		L81.426,120.573z"/>
	<path d="M73.68,124.339c-1.479,2.119-3.321,4.756-4.552,7.782c-2.283,5.622,1.095,10.624,1.24,10.836l1.168-0.804
		c-0.023-0.034-1.767-2.634-1.767-6.014c0-1.1,0.184-2.282,0.674-3.485c1.168-2.878,2.96-5.442,4.399-7.504
		c0.534-0.765,1.004-1.447,1.403-2.079c0.144,0.806,0.326,1.652,0.543,2.232l0.357,0.89c0.531,1.292,1.476,3.592,1.476,4.99
		c0,0.148-0.011,0.286-0.033,0.411l1.395,0.254c0.312-1.72-0.794-4.412-1.526-6.194l-0.341-0.849
		c-0.463-1.234-0.789-4.133-0.792-4.162l-1.395-0.081C75.735,121.396,74.783,122.76,73.68,124.339z"/>
	<path d="M89.674,97.669c-0.248,0.2-6.128,4.967-10.468,11.145c-4.441,6.318-3.659,12.887-3.624,13.163l1.406-0.179
		c-0.002-0.017-0.055-0.467-0.055-1.227c0-2.116,0.405-6.639,3.431-10.943c2.777-3.952,6.256-7.348,8.35-9.246
		c-0.466,1.66-0.98,3.822-0.98,5.342c0,0.13,0.004,0.256,0.012,0.376l0.196,1.586c0.232,1.654,0.594,4.211,0.594,7.102
		c0,4.211-0.766,9.13-3.807,12.994l1.113,0.877c5.502-6.989,4.101-16.927,3.503-21.171l-0.186-1.482
		c-0.154-2.329,1.611-7.504,1.629-7.557l0.798-2.322L89.674,97.669z"/>
	<path d="M93.658,100.682c-4.609,3.927-5.678,7.527-5.722,7.678l1.362,0.392c0.01-0.033,1.024-3.366,5.279-6.991
		c2.146-1.828,3.747-3.449,4.864-4.674c-0.352,1.7-0.711,3.785-0.711,5.226c0,0.161,0.004,0.313,0.014,0.456l0.036,0.494
		c0.104,1.351,0.157,2.643,0.157,3.878c0,7.925-2.146,13.468-6.398,16.505l0.824,1.154c5.347-3.819,7.645-11.102,6.831-21.646
		l-0.036-0.478c-0.156-2.358,1.298-8.053,1.312-8.11l-1.261-0.592C100.189,94.002,98.029,96.958,93.658,100.682z"/>
	<path d="M88.929,115.366c0.037,0.04,3.655,4.122,3.814,12.868c0.16,8.782-4.464,14.651-4.511,14.709l1.104,0.889
		c0.204-0.253,4.993-6.307,4.824-15.623c-0.171-9.329-4.023-13.623-4.188-13.801L88.929,115.366z"/>
	<path d="M33.388,132.983c0.032,0.042,3.214,4.224,5.868,7.209c2.545,2.863,9.555,9.333,19.652,7.561l-0.245-1.396
		c-9.394,1.648-15.96-4.42-18.348-7.106c-1.645-1.851-3.498-4.17-4.658-5.65c1.86,0.29,4.36,0.542,7.515,0.855l1.376,0.137
		c4.473,0.447,5.597,2.435,5.608,2.456l1.263-0.643c-0.055-0.11-1.402-2.691-6.73-3.223l-1.376-0.137
		c-4.312-0.429-7.427-0.738-9.189-1.179l-1.956-0.489L33.388,132.983z"/>
	<path d="M52.718,154.47c-3.152,2.156-4.807,3.477-4.876,3.531l-2.042,1.633l2.587-0.379c0.055-0.008,5.557-0.791,9.515,0.475
		c6.015,1.924,10.898,2.252,14.926,1.002l-0.42-1.354c-3.742,1.16-8.346,0.834-14.075-0.998c-2.533-0.811-5.544-0.857-7.628-0.754
		c0.75-0.547,1.645-1.188,2.812-1.986c3.05-2.088,9.267-4.227,9.329-4.248l-0.459-1.342C62.127,150.14,55.928,152.273,52.718,154.47
		z"/>
	<path d="M41.731,148.128l-8.228,5.348l1.842,0.279c0.054,0.008,5.473,0.832,7.564,1.477l0.37,0.115
		c2.236,0.693,5.616,1.74,8.461,1.238l-0.246-1.396c-2.507,0.443-5.69-0.543-7.796-1.195l-0.373-0.117
		c-1.414-0.434-4.128-0.926-5.948-1.229c1.823-1.186,5.126-3.332,5.126-3.332c3.566-2.326,7.183-2.059,7.219-2.055l0.122-1.412
		C49.68,145.833,45.724,145.525,41.731,148.128z"/>
	<path d="M36.14,157.199c-2,1.834-3.644,3.637-3.712,3.713l-1.077,1.184l1.602,0.002c0.025,0,2.595,0.006,4.313,0.475l0.299,0.084
		c2.156,0.611,7.884,2.238,13.244-3.623l-1.046-0.957c-4.769,5.217-9.704,3.814-11.811,3.217l-0.313-0.088
		c-0.987-0.27-2.165-0.398-3.101-0.463c0.662-0.682,1.57-1.59,2.56-2.498c1.854-1.699,6.179-2.996,6.223-3.01l-0.403-1.359
		C42.727,153.931,38.236,155.277,36.14,157.199z"/>
	<path d="M48.235,166.355c-1.215-0.201-2.796-0.227-3.922-0.215c0.986-1.457,3.06-4.521,3.06-4.521l-1.174-0.795l-4.631,6.846
		l1.422-0.074c0.031-0.002,3.114-0.158,5.014,0.158c1.588,0.266,14.949,0.369,20.824-6.574l-1.082-0.916
		C62.622,166.318,50.456,166.726,48.235,166.355z"/>
	<path d="M52.244,174.529c-0.167,4.662,0.332,9.713,0.336,9.764l0.183,1.83l1.092-1.48c0.022-0.031,2.262-3.045,4.413-4.121
		l0.647-0.314c3.049-1.469,11.15-5.369,13.865-12.396l-1.322-0.512c-2.513,6.504-10.246,10.229-13.158,11.631l-0.666,0.324
		c-1.446,0.723-2.846,2.113-3.785,3.172c-0.103-1.441-0.224-3.605-0.224-5.883c0-0.652,0.01-1.311,0.033-1.963
		c0.155-4.35,2.481-7.211,2.504-7.24l-1.09-0.906C54.966,166.564,52.417,169.675,52.244,174.529z"/>
	<path d="M43.585,173.111c-0.485,3.074-1.302,5.707-1.31,5.732l-0.619,1.982l1.702-1.191c0.016-0.01,1.611-1.121,2.842-1.584
		l1.102-0.311c1.734-0.443,4.355-1.111,6.185-3.221l-1.071-0.928c-1.539,1.773-3.9,2.377-5.464,2.773l-1.25,0.359
		c-0.528,0.197-1.077,0.488-1.585,0.775c0.275-1.076,0.611-2.547,0.868-4.168c0.454-2.875,3.576-5.723,3.608-5.75l-0.949-1.053
		C47.501,166.658,44.118,169.736,43.585,173.111z"/>
	<path d="M63.119,184.681l-0.621,0.496c-0.819,0.684-1.459,1.307-1.984,1.848c-0.043-0.912-0.161-2.018-0.549-3.338
		c-0.298-1.012-0.388-1.887-0.388-2.572c0-1.037,0.206-1.644,0.209-1.654l-1.333-0.48c-0.03,0.084-0.736,2.086,0.153,5.107
		c0.773,2.631,0.482,4.674,0.479,4.693l-0.398,2.666l1.658-2.123c0.011-0.016,1.151-1.465,3.061-3.059l0.588-0.469
		c2.154-1.69,5.76-4.516,7.16-14.477l-1.403-0.197C68.429,180.519,65.233,183.023,63.119,184.681z"/>
	<path d="M43.413,117.12c0.027,0.295,0.687,7.283,2.02,12.444c1.409,5.459,6.39,7.405,6.601,7.485l0.504-1.324
		c-0.045-0.018-4.512-1.783-5.733-6.515c-0.938-3.633-1.542-8.289-1.813-10.664c1.463,1.037,3.886,2.734,5.742,3.936
		c2.179,1.41,6.077,6.024,6.077,12.215c0,0.829-0.07,1.686-0.224,2.569l1.396,0.242c1.369-7.871-3.248-14.124-6.479-16.216
		c-2.786-1.803-6.93-4.784-6.971-4.813l-1.264-0.91L43.413,117.12z"/>
	<path d="M47.931,108.393c0.011,0.046,1.146,4.627,1.146,8.162c0,3.881,1.919,6.194,2.001,6.291l1.083-0.914
		c-0.017-0.02-1.667-2.039-1.667-5.377c0-2.187-0.394-4.662-0.729-6.383c1.61,1.415,3.883,3.413,3.883,3.413l0.682,0.569
		c1.988,1.617,6.125,4.98,8.274,12.431c0.89,3.088,1.17,5.608,1.17,7.557c0,3.252-0.778,4.907-0.791,4.934l1.269,0.631
		c0.094-0.188,2.261-4.683-0.287-13.514c-2.272-7.877-6.642-11.43-8.741-13.138l-0.635-0.529l-7.209-6.336L47.931,108.393z"/>
	<path d="M56.514,106.519c-1.915,3.134-1.937,7.198-1.937,7.37l1.417,0c0-0.038,0.026-3.843,1.729-6.631
		c0.678-1.109,2.021-1.174,2.761-1.114c2.077,0.168,4.74,1.714,5.811,4.345c1.074,2.635,0.875,6.408,0.714,9.438
		c-0.108,2.04-0.193,3.65,0.094,4.655l0.433,1.453c0.647,2.134,1.624,5.358,1.387,6.548l1.39,0.277
		c0.308-1.537-0.65-4.697-1.42-7.236l-0.427-1.431c-0.222-0.777-0.135-2.436-0.042-4.191c0.168-3.172,0.377-7.12-0.817-10.048
		c-1.348-3.308-4.578-5.026-7.009-5.223C58.787,104.584,57.298,105.236,56.514,106.519z"/>
	<path d="M66.891,109.515l0.116,1.413c0.217-0.016,5.359-0.285,8.445,8.203l1.332-0.484
		C73.306,109.079,67.151,109.493,66.891,109.515z"/>
	<path d="M112.113,113.367c-0.025,0.006-2.621,0.645-5.328,0.645c-3.077,0-7.293,0-8.834,1.541l1.002,1.002
		c1.127-1.126,5.324-1.126,7.832-1.126c1.583,0,3.054-0.195,4.121-0.378c-1.378,2.417-4.37,7.443-8.49,12.206
		c-5.104,5.903-9.934,7.267-9.982,7.279l0.367,1.369c0.213-0.057,5.273-1.461,10.688-7.721c4.764-5.509,8.045-11.352,9.123-13.271
		l1.099-1.933L112.113,113.367z"/>
	<path d="M115.617,113.387c-1.436,1.435-6.512,4.88-6.562,4.915l0.795,1.173c0.213-0.144,5.239-3.555,6.77-5.085
		c0.633-0.633,2.348-1.193,3.595-0.63c1.26,0.568,1.438,2.082,1.364,3.252c-0.321,5.145-2.512,9.265-12.426,13.902
		c-10.012,4.683-16.583,4.272-16.648,4.268l-0.104,1.414c0.279,0.021,6.972,0.458,17.353-4.398
		c10.549-4.934,12.887-9.435,13.24-15.098c0.192-3.081-1.293-4.225-2.195-4.632C119.041,111.675,116.701,112.303,115.617,113.387z"
		/>
	<path d="M122.189,117.563l0.525,1.316l-0.032,0.009c0.08-0.007,0.392,0.095,0.691,0.483c0.319,0.415,0.965,1.646,0.078,4.109
		c-1.518,4.217-7.95,10.448-16.088,13.579c-8.403,3.232-16.44,2.627-16.521,2.621l-0.115,1.412c0.34,0.028,8.427,0.642,17.146-2.711
		c8.836-3.399,15.308-9.967,16.912-14.421c1.295-3.597-0.132-5.353-0.601-5.804C123.565,117.56,122.782,117.326,122.189,117.563z"/>
	<path d="M119.096,130.051c0.008,0.033,0.767,3.384-0.488,7.463c-1.278,4.155-8.556,8.259-14.287,9.345
		c-6.064,1.146-18.312,2.312-18.435,2.324l0.133,1.41c0.124-0.012,12.437-1.182,18.565-2.342
		c6.258-1.186,13.931-5.615,15.379-10.322c1.374-4.466,0.548-8.056,0.512-8.206L119.096,130.051z"/>
	<path d="M114.26,143.205c0.011,0.05,1.045,5.064-2.028,8.908c-2.994,3.742-9.194,4.611-13.223,3.27
		c-3.908-1.303-12.656-5.588-12.744-5.631l-0.625,1.271c0.362,0.18,8.922,4.371,12.922,5.703c4.577,1.525,11.355,0.549,14.777-3.729
		c3.504-4.381,2.356-9.863,2.306-10.094L114.26,143.205z"/>
	<path d="M112.262,153.033c0.077,0.086,1.87,2.147,0.675,6.328c-1.241,4.342-7.434,5.221-13.02,4.164
		c-5.877-1.111-10.593-5.602-10.64-5.646l-0.984,1.02c0.203,0.195,5.058,4.828,11.36,6.02c6.219,1.176,13.159,0.033,14.646-5.168
		c1.427-4.994-0.895-7.57-0.995-7.678L112.262,153.033z"/>
	<path d="M90.177,160.609c0.038,0.031,3.804,3.121,4.908,10.223c0.294,1.891,0.403,3.768,0.403,5.512
		c0,3.281-0.383,6.061-0.648,7.598c-1.722-1.822-5.321-6.178-5.682-11.106l-1.414,0.104c0.516,7.037,6.8,12.738,7.067,12.977
		l0.892,0.799l0.272-1.166c0.069-0.299,1.685-7.387,0.51-14.936c-1.196-7.686-5.255-10.977-5.428-11.113L90.177,160.609z"/>
	<path d="M110.113,164.177c1.595,0.869,3.185,4.326,3.667,5.768c0,0,1.142,3.049,1.638,4.371c-1.885-0.084-6.095-0.402-10.443-1.611
		c-5.727-1.592-8.825-4.621-8.856-4.652l-1.001,1.004c0.135,0.135,3.369,3.316,9.479,5.014c6.023,1.674,11.621,1.693,11.856,1.693
		h1.022l-2.351-6.266c-0.443-1.332-2.193-5.398-4.333-6.564L110.113,164.177z"/>
	<path d="M101.076,172.845c3.244,3.844,4.152,9.58,4.403,12.18c-1.424-0.918-3.997-2.578-3.997-2.578
		c-2.362-1.418-4.628-4.148-4.65-4.176l-1.094,0.9c0.099,0.121,2.44,2.945,5.016,4.49l6.248,4.031l-0.008-1.318
		c-0.008-0.365-0.225-8.982-4.834-14.443L101.076,172.845z"/>
	<path d="M111.697,163.257c0.05,0.008,5.078,0.674,7.364,3.57c1.644,2.08,3.286,4.676,4.203,6.18
		c-2.062-0.279-5.844-0.898-7.632-1.902l-0.695,1.234c2.765,1.555,9.332,2.227,9.61,2.254l1.374,0.137l-0.689-1.197
		c-0.104-0.178-2.555-4.414-5.058-7.584c-2.65-3.357-8.072-4.068-8.302-4.098L111.697,163.257z"/>
	<path d="M145.285,174.179c-0.25,1.25-7.125,7-7.125,7c-0.875,9.5-8,16.75-8,16.75s-0.5,4.625-3.375,14.875
		c-2.875,10.25-8.5,17.625-8.5,17.625l-9.5,0.125c0,0-1.125-1.75-1.625-2.625s-1.25-0.75-2.375-1.25s-2.875-3-4-4
		s-1.125-0.375-4.25,1s-9.125,0.75-12.25-2.125s-4.25-8.5-8.25-11.125s-6.375-1.5-9.5-0.125c-3.125,1.375-8.875,4.75-15.125,0.5
		s-1.75-16-1.25-19.375s2.375-16.625,2.375-16.625l0.875,8.875l0.625-1l4.875-3c0,0,0.125,2.875,0.375,3.625
		s0.625,5.125,0.625,5.125s1.25-1.125,1.75-1.625s4.125-3.25,6.25-6.625s2.25-9,2.25-9l1.375-1.625l0.25,6.5
		c0,0,3-3.625,5.125-5.375s4.75-6.125,4.75-6.125c-0.125,1.625,1,6.125,1.875,8s2.75,5.125,2.75,5.125l1.875-4.25
		c0.625,7,7.25,11.5,7.25,11.5c0.75-1.875,0.75-6,0.75-6c2.375,4.125,9.875,7.125,9.875,7.125c0.25-5.75-3.375-12.375-3.375-12.375
		l-0.375-1.125c8.25,2.625,14,2.5,14,2.5l-0.75-3c3.25,1.25,8.875,1.75,8.875,1.75s-2.125-4.125-4.25-7.125
		s-8.375-4.125-8.375-4.125c5-4.375,1.125-10,1.125-10c3.5-4.625,1.708-9.333,1.708-9.333c7.833-5,5.167-12.334,5.167-12.334
		s7.001-6,14.167-6c7.166,0,11.333,4,11.333,4V174.179z M118.535,215.304c2.125-4.625,0.25-5.125,0.25-5.125l-6,4.75
		c0.625,1.375,1.375,7,1.375,7S116.41,219.929,118.535,215.304z"/>
	<path d="M54.952,113.721l1.333-5.833c0,0,0.833-5.333-8.167-10s-16.333-0.667-16.333-0.667s-4-4.333-11.167-4.833
		c-7.167-0.5-12.5,4.999-12.833,6.333v10.833c0,0,0,2.501,2.834,4.834c0,0-2.167,0.666-2.667,2.666l-0.167,18.333
		c0,0,1.167,4.168,13,5.334s15.833-4.334,15.833-4.334l-2.208-3.333c0,0,4.875,0.25,7,0.5s8,1.375,8,1.375s-2.875-2.5-3.5-6.375
		s-1.5-11-1.5-11s3.625,2,4.375,2.625s2.125,1.25,2.125,1.25s-0.625-3-1.125-6.125s-0.875-6.75-0.875-6.75L54.952,113.721z"/>
	<path d="M43.535,143.055c0,0-1.125,3.25-7.875,3.875s-8.5-1.375-11.75-2.125c-3.25-0.75-11.125,0.625-14.25,8
		s1,11.625,1.625,12.875s2.75,1.75,0.375,2.625s-3.75,1.625-3.875,2.75s-0.125,22-0.125,22s1.25,3.25,11.75,2.375
		s22.5-10,24.875-16.75c0,0-1.125-0.75-0.75-2.25s1.125-5.125,1.75-6.25s2.5-3.125,2.5-3.125l-4.375-0.375l2.25-4.5
		c0,0-0.75,1-4.75,0.375s-6.5-1.25-7.625-1.25c0,0,2.25-3,4-4s4.625-2.375,4.625-2.375s-2.375-1-3.125-1.25
		s-2.625-0.875-2.625-0.875s3.25-2.25,5-3.5s7.875-3,7.875-3l-3.5-1.75L43.535,143.055z"/>
	<path d="M78.118,74.221c0,0-3.333-4.333-4.833-5.833s-6.5-6.001-16.833-8.167c-10.333-2.167-17.667-1.5-22.667-2
		s-13.666,0.334-14.5,5.167s3,8.667,8.833,9.5c5.833,0.833,6.166-0.334,8.666,0.833s7.333,5.833,15.667,6.833
		s12.501-0.833,15.167-2.5c2.667-1.666,9.667-2.167,11.499,0.667L78.118,74.221z"/>
	<path d="M84.785,75.721l0.5,3c0,0,7.499,4.667,11.333,7.333c3.834,2.667,10.334,5.5,20.167,5.5s13.167-5.166,13.667-8.166
		s-2.167-5.501-5.667-6.667c-3.5-1.167-4.001-0.833-5.667-2.167c-1.666-1.333-6.166-3.499-13.833-3.166S90.119,75.221,84.785,75.721
		z"/>
	<path d="M65.535,46.055c0,0,3.125,1.375,4.25,1c1.125-0.375,1.125-1.375,0.75-2.125c-0.375-0.75,3.375,3.25,7.75,4.125l0.375,1.375
		l3.625-0.875l-0.25,6.25c0,0-3.75-1.625-5.75,2.75l-1.5-8C74.785,50.555,67.785,48.305,65.535,46.055z"/>
</g>
</svg>
