<?xml version="1.0" encoding="iso-8859-1"?>
<!-- Generator: Adobe Illustrator 19.1.0, SVG Export Plug-In . SVG Version: 6.00 Build 0)  -->
<svg version="1.1" id="&#xB808;&#xC774;&#xC5B4;_1" xmlns="http://www.w3.org/2000/svg" xmlns:xlink="http://www.w3.org/1999/xlink"
	 x="0px" y="0px" viewBox="0 0 153.071 238.11" style="enable-background:new 0 0 153.071 238.11;" xml:space="preserve">
<rect style="fill:#E60012;" width="153.071" height="238.11"/>
<g>
	<path style="fill:#FFFFFF;" d="M7.535,16.055l-0.25,98.25l17.75,5l48.5,5.251l72.25,4.5l-0.25-113.25c0,0-0.5-8.5-10-9H17.285
		C17.285,6.805,8.535,6.055,7.535,16.055z"/>
	<path d="M17.456,6.096c-5.861,0-10.63,4.769-10.63,10.63v204.658c0,5.861,4.769,10.63,10.63,10.63h118.158
		c5.861,0,10.63-4.769,10.63-10.63V16.726c0-5.861-4.768-10.63-10.63-10.63H17.456z M8.244,221.384V16.726
		c0-5.08,4.133-9.213,9.213-9.213h118.158c5.08,0,9.212,4.133,9.212,9.213v204.658c0,5.08-4.132,9.212-9.212,9.212H17.456
		C12.376,230.596,8.244,226.464,8.244,221.384z"/>
	<path d="M7.535,112.555c0,0,23-9.5,67.25-8.25c44.25,1.25,70.5,23.251,70.5,23.251l0.25,94.75c0,0-0.342,9.25-9.921,9l-118.83,0.25
		c0,0-8.25-0.842-9.25-10.171V112.555z"/>
</g>
</svg>
