<?xml version="1.0" encoding="iso-8859-1"?>
<!-- Generator: Adobe Illustrator 19.1.0, SVG Export Plug-In . SVG Version: 6.00 Build 0)  -->
<svg version="1.1" id="&#xB808;&#xC774;&#xC5B4;_1" xmlns="http://www.w3.org/2000/svg" xmlns:xlink="http://www.w3.org/1999/xlink"
	 x="0px" y="0px" viewBox="0 0 153.07 238.11" style="enable-background:new 0 0 153.07 238.11;" xml:space="preserve">
<rect style="fill:#E60012;" width="153.07" height="238.11"/>
<g>
	<path style="fill:#FFFFFF;" d="M6.498,17.388v203.167c0,0-0.501,10.167,10.666,10.5h120.501c0,0,7.999,1.001,7.666-7.833
		c-0.333-8.834,1.167-49,1.167-49V15.388c0,0-1.333-8.5-10.5-8.5s-116.5,0-116.5,0S6.998,5.055,6.498,17.388z"/>
	<path style="fill:#E60012;" d="M86.498,7.555c0,0-3.375,3.25-5.625,8.625s-4.5,14.125-4.75,15.5s-1.125,6.5-4,7.875l-18-0.75
		l-24.5-1.25l0.875,25.75c0,0-5.125,12.5-11.875,15.625c0,0-2.875-4.5-4.375-11.5s1.75-14.5,1.75-14.5s-7.375-0.625-9.375-2.875
		v-14.25c0,0,4.625-3.625,10-3.75c0,0-3.375-4.375-6.125-8.75s-3.75-9-3.75-9s1.125-2.875,3.75-5.25s8.375-2,8.375-2
		s6.25,3.625,8.75,5.875s7.5,7.625,7.5,7.625s-0.625-8.875,2.625-13.5h19.625c0,0,0.875,6.875,0,10.625
		c0,0,11.125-8.375,25.625-10.5C82.998,7.18,86.748,6.555,86.498,7.555z"/>
	<path style="fill:#005BAC;" d="M29.623,37.555c0,0,30.375,1.125,42.5,2c0,0,0.625,0.375,0.625,1.5s0.375,22.625,1.5,32.75
		s5.75,32.875,6.875,39.125s8.25,28.875,10.125,33.125s11.125,24.375,15.75,31.625s13,17.75,13,17.75s-0.375,0.25-1.625,0.125
		s-36.875-0.5-37.25-0.5s-8.875,0.125-8.875,0.125s-3.5-0.125-6-3.75c-2.5-3.625-10.5-21.25-13.25-27.25s-9.375-28.375-9.75-29.5
		s-11.625-35-11.625-35l0.25-25.5C31.873,74.18,29.623,45.805,29.623,37.555z"/>
	<path style="fill:#E60012;" d="M77.123,91.68c0,0,6.875,4.625,8.625,5.75s9.875,6.625,11.875,9.5c0,0,2.375-6.25,8.875-11.25
		s19.5-11.125,19.5-11.125s-1.25,4.25-1.75,5.5s-0.5,4.375-0.5,5.5s-1,8.375-1.75,12.375s-3.125,10.625-3.125,10.625
		s7.125,1.625,12.875,4c5.75,2.376,14.625,9.125,14.625,9.125v1.625c0,0-3.75,1.375-6.125,1.875s-5.25,2.375-5.875,2.875
		s-10.75,6.125-16.75,5.5c0,0,3,3.75,5.5,9.25s4.75,15.125,4.75,15.125l-1.25,0.125l-7-0.625c0,0-16.875-3.5-22.75-9.25
		c0,0-5-11.375-6.375-14.5s-6.125-17.875-8.625-27.375C79.373,106.805,77.123,91.68,77.123,91.68z"/>
	<path style="fill:#E60012;" d="M6.748,168.18c0,0,2.875,6.25,3.375,8s4.25,13.125,4.875,15.125s5.125,10.25,8.25,13.875
		c0,0-5.375,0.25-9.5,1.625s-7.125,3.25-7.125,3.25l-0.125,6.375c0,0,4.125,5.375,7,8s8.125,6.375,9.375,6.5l14.625,0.25
		l35.875-0.375c0,0-3.75-3.625-4.875-4.125s1.375-0.75,2.25-0.75s13.75-3.125,16.875-5.375s7.75-5.5,9.25-5.75
		c0,0-5.125-1.75-6.75-2.625s-15.125-5.375-25.875-4.125c0,0,6.375-6.125,6.875-12.75c0,0-2.875-0.625-4.75-3.375
		s-3.5-6.125-3.5-6.125s-7.375-0.875-13.875,9.75c0,0-0.75-0.625-1.125-1.625s-6.5-8.625-13.375-13.875s-16.25-10.125-18-11
		s-10-6-10-6L6.748,168.18z"/>
	<path d="M16.419,6.346c-5.861,0-10.63,4.769-10.63,10.63v204.158c0,5.861,4.768,10.63,10.63,10.63h120.158
		c5.861,0,10.63-4.769,10.63-10.63V16.976c0-5.861-4.769-10.63-10.63-10.63H16.419z M7.206,221.134V16.976
		c0-5.08,4.133-9.213,9.213-9.213h120.158c5.08,0,9.212,4.133,9.212,9.213v204.158c0,5.08-4.132,9.212-9.212,9.212H16.419
		C11.339,230.346,7.206,226.214,7.206,221.134z"/>
	<g>
		<path d="M53.623,85.305c1.875,0.875,3.875-1.125,3.25-2.875s-2.25-3.25-2.875-3.75s-0.875-1.125-0.5-2.625
			s1.375-5.125,1.875-6.375s0.5-2.875,0.125-4.25s-1-2.625-2.375-2.5s-3,0.375-3,0.375s-0.375-0.625-0.375-1.25
			s-1.125-2.5-2.625-3.5s-2.75-0.5-3.25,0.5s0.125,2.5,1.25,3.125s1.458,2.042,1.041,2.708c0,0-0.333,0.333-1.833,0.5
			c-1.5,0.166-3,0.166-3.667,0.166c-0.666,0-1.041,1.25-1.041,1.75s1.125,2.625,4.125,2.75s5.25-1.5,5.25-1.5
			s0.375,0.25,0.375,0.625s-0.5,3.375-3.75,6.875s-4.75,5.125-5,5.75s-0.125,1.625,2.25,2s5.75-2.125,7.375-4.125
			c0,0,0.625,0.625,0.625,1.375S51.748,84.43,53.623,85.305z"/>
		<path d="M91.873,160.18c-0.875-1.375-2.625-2.5-3.625-1.875c-0.836,0.523-3.941,2.701-6.544,4.134
			c-0.086-1.384-0.229-2.745-0.456-4.009c-0.429-2.381-1.148-5.705-1.922-9.191c0.993-0.806,1.822-1.517,2.297-2.059
			c1.75-2,2.5-5.125,1.25-7.375s-4.625-5.375-5.75-6.375c-0.886-0.787-1.379-1.873-1.551-2.305c-0.732-4.07-1.611-7.909-3.199-9.696
			c-2-2.25-4.375-3.25-5.75-4s-2.625,0.875-2.75,2c0,0,0.25,0.25,1,1s3.125,2,3.625,3.376c0.215,0.59,1.373,3.969,2.685,7.967
			c-0.019,0.012-0.041,0.021-0.06,0.033c-0.157,0.097-0.294,0.212-0.419,0.334c-0.369-0.403-0.927-0.425-1.206,0.041
			c-0.375,0.625-3,3.25-4.5,4c-1.5,0.75-3.125,0.5-4.375-0.625s-1.125-3.875-0.75-4.5s2.625-2.125,4.125-2.875
			c1.5-0.75,1.375-2.875,1-3.75s-1.5-1.001-2.25-0.625c-0.75,0.375-3.625,2.125-4.5,2.625s-2-0.25-2.375-3.126
			c-0.375-2.875,0.125-6.375,2.75-11s6.5-7.625,6.5-7.625l-0.069,0.017c1.92-1.851,2.812-4.447,2.319-6.767
			c-0.875-4.125-4.125-7-4.75-7.5c0,0,1.25-1.625,1.75-2.875c0.5-1.25,2.625-6.5,1.625-16.5s-3.625-13.875-5.875-15.25
			s-4.25-1.75-5-1.25s-0.75,2.25,0.375,3.125s1.875,0.75,2.25,1.375s1.5,4.125,1.625,10.5c0,0-1.375,1.75-2.5,2.375s-2.25,2-2.625,3
			s-0.25,2.5,0.375,3s2.625,0.5,3.5-0.5s1.5-1.625,1.875-0.875s0.875,4.375-0.75,7.75s-3.875,5-5.125,6.375s-3.75,4-3.25,8
			s2.125,8.625,8,8.5c0.164-0.003,0.319-0.024,0.48-0.035c-4.277,3.754-5.931,9.331-5.605,14.535c0.375,6.001,3,7.75,3,7.75
			s-2.625,2-2.25,5.125s1.875,6.25,4.375,7.125s6.875-0.125,9.25-2.625c1.642-1.729,2.493-3.681,2.788-5.02
			c0.255-0.202,0.563-0.296,0.916-0.29c1.567,4.841,3.17,10.053,3.546,12.185c0.032,0.183,0.07,0.398,0.107,0.607
			c-2.737,2.523-6.603,5.5-8.482,7.893c-2.75,3.5-2.25,7-0.25,9.75s5.75,4.375,9.5,4.25c0.572-0.02,1.162-0.086,1.755-0.181
			c-0.247,3.424-0.598,6.435-1.13,7.181c-0.625,0.875-1,3.25-0.75,4.625s0.625,2.375,0.625,3.5s0.125,1.375,0.75,1.5
			s2.625-0.375,2.625-0.75s-0.125-1.25-0.125-2.125s1-4.875,1.25-6.875c0.14-1.12,0.476-4.32,0.547-8.017
			c1.812-0.605,3.312-1.288,3.953-1.608c1.25-0.625,3.75-0.875,5.375-1.625S92.748,161.555,91.873,160.18z M58.623,103.555
			c-1.172-0.18-3.25-2.625-2.25-6.25s3.625-3.375,3.625-3.375c0.875,0.125,3.125,0.75,2.75,4.875S60.248,103.805,58.623,103.555z
			 M78.248,143.43c-0.044,0.081-0.108,0.169-0.161,0.253c-0.567-2.543-1.095-4.944-1.491-6.897
			C78.537,138.868,79.723,140.726,78.248,143.43z M71.873,163.305c-2.625-1.75-3-3.625-0.75-6.75
			c1.091-1.516,3.183-3.295,5.247-4.955c0.697,4.091,1.47,9.039,1.699,12.393C75.967,164.591,73.817,164.601,71.873,163.305z"/>
	</g>
	<path d="M28.956,37.564c1.312,95.856,35.163,153.958,38.255,156.535c2.135,1.78,3.624,1.832,3.787,1.832l50.162,0.343l-0.944-1.165
		C72.85,136.692,73.251,50.428,73.452,40.784l0.004-0.229c0-0.504-0.187-0.933-0.54-1.239c-0.649-0.563-1.586-0.506-1.906-0.47
		c-0.045-0.002-42.064-2.035-42.064-2.035L28.956,37.564z M71.003,194.513c-0.004,0-1.152-0.058-2.885-1.502
		c-0.676-0.618-9.785-14.623-19.119-42.062c-8.074-23.736-17.827-62.513-18.607-112.649c1.468,0.071,40.637,1.966,40.637,1.966
		l0.066-0.009c0.265-0.035,0.734-0.01,0.894,0.13c0.018,0.016,0.051,0.045,0.051,0.168l-0.004,0.2
		c-0.014,0.67-0.028,1.707-0.028,3.077c0,18.338,2.7,96.308,46.203,151.005C115.462,194.818,71.003,194.513,71.003,194.513z"/>
	<path d="M75.302,32.424c-0.702,3.744-3.547,6.869-3.575,6.9l1.042,0.961c0.128-0.139,3.147-3.447,3.926-7.6
		c0.992-5.289,5.544-21.654,10.672-24.775L86.63,6.699C80.594,10.374,76.092,28.207,75.302,32.424z"/>
	<path d="M68.23,10.898c-4.724,1.924-8.29,4.512-10.113,5.986c0.162-1.846,0.367-4.607,0.367-6.841c0-1.463-0.088-2.692-0.335-3.269
		l-1.303,0.559c0.493,1.151,0.076,7.45-0.304,11.149l-0.194,1.894l1.386-1.306c0.044-0.042,4.493-4.196,11.031-6.859
		c6.603-2.69,14.533-4.195,14.613-4.21l-0.262-1.393C83.037,6.623,74.969,8.153,68.23,10.898z"/>
	<path d="M18.17,7.933c0.057,0.03,5.718,2.994,8.624,5.416c2.916,2.43,7.86,8.35,7.909,8.409l1.717,2.06l-0.475-2.64
		c-0.005-0.027-0.473-2.699,0.005-6.28c0.479-3.594,2.173-7.258,2.189-7.294l-1.284-0.599c-0.073,0.157-1.802,3.893-2.311,7.706
		c-0.172,1.29-0.229,2.463-0.229,3.454c0,0.364,0.014,0.677,0.026,0.989c-1.716-1.979-4.592-5.186-6.641-6.894
		c-3.023-2.519-8.638-5.46-8.876-5.584L18.17,7.933z"/>
	<path d="M6.306,13.955c0.052,0.24,1.312,5.928,4.343,10.728c1.967,3.114,3.722,5.479,4.711,6.759
		c-2.142,0.233-6.32,1.069-9.362,4.111l1.002,1.002c3.737-3.737,9.689-3.792,9.749-3.792l1.509-0.003l-0.965-1.159
		c-0.024-0.03-2.508-3.025-5.445-7.675C8.952,19.343,7.702,13.71,7.69,13.654L6.306,13.955z"/>
	<path d="M6.315,50.866c0.133,0.102,3.172,2.336,8.888,2.597c-0.469,1.26-1.242,3.837-1.907,8.492
		c-0.088,0.62-0.129,1.26-0.129,1.913c0,6.879,4.501,15.149,4.71,15.529l0.333,0.605l0.613-0.317
		c0.306-0.158,7.547-4.024,12.586-17.125l-1.323-0.509c-4.04,10.504-9.562,14.824-11.313,15.991
		c-1.034-2.038-4.187-8.69-4.187-14.181c0-0.585,0.036-1.156,0.114-1.706c0.96-6.717,2.158-8.987,2.17-9.009l0.566-1.046
		l-1.187-0.003c-5.9,0-9.039-2.331-9.07-2.354L6.315,50.866z"/>
	<path d="M6.498,75.805c0,0,6.75-8.75,7.25-10.5c0,0,1,7.75,4.5,13c0,0,2,0,3-1.25s1.75,4,1,7l9.25-11.5c0,0,3.5,36.5,12.25,64.5
		c0,0-4-1.75-7-3.25s-10.5-4.75-15.5-11.5c0,0-1.5,5.501-5.5,10c-4,4.5-8.25,6.75-9.25,9V75.805z"/>
	<path d="M146.498,16.976c0,0,0.5-1.421-4.5-3.171s-8.5-3-13-6.75h-3.25c0,0,0.5,4,0.25,6.75s0.75,9.5,3.75,13.25c0,0-6.25-3-14.5-3
		s-14.75,0-19.75-2.5s-6.5-1.75-4.5-0.5s7,5.5,9.75,9.5s9.75,12.25,15,16.5c0,0-6,3.5-11.5,9s-10.5,12.25-16,14s-6,2.5-3.25,2.75
		s17.75-1,21.75-0.75s16.5,0,23.5-4.5c0,0-1.5,8.75-0.5,18.25s6.5,22.25,6.5,23s0.75,1.25,1.25-1.25s1-7.25,2-10.25
		s6.25-10.75,7-17.5V16.976z"/>
	<path d="M125.823,83.738c-0.31,0.232-1.275,0.725-2.612,1.408c-2.634,1.344-7.041,3.594-13.323,7.299
		c-7.891,4.653-11.241,11.083-12.344,13.691c-2.943-3.573-9.498-8.128-11.682-9.438c-2.439-1.464-8.379-5.914-8.439-5.959
		l-0.85,1.134c0.246,0.185,6.058,4.539,8.561,6.041c2.67,1.602,9.92,6.763,12.019,10.026l0.815,1.269l0.456-1.439
		c0.027-0.085,2.803-8.57,12.185-14.103c6.244-3.683,10.628-5.92,13.247-7.257c0.398-0.204,0.748-0.382,1.059-0.543
		c-0.762,2.111-1.875,5.409-1.875,6.689c0,2.454-0.908,17.664-4.929,25.94l-0.416,0.857l0.94,0.152
		c0.077,0.012,7.719,1.267,13.308,3.94c5.177,2.476,12.441,7.644,13.641,8.505c0.034,0.275,0.075,0.599,0.133,1.058
		c-1.33,0.308-4.557,1.08-6.942,1.876c-0.848,0.282-2.019,0.936-3.501,1.763c-4.171,2.325-10.473,5.84-18.059,6.201l-1.509,0.072
		l1.02,1.114c0.045,0.049,4.511,4.972,6.602,11.084c2.135,6.237,3.968,13.053,3.986,13.121l1.369-0.367
		c-0.018-0.068-1.864-6.929-4.014-13.213c-1.63-4.762-4.542-8.726-6.008-10.533c7.312-0.716,13.515-4.13,17.302-6.242
		c1.417-0.791,2.537-1.415,3.259-1.656c2.931-0.977,7.386-1.97,7.43-1.98l0.63-0.14l-0.368-2.944l-0.248-0.181
		c-0.339-0.246-8.369-6.069-14.111-8.816c-4.732-2.264-10.623-3.495-12.796-3.899c4.255-9.618,4.699-25.555,4.699-25.712
		c0-1.187,1.467-5.432,2.452-7.996l0.885-2.299L125.823,83.738z"/>
	<path d="M146.248,173.305c0,0-3.75-2.25-9.25-2.5s-16.25-7.25-19.75-10c0,0,2.75,7,3,11s2.5,10.75,7.5,16.25
		c0,0-3.917,1.167-9.417,5.5l1.334,2h-3.5c0,0-5.333,3.667-8.5,6.5c-3.167,2.833-12.5,12.167-13.167,12.5
		c-0.667,0.333,0.333,0.666,2,0.333c1.667-0.333,12.001-2.166,18.667-2.666c6.666-0.5,15.333,1.5,15.333,1.5
		s-3.167,2.666-5.667,5.333c-2.5,2.667-5.666,11.833-5.666,11.833h6.833c0,0,2.667-2,5.667-3s8-2.167,9.5-3.5c0,0,0,4.834-5.5,6.667
		c0,0,10.833,0.658,10.833-9.921C146.498,210.555,146.248,173.305,146.248,173.305z"/>
	<path d="M95.606,157.824c5.437,6.967,23.339,10.291,24.098,10.429l0.254-1.395c-0.181-0.033-18.129-3.363-23.234-9.905
		L95.606,157.824z"/>
	<path d="M6.144,216.674c5.536,9.061,16.074,14.768,16.52,15.006l0.669-1.25c-0.106-0.057-10.648-5.77-15.98-14.494L6.144,216.674z"
		/>
	<path d="M5.874,167.391c1.671,3.104,6.028,16.081,8.447,23.874c1.76,5.671,5.662,11.059,7.45,13.341
		c-1.249,0.066-3.227,0.296-5.954,1.014c-4.787,1.26-9.477,3.958-9.675,4.072l0.71,1.227c0.047-0.027,4.727-2.718,9.325-3.928
		c4.537-1.194,6.978-0.982,7.002-0.98l1.745,0.165l-1.139-1.331c-0.06-0.069-5.933-6.978-8.111-13.999
		c-2.436-7.846-6.837-20.939-8.553-24.126L5.874,167.391z"/>
	<path d="M6.354,163.645c0.053,0.035,5.303,3.531,8.286,5.272l2.308,1.248c4.059,2.138,11.615,6.117,20.096,13.184
		c10.062,8.386,10.997,13.028,11.005,13.074l0.377,2.097l0.956-1.898c0.029-0.059,2.953-5.834,6.714-7.95
		c3.761-2.115,6.379-2.158,6.404-2.158l-0.002-1.418c-0.12,0-2.983,0.027-7.098,2.342c-2.99,1.682-5.375,5.235-6.528,7.191
		c-0.969-2.098-3.607-6.273-10.921-12.367c-8.595-7.163-16.237-11.188-20.343-13.351l-2.254-1.218
		c-2.946-1.719-8.161-5.192-8.214-5.228L6.354,163.645z"/>
	<path d="M63.023,208.029l-2.057,1.85l2.694-0.635c0.052-0.012,5.238-1.194,13.717,0.259c6.726,1.153,14.424,4.182,17.473,5.452
		c-1.688,0.909-4.511,2.506-5.603,3.599c-1.383,1.383-13.168,6.797-22.019,7.043l-0.265,1.357c0.038,0.017,3.881,1.724,6.239,4.555
		l1.089-0.908c-1.39-1.667-3.182-2.938-4.579-3.779c8.753-1.009,19.035-5.765,20.536-7.266c1.165-1.164,5.138-3.309,6.57-4.036
		l1.323-0.673l-1.355-0.605c-0.104-0.047-10.433-4.638-19.169-6.135c-5.663-0.971-9.799-0.809-12.132-0.559
		c6.065-6.309,6.22-12.065,6.22-12.326l-1.417-0.002C70.289,195.283,70.169,201.598,63.023,208.029z"/>
	<path d="M46.641,219.191c-0.045,0.073-4.487,7.412-9.792,11.028l0.799,1.172c4.179-2.851,7.732-7.713,9.322-10.09
		c1.48,4.579,5.782,9.72,5.987,9.962l1.082-0.916c-0.054-0.064-5.381-6.405-6.091-10.902l-0.305-1.926L46.641,219.191z"/>
	<path d="M12.622,173.846l0.487,1.016c0.06,0.126,6.081,12.634,11.055,19.846c4.219,6.117,11.313,13.518,13.443,15.698
		c-1.737,0.961-6.828,3.306-15.89,3.691c-6.394,0.271-10.294-0.48-10.332-0.487l-1.241-0.244l0.438,1.186
		c0.075,0.201,1.944,4.949,12.28,6.949c5.533,1.071,10.488,0.533,13.026,0.102c-1.517,2.143-6.221,8.794-6.221,8.794l1.157,0.818
		l8.367-11.829l-1.873,0.484c-0.066,0.017-6.697,1.689-14.187,0.24c-6.331-1.226-9.169-3.484-10.384-4.87
		c1.751,0.208,4.837,0.451,9.029,0.273c11.824-0.503,17.16-4.224,17.382-4.382l0.681-0.485l-0.592-0.592
		c-0.09-0.09-9.013-9.039-13.918-16.151c-3.462-5.02-7.443-12.651-9.518-16.771c2.082,2.342,14.985,15.727,18.934,19.674
		c3.963,3.963,11.442,10.947,11.518,11.017l0.478,0.447l0.483-0.441c0.058-0.053,5.802-5.301,9.273-8.772
		c2.389-2.389,5.726-5.134,7.568-6.609c-0.358,2.251-1.256,6.318-3.404,9.458c-3.18,4.646-8.129,9.859-8.179,9.912l-0.825,0.867
		l1.157,0.307c0.351,0.092,8.633,2.271,13.897,2.522c3.938,0.188,12.202,0.948,15.988,1.308c-1.763,1.001-4.968,2.376-9.478,2.526
		c-7.402,0.246-19.356,0.249-19.476,0.249H52.84l0.221,0.881c0.896,3.584,2.229,9.292,2.229,10.328h1.417
		c0-1.314-1.472-7.427-2.054-9.793c2.908-0.006,12.364-0.04,18.619-0.249c7.665-0.255,11.772-3.775,11.943-3.925l1.232-1.078
		l-1.63-0.16c-0.128-0.013-12.828-1.255-18.036-1.503c-4.013-0.19-9.994-1.581-12.449-2.187c1.56-1.702,5.038-5.606,7.501-9.205
		c3.319-4.852,3.851-11.564,3.871-11.848l0.118-1.585l-1.258,0.972c-0.056,0.043-5.576,4.318-9.067,7.81
		c-2.89,2.889-7.332,6.988-8.744,8.285c-1.677-1.57-7.619-7.15-11.004-10.535c-3.879-3.879-17.223-17.722-18.968-19.716
		c-1.771-2.023-2.711-2.242-3.033-2.242H12.622z"/>
	<path d="M118.734,93.563c-0.142,0.057-3.565,1.484-10.759,9.346c-6.076,6.641-10.637,17.426-12.354,21.486l-0.564,1.296
		c0,0-0.017,0.021-0.021,0.027c-7.841-9.352-13.288-10.952-13.519-11.015l-0.376,1.367c0.054,0.015,5.427,1.611,13.144,10.936
		c0.122,0.126,0.406,0.37,0.856,0.314c0.429-0.053,0.799-0.349,1.131-0.902l0.654-1.472c1.691-3.999,6.183-14.62,12.094-21.081
		c2.855-3.121,5.061-5.154,6.709-6.515c-1.67,2.319-3.801,5.51-5.529,8.88c-3.331,6.497-6.585,19.276-6.722,19.817l-0.13,0.511
		l0.452,0.271c0.111,0.067,1.112,0.645,2.036,0.413c0.641-0.15,8.468-0.809,15.563,0.182c4.271,0.596,8.688,2.048,11.506,3.096
		c-2.763,0.148-6.112,0.327-6.112,0.327c-3.002,0.159-19.375,1.835-24.729,5.98l-0.611,0.474l0.524,0.567
		c0.039,0.043,3.999,4.343,6.444,7.766c1.959,2.743,8.678,11.798,11.451,15.531c-2.112-0.637-5.74-1.898-9.879-4.071
		c-6.736-3.536-16.979-11.551-18.961-13.836l-1.07,0.928c2.332,2.691,12.785,10.705,19.373,14.164
		c6.675,3.504,11.956,4.682,12.178,4.73l1.851,0.404l-1.131-1.52c-0.102-0.137-10.191-13.7-12.659-17.155
		c-1.937-2.711-4.767-5.919-5.968-7.254c5.17-3.312,18.876-5.062,23.262-5.293l9.335-0.5l0.25-1.355
		c-0.311-0.138-7.674-3.385-14.857-4.388c-7.437-1.037-15.455-0.314-16.104-0.152c-0.126,0.032-0.309-0.007-0.487-0.06
		c0.686-2.611,3.594-13.347,6.457-18.93c3.257-6.352,8.034-12.147,8.082-12.205l1.776-2.144L118.734,93.563z"/>
	<path d="M44.626,10.787c0.133,1.428,0.316,5.461-0.429,6.951c-0.986,1.974-3.938,13.575-2.561,20.293l1.389-0.285
		c-0.233-1.14-0.333-2.442-0.333-3.822c0-6.242,2.027-14.062,2.772-15.552c0.353-0.705,0.528-1.739,0.619-2.816
		c0.682,2.112,1.531,4.627,2.42,6.922c1.293,3.34,1.505,7.017,1.505,9.069c0,0.986-0.049,1.597-0.051,1.615l-0.174,2.046
		l1.399-1.504c0.088-0.094,8.817-9.465,12.535-11.889c2.328-1.519,6.13-3.556,8.704-4.896c-2.097,2.795-5.658,7.544-5.658,7.544
		c-4.428,5.903-11.716,13.867-11.789,13.946l1.045,0.958c0.073-0.081,7.408-8.095,11.878-14.054l7.5-10l-0.884-1.059
		c-0.315,0.157-7.747,3.88-11.57,6.373c-3.022,1.971-8.916,8.021-11.516,10.752c-0.007-2.187-0.249-5.916-1.604-9.414
		c-1.966-5.077-3.795-11.378-3.813-11.441L44.626,10.787z"/>
	<path d="M14.688,14.852c0.03,0.064,2.985,6.482,3.794,9.393c0.789,2.839,4.5,9.236,9.983,14.124
		c-1.48-0.154-4.298-0.306-8.053,0.149c-5.514,0.669-10.604,2.46-10.817,2.536l-1.173,0.416l0.956,0.796
		c0.123,0.103,3.049,2.538,5.217,4.038c1.252,0.867,4.333,2.542,7.977,2.159c-0.999,1.665-2.544,4.685-2.78,7.874
		c-0.113,1.531-0.151,3.444-0.151,5.313c0,3.608,0.141,7.052,0.15,7.269l1.365,0.233c0.01-0.024,0.987-2.439,2.57-4.498l0.924-1.118
		c1.99-2.345,5.322-6.27,6.052-12.396l-1.407-0.168c-0.679,5.703-3.716,9.28-5.725,11.647l-0.967,1.171
		c-0.595,0.773-1.069,1.55-1.483,2.279c-0.032-1.276-0.061-2.844-0.061-4.454c0-1.835,0.037-3.701,0.146-5.174
		c0.314-4.238,3.336-8.426,3.366-8.468l1.214-1.665l-1.981,0.565c-3.767,1.077-7.13-0.854-8.401-1.734
		c-1.357-0.94-3.059-2.288-4.117-3.145c1.824-0.569,5.482-1.606,9.299-2.069c5.308-0.644,8.748-0.014,8.783-0.007l1.128,0.213
		l-0.706-2.471l-0.157-0.138c-5.399-4.723-9.029-10.941-9.784-13.656c-0.37-1.333-1.143-3.3-1.902-5.114
		c2.339,2.391,5.502,5.253,8.608,8.061l2.135,1.934c5.379,4.89,8.708,9.353,8.741,9.398l1.139-0.844
		c-0.034-0.045-3.438-4.613-8.927-9.603l-2.138-1.936c-4.763-4.306-10.16-9.185-11.561-11.565L14.688,14.852z"/>
</g>
</svg>
