<?xml version="1.0" encoding="iso-8859-1"?>
<!-- Generator: Adobe Illustrator 19.1.0, SVG Export Plug-In . SVG Version: 6.00 Build 0)  -->
<svg version="1.1" id="&#xB808;&#xC774;&#xC5B4;_1" xmlns="http://www.w3.org/2000/svg" xmlns:xlink="http://www.w3.org/1999/xlink"
	 x="0px" y="0px" viewBox="0 0 153.071 238.11" style="enable-background:new 0 0 153.071 238.11;" xml:space="preserve">
<rect style="fill:#E60012;" width="153.071" height="238.11"/>
<g>
	<path style="fill:#FFFFFF;" d="M7.619,16.221v99.167l13.167,4.666l78.667,7.334l45.833-0.666V16.388c0,0-0.175-8.334-9.921-9.334
		H17.707C17.707,7.055,9.619,6.888,7.619,16.221z"/>
	<path d="M17.707,6.346c-5.861,0-10.63,4.768-10.63,10.63v204.158c0,5.861,4.768,10.63,10.63,10.63h117.658
		c5.861,0,10.63-4.769,10.63-10.63V16.976c0-5.861-4.769-10.63-10.63-10.63H17.707z M8.494,221.134V16.976
		c0-5.08,4.133-9.213,9.213-9.213h117.658c5.08,0,9.212,4.133,9.212,9.213v204.158c0,5.08-4.132,9.212-9.212,9.212H17.707
		C12.627,230.346,8.494,226.214,8.494,221.134z"/>
	<path d="M7.535,114.555c0,0,25.5-9.5,70.5-8.25c45.001,1.25,66.25,18.251,67,19.501l0.25,95.75c0,0-0.509,9-9.921,9.5H16.952
		c0,0-8.5-0.509-9.167-9.921L7.535,114.555z"/>
</g>
</svg>
