<?xml version="1.0" encoding="iso-8859-1"?>
<!-- Generator: Adobe Illustrator 19.1.0, SVG Export Plug-In . SVG Version: 6.00 Build 0)  -->
<svg version="1.1" id="&#xB808;&#xC774;&#xC5B4;_1" xmlns="http://www.w3.org/2000/svg" xmlns:xlink="http://www.w3.org/1999/xlink"
	 x="0px" y="0px" viewBox="0 0 153.071 238.11" style="enable-background:new 0 0 153.071 238.11;" xml:space="preserve">
<rect style="fill:#E60012;" width="153.071" height="238.11"/>
<g>
	<path style="fill:#FFFFFF;" d="M7.785,14.972v68.333v138.167l5.666,6.166l8.334,3.668l114.833-0.168c0,0,8.834-1.998,8.667-9.832
		V15.305c0,0-0.833-7.833-10-8.5L16.619,6.639C16.619,6.639,8.952,7.972,7.785,14.972z"/>
	<path style="fill:#E60012;" d="M22.285,123.472l1.125,3.458c0,0-3.958,3.875-5.292,6.375s-2.834,6.5-2.834,6.5l1,7.333l1.667,9.334
		l3.833,5.666c0,0,3.833,7.168,4.333,8c0.5,0.834,2.667,5.834,2.667,5.834l9,9.5l13.333-1.166c0,0,11-1.668,12.667-2.168
		s8.333-2.666,8.333-2.666l2.833-9.667l2-7.5l3.834,2.667c0,0,4.667,5,10.667,5s7.75-8.834,5.958-13.667
		c-1.792-4.833,8.708-14.833,8.708-14.833l8.667-1.667c0,0,3.667-6.833,3.667-8c0-1.167-4.5-8-4.5-8l-4-3.5l-2.542-1.75
		c0,0-1.624-2.251-6.458-3.583c0,0,3.167-6.667-0.5-10.167c-3.667-3.5-7.584-3.25-10.292-2.125s-5.208-0.208-5.208-0.208
		l-10.334-1.667c0,0-5.833-9.666-15.833-1.666l-6.833,1.666l-6.167-1.666l-6.5,1.833l-4.833,4.5l-4.833,6.333L22.285,123.472z"/>
	<path style="fill:#E60012;" d="M56.16,9.805c0,0-2.75-2.375-5.875-2.375s-5.75,1-6.875,3.25s-2.125,7.375-2.125,7.375l2.25,5.125
		l7.25,5.75l8.625,3.625l5.375,2.375c0,0,7.25,3.25,7.875,3.5s7.751,1.125,7.751,1.125l3.125-0.375c0,0,4.875,5.625,10.125,7.625
		s15.25,2.5,19-2.375s0.375-7.625-0.875-9s-3.5-4-3.625-5.25S97.036,16.305,97.036,16.305s0.5-4.625-4.125-6.375
		s-8.375,0.25-11,3.125l-7.001-2c0,0-1.5-2.75-3.875-3.75c-2.375-1-4.875,0.5-6,3C63.91,12.805,56.16,9.805,56.16,9.805z"/>
	<path style="fill:#FDD000;" d="M61.41,32.305c0,0-9.625,2.625-17.625-0.75s-11.5-13.375-10.5-17.5s6.625-6,9.625-2.5
		C42.91,11.555,41.16,26.305,61.41,32.305z"/>
	<path style="fill:#FDD000;" d="M68.41,33.43c0,0-9.5-4.875-12.375-10.625s-1.75-11.75,1-13.75s6.5-0.75,8,1.25
		c0,0-2.125,3.75-1,9.875c1.125,6.125,6.125,14.375,6.125,14.375L68.41,33.43z"/>
	<path style="fill:#FDD000;" d="M72.41,34.555c0,0-2.125-6.625-1.75-13.75C71.035,13.68,74.41,9.93,77.285,9.68
		c2.876-0.25,4.626,2,4.626,6.875S77.91,28.43,73.66,33.18L72.41,34.555z"/>
	<path style="fill:#FDD000;" d="M75.535,33.93c0,0,16.876-1.5,21.126-17.75c0,0,2.125-0.75,4.5,0.25s3,3.375,2.875,5.375
		c0,0,0.625,0.625,1.25,0.25s5.625-2.625,8.625,1.625s0.375,10.25-1.75,11.5l-1-0.125c0,0-5.125-3.625-13-1.25c0,0-7.25,4-17,2.75
		H76.41l-1.125-0.875L75.535,33.93z"/>
	<path style="fill:#FDD000;" d="M72.452,109.638c0,0-2.999-2-3.833-2.5c0,0,1.792-4.708,8.291-7.833
		c6.501-3.125,12.001,0.625,13.251,3.375c0,0-4,2.5-6.375,7.125C83.786,109.805,79.244,104.597,72.452,109.638z"/>
	<path style="fill:#FDD000;" d="M61.16,108.555c0,0,0.5-4.375-1.5-8.375s-5.625-4.5-6.375-4.5s-3.25,0.625-4.875,2.875
		s0.375,5.75,0.375,6.625s1.125,4.25,4.125,7.125c0,0-3.375,1.125-4.375,3.75s-0.5,5.75-0.125,6.5c0,0-3,0.625-6.5,4.375
		c-3.5,3.75-4.25,8.75-2.625,11s7.125,2.25,10.375-0.75s4.5-7.5,4.5-8c0,0-1.375-2.125-0.75-4.375s3.875-3.625,5.875-3.75
		c0,0-2.5-2.5-1.75-6.75S61.16,108.555,61.16,108.555z"/>
	<path style="fill:#FDD000;" d="M36.785,124.055c0,0,1-4.5,3.125-6.25v-0.75l-1.875-3.375l-5.25-2.625c0,0-7.375,1-8,1.375s-4,5-4,5
		l0.625,5.375l1.25,2l0.75,2.125C23.41,126.93,28.785,123.18,36.785,124.055z"/>
	<path style="fill:#FDD000;" d="M37.91,134.43l1.125,3.125c0,0-6.125,2.625-5,11c0,0-8,1.125-11,9.125l-4.625-2.25l-1.25-4.5
		l0.625-6.5l4.875-3.25C22.66,141.18,27.41,134.43,37.91,134.43z"/>
	<path style="fill:#FDD000;" d="M36.035,167.18c0,0,0.625,3.5,4.125,4.125s7.375-2.5,7.375-2.5s0.75,1.625,3.125,3
		s4.5,0.75,5.125,0.75s0.5,1.375,0.5,1.375l-2.25,8.75c0,0-4.25,3.376-4.625,3.376s-9.5-0.875-9.5-0.875s-6.375-2.626-7-3.626
		s-3.125-5.25-3.125-5.25l2.75-5.375L36.035,167.18z"/>
	<path style="fill:#FDD000;" d="M61.66,132.43c0,0-1.125,5.125-1.375,6.625s-1,4.875-1,4.875s1.5,6.375,3.875,8.5
		c2.375,2.125,4.75,2,6.125,0.375s2.75-6.5,2.375-12.25s-5.375-9-5.375-9L61.66,132.43z"/>
	<path style="fill:#FDD000;" d="M67.41,154.055c0,0-1.875,4.125-0.5,10.875s5.875,12.875,5.875,12.875s3.5,2.625,3.875,2.375
		s3.126-2.75,3.126-2.75l-0.125-3.5c0,0,2.125-4.75,0.5-11.375c-1.626-6.625-3.876-9.125-3.876-9.125s-3.625-1.125-4.375-1.875
		s-1.125-1.125-1.125-1.125S67.285,151.68,67.41,154.055z"/>
	<path style="fill:#FDD000;" d="M71.66,144.805c0,0,3.375,2,7.001,0.625c3.625-1.375,4.125-5.875,4.125-6.375
		s1.375,0.125,1.375,0.125l2.5,1.125c0,0,2,7.125-1.875,11S73.91,152.68,73.91,152.68l-2.25-1.75c0,0-1.75-1.125-1.5-1.5
		S71.66,144.805,71.66,144.805z"/>
	<path style="fill:#FDD000;" d="M86.661,140.305c0,0,3.375,0.5,6.375-0.875s3.25-3,3.25-3s6.875,0.25,10.625,5.75
		s2.625,6.25,2.625,6.25l-3,1.5c0,0-0.875,6.75-9.125,6.375c0,0-3.875-8-10.25-11L86.661,140.305z"/>
	<path style="fill:#FDD000;" d="M86.536,121.055c0,0,0.875,3.25-0.125,6.25l0.5,0.5c0,0,3.25-0.375,7.125,2.25c0,0,2.375-2.875,6-4
		s8.125-0.375,9-0.25s1.75-3.75,1.75-3.75l-3.375-3.5c0,0-2-3.25-7.875-3.625S88.036,118.43,86.536,121.055z"/>
	<path style="fill:#FDD000;" d="M72.91,118.68l-2.125,3c0,0,2.125,2.375,2,5.75c0,0,3.5,1.25,6.376,3.625
		c0,0,5.875-0.625,7.375-3.25c1.5-2.625,0-7.375-1.625-9.125S76.035,116.805,72.91,118.68z"/>
	<path d="M17.707,6.097c-5.861,0-10.63,4.769-10.63,10.63v204.657c0,5.861,4.768,10.631,10.63,10.631h117.658
		c5.861,0,10.63-4.77,10.63-10.631V16.727c0-5.861-4.769-10.63-10.63-10.63H17.707z M8.494,221.384V16.727
		c0-5.08,4.133-9.213,9.213-9.213h117.658c5.08,0,9.212,4.133,9.212,9.213v204.657c0,5.08-4.132,9.213-9.212,9.213H17.707
		C12.627,230.597,8.494,226.464,8.494,221.384z"/>
	<path d="M59.236,109.356c-2.168,2.662-2.933,6.125-1.995,9.037c0.837,2.598,2.917,4.467,5.859,5.262
		c5.581,1.509,9.618-1.153,11.368-7.496c0.529-1.915,0.266-3.838-0.761-5.561c-1.274-2.138-3.528-3.623-5.097-3.984l0.104,0.032
		C68.66,106.625,63.186,104.509,59.236,109.356z M63.47,122.287c-3.156-0.853-4.396-2.824-4.88-4.328
		c-0.792-2.46-0.124-5.414,1.744-7.706c3.28-4.026,7.671-2.362,7.856-2.289l0.049,0.019l0.053,0.013
		c0.992,0.228,3.009,1.336,4.198,3.329c0.836,1.402,1.041,2.902,0.612,4.458C71.55,121.407,68.31,123.595,63.47,122.287z"/>
	<path d="M52.985,124.154c-0.815,1.63-0.73,3.46,0.233,5.019c1.443,2.335,4.565,3.674,8.567,3.674c7.67,0,11.52-3.873,11.707-6.492
		c0.216-3.027-2.175-4.912-2.448-5.117l-0.851,1.135c0.084,0.062,2.05,1.564,1.885,3.883c-0.128,1.804-3.28,5.175-10.293,5.175
		c-3.5,0-6.183-1.095-7.361-3.001c-0.7-1.133-0.762-2.459-0.171-3.641c1.454-2.908,5.355-3.107,5.395-3.109l-0.056-1.416
		C59.397,120.271,54.818,120.487,52.985,124.154z"/>
	<path d="M47.41,122.294c-4.779,1.471-9.833,7.473-9.833,11.678c0,1.918,0.62,3.479,1.793,4.515
		c1.353,1.194,3.371,1.663,5.837,1.354c2.584-0.322,5.358-2.053,7.238-4.515c1.623-2.125,2.348-4.477,2.042-6.622l-1.403,0.201
		c0.252,1.766-0.375,3.74-1.765,5.56c-1.658,2.171-4.067,3.691-6.288,3.969c-2.05,0.257-3.683-0.093-4.723-1.011
		c-0.872-0.77-1.314-1.931-1.314-3.452c0-3.555,4.706-9.053,8.833-10.323c3.822-1.176,5.557,0.427,5.629,0.496l0.997-1.007
		C54.359,123.043,52.098,120.852,47.41,122.294z"/>
	<path d="M59.589,138.341l-0.257,2.032c-0.184,1.941-0.343,3.617-2.011,5.062c-1.55,1.344-4.217,2.058-6.072,1.624
		c-0.981-0.228-1.646-0.743-1.977-1.529c-1.217-2.891,0.014-7.148,0.026-7.191l-1.359-0.402c-0.057,0.193-1.388,4.781,0.026,8.143
		c0.51,1.212,1.534,2.028,2.962,2.361c2.287,0.533,5.434-0.298,7.322-1.934c2.097-1.817,2.299-3.943,2.494-6l0.239-1.905
		c0.489-2.606,1.478-6.24,1.487-6.276l-1.367-0.373C61.061,132.103,60.088,135.677,59.589,138.341z"/>
	<path d="M65.895,132.395c0.244,0.162,5.968,4.07,5.185,12.679c-0.571,6.274-2.446,7.859-3.513,8.245
		c-1.134,0.411-2.512-0.081-3.78-1.35c-2.796-2.795-3.626-8.053-3.634-8.105l-1.401,0.213c0.036,0.234,0.904,5.767,4.033,8.895
		c1.673,1.674,3.592,2.286,5.265,1.681c1.69-0.612,3.833-2.748,4.442-9.45c0.862-9.48-5.543-13.81-5.816-13.989L65.895,132.395z"/>
	<path d="M72.641,128.332c0.054,0.011,5.407,1.177,8.204,5.837c1.244,2.074,1.626,4.236,1.104,6.256
		c-0.468,1.81-1.629,3.365-3.187,4.267c-2.716,1.573-5.981-0.077-6.367-0.575l-1.245,0.672c0.33,0.658,1.634,1.305,2.707,1.625
		c1.171,0.352,3.458,0.754,5.616-0.495c1.884-1.091,3.286-2.964,3.848-5.14c0.432-1.67,0.562-4.298-1.262-7.338
		c-3.124-5.207-8.888-6.446-9.132-6.496L72.641,128.332z"/>
	<path d="M72.451,118.181l0.668,1.249c0.044-0.023,4.485-2.335,9.456-0.782c1.56,0.488,2.645,1.456,3.224,2.877
		c0.904,2.219,0.353,5.057-0.304,6.277c-0.943,1.754-4.178,2.461-6.15,2.297l-0.117,1.412c2.337,0.195,6.214-0.619,7.516-3.037
		c0.752-1.396,1.518-4.664,0.368-7.483c-0.736-1.807-2.159-3.085-4.114-3.695C77.443,115.56,72.651,118.071,72.451,118.181z"/>
	<path d="M86.402,127.098l0.1,1.414c0.044-0.003,4.409-0.261,7.629,2.806c1.457,1.389,2.045,3.111,1.612,4.725
		c-0.447,1.666-1.89,2.908-3.956,3.407c-4.451,1.074-7.71-1.022-8.167-1.48l-1.002,1.002c0.663,0.664,4.438,3.077,9.501,1.855
		c2.549-0.615,4.416-2.267,4.993-4.418c0.562-2.1-0.187-4.387-2.005-6.117C91.423,126.782,86.605,127.083,86.402,127.098z"/>
	<path d="M86.095,140.296c0.854,3.736,0.331,7.48-1.364,9.773c-1.201,1.625-2.938,2.532-5.164,2.695
		c-6.208,0.454-7.904-2.948-7.973-3.094l-1.286,0.596c0.083,0.182,2.121,4.441,9.363,3.911c2.619-0.191,4.763-1.321,6.2-3.266
		c1.963-2.655,2.563-6.742,1.605-10.932L86.095,140.296z"/>
	<path d="M75.15,153.669c0.024,0.021,2.382,2.205,4.282,9.645c1.335,5.228,0.25,9.862-1.417,12.137
		c-0.673,0.916-1.42,1.442-2.103,1.48c-2.69,0.15-6.394-3.842-7.935-10.779c-1.591-7.162,0.114-11.537,0.131-11.581l-1.313-0.533
		c-0.078,0.192-1.897,4.793-0.202,12.421c1.788,8.049,6.081,12.072,9.398,11.888c1.114-0.061,2.238-0.793,3.167-2.058
		c1.728-2.357,3.196-7.261,1.647-13.325c-2.031-7.957-4.613-10.266-4.722-10.36L75.15,153.669z"/>
	<path d="M87.058,145.81c0.038,0.013,3.847,1.386,7.962,7.875c2.08,3.279,2.668,7.129,1.614,10.564
		c-0.68,2.215-1.975,3.925-3.464,4.572c-1.582,0.688-4.185,0.393-6.793-0.77c-2.807-1.251-4.947-3.22-5.587-5.137l-1.344,0.448
		c0.771,2.316,3.146,4.553,6.354,5.982c3.004,1.34,5.971,1.631,7.935,0.776c1.864-0.811,3.455-2.851,4.254-5.457
		c1.176-3.831,0.53-8.11-1.771-11.739c-4.418-6.966-8.534-8.401-8.708-8.459L87.058,145.81z"/>
	<path d="M55.431,157.085c2.596,1.498,5.728,0.83,7.898,0.006c1.533-0.583,3.885-1.83,4.128-2.562l-1.262-0.605
		c-0.521,0.596-6.278,4.114-10.056,1.934c-3.907-2.255-3.813-7.811-3.812-7.868l-1.417-0.037
		C50.903,148.214,50.785,154.405,55.431,157.085z"/>
	<path d="M47.44,162.935c-0.915,3.049-0.632,5.918,0.776,7.871c1.222,1.695,3.198,2.631,5.714,2.707
		c5.894,0.179,11.996-6.18,13.057-13.607l-1.403-0.201c-0.949,6.641-6.482,12.547-11.61,12.393c-2.06-0.062-3.653-0.796-4.608-2.12
		c-1.148-1.593-1.355-4.011-0.568-6.635c1.38-4.6,6.039-6.527,6.085-6.546l-0.527-1.315C54.138,155.567,49.02,157.668,47.44,162.935
		z"/>
	<path d="M33.263,144.14c-1.158,4.826,0.859,7.884,6.167,9.348c2.741,0.757,5.454-0.332,7.248-1.379
		c2.105-1.229,4.032-3.082,4.294-4.132l-1.375-0.344c-0.105,0.405-1.484,2.009-3.682,3.279c-1.546,0.894-3.862,1.829-6.108,1.21
		c-4.542-1.254-6.136-3.613-5.167-7.652c0.918-3.823,4.976-6.37,5.017-6.395l-0.744-1.206
		C38.727,136.983,34.319,139.739,33.263,144.14z"/>
	<path d="M34.926,162.323c-0.571,2.662,0.079,5.476,1.738,7.529c1.196,1.479,2.758,2.327,4.288,2.327
		c3.314,0,6.532-1.564,7.172-3.484l-1.345-0.448c-0.35,1.051-2.736,2.516-5.828,2.516c-1.099,0-2.26-0.656-3.186-1.801
		c-1.393-1.723-1.936-4.094-1.455-6.342c0.95-4.432,4.807-8.976,4.845-9.022l-1.076-0.922
		C39.913,152.873,35.952,157.534,34.926,162.323z"/>
	<path d="M32.744,174.774c-0.19,4.367,2.924,7.051,5.149,7.236c2.24,0.187,5.13-1.449,6.075-4.85
		c0.85-3.059,0.859-5.744,0.859-5.856l-1.417-0.001c0,0.026-0.012,2.614-0.808,5.478c-0.741,2.666-2.919,3.956-4.592,3.817
		c-1.706-0.142-3.997-2.403-3.851-5.764c0.157-3.604,2.215-7.135,2.236-7.17l-1.22-0.721
		C35.083,167.101,32.916,170.81,32.744,174.774z"/>
	<path d="M55.289,172.722c0.003,0.011,0.325,1.057-0.818,3.629c-1.176,2.647-5.979,5.463-7.907,4.637
		c-1.583-0.679-2.153-3.888-2.239-5.066l-1.414,0.101c0.038,0.522,0.441,5.131,3.094,6.269c2.873,1.23,8.354-2.197,9.76-5.364
		c1.388-3.124,0.941-4.491,0.837-4.733L55.289,172.722z"/>
	<path d="M64.774,178.761c-1.344,0.94-2.809,1.247-4.125,0.863c-3.401-0.991-2.996-7.205-2.992-7.268l-1.413-0.104
		c-0.022,0.303-0.49,7.42,4.008,8.732c1.736,0.506,3.629,0.129,5.333-1.062c2.409-1.685,4.033-4.649,4.239-7.737l-1.414-0.095
		C68.236,174.721,66.809,177.339,64.774,178.761z"/>
	<path d="M22.981,155.661c-1.487,3.058-1.64,6.486-0.43,9.653c0.997,2.61,2.79,4.658,4.799,5.479
		c4.048,1.656,8.255-2.006,9.082-3.868l-1.295-0.575c-0.571,1.284-4.051,4.44-7.25,3.132c-1.628-0.666-3.165-2.456-4.012-4.673
		c-0.619-1.621-1.393-4.884,0.38-8.528c2.798-5.751,9.576-6.933,9.644-6.944l-0.228-1.398
		C33.364,147.989,26.106,149.237,22.981,155.661z"/>
	<path d="M25.226,137.882c-4.79,3.193-6.283,8.997-6.703,11.344c-0.495,2.767-0.355,5.186,0.355,6.162
		c1.528,2.102,4.13,2.125,4.24,2.125l0.003-1.416c-0.02-0.001-2-0.035-3.097-1.543c-0.338-0.465-0.595-2.348-0.107-5.078
		c0.388-2.168,1.758-7.524,6.094-10.414c6.207-4.139,12.011-3.886,12.069-3.883l0.078-1.415
		C37.903,133.749,31.846,133.468,25.226,137.882z"/>
	<path d="M23.198,126.567c-6.778,4.996-5.595,12.483-4.681,13.946c1.012,1.618,3.444,1.823,3.547,1.831l0.11-1.413
		c-0.505-0.041-1.932-0.332-2.455-1.169c-0.67-1.072-1.682-7.632,4.319-12.055c5.975-4.402,12.514-2.896,12.579-2.881l0.335-1.377
		C36.661,123.378,29.723,121.759,23.198,126.567z"/>
	<path d="M40.664,116.716c-2.216,1.22-3.721,3.148-4.237,5.433c-1.298,5.75,3.28,7.156,3.326,7.17l0.401-1.359
		c-0.137-0.042-3.343-1.074-2.344-5.498c0.544-2.413,2.224-3.78,3.537-4.503c2.313-1.272,5.264-1.522,7.7-0.652l0.477-1.335
		C46.717,114.969,43.322,115.254,40.664,116.716z"/>
	<path d="M49.657,113.767c-3.817,3.273-1.959,9.02-1.878,9.262l1.345-0.447c-0.017-0.05-1.634-5.09,1.456-7.738
		c3.15-2.7,5.146-2.199,7.076-1.715l0.124,0.031l0.344-1.375L58,111.753C55.935,111.235,53.364,110.59,49.657,113.767z"/>
	<path d="M96.244,137.013c0.056,0.003,5.537,0.39,8.788,5.189c1.808,2.668,1.64,7.195-0.384,10.305
		c-0.951,1.462-3.134,3.809-7.069,3.101l-0.252,1.395c3.464,0.624,6.565-0.733,8.51-3.722c2.349-3.611,2.508-8.716,0.369-11.873
		c-3.654-5.395-9.627-5.795-9.88-5.811L96.244,137.013z"/>
	<path d="M93.437,129.485l1.031,0.973c0.052-0.056,5.321-5.547,11.037-4.62c5.54,0.898,7.553,4.88,7.079,8.2
		c-0.188,1.311-1.152,2.641-2.648,3.645c-1.847,1.242-4.138,1.728-5.979,1.267l-0.344,1.375c2.252,0.564,4.911,0.016,7.113-1.465
		c1.828-1.23,3.016-2.914,3.26-4.622c0.569-3.983-1.771-8.748-8.255-9.8C99.268,123.391,93.672,129.235,93.437,129.485z"/>
	<path d="M85.934,120.821l1.037,0.967c0.058-0.063,5.884-6.205,13.122-5.941c5.642,0.205,7.175,3.333,7.572,4.668
		c0.519,1.745,0.108,3.627-0.956,4.377l0.818,1.158c1.562-1.104,2.192-3.601,1.496-5.939c-1.009-3.391-4.328-5.515-8.88-5.68
		C92.249,114.143,86.188,120.549,85.934,120.821z"/>
	<path d="M71.951,109.304l1,1.004c0.144-0.142,3.569-3.453,8.21-1.357c2.151,0.973,3.108,3.041,3.532,4.605
		c0.732,2.707,0.319,5.246,0.044,5.635l1.094,0.901c0.676-0.812,0.967-3.741,0.345-6.446c-0.466-2.029-1.613-4.714-4.431-5.986
		C76.196,105.153,71.992,109.262,71.951,109.304z"/>
	<path d="M90.697,101.811c-5.411,2.095-7.495,8.013-7.581,8.265l1.34,0.46c0.02-0.056,1.966-5.55,6.753-7.403
		c2.541-0.983,4.816-0.37,6.277,0.317c2.025,0.954,3.442,2.522,3.795,3.579c0.759,2.28,0.099,6.688-1.479,7.477l0.635,1.268
		c2.441-1.221,3.081-6.515,2.188-9.191c-0.538-1.617-2.361-3.391-4.535-4.414C95.669,101.028,93.044,100.901,90.697,101.811z"/>
	<path d="M79.647,97.943c-7.727,1.546-11.646,8.225-11.81,8.508l1.228,0.708c0.037-0.064,3.777-6.41,10.859-7.826
		c6.852-1.37,9.454,3.579,9.562,3.791l1.267-0.637C90.722,102.427,87.585,96.355,79.647,97.943z"/>
	<path d="M49.78,97.197c-1.485,1.587-2.208,3.892-2.035,6.488c0.349,5.237,4.888,9.161,5.081,9.325l0.919-1.078
		c-0.043-0.037-4.278-3.708-4.586-8.342c-0.146-2.201,0.441-4.128,1.656-5.426c0.883-0.943,2.026-1.485,3.137-1.485
		c0.978,0,2.724,0.918,4.168,2.672c1.175,1.427,3.015,4.492,2.137,8.983l1.391,0.272c0.991-5.062-1.099-8.536-2.433-10.156
		c-1.57-1.907-3.685-3.188-5.262-3.188C52.45,95.263,50.93,95.968,49.78,97.197z"/>
	<path d="M58.339,98.948l1.223,0.717c0.082-0.137,2.052-3.328,7.512-2.986c4.815,0.301,6.651,4.398,6.727,4.573l1.302-0.56
		c-0.089-0.207-2.237-5.071-7.94-5.429C60.79,94.865,58.436,98.781,58.339,98.948z"/>
	<path d="M22.718,118.069c-1.667,3.251-1.542,6.885,0.325,9.482l1.151-0.827c-1.555-2.164-1.638-5.233-0.214-8.009
		c1.29-2.516,4.149-5.203,8.306-5.203c6.977,0,7.122,4.122,7.125,4.297l1.417-0.005c0-0.058-0.098-5.708-8.542-5.708
		C28.273,112.097,24.607,114.385,22.718,118.069z"/>
	<path d="M39.151,105.487c-2.628,5.257-0.268,10.098-0.167,10.301l1.268-0.633c-0.021-0.043-2.137-4.428,0.166-9.033
		c1.001-2.003,2.588-3.105,4.354-3.023c1.437,0.066,2.717,0.922,3.186,2.128l1.321-0.514c-0.669-1.72-2.454-2.938-4.441-3.03
		C42.487,101.575,40.415,102.961,39.151,105.487z"/>
	<path d="M74.621,9.901c-1.628,1.148-3.708,3.727-4.373,9.489c-1.008,8.734,1.116,14.583,1.207,14.827l0.119,0.318l0.322,0.107
		c1.816,0.605,6.822-4.877,9.561-12.772c1.908-5.502,1.179-8.7,0.23-10.415c-0.724-1.311-1.845-2.225-3.074-2.508
		C77.348,8.656,75.893,9.004,74.621,9.901z M71.399,23.995c0-1.373,0.074-2.86,0.257-4.442c0.604-5.241,2.391-7.512,3.782-8.493
		c0.929-0.656,1.996-0.929,2.855-0.73c0.397,0.092,1.401,0.451,2.153,1.812c0.426,0.77,0.793,1.906,0.793,3.54
		c0,1.474-0.299,3.35-1.123,5.725c-2.442,7.038-6.206,10.91-7.529,11.698C72.207,31.815,71.399,28.545,71.399,23.995z"/>
	<path d="M68.28,6.451c-1.296,0.324-5.951,3.299-5.033,11.929c0.84,7.902,6.047,16.436,6.268,16.797l0.425,0.69l2.46-2.014
		l-0.898-1.097c0,0-0.647,0.529-1.189,0.973c-1.218-2.13-4.979-9.124-5.658-15.5c-0.076-0.712-0.11-1.38-0.11-2.007
		c0-6.004,3.19-8.175,4.078-8.396c0.585-0.147,2.533,0.221,3.833,1.236c0.633,0.493,0.954,1.024,0.954,1.576h1.417
		c0-0.997-0.518-1.929-1.499-2.693C71.798,6.75,69.4,6.171,68.28,6.451z"/>
	<path d="M57.059,8.382c-1.614,1.076-2.826,3.197-3.24,5.675c-0.614,3.663,0.536,7.633,3.237,11.178
		c5.409,7.1,11.914,9.163,12.188,9.248l0.418-1.354c-0.063-0.02-6.359-2.033-11.479-8.753c-3.32-4.357-3.284-8.189-2.966-10.085
		c0.346-2.067,1.354-3.879,2.629-4.729c1.561-1.041,3.157-0.834,3.97-0.618c1.318,0.35,2.222,1.115,2.503,1.679l1.268-0.634
		c-0.529-1.058-1.866-2.006-3.407-2.415C60.376,7.095,58.557,7.383,57.059,8.382z"/>
	<path d="M46.643,7.248c-2.361,0.871-3.981,2.582-4.227,4.465c-0.545,4.179,1.579,12.206,9.664,17.195
		c7.94,4.899,14.168,4.458,14.429,4.437l-0.113-1.413c-0.06,0.005-6.056,0.408-13.572-4.229c-7.459-4.604-9.481-12.138-9.002-15.806
		c0.175-1.339,1.475-2.641,3.311-3.318c2.255-0.832,5.676-0.808,8.511,1.753l0.95-1.052C53.29,6.295,49.287,6.273,46.643,7.248z"/>
	<path d="M35.802,10.005c-1.798,0.898-2.958,2.689-3.268,5.043c-0.59,4.482,1.941,9.959,6.448,13.954
		c7.509,6.655,17.105,5.055,22.26,4.195l0.16-0.026l-0.232-1.398l-0.161,0.026c-4.922,0.821-14.083,2.349-21.086-3.857
		c-5.061-4.485-6.386-9.649-5.983-12.708c0.247-1.873,1.133-3.279,2.497-3.961c4.024-2.012,6.014,0.808,6.096,0.929l1.177-0.789
		C43.682,11.372,40.969,7.422,35.802,10.005z"/>
	<path d="M87.802,8.779c-4.091,0.889-6.527,4.994-6.629,5.169l1.224,0.715c0.022-0.038,2.232-3.744,5.706-4.499
		c2.333-0.507,4.567-0.133,5.974,1.002c1.327,1.069,2,2.799,2,5.139c0,3.136-2.918,7.657-7.261,11.251
		c-5.137,4.251-10.955,6.265-15.565,5.387l-0.265,1.393c5.019,0.955,11.275-1.17,16.733-5.688c4.723-3.908,7.775-8.753,7.775-12.343
		c0-2.79-0.852-4.891-2.529-6.242C93.202,8.641,90.591,8.173,87.802,8.779z"/>
	<path d="M96.469,15.671l0.63,1.269c0.083-0.04,2.069-0.975,4.521,0.324c0.699,0.37,1.249,1.438,1.472,2.855
		c0.512,3.249-0.676,8.279-4.481,12.19c-5.5,5.653-19.967,3.358-21.165,2.491c0.005-0.005-0.1-0.141-0.084-0.23
		c0.018-0.108,0.178-0.259,0.281-0.321l-0.71-1.227c-0.084,0.048-0.821,0.489-0.966,1.295c-0.062,0.342-0.036,0.869,0.439,1.44
		c0.714,0.856,4.91,1.53,8.387,1.664c3.895,0.149,11.001-0.187,14.832-4.124c4.432-4.554,5.391-10.064,4.866-13.399
		c-0.301-1.912-1.085-3.293-2.208-3.888C99.165,14.36,96.578,15.617,96.469,15.671z"/>
	<path d="M98.289,33.115l0.328,1.379c5.636-1.337,10.94-0.498,13.513,2.139c1.371,1.405,1.822,3.189,1.304,5.158
		c-0.462,1.757-1.809,3.23-3.893,4.262c-4.259,2.105-10.831,2.078-15.982-0.068c-7.661-3.191-11.283-9.623-11.319-9.688
		l-1.241,0.684c0.155,0.281,3.88,6.924,12.016,10.313c5.502,2.292,12.557,2.305,17.156,0.03c2.462-1.219,4.064-3.007,4.635-5.172
		c0.643-2.441,0.053-4.752-1.66-6.509C110.186,32.611,104.494,31.644,98.289,33.115z"/>
	<path d="M103.453,22.562l1.332,0.484c0.136-0.372,1.639-1.22,3.939-1.169c1.595,0.035,4.416,0.555,5.386,3.64
		c2.025,6.446-2.492,9.229-2.685,9.344l0.719,1.222c0.058-0.034,5.689-3.441,3.317-10.99c-0.901-2.87-3.346-4.558-6.706-4.632
		C106.541,20.412,103.953,21.186,103.453,22.562z"/>
	<path d="M58.285,32.889l1.917-0.834c0,0,2.417,0.333,2.917,0.417c0.5,0.083,3,0,3,0l2.167,0.667l1.083,0.333l0.833,0.75l0.833-0.25
		l0.584-0.333c0,0,0.75,0.083,1,0.083s1.25,0,1.25,0l1.583,0.333h0.833l0.5,0.417l0.25,0.583l1.25,0.667l2.751,0.917l1.333,0.416
		l1.917,2.834c0,0-7.836,2.449-9.667,3.083c-2.167,0.75-3.584,3.083-3.584,3.083l-6.5-2.5c0,0,0.667-1.5-0.667-3.417
		C62.535,38.222,58.285,32.889,58.285,32.889z"/>
	<path d="M46.11,77.232l1.1,0.895c10.327-12.69,19.025-35.093,19.111-35.317l-1.322-0.51C64.913,42.522,56.294,64.718,46.11,77.232z
		"/>
	<path d="M48.959,83.018l1.152,0.825C60.78,68.955,71.205,45.452,71.309,45.216l-1.297-0.572
		C69.908,44.878,59.542,68.25,48.959,83.018z"/>
	<path d="M51.91,70.43l2.75-4.625c0,0-1.75-4.625-1.25-9.375s1.25-7.875-0.25-10.625s-4.125-3.25-6.5-2.75s-4.875,0.5-5.875-0.875
		s-3.25-3.25-6.5-2.25s-4.75,3.5-6.25,5.75s-3.5,5.375-6.125,6.5s-4.125,4.25-3.875,6.375s2.125,4.25,6.625,4s10.375-2.5,17.75-0.25
		C49.785,64.555,52.035,69.805,51.91,70.43z"/>
	<path d="M56.41,72.93l1.375-2.375c0,0,3.75-0.5,6.625-2.375c2.875-1.875,7.25-7.25,9.375-10s5.251-4.5,8.251-5
		s6.125,0.625,9.75,2.125s6.125,1.875,9.125,0.875s6.5-1.375,9.625-0.125s3.625,2.5,3.125,4.875s-6.375,9.125-19,11.625
		s-23.875,0.25-27.5-0.125C63.535,72.055,56.91,72.555,56.41,72.93z"/>
	<path d="M55.535,96.055c0,0-1.125-7.375-2.625-12.25s-4.375-8.25-8.625-10.5s-10.75-5-16.125-3s-7.625,9.375-7.625,9.375
		s-7.75-2.25-12.75,2.25l0.125,32.5c0,0,1.25,5.625,14.25,10.25c0,0-0.375-6.5,3.5-9.625s10.625-2.75,13.5,0
		c0,0-1.375-5.125,0.375-8.75s5.75-5.375,8.875-2.25c0,0-0.125-4.625,2.375-6.625S55.535,96.055,55.535,96.055z"/>
	<path d="M19.285,132.18c0,0-3.875-4.625-11.25-5.5l-0.25,46.875c0,0,10-3.125,15.125-9.625c0,0-1.25-4.125-0.125-6.875
		c0,0-3.375-1-3.875-3.625s1.5-9,3.25-11.5c0,0-2.625-0.625-3.5-2.875S19.285,132.18,19.285,132.18z"/>
	<path d="M25.119,168.138c0,0-7.333,2.834-10.5,11.334s3.833,21.334,19.666,28.834c0,0-16.333,10.5-24,19.5
		c0,0,2.246,2.834,4.833,3.166c2.588,0.334,7.167,0.5,7.167,0.5s-1-5.168,6-10.5c7-5.334,19.333-9.334,19.333-9.334
		s8.167,5.5,18,4.5s16-13.332,16-13.332s7.668-0.168,12.834-4.334c5.166-4.166,6.334-11.168,4-14.5
		c-2.334-3.334-9.001-8-18.334-10.334c0,0-1.375,3.459-4.167,4c-2.792,0.542-6.166-4.708-6.166-4.708s-0.5,0.25-0.875,1
		s-2.25,6.125-6.375,6.5s-5.5-5.875-5.5-5.875s-1.083-0.083-1.5,1c-0.417,1.083-4.875,6.75-8,6.375s-3.875-4.75-3.875-4.75
		s-2.542,4.5-5.708,4.125s-6.416-3.625-3.292-12.375l-1.75,0.375C32.91,169.305,27.327,172.347,25.119,168.138z"/>
	<path d="M28.91,204.556c0,0-5.5,12.125-6,13.625s-10.625,11.375-10.625,11.375s-4-1.875-4.25-5.75c0,0,4.125-17.25,12.25-27.125
		S28.91,204.556,28.91,204.556z"/>
	<path d="M107.036,118.055c0,0,3,2.875,0.625,7.375c0,0,5.875,2.125,5.75,7.625c-0.125,5.5-7.625,7.125-9,6.5
		c0,0-0.25,0.5,0.375,1.125s3.625,4.375,1.625,9.625c0,0,7.625,4.25,12,5.75s8.25,0.25,12.5-3c0,0,8.125-0.75,10.625-6.875
		s-0.25-12.875-0.25-12.875s3.625-8.625-0.375-13.75s-5.125-5.5-5.625-7.5s-3.125-7.875-9.5-9
		C119.411,101.93,113.536,105.68,107.036,118.055z"/>
</g>
</svg>
