<?xml version="1.0" encoding="iso-8859-1"?>
<!-- Generator: Adobe Illustrator 19.1.0, SVG Export Plug-In . SVG Version: 6.00 Build 0)  -->
<svg version="1.1" id="&#xB808;&#xC774;&#xC5B4;_1" xmlns="http://www.w3.org/2000/svg" xmlns:xlink="http://www.w3.org/1999/xlink"
	 x="0px" y="0px" viewBox="0 0 153.07 238.11" style="enable-background:new 0 0 153.07 238.11;" xml:space="preserve">
<rect style="fill:#E60012;" width="153.07" height="238.11"/>
<g>
	<path style="fill:#E60012;" d="M7.623,15.167l0.25,31.625l-0.25,139.5l0.125,36.25c0,0,0.375,8.25,10,8.625l117.876,0.25
		c0,0,10.125-1.625,9.625-11.25l0.25-204.125c0,0-1-8.75-10-9.375L16.873,6.792C16.873,6.792,8.748,6.792,7.623,15.167z"/>
	<path d="M17.669,6.084c-5.861,0-10.63,4.768-10.63,10.63v204.658c0,5.861,4.768,10.63,10.63,10.63h117.657
		c5.861,0,10.631-4.769,10.631-10.63V16.713c0-5.861-4.77-10.63-10.631-10.63H17.669z M8.456,221.371V16.713
		c0-5.08,4.133-9.213,9.213-9.213h117.657c5.08,0,9.213,4.133,9.213,9.213v204.658c0,5.08-4.133,9.212-9.213,9.212H17.669
		C12.589,230.583,8.456,226.451,8.456,221.371z"/>
	<path d="M145.248,209.042c0,0-19.75-6.75-32.5-12.25s-47.501-26-54.501-32.75l1-141.25c0,0,14.453,15.562,46.751,20.25
		c31,4.5,39.25-0.25,39.25-0.25"/>
	<path d="M7.748,186.042c0,0,3,5.25,15.5,5.75c0,0,5.75-6,12.5-11.75l0.5-158.5c-16.5,20.25-28.75,24.5-28.75,24.5L7.748,186.042z"
		/>
	<path d="M132.906,230.632l1.018,0.986c0.051-0.053,5.18-5.311,11.518-9.049l-0.721-1.221
		C138.213,225.188,133.119,230.411,132.906,230.632z"/>
	<path d="M123.418,230.954l0.994,1.01c0.103-0.103,10.582-10.377,21.402-17.753l-0.799-1.172
		C134.09,220.489,123.523,230.851,123.418,230.954z"/>
	<path d="M116.783,230.424l0.928,1.07c0.125-0.107,12.637-10.908,27.742-20.267l-0.746-1.205
		C129.502,219.443,116.908,230.314,116.783,230.424z"/>
	<path d="M119.076,228.564l1.342,0.457c0.053-0.155,5.383-15.663,12.719-24.956l-1.113-0.879
		C124.535,212.672,119.131,228.406,119.076,228.564z"/>
	<path d="M106.164,230.718l0.832,1.148c0.199-0.146,20.16-14.564,38.221-23.101l-0.605-1.281
		C126.43,216.079,106.365,230.573,106.164,230.718z"/>
	<path d="M121.814,226.754l-0.133,1.41c0.365,0.035,9.068,0.817,17.926-1.691l-0.387-1.363
		C130.627,227.543,121.9,226.762,121.814,226.754z"/>
	
		<rect x="102.539" y="189.379" transform="matrix(-0.5525 -0.8335 0.8335 -0.5525 -20.0626 421.9785)" width="1.418" height="53.993"/>
	<path d="M71.193,230.366l0.776,1.186c0.468-0.307,46.841-30.671,48.802-31.814l-0.713-1.225
		C118.064,199.675,73.106,229.113,71.193,230.366z"/>
	<path d="M58.531,230.695l0.766,1.193c2.11-1.355,51.713-33.2,54.203-35.025l-0.838-1.143
		C110.207,197.52,59.048,230.364,58.531,230.695z"/>
	<path d="M78.385,193.593c0.746,3.896,2.27,6.533,4.527,7.837c1.793,1.034,3.949,1.16,6.234,0.364
		c5.535-1.925,4.6-14.771,4.475-16.23l-1.412,0.121c0.561,6.535-0.473,13.708-3.527,14.77c-1.314,0.457-3.262,0.784-5.061-0.254
		c-1.885-1.089-3.18-3.402-3.844-6.876c-1.463-7.632-0.502-16.2-0.492-16.286l-1.409-0.162
		C77.835,177.236,76.881,185.743,78.385,193.593z"/>
	<path d="M59.89,224.803l1.382,0.312c0.052-0.227,5.275-22.806,17.66-36.005l-1.034-0.971
		C65.246,201.625,59.942,224.572,59.89,224.803z"/>
	<path d="M44.404,230.914l1.353,0.422c0.125-0.401,12.621-40.267,25.896-58.459l-1.145-0.836
		C57.095,190.424,44.53,230.512,44.404,230.914z"/>
	
		<rect x="68.876" y="177.083" transform="matrix(-0.5678 -0.8232 0.8232 -0.5678 -29.1733 340.2655)" width="11.742" height="1.418"/>
	<path d="M68.158,176.019c1.964,2.945,8.413,12.598,8.922,13.107l1.014-0.99c-0.452-0.509-5.484-7.996-8.756-12.904L68.158,176.019z
		"/>
	<path d="M66.364,179.738c0.071,0.089,7.183,8.856,9.48,11.974l1.141-0.84c-2.316-3.145-9.448-11.939-9.52-12.026L66.364,179.738z"
		/>
	<path d="M64.217,183.262c2.625,2.967,7.822,9.148,8.709,11.3l1.311-0.539c-1.198-2.91-8.642-11.343-8.958-11.7L64.217,183.262z"/>
	<path d="M62.734,186.28c0.066,0.069,6.599,6.956,8.36,11.121l1.306-0.553c-1.863-4.402-8.364-11.256-8.64-11.545L62.734,186.28z"/>
	<path d="M61.195,189.236c2.073,2.579,7.626,9.621,8.419,11.206l1.268-0.635c-1.022-2.044-8.274-11.076-8.582-11.46L61.195,189.236z
		"/>
	<path d="M59.386,193.097c0.069,0.078,6.959,7.803,8.402,10.527l1.253-0.664c-1.523-2.876-8.31-10.484-8.598-10.807L59.386,193.097z
		"/>
	<path d="M57.711,196.922c0.063,0.073,6.322,7.327,8.108,10.088l1.19-0.77c-1.839-2.843-7.965-9.943-8.226-10.244L57.711,196.922z"
		/>
	<path d="M56.364,199.738c0.071,0.088,7.125,8.794,8.242,11.186l1.284-0.6c-1.19-2.55-8.13-11.116-8.425-11.48L56.364,199.738z"/>
	<path d="M54.271,204.149c0.071,0.064,7.089,6.453,8.842,9.96l1.268-0.634c-1.871-3.743-8.861-10.106-9.158-10.375L54.271,204.149z"
		/>
	<path d="M53.063,208.109c0.073,0.078,7.306,7.813,8.754,10.065l1.192-0.766c-1.518-2.36-8.611-9.946-8.912-10.269L53.063,208.109z"
		/>
	<path d="M51.575,211.788c3.318,3.385,8.464,8.839,9.039,9.988l1.268-0.635c-0.858-1.716-8.434-9.468-9.294-10.346L51.575,211.788z"
		/>
	<path d="M49.863,215.237c0.07,0.087,7.009,8.68,8.484,10.646l1.134-0.85c-1.49-1.987-8.229-10.333-8.516-10.688L49.863,215.237z"/>
	<polygon points="49.024,219.063 55.861,227.734 56.967,226.85 50.138,218.188 	"/>
	
		<rect x="46.498" y="225.417" transform="matrix(-0.6668 -0.7452 0.7452 -0.6668 -83.9234 414.7302)" width="8.498" height="1.417"/>
	<path d="M51,230.224c-0.671-0.646-4.094-3.942-4.094-3.942l-0.983,1.021l4.906,4.724l0.472-0.308
		c0.528-0.343,52.864-34.347,57.78-36.969l-0.666-1.25C103.633,196.049,56.493,226.655,51,230.224z"/>
	<path d="M50.211,176.584c-7.397,0.379-16.942,2.038-25.167,11.578c-7.749,8.988-17.994,29.274-18.096,29.479l1.266,0.637
		c0.102-0.202,10.269-20.333,17.904-29.189c7.874-9.134,17.051-10.724,24.166-11.088c6.345-0.325,15.701,1.957,15.794,1.981
		l0.339-1.377C66.026,178.508,56.766,176.249,50.211,176.584z"/>
	<path d="M50.717,177.254c0,0,1.601,8.734,1.751,9.552c-3.334,2.354-27.845,20.271-36.552,43.908l1.33,0.49
		c9.144-24.822,36.127-43.308,36.399-43.491l0.383-0.26l-1.917-10.455L50.717,177.254z"/>
	
		<rect x="44.52" y="182.083" transform="matrix(-0.2282 -0.9736 0.9736 -0.2282 -116.5615 273.1843)" width="10.955" height="1.417"/>
	<path d="M45.78,178.109c0.775,1.551,1.897,9.504,2.264,12.438l1.406-0.176c-0.138-1.105-1.378-10.847-2.403-12.895L45.78,178.109z"
		/>
	<path d="M42.725,178.457c0.984,4.103,2.808,13.703,2.826,13.8l1.393-0.264c-0.019-0.097-1.848-9.73-2.841-13.866L42.725,178.457z"
		/>
	<path d="M40.092,179.062c1.118,2.716,2.769,15.197,2.786,15.323l1.405-0.186c-0.068-0.52-1.693-12.792-2.881-15.677L40.092,179.062
		z"/>
	<path d="M37.226,179.627c0.019,0.075,1.842,7.577,3.154,16.766l1.403-0.201c-1.323-9.26-3.162-16.825-3.18-16.9L37.226,179.627z"/>
	<path d="M33.573,181.842c0.028,0.088,2.836,8.89,4.309,17.569l1.398-0.238c-1.491-8.78-4.329-17.676-4.357-17.765L33.573,181.842z"
		/>
	<path d="M30.742,183.349c0.02,0.06,2.007,6.111,3.972,18.72l1.4-0.219c-1.986-12.745-3.945-18.701-4.028-18.948L30.742,183.349z"/>
	<path d="M27.912,185.524c0.028,0.081,2.827,8.24,4.3,19.691l1.405-0.182c-1.492-11.605-4.337-19.893-4.366-19.975L27.912,185.524z"
		/>
	<path d="M25.238,188.17c0.025,0.08,2.506,8.095,4.309,19.896l1.401-0.215c-1.821-11.915-4.333-20.023-4.358-20.104L25.238,188.17z"
		/>
	<path d="M22.739,191.506c0.021,0.068,2.175,6.946,4.142,19.893l1.401-0.213c-1.985-13.07-4.17-20.039-4.192-20.107L22.739,191.506z
		"/>
	<path d="M20.559,194.957c0.028,0.118,2.839,11.895,3.988,19.607l1.402-0.209c-1.157-7.774-3.983-19.609-4.012-19.728
		L20.559,194.957z"/>
	<path d="M17.737,198.67c0.032,0.101,3.15,10.207,3.803,20.169l1.414-0.093c-0.664-10.134-3.832-20.396-3.864-20.498L17.737,198.67z
		"/>
	<path d="M14.909,203.183c0.026,0.08,2.666,8.082,4.304,19.543l1.403-0.201c-1.657-11.596-4.335-19.709-4.362-19.789L14.909,203.183
		z"/>
	<path d="M12.906,207.007c0.035,0.109,3.49,11.039,4.471,19.863l1.408-0.156c-0.996-8.966-4.494-20.026-4.529-20.137L12.906,207.007
		z"/>
	<path d="M11.226,210.295c0.032,0.128,3.169,12.885,4.152,20.587l1.406-0.18c-0.994-7.783-4.15-20.618-4.182-20.747L11.226,210.295z
		"/>
	<path d="M9.215,213.743c0.017,0.099,1.691,9.938,3.346,16.392l1.373-0.352c-1.64-6.396-3.305-16.179-3.321-16.276L9.215,213.743z"
		/>
	<path d="M35.553,231.153l1.39,0.277c0.05-0.249,5.084-25.096,13.932-41.807l-1.253-0.664
		C40.676,205.856,35.603,230.902,35.553,231.153z"/>
	<path d="M35.057,170.513l0.714,1.225c0.107-0.062,10.845-6.182,27.052-4.075l0.183-1.406
		C46.291,164.084,35.507,170.25,35.057,170.513z"/>
	<path d="M51.083,166.545l1.328,0.494c0.026-0.07,2.669-7.078,7.004-11.413l-1.002-1.002
		C53.856,159.181,51.194,166.246,51.083,166.545z"/>
	<path d="M34.587,167.867l1.32,0.516c0.086-0.22,8.795-22.182,24.482-36.398l-0.952-1.051
		C43.499,145.38,34.675,167.644,34.587,167.867z"/>
	<path d="M41.621,154.48c-0.355,0.162-0.512,0.579-0.352,0.935c0.16,0.356,0.578,0.516,0.935,0.357
		c0.134-0.059,3.311-1.414,6.567,1.545c3.314,3.013,2.457,7.625,2.448,7.671c-0.075,0.384,0.174,0.756,0.558,0.832
		c0.383,0.076,0.755-0.172,0.832-0.556c0.044-0.22,1.034-5.435-2.885-8.996C45.758,152.662,41.788,154.403,41.621,154.48z"/>
	<path d="M34.373,149.459c0,0.392,0.317,0.709,0.709,0.709c4.641,0,6.614,3.933,6.695,4.1c0.171,0.352,0.595,0.499,0.946,0.328
		c0.352-0.17,0.5-0.592,0.33-0.944c-0.097-0.2-2.423-4.901-7.972-4.901C34.689,148.75,34.373,149.067,34.373,149.459z"/>
	<path d="M49.08,130.958c-2.686,2.686-12.665,17.639-13.089,18.273c-0.217,0.326-0.128,0.766,0.197,0.983
		c0.326,0.217,0.766,0.129,0.982-0.196c0.103-0.155,10.325-15.471,12.912-18.059c2.107-2.107,3.479-1.485,4.581-0.985l0.305,0.136
		c0.294,0.126,0.6,0.577,0.779,1.15c0.249,0.795,0.209,1.661-0.101,2.155c-0.208,0.332-0.107,0.769,0.226,0.977
		c0.331,0.208,0.768,0.107,0.976-0.225c0.636-1.018,0.548-2.388,0.252-3.331c-0.312-0.994-0.885-1.734-1.573-2.029l-0.278-0.124
		C54.072,129.15,51.881,128.156,49.08,130.958z"/>
	<path d="M46.203,121.192c-3.402,2.148-10.318,13.922-12.77,19.48c-0.158,0.358,0.004,0.777,0.362,0.935
		c0.358,0.158,0.777-0.005,0.935-0.362c2.564-5.812,9.341-17.029,12.23-18.854c1.321-0.835,2.544-1.054,3.444-0.617
		c0.816,0.396,1.338,1.315,1.473,2.592c0.301,2.859-1.854,5.988-1.876,6.02c-0.224,0.321-0.145,0.764,0.175,0.987
		c0.321,0.224,0.762,0.146,0.986-0.175c0.102-0.145,2.482-3.589,2.124-6.98c-0.188-1.781-0.991-3.102-2.264-3.719
		C49.665,119.841,47.953,120.087,46.203,121.192z"/>
	<path d="M59.264,109.492c-6.085,3.042-11.688,10.726-11.924,11.052c-0.229,0.316-0.158,0.76,0.159,0.989
		c0.317,0.229,0.76,0.158,0.99-0.159c0.056-0.076,5.638-7.728,11.41-10.615c0.35-0.175,0.492-0.601,0.317-0.951
		C60.04,109.459,59.614,109.316,59.264,109.492z"/>
	<path d="M34.694,86.183c-0.245,0.306-0.195,0.752,0.11,0.996c0.306,0.245,0.751,0.195,0.996-0.11
		c1.982-2.477,8.412-4.519,13.091-3.369c2.462,0.604,3.918,1.971,4.327,4.062c1.433,7.323-1.902,13.975-1.936,14.041l-0.886,1.736
		l1.796-0.762c0.014-0.005,1.36-0.565,2.542-0.015c0.758,0.353,1.319,1.106,1.668,2.239c1.219,3.96,0.218,6.125,0.208,6.146
		c-0.168,0.351-0.024,0.774,0.326,0.945c0.35,0.171,0.77,0.032,0.944-0.317c0.053-0.105,1.278-2.639-0.123-7.192
		c-0.474-1.54-1.295-2.587-2.44-3.114c-0.774-0.356-1.549-0.393-2.199-0.333c0.727-1.809,1.88-5.321,1.88-9.532
		c0-1.318-0.114-2.7-0.391-4.115c-0.517-2.643-2.377-4.43-5.38-5.167C44.401,81.137,37.202,83.049,34.694,86.183z"/>
	<path d="M34.854,92.869c-0.325,0.217-0.413,0.656-0.197,0.981c0.216,0.326,0.655,0.415,0.981,0.199
		c0.145-0.095,3.559-2.304,5.941,0.078c2.026,2.026,0.348,6.838-0.47,8.522l-0.297,0.611l0.607,0.328
		c0.02,0.011,1.99,1.122,2.286,5.42c0.308,4.47-4.844,13.14-8.703,15.874c-0.319,0.225-0.395,0.668-0.168,0.987
		c0.226,0.319,0.668,0.396,0.988,0.169c4.137-2.93,9.313-11.489,9.313-16.641c0-0.166-0.005-0.328-0.016-0.487
		c-0.259-3.757-1.686-5.484-2.495-6.179c0.442-1.034,1.338-3.409,1.338-5.722c0-1.442-0.351-2.853-1.382-3.884
		C40.016,90.559,36.405,91.835,34.854,92.869z"/>
	<path d="M59.146,76.417c-1.584,2.535-7.451,7.276-7.51,7.324c-0.305,0.246-0.353,0.691-0.107,0.996
		c0.246,0.305,0.691,0.353,0.997,0.107c0.249-0.2,6.112-4.94,7.823-7.676c0.208-0.332,0.107-0.769-0.226-0.977
		C59.792,75.983,59.354,76.084,59.146,76.417z"/>
	<path d="M59.646,65.083C59.06,66.022,50.3,75.804,44.556,82.15c-0.263,0.29-0.24,0.738,0.05,1.001
		c0.29,0.263,0.738,0.24,1.001-0.05c1.471-1.626,14.399-15.92,15.242-17.267c0.208-0.332,0.107-0.769-0.225-0.977
		C60.292,64.65,59.855,64.751,59.646,65.083z"/>
	<path d="M59.494,55.061c-0.599,0.844-15.04,16.56-24.601,26.917c-0.266,0.288-0.248,0.736,0.04,1.001
		c0.288,0.266,0.736,0.248,1.001-0.04c2.46-2.665,24.058-26.07,24.736-27.087c0.215-0.322,0.127-0.751-0.193-0.971
		C60.159,54.662,59.719,54.745,59.494,55.061z"/>
	<path d="M59.723,47.982C58.07,49.8,35.666,75.564,34.713,76.661c-0.257,0.295-0.226,0.743,0.07,0.999
		c0.295,0.257,0.743,0.226,1-0.07c0.233-0.268,23.347-26.849,24.99-28.655c0.263-0.29,0.242-0.738-0.048-1.001
		C60.435,47.671,59.986,47.692,59.723,47.982z"/>
	<path d="M60.269,40.603c-2.006,1.839-24.754,27.946-25.722,29.057c-0.257,0.295-0.227,0.743,0.069,1
		c0.295,0.257,0.743,0.227,1-0.069c0.236-0.271,23.663-27.157,25.611-28.943c0.289-0.265,0.308-0.713,0.043-1.001
		C61.005,40.358,60.557,40.339,60.269,40.603z"/>
	<path d="M69.264,6.266c-0.187,0.041-18.854,4.192-34.312,17.489l-0.197,0.169l-0.72,4.561l1.096-0.352
		c0.225-0.072,22.608-7.325,36.379-17.777c0.312-0.236,0.373-0.681,0.136-0.993c-0.237-0.312-0.681-0.373-0.993-0.136
		c-11.846,8.991-30.216,15.601-34.857,17.187c0.128-0.808,0.233-1.476,0.275-1.745C51.209,11.747,69.381,7.69,69.564,7.651
		c0.332-0.072,0.559-0.366,0.559-0.692c0-0.049-0.005-0.1-0.016-0.15C70.024,6.426,69.647,6.183,69.264,6.266z"/>
	<path d="M99.129,15.81c-17.811,7.824-25,17.983-25.297,18.412c-0.223,0.321-0.143,0.762,0.178,0.985
		c0.321,0.224,0.763,0.144,0.986-0.177c0.071-0.102,7.289-10.273,24.703-17.922c0.359-0.157,0.521-0.576,0.363-0.934
		C99.906,15.815,99.488,15.652,99.129,15.81z"/>
	<path d="M118.416,15.622c-0.277,0.275-0.281,0.724-0.006,1.002c14.232,14.395,20.791,29.139,20.855,29.287
		c0.156,0.358,0.574,0.521,0.934,0.364c0.357-0.157,0.521-0.575,0.365-0.934c-0.066-0.149-6.721-15.122-21.146-29.713
		C119.143,15.349,118.695,15.346,118.416,15.622z"/>
	<path d="M80.924,27.027c-0.146,0.363,0.029,0.776,0.393,0.922c0.24,0.097,24.475,9.71,53.293,8.551
		c0.391-0.016,0.695-0.345,0.68-0.736c-0.016-0.391-0.346-0.695-0.736-0.68c-28.504,1.147-52.469-8.353-52.707-8.449
		C81.482,26.488,81.07,26.664,80.924,27.027z"/>
	<path d="M86.268,23.335c-0.16,0.356-0.002,0.776,0.356,0.937c0.154,0.069,15.637,6.894,44.129,6.729
		c0.391-0.002,0.707-0.321,0.705-0.712c-0.004-0.392-0.322-0.707-0.713-0.705c-28.15,0.164-43.389-6.537-43.539-6.604
		C86.848,22.819,86.428,22.977,86.268,23.335z"/>
	<path d="M91.938,19.328c-0.164,0.355-0.01,0.777,0.346,0.941c0.137,0.064,14.059,6.396,34.82,5.732
		c0.391-0.013,0.697-0.34,0.686-0.731c-0.014-0.392-0.34-0.698-0.731-0.686c-20.406,0.652-34.045-5.539-34.18-5.602
		C92.523,18.818,92.104,18.972,91.938,19.328z"/>
	<path d="M96,17.254c-16.055,1.839-27.961,13.247-28.08,13.363c-0.281,0.272-0.287,0.721-0.015,1.002
		c0.272,0.281,0.721,0.287,1.002,0.015c0.115-0.111,11.69-11.188,27.254-12.971c0.389-0.044,0.668-0.396,0.623-0.785
		C96.74,17.489,96.389,17.21,96,17.254z"/>
	<path d="M63.935,27.604c-0.288,0.265-0.307,0.713-0.042,1.001c0.265,0.289,0.713,0.308,1.001,0.043
		c0.121-0.111,12.259-11.078,26.081-8.988c0.387,0.059,0.748-0.208,0.807-0.595c0.059-0.387-0.207-0.748-0.596-0.807
		C76.684,16.065,64.448,27.132,63.935,27.604z"/>
	<path d="M60.57,16.248c-0.025,0.372,0.273,0.702,0.643,0.751c0.79,0.105,6.978,2.878,12.399,5.434
		c0.354,0.167,0.776,0.015,0.943-0.339c0.167-0.354,0.015-0.776-0.339-0.943c-3.551-1.674-11.923-5.567-12.969-5.567
		C60.875,15.584,60.594,15.875,60.57,16.248z"/>
	<path d="M55.744,18.561c-0.127,0.37,0.064,0.772,0.434,0.899l14.006,4.836c-0.37-0.128-0.567-0.532-0.44-0.902
		c0.128-0.37,0.53-0.566,0.9-0.439L56.65,18.124C56.28,17.996,55.872,18.191,55.744,18.561z"/>
	<path d="M81.611,9.148c-0.172,0.352-0.025,0.775,0.326,0.947c0.127,0.062,12.844,6.228,23.283,9.211
		c10.467,2.991,18.928,3.192,19.014,3.194c0.391,0.008,0.713-0.303,0.721-0.694c0.01-0.391-0.303-0.715-0.693-0.723
		c-0.082-0.002-8.373-0.202-18.652-3.139c-10.318-2.948-22.926-9.061-23.051-9.123C82.205,8.65,81.781,8.797,81.611,9.148z"/>
	<path d="M85.68,6.209c-9.936,6.84-22.47,9.864-22.596,9.894c-0.38,0.09-0.616,0.472-0.526,0.853c0.09,0.38,0.472,0.616,0.853,0.526
		c0.128-0.03,12.913-3.111,23.072-10.106c0.322-0.222,0.404-0.663,0.182-0.985C86.441,6.068,86.002,5.986,85.68,6.209z"/>
	<path d="M107.9,6.638c-0.025,0.026-2.574,2.636-7.695,2.947L85.336,10.43l-0.168,0.12c-8.58,6.151-17.436,7.528-17.524,7.541
		c-0.387,0.058-0.654,0.419-0.597,0.805c0.058,0.387,0.418,0.654,0.805,0.597c0.372-0.055,9.147-1.424,17.957-7.671
		C86.176,11.801,100.291,11,100.291,11c5.715-0.347,8.523-3.264,8.639-3.388c0.129-0.137,0.193-0.31,0.193-0.484
		c0-0.188-0.074-0.375-0.223-0.515C108.617,6.344,108.17,6.356,107.9,6.638z"/>
	<path d="M87.803,11.74c-5.834,4.7-16.023,8.348-16.125,8.384c-0.369,0.131-0.562,0.536-0.431,0.905
		c0.131,0.369,0.536,0.562,0.905,0.431c0.427-0.151,10.517-3.763,16.54-8.616c0.305-0.246,0.354-0.691,0.107-0.996
		C88.555,11.543,88.107,11.495,87.803,11.74z"/>
	<path d="M91.098,13.273c-2.234,2.075-7.949,5.026-8.008,5.056c-0.348,0.179-0.484,0.606-0.305,0.955
		c0.178,0.348,0.605,0.485,0.953,0.306c0.242-0.125,5.947-3.07,8.324-5.277c0.287-0.267,0.303-0.715,0.037-1.001
		C91.834,13.023,91.385,13.006,91.098,13.273z"/>
	<path d="M94.141,14.594c-0.267,0.443-2.625,2.406-4.658,3.97c-0.311,0.239-0.367,0.684-0.129,0.994
		c0.238,0.31,0.684,0.368,0.994,0.129c1.041-0.801,4.479-3.484,5.008-4.364c0.201-0.335,0.092-0.772-0.244-0.972
		C94.777,14.149,94.342,14.258,94.141,14.594z"/>
	<path d="M132.844,6.42c-0.389,0.039-0.674,0.386-0.635,0.776c1.762,17.601-2.105,22.068-2.146,22.111
		c-0.26,0.287-0.246,0.733,0.037,0.998c0.283,0.265,0.723,0.257,0.992-0.023c0.18-0.187,4.373-4.781,2.527-23.228
		C133.58,6.666,133.234,6.381,132.844,6.42z"/>
	<path d="M125.91,6.169c-0.344,0.186-0.473,0.616-0.285,0.96c0.053,0.1,5.363,10.105,3.59,21.387
		c-0.061,0.387,0.203,0.749,0.59,0.81c0.387,0.061,0.75-0.204,0.811-0.59c1.85-11.767-3.516-21.857-3.744-22.281
		C126.686,6.111,126.256,5.982,125.91,6.169z"/>
	<path d="M90.232,6.474c-0.27,0.285-0.256,0.732,0.029,1c0.266,0.251,6.672,6.169,20.029,8.516
		c12.396,2.177,18.799-0.434,19.064-0.545c0.359-0.152,0.529-0.566,0.379-0.927c-0.152-0.36-0.566-0.53-0.928-0.38
		c-0.062,0.026-6.332,2.553-18.27,0.456c-12.908-2.267-19.242-8.093-19.305-8.152C90.947,6.175,90.5,6.189,90.232,6.474z"/>
	<path d="M109.281,6.642c-0.176,0.35-0.033,0.775,0.316,0.951l16.666,8.333c0.35,0.175,0.775,0.034,0.951-0.317
		c0.174-0.35,0.033-0.775-0.316-0.951l-16.666-8.333C109.881,6.149,109.457,6.291,109.281,6.642z"/>
	<path d="M137.207,41.093c-0.018,0.391,0.285,0.722,0.676,0.74l7.332,0.333c0.391,0.018,0.723-0.285,0.74-0.676
		c0.018-0.391-0.285-0.722-0.676-0.74l-7.332-0.333C137.557,40.4,137.225,40.702,137.207,41.093z"/>
	<path d="M135.207,38.085c-0.022,0.391,0.277,0.726,0.668,0.748l8.832,0.5c0.391,0.022,0.726-0.277,0.748-0.667
		c0.021-0.391-0.277-0.726-0.668-0.748l-8.832-0.5C135.564,37.396,135.229,37.695,135.207,38.085z"/>
	<path d="M133.539,34.927c-0.018,0.391,0.285,0.722,0.678,0.74l11.166,0.5c0.391,0.018,0.723-0.285,0.74-0.676
		c0.017-0.391-0.285-0.722-0.678-0.74l-11.166-0.5C133.889,34.233,133.557,34.536,133.539,34.927z"/>
	<path d="M131.039,31.441c-0.01,0.391,0.299,0.716,0.691,0.726l13.332,0.334c0.393,0.01,0.717-0.299,0.727-0.691
		c0.01-0.391-0.299-0.716-0.691-0.726l-13.332-0.334C131.375,30.74,131.049,31.049,131.039,31.441z"/>
	<path d="M131.373,27.59c-0.02,0.391,0.281,0.724,0.672,0.743L145.379,29c0.391,0.02,0.725-0.282,0.744-0.673
		c0.019-0.391-0.281-0.724-0.674-0.743l-13.334-0.666C131.725,26.898,131.393,27.199,131.373,27.59z"/>
	<path d="M132.373,24.429c-0.018,0.391,0.287,0.721,0.678,0.737l12,0.5c0.391,0.016,0.721-0.288,0.738-0.678
		c0.016-0.391-0.287-0.722-0.68-0.738l-12-0.5C132.719,23.734,132.389,24.038,132.373,24.429z"/>
	<path d="M132.705,21.282c-0.004,0.391,0.309,0.713,0.699,0.719l11.5,0.166c0.391,0.006,0.713-0.307,0.719-0.698
		c0.006-0.392-0.307-0.713-0.697-0.719l-11.5-0.166C133.033,20.578,132.711,20.891,132.705,21.282z"/>
	<path d="M133.039,17.262c-0.016,0.391,0.287,0.722,0.678,0.738l11.668,0.5c0.391,0.017,0.721-0.287,0.738-0.678
		c0.016-0.391-0.287-0.722-0.678-0.738l-11.668-0.5C133.387,16.567,133.057,16.871,133.039,17.262z"/>
	<path d="M132.977,13.335c-0.152,0.318-0.082,0.685,0.211,0.881c0.182,0.121,0.664,0.442,11.527,0.951
		c0.391,0.018,0.723-0.284,0.74-0.675c0.019-0.391-0.283-0.723-0.674-0.741c-4.824-0.226-10.291-0.573-10.916-0.771
		C133.527,12.874,133.129,13.016,132.977,13.335z"/>
	<path d="M133.58,9.917c-0.391,0-0.709,0.317-0.709,0.709s0.318,0.708,0.709,0.708h9.334c0.393,0,0.709-0.317,0.709-0.708
		s-0.316-0.709-0.709-0.709H133.58z"/>
	<path d="M27.065,22.509c-9.96,5.644-19.873,15.009-19.972,15.102c-0.284,0.27-0.295,0.718-0.026,1.002
		c0.27,0.284,0.718,0.296,1.002,0.026c0.098-0.093,9.888-9.341,19.694-14.897c8.602-4.874,10.393-4.14,10.665-3.944
		c0.213,0.155,0.186,0.55,0.125,0.854c-0.077,0.384,0.172,0.757,0.556,0.834s0.757-0.172,0.834-0.556
		c0.258-1.29-0.229-1.952-0.684-2.281C38.244,17.916,35.875,17.517,27.065,22.509z"/>
	<path d="M7.373,14.786c-0.003,0.392,0.311,0.711,0.703,0.714l40,0.333c0.391,0.003,0.711-0.311,0.714-0.703
		c0.003-0.391-0.311-0.711-0.703-0.714l-40-0.333C7.696,14.08,7.375,14.395,7.373,14.786z"/>
	<path d="M8.706,11.778C8.698,12.17,9.009,12.493,9.4,12.501l43.833,0.833c0.392,0.007,0.715-0.304,0.722-0.695
		c0.007-0.392-0.304-0.715-0.695-0.722L9.428,11.084C9.036,11.076,8.713,11.387,8.706,11.778z"/>
	<path d="M11.373,8.939c-0.011,0.391,0.297,0.717,0.689,0.728l47,1.334c0.391,0.011,0.717-0.297,0.728-0.689
		c0.011-0.391-0.297-0.717-0.688-0.728l-47-1.334C11.71,8.239,11.384,8.547,11.373,8.939z"/>
</g>
</svg>
