<?xml version="1.0" encoding="iso-8859-1"?>
<!-- Generator: Adobe Illustrator 19.1.0, SVG Export Plug-In . SVG Version: 6.00 Build 0)  -->
<svg version="1.1" id="&#xB808;&#xC774;&#xC5B4;_1" xmlns="http://www.w3.org/2000/svg" xmlns:xlink="http://www.w3.org/1999/xlink"
	 x="0px" y="0px" viewBox="0 0 153.07 238.11" style="enable-background:new 0 0 153.07 238.11;" xml:space="preserve">
<rect style="fill:#E60012;" width="153.07" height="238.11"/>
<g>
	<path style="fill:#FFFFFF;" d="M7.535,18.721v202.167c0,0,0.166,9.167,9.666,9.667l119.834-0.167c0,0,7.833-1.334,8.333-9.5
		l0.334-179.833V16.221c0,0-1.334-8.333-10.667-9L18.368,7.555c0,0-8.5-0.001-10.667,7.667L7.535,18.721z"/>
	<path style="fill:#E60012;" d="M30.285,108.888c0,0-5.584-0.251-8.75,4.083c-3.167,4.333-0.083,12.167,5.333,13.334
		c5.417,1.167,11.25-0.584,12.083-7.334C39.785,112.221,32.785,108.555,30.285,108.888z"/>
	<path style="fill:#E60012;" d="M67.035,121.221c0,0-2.167,0.25-2.584,0.25c-0.416,0-0.916,0.083-1.083,0.666
		c-0.167,0.584-2.583,2.251-3.083,2.168s-0.917,0.5-0.917,0.75s-2.166,0.999-3.5,1.083c-1.333,0.084-2.333,0.334-2.333,0.334
		s-0.917,1.166-1.334,1.333c-0.416,0.167,0.084,1.333,0.084,1.333s0.583,17.25-4.917,23.5l0.25,0.75c0,0,8.917,15.292,16.292,31.542
		s12.375,30.625,15,45.75h1.5c0,0,2.875-24.875,0.875-43c0,0,22.125,19.5,32.375,42.875h2.875c0,0-2-18.125-7.25-35.75
		s-13.75-35.25-25.375-53.125c0,0-12.5-15.875-15.375-18.625L67.035,121.221z"/>
	<path style="fill:#FDD000;" d="M38.868,117.388c0,0,4.75-0.583,9.417-3.75c4.666-3.167,9.333-8.584,11.916-10.167
		c2.584-1.583,9.584-2.667,17.667-2.667s17.417,1.5,17.417,1.5s-4.833,2.333-5.333,2.417c-0.5,0.083-0.584,0.333-0.584,0.583
		s-1,3.167-5.417,4c0,0-1.167,4.417-5.5,5.084c0,0-1.583,4.667-7.916,4.25c0,0-1.084,2.833-6.5,2.833c0,0-0.583,2.583-4.167,2.917
		c0,0-1.5,2.251-6.25,1.834c0,0-0.917,1.083-1.167,1.333s-0.166,0.917-0.166,0.917s0.333,9.333-0.667,12.833l-1.667-0.417
		c0,0-2.666,1.584-5.583-0.333c0,0-1.25,1.583-3.25,0.833c0,0-1.5,1.168-2.667,0.834c0,0-1.249,2.584-4.083,2.5
		c0,0-0.333,4.499-5.5,3.416c0,0,0.833,5.417-3.417,4.667c0,0,0.583,6.333-2.5,6.083c0,0,2,5.251-2.5,5.584c0,0-0.5,2.666-2,3.916
		s-2.749,1.167-3.833,0.167c-1.083-1-4-6.25-4.083-8.5c-0.084-2.25,1.916-7.75,4-10.25l5.75-10.583l8.166-12.584
		c0,0,3.667,1,7.417-2C39.618,121.638,38.868,117.388,38.868,117.388z"/>
	<path d="M17.456,6.846c-5.861,0-10.63,4.769-10.63,10.63v203.158c0,5.861,4.769,10.63,10.63,10.63h118.158
		c5.861,0,10.63-4.769,10.63-10.63V17.476c0-5.861-4.768-10.63-10.63-10.63H17.456z M8.243,220.634V17.476
		c0-5.08,4.133-9.213,9.213-9.213h118.158c5.08,0,9.212,4.133,9.212,9.213v203.158c0,5.08-4.132,9.212-9.212,9.212H17.456
		C12.376,229.846,8.243,225.714,8.243,220.634z"/>
	<path d="M19.998,116.302c-0.544,4.442,1.183,7.082,2.728,8.514c2.294,2.127,5.872,3.083,9.115,2.435
		c4.883-0.977,7.713-4.318,7.713-8.91c0-0.61-0.051-1.243-0.152-1.895c-0.864-5.533-5.361-8.429-9.36-8.432
		C29.719,107.998,21.052,107.694,19.998,116.302z M23.689,123.777c-1.867-1.732-2.657-4.257-2.284-7.303
		c0.905-7.393,8.275-7.063,8.589-7.045l0.041,0.001c3.398,0,7.225,2.485,7.966,7.234c0.75,4.802-1.657,8.24-6.438,9.196
		C28.751,126.422,25.661,125.605,23.689,123.777z M30.041,108.013c0.005,0,0.035,0,0.036,0l-0.042-0.001
		C30.037,108.013,30.039,108.013,30.041,108.013z"/>
	<path d="M36.885,105.087c-1.936,0.967-7.688,2.944-7.746,2.963l0.46,1.341c0.239-0.082,5.9-2.027,7.92-3.037
		c1.203-0.602,3.6-0.579,6.103-0.243c-0.796,0.249-1.633,0.564-2.42,0.983l-2.516,1.449c-1.188,0.714-2.311,1.388-2.918,1.475
		l0.201,1.403c0.89-0.127,2.019-0.805,3.447-1.663l2.452-1.414c2.344-1.25,5.377-1.584,5.408-1.587l0.089-1.394
		C43.751,104.505,39.1,103.979,36.885,105.087z"/>
	<path d="M65.062,101.193c-5.641,1.128-9.376,4.713-12.671,7.876c-1.243,1.193-2.417,2.32-3.625,3.26
		c-4.309,3.352-9.981,4.52-10.037,4.531c-0.384,0.077-0.633,0.451-0.556,0.834c0.077,0.384,0.45,0.632,0.834,0.556
		c0.244-0.049,6.049-1.24,10.629-4.802c1.266-0.985,2.466-2.137,3.736-3.356c3.31-3.176,6.732-6.461,11.968-7.508
		c7.162-1.433,17.299-1.394,28.065,0.048c-3.117,1.431-9.749,3.624-17.483,1.084c-0.372-0.122-0.772,0.081-0.895,0.452
		c-0.122,0.372,0.08,0.772,0.452,0.895c11.361,3.731,20.24-2.003,20.612-2.249l1.54-1.017l-1.825-0.275
		C83.899,99.726,72.98,99.61,65.062,101.193z"/>
	<path d="M89.021,104.861c-0.031,0.107-0.798,2.635-4.006,3.51c-3.687,1.005-11.699,0.371-16.505-1.954
		c-0.352-0.171-0.776-0.023-0.946,0.329c-0.17,0.352-0.023,0.776,0.329,0.946c5.157,2.496,13.49,3.138,17.495,2.046
		c4.009-1.093,4.959-4.355,4.997-4.494c0.104-0.376-0.114-0.763-0.489-0.87C89.521,104.269,89.129,104.487,89.021,104.861z"/>
	<path d="M83.37,109.311c-0.051,0.136-1.282,3.343-5.186,4.393c-2.776,0.747-7.826-0.25-14.22-2.808
		c-0.363-0.145-0.776,0.032-0.921,0.395c-0.146,0.363,0.031,0.776,0.395,0.921c4.723,1.889,11.18,3.919,15.114,2.859
		c4.636-1.247,6.089-5.111,6.148-5.275c0.133-0.367-0.056-0.772-0.422-0.906C83.912,108.756,83.506,108.944,83.37,109.311z"/>
	<path d="M77.685,114.204c-0.038,0.136-0.988,3.346-6.19,3.643c-5.587,0.319-11.053-2.912-11.748-3.746
		c-0.251-0.301-0.697-0.341-0.998-0.091c-0.301,0.25-0.342,0.697-0.091,0.998c0.924,1.11,6.759,4.606,12.918,4.254
		c6.276-0.359,7.433-4.518,7.479-4.695c0.099-0.376-0.126-0.759-0.502-0.86S77.788,113.829,77.685,114.204z"/>
	<path d="M53.396,117.916c-0.169,0.354-0.019,0.776,0.335,0.944c0.291,0.139,7.189,3.403,11.138,3.403
		c4.146,0,6.154-2.676,6.238-2.79c0.23-0.314,0.163-0.754-0.15-0.987c-0.313-0.233-0.757-0.166-0.99,0.146
		c-0.068,0.09-1.696,2.213-5.098,2.213c-3.628,0-10.46-3.232-10.528-3.265C53.986,117.413,53.563,117.562,53.396,117.916z"/>
	<path d="M49.309,119.619c-0.24,0.308-0.185,0.754,0.122,0.995c0.227,0.176,5.576,4.318,9.936,4.318c4.78,0,5.039-3.466,5.041-3.502
		c0.023-0.387-0.27-0.716-0.657-0.744c-0.388-0.028-0.725,0.266-0.758,0.652c-0.018,0.223-0.279,2.175-3.626,2.175
		c-3.871,0-9.012-3.977-9.063-4.017C49.996,119.255,49.551,119.311,49.309,119.619z"/>
	<path d="M45.819,122.107c-0.247,0.304-0.202,0.75,0.102,0.997c0.191,0.155,4.733,3.817,9.086,3.991
		c2.885,0.115,4.111-0.882,4.647-1.724c4.354,3.627,29.639,26.208,49.472,76.691c0.029,0.092,4.212,12.67,4.452,16.042
		c0.028,0.39,0.367,0.684,0.758,0.656c0.39-0.028,0.684-0.367,0.656-0.758c-0.254-3.548-4.36-15.899-4.535-16.423
		c-21.833-55.578-50.374-77.707-50.66-77.924c-0.202-0.153-0.472-0.178-0.705-0.079c-0.234,0.1-0.398,0.325-0.429,0.577
		c-0.009,0.067-0.24,1.658-3.6,1.524c-3.877-0.154-8.204-3.64-8.248-3.675C46.513,121.758,46.066,121.804,45.819,122.107z"/>
	<path d="M40.82,124.107c-0.248,0.303-0.203,0.749,0.1,0.997c0.156,0.127,3.876,3.136,8.197,3.654
		c1.852,0.223,3.254-0.047,4.168-0.802c0.863-0.712,0.949-1.587,0.957-1.684c0.027-0.384-0.257-0.709-0.64-0.746
		c-0.383-0.037-0.727,0.247-0.773,0.628c-0.008,0.065-0.234,1.594-3.543,1.197c-3.905-0.469-7.435-3.317-7.47-3.346
		C41.514,123.759,41.067,123.804,40.82,124.107z"/>
	<path d="M38.729,126.695c-0.291,0.262-0.316,0.708-0.055,1c0.123,0.139,3.076,3.39,6.995,3.568c1.494,0.068,2.631-0.284,3.38-1.045
		c0.912-0.928,0.868-2.079,0.86-2.207c-0.024-0.388-0.355-0.679-0.743-0.659c-0.388,0.02-0.688,0.352-0.672,0.739
		c0.001,0.026,0.02,0.661-0.469,1.146c-0.456,0.454-1.228,0.659-2.292,0.61c-3.315-0.151-5.979-3.069-6.005-3.099
		C39.468,126.458,39.02,126.434,38.729,126.695z"/>
	<path d="M33.792,127.642c-0.228,0.318-0.154,0.761,0.163,0.989c4.073,2.92,7.419,4.16,9.944,3.686
		c1.66-0.312,2.325-1.267,2.396-1.375c0.211-0.322,0.12-0.749-0.198-0.966c-0.318-0.217-0.757-0.134-0.981,0.181
		c-0.017,0.023-0.437,0.596-1.557,0.781c-1.464,0.243-4.176-0.159-8.777-3.459C34.463,127.251,34.021,127.325,33.792,127.642z"/>
	<path d="M73.223,100.929c-0.014,0.03-1.403,3.013-4.327,3.598c-3.236,0.648-8.332,0.818-8.384,0.82
		c-0.391,0.012-0.697,0.34-0.686,0.731c0.013,0.391,0.341,0.698,0.732,0.686c0.214-0.007,5.264-0.176,8.616-0.847
		c3.649-0.73,5.273-4.254,5.341-4.404c0.16-0.356,0.002-0.775-0.355-0.936C73.805,100.415,73.386,100.573,73.223,100.929z"/>
	<path d="M67.526,105.672c-0.03,0.093-0.78,2.28-3.791,2.853c-3.277,0.625-6.467-0.306-6.497-0.316
		c-0.375-0.111-0.769,0.102-0.882,0.477c-0.112,0.374,0.101,0.769,0.475,0.881c0.144,0.043,3.541,1.042,7.17,0.351
		c3.873-0.738,4.838-3.692,4.877-3.818c0.116-0.372-0.09-0.765-0.461-0.884C68.046,105.097,67.648,105.302,67.526,105.672z"/>
	<path d="M63.184,109.037c-0.045,0.157-1.16,3.848-8.028,2.653c-0.386-0.067-0.752,0.191-0.819,0.577
		c-0.067,0.386,0.191,0.753,0.576,0.82c8.216,1.429,9.587-3.478,9.642-3.688c0.098-0.376-0.127-0.757-0.503-0.858
		C63.677,108.439,63.289,108.663,63.184,109.037z"/>
	<path d="M58.843,112.044c-0.373,0.105-0.591,0.496-0.489,0.871c0.009,0.033,0.207,0.802-0.371,1.466
		c-0.535,0.616-2.139,1.561-6.859,0.971c-0.389-0.049-0.743,0.227-0.791,0.615c-0.049,0.388,0.227,0.743,0.615,0.791
		c4.126,0.516,6.862,0.019,8.131-1.477c1.065-1.256,0.654-2.7,0.637-2.761C59.604,112.148,59.217,111.938,58.843,112.044z"/>
	<path d="M52.21,127.351c-0.39,0.041-0.671,0.391-0.63,0.779c0.015,0.138,1.395,13.895-4.901,24.309l-0.225,0.37l0.229,0.369
		c0.259,0.419,25.987,42.288,31.402,77.235c0.06,0.387,0.422,0.651,0.809,0.592c0.35-0.054,0.601-0.355,0.601-0.699
		c0-0.036-0.003-0.072-0.009-0.109c-5.207-33.609-28.976-73.444-31.386-77.416c4.327-7.411,5.054-16.094,5.054-20.977
		c0-2.213-0.144-3.645-0.164-3.823C52.948,127.59,52.599,127.309,52.21,127.351z"/>
	<path d="M71.588,136.625c-0.376,0.108-0.593,0.501-0.483,0.877c15.516,53.691,8.556,92.537,8.483,92.924
		c-0.071,0.385,0.183,0.755,0.566,0.826c0.385,0.072,0.755-0.182,0.827-0.566c0.073-0.389,7.101-39.54-8.516-93.576
		C72.357,136.733,71.964,136.516,71.588,136.625z"/>
	<path d="M66.249,121.091c-0.256,0.296-0.224,0.743,0.072,1c0.187,0.161,18.833,16.541,33.315,49.499
		c14.277,32.493,16.174,58.504,16.191,58.763c0.026,0.391,0.364,0.686,0.755,0.659c0.391-0.026,0.685-0.364,0.659-0.755
		c-0.018-0.261-1.925-26.502-16.309-59.237c-14.619-33.273-33.496-49.838-33.686-50.001
		C66.952,120.763,66.505,120.795,66.249,121.091z"/>
	<path d="M64.061,128.383c-0.371,0.123-0.571,0.524-0.448,0.896c0.078,0.232,7.784,23.472,11.976,46.403
		c4.188,22.913,3.743,54.05,3.738,54.361c-0.006,0.392,0.306,0.714,0.697,0.721c0.392,0.006,0.714-0.307,0.72-0.697
		c0.005-0.313,0.453-31.587-3.761-54.639c-4.211-23.033-11.947-46.364-12.025-46.597C64.833,128.46,64.433,128.259,64.061,128.383z"
		/>
	<path d="M80.773,186.815c-0.271,0.282-0.262,0.73,0.021,1.002c24.332,23.348,32.006,42.555,32.081,42.746
		c0.142,0.364,0.553,0.545,0.918,0.402c0.364-0.143,0.545-0.553,0.402-0.917c-0.075-0.194-7.841-19.669-32.42-43.255
		C81.493,186.523,81.045,186.532,80.773,186.815z"/>
	<path d="M77.286,143.892c-0.366,0.137-0.552,0.545-0.415,0.912c0.06,0.158,5.951,16.22,5.705,43.494
		c-0.003,0.392,0.311,0.712,0.702,0.716c0.392,0.003,0.712-0.311,0.715-0.702c0.249-27.563-5.734-43.845-5.795-44.006
		C78.062,143.94,77.652,143.754,77.286,143.892z"/>
	<path d="M82.87,150.366c-0.381,0.091-0.615,0.474-0.524,0.854c0.04,0.167,3.973,16.901,3.48,36.818
		c-0.01,0.392,0.3,0.717,0.691,0.726c0.392,0.01,0.717-0.299,0.726-0.69c0.497-20.109-3.478-37.014-3.518-37.183
		C83.633,150.51,83.251,150.275,82.87,150.366z"/>
	<path d="M87.65,157.36c-0.384,0.074-0.636,0.445-0.561,0.83c0.029,0.154,2.971,15.604,1.988,31.571
		c-0.024,0.391,0.273,0.728,0.663,0.751c0.391,0.024,0.728-0.273,0.751-0.663c0.994-16.153-1.981-31.773-2.012-31.929
		C88.406,157.537,88.035,157.285,87.65,157.36z"/>
	<path d="M91.44,164.353c-0.388,0.052-0.66,0.408-0.607,0.797c0.022,0.167,2.235,16.837,1.744,29.378
		c-0.016,0.391,0.289,0.72,0.681,0.735c0.391,0.016,0.72-0.289,0.735-0.681c0.497-12.664-1.733-29.453-1.756-29.622
		C92.186,164.573,91.829,164.3,91.44,164.353z"/>
	<path d="M95.18,170.354c-0.388,0.059-0.653,0.42-0.596,0.807c3.176,21.006-0.178,30.304-0.212,30.395
		c-0.138,0.366,0.048,0.775,0.414,0.913c0.365,0.138,0.773-0.047,0.912-0.412c0.146-0.385,3.528-9.67,0.288-31.106
		C95.928,170.562,95.566,170.296,95.18,170.354z"/>
	<path d="M98.92,177.856c-0.386,0.063-0.647,0.428-0.584,0.814c0.032,0.195,3.17,19.617-0.438,27.076
		c-0.171,0.353-0.022,0.775,0.329,0.946c0.353,0.171,0.775,0.022,0.946-0.329c3.805-7.861,0.695-27.108,0.562-27.924
		C99.671,178.054,99.307,177.792,98.92,177.856z"/>
	<path d="M102.703,185.601c-0.389,0.045-0.667,0.396-0.622,0.786c0.02,0.17,1.949,17.169-0.711,24.424
		c-0.135,0.367,0.054,0.774,0.421,0.909c0.367,0.135,0.774-0.054,0.909-0.421c2.776-7.571,0.871-24.364,0.789-25.076
		C103.444,185.834,103.093,185.556,102.703,185.601z"/>
	<path d="M105.425,192.105c-0.387,0.061-0.65,0.424-0.59,0.811c0.022,0.141,2.18,14.135-0.95,21.358
		c-0.155,0.358,0.008,0.776,0.368,0.932c0.359,0.155,0.777-0.008,0.933-0.368c3.294-7.601,1.143-21.553,1.05-22.142
		C106.174,192.308,105.812,192.044,105.425,192.105z"/>
	<path d="M109.746,201.098c-0.391,0.021-0.69,0.355-0.669,0.746c0.008,0.134,0.718,13.381-1.189,17.673
		c-0.159,0.358,0.002,0.776,0.359,0.936c0.358,0.159,0.776-0.002,0.936-0.359c2.046-4.604,1.341-17.77,1.31-18.327
		C110.471,201.375,110.137,201.076,109.746,201.098z"/>
	<path d="M113.327,215.035c-0.095,3.266-0.792,8.934-2.263,10.241c-0.293,0.26-0.319,0.707-0.059,1c0.26,0.293,0.707,0.319,1,0.059
		c2.409-2.142,2.711-10.332,2.737-11.259c0.012-0.392-0.297-0.718-0.687-0.729C113.664,214.335,113.338,214.644,113.327,215.035z"/>
	<path d="M73.485,166.108l-5.5,6.75c-0.247,0.303-0.201,0.749,0.102,0.997c0.304,0.247,0.75,0.201,0.997-0.102l5.5-6.75
		c0.247-0.303,0.202-0.749-0.102-0.997C74.179,165.758,73.732,165.804,73.485,166.108z"/>
	<path d="M74.768,170.821l-11.25,12c-0.267,0.285-0.253,0.733,0.032,1.001c0.286,0.269,0.734,0.254,1.002-0.032l11.25-12
		c0.268-0.285,0.254-0.733-0.032-1.001C75.484,170.521,75.035,170.535,74.768,170.821z"/>
	<path d="M75.814,176.276l-11.25,10c-0.293,0.26-0.319,0.707-0.06,1c0.261,0.293,0.708,0.319,1.001,0.059l11.25-10
		c0.292-0.26,0.318-0.707,0.059-1C76.555,176.041,76.106,176.015,75.814,176.276z"/>
	<path d="M76.745,181.346l-10.5,8.834c-0.3,0.252-0.338,0.699-0.086,0.998c0.252,0.3,0.699,0.338,0.998,0.086l10.5-8.834
		c0.3-0.252,0.339-0.699,0.087-0.998C77.492,181.132,77.045,181.094,76.745,181.346z"/>
	<path d="M77.215,186.04c-3.335,3.146-8.795,8.264-9.25,8.601c-0.31,0.229-0.389,0.668-0.168,0.983
		c0.222,0.314,0.645,0.401,0.965,0.188c0.51-0.34,7.344-6.776,9.426-8.741c0.285-0.269,0.298-0.718,0.029-1.002
		C77.948,185.784,77.5,185.771,77.215,186.04z"/>
	<path d="M78.237,190.52l-8.833,7.667c-0.296,0.257-0.327,0.704-0.071,1c0.257,0.295,0.704,0.327,1,0.07l8.833-7.667
		c0.296-0.257,0.327-0.704,0.07-1C78.98,190.296,78.532,190.263,78.237,190.52z"/>
	<path d="M78.254,196.005l-7.166,5.833c-0.304,0.247-0.35,0.693-0.103,0.997s0.693,0.35,0.997,0.102l7.166-5.833
		c0.304-0.247,0.35-0.693,0.103-0.997C79.004,195.804,78.558,195.758,78.254,196.005z"/>
	<path d="M78.43,200.499l-6.334,5c-0.307,0.243-0.359,0.688-0.117,0.996c0.243,0.307,0.688,0.359,0.995,0.117l6.334-5
		c0.307-0.243,0.359-0.689,0.117-0.996C79.182,200.309,78.736,200.256,78.43,200.499z"/>
	<path d="M78.773,204.824l-5.5,4.167c-0.312,0.236-0.373,0.681-0.137,0.992c0.236,0.312,0.681,0.373,0.992,0.137l5.5-4.167
		c0.312-0.236,0.374-0.681,0.138-0.992C79.53,204.648,79.086,204.587,78.773,204.824z"/>
	<path d="M78.913,209.345l-4.167,3.5c-0.3,0.252-0.339,0.699-0.087,0.999c0.251,0.3,0.698,0.338,0.998,0.087l4.167-3.5
		c0.3-0.252,0.339-0.699,0.087-0.999C79.659,209.132,79.212,209.094,78.913,209.345z"/>
	<path d="M79.297,214.306l-3.833,2.667c-0.321,0.224-0.4,0.666-0.177,0.986c0.223,0.321,0.665,0.401,0.986,0.178l3.833-2.667
		c0.321-0.224,0.4-0.665,0.177-0.986C80.06,214.163,79.618,214.083,79.297,214.306z"/>
	<path d="M79.499,219.118l-3,1.833c-0.334,0.204-0.439,0.64-0.235,0.974c0.204,0.334,0.641,0.439,0.975,0.235l3-1.833
		c0.334-0.204,0.438-0.64,0.234-0.974C80.27,219.019,79.833,218.914,79.499,219.118z"/>
	<path d="M64.141,127.682c-0.391,0.034-0.679,0.377-0.646,0.768c0.037,0.423,3.668,42.375,3.831,47.628
		c0.013,0.391,0.34,0.698,0.731,0.686c0.392-0.012,0.699-0.339,0.686-0.73c-0.165-5.291-3.685-45.977-3.836-47.706
		C64.874,127.937,64.53,127.648,64.141,127.682z"/>
	<path d="M59,124.622c-0.171,1.191,3.716,40.474,4.496,48.337c0.039,0.39,0.386,0.674,0.775,0.635
		c0.39-0.038,0.674-0.386,0.635-0.775c-1.846-18.595-4.568-46.73-4.5-48.025c0.02-0.379-0.26-0.723-0.638-0.759
		C59.392,123.997,59.054,124.247,59,124.622z"/>
	<path d="M55.644,126.016c-0.39,0.031-0.681,0.373-0.649,0.763c0.028,0.351,2.831,35.16,2.831,37.109
		c0,0.392,0.317,0.709,0.709,0.709c0.392,0,0.708-0.317,0.708-0.709c0-2.006-2.72-35.786-2.835-37.223
		C56.376,126.275,56.034,125.985,55.644,126.016z"/>
	<path d="M52.402,135.031c-0.383,0.073-0.633,0.445-0.562,0.828c0.126,0.684,1.358,14.086,2.156,22.927
		c0.035,0.39,0.379,0.678,0.769,0.643c0.391-0.035,0.678-0.38,0.643-0.77c-0.205-2.272-2.009-22.229-2.178-23.075
		C53.153,135.202,52.784,134.958,52.402,135.031z"/>
	<path d="M23.127,133.307c-1.434,1.985-3.785,6.184-5.675,9.558l-2.182,3.81l-0.288,0.449c-1.461,2.27-4.502,6.99-4.984,11.015
		c-0.548,4.561,3.253,10.298,4.928,11.638c0.695,0.556,1.576,0.674,2.482,0.332c1.646-0.621,3.115-2.624,3.492-4.763
		c0.068-0.386-0.189-0.753-0.575-0.821c-0.385-0.067-0.753,0.189-0.82,0.575c-0.32,1.812-1.572,3.296-2.598,3.683
		c-0.648,0.245-0.984-0.024-1.095-0.113c-1.53-1.224-4.864-6.544-4.406-10.361c0.443-3.701,3.475-8.406,4.769-10.416l0.292-0.455
		l2.223-3.879c1.773-3.166,4.201-7.501,5.587-9.42l4.85-7.021c-0.223,0.321-0.671,0.412-0.993,0.189
		c-0.321-0.223-0.409-0.654-0.187-0.977L23.127,133.307z"/>
	<path d="M14.5,148.125c-0.042,0.3-1.003,7.411,1.043,12.526c2.075,5.187,4.383,4.91,6.383,4.243
		c0.609-0.203,1.114-0.688,1.459-1.401c0.633-1.309,0.695-3.348,0.149-4.847c-0.134-0.368-0.54-0.558-0.908-0.424
		c-0.367,0.134-0.558,0.541-0.424,0.908c0.414,1.136,0.372,2.781-0.094,3.746c-0.121,0.252-0.33,0.573-0.631,0.674
		c-1.409,0.47-2.865,0.955-4.618-3.425c-1.905-4.764-0.966-11.736-0.956-11.806c0.054-0.388-0.217-0.745-0.604-0.8
		C14.911,147.466,14.554,147.737,14.5,148.125z"/>
	<path d="M16.78,144.685c-0.388,0.049-0.664,0.402-0.615,0.791c0.035,0.276,0.865,6.81,2.549,10.852
		c0.91,2.185,2.572,3.395,4.447,3.236c1.437-0.121,2.602-1.065,2.898-2.35c0.536-2.323,0.011-4.12-0.012-4.196
		c-0.112-0.373-0.505-0.585-0.88-0.475c-0.374,0.111-0.588,0.505-0.479,0.88c0.005,0.016,0.437,1.533-0.011,3.473
		c-0.154,0.671-0.827,1.188-1.636,1.256c-1.229,0.103-2.358-0.782-3.02-2.369c-1.609-3.863-2.442-10.417-2.451-10.482
		C17.523,144.912,17.169,144.636,16.78,144.685z"/>
	<path d="M19.804,139.349c-0.39,0.036-0.677,0.381-0.641,0.77c0.021,0.23,0.537,5.688,2.743,9.93
		c1.491,2.868,3.099,3.521,4.185,3.564c1.023,0.04,1.999-0.477,2.545-1.35c0.928-1.483,0.791-4.124,0.772-4.42
		c-0.024-0.391-0.36-0.688-0.751-0.663c-0.39,0.024-0.688,0.36-0.663,0.751c0.042,0.68,0.023,2.649-0.56,3.58
		c-0.217,0.348-0.669,0.71-1.287,0.684c-0.582-0.022-1.743-0.417-2.983-2.802c-2.075-3.988-2.585-9.351-2.59-9.404
		C20.538,139.601,20.193,139.314,19.804,139.349z"/>
	<path d="M23.346,133.847c-0.392,0.013-0.698,0.34-0.686,0.73c0.007,0.217,0.192,5.343,2.049,10.069
		c1.077,2.742,2.764,3.815,3.988,4.232c1.754,0.598,3.407,0.193,4.369-0.384c2.019-1.211,1.85-3.722,1.842-3.828
		c-0.03-0.389-0.369-0.679-0.758-0.65c-0.389,0.028-0.682,0.367-0.656,0.757c0.002,0.017,0.104,1.75-1.157,2.507
		c-0.658,0.395-1.886,0.698-3.183,0.257c-1.35-0.459-2.431-1.638-3.126-3.408c-1.765-4.493-1.95-9.547-1.951-9.598
		C24.063,134.141,23.736,133.835,23.346,133.847z"/>
	<path d="M25.851,130.514c-0.391,0.01-0.7,0.334-0.691,0.726c0.007,0.284,0.213,7.021,4.003,11.443
		c3.275,3.821,7.141,2.804,8.236,2.146c1.103-0.661,1.318-2.34,1.34-2.529c0.043-0.388-0.236-0.737-0.624-0.781
		c-0.389-0.044-0.739,0.235-0.784,0.623c-0.044,0.378-0.264,1.234-0.661,1.473c-0.675,0.405-3.746,1.278-6.431-1.854
		c-3.457-4.033-3.661-10.492-3.662-10.557C26.566,130.813,26.242,130.504,25.851,130.514z"/>
	<path d="M27.648,127.381c-0.372,0.122-0.575,0.522-0.454,0.894c0.111,0.341,2.768,8.379,6.685,12.125
		c4.791,4.584,8.022,1.458,8.157,1.323c0.276-0.277,0.276-0.726,0-1.002c-0.277-0.277-0.726-0.276-1.003,0
		c-0.095,0.096-2.374,2.291-6.175-1.345c-3.658-3.5-6.29-11.461-6.316-11.541C28.42,127.463,28.021,127.26,27.648,127.381z"/>
	<path d="M33.377,125.365c-0.382,0.087-0.62,0.468-0.533,0.849c0.076,0.332,1.896,8.176,4.929,12.892
		c1.177,1.83,2.501,2.837,3.936,2.99c1.745,0.188,2.944-0.989,2.994-1.039c0.275-0.275,0.275-0.719,0.002-0.996
		c-0.273-0.277-0.721-0.28-1-0.01c-0.008,0.008-0.794,0.757-1.86,0.635c-0.982-0.113-1.951-0.902-2.879-2.346
		c-2.897-4.506-4.721-12.363-4.739-12.442C34.138,125.515,33.758,125.277,33.377,125.365z"/>
	<path d="M39.84,130.541c-0.376,0.108-0.594,0.5-0.486,0.876c0.056,0.195,1.391,4.813,3.758,8.365
		c1.364,2.045,3.016,2.512,4.161,2.544c1.398,0.038,2.706-0.569,3.163-1.179c0.231-0.308,0.164-0.732-0.139-0.971
		c-0.303-0.237-0.749-0.179-0.994,0.118c-0.119,0.146-0.94,0.668-2.065,0.611c-1.148-0.058-2.14-0.701-2.946-1.911
		c-2.242-3.363-3.562-7.922-3.575-7.967C40.608,130.651,40.217,130.433,39.84,130.541z"/>
	<path d="M43.904,130.859c-0.384,0.072-0.638,0.441-0.566,0.826c0.058,0.308,1.474,7.565,7.743,10.351
		c0.357,0.159,0.778-0.002,0.935-0.359c0.159-0.357-0.002-0.779-0.359-0.936c-5.577-2.48-6.912-9.248-6.925-9.316
		C44.659,131.041,44.289,130.787,43.904,130.859z"/>
	<path d="M45.998,130.118c-0.334,0.205-0.438,0.642-0.233,0.975c0.339,0.555,3.399,5.434,6.265,6.15
		c0.38,0.095,0.765-0.136,0.859-0.516c0.095-0.38-0.136-0.765-0.516-0.859c-1.954-0.488-4.56-4.147-5.4-5.516
		C46.767,130.018,46.332,129.914,45.998,130.118z"/>
	<path d="M29.701,115.221c0,0-2.333,0.5-2.333,2.5s1.666,2.667,2.833,2.667s2.5-0.333,2.334-2.5
		C32.368,115.721,30.534,114.888,29.701,115.221z"/>
	<path d="M7.535,144.805c0,0,4.5-27.75,16-42.5s26-23,37.75-43.25s18-40.5,3.25-51.25h-40.75c0,0-12.255,5-16.005,18.25
		L7.535,144.805z"/>
	<path d="M89.285,7.805c0,0-8.5,5.25-11.5,23.25s6,31,18.25,42.75s20.5,12.75,26.25,36c5.75,23.25-3.5,42.75-3.5,42.75
		s8-6.75,10.25-13c0,0,2.5,7.5,0.75,21s-8,48.25,0.75,69.75l6.75,0.25l2.5-0.5c0,0-6-10.5-6.25-28.5s4.75-33.25,4.75-48.5
		s-4.25-25.25-4.25-25.25s9.5-16.001,11.5-24.751l-0.25-61.75c0,0-9.25-26.5-30.5-33.5H89.285z"/>
	<path d="M34.841,88.53c0.028,0.138,2.825,13.816,2.986,16.73l1.415-0.078c-0.167-3.018-2.896-16.369-3.013-16.936L34.841,88.53z"/>
	<polygon points="38.493,109.074 38.66,117.221 40.077,117.221 39.91,109.036 	"/>
	<path d="M39.865,83.952c3.577,10.408,3.133,21.296,3.128,21.404l1.416,0.064c0.005-0.111,0.464-11.259-3.204-21.93L39.865,83.952z"
		/>
	<path d="M41.511,116.396l1.381,0.318c0.999-4.329,1.511-9.706,1.516-9.76l-1.411-0.132
		C42.991,106.875,42.488,112.16,41.511,116.396z"/>
	<path d="M44.857,78.43c5.384,17.456,2.509,34.997,2.479,35.172l1.397,0.237c0.03-0.178,2.965-18.039-2.521-35.828L44.857,78.43z"/>
	<path d="M51.155,72.006c0.038,0.047,3.868,4.778,4.507,12.441c0.465,5.581,0.023,13.995-0.214,18.515
		c-0.162,3.09-0.17,3.398-0.086,3.65l1.368-0.348c-0.023-0.243,0.053-1.692,0.133-3.227c0.239-4.554,0.685-13.031,0.211-18.708
		c-0.677-8.128-4.658-13.022-4.827-13.226L51.155,72.006z"/>
	<path d="M56.774,64.274c1.644,2.528,5.522,9.552,6.053,20.149c0.336,6.725-0.326,17.81-0.333,17.921l1.415,0.086
		c0.007-0.112,0.674-11.275,0.334-18.079c-0.548-10.941-4.574-18.226-6.28-20.851L56.774,64.274z"/>
	<path d="M60.742,57.761c0.063,0.055,6.432,5.614,6.751,15.816l0.171,5.845c0.248,8.804,0.482,17.119,1.169,22.064l1.404-0.195
		c-0.677-4.868-0.91-13.145-1.157-21.908l-0.17-5.85c-0.34-10.856-6.968-16.612-7.25-16.852L60.742,57.761z"/>
	<path d="M65.538,48.394c7.76,7.618,8.416,19.109,8.895,27.499l0.229,3.553c0.661,8.093,2.486,21.405,2.504,21.539l1.404-0.193
		c-0.019-0.133-1.838-13.407-2.495-21.461l-0.228-3.519c-0.492-8.621-1.166-20.427-9.316-28.43L65.538,48.394z"/>
	<path d="M68.058,74.751c-0.352,0.172-0.498,0.596-0.326,0.948c0.071,0.146,7.164,14.67,8.305,17.767
		c0.136,0.367,0.543,0.555,0.91,0.42c0.367-0.135,0.556-0.543,0.42-0.91c-1.166-3.164-8.067-17.299-8.361-17.899
		C68.833,74.726,68.409,74.58,68.058,74.751z"/>
	<path d="M70.055,36.943c-0.153,0.356,0.014,0.773,0.367,0.929c0.046,0.02,4.563,2.159,7.254,14.665
		c1.577,7.33,1.898,12.984,2.183,17.972c0.219,3.837,0.407,7.149,1.154,10.214l1.971,7.194c1.374,4.771,2.794,9.704,3.012,13.182
		c0.023,0.391,0.36,0.688,0.751,0.663c0.391-0.024,0.688-0.36,0.663-0.751c-0.226-3.633-1.669-8.643-3.063-13.486l-1.956-7.138
		c-0.717-2.938-0.901-6.191-1.116-9.958c-0.272-4.79-0.612-10.751-2.212-18.189c-2.879-13.376-7.878-15.585-8.089-15.673
		C70.614,36.418,70.207,36.587,70.055,36.943z"/>
	<path d="M79.622,63.979c-0.317,0.228-0.391,0.671-0.163,0.989c0.062,0.087,6.255,8.866,8.041,22.182
		c0.052,0.388,0.408,0.66,0.796,0.608c0.389-0.052,0.661-0.408,0.608-0.796c-1.835-13.684-8.03-22.452-8.294-22.819
		C80.383,63.824,79.94,63.751,79.622,63.979z"/>
	<path d="M94.059,71.758l-2,4.333c-1.912,4.143-8.915,10.199-8.986,10.26c-0.296,0.255-0.33,0.703-0.074,1
		c0.255,0.296,0.702,0.33,0.999,0.075c0.298-0.256,7.308-6.318,9.349-10.74l2-4.333c0.164-0.355,0.009-0.776-0.347-0.94
		C94.644,71.247,94.223,71.402,94.059,71.758z"/>
	<path d="M95.659,73.221c0,12.179-10.476,21.203-10.582,21.293c-0.299,0.253-0.336,0.7-0.083,0.998
		c0.253,0.298,0.7,0.336,0.999,0.083c0.452-0.383,11.084-9.527,11.084-22.374c0-0.391-0.317-0.709-0.709-0.709
		S95.659,72.83,95.659,73.221z"/>
	<path d="M108.226,82.919c-0.112,0.239-2.731,6.026-0.726,20.731c0.053,0.388,0.41,0.659,0.798,0.607
		c0.388-0.053,0.659-0.41,0.606-0.798c-1.938-14.208,0.581-19.883,0.606-19.938c0.163-0.354,0.01-0.775-0.344-0.94
		C108.812,82.415,108.392,82.567,108.226,82.919z"/>
	<path d="M106.926,91.001c-0.147,0.118-3.606,2.954-3.432,8.741c0.06,1.976,0.88,4.306,1.83,7.004
		c1.796,5.101,4.257,12.087,3.174,21.394c-0.045,0.389,0.233,0.741,0.622,0.786c0.389,0.045,0.741-0.233,0.786-0.622
		c1.12-9.633-1.403-16.797-3.245-22.028c-0.911-2.586-1.697-4.82-1.751-6.576c-0.152-5.051,2.778-7.492,2.903-7.593
		c0.303-0.246,0.351-0.692,0.105-0.996C107.674,90.807,107.23,90.758,106.926,91.001z"/>
	<path d="M106.064,108.191c-0.196,0.174-4.782,4.38-2.892,14l1.311,5.828c1.399,5.788,2.411,9.971,0.535,16.85
		c-0.103,0.378,0.119,0.768,0.497,0.87c0.378,0.104,0.768-0.119,0.87-0.497c1.972-7.23,0.925-11.562-0.524-17.556l-1.298-5.768
		c-1.725-8.774,2.273-12.514,2.445-12.669c0.289-0.262,0.313-0.709,0.053-0.999C106.801,107.959,106.356,107.933,106.064,108.191z"
		/>
	<path d="M120.225,102.924c-1.914,4.147-11.395,12.514-11.49,12.598c-0.294,0.259-0.322,0.706-0.064,1
		c0.259,0.294,0.706,0.323,1,0.064c0.399-0.351,9.803-8.65,11.842-13.069c0.164-0.355,0.01-0.776-0.347-0.94
		C120.809,102.414,120.389,102.568,120.225,102.924z"/>
	<path d="M122.91,111.22c-2.393,4.468-11.201,10.863-11.29,10.927c-0.317,0.229-0.389,0.672-0.159,0.99
		c0.229,0.317,0.672,0.389,0.989,0.159c0.373-0.269,9.162-6.651,11.71-11.407c0.185-0.345,0.054-0.773-0.29-0.959
		C123.524,110.745,123.096,110.876,122.91,111.22z"/>
	<path d="M124.188,121.187c-1.032,3.484-10.965,10.522-14.705,12.94c-0.329,0.212-0.423,0.65-0.21,0.979
		c0.212,0.329,0.65,0.423,0.979,0.21c0.567-0.366,13.902-9.029,15.295-13.727c0.111-0.376-0.104-0.77-0.479-0.881
		C124.694,120.598,124.3,120.812,124.188,121.187z"/>
	<path d="M124.574,129.059c-5.34,10.193-15.635,16.494-15.738,16.557c-0.335,0.202-0.442,0.638-0.24,0.973
		c0.202,0.335,0.638,0.442,0.973,0.24c0.436-0.263,10.733-6.559,16.262-17.111c0.182-0.347,0.048-0.775-0.299-0.957
		C125.184,128.579,124.756,128.712,124.574,129.059z"/>
	<path d="M142.145,110.015c-0.39,0.032-0.681,0.374-0.648,0.764c0.003,0.039,0.299,3.984-1.315,10.437
		c-1.636,6.542-4.938,14.826-4.971,14.909c-0.146,0.363,0.031,0.775,0.395,0.921c0.363,0.146,0.775-0.031,0.921-0.395
		c0.033-0.083,3.37-8.454,5.029-15.09c1.676-6.704,1.366-10.73,1.353-10.898C142.876,110.272,142.534,109.983,142.145,110.015z"/>
	<path d="M144.686,132.695c-0.034,0.122-3.508,12.24-7.686,17.063c-0.257,0.296-0.225,0.743,0.071,0.999
		c0.296,0.257,0.743,0.225,0.999-0.071c4.386-5.061,7.835-17.095,7.979-17.604c0.106-0.376-0.111-0.769-0.488-0.875
		C145.186,132.1,144.793,132.318,144.686,132.695z"/>
	<path d="M130.438,150.341c-3.521,5.532-5.506,13.214-5.589,13.538c-0.097,0.38,0.132,0.766,0.511,0.862
		c0.38,0.097,0.766-0.132,0.862-0.511c0.02-0.078,2.015-7.791,5.411-13.128c0.21-0.331,0.113-0.769-0.217-0.979
		C131.085,149.915,130.647,150.011,130.438,150.341z"/>
	<path d="M123.128,147.017c-0.389,0.041-0.671,0.39-0.631,0.779c0.01,0.094,0.956,9.507-1.483,19.592
		c-2.608,10.78-4.176,19.481-3.35,26.912c0.043,0.39,0.394,0.669,0.782,0.626c0.39-0.043,0.669-0.394,0.626-0.782
		c-0.803-7.225,0.746-15.788,3.318-26.422c2.5-10.333,1.526-19.978,1.517-20.074C123.866,147.259,123.517,146.977,123.128,147.017z"
		/>
	<path d="M119.536,150.146c-0.057,0.157-1.382,3.934-0.032,11.861l0.253,1.489c1.282,7.522,2.607,15.302,3.073,19.962
		c0.489,4.892,0.331,9.691,0.33,9.739c-0.014,0.391,0.292,0.719,0.684,0.732c0.391,0.014,0.719-0.292,0.732-0.684
		c0.002-0.049,0.163-4.939-0.336-9.929c-0.471-4.71-1.8-12.513-3.086-20.06l-0.254-1.489c-1.276-7.504-0.044-11.105-0.031-11.142
		c0.131-0.367-0.06-0.773-0.428-0.905C120.074,149.59,119.67,149.779,119.536,150.146z"/>
	<path d="M122.991,139.768c-0.207,0.248-5.082,6.12-7.262,10.646c-2.079,4.318-3.87,8.608-4.733,17.404
		c-0.825,8.423-1.167,16.46-1.17,16.54c-0.017,0.391,0.287,0.721,0.679,0.737c0.391,0.017,0.721-0.287,0.737-0.679
		c0.003-0.079,0.343-8.079,1.164-16.46c0.84-8.566,2.58-12.733,4.6-16.928c2.104-4.368,7.023-10.295,7.073-10.354
		c0.25-0.301,0.209-0.748-0.092-0.998C123.688,139.427,123.241,139.468,122.991,139.768z"/>
	<path d="M114.234,153.405c-2.396,4.792-7.416,8.718-7.466,8.757c-0.309,0.24-0.366,0.686-0.127,0.994
		c0.24,0.31,0.684,0.366,0.994,0.127c0.217-0.168,5.323-4.157,7.866-9.243c0.175-0.351,0.033-0.775-0.316-0.951
		C114.835,152.914,114.41,153.055,114.234,153.405z"/>
	<path d="M119.262,151.522c-0.219,0.361-5.368,8.899-7.193,12.549c-1.694,3.389-5.767,14.566-5.572,16.715
		c0.035,0.391,0.38,0.678,0.77,0.643c0.391-0.035,0.678-0.38,0.643-0.77c-0.136-1.493,3.416-11.93,5.428-15.953
		c1.801-3.601,7.086-12.363,7.139-12.451c0.202-0.335,0.095-0.769-0.24-0.973C119.899,151.08,119.464,151.187,119.262,151.522z"/>
	<path d="M128.701,7.22c-0.396,0.396-3.839,2.65-6.877,4.569c-0.331,0.209-0.43,0.646-0.222,0.977
		c0.209,0.331,0.648,0.43,0.978,0.221c1.069-0.675,6.437-4.078,7.123-4.765c0.277-0.277,0.276-0.726,0-1.002
		C129.426,6.943,128.977,6.943,128.701,7.22z"/>
	<path d="M127.661,7.347c-0.391,0.023-0.688,0.357-0.666,0.749c0.02,0.355,0.502,8.71,0.672,9.893
		c0.055,0.387,0.414,0.656,0.802,0.601c0.388-0.056,0.656-0.415,0.601-0.802c-0.128-0.899-0.487-6.786-0.66-9.773
		C128.387,7.623,128.052,7.325,127.661,7.347z"/>
	<path d="M132.327,7.869c-0.004,0.123-0.335,12.32-0.496,13.773c-0.044,0.389,0.236,0.74,0.626,0.783
		c0.389,0.044,0.739-0.237,0.782-0.625c0.169-1.512,0.49-13.388,0.504-13.892c0.011-0.391-0.298-0.717-0.688-0.728
		C132.663,7.169,132.337,7.478,132.327,7.869z"/>
	<path d="M135.465,6.875c-0.376,0.083-0.614,0.462-0.541,0.84c0.166,0.854,0.232,12.009,0.235,18.84l0.001,1.146l1.025-0.513
		c1.152-0.577,2.711-2.824,4.629-5.702c0.73-1.093,1.417-2.126,1.722-2.431c0.726-0.726,2.463-1.449,3.07-1.667
		c0.369-0.132,0.561-0.538,0.429-0.906c-0.132-0.368-0.537-0.56-0.905-0.429c-0.102,0.036-2.496,0.9-3.596,2
		c-0.385,0.384-0.972,1.256-1.898,2.647c-0.895,1.343-2.102,3.139-3.061,4.254c-0.008-4.898-0.05-16.664-0.272-17.57
		C136.211,7.012,135.84,6.793,135.465,6.875z"/>
	<path d="M145.186,22.736c-1.388,1.476-5.539,5.362-8.054,5.614c-0.39,0.039-0.674,0.386-0.635,0.775
		c0.039,0.39,0.386,0.674,0.775,0.635c3.558-0.356,8.728-5.821,8.946-6.053c0.268-0.286,0.254-0.734-0.031-1.002
		C145.902,22.437,145.453,22.451,145.186,22.736z"/>
	<path d="M80.639,7.015c-0.39,0.035-0.678,0.378-0.644,0.769c0.104,1.164,1.009,11.397,1.179,12.244
		c0.076,0.384,0.45,0.632,0.833,0.556c0.384-0.077,0.633-0.45,0.557-0.834c-0.117-0.583-0.755-7.55-1.156-12.09
		C81.373,7.269,81.029,6.981,80.639,7.015z"/>
	<path d="M84.308,7.349c-0.39,0.033-0.679,0.376-0.646,0.767l0.5,5.833c0.033,0.39,0.377,0.679,0.767,0.645
		c0.391-0.034,0.679-0.377,0.646-0.767l-0.5-5.833C85.041,7.604,84.698,7.315,84.308,7.349z"/>
	<path d="M76.089,6.903c-1.231,0.528-5.749,6.031-7.104,7.706c-0.246,0.304-0.199,0.75,0.104,0.997
		c0.305,0.246,0.751,0.199,0.997-0.105c2.7-3.336,5.895-6.977,6.564-7.295c0.349-0.166,0.512-0.585,0.353-0.937
		C76.844,6.916,76.444,6.751,76.089,6.903z"/>
	<path d="M71.478,7.049c-2.173,0.724-4.301,3.924-4.537,4.286c-0.213,0.328-0.12,0.767,0.208,0.98
		c0.328,0.213,0.767,0.121,0.98-0.207c0.566-0.87,2.353-3.233,3.797-3.714c0.371-0.124,0.571-0.525,0.448-0.896
		C72.25,7.126,71.849,6.925,71.478,7.049z"/>
</g>
</svg>
