<?xml version="1.0" encoding="iso-8859-1"?>
<!-- Generator: Adobe Illustrator 19.1.0, SVG Export Plug-In . SVG Version: 6.00 Build 0)  -->
<svg version="1.1" id="&#xB808;&#xC774;&#xC5B4;_1" xmlns="http://www.w3.org/2000/svg" xmlns:xlink="http://www.w3.org/1999/xlink"
	 x="0px" y="0px" viewBox="0 0 153.071 238.109" style="enable-background:new 0 0 153.071 238.109;" xml:space="preserve">
<rect style="fill:#E60012;" width="153.071" height="238.109"/>
<g>
	<path style="fill:#FFFFFF;" d="M9.556,16.305v203.334c0,0-1.333,10.166,12.167,10.166s112.167,0,112.167,0s9.5,0.002,9.5-11.832
		s0-200.168,0-200.168s-1.501-9.667-10.167-9.667s-112.333,0-112.333,0S11.556,7.305,9.556,16.305z"/>
	<path style="fill:#005BAC;" d="M64.265,150.93c0,0,2.25,2.625,2.25,4.5s1.125,6.875,2.75,9c0,0-3.5,1.5-5,4.625s-3.25,7.875-4,9.25
		c0,0,3.25,0.25,5.25,0.25s9.25-1,11.125-3c0,0,0.875,3.625,2.375,6.375s3.375,3.875,3.375,3.875s1.5-3.875,2.75-6.625
		s2.75-7.25,2.25-9.25c0,0,6.875-1.375,9.625-3.25s4-4.5,4-4.5s-1.5,0.25-3.875-1s-7.125-2.75-8.125-2.625
		c0,0,0.75-12.625,0.625-13.25c0,0-2,2.25-3.25,3.25s-6.375,5.125-7,6.5C79.39,155.055,70.015,149.43,64.265,150.93z"/>
	<path style="fill:#005BAC;" d="M107.765,129.68c0,0-1,2.375-1.625,4.75c0,0-3.25-1-7-1.25s-5.75-0.125-5.75-0.125
		s0.625,2.375,0.875,4.25s2.625,4.875,4.125,6.625c0,0-2.125,2.5-3,4.25s-2,4.125-2,4.125s0.375,0.125,1.625,0
		s8.625-0.625,11.625-1.5c0,0,1.125,2.75,3.5,5s9.5,5.25,9.5,5.25s-0.125-3.625,0-4.875s-0.75-5.375-0.75-5.375
		s6.75-0.875,10.25-3.25s5-3.125,5-3.125s-3.375-2.375-4.375-3.25s-7.25-3.125-10.375-3.25c0,0,0-4.75-1.125-6.625L107.765,129.68z"
		/>
	<path d="M10.556,111.305c0,0,9.334,0.333,14.667-4c5.333-4.333,7-11.333,8.333-18.333s6.667-25.666,10.333-32.333
		c3.667-6.667,0.667-12.333-0.333-14.333s-0.333-1.333,2,0.333c2.333,1.667,5,5,12.333,7.333c7.333,2.333,14,2.333,16.333,2.333
		s17.001,0.333,29.334,9.667c12.333,9.333,12.666,15,16.333,19.333c3.667,4.333,11.667,10.333,24-2v35
		c0,0-5.666,15.667-17.333,17.333c-11.667,1.667-20.667-3.667-28.334-2.333c0,0-10.033,0.987-15,5.333
		c-5.333,4.667-8.667,10-16.333,14.333c-7.667,4.333-20.333,4-30.333-5c-10-9-20-24-21-26S10.556,111.305,10.556,111.305z"/>
	<rect x="51.598" y="149.337" transform="matrix(-0.8064 -0.5914 0.5914 -0.8064 0.6742 317.496)" width="1.417" height="18.601"/>
	<path d="M47.64,165.055c0,0-5,0-9.5,2.5s-11,8-11,8s0.25,1.25,2.25,1s5.75-1.5,7.25-0.25s0.75,3.75,0.25,6s-0.25,7-0.25,7
		s7-6.25,9.75-10S50.89,169.805,47.64,165.055z"/>
	<path d="M44.64,156.555c0,0,0,4.25-5.5,8.5s-11.5,4.75-11.5,4.75l-1.75-0.5c0,0,0.25-1,2.25-2s1.5-2.25-0.25-2.75s-5-1.25-7-2.25
		c0,0,2.5-1.75,4-3.5s2.25-2,0.5-3.5s-5.5-3.25-5.5-3.25s3-2.25,7-3S40.64,147.555,44.64,156.555z"/>
	<path d="M43.64,156.305c0,0,7-3.75,8.25-5s2.75-1,2.75-1s-9.25,7.75-11.75,8.25S43.64,156.305,43.64,156.305z"/>
	<path d="M82.996,150.715c-1.684,1.123-3.192,2.861-3.938,3.789c-0.927-0.814-2.96-2.338-6.424-3.614
		c-4.877-1.797-8.955-1.064-9.126-1.031l-1.479,0.277l1.156,0.964c1.349,1.124,2.745,3.659,2.745,5.955
		c0,2.121,1.723,5.691,2.479,7.16c-1.676,0.863-4.796,3.225-5.703,6.395c-0.97,3.396-3.18,7.834-3.202,7.879l-0.72,1.441
		l1.549-0.443c0.678-0.193,1.92-0.168,3.359-0.141c1.863,0.039,4.183,0.084,6.335-0.346c2.746-0.549,5.056-1.719,6.211-2.377
		c0.381,1.154,1.123,3.285,2.004,5.225c1.315,2.893,3.881,4.711,3.989,4.787l1.637,1.146l-0.549-1.922
		c-0.035-0.121-0.052-0.258-0.052-0.408c0-1.064,0.844-2.785,1.879-4.896l1.639-3.463c1.044-2.348,1.311-4.258,1.311-5.598
		c0-0.572-0.052-1.018-0.109-1.371c1.425-0.264,4.709-0.924,7.625-1.896c3.974-1.324,6.306-5.656,6.402-5.84l0.651-1.231
		l-1.378,0.197c-1.373,0.195-4.674-0.979-7.083-2.182c-1.501-0.752-3.466-1.096-4.517-1.236c0.148-1.089,0.652-4.787,0.652-4.787
		c0.256-1.92,0.32-4.319,0.32-6.244c0-1.853-0.06-3.265-0.064-3.381l-1.413-0.04C88.978,145.546,85.441,149.085,82.996,150.715z
		 M79.713,155.972c0.019-0.026,1.955-2.667,4.069-4.077c1.375-0.916,3.893-3.054,5.458-5.268c0.001,0.094,0.002,0.173,0.002,0.27
		c0,1.887-0.061,4.233-0.305,6.065l-0.851,6.232l0.743,0.068c0.029,0.002,2.892,0.252,4.742,1.178
		c0.186,0.092,3.889,1.92,6.561,2.277c-0.868,1.262-2.603,3.377-4.968,4.166c-3.651,1.217-8.098,1.965-8.142,1.973l-0.829,0.139
		l0.277,0.799c0.005,0.012,0.204,0.613,0.204,1.695c0,1.164-0.23,2.885-1.184,5.029l-1.616,3.412
		c-0.916,1.869-1.637,3.377-1.898,4.635c-0.776-0.736-1.795-1.875-2.443-3.303c-1.216-2.676-2.209-5.883-2.218-5.916l-0.279-0.906
		l-0.79,0.525c-0.029,0.02-2.937,1.934-6.497,2.645c-2.001,0.4-4.141,0.357-6.029,0.32c-0.914-0.02-1.694-0.025-2.382,0.01
		c0.74-1.578,2.024-4.465,2.731-6.939c0.915-3.203,4.671-5.553,5.49-5.758l0.892-0.223l-0.443-0.807
		c-0.741-1.346-2.663-5.258-2.663-7.158c0-2.191-1.02-4.418-2.215-5.929c1.513-0.067,4.122,0.028,7.011,1.094
		c4.496,1.656,6.448,3.786,6.467,3.808l0.585,0.649L79.713,155.972z"/>
	<path d="M81.982,186.32c0.053,0.131,5.485,13.328,21.875,31.953l1.064-0.936c-13.258-15.066-19.253-26.492-21.028-30.23
		c2.432,0.605,7.443,1.779,11.176,2.152l0.141-1.41c-4.885-0.488-12.314-2.459-12.388-2.479l-1.371-0.367L81.982,186.32z"/>
	<path d="M102.39,215.555c0,0-0.75,3.5,1.75,7.5s6.75,6.5,10.25,5s4-6.5,0-9.25S103.39,214.805,102.39,215.555z"/>
	<path d="M89.64,210.805c0,0-4.5,2-7.25,4.75s-4.75,8.5,0.75,10.75s9.5-2.75,9.25-6.75S89.64,210.805,89.64,210.805z"/>
	<path d="M74.89,196.805c0,0-4.75,1-8.75,5.25s-2.5,10.25,1.25,11.5s9.75-0.5,9.75-7S75.64,195.805,74.89,196.805z"/>
	<path d="M66.64,185.055c0,0-5.5,0.25-9.75,3.5s-4.5,7.75-0.75,10.25s9.75,0.75,10.5-5.25S66.64,185.055,66.64,185.055z"/>
	<path d="M93.14,187.555c0,0-0.25,5.25,7.75,5.75s9-2.5,9-5.25s-2-5.25-7.75-5.25S93.14,186.055,93.14,187.555z"/>
	<path d="M99.39,201.305c0,0,0.75,5.25,8.75,6.75s9-3,8.75-5.25s-3-6-8.75-5.75S99.39,201.305,99.39,201.305z"/>
	<path d="M73.998,197.754l1.283,0.602c0.226-0.482,5.535-11.836,6.046-13.879l-1.375-0.344
		C79.556,185.719,75.52,194.504,73.998,197.754z"/>
	<path d="M64.639,186.055l1.002,1.002c1.263-1.264,7.057-8.502,7.302-8.809l-1.106-0.887
		C71.776,177.438,65.847,184.846,64.639,186.055z"/>
	<polygon points="88.458,213.361 89.821,213.75 93.07,202.502 91.709,202.107 	"/>
	<path d="M91.549,201.508c0.318,0.041,7.81,1.006,9.091,1.006v-1.418c-0.988,0-6.767-0.717-8.909-0.994L91.549,201.508z"/>
	<path d="M105.604,133.688c-0.875-0.34-2.455-0.858-4.641-1.088c-1.912-0.202-3.957-0.166-5.6-0.137l-3.715-0.041l0.65,1.109
		c0.47,0.706,1.214,2.083,1.214,2.774c0,0.436,0.168,4.208,4.222,7.877c-0.627,0.706-2.208,2.486-2.208,2.486
		c-0.806,0.905-1.46,2.43-2.037,3.776c-0.385,0.896-0.82,1.912-1.102,2.193l0.709,1.179c0.021-0.007,2.087-0.636,3.625-0.636l0,0
		c1.637,0,6.033-0.861,9.499-1.553c0.354,1.055,1.312,3.12,3.748,4.914c2.189,1.613,5.393,3.342,7.515,4.484l3.035,1.695
		l-0.094-1.336c-0.003-0.021-0.208-1.691-0.208-2.982c0-0.312,0.013-0.604,0.042-0.844c0.045-0.357,0.09-1.079,0.09-1.943
		c0-1.304-0.109-2.917-0.472-4.096c1.659-0.305,5.328-1.062,7.815-2.241c2.066-0.979,3.877-2.317,5.076-3.202
		c0.598-0.442,1.162-0.859,1.383-0.947l1.105-0.441l-0.914-0.761c-0.123-0.103-3.043-2.532-4.714-3.703
		c-1.67-1.169-6.407-2.442-9.73-2.877c-0.081-1.311-0.355-4.54-1.19-6.488l-1.303,0.559c0.936,2.183,1.107,6.536,1.109,6.58
		l0.022,0.614l0.611,0.064c3.071,0.323,8.136,1.637,9.668,2.71c1.123,0.786,2.871,2.197,3.863,3.008
		c-0.229,0.162-0.456,0.324-0.753,0.544c-1.223,0.904-2.898,2.141-4.841,3.061c-3.036,1.438-8.253,2.265-8.306,2.274l-1.06,0.166
		l0.569,0.909c0.461,0.738,0.647,2.74,0.647,4.37c0,0.648-0.029,1.238-0.083,1.668c-0.037,0.295-0.052,0.645-0.052,1.016
		c0,0.6,0.04,1.234,0.085,1.791c-0.339-0.193-0.731-0.414-0.731-0.414c-2.085-1.123-5.237-2.822-7.347-4.377
		c-2.876-2.119-3.385-4.696-3.39-4.723l-0.132-0.705l-0.724,0.141c-3.284,0.656-8.248,1.65-9.842,1.65l0,0
		c-0.796,0-1.665,0.142-2.405,0.295c0.154-0.337,0.304-0.655,0.476-1.056c0.534-1.246,1.141-2.659,1.793-3.393l3.154-3.55
		l-0.566-0.468c-4.194-3.464-4.242-7.133-4.242-7.287c0-0.763-0.414-1.705-0.805-2.444c0.631,0.01,1.262,0.02,1.262,0.02
		c1.604-0.028,3.601-0.063,5.427,0.129c2.984,0.314,4.906,1.254,4.926,1.263l0.827,0.411l0.183-0.906
		c0.113-0.56,1.162-3.288,1.797-4.876l-1.316-0.526C107.092,129.724,106.084,132.257,105.604,133.688z"/>
	<path d="M116.89,169.971c0,0-3.334,0.834-5.667,3.334s-2.832,7,0.334,10.666c3.166,3.668,8.5,2.334,10-0.832
		C123.057,179.971,122.057,172.805,116.89,169.971z"/>
	<path d="M144.057,175.639c0,0-4.5,2.5-9.667-1.168c-5.167-3.666-4.333-8.166-4.333-8.166s3.666-2.666,7.833-2.666
		c4.167,0,6.5,3.166,6.5,3.166L144.057,175.639z"/>
	<path d="M144.223,160.639c-1,0.666-5,1.5-9.5-0.668c-4.5-2.166-4.166-5.166-4.166-5.166s1.333-2.334,5.333-2.834
		s8.333,1.834,8.333,1.834V160.639z"/>
	<path d="M123.313,150.884c2.817,1.988,6.827,4.497,6.867,4.522l0.752-1.203c-0.04-0.024-4.017-2.512-6.801-4.478L123.313,150.884z"
		/>
	<path d="M119.104,158.518c0.059,0.049,5.9,4.885,10.527,8.354l0.85-1.133c-4.598-3.449-10.414-8.264-10.473-8.312L119.104,158.518z
		"/>
	<rect x="116.348" y="160.46" transform="matrix(-0.998 -0.0635 0.0635 -0.998 223.3615 338.5346)" width="1.417" height="10.521"/>
	<path d="M19.311,7.596c-5.861,0-10.63,4.768-10.63,10.63v201.659c0,5.861,4.768,10.629,10.63,10.629h114.158
		c5.861,0,10.63-4.768,10.63-10.629V18.226c0-5.861-4.769-10.63-10.63-10.63H19.311z M10.098,219.885V18.226
		c0-5.08,4.133-9.213,9.213-9.213h114.158c5.08,0,9.212,4.133,9.212,9.213v201.659c0,5.08-4.132,9.211-9.212,9.211H19.311
		C14.231,229.096,10.098,224.965,10.098,219.885z"/>
</g>
</svg>
