<?xml version="1.0" encoding="iso-8859-1"?>
<!-- Generator: Adobe Illustrator 19.1.0, SVG Export Plug-In . SVG Version: 6.00 Build 0)  -->
<svg version="1.1" id="&#xB808;&#xC774;&#xC5B4;_1" xmlns="http://www.w3.org/2000/svg" xmlns:xlink="http://www.w3.org/1999/xlink"
	 x="0px" y="0px" viewBox="0 0 153.071 238.11" style="enable-background:new 0 0 153.071 238.11;" xml:space="preserve">
<rect style="fill:#E60012;" width="153.071" height="238.11"/>
<g>
	<path style="fill:#FFFFFF;" d="M8.535,17.055v202.667c0,0-1.333,11.333,11.333,11.333c12.667,0,113,0,113,0
		s11.667,1.333,11.667-12.5c0-13.833,0-201.5,0-201.5s-0.166-10.166-10-10.166s-116.333,0-116.333,0S9.868,6.721,8.535,17.055z"/>
	<path style="fill:#005BAC;" d="M34.993,72.805c0,0-1.75,3-2.375,3.875s-2.5,5.375-2.5,8.125c0,0-2.875-1.5-6.75-1.125
		s-7.875,2.75-9,3.375s-3.125,1.25-3.125,1.25s2.375,1.625,3.5,3s5.625,4.375,5.625,4.375s-3.5,4.25-4.375,6.875
		s-0.875,8.125-0.875,8.125v1.625c0,0,3.875-2.125,6.25-3.125s11.5-4.375,12.625-7.25c0,0,2.125,3.5,5.625,5.25s5.875,3.5,6.125,4
		c0,0-0.125-2.625,0-4.125s2-7-1.125-12.375c0,0,4.625-1.625,7.5-5.375s5-6.375,5-6.375s-2.625,0.25-4.625,0.125
		s-9.875-0.625-12.125,0c0,0-0.75-4.5-2.625-6.75S34.993,72.805,34.993,72.805z"/>
	<path style="fill:#005BAC;" d="M67.368,80.055c0,0-3,1.875-4.875,4.625c-1.875,2.75-2.125,5.25-2.25,5.75s-1.125,3.5-1.625,4
		c0,0,4-0.75,5.125-1.125c1.125-0.375,7.875-2.75,9.375-4.375c0,0,4.125,4.125,9.5,3.25s9.5-4.25,9.5-4.25s3.25,2.75,4.875,3.75
		s3.625,1.375,3.625,1.375s0.375-4.875,0-7.5s-2.75-8.25-4.5-10.25c0,0,3.625-4.5,5.25-9s2.375-7.375,2.375-7.375
		s-3.875,0.25-6.25,0.375s-6.125,0.5-8.375,1.5s-4.375,3.5-4.375,3.5s-2.375-4.5-4.25-6s-6.5-4.625-6.75-5.375c0,0-0.625,3-1,4.375
		s-1,5.5-1,7.625c0,0-2.125-1.375-4.875-1.375s-7.625-0.125-9-0.875c0,0,1.625,4.75,2.125,6.875S63.368,76.93,67.368,80.055z"/>
	<path style="fill:#E60012;" d="M144.868,144.555v75.833c0,0,1.999,10.5-12.667,10.5c-14.666,0-114.833,0-114.833,0
		s-9,0.001-9-12.166c0-12.167,0-67.667,0-67.667L144.868,144.555z"/>
	<path d="M18.456,6.346c-5.861,0-10.63,4.769-10.63,10.63v204.158c0,5.861,4.769,10.63,10.63,10.63h116.158
		c5.861,0,10.63-4.769,10.63-10.63V16.976c0-5.861-4.768-10.63-10.63-10.63H18.456z M9.243,221.134V16.976
		c0-5.08,4.133-9.213,9.213-9.213h116.158c5.08,0,9.212,4.133,9.212,9.213v204.158c0,5.08-4.132,9.212-9.212,9.212H18.456
		C13.376,230.346,9.243,226.214,9.243,221.134z"/>
	<path d="M8.368,143.805c0,0,3.75-3.75,4.25-9.25c0.5-5.5,3.25-15.5,9.25-19.5s10.5-4,17-2.5s9.5,2.75,14.5,3c0,0-1.5-2.5-3-3.75
		s-2.75-6.25,1.25-8.75s10.5-0.75,12.5,3.25c2,4,0.5,8.5,0.5,8.5s5.75,0.25,15.75-2.75s14-11.25,15-13.25s6.5-10.75,17.75-11.25
		s29.5,0.75,31,27.75c0,0-0.5,7.75-3.25,12.75c-2.75,5,0,9.5,1,10.5s2.75,4,2.75,5.5v3.25c0,0-2.5,0-4.5,0.25s-6.5,1.5-8.25,3.25
		s-11.5,6.25-21.5,6c0,0-0.5,6.75-4.75,10.25s-8.25,3.75-11,5s-5.5,5-6.75,7.75s-2.5,6-2.75,7s0,1-2-0.5s-5.75-4.25-10.75-5
		s-9.75-1-17.5-5.25s-11.25-12.25-11.25-12.25s-3.5,1.5-7.25,1s-9.75-3.5-12.75-5.75s-9.75-6-15-5.75L8.368,143.805z"/>
	<path d="M95.118,31.805c0,0,0.75-6.75,6.25-9.25s10.75-1,12,2.5s-0.5,7.75-7.25,9.25S96.118,32.555,95.118,31.805z"/>
	<path d="M95.868,52.555c0,0,0.5-7.25,6.5-11.25s12-1.25,13,3s-1.75,7.75-7.25,9S97.618,53.805,95.868,52.555z"/>
	<path d="M76.118,49.555c0,0,1.75-4.75-3-9.75s-12-3-13.75-0.75s-2.5,7.75,4.5,11S76.118,49.555,76.118,49.555z"/>
	<path d="M77.618,34.055c0,0,3.5-6.25-1.5-11.25s-11-4.75-14.75-1.25c-3.75,3.5-0.5,10.25,5,12.5S77.618,34.055,77.618,34.055z"/>
	<path d="M85.118,6.805c-3.5,4,0.25,11,0.25,11s8.25,1.5,16.5-10.5L85.118,6.805z"/>
	<path d="M74.118,106.805c0,0,3-6,0.25-10.25s-8-5-10.5-3.5c-2.5,1.5-3.5,6.25,0.5,10.25S74.118,106.805,74.118,106.805z"/>
	<path d="M43.368,65.555c0,0-2-7,2.5-11s10.25-2.75,11.75-0.25s1.25,7.25-3.75,10C48.868,67.055,43.368,65.555,43.368,65.555z"/>
	<path d="M37.368,50.555c0,0-5.25-3-5-10s3.75-9.25,8.25-9.25s6.5,5.5,5.25,10.5S39.618,50.305,37.368,50.555z"/>
	<path d="M27.868,62.555c0,0,3-5.25-0.5-11.25s-10-5.5-12.75-3s-2.75,8,2.25,12.25S27.868,62.555,27.868,62.555z"/>
	<path d="M8.368,66.555c1.25-1,6.5-2.25,10.5,1.5s1.75,10.5,1.75,10.5s-8.5,2.75-12-2L8.368,66.555z"/>
	<path d="M34.411,72.552c-0.012,0.021-1.177,2.177-2.971,4.951c-1.395,2.154-1.87,4.956-2.031,6.4
		c-6.222-2.574-13.579,1.681-13.905,1.877c-1.595,0.956-4.529,2.102-4.559,2.113l-1.132,0.44l4.612,3.773
		c0,0,4.034,3.056,4.955,3.754c-1.409,1.901-3.886,5.449-4.542,8.893c-0.345,1.807-0.431,3.763-0.431,5.272
		c0,1.458,0.08,2.499,0.087,2.584l0.117,1.463l1.073-1.001c1.713-1.599,6.843-3.765,10.588-5.346l3.899-1.699
		c2.03-0.967,3.168-2.197,3.806-3.15c1.768,3.029,6.432,6.046,8.019,6.522c1.472,0.441,3.021,1.974,3.036,1.99l1.984,1.979
		l-0.805-2.685c-0.066-0.222-0.095-0.532-0.095-0.906c0-1.04,0.217-2.573,0.428-4.068c0.226-1.602,0.46-3.258,0.529-4.79
		c0.008-0.171,0.012-0.34,0.012-0.506c0-2.446-0.798-4.322-1.336-5.318c3.589-1.371,7.841-5.763,8.718-7.165
		c0.808-1.293,3.274-4.584,3.299-4.617l1.062-1.416l-1.746,0.292c-0.86,0.144-5.989,0.492-9.45-0.003
		c-2.724-0.389-5.538-0.014-6.831,0.206c-0.267-2.627-1.671-5.264-3.054-6.953c-1.437-1.755-2.094-2.892-2.101-2.903l-0.634-1.105
		L34.411,72.552z M30.743,84.917c0.001-0.04,0.184-4.012,1.887-6.644c1.104-1.705,1.93-3.111,2.449-4.021
		c0.363,0.527,0.87,1.224,1.574,2.084c1.373,1.678,2.84,4.367,2.84,6.884V84.1l0.859-0.186c0.037-0.008,3.755-0.799,7.082-0.324
		c2.599,0.371,6.119,0.295,8.252,0.152c-0.806,1.095-1.906,2.616-2.419,3.437c-0.726,1.161-5.468,6.076-8.73,6.853l-1.033,0.246
		l0.624,0.861c0.017,0.022,1.541,2.164,1.541,5.284c0,0.143-0.003,0.287-0.01,0.434c-0.066,1.465-0.295,3.087-0.517,4.656
		c-0.203,1.438-0.366,2.717-0.408,3.787c-0.654-0.483-1.476-1.001-2.33-1.256c-1.624-0.487-7.1-4.229-7.677-6.967l-1.377-0.042
		c-0.025,0.09-0.662,2.227-3.788,3.715l-3.841,1.673c-3.423,1.445-7.529,3.186-9.877,4.758c-0.01-0.34-0.018-0.715-0.018-1.147
		c0-1.448,0.08-3.32,0.403-5.011c0.664-3.489,3.495-7.263,4.704-8.874l0.423-0.564l-6.047-4.581c0,0-1.713-1.401-2.738-2.24
		c1.045-0.439,2.597-1.128,3.66-1.766c0.314-0.189,7.772-4.589,13.462-1.486l1.001,0.546L30.743,84.917z"/>
	<path d="M72.995,52.504c-0.002,0.022-0.175,2.313-0.978,5.371c-0.567,2.156-0.756,4.62-0.821,6.079
		c-2.302-1.261-4.952-1.128-6.971-1.002l-1.357,0.061c-2.006,0-4.881-1.107-4.909-1.119l-1.465-0.568l0.543,1.474
		c0.012,0.031,1.177,3.207,2.652,8.125c1.218,4.059,4.927,7.681,6.58,9.146c-3.703,2.063-6.446,7.65-6.606,9.42
		c-0.126,1.386-1.31,3.887-1.755,4.734l-0.717,1.362l1.501-0.341c0.036-0.008,3.729-0.85,7.046-1.846
		c3.387-1.016,6.463-3.032,7.107-3.657c0.086,0.054,0.183,0.114,0.183,0.114l0.476,0.306l0.148,0.091
		c3.773,2.32,7.432,3.103,10.872,2.326c4.094-0.925,6.568-2.934,7.555-3.884c1.199,1.026,4.129,3.449,5.714,4.025l3.71,1.526
		l0.073-1.007c0.002-0.058,0.01-0.398,0.01-0.937c0-1.97-0.107-6.592-1.037-9.78c-0.969-3.318-2.88-6.118-3.633-7.141
		c2.658-3.576,5.613-9.187,5.98-11.021c0.321-1.609,1.469-5.22,1.479-5.257l0.318-0.998l-3.884,0.286l-7.854,0.626
		c-3.562,0.396-6.749,2.885-8.162,4.149c-1.871-4.392-5.924-6.791-6.416-7.065c-1.137-0.632-3.372-3.106-4.137-4.006l-1.122-1.319
		L72.995,52.504z M72.577,65.221c0-0.039,0.011-3.948,0.81-6.986c0.431-1.635,0.683-3.031,0.831-4.032
		c0.994,1.083,2.459,2.575,3.473,3.138c1.737,0.965,4.992,3.581,6.17,7.263l0.361,1.131l0.824-0.856
		c0.038-0.04,3.883-3.989,8.067-4.454l7.785-0.62c0,0,0.969-0.072,1.817-0.134c-0.373,1.217-0.978,3.25-1.21,4.412
		c-0.312,1.559-3.259,7.286-6.031,10.873l-0.341,0.44l0.348,0.435c0.026,0.032,2.595,3.278,3.706,7.089
		c0.854,2.923,0.971,7.285,0.978,9.247c-0.859-0.354-1.888-0.778-1.888-0.778c-1.4-0.509-4.643-3.204-5.774-4.199l-0.543-0.479
		l-0.468,0.555c-0.024,0.028-2.436,2.837-7.28,3.931c-3.066,0.693-6.369-0.031-9.817-2.151l-0.161-0.099l-0.416-0.268
		c-0.482-0.324-1.144-0.767-1.95,0.041c-0.453,0.453-3.376,2.374-6.536,3.322c-2.005,0.602-4.143,1.145-5.512,1.479
		c0.511-1.132,1.148-2.733,1.255-3.902c0.144-1.597,3.129-7.488,6.693-8.728l1.216-0.423l-1.008-0.801
		c-0.055-0.044-5.511-4.425-6.929-9.149c-0.915-3.05-1.71-5.429-2.192-6.825c1.113,0.341,2.684,0.737,4.014,0.737l1.445-0.063
		c2.119-0.132,5.021-0.313,7.104,1.402l1.158,0.954L72.577,65.221z"/>
	<path d="M85.082,56.682l1.434,5.553l1.371-0.36l-1.435-5.555c-3.367-12.732-3.156-26.724,0.596-39.398l-1.359-0.402
		C81.864,29.439,81.648,43.703,85.082,56.682z"/>
	<path d="M83.476,38.296c-2.267-2.445-6.007-5.34-6.175-5.469l-0.864,1.123c0.043,0.033,4.302,3.319,6.396,5.736l0.412,0.476
		l0.521-0.354c0.098-0.066,9.824-6.64,15.178-8.587l-0.484-1.332C93.583,31.662,85.562,36.906,83.476,38.296z"/>
	<path d="M74.726,49.246c0.221,0.2,5.461,4.926,10.65,7.605l0.65-1.26c-5.022-2.592-10.296-7.348-10.349-7.395L74.726,49.246z"/>
	<path d="M86.136,58.303l0.798,1.171c0.078-0.053,7.851-5.34,12.103-7.629l-0.672-1.248C94.049,52.921,86.457,58.084,86.136,58.303z
		"/>
	<path d="M77.232,114.576l1.272,0.624c4.164-8.497,6.467-22.603,6.562-23.199l-1.398-0.226
		C83.646,91.919,81.303,106.271,77.232,114.576z"/>
	<path d="M72.771,106.436c0.206,0.324,5.116,7.977,9.498,11.347l0.863-1.123c-4.184-3.219-9.118-10.909-9.167-10.986L72.771,106.436
		z"/>
	<path d="M35.328,74.337l1.414,0.102c0.017-0.232,1.669-23.226,1.834-27.356l-1.416-0.057
		C36.996,51.134,35.345,74.106,35.328,74.337z"/>
	<path d="M26.523,62.212l6.011,6.177c1.866,1.867,2.833,4.239,2.843,4.263l1.315-0.527c-0.043-0.107-1.077-2.659-3.156-4.738
		l-5.99-6.157L26.523,62.212z"/>
	<path d="M35.488,72.937l1.093,0.902c0.055-0.066,5.467-6.597,9.311-8.839l-0.714-1.225C41.115,66.146,35.716,72.661,35.488,72.937z
		"/>
	<path d="M19.001,77.854c0.184,0.212,4.547,5.216,5.9,6.401l0.934-1.066c-1.282-1.122-5.721-6.214-5.766-6.265L19.001,77.854z"/>
	<path d="M32.063,114.748l1.277,0.613c2.019-4.205,3.177-10.579,3.225-10.848l-1.395-0.251
		C35.159,104.327,33.997,110.718,32.063,114.748z"/>
</g>
</svg>
