<?xml version="1.0" encoding="iso-8859-1"?>
<!-- Generator: Adobe Illustrator 19.1.0, SVG Export Plug-In . SVG Version: 6.00 Build 0)  -->
<svg version="1.1" id="&#xB808;&#xC774;&#xC5B4;_1" xmlns="http://www.w3.org/2000/svg" xmlns:xlink="http://www.w3.org/1999/xlink"
	 x="0px" y="0px" viewBox="0 0 153.071 238.11" style="enable-background:new 0 0 153.071 238.11;" xml:space="preserve">
<rect style="fill:#E60012;" width="153.071" height="238.11"/>
<g>
	<path style="fill:#FFFFFF;" d="M7.702,15.638L7.535,222.305c0,0,0.667,8.333,9.333,9h109.834l9.5-46l9.5-50.333V89.138
		l0.166-55.667l-0.5-18.333c0,0-1-7.333-8.833-8.333l-118.5,0.167C18.035,6.971,9.035,5.638,7.702,15.638z"/>
	<path style="fill:#E60012;" d="M34.66,55.055l49.5,1.375c0,0,15.541,23.875,22.708,52.542c7.167,28.667,9.168,47.334,10.334,68.334
		l0.5,27.667l-1.5,0.833l-0.667,3.333l-39.334-1.333c0,0,0.333-28.167-3-51.5s-9.667-48.167-18.5-67.167
		C54.702,89.138,45.619,68.805,34.66,55.055z"/>
	<path d="M17.456,6.096c-5.861,0-10.63,4.769-10.63,10.63v204.658c0,5.861,4.769,10.63,10.63,10.63h118.158
		c5.861,0,10.63-4.769,10.63-10.63V16.726c0-5.861-4.768-10.63-10.63-10.63H17.456z M8.244,221.384V16.726
		c0-5.08,4.133-9.213,9.213-9.213h118.158c5.08,0,9.212,4.133,9.212,9.213v204.658c0,5.08-4.132,9.212-9.212,9.212H17.456
		C12.376,230.596,8.244,226.464,8.244,221.384z"/>
	<path d="M33.841,55.612c0.441,0.492,44.113,50.354,41.485,152.508l-0.018,0.703l41.014,1.379l0.083-0.639
		c0.106-0.829,10.215-83.718-31.429-153.455l-0.2-0.334l-52.036-1.388L33.841,55.612z M76.858,199.311
		c0-88.343-34.574-135.49-40.947-143.423c2.907,0.078,47.272,1.26,48.038,1.281c27.592,46.417,32.196,98.639,32.196,128.269
		c0,12.562-0.822,21.029-1.072,23.304c-1.242-0.042-37.003-1.244-38.32-1.288C76.818,204.705,76.858,201.984,76.858,199.311z"/>
	<path d="M48.285,231.055l25.25,0.25c0,0-12.5-19-16.75-46.75s12.25-49.5,12.25-49.5v-1.5c0,0-12.25,4.25-20.5,17
		c0,0-11-33.75,5-62.5c0,0-7.25,0.25-20,20.75c0,0-16.75-42,2.75-101.75l-1.25-0.25c0,0-14.5,28.5-21,67.25s2.75,85.75,2.75,85.75
		s-6-9.5-9-15c0,0,0.25,4.75,0.25,6s5,29.25,7.5,42.25s8.5,24.5,17,30S48.285,231.055,48.285,231.055z"/>
	<path d="M81.286,208.305c0,0,1.5,8.75,12,9.75s14-8.75,14-8.75l2.5,0.25c0,0,1.5,16-4.5,21.75l-21.5-0.25c0,0-8.75-6.5-5-22.5
		L81.286,208.305z"/>
	<path d="M125.786,231.305c0,0-8.75-11-9.75-25.25c0,0,1.5-23.25,0.75-30.5c0,0,7.467-19.967,2.5-63.25
		c-5.25-45.75-22.5-78.25-22.5-78.25s33.75,51,48.5,99.75l0.25,87.579c0,0,0.408,10.171-9.921,9.921H125.786z"/>
	<path d="M145.286,91.555c0,0-10.25-21-25-32.75c0,0-3-33.25-16.75-52l29.75,0.5c0,0,3.25,8,5.75,12.75s6.25,12.75,6.5,16.5
		L145.286,91.555z"/>
	
		<rect x="37.803" y="228.013" transform="matrix(-0.2202 -0.9755 0.9755 -0.2202 -173.7468 318.549)" width="5.297" height="1.418"/>
	<path d="M34.007,223.277c0.324,1.621,1.15,8.379,1.158,8.447l1.407-0.172c-0.034-0.28-0.841-6.88-1.176-8.553L34.007,223.277z"/>
	<path d="M27.833,218.734c0.5,3.67,2.916,12.549,3.018,12.925l1.367-0.373c-0.025-0.091-2.494-9.165-2.981-12.743L27.833,218.734z"
		/>
	<path d="M15.667,197.404c2.818,20.058,10.168,34.094,10.242,34.233l1.252-0.664c-0.073-0.137-7.309-13.969-10.091-33.767
		L15.667,197.404z"/>
	<path d="M10.498,194.888c0.116,0.985,2.923,24.271,9.41,36.58l1.254-0.66c-6.363-12.075-9.229-35.848-9.257-36.086L10.498,194.888z
		"/>
	<path d="M8.665,209.895c0.069,0.535,1.718,13.186,5.049,21.183l1.309-0.545c-3.257-7.818-4.935-20.688-4.952-20.817L8.665,209.895z
		"/>
	
		<rect x="71.493" y="205.868" transform="matrix(-0.6974 -0.7167 0.7167 -0.6974 -31.1512 415.7917)" width="1.417" height="17.208"/>
	<path d="M68.341,225.665l1.055,0.947c0.073-0.082,7.348-8.178,10.293-10.958l-0.973-1.031
		C75.729,217.444,68.642,225.331,68.341,225.665z"/>
	<path d="M75.625,230.394l0.82,1.156c0.216-0.154,5.32-3.794,6.715-6.412l-1.25-0.666C80.671,226.796,75.675,230.359,75.625,230.394
		z"/>
	<path d="M107.776,220.073l0.854,1.131c1.497-1.13,9.009-6.854,9.873-8.581l-1.268-0.635
		C116.681,213.094,111.139,217.534,107.776,220.073z"/>
	<path d="M108.793,230.726l0.818,1.158c0.464-0.328,11.389-8.046,13.233-9.722l-0.953-1.049
		C120.111,222.732,108.907,230.647,108.793,230.726z"/>
	
		<rect x="115.235" y="159.513" transform="matrix(-0.8031 -0.5958 0.5958 -0.8031 118.1258 359.4749)" width="6.433" height="1.417"/>
	
		<rect x="114.365" y="152.763" transform="matrix(-0.8253 -0.5647 0.5647 -0.8253 129.0943 346.8798)" width="7.673" height="1.418"/>
	<path d="M113.453,143.546c2.339,1.697,8.638,6.415,9.677,7.844l1.146-0.834c-1.36-1.87-9.111-7.518-9.991-8.156L113.453,143.546z"
		/>
	<path d="M111.556,132.494c0.083,0.076,8.358,7.692,11.478,10.812l1.002-1.002c-3.141-3.142-11.437-10.776-11.521-10.854
		L111.556,132.494z"/>
	<path d="M109.877,122.482c0.088,0.085,8.889,8.55,12.528,11.692l0.926-1.072c-3.61-3.118-12.384-11.557-12.472-11.642
		L109.877,122.482z"/>
	<path d="M106.07,109.339c0.155,0.136,15.594,13.627,17.676,17.47l1.246-0.675c-2.202-4.067-17.347-17.302-17.99-17.864
		L106.07,109.339z"/>
	<path d="M101.035,92.972c0.824,0.824,20.199,20.197,21.534,21.366l0.934-1.066c-1.301-1.138-21.265-21.1-21.466-21.301
		L101.035,92.972z"/>
	<path d="M97.386,78.49c0.213,0.198,21.337,19.839,23.296,21.961l1.041-0.961c-1.995-2.162-22.5-21.228-23.372-22.039L97.386,78.49z
		"/>
	<polygon points="97.874,70.813 117.035,89.472 118.037,88.47 98.863,69.796 	"/>
	<path d="M96.211,59.982c0.175,0.168,17.501,16.838,19.133,18.633l1.049-0.954c-1.664-1.83-18.484-18.013-19.199-18.701
		L96.211,59.982z"/>
	<path d="M93.687,47.958c0.142,0.149,14.166,15.003,15.958,17.284l1.115-0.875c-1.832-2.332-15.463-16.769-16.042-17.383
		L93.687,47.958z"/>
	<path d="M112.704,63.228l1.33,0.487c0.179-0.486,4.37-11.982,5.535-19.299l-1.4-0.223C117.026,51.374,112.747,63.11,112.704,63.228
		z"/>
	<path d="M116.676,71.153l1.385,0.304c1.473-6.712,4.117-14.343,4.144-14.419l-1.338-0.466
		C120.839,56.649,118.168,64.357,116.676,71.153z"/>
	<path d="M118.019,79.285l1.367,0.373c0.492-1.804,5.94-19.966,5.995-20.15l-1.357-0.407
		C123.799,59.85,118.515,77.463,118.019,79.285z"/>
	<path d="M121.854,85.277l1.363,0.389c0.331-1.16,5.612-21.163,5.837-22.013l-1.371-0.362
		C127.628,63.499,122.181,84.13,121.854,85.277z"/>
	<path d="M125.171,94.678l1.395,0.253c0.323-1.783,6.756-25.369,6.82-25.606l-1.367-0.373
		C131.753,69.926,125.506,92.835,125.171,94.678z"/>
	
		<rect x="132.327" y="74.564" transform="matrix(-0.9562 -0.2927 0.2927 -0.9562 234.5872 210.3828)" width="1.418" height="26.149"/>
	<path d="M131.015,109.132l1.374,0.348c0.181-0.676,6.668-20.408,9.152-27.954l-1.346-0.443
		C139.274,83.883,131.184,108.46,131.015,109.132z"/>
	<path d="M134.681,115.299l1.375,0.344c1.148-4.595,8.747-29.215,8.823-29.463l-1.354-0.418
		C143.212,86.777,135.838,110.667,134.681,115.299z"/>
	<path d="M136.922,123.95l1.227,0.71c1.836-3.172,7.63-17.319,7.876-17.92l-1.312-0.536
		C144.653,106.349,138.71,120.861,136.922,123.95z"/>
</g>
</svg>
