<?xml version="1.0" encoding="iso-8859-1"?>
<!-- Generator: Adobe Illustrator 19.1.0, SVG Export Plug-In . SVG Version: 6.00 Build 0)  -->
<svg version="1.1" id="&#xB808;&#xC774;&#xC5B4;_1" xmlns="http://www.w3.org/2000/svg" xmlns:xlink="http://www.w3.org/1999/xlink"
	 x="0px" y="0px" viewBox="0 0 153.071 238.11" style="enable-background:new 0 0 153.071 238.11;" xml:space="preserve">
<rect style="fill:#E60012;" width="153.071" height="238.11"/>
<g>
	<path style="fill:#FFFFFF;" d="M7.952,17.721v202.501c0,0-0.333,9.666,10.833,9.666s116.333,0,116.333,0s10-0.334,10-11
		s0-201.167,0-201.167s0.333-9.833-12-9.833c-12.333,0-115.333,0-115.333,0S7.952,7.888,7.952,17.721z"/>
	<path style="fill:#005BAC;" d="M72.285,123.93c0,0,0.375,4,0.875,7.125c0,0-2.125,2.375-4.375,3.75s-4.625,2.125-5.75,2.25
		c0,0,3.375,5.875,10.75,8.25c0,0-2.625,4.125,0.375,12.375c0,0,1.125-2.125,2.751-3c1.625-0.875,6.75-3.625,7.625-6
		c0,0,1.875,1.75,5.25,2.75s10.125,1.5,11.25,2.625c0,0-1.25-4.75-2-6.625s-2.375-6-4.125-7.125c0,0,3.375-2.25,4.375-5.625
		s1.875-5.625,1.875-5.625s-2.125,0.5-4.25,0s-8.75-0.75-10.5,0.625c0,0-1.875-5.5-6-7.875L72.285,123.93z"/>
	<path style="fill:#005BAC;" d="M117.161,143.805c0,0-3.5-3-6.5-4s-6.375-1.75-6.375-1.75s1.25,2.875,1.375,4.5s2.5,6.5,4.625,9.25
		c0,0-3.25,1.875-5,4.25s-3.125,6.25-3.75,6.875c0,0,1.875,0.625,4.125,0.5s7.125-1.125,8.875-1.75c0,0-0.25,2.75,1.75,5.75
		s4.625,5.5,5.125,6.5c0,0,2.125-4.25,3.25-6.25s1.25-6.375,1.125-7.375c0,0,1.875-0.25,5.25-0.75s7.75-1.375,7.75-1.375
		s-2.25-3.25-3.125-4.625s-6.75-5.625-7.875-5.875c0,0,2.75-2.75,2.75-6.375s0-8,0-8.75c0,0-2.875,1.75-4.75,2.375
		S117.911,137.68,117.161,143.805z"/>
	<path d="M17.706,7.346c-5.861,0-10.63,4.769-10.63,10.63v202.158c0,5.861,4.769,10.63,10.63,10.63h117.658
		c5.861,0,10.63-4.769,10.63-10.63V17.976c0-5.861-4.769-10.63-10.63-10.63H17.706z M8.494,220.134V17.976
		c0-5.08,4.133-9.213,9.213-9.213h117.658c5.08,0,9.212,4.133,9.212,9.213v202.158c0,5.08-4.132,9.212-9.212,9.212H17.706
		C12.626,229.346,8.494,225.214,8.494,220.134z"/>
	<path d="M144.953,105.721c0,0-3.334,1-5.334,4.333c-2,3.334-5.666,13.001-15.666,16.001c-10,3-22,0-29.667-3
		c-7.667-3.001-16.334,0.001-23.001,1.667c-6.666,1.666-26,5.667-39.333-2c-13.333-7.668-15.333-23.334-15.667-31.334
		s1-18.667-1.666-26s-4.333-12-4.333-13s0.333-1,1.667-0.333s10.333,3.333,17.333,3s14.333-2.667,17.667-4s17-5,27.333,5.667
		c0,0,4.001-6.667,13.001-7s19.666,0.667,29.333-7.667c0,0,1,6.667,5,11.667s9,12,10,22.333s2.001,22.334,13.334,25.334V105.721z"/>
	<path d="M36.331,155.72l1.407,0.17c0.984-8.118,5.937-29.709,5.987-29.926l-1.381-0.318
		C42.294,125.865,37.325,147.528,36.331,155.72z"/>
	<path d="M37.285,153.305c0,0-5,1.5-7.75,7.25s-0.25,10.75,4,11.75s8.5-2,9-8.5S37.285,153.305,37.285,153.305z"/>
	<path d="M29.785,150.055c0,0-5.5-2.5-11.75-1.25s-6.25,5.5-6,7.75s3.25,5.75,11,3.5S30.785,151.055,29.785,150.055z"/>
	<path d="M31.535,135.305c0,0-3.75-4.25-9.75-4s-9,4.25-8.25,7.25s2.5,4.75,9.75,4S32.035,137.055,31.535,135.305z"/>
	<path d="M47.535,138.555c0,0-3,6.25,2,12s11.75,2.75,13.5-0.25c1.75-3,1-8-4-10.5S48.535,137.805,47.535,138.555z"/>
	<path d="M62.785,160.055c0,0-5.25-2-11,1s-5.25,9-3.25,11s7.75,3.25,12.25-2S62.785,160.055,62.785,160.055z"/>
	<path d="M65.035,175.805c0,0-5.25-2.5-10.75,1s-4,8.25-2.25,10s7.25,3,11.25-1.25S65.035,175.805,65.035,175.805z"/>
	<path d="M68.035,191.555c0,0,3.25,7-2,11.5s-11.25,3-13,0.25s-1-8.25,4-11S68.035,191.555,68.035,191.555z"/>
	<path d="M75.536,201.055c0,0-5.001,2.25-6.751,9.75s3,11.5,8.251,11.5c5.25,0,6.5-6.25,5.5-11.25S75.536,201.055,75.536,201.055z"
		/>
	<path d="M81.286,180.805c0,0-1.75,6,2.75,11s11.25,2.5,12.75-0.25s0.75-8.75-4.75-10.5S81.286,180.805,81.286,180.805z"/>
	<path d="M82.536,163.305c0,0-0.75,5.5,3,9.75s11.25,4,12.75,1.5s1.25-7.25-4.5-10.25S82.536,163.305,82.536,163.305z"/>
	<path d="M116.286,175.805c0,0-4.25-0.75-10,2.5s-5.25,8.25-3.5,10.75s9,3,12.5-3S116.286,175.805,116.286,175.805z"/>
	<path d="M127.286,190.555c0,0-3.75,3.75-3.5,10s5.75,9,10.5,7.25s6-6.75,3-11.5S127.286,190.555,127.286,190.555z"/>
	<path d="M145.036,176.055c0,0-2.75,5-9.75,4.5s-8.5-8-8.5-8s2.75-4,8.25-4.5s9.75,3.25,10,5V176.055z"/>
	<path d="M130.434,131.69l-6.238,3.493l-1.068,0.554c-2.399,1.213-5.562,2.823-6.356,6.662c-0.79-0.763-2.071-1.665-4.229-2.504
		c-4.501-1.751-7.963-2.502-8.108-2.533l-1.3-0.278l0.493,1.234c0.015,0.037,1.47,3.689,1.705,5.575
		c0.245,1.961,2.141,5.461,3.842,7.664c-0.812,0.42-2.07,1.178-3.39,2.497c-1.253,1.252-2.357,3.573-3.333,5.622
		c-0.641,1.347-1.246,2.618-1.71,3.175l-0.804,0.964l1.24,0.19c0.137,0.021,3.38,0.515,4.974,0.249l1.016-0.148
		c1.886-0.264,4.78-0.701,6.73-1.5c0.141,1.372,0.59,3.838,2.064,5.866c2.001,2.752,4.929,5.93,5.053,6.063l0.695,0.754l3.209-6.417
		c0.937-1.874,1.623-5.206,1.623-7.598c0-0.11-0.013-0.201-0.016-0.307c1.426-0.1,4.749-0.38,6.945-0.979
		c2.653-0.724,5.351-0.976,5.378-0.978l1.384-0.127l-0.915-1.046c-0.017-0.02-1.729-1.982-2.933-3.909
		c-1.209-1.936-4.816-5.193-7.305-6.435c0.766-1.27,2.179-4.061,2.179-7.353c0-0.207-0.006-0.415-0.017-0.626
		c-0.049-0.879-0.068-1.69-0.068-2.427c0-2.907,0.304-4.637,0.308-4.658l0.267-1.478L130.434,131.69z M117.995,144.305
		c0-4.385,3.066-5.936,5.772-7.304l1.107-0.574c0,0,3.449-1.931,5.035-2.819c-0.078,0.828-0.153,1.986-0.153,3.45
		c0,0.768,0.02,1.616,0.071,2.536c0.011,0.181,0.016,0.36,0.016,0.539c0,3.944-2.354,7.22-2.38,7.254l-0.571,0.783l0.919,0.307
		c2.048,0.683,6.206,4.336,7.374,6.204c0.737,1.18,1.598,2.297,2.23,3.08c-1.078,0.148-2.651,0.406-4.316,0.86
		c-2.644,0.721-7.304,0.974-7.351,0.976l-0.75,0.04l0.083,0.746c0.029,0.265,0.043,0.56,0.043,0.877c0,2.152-0.645,5.32-1.473,6.979
		c0,0-1.645,3.288-2.286,4.571c-0.994-1.114-2.872-3.268-4.257-5.172c-1.835-2.523-1.864-6.049-1.864-6.084l-0.003-1.275
		l-1.082,0.676c-1.532,0.958-5.212,1.472-7.188,1.747l-1.052,0.154c-0.819,0.137-2.332,0.016-3.452-0.113
		c0.395-0.688,0.806-1.493,1.265-2.458c0.926-1.944,1.975-4.148,3.055-5.229c1.855-1.855,3.73-2.581,3.749-2.588l0.953-0.362
		l-0.67-0.768c-1.643-1.877-3.848-5.763-4.08-7.621c-0.167-1.338-0.841-3.35-1.314-4.652c1.4,0.367,3.81,1.064,6.604,2.15
		c3.998,1.555,4.569,3.264,4.574,3.28L117.995,144.305z"/>
	<path d="M80.442,122.674c4.145,2.303,5.139,7.215,5.147,7.265l0.216,1.111l0.905-0.678c1.686-1.265,7.019-1.163,9.153-0.63
		c1.373,0.344,3.134,0.355,4.224,0.321c-0.258,0.894-0.712,2.383-1.469,4.503c-1.147,3.212-4.175,5.116-4.205,5.136l-0.883,0.546
		l0.83,0.624c1.789,1.342,3.995,6.635,4.487,8.605c0.273,1.096,0.685,2.381,1.013,3.354c-1.537-0.515-3.011-0.728-4.652-0.962
		l-4.261-0.754c-3.952-0.931-5.865-3.013-5.884-3.033l-0.54-0.599l-0.526,0.61c-1.417,1.652-5.796,5.086-7.279,5.827
		c-0.93,0.465-1.707,1.416-2.261,2.232c-0.503-1.528-1.213-4.006-1.213-5.849c0-2.741,1.132-4.607,1.143-4.626l0.487-0.79
		l-0.889-0.264c-3.865-1.137-5.767-2.672-7.026-3.688l-0.231-0.187c-0.74-0.592-1.976-1.962-2.802-2.91
		c1.594-0.329,3.839-1.163,5.802-2.732c2.501-2.002,3.996-3.49,4.058-3.553l0.304-0.303l-0.128-0.409
		c-0.669-2.14-0.814-3.989-0.814-5.195c0-0.921,0.085-1.466,0.087-1.479l-1.398-0.231c-0.009,0.057-0.11,0.686-0.11,1.723
		c0,1.234,0.161,3.059,0.768,5.173c-0.544,0.52-1.833,1.713-3.652,3.167c-2.451,1.961-5.308,2.595-6.307,2.595h-1.513l0.969,1.163
		c0.104,0.124,2.56,3.066,3.851,4.1l0.227,0.182c1.174,0.948,3.156,2.475,6.735,3.664c-0.403,0.883-0.978,2.472-0.978,4.601
		c0,3.098,1.724,7.568,1.798,7.757l0.578,1.487l0.716-1.427c0.319-0.638,1.38-2.407,2.433-2.934c1.471-0.735,5.365-3.75,7.213-5.635
		c0.889,0.77,2.861,2.188,6.059,2.94l4.386,0.777c2.047,0.291,3.815,0.543,5.73,1.427l1.544,0.713l-0.581-1.599
		c-0.01-0.027-0.993-2.739-1.479-4.68c-0.43-1.72-2.309-6.55-4.335-8.744c1.087-0.834,3.104-2.658,4.064-5.346
		c1.248-3.492,1.75-5.483,1.771-5.566l0.24-0.96l-0.986,0.082c-0.029,0.002-2.909,0.233-4.77-0.232
		c-1.84-0.46-6.789-0.748-9.46,0.408c-0.504-1.676-1.968-5.312-5.618-7.34L80.442,122.674z"/>
	<polygon points="28.892,150.215 29.678,151.395 39.166,145.153 38.405,143.958 	"/>
	<path d="M41.968,128.421c-3.471,1.735-11.69,6.217-11.772,6.262l0.679,1.244c0.078-0.042,7.348-4.005,11.065-5.9
		c0.809,1.815,3.151,6.872,5.068,9.002l1.054-0.947c-2.146-2.385-5.096-9.236-5.125-9.306l-0.296-0.69L41.968,128.421z"/>
	<path d="M75.334,203.158l1.403-0.205c-2.956-20.194-1.756-45.608-1.744-45.862l-1.416-0.07
		C73.564,157.276,72.358,182.825,75.334,203.158z"/>
	<polygon points="67.264,192.326 68.307,193.285 74.786,186.306 73.784,185.304 	"/>
	<path d="M63.638,175.968l0.793,1.174c1.571-1.061,9.444-6.435,10.237-8.02l-1.268-0.634
		C72.984,169.323,68.11,172.947,63.638,175.968z"/>
	
		<rect x="66.452" y="149.671" transform="matrix(-0.6783 -0.7348 0.7348 -0.6783 -2.1339 311.6761)" width="1.417" height="13.269"/>
	<path d="M75.643,155.105c0.074,0.157,1.852,3.909,6.378,8.688l1.029-0.975c-4.354-4.597-6.105-8.276-6.123-8.312L75.643,155.105z"
		/>
	<path d="M73.181,170.425c0.196,0.319,4.836,7.861,8.839,12.115l1.031-0.971c-3.902-4.148-8.615-11.808-8.662-11.885L73.181,170.425
		z"/>
	<path d="M116.124,143.809l1.322-0.508c-0.037-0.097-3.694-9.699-3.453-16.471l-1.416-0.051
		C112.325,133.843,115.969,143.406,116.124,143.809z"/>
	<path d="M120.862,174.276c0.045,0.138,4.534,13.837,6.768,19.298l1.313-0.537c-2.215-5.413-6.688-19.064-6.732-19.202
		L120.862,174.276z"/>
	<path d="M115.016,176.073l1.039,0.965c0.342-0.368,3.354-3.636,3.889-4.969l-1.316-0.527
		C118.299,172.363,116.239,174.756,115.016,176.073z"/>
	<rect x="123.2" y="170.972" transform="matrix(-0.9635 -0.2676 0.2676 -0.9635 200.5422 370.696)" width="4.67" height="1.417"/>
</g>
</svg>
