<?xml version="1.0" encoding="iso-8859-1"?>
<!-- Generator: Adobe Illustrator 19.1.0, SVG Export Plug-In . SVG Version: 6.00 Build 0)  -->
<svg version="1.1" id="&#xB808;&#xC774;&#xC5B4;_1" xmlns="http://www.w3.org/2000/svg" xmlns:xlink="http://www.w3.org/1999/xlink"
	 x="0px" y="0px" viewBox="0 0 153.072 238.112" style="enable-background:new 0 0 153.072 238.112;" xml:space="preserve">
<rect style="fill:#E60012;" width="153.072" height="238.112"/>
<g>
	<path style="fill:#FFFFFF;" d="M7.286,87.639L7.119,221.305c0,0,1.167,9.166,9,9.333l41.5,0.167l73.834-7.667l9.5-10.666
		l4.832-9.167l0.168-93.499l-12.334-78.666l11.834-6.167l-0.168-10.666c0,0,0.334-5.833-7.5-6.666l-31-0.5H81.119L26.786,9.972
		l-11,36.833l-4.333,23.5L7.286,87.639z"/>
	<path style="fill:#E60012;" d="M80.703,106.972l1.916,4.167c0,0,7.584,4.916,10.25,6.166c2.666,1.25,9.166,1.917,9.166,1.917v1.416
		c-2.332,4.999-3.332,16-3.332,23.5s2.25,15.75,2.25,15.75l-3.334-1.5c0,0,1.75,19.084,1.834,20.834
		c0.084,1.75,0.332,3.25-1.25,5.833c-1.584,2.583-9.25,6.167-15.334,6.5c-6.085,0.333-20.167-1.083-21.75-1.417
		s-1.417-1.166-1.5-1.666s-0.583-9.25-0.583-9.25s-4.833-1.25-6.5-4.584c-2.033-4.067-1.5-8.249-1.333-9.666
		c0.167-1.417,3.667-17.667,3.917-18.25c0.25-0.583,1.75-12.75,2.583-18.667c0.833-5.916,3.083-10.249,5.583-12.833
		c2.5-2.584,6.084-3.833,6.084-3.833l2.333-6.834c0,0,3.166,2.167,5,1.75c1.834-0.416,2.751-1.583,2.751-1.583L80.703,106.972z
		 M81.91,139.993c3-1,3.688-3.188,3.312-4.312s-1.938-1.75-2.375-1.562s-5.749,1.5-5.749,1.5l-1.562,3.021
		C75.786,139.346,78.91,140.993,81.91,139.993z"/>
	<path style="fill:#FDD000;" d="M76.869,66.722c0,0-5.082,4.083-6.999,7.583c0,0,9.084,2.417,23.416-1.416
		c14.334-3.834,18.5-8.917,18.5-8.917s-5.248-2.167-11.082-3C94.869,60.139,80.451,63.722,76.869,66.722z"/>
	<path style="fill:#005BAC;" d="M100.703,60.972c0,0-12.584-2.333-23.5,5.667c0,0,5.082,3.166,13.666,0.833
		S100.619,61.222,100.703,60.972z"/>
	<path style="fill:#005BAC;" d="M69.786,74.556c0,0-2.333,3-4.166,8.25c0,0,15,2.417,29.666-1.333
		c14.668-3.75,22.334-8.666,25.168-12.333c0,0-5.584-3.917-8.918-5.167c0,0-4.75,6.001-18,8.917S71.702,75.556,69.786,74.556z"/>
	<path style="fill:#FDD000;" d="M101.785,120.889c0,0-2.498,5.751-3.082,16.584c-0.584,10.833,1.5,21.083,1.832,21.833
		c0.334,0.75,0.918,1.001,1.5,0.917c0.584-0.084,1.668-0.834,3.418-7.417c1.75-6.583,1.834-21.584,0-32.499
		C105.453,120.306,103.453,122.055,101.785,120.889z"/>
	<path style="fill:#FDD000;" d="M78.953,140.472l-3.418-1.834c0,0-2.166,4.501-4.25,14.084c-2.083,9.583-1.166,23.166-1.166,23.166
		s2.915-3.333,5.749-11.833C78.703,155.555,79.537,148.139,78.953,140.472z"/>
	<path style="fill:#FDD000;" d="M53.536,217.305c0,0,0.917-3.5,0.833-5s-2.417-5.5-3.167-5.75s-1.583,0.167-2.917,0.75
		c-1.333,0.583-2.25,0.917-3.917,0.75c-1.667-0.167-1.833-0.416-2.25,0.167c-0.417,0.583-1.083,3.75-4.75,4.583
		c-3.667,0.833-7.833-1.333-8.583-1.833s-1-1-1.25-0.417c-0.25,0.583-0.583,1.167-0.583,1.167s-4.416,4.833-5.833,5.583
		s-1.417,1.917-1.417,1.917v0.666l-2.5,0.917c0,0,0.417-1.834-2.5-2.917c0,0,1.167-1.417-0.917-2.5c0,0,0.917-1.249-1.083-2.166
		l3.75-0.584l6.5-4.416l0.917-0.75c0,0-1.417-1.5-1.75-3.5s-0.083-4.917-0.083-4.917s-0.833,0.25-1.667,0.5s-2.667-0.417-4-3.5
		c-1.333-3.083-1.084-4.75-1.917-6.25c-0.833-1.5-2.083-2.749-3-3.333s-1.333-1-1.333-1v-0.75c0,0,1.583,0.416,0.25-2.584
		c0,0,2.166,0.834,2.583-1.333c0,0,1.25,1.25,1.667-0.75c0,0,1.583,1.334,2.167-0.333c0,0,0.167,1.834,0.417,3.25
		s1.417,4.75,3.667,6.083c2.25,1.333,3.166,0.834,2.833-1.333c-0.333-2.167-0.666-2.75-1.333-3.167
		c-0.667-0.417-0.833-0.501-0.833-0.917s0.5-1.166,0.583-1.416s0.667-2.168,1.917-3.084s3.25,0.084,3.75,0.667
		c0.5,0.583,1,0.833,1.083,1.25c0.083,0.417,0.5,0.833,0.5,0.833l1.333,0.5l0.833-1.916c0,0,0.333-3.5-0.5-5.75
		s-2.333-3.667-2.583-3.917s-0.25-1.251-0.167-1.667s1.583-0.916,1.583-0.916l1.5-0.25c0,0,0.5,0.167,0.417,0.5
		c-0.083,0.333,0.917,1.082,1.583,0.166c0,0-0.333,2.166,2,1.5c0,0-0.167,1.667,0,3.667s1,8.417,1,8.417s4.167,1.249,8.667,7.166
		c4.5,5.917,5.333,11,5.333,11s5.667,1.751,7.917,5.834c2.25,4.083,2.583,5,2.583,5l2.667,2.916c0,0-2-1.584-2.667,1.25
		c0,0-1.584-0.667-2.667,2c0,0-1-3.167-2.667-0.5C55.536,216.888,54.869,215.222,53.536,217.305z"/>
	<path style="fill:#005BAC;" d="M7.536,154.805c0,0,8.375,1.625,18.5-0.75s19.375-9.375,29.375-8.75l-3.125,13.5
		c0,0-8.083,2.083-14.5,5.625c-6.416,3.542-19,9.25-30.375,4.125L7.536,154.805z"/>
	<path style="fill:#005BAC;" d="M106.16,149.305c0,0,12.125-0.25,16.375,5s0.125,11-2.125,11.75s-5.375,2.5-6,3.375
		s-0.5,2.625,3.25,3.625s13.25,1.25,16.75,2s10.5,1.375,11.125,6.25l0.5,1.625l-0.5,19.75l-19.375,8.75c0,0-8-2.25-13.375-7.125
		s-3.375-11.75-2.5-12.875s4-2.625,11.625-3.625c0,0,0.25-1.5-1.5-2.75s-6.875-1.125-10-1.625s-7.375-1.5-9.75-4.625
		s0.625-4.75,1.5-5.5s6.875-2.125,7.875-3.125s2.375-2.375,2.125-4.625s-3.5-6.375-8.125-7.75L106.16,149.305z"/>
	<path d="M17.207,6.597c-5.861,0-10.63,4.768-10.63,10.63v203.657c0,5.861,4.768,10.63,10.63,10.63h118.658
		c5.861,0,10.629-4.769,10.629-10.63V17.227c0-5.861-4.768-10.63-10.629-10.63H17.207z M7.994,220.884V17.227
		c0-5.08,4.133-9.213,9.213-9.213h118.658c5.08,0,9.211,4.133,9.211,9.213v203.657c0,5.08-4.131,9.212-9.211,9.212H17.207
		C12.127,230.096,7.994,225.964,7.994,220.884z"/>
	<path d="M85.865,90.765c-10.571,3.319-21.411,4.59-21.52,4.603c-0.311,0.036-0.534,0.317-0.498,0.628
		c0.036,0.311,0.317,0.534,0.628,0.499c0.109-0.013,11.052-1.295,21.729-4.647c0.299-0.094,0.465-0.412,0.371-0.711
		C86.482,90.837,86.164,90.671,85.865,90.765z"/>
	<path d="M79.098,92.458c-0.26,0.172-0.332,0.524-0.16,0.785c0.014,0.021,1.42,2.207,1.656,6.593
		c0.121,2.215-0.764,3.64-1.525,4.444c-0.976,1.031-2.131,1.459-2.533,1.459c-0.577,0-3.533-0.136-5.003-2.83
		c-1.406-2.577-1.184-7.775-1.181-7.827c0.014-0.313-0.228-0.578-0.54-0.593c-0.313-0.014-0.578,0.228-0.593,0.54
		c-0.01,0.226-0.239,5.566,1.319,8.423c1.775,3.255,5.307,3.42,5.998,3.42c0.814,0,2.228-0.623,3.357-1.812
		c0.914-0.966,1.977-2.667,1.834-5.285c-0.256-4.725-1.779-7.062-1.844-7.159C79.709,92.356,79.359,92.286,79.098,92.458z"/>
	<path d="M69.437,95.623c-0.92,0.162-2.593,0.974-2.338,2.883c0.119,0.89,0.554,1.316,0.897,1.517c0.849,0.496,1.885,0.106,2,0.06
		c0.29-0.116,0.43-0.443,0.315-0.733c-0.114-0.291-0.443-0.433-0.734-0.32c-0.162,0.063-0.696,0.2-1.012,0.014
		c-0.182-0.107-0.297-0.338-0.343-0.687c-0.171-1.285,1.251-1.587,1.414-1.618c0.307-0.057,0.511-0.352,0.456-0.658
		C70.037,95.773,69.745,95.568,69.437,95.623z"/>
	<path d="M80.248,93.865c-0.312,0.021-0.547,0.29-0.527,0.602c0.02,0.312,0.289,0.549,0.602,0.53
		c0.385-0.024,1.547,0.047,1.82,0.665c0.039,0.089,0.082,0.235-0.012,0.463c-0.227,0.562-1.041,1.124-1.432,1.28
		c-0.289,0.116-0.432,0.446-0.315,0.737c0.115,0.291,0.445,0.432,0.736,0.316c0.502-0.201,1.664-0.93,2.061-1.905
		c0.188-0.459,0.185-0.927-0.004-1.352C82.525,93.73,80.34,93.859,80.248,93.865z"/>
	<path d="M72.233,98.084c-0.122,0.098-0.142,0.276-0.044,0.398c0.098,0.122,0.276,0.142,0.398,0.044
		c0.448-0.358,1.648-0.438,2.073-0.438c0.156,0,0.283-0.127,0.283-0.283c0-0.157-0.127-0.283-0.283-0.283
		C74.484,97.522,72.916,97.538,72.233,98.084z"/>
	<path d="M77.096,97.292c-0.146,0.058-0.216,0.223-0.158,0.369c0.059,0.145,0.224,0.216,0.369,0.158
		c0.447-0.179,1.388-0.05,1.714,0.015c0.152,0.031,0.303-0.069,0.334-0.222c0.029-0.154-0.07-0.303-0.223-0.334
		C78.996,97.25,77.78,97.019,77.096,97.292z"/>
	<path d="M76.656,100.619c-0.383,0.438-0.856,0.115-0.947,0.046c-0.124-0.094-0.302-0.071-0.396,0.052
		c-0.096,0.123-0.073,0.3,0.05,0.396c0.332,0.258,1.119,0.566,1.72-0.12c0.104-0.118,0.092-0.297-0.026-0.4
		C76.938,100.489,76.758,100.501,76.656,100.619z"/>
	<path d="M77.467,102.697c-0.52,0.129-1.991,0.158-2.515,0.158c-0.156,0-0.283,0.127-0.283,0.284c0,0.157,0.127,0.284,0.283,0.284
		c0.08,0,1.959-0.003,2.651-0.176c0.152-0.038,0.244-0.191,0.207-0.344C77.773,102.751,77.619,102.659,77.467,102.697z"/>
	<path d="M74.306,94.946c-0.2,0.045-1.961,0.465-2.427,1.209c-0.083,0.133-0.042,0.307,0.09,0.391
		c0.133,0.083,0.307,0.043,0.391-0.09c0.258-0.412,1.408-0.806,2.072-0.958c0.153-0.035,0.249-0.187,0.214-0.339
		C74.61,95.007,74.458,94.911,74.306,94.946z"/>
	<path d="M77.431,94.523c-0.156,0.012-0.273,0.148-0.261,0.305c0.012,0.156,0.148,0.272,0.304,0.261
		c1.063-0.082,2.108-0.041,2.284,0.088c0.119,0.089,0.299,0.082,0.397-0.03c0.098-0.112,0.103-0.27-0.002-0.375
		C79.783,94.401,78.289,94.457,77.431,94.523z"/>
	<path d="M68.952,95.139c0,0-0.834-4.417,0.75-6.75c1.583-2.334,7.187-3.147,9.251-0.334c1.832,2.5,1.582,4.667,1.582,4.667
		S73.869,94.306,68.952,95.139z"/>
	<path d="M69.115,110.401c-0.056,0.343-0.204,0.707-0.333,0.772c0.001-0.001-0.244,0.093-0.244,0.093
		c-4.207,1.558-7.159,4.272-8.774,8.067c-2.226,5.23-2.589,7.881-2.91,10.221l-0.129,0.916l-0.57,4.756
		c-0.423,3.755-0.949,8.428-1.427,10.974l-1.321,5.913c-1.104,4.719-2.478,10.592-2.812,14.012c-0.067,0.686-0.1,1.347-0.1,1.983
		c0,5.55,2.563,9.261,7.753,11.327c0.296,3.565,0.714,8.676,0.72,8.997c0,0.001,0,0.003,0,0.004c0,0.411,0.004,1.494,1.219,2.015
		c0.742,0.317,2.616,0.53,3.531,0.62c0,0.247,0,0.36,0,0.51c-0.338,0.364-1.121,1.28-1.244,2.144
		c-0.006,0.044-0.01,0.089-0.01,0.135c0,1.363,2.799,3.396,8.195,4.623c5.607,1.274,10.037,0.17,10.855-0.485
		c0.383-0.306,0.613-0.833,0.648-1.484c0.004-0.058,0.006-0.116,0.006-0.174c0-0.823-0.322-1.648-0.859-2.185
		c-0.814-0.816-2.757-0.987-3.742-1.025c-0.021-0.338-0.031-0.512-0.055-0.884c1.109-0.004,3.513-0.018,4.851-0.085
		c0.057,0.983,0.412,2.889,2.367,4.124c2.496,1.575,8.367,2.114,11.424,1.449c1.875-0.407,2.709-1.335,3.078-2.041
		c0.447-0.857,0.475-1.898,0.074-2.855c-0.701-1.685-3.18-1.738-3.793-1.727c-0.4-0.164-2.125-0.862-2.744-0.986
		c-0.076-0.033-0.191-0.261-0.295-0.527c1.373-0.687,5.568-2.933,6.695-5.298c0.742-1.557,0.904-2.601,0.904-3.412
		c0-0.342-0.029-0.642-0.055-0.922l-0.043-0.66c0-1.141-0.646-14.234-1.758-19.962c1.1,0.551,2.705,1.353,2.705,1.353
		c0.522,0.237,1.033,0.254,1.518,0.05c0.984-0.416,1.781-1.683,2.75-4.373c1.301-3.613,3.588-20.318,1.027-36.531l-1.119,0.178
		c2.697,17.087-0.033,33.354-0.975,35.968c-0.295,0.821-1.195,3.32-2.125,3.713c-0.127,0.054-0.311,0.098-0.607-0.036l-4.84-2.422
		l0.309,1.207c1.221,4.64,1.98,19.689,1.98,20.855l0.049,0.769c0.082,0.849,0.174,1.81-0.744,3.737
		c-1.146,2.411-6.549,4.955-6.604,4.98l-0.402,0.189l0.088,0.436c0.053,0.271,0.371,1.63,1.318,1.819
		c0.416,0.083,1.844,0.639,2.646,0.969l0.115,0.047l0.125-0.005c0.611-0.026,2.443,0.106,2.826,1.026
		c0.27,0.647,0.258,1.338-0.033,1.895c-0.367,0.705-1.168,1.21-2.312,1.459c-2.768,0.602-8.395,0.079-10.578-1.301
		c-2.041-1.289-1.871-3.622-1.863-3.722l0.057-0.679l-0.678,0.065c-1.207,0.121-5.896,0.122-5.943,0.123h-0.604l0.196,3.133
		l0.532,0.001c1.148,0,2.986,0.221,3.474,0.708c0.348,0.349,0.553,0.936,0.522,1.495c-0.018,0.348-0.127,0.583-0.225,0.662
		c-0.422,0.33-4.501,1.49-9.896,0.265c-5.461-1.241-7.284-3.094-7.314-3.507c0.07-0.483,0.706-1.28,1.089-1.665l0.165-0.166
		l0.001-2.006l-0.52-0.043c-1.125-0.095-3.123-0.335-3.699-0.582c-0.492-0.211-0.531-0.553-0.531-0.979
		c0-0.379-0.627-7.915-0.752-9.422l-0.03-0.357l-0.336-0.127c-5.567-2.087-7.874-5.992-7.26-12.289
		c0.326-3.344,1.691-9.177,2.787-13.863l1.331-5.962c0.485-2.587,1.014-7.283,1.44-11.056l0.564-4.715l0.131-0.93
		c0.311-2.27,0.663-4.842,2.83-9.932c1.488-3.497,4.222-6.003,8.125-7.447l0.357-0.143c0.729-0.364,0.905-1.356,0.933-1.552
		c-0.016,0.074,1.859-6.551,1.859-6.551l-1.091-0.309L69.115,110.401z"/>
	<path d="M106.643,113.197c-0.201,0.076-0.297,0.107-0.451,0.063c-0.795-0.228-2.283-0.227-3.307,2.334
		c-0.756,1.889-1.373,4.344-1.398,4.448l-0.01,0.037l-0.004,0.038c-0.01,0.079-0.072,0.784,0.402,1.26
		c0.207,0.206,0.586,0.437,1.223,0.366c1.295-0.144,3.559-1.499,4.369-2.444c0.852-0.993,1.844-4.04,0.916-5.434
		C107.73,112.888,107.143,113.008,106.643,113.197z M107.043,114.257c0,0,0.113-0.037,0.148-0.049
		c0.023,0.026,0.248,0.287,0.248,0.287c0.133,0.2,0.189,0.503,0.189,0.859c0,1.072-0.516,2.615-1.023,3.207
		c-0.703,0.819-2.705,1.953-3.633,2.056c-0.143,0.016-0.254,0.001-0.295-0.04c-0.055-0.055-0.08-0.195-0.08-0.297
		c0-0.004,0-0.008,0-0.012c0.041-0.157,0.633-2.488,1.34-4.252c0.529-1.322,1.182-1.882,1.941-1.666
		C106.402,114.5,106.787,114.354,107.043,114.257z"/>
	<path d="M79.1,105.043c0.412,0.494,1.848,3.999,2.656,6.091l0.059,0.152l0.131,0.098c0.51,0.382,9.318,5.927,12.654,7.082
		c3.287,1.137,7.356,1.395,7.527,1.404l0.068-1.131c-0.041-0.003-4.088-0.26-7.225-1.346c-3.066-1.061-11.305-6.207-12.221-6.836
		c-0.457-1.178-2.154-5.491-2.779-6.241L79.1,105.043z"/>
	<path d="M87.506,114.353c-0.033,0.086-3.281,8.617-4.402,14.598c-0.059,0.308,0.145,0.604,0.453,0.662
		c0.307,0.058,0.603-0.145,0.662-0.453c1.102-5.879,4.314-14.317,4.346-14.401c0.113-0.293-0.033-0.621-0.326-0.732
		C87.945,113.915,87.617,114.061,87.506,114.353z"/>
	<path d="M91.883,116.975c-0.031,0.081-3.164,8.178-3.787,16.79c-0.023,0.312,0.211,0.584,0.523,0.606
		c0.312,0.023,0.584-0.212,0.607-0.524c0.611-8.435,3.682-16.38,3.713-16.459c0.113-0.291-0.031-0.62-0.322-0.734
		C92.326,116.539,91.996,116.683,91.883,116.975z"/>
	<path d="M95.871,118.505c-0.022,0.065-2.15,6.639-2.65,13.132c-0.5,6.5,0.467,11.682,0.508,11.899
		c0.058,0.308,0.355,0.509,0.662,0.45c0.309-0.059,0.51-0.355,0.451-0.662c-0.01-0.053-0.978-5.259-0.49-11.601
		c0.488-6.355,2.576-12.803,2.598-12.868c0.098-0.297-0.065-0.617-0.363-0.715C96.289,118.045,95.969,118.207,95.871,118.505z"/>
	<path d="M101.521,119.943c-0.125,0.27-3.053,6.747-3.303,18.975c-0.244,11.989,1.647,20.592,2.506,21.625
		c0.195,0.234,0.533,0.259,0.774,0.072c0.242-0.188,0.281-0.546,0.101-0.793c-0.439-0.61-2.504-8.306-2.248-20.881
		c0.244-11.966,3.17-18.459,3.199-18.524c0.131-0.284,0.006-0.621-0.277-0.752C101.988,119.535,101.65,119.658,101.521,119.943z"/>
	<path d="M65.139,136.933c-0.275,0.149-0.375,0.494-0.226,0.77c0.15,0.274,0.495,0.375,0.77,0.225
		c6.017-3.29,9.483-2.634,10.674-2.22c-0.897,1.652-3.573,7.087-5.254,16.119c-0.739,3.975-1.562,10.546-1.562,20.099
		c0,1.232,0.014,2.515,0.043,3.848l0.019,1.023l0.535,0.172c1.35,0.169,5.304-8.4,7.822-18.272
		c3.128-12.261,1.562-17.82,1.496-18.051c-0.09-0.3-0.404-0.471-0.703-0.383c-0.248,0.072-0.408,0.299-0.408,0.544
		c0,0.053,0.007,0.105,0.022,0.158c0.008,0.027,0.391,1.418,0.391,4.297c0,2.867-0.38,7.212-1.897,13.153
		c-2.226,8.728-4.857,14.221-6.154,16.408c-0.017-0.986-0.032-1.972-0.032-2.901c0-9.464,0.813-15.961,1.544-19.888
		c1.954-10.505,5.393-16.252,5.427-16.309l0.289-0.476l-0.47-0.298C77.299,134.847,73.337,132.449,65.139,136.933z"/>
	<path d="M83.455,133.619c-0.494,0.071-6.35,1.315-7.07,2.036c-0.21,0.209-0.2,0.525-0.008,0.75c0.193,0.226,0.549,0.245,0.788,0.07
		c0.554-0.405,5.442-1.59,6.45-1.733c0.111-0.017,0.334,0.083,0.559,0.337c0.344,0.39,0.613,1.067,0.439,1.702
		c-0.314,1.154-2.262,2.973-4.481,3.083c-2.208,0.11-3.93-1.568-3.947-1.585c-0.223-0.221-0.581-0.22-0.802,0.002
		c-0.221,0.222-0.221,0.579,0.001,0.8c0.083,0.084,2.084,2.052,4.804,1.916c2.795-0.14,5.098-2.376,5.518-3.917
		c0.25-0.917-0.018-1.997-0.684-2.751C84.559,133.801,83.986,133.544,83.455,133.619z"/>
	<path d="M64.886,126.59c-0.119,0.289,0.019,0.62,0.309,0.739c4.616,1.894,7.431,7.424,7.458,7.48
		c0.141,0.279,0.481,0.393,0.761,0.253c0.279-0.14,0.394-0.48,0.253-0.761c-0.121-0.242-3.027-5.964-8.041-8.021
		C65.336,126.162,65.005,126.3,64.886,126.59z"/>
	<path d="M68.438,121.368c-0.172,0.262-0.101,0.613,0.161,0.786c5.633,3.714,8.615,13.344,8.645,13.441
		c0.091,0.3,0.407,0.469,0.707,0.377c0.3-0.091,0.469-0.407,0.377-0.707c-0.124-0.411-3.128-10.116-9.105-14.058
		C68.961,121.035,68.61,121.106,68.438,121.368z"/>
	<path d="M78.889,143.526c-0.225,0.22-0.227,0.578-0.008,0.802c7.336,7.46,18.736,14.758,18.85,14.831
		c0.264,0.168,0.615,0.09,0.783-0.174c0.168-0.264,0.09-0.614-0.174-0.783c-0.113-0.071-11.406-7.303-18.65-14.669
		C79.471,143.309,79.111,143.306,78.889,143.526z"/>
	<path d="M69.648,176.063c-1.913,4.051-10.669,2.452-10.757,2.436c-0.308-0.059-0.604,0.144-0.662,0.451
		c-0.058,0.308,0.144,0.605,0.452,0.662c0.396,0.075,9.707,1.776,11.993-3.064c0.134-0.283,0.013-0.621-0.271-0.755
		C70.12,175.659,69.782,175.78,69.648,176.063z"/>
	<path d="M79.039,145.419c-0.281,0.136-0.4,0.475-0.264,0.757c0.033,0.072,3.471,7.305,4.57,18.435
		c1.109,11.202,0.629,22.556,0.623,22.67l-0.004,0.093l0.902,3.091c0.086,0.3,0.402,0.473,0.703,0.385
		c0.246-0.072,0.408-0.298,0.408-0.544c0-0.053-0.008-0.105-0.023-0.159c0,0-0.801-2.745-0.85-2.911
		c0.012-0.279,0.105-2.656,0.105-6.274c0-4.364-0.141-10.434-0.736-16.461c-1.121-11.344-4.642-18.742-4.678-18.815
		C79.66,145.402,79.322,145.284,79.039,145.419z"/>
	<path d="M63.221,190.499c-0.03,0.312,0.197,0.589,0.509,0.62c0.089,0.009,8.951,0.879,14.279,1.127
		c0.312,0.015,0.579-0.227,0.592-0.54c0.016-0.312-0.227-0.578-0.54-0.593c-5.299-0.246-14.132-1.114-14.221-1.123
		C63.53,189.96,63.252,190.188,63.221,190.499z"/>
	<path d="M92.018,188.556c-3.121,1.68-9.738,2.553-9.805,2.561c-0.311,0.041-0.529,0.325-0.49,0.636
		c0.041,0.311,0.326,0.529,0.637,0.489c0.279-0.036,6.891-0.909,10.195-2.688c0.275-0.148,0.379-0.492,0.23-0.768
		C92.637,188.51,92.293,188.408,92.018,188.556z"/>
	<path d="M63.912,191.381c-0.234,0.206-0.259,0.561-0.054,0.796c0.074,0.085,1.855,2.081,6.341,2.771
		c4.487,0.69,7.187-0.924,7.299-0.993c0.267-0.163,0.35-0.511,0.188-0.777s-0.511-0.352-0.778-0.19
		c-0.024,0.015-2.485,1.464-6.536,0.84c-4.038-0.621-5.645-2.38-5.661-2.398C64.504,191.198,64.146,191.175,63.912,191.381z"/>
	<path d="M83.432,190.893c-0.272,0.148-0.375,0.487-0.229,0.762c0.06,0.114,1.547,2.797,6.656,2.884
		c3.537,0.062,5.023-0.798,5.648-1.529c0.313-0.367,0.483-0.79,0.483-1.19c0-0.047-0.008-0.092-0.014-0.138
		c0,0.27-0.193,0.509-0.467,0.558c-0.309,0.054-0.603-0.151-0.658-0.46c0.014,0.077-0.014,0.268-0.207,0.494
		c-0.307,0.359-1.387,1.19-4.766,1.133c-4.393-0.076-5.629-2.198-5.678-2.289C84.049,190.845,83.705,190.744,83.432,190.893z
		 M95.977,191.681h0.002c0-0.033-0.004-0.066-0.01-0.1C95.975,191.614,95.975,191.648,95.977,191.681z"/>
	<path d="M81.896,110.162c-2.398,1.539-5.058,3.186-5.647,3.464c-0.647-0.198-3.777-1.444-6.582-2.595
		c-0.29-0.119-0.621,0.02-0.74,0.309c-0.119,0.29,0.02,0.621,0.309,0.74c6.604,2.709,6.916,2.709,7.049,2.709
		c0.199,0,0.499,0,6.222-3.673c0.264-0.169,0.342-0.52,0.172-0.783C82.51,110.069,82.16,109.993,81.896,110.162z"/>
	<path d="M76.106,105.989c-0.312,0.007-0.561,0.266-0.554,0.579l0.167,7.667c0.007,0.313,0.266,0.562,0.579,0.555
		c0.312-0.007,0.56-0.266,0.554-0.579l-0.167-7.667C76.678,106.23,76.419,105.982,76.106,105.989z"/>
	<path d="M80.484,107.242c-1.968,1.239-4.145,1.934-4.539,2.054c-0.312-0.091-5.251-1.535-5.251-1.535
		c-0.301-0.088-0.615,0.085-0.703,0.385c-0.088,0.301,0.084,0.615,0.385,0.703l5.575,1.63l0.159-0.046
		c0.108-0.032,2.686-0.789,4.977-2.231c0.266-0.167,0.344-0.517,0.178-0.782C81.098,107.155,80.748,107.076,80.484,107.242z"/>
	<path d="M94.881,81.385c-0.301,0.086-0.477,0.399-0.391,0.701l9.168,32.208c0.084,0.301,0.398,0.476,0.699,0.39
		c0.301-0.086,0.477-0.399,0.391-0.701L95.58,81.775C95.496,81.474,95.182,81.3,94.881,81.385z"/>
	<path d="M88.281,61.128c-19.38,4.531-23.017,21.519-23.051,21.691l-0.112,0.554l0.554,0.113c0.111,0.022,11.322,2.231,29.475-1.374
		c18.238-3.623,25.404-12.086,25.701-12.445l0.336-0.408l-0.383-0.364C120.672,68.771,107.605,56.611,88.281,61.128z M88.539,62.233
		c16.828-3.934,28.738,5.157,31.06,7.116c-1.676,1.73-9.113,8.56-24.674,11.65c-15.611,3.101-25.964,1.86-28.438,1.475
		C67.271,79.617,71.808,66.144,88.539,62.233z"/>
	<path d="M100.246,61.131c-0.012,0.038-1.344,3.743-9.717,5.748c-8.531,2.043-13.433-0.427-13.481-0.451
		c-0.278-0.144-0.62-0.037-0.765,0.24c-0.145,0.277-0.038,0.619,0.238,0.764c0.212,0.111,5.293,2.699,14.271,0.549
		c9.084-2.175,10.479-6.332,10.533-6.507c0.094-0.296-0.07-0.61-0.367-0.705C100.664,60.673,100.346,60.836,100.246,61.131z"/>
	<path d="M111.088,63.709c-0.041,0.052-4.236,5.273-18.311,8.67c-14.18,3.423-23.03,1.518-23.118,1.498
		c-0.305-0.068-0.608,0.124-0.677,0.429c-0.069,0.305,0.123,0.608,0.428,0.677c0.368,0.083,9.171,1.989,23.632-1.502
		c14.529-3.507,18.77-8.855,18.943-9.081c0.189-0.248,0.143-0.602-0.105-0.793C111.635,63.417,111.279,63.462,111.088,63.709z"/>
	<rect x="76.469" y="67.345" transform="matrix(-0.859 -0.5121 0.5121 -0.859 106.5975 172.3492)" width="1.135" height="8.297"/>
	<rect x="80.406" y="68.136" transform="matrix(-0.9505 -0.3108 0.3108 -0.9505 135.6932 164.7354)" width="1.134" height="6.839"/>
	<rect x="83.282" y="68.171" transform="matrix(-0.9593 -0.2824 0.2824 -0.9593 144.0915 163.7573)" width="1.134" height="6.645"/>
	<rect x="86.218" y="68.137" transform="matrix(-0.9852 -0.1713 0.1713 -0.9852 160.1119 155.9307)" width="1.134" height="5.836"/>
	<rect x="89.343" y="67.803" transform="matrix(-0.999 -0.0457 0.0457 -0.999 176.5044 145.1439)" width="1.134" height="5.506"/>
	<rect x="90.077" y="69.426" transform="matrix(-0.2375 -0.9714 0.9714 -0.2375 47.0581 176.9268)" width="5.791" height="1.134"/>
	<rect x="93.457" y="68.239" transform="matrix(-0.5595 -0.8288 0.8288 -0.5595 93.4185 187.2627)" width="6.032" height="1.134"/>
	<rect x="95.692" y="67.114" transform="matrix(-0.679 -0.7341 0.7341 -0.679 116.7049 186.3862)" width="6.811" height="1.133"/>
	<rect x="97.843" y="65.739" transform="matrix(-0.8272 -0.5619 0.5619 -0.8272 148.8418 178.3813)" width="8.009" height="1.133"/>
	<rect x="99.64" y="64.176" transform="matrix(-0.855 -0.5186 0.5186 -0.855 159.5274 174.086)" width="8.918" height="1.134"/>
	<rect x="87.697" y="59.676" transform="matrix(-0.206 -0.9785 0.9785 -0.206 48.2757 159.657)" width="2.427" height="1.134"/>
	<path d="M95.689,84.203c-0.764-0.354-4.666-2.162-4.666-2.162l-0.477,1.029l5.586,2.588l2.762-4.559l-0.969-0.588
		C97.926,80.512,96.109,83.508,95.689,84.203z"/>
	<path d="M97.08,88.567c-0.854-0.431-11.664-5.892-11.664-5.892l-0.512,1.012l12.586,6.358l6.4-10.187l-0.961-0.604
		C102.93,79.254,97.582,87.769,97.08,88.567z"/>
	<path d="M14.473,179.52c-0.295,0.104-0.451,0.427-0.348,0.723l0.875,2.5c0.104,0.295,0.427,0.451,0.723,0.348
		c0.295-0.104,0.451-0.427,0.348-0.723l-0.875-2.5C15.092,179.573,14.769,179.416,14.473,179.52z"/>
	<path d="M12.543,180.292c-0.283,0.135-0.404,0.473-0.269,0.756l1.125,2.375c0.134,0.282,0.472,0.403,0.755,0.27
		c0.283-0.135,0.404-0.473,0.269-0.755l-1.125-2.375C13.164,180.28,12.826,180.159,12.543,180.292z"/>
	<path d="M10.208,181.217c-0.255,0.181-0.316,0.534-0.136,0.79l1.5,2.125c0.181,0.256,0.535,0.316,0.79,0.136
		c0.255-0.181,0.316-0.534,0.136-0.79l-1.5-2.125C10.818,181.097,10.464,181.037,10.208,181.217z"/>
	<path d="M10.109,185.152c-0.191,0.248-0.541,0.298-0.789,0.106l2.728,2.107c0.642,0.535,1.973,2.553,2.356,3.318l0.33,1.314
		c0.447,2.011,1.195,5.377,2.776,6.957c1.532,1.533,3.033,1.445,4.039,0.98c0.072,0.974,0.17,2.512,0.17,3.745
		c0,2.162,1.2,3.686,1.916,4.4c0.221,0.222,0.58,0.222,0.802,0c0.221-0.221,0.222-0.58,0-0.801c-0.723-0.723-1.584-1.934-1.584-3.6
		c0-2.003-0.242-4.688-0.253-4.802l-0.109-1.205l-0.856,0.856c-0.018,0.018-0.447,0.44-1.136,0.543
		c-0.733,0.109-1.469-0.2-2.188-0.918c-1.348-1.348-2.05-4.512-2.471-6.402l-0.423-1.576c-0.376-0.752-1.801-2.98-2.644-3.682
		l-2.773-2.142C10.249,184.544,10.301,184.904,10.109,185.152z"/>
	<path d="M25.375,206.865c-0.528,0.032-2.298,0.199-2.908,0.961c-0.419,0.524-5.17,3.96-5.686,4.223
		c-0.315,0.12-2.334,0.259-4.015,0.315c-0.313,0.01-0.558,0.272-0.547,0.585c0.01,0.313,0.272,0.559,0.585,0.548
		c1.447-0.048,3.953-0.169,4.484-0.435c0.537-0.269,5.496-3.817,6.065-4.527c0.201-0.252,1.265-0.486,2.093-0.539
		c0.312-0.02,0.55-0.289,0.53-0.601C25.957,207.082,25.688,206.845,25.375,206.865z"/>
	<path d="M16.516,213.182l-3,1.625c-0.275,0.148-0.377,0.493-0.229,0.768c0.149,0.275,0.493,0.378,0.769,0.229l3-1.625
		c0.275-0.148,0.377-0.493,0.228-0.768C17.135,213.135,16.791,213.033,16.516,213.182z"/>
	<path d="M17.363,215.198l-3.25,2c-0.267,0.164-0.35,0.513-0.186,0.779c0.164,0.267,0.513,0.35,0.78,0.185l3.25-2
		c0.267-0.164,0.35-0.513,0.186-0.779C17.979,215.117,17.63,215.034,17.363,215.198z"/>
	<path d="M18.694,216.983l-2.25,3.25c-0.178,0.257-0.114,0.61,0.144,0.788c0.257,0.179,0.61,0.114,0.789-0.144l2.25-3.25
		c0.178-0.257,0.114-0.61-0.144-0.788C19.226,216.661,18.873,216.725,18.694,216.983z"/>
	<path d="M47.798,206.931l-0.239,0.104c-1.807,0.791-5.121,0.098-5.154,0.09l-0.523-0.111l-0.142,0.517
		c-0.003,0.013-0.362,1.304-1.05,2.335c-0.674,1.012-3.59,3.205-6.804,2.631c-2.935-0.523-4.644-1.949-5.374-2.559l-0.261-0.211
		c-0.331-0.248-0.61-0.217-0.787-0.148c-0.422,0.167-0.5,0.61-0.57,1.002l-0.116,0.47c-0.307,0.518-4.519,5.085-6.04,6.021
		c-1.607,0.988-1.588,2.357-1.354,2.943c0.115,0.286,0.435,0.422,0.724,0.313c0.227-0.085,0.366-0.304,0.366-0.534
		c0-0.063-0.011-0.128-0.033-0.19c-0.009-0.027-0.039-0.122-0.039-0.261c0-0.304,0.14-0.819,0.93-1.307
		c1.72-1.058,6.144-5.848,6.46-6.478c0,0,0.112-0.401,0.171-0.609c0.819,0.677,2.677,2.12,5.723,2.664
		c3.66,0.653,7.033-1.749,7.946-3.119c0.525-0.788,0.858-1.643,1.038-2.17c1.061,0.178,3.632,0.498,5.342-0.25l0.241-0.105
		c1.898-0.833,2.475-1.044,3.131-0.389c0.851,0.852,1.966,3.692,2.223,4.848c0.162,0.727-0.297,3.222-0.624,4.623
		c-0.071,0.305,0.119,0.609,0.423,0.681c0.305,0.071,0.61-0.118,0.681-0.423c0.092-0.397,0.896-3.911,0.626-5.127
		c-0.246-1.105-1.402-4.277-2.527-5.402C50.954,205.546,49.698,206.097,47.798,206.931z"/>
	<path d="M55.434,212.498l-0.482,0.088l0.143,3.99c0.011,0.312,0.274,0.558,0.586,0.546c0.306-0.011,0.547-0.263,0.547-0.566
		c0-0.007-0.073-2.057-0.103-2.898c0.321,0.084,0.73,0.304,1.029,0.902c0.402,0.805,0.479,1.531,0.479,1.966
		c0,0.263-0.027,0.419-0.028,0.423c-0.006,0.035-0.01,0.07-0.01,0.104c0,0.267,0.188,0.505,0.459,0.558
		c0.306,0.06,0.602-0.138,0.663-0.443c0.012-0.059,0.279-1.46-0.549-3.115C57.424,212.564,56.055,212.384,55.434,212.498z"/>
	<path d="M59.057,211.287c-0.287,0.126-0.417,0.46-0.291,0.747l1.375,3.125c0.126,0.286,0.461,0.416,0.748,0.29
		c0.286-0.126,0.417-0.46,0.291-0.747l-1.375-3.125C59.678,211.29,59.344,211.161,59.057,211.287z"/>
	<path d="M60.499,211.165c-0.215,0.228-0.206,0.586,0.022,0.801l2.375,2.25c0.227,0.216,0.586,0.206,0.801-0.021
		c0.215-0.227,0.206-0.586-0.022-0.801l-2.375-2.25C61.073,210.928,60.714,210.938,60.499,211.165z"/>
	<path d="M34.982,173.143c-0.297,0.099-0.458,0.419-0.359,0.717c0.151,0.454,0.679,4.786,1.1,8.632l0.038,0.352l0.333,0.12
		c0.047,0.018,4.772,1.766,8.49,6.684c3.76,4.973,5.389,10.873,5.405,10.932l0.09,0.332l0.338,0.074
		c0.022,0.005,2.285,0.523,5.235,3.237c2.966,2.729,3.959,5.727,3.969,5.757c0.096,0.298,0.415,0.461,0.713,0.365
		c0.241-0.077,0.394-0.3,0.394-0.539c0-0.058-0.009-0.115-0.027-0.173c-0.043-0.134-1.083-3.302-4.281-6.244
		c-2.649-2.438-4.706-3.199-5.425-3.413c-0.375-1.269-2.042-6.43-5.506-11.012c-3.403-4.501-7.499-6.442-8.676-6.933
		c-0.201-1.819-0.872-7.806-1.113-8.53C35.6,173.204,35.279,173.044,34.982,173.143z"/>
	<path d="M34.814,169.991l-1.61,2.23c0.183-0.254,0.535-0.308,0.789-0.125c0.254,0.184,0.309,0.541,0.125,0.795l1.64-2.271
		c0.183-0.254,0.114-0.591-0.14-0.774C35.364,169.663,34.997,169.737,34.814,169.991z"/>
	<path d="M32.986,168.792l-0.975,2.547c0.112-0.292,0.434-0.425,0.726-0.314c0.292,0.111,0.434,0.453,0.323,0.745l1.025-2.703
		c0.111-0.293-0.056-0.556-0.348-0.667C33.445,168.29,33.097,168.5,32.986,168.792z"/>
	<path d="M31.344,168.305c0,0.353-0.532,1.34-1.024,2.053c-0.178,0.257-0.114,0.61,0.144,0.788c0.257,0.179,0.61,0.114,0.789-0.143
		c0.205-0.295,1.226-1.815,1.226-2.697c0-0.313-0.254-0.567-0.567-0.567C31.598,167.738,31.344,167.992,31.344,168.305z"/>
	<path d="M28.885,167.78c-0.538,0.538-1.236,1.527-1.236,2.489c0,0.336,0.084,0.667,0.29,0.975l0.703,0.871
		c0.943,1.084,2.236,2.567,2.327,5.209c0.009,0.27,0.013,0.527,0.013,0.775c0,1.963-0.262,3.2-0.438,3.837
		c-0.447-0.167-0.797-0.299-1.103-0.413c-0.059-0.438-0.232-1.078-0.777-1.35c0-0.001-0.269-0.306-0.269-0.306
		c-0.374-0.475-0.938-1.191-2.232-1.49c-1.927-0.444-3.692,0.977-4.285,2.609c0,0-0.413,1.134-0.468,1.287
		c-0.312,0.281-0.66,0.717-0.66,1.278c0,0.202,0.045,0.414,0.154,0.632c0.27,0.54,0.718,0.829,1.078,1.061
		c0.248,0.16,0.461,0.299,0.568,0.477c0.259,0.431,0.615,1.541,0.615,2.393c0,0.347-0.059,0.651-0.207,0.85
		c-0.14,0.187-0.314,0.271-0.547,0.269c-0.529-0.008-1.44-0.506-2.411-1.881c-1.333-1.888-2.265-4.406-2.4-4.783
		c-0.007-0.165-0.122-3.037-0.122-3.037c-0.013-0.313-0.276-0.557-0.589-0.544c-0.313,0.013-0.557,0.276-0.544,0.589l0.128,3.209
		l0.027,0.08c0.042,0.12,1.044,2.975,2.572,5.141c1.048,1.484,2.259,2.345,3.321,2.36c0.593,0.008,1.115-0.248,1.471-0.723
		c0.998-1.33,0.023-3.899-0.342-4.507c-0.242-0.403-0.605-0.638-0.925-0.845c-0.294-0.19-0.548-0.354-0.68-0.617
		c-0.15-0.3,0.321-0.658,0.326-0.662l0.138-0.102l0.062-0.164l0.5-1.375c0.416-1.143,1.667-2.19,2.965-1.891
		c0.905,0.209,1.272,0.675,1.596,1.086l0.653,0.618c0.08,0.059,0.184,0.415,0.186,0.745l0.002,0.39l2.872,1.079l0.213-0.497
		c0.033-0.076,0.798-1.909,0.67-5.618c-0.105-3.044-1.609-4.771-2.605-5.914l-0.615-0.756c-0.399-0.598,0.469-1.697,0.805-2.035
		c0.221-0.222,0.22-0.581-0.001-0.802C29.464,167.558,29.106,167.558,28.885,167.78z"/>
	<path d="M28.346,186.333c-0.261,0.174-0.331,0.525-0.157,0.786c0.04,0.06,4,6.003,4.857,7.471c-0.158-0.27-0.066-0.617,0.204-0.774
		c0.271-0.158,0.618-0.066,0.775,0.204c-0.874-1.498-4.729-7.284-4.893-7.529C28.958,186.23,28.607,186.16,28.346,186.333z"/>
	<path d="M35.932,199.362c-0.245,0.195-0.285,0.552-0.09,0.797l6.375,8c0.195,0.245,0.552,0.285,0.797,0.09
		c0.245-0.195,0.285-0.552,0.09-0.797l-6.375-8C36.534,199.207,36.177,199.166,35.932,199.362z"/>
	<path d="M55.265,144.472c-7.691,0.224-14.38,3.03-20.282,5.506c-4.163,1.746-8.096,3.396-11.933,4.002
		c-9.24,1.459-15.553,0.146-15.616,0.133c-0.382-0.082-0.759,0.161-0.841,0.544c-0.083,0.382,0.161,0.759,0.543,0.841
		c0.266,0.058,6.614,1.386,16.135-0.117c4.007-0.633,8.016-2.314,12.261-4.096c6.07-2.547,12.347-5.18,19.774-5.396
		c0.391-0.011,0.699-0.337,0.688-0.729C55.982,144.768,55.656,144.46,55.265,144.472z"/>
	<path d="M54.016,150.972c-8.142,0.224-13.9,3.15-19.468,5.979c-3.818,1.941-7.425,3.774-11.517,4.531
		c-9.767,1.809-15.304-0.314-15.359-0.336c-0.363-0.144-0.775,0.033-0.919,0.396c-0.145,0.363,0.032,0.774,0.395,0.92
		c0.237,0.095,5.933,2.305,16.142,0.414c4.293-0.796,7.989-2.674,11.901-4.662c5.428-2.759,11.041-5.611,18.865-5.827
		c0.391-0.011,0.7-0.336,0.689-0.728C54.733,151.269,54.407,150.961,54.016,150.972z"/>
	<path d="M52.309,157.979c-4.498,0.651-9.038,2.884-13.844,5.247c-4.549,2.236-9.254,4.55-14.206,5.637
		c-9.867,2.166-16.604-0.917-16.671-0.948c-0.354-0.167-0.777-0.015-0.942,0.339c-0.166,0.354-0.016,0.775,0.338,0.942
		c0.29,0.137,7.213,3.327,17.58,1.052c5.12-1.124,9.902-3.476,14.528-5.75c4.703-2.312,9.145-4.496,13.422-5.116
		c0.387-0.056,0.656-0.415,0.6-0.803C53.056,158.191,52.696,157.922,52.309,157.979z"/>
	<path d="M106.074,148.598c-0.391,0.024-0.688,0.361-0.662,0.752c0.024,0.391,0.361,0.686,0.752,0.662
		c0.102-0.006,10.266-0.578,15.803,4.642c1.662,1.568,2.291,3.335,1.869,5.251c-0.693,3.137-3.926,5.668-4.607,5.895
		c-0.664,0.221-6.436,2.737-6.145,4.773c0.252,1.756,4.121,3.771,10.162,4.107c16.859,0.936,20.818,3.905,21.172,6.231
		c0.205,1.347-0.002,2.357-0.631,3.088c-1.373,1.597-4.584,1.597-6.502,1.597c-3.193,0-16.168,1.52-23.313,3.016
		c-3.111,0.651-5.279,3.489-5.393,7.062c-0.17,5.383,4.254,12.408,17.184,15.981c0.377,0.104,0.768-0.116,0.871-0.494
		c0.018-0.062,0.027-0.126,0.027-0.188c0-0.312-0.207-0.597-0.521-0.683c-11.922-3.296-16.148-9.503-16.148-14.313
		c0-0.086,0.002-0.172,0.004-0.258c0.094-2.906,1.809-5.204,4.268-5.72c6.93-1.45,19.957-2.984,23.022-2.984
		c2.162,0,5.779,0,7.576-2.09c0.697-0.811,1.049-1.845,1.049-3.084c0-0.363-0.031-0.743-0.092-1.142
		c-0.848-5.592-13.242-6.921-22.494-7.435c-6.137-0.34-8.662-2.326-8.818-2.86c0.246-0.737,3.463-2.69,5.17-3.26
		c1.258-0.419,4.756-3.367,5.543-6.935c0.107-0.485,0.16-0.967,0.16-1.44c0-1.868-0.828-3.626-2.439-5.146
		C116.951,147.976,106.516,148.57,106.074,148.598z"/>
	<path d="M104.75,153.385c-0.049,0.388,0.227,0.742,0.615,0.79c0.09,0.012,9.096,1.189,11.098,6.066
		c0.943,2.297,1.059,4.203,0.344,5.665c-0.775,1.592-2.535,2.753-5.379,3.549c-2.978,0.834-6.295,2.233-5.5,5.676
		c0.617,2.673,3.633,3.862,11.953,4.712c9.816,1.003,17.045,3.451,19.334,6.55c0.234,0.315,0.678,0.382,0.992,0.149
		c0.314-0.233,0.381-0.677,0.148-0.991c-3.637-4.922-15.43-6.617-20.33-7.118c-8.398-0.857-10.357-2.067-10.717-3.62
		c-0.307-1.333,0.025-2.738,4.502-3.992c3.254-0.912,5.307-2.316,6.271-4.292c0.898-1.842,0.795-4.138-0.309-6.825
		c-2.316-5.644-11.83-6.885-12.234-6.934C105.152,152.721,104.797,152.997,104.75,153.385z"/>
	<path d="M103.627,157.712c-0.145,0.363,0.035,0.775,0.398,0.919c0.053,0.021,5.271,2.114,6.959,5.491
		c0.678,1.355,0.775,2.597,0.285,3.69c-0.578,1.294-1.941,2.291-3.838,2.809c-3.84,1.048-7.623,2.316-8.016,5.257
		c-0.377,2.826,2.142,5.812,6.127,7.26c1.945,0.707,5.416,1.163,8.77,1.604c2.697,0.355,5.752,0.757,6.441,1.17
		c0.98,0.588,0.688,1.34,0.574,1.557c-0.178,0.344-0.051,0.772,0.291,0.955c0.342,0.185,0.766,0.063,0.953-0.275
		c0.469-0.844,0.564-2.459-1.09-3.451c-0.896-0.538-3.238-0.867-6.984-1.36c-3.127-0.411-6.67-0.877-8.471-1.531
		c-3.354-1.219-5.494-3.579-5.207-5.74c0.277-2.08,3.752-3.195,6.984-4.077c2.314-0.631,4.004-1.909,4.76-3.598
		c0.66-1.479,0.553-3.174-0.312-4.903c-1.934-3.865-7.473-6.082-7.707-6.175C104.182,157.169,103.77,157.348,103.627,157.712z"/>
	<path d="M127.646,186.499c-0.168,0.081-1.65,0.829-1.578,2.164c0.066,1.214,1.332,2.213,3.982,3.145
		c6.229,2.188,14.908,1.727,15.275,1.705c0.391-0.021,0.689-0.356,0.666-0.747c-0.021-0.391-0.355-0.689-0.746-0.667
		c-0.088,0.004-8.766,0.465-14.725-1.629c-2.904-1.02-3.033-1.797-3.037-1.882c-0.018-0.296,0.498-0.675,0.777-0.812
		c0.35-0.171,0.498-0.595,0.328-0.945C128.42,186.479,127.998,186.331,127.646,186.499z"/>
	<path d="M112.941,189.023c-0.34,0.19-0.465,0.615-0.277,0.956c0.123,0.223,3.164,5.494,17.826,8.191
		c6.914,1.271,15.269,2.327,15.816,0.141c0.088-0.35-0.131-0.636-0.469-0.762c-0.338-0.126-0.744,0.097-0.906,0.418l0.111-0.222
		c-0.064,0.056-1.729,1.342-14.297-0.97c-13.871-2.55-16.814-7.435-16.842-7.483C113.711,188.955,113.279,188.832,112.941,189.023z"
		/>
	<path d="M109.09,194.794c-0.375,0.108-0.592,0.495-0.486,0.869c0.066,0.233,1.729,5.746,12.476,8.987
		c10.48,3.159,15.338,3.196,15.539,3.196c0.391,0,0.707-0.317,0.707-0.708c0.002-0.391-0.316-0.709-0.707-0.71
		c-0.047,0-4.889-0.048-15.129-3.136c-9.922-2.991-11.51-7.969-11.524-8.019C109.855,194.902,109.463,194.686,109.09,194.794z"/>
	<path d="M145.785,201.472c0,0-22.998,6.5-34.832,20.333c0,0-11-5.499-28.5-4.833c-17.501,0.666-29.335,11.334-32.001,13.5
		l86.333,0.333c0,0,8.668-1.833,9-9.5V201.472z"/>
	<path d="M106.785,7.556c0,0,13.09,19.614,19.75,56.25c8,44,4.75,98.249,4.75,98.249s9.75-18.25,14.5-54.249l-0.25-92
		c0,0-0.916-4.167-1.916-4.833s0.334,1.667,0.166,3.833c-0.166,2.167-0.666,9.166-0.666,9.166s-5.5-4.166-9-7.666
		s-4-6.001-2.834-6.834c1.168-0.833,6.668-1.666,9.168-0.167c0,0-0.002-1.333-3.334-1.833
		C133.785,6.972,106.785,7.556,106.785,7.556z"/>
	<path d="M84.285,7.472c0,0,22.5,15.333,25,53.333c0,0-6.5-19.667-26.832-26c0,0-1.002,24.667-21.668,43.833
		c0,0,1,29.333-11.167,48.333c0,0-7.167-5.667-8.5-11.667c0,0-4.333,10.167-11,17.999c-6.667,7.833-13.667,18.667-14.333,21.5
		c0,0-8.333-49.666,11.667-79.166l-5.333-11.833c0,0-8.5,18.167-15,26.667l0.167-74.666c0,0,0.333-8,11-8.5L84.285,7.472z"/>
	<circle style="fill:#E60012;" cx="43.161" cy="34.306" r="23.5"/>
	<g>
		<path style="fill:#FFFFFF;" d="M35.202,24.806c0,0-1-0.251-1.583-0.584c-0.583-0.333-1.75-0.833-1.667-0.083
			c0.083,0.75,0.584,2.833,0.667,3.25c0.083,0.416,0.833,0.666,1.25-0.084S35.785,25.056,35.202,24.806z"/>
		<path style="fill:#FFFFFF;" d="M40.286,25.639c0,0,0.5-7.333,0.25-8.083s-0.667-1.667-0.583-2.084s0.75-0.167,1.417,0.333
			c0.667,0.5,0.916,1.084,0.833,1.584s-0.333,1.333-0.333,1.917s0,3.75,0,3.75s0,0.333,0.583,0c0.583-0.334,4.667-4.417,4.917-4.833
			c0.25-0.417,0.25-1.583,1.25-0.75s1.916,2,1.333,2.333s-8.25,6.583-8.583,6.916s-0.333,0.917-0.25,1.5s0.083,0.917,0.083,0.917
			s0.75,0.166,1.5-0.084s3.083-1.667,3.5-1.833s0.417-0.833,1.5-0.167c1.083,0.667,1.167,1.417,0.5,1.917s-3.583,2.917-3.583,2.917
			s0.416,0.583,0.833,0.833s0.583,0.417,0.583,1.083s-0.417,1.167-1,2.583s-1.167,3.417-1.333,5s0,3.333,1.667,3.333
			s6.417,0.167,6.417,0.167s1.583-0.167,2.417-1.5s1.834-2.417,1.917-2.75s0.416-0.167,0.833,0.583s1.5,3.25,1.833,4.083
			s0.417,1.083-0.333,1.333s-1.417,0.75-2.5,0.917s-10.416,0.25-11.833,0.25s-2.25-1.75-2.417-3.833s0.417-7.166,0.5-7.583
			s-0.333-0.417-0.75-0.25s-1.5,0.917-1.917,1.417s-4.667,4.667-5.583,5.917s-3.583,3.084-4.5,3.167s-1.917-1-1.917-1l1.833-1.083
			c0,0,2-2.667,3.333-3.75c1.333-1.083,6.167-6.583,6.417-6.917s1-2.333,1-2.333s-0.333-0.417-0.833-0.25s-4,2.25-5.167,2.75
			s-1.917,0.833-2.333,0.333c-0.417-0.5,0-1,0.833-1.75c0.833-0.75,2.333-2.166,2.833-2.25c0.5-0.083,0.167,0.5,1.583,0.167
			s2.5-0.249,2.667-0.667c0.167-0.417,0.333-0.917-0.167-1.083c-0.5-0.166-1.083,0-1.833,0s0.083-0.583,0.833-1.416
			C39.286,26.556,40.286,25.639,40.286,25.639z"/>
	</g>
	<path d="M132.695,151.413c-0.908,1.362-3.279,2.954-3.303,2.97c-0.326,0.218-0.414,0.657-0.197,0.983
		c0.219,0.325,0.658,0.413,0.984,0.196c0.105-0.071,2.629-1.765,3.695-3.363c0.217-0.326,0.129-0.766-0.197-0.983
		C133.354,150.999,132.914,151.086,132.695,151.413z"/>
	<path d="M132.598,141.658l-6,6.5c-0.266,0.287-0.248,0.735,0.041,1.001c0.287,0.266,0.734,0.248,1-0.04l6-6.5
		c0.266-0.287,0.248-0.735-0.039-1.001C133.312,141.352,132.863,141.37,132.598,141.658z"/>
	<path d="M132.305,133.351c-0.449,1.012-5.576,6.651-8.701,9.968c-0.27,0.285-0.256,0.733,0.029,1.002
		c0.285,0.269,0.733,0.255,1.002-0.029c0.844-0.897,8.272-8.801,8.965-10.365c0.16-0.358-0.002-0.778-0.359-0.936
		C132.883,132.832,132.463,132.994,132.305,133.351z"/>
	<path d="M132.471,125.953c-2.332,2.166-9.576,10.368-9.883,10.717c-0.26,0.293-0.232,0.741,0.062,1c0.293,0.259,0.74,0.231,1-0.062
		c0.074-0.085,7.504-8.497,9.785-10.615c0.285-0.267,0.303-0.715,0.037-1.002C133.205,125.704,132.758,125.687,132.471,125.953z"/>
	<path d="M132.732,117.363c-1.943,2.429-11.66,11.33-11.758,11.419c-0.289,0.264-0.308,0.712-0.045,1.001
		c0.264,0.289,0.713,0.309,1.002,0.044c0.402-0.369,9.897-9.065,11.908-11.58c0.244-0.306,0.193-0.751-0.111-0.996
		C133.422,117.008,132.977,117.058,132.732,117.363z"/>
	<path d="M132.5,106.795c-0.584,1.048-7.838,9.166-12.572,14.367c-0.262,0.289-0.242,0.737,0.049,1.001
		c0.289,0.263,0.736,0.242,1-0.048c1.217-1.336,11.912-13.104,12.762-14.632c0.189-0.342,0.066-0.773-0.275-0.963
		C133.121,106.33,132.689,106.452,132.5,106.795z"/>
	<path d="M131.318,97.655c-1.447,2.895-12.303,16.067-12.412,16.199c-0.25,0.302-0.207,0.748,0.096,0.998
		c0.301,0.249,0.748,0.206,0.998-0.096c0.451-0.547,11.068-13.431,12.586-16.468c0.176-0.35,0.033-0.775-0.316-0.951
		C131.92,97.163,131.494,97.306,131.318,97.655z"/>
	<path d="M130.16,86.306c-1.299,2.437-12.842,19.263-12.959,19.433c-0.221,0.323-0.139,0.764,0.184,0.985
		c0.322,0.221,0.764,0.139,0.984-0.184c0.479-0.695,11.705-17.062,13.041-19.567c0.186-0.345,0.055-0.775-0.291-0.959
		C130.773,85.83,130.344,85.96,130.16,86.306z"/>
	<path d="M129.467,75.695c-2.279,5.368-12.822,20.385-12.928,20.536c-0.225,0.32-0.148,0.762,0.172,0.987
		c0.32,0.225,0.762,0.148,0.988-0.172c0.435-0.622,10.734-15.292,13.072-20.798c0.152-0.36-0.018-0.775-0.377-0.929
		C130.035,75.167,129.621,75.336,129.467,75.695z"/>
	<path d="M128.012,68.274c-1.971,3.282-11.719,17.992-11.816,18.14c-0.217,0.326-0.127,0.767,0.199,0.982
		c0.326,0.216,0.766,0.127,0.982-0.199c0.4-0.606,9.863-14.884,11.85-18.193c0.201-0.336,0.092-0.771-0.244-0.973
		C128.648,67.83,128.213,67.938,128.012,68.274z"/>
	<path d="M119.02,31.078c-2.174,1.674-14.061,13.392-14.564,13.89c-0.279,0.275-0.281,0.724-0.008,1.002
		c0.275,0.279,0.725,0.282,1.004,0.007c0.123-0.121,12.326-12.154,14.434-13.776c0.311-0.239,0.369-0.684,0.129-0.994
		C119.775,30.897,119.33,30.839,119.02,31.078z"/>
	<path d="M116.762,25.329c-3.285,3.614-13.379,13.876-13.48,13.979c-0.275,0.279-0.272,0.728,0.008,1.003
		c0.279,0.274,0.727,0.271,1.002-0.008c0.102-0.104,10.215-10.386,13.52-14.021c0.264-0.29,0.242-0.738-0.049-1.001
		C117.473,25.018,117.023,25.04,116.762,25.329z"/>
	<path d="M115.117,19.971c-3.803,3.802-12.934,13.925-13.025,14.026c-0.262,0.291-0.238,0.739,0.053,1.001
		c0.291,0.262,0.738,0.239,1-0.052c0.092-0.102,9.197-10.197,12.975-13.974c0.277-0.276,0.277-0.725,0-1.002
		C115.844,19.694,115.395,19.694,115.117,19.971z"/>
	<path d="M113.617,15.305c-2.127,2.127-14.512,13.194-14.637,13.306c-0.291,0.261-0.316,0.708-0.057,1
		c0.262,0.292,0.709,0.317,1,0.056c0.512-0.457,12.539-11.205,14.695-13.361c0.277-0.276,0.277-0.725,0-1.002
		C114.344,15.028,113.895,15.028,113.617,15.305z"/>
	<path d="M112.076,11.038c-4.018,2.511-14.826,12.981-15.283,13.425c-0.281,0.273-0.289,0.721-0.016,1.002
		c0.271,0.281,0.721,0.288,1.002,0.015c0.111-0.108,11.158-10.809,15.049-13.241c0.332-0.208,0.434-0.645,0.225-0.977
		C112.846,10.932,112.408,10.831,112.076,11.038z"/>
	<path d="M106.781,7.141L93.615,20.474c-0.275,0.279-0.274,0.728,0.006,1.002c0.277,0.275,0.727,0.272,1.002-0.006l13.166-13.333
		c0.275-0.279,0.273-0.727-0.006-1.002C107.506,6.86,107.057,6.863,106.781,7.141z"/>
	<path d="M101.945,36.417c-0.123,0.372,0.08,0.772,0.451,0.895c0.166,0.055,16.658,5.51,21.379,8.114
		c0.344,0.189,0.773,0.064,0.963-0.278c0.189-0.343,0.064-0.773-0.277-0.963c-4.836-2.668-20.938-7.994-21.621-8.219
		C102.469,35.844,102.068,36.045,101.945,36.417z"/>
	<path d="M101.266,31.759c-0.158,0.358-0.576,0.52-0.934,0.361l23.33,10.332c0.358,0.158,0.779-0.002,0.938-0.359
		c0.16-0.358,0.002-0.776-0.355-0.933l-23.34-10.336C101.264,30.982,101.426,31.401,101.266,31.759z"/>
	<path d="M96.607,25.431c-0.113,0.374,0.096,0.771,0.471,0.885c0.166,0.052,16.832,5.201,24.984,10.581
		c0.326,0.216,0.766,0.126,0.982-0.201c0.215-0.327,0.125-0.767-0.201-0.982c-8.322-5.493-24.658-10.541-25.35-10.752
		C97.119,24.847,96.723,25.057,96.607,25.431z"/>
	<path d="M94.439,19.597c-0.391,0.007-0.701,0.33-0.695,0.72c0.008,0.391,0.33,0.703,0.721,0.697
		c0.088-0.002,9.014-0.017,23.938,9.555c0.33,0.211,0.77,0.115,0.98-0.214c0.211-0.329,0.115-0.768-0.215-0.979
		C103.83,19.539,94.816,19.59,94.439,19.597z"/>
	<path d="M88.92,13.686c-0.066,0.386,0.193,0.752,0.578,0.818c0.127,0.022,12.73,2.267,28.246,11.904
		c0.334,0.207,0.77,0.104,0.977-0.228c0.207-0.333,0.105-0.768-0.229-0.976c-15.77-9.793-28.627-12.075-28.754-12.096
		C89.352,13.041,88.986,13.3,88.92,13.686z"/>
	<path d="M89.777,7.258c-0.119,0.373,0.088,0.772,0.461,0.89c0.172,0.055,17.369,5.531,25.553,9.787
		c0.348,0.181,0.775,0.045,0.957-0.302c0.18-0.348,0.045-0.775-0.303-0.956c-8.293-4.312-25.604-9.825-25.779-9.88
		C90.293,6.678,89.896,6.885,89.777,7.258z"/>
	<path d="M104.264,50.637c-0.799,3.263-2.072,8.328-2.303,8.906c-0.146,0.363,0.031,0.775,0.395,0.921
		c0.363,0.145,0.775-0.032,0.922-0.396c0.342-0.854,2.158-8.253,2.363-9.094c0.094-0.38-0.139-0.764-0.52-0.857
		C104.74,50.024,104.357,50.257,104.264,50.637z"/>
	<path d="M100.766,45.8c-0.666,2.665-2.277,12.474-2.346,12.891c-0.064,0.386,0.197,0.75,0.584,0.814
		c0.387,0.063,0.75-0.198,0.814-0.584c0.016-0.102,1.67-10.168,2.322-12.776c0.094-0.38-0.137-0.765-0.516-0.859
		C101.244,45.19,100.859,45.421,100.766,45.8z"/>
	<path d="M97.422,40.675c-0.488,2.606-4.281,16.137-4.318,16.273c-0.105,0.377,0.113,0.768,0.49,0.873
		c0.377,0.106,0.768-0.114,0.875-0.491c0.156-0.559,3.846-13.728,4.346-16.394c0.072-0.385-0.18-0.755-0.564-0.827
		C97.865,40.037,97.494,40.291,97.422,40.675z"/>
	<path d="M93.416,38.884c-0.328,2.621-1.814,11.381-1.828,11.469c-0.066,0.386,0.193,0.752,0.58,0.817
		c0.385,0.065,0.75-0.194,0.816-0.58c0.061-0.361,1.506-8.879,1.838-11.531c0.049-0.388-0.227-0.742-0.615-0.791
		C93.818,38.22,93.465,38.496,93.416,38.884z"/>
	<path d="M90.746,36.596c-0.322,5.308-3.082,11.696-3.109,11.76c-0.156,0.359,0.006,0.775,0.365,0.933
		c0.359,0.157,0.775-0.007,0.934-0.366c0.117-0.27,2.887-6.679,3.225-12.24c0.023-0.391-0.273-0.727-0.664-0.75
		C91.105,35.908,90.77,36.206,90.746,36.596z"/>
	<path d="M87.078,35.104c-0.162,3.219-2.287,11.104-2.309,11.184c-0.104,0.377,0.119,0.767,0.498,0.869
		c0.377,0.102,0.768-0.121,0.869-0.499c0.09-0.33,2.188-8.112,2.357-11.482c0.02-0.391-0.281-0.724-0.674-0.743
		C87.43,34.412,87.098,34.713,87.078,35.104z"/>
	<path d="M84.08,32.733c-0.486,4.702-4.098,15.741-4.135,15.852c-0.121,0.372,0.08,0.772,0.453,0.895
		c0.371,0.122,0.771-0.081,0.893-0.452c0.152-0.459,3.697-11.295,4.199-16.148c0.041-0.389-0.242-0.737-0.631-0.778
		C84.469,32.061,84.121,32.343,84.08,32.733z"/>
	<path d="M15.213,145.225l-6.667,4.667c-0.321,0.224-0.399,0.666-0.174,0.986c0.225,0.32,0.667,0.398,0.987,0.175l6.667-4.668
		c0.321-0.224,0.399-0.666,0.174-0.986C15.975,145.079,15.533,145.001,15.213,145.225z"/>
	<path d="M14.651,138.106l-5.5,4.834c-0.294,0.258-0.323,0.706-0.064,1c0.258,0.294,0.706,0.323,1,0.064l5.5-4.834
		c0.294-0.258,0.323-0.706,0.064-1C15.393,137.876,14.945,137.847,14.651,138.106z"/>
	<path d="M14.642,131.282l-5.667,5.167c-0.289,0.264-0.309,0.712-0.046,1.001c0.264,0.289,0.712,0.31,1.001,0.046l5.667-5.167
		c0.289-0.264,0.31-0.712,0.046-1.001C15.379,131.039,14.931,131.018,14.642,131.282z"/>
	<path d="M15.254,124.198l-5.833,3.5c-0.335,0.201-0.444,0.637-0.243,0.972c0.201,0.336,0.636,0.444,0.972,0.243l5.833-3.5
		c0.335-0.201,0.444-0.637,0.243-0.972C16.025,124.105,15.59,123.997,15.254,124.198z"/>
	<path d="M14.954,118.013l-5.667,3c-0.346,0.183-0.478,0.611-0.295,0.958c0.183,0.346,0.612,0.478,0.958,0.294l5.667-3
		c0.346-0.183,0.478-0.611,0.295-0.958C15.729,117.961,15.3,117.829,14.954,118.013z"/>
	<path d="M18.112,108.684l-8.833,4.833c-0.343,0.188-0.469,0.618-0.281,0.962c0.188,0.343,0.618,0.469,0.962,0.281l8.833-4.833
		c0.343-0.188,0.469-0.619,0.281-0.962C18.886,108.622,18.455,108.496,18.112,108.684z"/>
	<path d="M19.061,98.881l-10.333,6.834c-0.326,0.216-0.416,0.655-0.2,0.982c0.216,0.326,0.656,0.416,0.982,0.2l10.333-6.833
		c0.326-0.216,0.416-0.656,0.2-0.982C19.827,98.755,19.388,98.665,19.061,98.881z"/>
	<path d="M22.085,91.2l-11.833,7.166c-0.335,0.203-0.442,0.638-0.239,0.973c0.203,0.334,0.638,0.442,0.973,0.239l11.833-7.167
		c0.334-0.203,0.442-0.638,0.239-0.973C22.855,91.104,22.42,90.997,22.085,91.2z"/>
	<path d="M24.641,83.002L9.975,90.169c-0.352,0.172-0.498,0.596-0.326,0.948c0.172,0.352,0.596,0.498,0.948,0.326l14.666-7.167
		c0.352-0.172,0.498-0.596,0.326-0.948C25.417,82.977,24.993,82.831,24.641,83.002z"/>
	<path d="M48.745,125.259c-0.233,3.568-0.585,7.57-0.772,8.09c-0.213,0.423-2.731,4.04-4.266,6.215
		c-0.226,0.319-0.149,0.762,0.17,0.987s0.762,0.149,0.988-0.171c0.673-0.953,4.048-5.745,4.388-6.425
		c0.346-0.692,0.716-5.687,0.906-8.604c0.025-0.391-0.271-0.728-0.661-0.753C49.108,124.573,48.771,124.869,48.745,125.259z"/>
	<path d="M47.362,135.269c-0.388,0.05-0.662,0.405-0.612,0.793c0.23,1.796,0.828,6.627,0.828,7.41c0,0.392,0.317,0.709,0.708,0.709
		c0.392,0,0.708-0.317,0.708-0.709c0-1.016-0.753-6.92-0.839-7.59C48.105,135.494,47.75,135.219,47.362,135.269z"/>
	<path d="M48.652,133.331c-0.354,0.165-0.508,0.587-0.342,0.941c0.643,1.376,2.367,5.148,2.627,6.06
		c0.107,0.377,0.5,0.595,0.876,0.487c0.376-0.107,0.595-0.5,0.487-0.876c-0.339-1.188-2.465-5.755-2.706-6.271
		C49.429,133.318,49.007,133.165,48.652,133.331z"/>
</g>
</svg>
