<?xml version="1.0" encoding="iso-8859-1"?>
<!-- Generator: Adobe Illustrator 19.1.0, SVG Export Plug-In . SVG Version: 6.00 Build 0)  -->
<svg version="1.1" id="&#xB808;&#xC774;&#xC5B4;_1" xmlns="http://www.w3.org/2000/svg" xmlns:xlink="http://www.w3.org/1999/xlink"
	 x="0px" y="0px" viewBox="0 0 153.07 238.11" style="enable-background:new 0 0 153.07 238.11;" xml:space="preserve">
<rect style="fill:#E60012;" width="153.07" height="238.11"/>
<g>
	<path style="fill:#FFFFFF;" d="M7.872,17.971v203.333c0,0,0.501,9.833,9.833,9.833s118,0,118,0s9.667-0.666,9.667-10.833
		c0-10.167,0-204.333,0-204.333s-0.167-9.333-12.167-9.333s-115,0-115,0S7.872,6.638,7.872,17.971z"/>
	<path style="fill:#FDD000;" d="M41.039,183.138c0,0,4.167,2.667,15,3.167s18.667-2.667,18.667-2.667s-3.834-2.666-6.834-5.666
		s-11.833-11.334-22.333-13.834c0,0,0.333-1,1.333-1.333c1-0.333,9.167-5,10.833-8s4.167-11.167,4.167-11.167s-6-0.5-15,1.167
		c-9,1.667-17,8.667-17,8.667s-0.333-11.166-4-19s-6.5-12.167-8.333-16.167s-3.167-8-3.167-8s-0.667-0.167-0.833,1.5
		c-0.167,1.666-1.333,9-2.5,12s-2.833,9-3.166,11c-0.333,2,0,36.5,0,36.5s5.333,13.501,6,14.167s4,9.166,4,9.166l8.667,1.834l12-7
		L41.039,183.138z"/>
	<path style="fill:#E60012;" d="M85.206,6.805c0,0,1.834,4.666,6.834,7c0,0-4.333,2.333-6.5,5.166
		c-2.167,2.834-6.667,12.667-8.667,14.5l0.667,1.167c0,0,3.833-1,4.833-0.667c1,0.334,9,7.5,9,7.5s-2.667,2.834-4,9.167
		s-0.667,14.667-0.667,14.667l0.167,7.5c0,0,2.833-1.667,4.833-3.167s8-4,10-5.667c2-1.666,15.501-10.5,17.334-21.666
		c0,0,4.5,3.833,8.333,5.666c3.833,1.834,15.167,5.167,18,8l0.167-19.833c0,0-0.667-5-4.667-7.667c-4-2.666-9.5-5-9.5-5
		s11.166-4.5,12.333-12c0,0-2-5-10-5h-5.833L85.206,6.805z"/>
	<path style="fill:#E60012;" d="M92.54,126.138c0,0-4.334-0.332-11.334,3.334s-15.167,11-15.167,11l-3.5,2.666c0,0,2.5,0.5,4.5,1.5
		s5.5,2.666,10.001,4.5c4.5,1.834,13.499,2.833,18.166,1.5c0,0-0.666,1.834-1.333,2.167c-0.667,0.333-7.833,10.167-10,15.667
		s-5.5,20.5-5.5,20.5l-1.167,6.5c0,0,4.834-4.167,7.167-5.667s10.999-6,13.833-8c2.834-2,13.334-10,14.834-14
		c0,0,1.333,6.833,3.833,11.333s10.333,14.834,11.833,16.667c1.5,1.833,8.501,10.166,8.834,10.833
		c0.333,0.667,1.5,2.334,1.333,0.667c-0.167-1.667-1.167-10.667-1.167-13.5c0-2.833,0.5-14.667,0.667-19.667
		c0.167-5-0.667-24.166-5-31.833c-4.333-7.667-22-14.5-22-14.5L92.54,126.138z"/>
	<path style="fill:#E60012;" d="M7.872,181.138c0,0,5.666,1.833,10.5,8.5c0,0,1.167-7.834,4.667-13s9.833-11.5,12.5-16.333
		c0,0,1,7.334,2,10.167c1,2.833,4.333,15,4.833,24.833c0,0,4.333-0.999,8.5-0.833s11.667,1.499,14.667,1.666
		c3,0.167,7.833,0.334,7.833,0.334s-2.167,2.832-2.834,4.166c-0.666,1.334-3.666,7.001-8.166,10.834
		c-4.5,3.833-12.5,5.166-12.5,5.166s5.333,6.334,5.833,14.667l-38.667-0.167c0,0-9.333-1-9.333-10.333
		C7.706,211.472,7.872,181.138,7.872,181.138z"/>
	<path d="M17.794,6.096c-5.861,0-10.63,4.769-10.63,10.63v204.658c0,5.861,4.769,10.63,10.63,10.63h117.658
		c5.861,0,10.63-4.769,10.63-10.63V16.726c0-5.861-4.769-10.63-10.63-10.63H17.794z M8.581,221.384V16.726
		c0-5.08,4.133-9.213,9.213-9.213h117.658c5.08,0,9.212,4.133,9.212,9.213v204.658c0,5.08-4.132,9.212-9.212,9.212H17.794
		C12.714,230.596,8.581,226.464,8.581,221.384z"/>
	<path d="M13.872,7.805c0,0,5.25,5,6,8.25s7,17.75,13.75,24.25c0,0-6.25,2.5-9.75,4.75s-10.25,5-15.75,4.25v1.5c0,0,3.75,1,5.75,2
		s8.75,4.5,18,4c0,0-8,13.5-7.75,31.5c0,0,2.25-1.25,3.5-4s5.5-7.75,11-9.75s13.25-4,16.75-9.75c0,0,5.75,10,16.5,15.5
		c10.751,5.5,16.001,10.5,18.501,15.25c0,0-1.75-10.75-2.25-15s-3.75-20-12.75-27.75c0,0,16.917-12.417,17.667-12.667l5.166-4
		c0,0-3.833,0-7.333-0.667c-3.5-0.666-7.167-1.333-8.5-1.666c-1.333-0.334-7.5,1.499-8.834,2.666c0,0,0.834-5.666,0.834-10.333
		s1.5-17.167,1.5-17.167s-1.5,1-3.001,2.5c-1.5,1.5-12,13.167-14.5,18.667c0,0-5.667-9.333-16.167-12.5s-22.833-4-27-10.333
		L13.872,7.805z"/>
	<path d="M84.496,7.385c0.098,0.185,2.284,4.212,6.242,6.672c-1.762,1.111-5.304,3.622-7.226,6.889l-2.703,5.041
		c-1.716,3.329-3.66,7.101-4.861,8.002l0.558,1.263c0.051-0.01,5.109-0.959,7.413-0.268c1.949,0.584,7.539,1.652,12.346,1.72
		c-2.445,1.397-5.617,3.822-7.53,7.794c-2.546,5.289-2.849,11.48-2.849,15.671c0,0.725,0.01,1.391,0.018,1.98l0.011,1.156
		l0.287,11.491l1.125-0.946c0.06-0.049,5.97-4.956,9.831-6.645c3.817-1.67,19.33-11.016,22.38-23.845
		c1.834,1.546,6.438,5.066,13.083,7.607c7.223,2.762,10.936,4.514,11.686,5.513l1.134-0.851c-0.807-1.076-3.209-2.506-12.313-5.987
		c-8.255-3.156-13.463-8.052-13.515-8.101l-0.96-0.913l-0.227,1.305c-2.22,12.824-18.039,22.31-21.836,23.972
		c-3.033,1.328-7.096,4.402-9.043,5.944c-0.053-2.097-0.214-8.545-0.214-8.545l-0.012-1.175c-0.008-0.579-0.017-1.233-0.017-1.945
		c0-4.065,0.289-10.049,2.708-15.072c3.071-6.38,10.002-8.609,10.072-8.631l-0.316-1.377c-4.924,0.739-13.041-0.758-15.441-1.478
		c-1.663-0.499-4.349-0.291-6.167-0.06c1.184-1.668,2.516-4.226,3.91-6.931l2.664-4.971c2.369-4.026,7.676-6.958,7.729-6.987
		l1.188-0.65l-1.212-0.606c-4.233-2.117-6.666-6.651-6.689-6.697L84.496,7.385z"/>
	<path d="M130.695,22.869l-2.187,0.569l2.119,0.782c0.047,0.018,4.775,1.772,8.11,3.93c4.027,2.607,4.48,3.688,5.959,8.369
		l1.352-0.427c-1.541-4.881-2.127-6.275-6.541-9.131c-2.202-1.426-4.901-2.648-6.636-3.372c2.873-1.205,8.45-4.346,11.648-11.494
		l-1.293-0.579C139.175,20.571,130.78,22.847,130.695,22.869z"/>
	<path d="M144.873,152.555l-13.5-11.25c0,0-4.25,6-11.75,10.75s-19.25,9.75-20.75,10.25s-1.75,0-1.75,0c3.5-3.5,8-14.5,10-18.75
		c2-4.25,5.25-8.5,5.25-8.5c-10,0.25-19-7.5-20.75-9s-8.75-3.25-11-3.75s-2-1.25-2-1.25s7.75,0,14.5-2.25s18.75-4,18.75-4
		c-5.75-6.25-9.75-16.75-10-19.75s-4-14.5-5-16.75s-0.75-3.25-0.75-3.25s5,4.75,9,7.5c4,2.75,11,4,17.5,9.25
		c6.5,5.25,8.25,13.5,8.25,13.5s3.5-6.75,8-11.25s6.5-6,6.5-6L144.873,152.555z"/>
	<path d="M77.729,130.715c-4.215,2.811-8.323,6.132-11.323,8.557c-2.216,1.792-4.131,3.339-4.814,3.632l0.237,1.358
		c0.041,0.003,4.117,0.268,7.17,2.146c3.222,1.982,16.022,6.719,25.026,5.108c-2.682,3.013-8.071,9.675-11.066,17.536
		c-3.98,10.449-6.514,26.73-6.538,26.895l-0.345,2.24l1.56-1.646c0.044-0.047,4.475-4.699,8.333-6.87l1.794-0.968
		c6.065-3.229,19.74-10.511,25.027-19.269c0.658,3.054,2.398,9.109,6.752,15.277c3.015,4.271,7.492,9.914,11.442,14.892
		c3.293,4.149,6.697,8.439,6.952,9.13c0.039,0.205,0.154,0.78,0.662,0.939l0.401,0.126l0.363-0.311
		c0.666-0.642,0.276-2.893-0.059-4.121c-0.74-2.715-1.221-12.601-0.727-20.268l0.146-2.08c0.649-8.871,1.999-27.329-5.222-41.537
		l-1.264,0.643c4.559,8.971,5.609,19.76,5.609,28.624c0,4.827-0.311,9.084-0.537,12.167l-0.147,2.092
		c-0.14,2.161-0.201,4.502-0.201,6.815c0,6.03,0.419,11.881,0.975,13.917c0.067,0.249,0.091,0.435,0.137,0.656
		c-1.086-1.487-2.952-3.859-5.98-7.674c-3.743-4.718-8.403-10.589-11.395-14.827c-5.817-8.241-6.865-16.592-6.875-16.675
		l-0.301-2.527l-1.049,2.318c-4.13,9.129-19.567,17.347-25.379,20.44l-1.823,0.984c-2.632,1.48-5.406,3.95-7.091,5.562
		c0.823-4.744,3.023-16.366,6.101-24.443c3.897-10.229,12.255-18.667,12.339-18.751l-0.73-1.171
		c-8.374,2.871-22.893-2.43-26.15-4.434c-1.996-1.228-4.301-1.816-5.896-2.1c0.896-0.67,2.027-1.577,3.45-2.729
		c2.978-2.407,7.057-5.704,11.218-8.479c7.23-4.819,14.312-5.129,14.383-5.132l-0.05-1.416
		C92.544,125.357,85.311,125.661,77.729,130.715z"/>
	<path d="M24.79,173.547c-4.509,5.098-6.083,11.823-6.6,15.001c-4.007-5.278-9.967-8.131-10.242-8.259l-0.597,1.285
		c0.07,0.032,7.03,3.321,10.71,9.21l1.137,1.818l0.171-2.139c0.007-0.095,0.824-9.581,6.483-15.978
		c4.351-4.918,7.622-9.608,9.266-12.398c0.341,2.831,1.025,7.548,2.089,10.385c1.603,4.275,4.565,16.661,4.565,23.058v1.032
		l0.964-0.371c0.044-0.018,4.567-1.712,12.203-0.727c7.011,0.904,13.773,1.699,17.187,1.67c-0.887,1.115-2.048,2.66-2.388,3.511
		c-0.054,0.133-5.494,13.342-20.187,15.441l-1.272,0.182l0.833,0.979c0.057,0.067,5.734,6.818,5.979,13.652l1.416-0.051
		c-0.211-5.911-3.985-11.475-5.585-13.588c14.596-2.737,20.078-15.952,20.134-16.09c0.385-0.962,2.449-3.513,3.213-4.414l1.422-1.68
		l-2.135,0.534c-2.179,0.545-13.57-0.925-18.434-1.553c-6.111-0.788-10.251,0.046-11.979,0.524
		c-0.244-6.745-3.045-18.438-4.608-22.608c-1.485-3.96-2.255-12.281-2.263-12.365l-1.378-0.16
		C34.393,160.948,30.483,167.111,24.79,173.547z"/>
	<path d="M14.072,108.682c-0.519,0.021-0.848,0.421-0.976,1.189l-0.209,1.409c-0.419,2.908-1.292,8.96-2.325,12.058
		c-1.275,3.825-3.072,11.252-3.09,11.327l1.378,0.332c0.017-0.074,1.8-7.442,3.057-11.212c1.072-3.217,1.958-9.354,2.383-12.303
		c0,0,0.025-0.167,0.035-0.232c0.019,0.068,0.046,0.121,0.064,0.19c0.174,0.694,1.758,6.895,3.904,10.918l1.469,2.401
		c3.232,5.049,9.249,14.444,9.461,29.29l0.022,1.538l1.155-1.016c0.063-0.056,6.39-5.575,13.593-8.059
		c5.924-2.042,14.053-2.248,16.846-2.256c-0.826,2.128-2.854,7.389-3.663,9.814c-0.902,2.707-11.477,8.977-12.785,9.262l0.026,1.393
		c0.078,0.013,7.84,1.322,14.266,6.512c2.523,2.037,4.909,4.191,7.014,6.093c2.78,2.511,5.245,4.713,7.385,6.108
		c-2.604,0.553-7.55,1.55-10.954,1.908c-5.577,0.588-14.059,0.038-21.14-3.267l-0.6,1.285c7.344,3.427,16.122,3.999,21.888,3.392
		c4.852-0.512,12.808-2.301,12.888-2.318l2.022-0.457l-1.879-0.877c-2.282-1.064-5.238-3.734-8.662-6.826
		c-2.118-1.913-4.519-4.082-7.073-6.145c-4.764-3.847-10.05-5.609-12.877-6.343c3.683-1.951,10.905-6.516,11.824-9.273
		c1.007-3.021,3.982-10.63,4.013-10.707l0.368-0.94l-1.01-0.025c-0.441-0.012-10.898-0.245-18.36,2.327
		c-5.787,1.995-10.849,5.729-12.98,7.436c-0.576-14.4-6.395-23.614-9.595-28.613l-1.412-2.304c-2.066-3.874-3.61-9.919-3.78-10.596
		C15.534,110.179,15.009,108.645,14.072,108.682z"/>
	<path d="M126.691,144.999c0.522,1.827,0.622,8.595,0.718,15.14c0.082,5.552,0.167,11.293,0.509,14.491
		c0.486,4.536,2.782,12.424,4.399,17.599c-2.731-4.381-6.742-11.363-9.025-17.907c-3.673-10.53-4.454-21.948-4.462-22.062
		l-1.414,0.092c0.008,0.116,0.8,11.721,4.538,22.438c3.739,10.719,12.006,22.556,12.089,22.674l1.251-0.635
		c-0.052-0.154-5.233-15.506-5.966-22.348c-0.336-3.134-0.42-8.842-0.502-14.361c-0.102-6.943-0.198-13.501-0.772-15.508
		L126.691,144.999z"/>
	<path d="M99.665,169.014c0,0-4.993,4.106-8.223,6.761c1.329-2.548,2.906-5.875,3.839-8.206c1.438-3.597,5.836-8.751,5.88-8.803
		l-1.076-0.922c-0.187,0.218-4.594,5.383-6.12,9.197c-1.581,3.954-4.763,10.218-5.646,11.321l1.001,0.992l11.261-9.259
		c3.368-2.851,7.92-8.696,9.707-13.546l-1.33-0.49C107.274,160.629,102.824,166.341,99.665,169.014z"/>
	<path d="M89.372,136.393c-7.146,2.71-12.659,4.47-12.714,4.486l0.312,1.378c0.072-0.01,7.271-0.999,11.445-1.245
		c2.973-0.175,12.292,0.53,17.859,0.952l4.349,0.3v-1.418l-4.242-0.295c-5.603-0.425-14.98-1.134-18.05-0.953
		c-1.381,0.081-3.083,0.244-4.754,0.425c1.851-0.655,3.972-1.423,6.297-2.306c7.069-2.681,16.461-3.448,16.555-3.456l-0.111-1.412
		C105.925,132.879,96.633,133.638,89.372,136.393z"/>
	<path d="M32.225,171.017c-0.476,1.07-4.685,10.696-6.052,19.175c-1.03,6.387-4.158,12.641-5.115,14.451
		c-0.59-0.276-1.623-0.826-3-1.897c-2.18-1.695-9.345-9.348-9.417-9.425l-1.035,0.969c0.298,0.318,7.314,7.811,9.583,9.575
		c2.319,1.804,3.895,2.341,3.961,2.362l0.553,0.185l0.288-0.507c0.176-0.311,4.327-7.7,5.583-15.486
		c0.969-6.009,3.456-12.724,4.889-16.284c-0.02,0.289-0.047,0.671-0.047,0.671c0,0.909-0.934,9.385-1.684,16.195
		c-0.816,7.404-1.316,11.973-1.316,12.555v0.471l0.434,0.183c0.202,0.085,5.01,2.066,11.387,1.047l5.497-1.091
		c3.613-0.785,7.634-1.634,12.641-1.979c-2.074,0.814-4.296,1.797-5.21,2.581c-1.745,1.496-14.064,7.321-22.519,7.08h-0.001
		c-1.024,0-1.592,0.279-1.709,0.831c-0.014,0.063-0.02,0.124-0.02,0.184c0,0.709,0.913,1.115,1.423,1.341
		c2.273,1.011,10.157,6.218,14.302,10.118c1.639,1.543,2.807,2.807,3.64,3.787c-1.889-0.895-4.453-2.029-6.693-2.729
		c-3.809-1.189-14.155-7.301-18.31-10.157l-0.332-0.228l-0.366,0.168c-0.092,0.042-9.283,4.253-15.663,6.216l0.417,1.355
		c5.811-1.788,13.825-5.372,15.477-6.12c4.308,2.917,14.366,8.873,18.353,10.119c3.892,1.216,9.081,3.924,9.133,3.951l2.099,1.099
		l-1.15-2.07c-0.053-0.096-1.353-2.393-5.634-6.422c-3.923-3.693-11.101-8.502-14.021-10.033c8.855-0.17,20.671-5.85,22.496-7.413
		c1.349-1.156,6.963-3.183,9.013-3.866l-0.224-1.381c-7.393,0-12.732,1.16-17.442,2.184l-5.42,1.075
		c-4.887,0.782-8.848-0.342-10.146-0.784c0.14-1.625,0.715-6.841,1.274-11.915c0.991-8.996,1.692-15.434,1.692-16.351l0.144-2.006
		c0.072-0.744,0.126-1.304,0.126-1.722c0-0.696-0.149-1.003-0.615-1.126C32.781,169.766,32.446,170.519,32.225,171.017z"/>
	<path d="M6.989,201.122c2.519,5.037,6.984,9.936,8.547,11.576c-1.147,0.8-7.568,5.275-7.568,5.275l0.811,1.162l8.944-6.233
		l-0.599-0.599c-0.059-0.06-5.955-5.991-8.867-11.815L6.989,201.122z"/>
	<path d="M14.727,129.455l-0.063,0.85c0,0.784-0.153,2.287-0.364,4.367c-0.444,4.372-1.16,11.413-1.16,19.381
		c0,0.829,0.008,1.669,0.024,2.516c0.148,7.514,2.054,13.55,3.656,17.381c-2.211-2.51-8.324-10.248-8.392-10.334l-1.112,0.879
		c0.307,0.389,7.543,9.55,9.055,11.062l2.707,2.953l1.144-0.831c-0.054-0.086-5.399-8.75-5.642-21.137
		c-0.017-0.837-0.024-1.666-0.024-2.486c0-7.898,0.711-14.895,1.153-19.24c0.052-0.51,0.1-0.982,0.143-1.423
		c0.026,0.307,0.061,0.617,0.061,0.913c0,2.49,0.702,11.06,3.82,17.557c2.988,6.227,6.765,11.787,6.803,11.843l0.597,0.875
		l0.581-0.886c0.042-0.063,4.246-6.386,11.716-10.001c4.46-2.158,9.683-3.724,13.282-4.665c-1.177,0.861-2.325,1.874-2.948,2.913
		c-1.177,1.961-6.965,10.482-11.748,13.251l-1.509,0.874l1.691,0.427c0.049,0.012,4.94,1.282,10.733,5.868
		c2.298,1.819,4.601,3.42,6.579,4.712c-1.268-0.234-2.715-0.415-4.362-0.476c-6.516-0.241-12.659-3.151-12.72-3.181l-0.613,1.277
		c0.261,0.125,6.461,3.067,13.28,3.319c5.412,0.2,8.658,1.722,9.588,2.22c0.21,0.118,0.342,0.191,0.351,0.195l0.721-1.219
		c-0.026-0.018-0.195-0.115-0.43-0.242c-1.376-0.773-6.462-3.719-11.514-7.718c-4.254-3.367-7.953-4.983-9.871-5.678
		c4.775-3.472,9.847-10.917,11.038-12.902c1.376-2.293,6.162-4.706,6.209-4.73l-0.456-1.329c-0.101,0.021-10.178,2.062-17.919,5.808
		c-6.298,3.048-10.247,7.751-11.665,9.643c-1.141-1.752-3.862-6.071-6.138-10.812c-3.004-6.259-3.68-14.537-3.68-16.943
		c0-0.057-0.189-5.633-1.781-5.633C15.395,128.672,14.877,128.729,14.727,129.455z"/>
	<path d="M7.438,170.987c2.002,7.506,5.428,13.426,5.572,13.675l1.225-0.715c-0.035-0.059-3.477-6.012-5.428-13.325L7.438,170.987z"
		/>
	<path d="M125.528,14.67c-2.773,4.285-4.271,9.223-4.334,9.431l-0.091,0.303l0.165,0.27c1.774,2.903,7.319,6.943,12.211,10.508
		c2.878,2.097,5.597,4.078,6.893,5.374c2.006,2.006,2.786,4.757,3.093,6.58c-4.743-4.641-8.743-6.44-12.947-8.3
		c-1.635-0.723-3.325-1.471-5.059-2.405c-6.262-3.372-8.517-6.049-8.539-6.076l-1.018-1.231l-0.23,1.579
		c-1.751,12.037-7.742,16.964-11.706,20.224l-1.307,1.092c-2.273,1.97-5.496,4.514-7.656,6.192c2.399-5,6.218-12.292,9.464-17.27
		c3.76-5.766,6.469-14.313,6.582-14.675l0.233-0.741l-0.76-0.164c-9.497-2.054-19.264,2.219-23.434,4.043
		c-1.466,0.642-2.8,1.147-3.896,1.53c2.852-2.572,7.822-6.934,12.099-10.059c4.393-3.21,9.851-1.759,12.552-0.706
		c1.07,0.573,1.771,0.796,1.836,0.815l0.54-1.3c-0.096-0.053-0.781-0.421-1.838-0.841c-1.34-0.737-3.324-2.088-5.479-4.511
		c-3.759-4.229-4.07-7.307-4.073-7.338l-1.413,0.113c0.012,0.143,0.316,3.542,4.428,8.167c0.865,0.974,1.697,1.759,2.49,2.439
		c-2.979-0.501-6.631-0.356-9.879,2.018c-6.46,4.721-14.486,12.23-14.566,12.305l-1.991,1.866l2.647-0.662
		c0.125-0.031,3.104-0.785,7.112-2.538c3.928-1.719,12.972-5.645,21.779-4.08c-0.738,2.192-3.119,8.885-6.157,13.544
		c-3.914,6.002-8.674,15.365-10.803,20.096l-1.144,2.541l2.219-1.686c0.062-0.048,6.312-4.801,10.035-8.029l1.278-1.069
		c3.734-3.07,9.846-8.2,11.938-19.777c1.216,1.128,3.667,3.11,7.984,5.435c1.782,0.959,3.498,1.719,5.157,2.453
		c4.484,1.984,8.721,3.858,13.911,9.407l1.227,1.31v-1.795c0-0.236-0.043-5.836-3.708-9.501c-1.374-1.375-4.009-3.294-7.06-5.517
		c-4.419-3.219-9.856-7.193-11.656-9.859c0.371-1.14,1.783-5.219,4.06-8.738c2.629-4.062,9.038-7.99,9.103-8.029l-0.736-1.211
		C134.809,6.366,128.334,10.333,125.528,14.67z"/>
	<path d="M101.088,7.269c0.136,0.157,3.354,3.853,5.921,5.393c2.65,1.591,6.17,4.514,7.767,7.023l0.438,0.689l0.62-0.532
		c0.147-0.126,3.617-3.117,5.161-5.949c1.494-2.739,4.663-5.501,7.064-6.156l-0.373-1.367c-3.09,0.843-6.462,4.142-7.936,6.844
		c-1.073,1.968-3.268,4.114-4.29,5.057c-1.854-2.532-5.149-5.281-7.724-6.825c-2.373-1.424-5.547-5.07-5.579-5.107L101.088,7.269z"
		/>
</g>
</svg>
