<?xml version="1.0" encoding="iso-8859-1"?>
<!-- Generator: Adobe Illustrator 19.1.0, SVG Export Plug-In . SVG Version: 6.00 Build 0)  -->
<svg version="1.1" id="&#xB808;&#xC774;&#xC5B4;_1" xmlns="http://www.w3.org/2000/svg" xmlns:xlink="http://www.w3.org/1999/xlink"
	 x="0px" y="0px" viewBox="0 0 153.072 238.111" style="enable-background:new 0 0 153.072 238.111;" xml:space="preserve">
<rect style="fill:#E60012;" width="153.072" height="238.111"/>
<g>
	<path style="fill:#FFFFFF;" d="M6.869,188.721V84.388l7.5-33.667l36.333-12l44.333,0.833c0,0,18.5,12.667,19,13.5
		s32.333,57.5,32.333,57.5v33.834l-22.333,5.833l-17.834,5.5l-20.333,1l-27.166,12.833l-16.667,7.334l-29.166,14.333L6.869,188.721z
		"/>
	<path style="fill:#E60012;" d="M8.994,83.055c0,0-0.625,5,4.5,8.875s11.25,3.875,14.875,1.375c0,0,2,4.75,9.125,6.125
		s11.875-2.125,12.5-5.75c0,0,4.375,2.625,7.875,0.375s3.625-5.625,2.75-8.375s-1.75-6.375-1.875-7.375s-0.625-4.375,1.125-7
		s4.625-3.25,5.75-2.75s2.75,1.75,4,2.375s5.5,2.125,7.249,1.5c0,0,0.875,2,1,2.625s0.75,1.5,0.75,1.5s1.75-2.75,1.75-6
		s-0.875-6.625-0.875-6.625l66.875-5.125V17.18c0,0-0.25-10.25-10-10.25s-108.124,0-108.124,0H16.119c0,0-9.375,1-9.375,9.5
		s0,21.25,0,21.25L8.994,83.055z"/>
	<path style="fill:#E60012;" d="M6.994,87.18c0,0,5.25,19.875,25.5,29.75c0,0-13.625,3.5-25.625-6.5L6.994,87.18z"/>
	<path style="fill:#E60012;" d="M6.869,115.555c0,0,9.625,13.625,24.625,19.625c0,0-0.375,1-0.75,1.25s-15.25,3.75-23.875-1.375
		V115.555z"/>
	<path style="fill:#E60012;" d="M101.994,86.555c0,0-8.75,16.625-23.75,22.5c0,0,1.625,1.625,2,3.375c0,0,24.875-4.75,34.625-11.875
		C114.869,100.555,105.494,92.305,101.994,86.555z"/>
	<path style="fill:#E60012;" d="M117.119,102.93c0,0-11.625,18.125-33.875,26.5c0,0,2.125,0.875,5.75,0.75s36.125-7,47.25-19.125
		C136.244,111.055,125.244,108.055,117.119,102.93z"/>
	<path style="fill:#005BAC;" d="M51.119,136.555c0,0-3.25-3.875-6.5-5.625s-6.75-2.875-6.75-2.875s0.125,2.5,0.125,4.125
		s0.375,5.125,0.75,6c0,0-2.25,0.75-4,2.5s-3.125,3.25-3.125,3.25s2.5,1.625,3.875,2.875s4.25,2.25,4.25,2.25l-1,6.25l7.75,1.375
		l0.875,0.125c0,0,3.75-3.125,4-4.25c0,0,1.625,0.625,2.75,1.125s4.25,1.5,4.25,1.5s4.125-3,4.75-3.375c0,0-1.625-4.75-3-5.875
		c0,0,4-2.5,5.5-5.375s2.625-5.875,2.625-5.875s-2.25,0.375-4.5,0.375C61.494,135.055,54.619,135.555,51.119,136.555z"/>
	<path style="fill:#FDD000;" d="M6.869,203.054v18c0,0,0.5,10.168,9.833,10.168c9.333,0,119.499,0,119.499,0s10,0.166,10-12
		c0-12.168,0-29.501,0-29.501l-14.666,8.833l-26.834,15.834l-16.333-0.334l-19.999-2.166l-43.167-14.167l-16.833,1.833
		L6.869,203.054z"/>
	<path d="M16.791,6.18c-5.861,0-10.63,4.769-10.63,10.63V221.3c0,5.861,4.769,10.631,10.63,10.631h119.49
		c5.861,0,10.63-4.77,10.63-10.631V16.81c0-5.861-4.769-10.63-10.63-10.63H16.791z M7.578,221.3V16.81
		c0-5.08,4.133-9.213,9.213-9.213h119.49c5.08,0,9.212,4.133,9.212,9.213V221.3c0,5.08-4.132,9.213-9.212,9.213H16.791
		C11.711,230.513,7.578,226.38,7.578,221.3z"/>
	<path d="M6.869,189.554c0,0,5.75-26.249,22.25-32.499c16.5-6.25,23.5,3,23.5,3s8.25-10.25,21.5-13.25
		c13.249-3,22.499,2,23.999,3.25c0,0,7.75-12.25,22-15.75s24,2.25,25.5,8.5v50.499c0,0-2,3.75-3.75,6s-16.75,19.25-16.75,31.5
		c0,0-7.5-8.25-16.5-10.25s-18.25,1-23.75,4.5s-14.249,6.25-16.499,6.25s-6.75-1.5-9.75-5.75c0,0-6,5.75-13.5,5.75
		s-14.5-4.5-19.5-10.25s-9.5-12.75-12.5-14.75s-6-2.75-6-2.75L6.869,189.554z"/>
	<circle style="fill:#E60012;" cx="96.536" cy="187.054" r="23.333"/>
	<path d="M20.348,56.346c-0.392,0.012-0.699,0.339-0.687,0.73c0.753,24.596,16.675,34.732,16.835,34.831l0.924-1.048
		c-8.707-10.78-9.365-24.725-9.365-28.678c0-0.096,0.002-0.139,0.003-0.223c1.942,0.39,6.756,0.784,12.531-2.977
		c0.328-0.213,0.421-0.652,0.207-0.98c-0.213-0.328-0.652-0.42-0.98-0.207c-6.757,4.4-12.159,2.61-12.213,2.591l-0.885-0.306
		l-0.057,0.934c-0.001,0.026-0.022,0.429-0.022,1.139c0,3.574,0.53,14.929,6.608,25.157c-4.627-4.644-11.68-14.279-12.17-30.277
		C21.065,56.642,20.739,56.334,20.348,56.346z"/>
	<path d="M37.247,53.846c-3.906,3.281-10.131,3.168-10.194,3.167c-0.391-0.009-0.716,0.3-0.726,0.691
		c-0.01,0.391,0.299,0.716,0.69,0.726c0.276,0.007,6.818,0.132,11.141-3.499c0.3-0.251,0.339-0.699,0.087-0.998
		C37.994,53.633,37.546,53.594,37.247,53.846z"/>
	<path d="M42.378,61.877c-4.05,3.894-9.913,3.639-9.971,3.636c-0.391-0.021-0.724,0.28-0.745,0.67
		c-0.021,0.391,0.278,0.724,0.669,0.745c0.264,0.015,6.525,0.301,11.029-4.03c0.282-0.271,0.291-0.72,0.02-1.002
		C43.109,61.615,42.66,61.606,42.378,61.877z"/>
	<path d="M45.219,65.203c-4.718,4.403-11.103,4.311-11.167,4.309c-0.391-0.009-0.716,0.301-0.725,0.691
		c-0.009,0.391,0.299,0.716,0.691,0.726c0.284,0.007,7.016,0.118,12.168-4.69c0.286-0.267,0.302-0.715,0.035-1.001
		C45.954,64.952,45.505,64.936,45.219,65.203z"/>
	<path d="M48.956,68.313c-2.883,4.097-8.788,3.542-8.847,3.536c-0.389-0.04-0.737,0.243-0.778,0.632
		c-0.04,0.389,0.242,0.737,0.63,0.778c0.275,0.029,6.786,0.655,10.154-4.13c0.225-0.32,0.148-0.762-0.172-0.987
		C49.624,67.916,49.181,67.993,48.956,68.313z"/>
	<path d="M52.913,70.717c-1.937,3.576-7.653,3.628-7.71,3.629c-0.391,0-0.708,0.318-0.708,0.709c0,0.391,0.317,0.708,0.708,0.708
		c0.269,0,6.615-0.049,8.956-4.371c0.187-0.344,0.059-0.774-0.286-0.96C53.529,70.245,53.099,70.373,52.913,70.717z"/>
	<path d="M7.119,35.555c0,0,4.25-10,15.75-14.5s20-1.25,20-1.25s5.264-5.858,16-7c11.75-1.25,18.25,3,18.25,3s7.5-6.5,22-3.25
		c13.443,3.013,20.5,17,20.5,17s18.25-0.5,26.25,12.75v69.75c0,0-14.25,2-27.5-7.5s-21.25-23.5-23-25.5s-7.667-10.333-15.167-13.333
		c0,0,1.167,2.667,0.834,6.667c-0.333,4-3,5.833-3,5.833s-0.834-0.833-0.834-2.167c0-1.333-1.5-6.999-8.166-9.666
		c0,0,0.5-0.833,2.334-0.5c1.833,0.333,5.832,2.833,7.499,9.333c0,0,1.001-6-0.333-10.167c-1.334-4.166-4.833-6.5-6.166-8
		c-1.334-1.5-3.667-5.5-2.667-9.333s3-4,4.667-3.833c1.666,0.167,5,1,5.166-1.667c0.166-2.667-1.168-3.167-3.334-2.667
		c-2.166,0.5-3.333,0.167-3.666-1.333c-0.333-1.5,0-2.167,0.834-3.167c0.833-1-0.5-2.833-2.167-3.167
		c-1.667-0.333-3,1.5-2.667,2.833c0.334,1.333,0.5,4.167-1.5,5.5s-4.833,1.833-6.5,0s-1.166-4.5,0.667-6c1.833-1.5,3-3,2.5-5
		s-2.5-2.167-3.5-1s-0.667,2.5-0.667,3.333s-2,3-4.667,3.5c-2.667,0.5-4.333-1.5-4-3.167c0.333-1.667,1.667-2.833,2.333-4
		c0.667-1.167,0.667-2.834-1-3.667c-1.667-0.833-3,0.667-3.167,2.167s-0.833,4.333-1.667,6c-0.833,1.667-3.167,4.5-5.333,4.5
		s-4.5-1.833-3.167-4.5c1.333-2.667,3.333-3.5,2.833-5.667s-3.5-2-5,0.5s-0.667,4.667-0.5,6.667c0.167,2,0,4.833-0.5,5.833
		s-1.5,1.167-1.167,2s0,2-2.5,3.333s-5,1-5.666-3c-0.667-4,2-10.167,2.667-11.833c0.667-1.667,0.334-2.166-1.333-2.333
		c-1.667-0.167-2.667,4.833-3,6.5c-0.333,1.667-1.333,4.667-2.333,6s-3.667,9-4.167,11.833s-1,13.334-1.5,16.167
		s-1.333,4.333-2.333,5.5c-1,1.166-5.333,11.333-7,12.666C5.703,87.888,7.119,35.555,7.119,35.555z"/>
	<path d="M62.979,68.049c-2.862,0.954-4.974,4.802-5.15,7.798c-0.094,1.603-0.731,6.833-4.959,6.833
		c-1.077,0-1.871-0.289-2.361-0.858c-0.827-0.962-0.608-2.476-0.605-2.491l0.289-1.899l-1.455,1.255
		c-0.024,0.021-2.51,2.131-6.143,1.829c-3.515-0.294-5.014-3.604-5.077-3.745l-0.405-0.918l-0.738,0.694
		c-0.039,0.037-0.998,0.916-3.079,0.639c-2.093-0.279-3.612-3.252-3.627-3.282c-0.176-0.349-0.602-0.49-0.951-0.315
		c-0.35,0.175-0.491,0.6-0.316,0.95c0.075,0.15,1.868,3.674,4.707,4.053c1.672,0.223,2.815-0.16,3.5-0.522
		c0.742,1.227,2.58,3.585,5.867,3.859c2.702,0.225,4.816-0.67,6.037-1.38c0.091,0.687,0.325,1.501,0.911,2.188
		c0.771,0.904,1.93,1.362,3.444,1.362c4.345,0,6.141-4.219,6.374-8.167c0.146-2.481,1.9-5.775,4.184-6.536
		c1.748-0.583,3.128,0.411,4.042,1.069l0.536,0.367c1.231,0.738,5.538,3.106,9.293,2.594c0.388-0.053,0.659-0.41,0.606-0.798
		c-0.053-0.388-0.41-0.659-0.798-0.606c-3.382,0.461-7.568-1.923-8.372-2.406l-0.437-0.301
		C67.29,68.587,65.415,67.237,62.979,68.049z"/>
	<path d="M57.829,75.84c-0.229,3.358,0.729,5.974,1.574,8.282c1.049,2.866,1.808,4.937,0.06,7.351
		c-3.561,4.917-8.809,1.477-9.03,1.328l-1.025-0.688l-0.078,1.235c-0.015,0.232-0.449,5.68-8.639,5.832
		c-8.415,0.156-11.555-6.008-11.684-6.271L28.6,92.087l-0.696,0.599c-0.204,0.176-5.07,4.257-12.339-0.074
		c-7.212-4.297-5.437-9.927-5.358-10.165c0.124-0.37-0.076-0.772-0.445-0.897c-0.37-0.125-0.771,0.071-0.896,0.44
		c-0.023,0.069-2.257,6.934,5.975,11.838c6.583,3.922,11.574,1.524,13.311,0.408c1.127,1.793,4.812,6.503,12.565,6.358
		c7.264-0.135,9.273-4.167,9.822-6.123c1.951,0.95,6.668,2.531,10.072-2.17c2.19-3.025,1.187-5.767,0.124-8.669
		c-0.796-2.175-1.699-4.641-1.491-7.698c0.027-0.391-0.269-0.729-0.659-0.755C58.193,75.154,57.856,75.45,57.829,75.84z"/>
	<path d="M42.085,45.508c-0.301,0.248-0.344,0.692-0.097,0.994c0.247,0.302,0.693,0.347,0.996,0.102
		c0.026-0.021,2.699-2.139,7.315-1.677c4.671,0.467,7.707,3.434,7.736,3.464l0.055,0.054l0.065,0.042
		c0.278,0.176,0.952,0.596,1.56,0.939c-0.415,0.265-0.918,0.56-1.207,0.727l-0.504,0.295c-0.682,0.409-3.899,1.384-8.224,0.903
		c-4.305-0.479-5.708-1.925-5.721-1.94c-0.266-0.282-0.712-0.303-0.998-0.042c-0.286,0.261-0.313,0.7-0.057,0.99
		c0.167,0.189,1.776,1.863,6.62,2.401c4.642,0.516,8.142-0.516,9.109-1.097l0.485-0.283c1.799-1.042,2.434-1.463,2.434-2.064
		c0-0.031-0.002-0.062-0.005-0.093l-0.046-0.456l-0.508-0.217c-0.253-0.084-1.287-0.694-2.125-1.226
		c-0.389-0.376-3.562-3.311-8.529-3.807C45.207,42.993,42.21,45.405,42.085,45.508z"/>
	<path d="M53.536,44.888c0,0,2.667,1.5,2.667,3.5s-1,3.5-3.667,3.833s-6.667-0.333-6.5-4.333
		C46.203,43.888,52.036,44.055,53.536,44.888z"/>
	<g>
		<path style="fill:#FFFFFF;" d="M89.869,176.888c0,0-0.501-0.167-1.667-0.834c-1.166-0.666-2-0.666-2-0.666
			s0.292,1.291,0.292,2.416s0.375,2.125,1.375,1.75S89.869,176.888,89.869,176.888z"/>
		<path style="fill:#FFFFFF;" d="M92.619,180.179c0,0-1.125,1-1.75,1.625s-0.625,0.75,0.875,0.375c0,0,1.959-0.208,2.292-0.708
			c0.333-0.5,0.084-1.333-0.5-1.333c-0.584,0-1.418-0.416-1.084-1l1.667-1.5c0,0,0.167-0.25,0.167-0.75s0.334-7.084,0.25-7.584
			c-0.084-0.5-0.416-1.833-0.5-2.25c-0.084-0.416,0.25-0.583,0.75-0.333s1.5,1.333,1.5,1.333s0.416,0.5,0.333,1
			s-0.333,4.5-0.333,4.75s0.5,0.917,0.75,0.667s4.333-4.417,4.583-4.667s0.334-0.666,0.667-0.916
			c0.333-0.25,0.666-0.334,1.166,0.416s1,1.584,1,1.584s-0.083,0.916-0.583,1.166s-7.667,6-7.917,6.25s-0.584,0.584-0.5,1
			c0.084,0.417,0.167,1.334,0.167,1.334s0.501,0.5,0.917,0.166c0.416-0.333,3.582-2.083,3.916-2.25
			c0.334-0.166,0.167-0.5,0.917-0.25s1.501,1.417,1.667,2c0.166,0.584-0.084,0.668-0.584,0.834s-3.5,2-3.5,2
			s-0.332,0.166,0.084,0.333c0.416,0.167,1.166,0.75,1.166,0.75s1.083,0.167,0.75,0.917s-1.166,1.75-1.666,3.166
			c-0.5,1.417-0.834,5.418-0.834,6.334s0.666,1.417,1.75,1.5c1.084,0.083,4.668,0.333,6.334-0.084
			c1.666-0.416,3.584-2.749,3.75-3.166c0.166-0.417,0.25-1,0.25-1.334c0-0.333,0.499-0.25,0.916,0.167
			c0.417,0.417,1.834,3.667,2.167,4.417s0.001,1.5-0.583,1.916c-0.584,0.417-2.5,0.834-3.5,1.167c-1,0.333-8.5,0.167-10.5-0.167
			c-2-0.333-2.584-0.833-2.667-2.833s0.167-7.667,0.167-7.667s-0.083-0.832-0.5-0.666c-0.417,0.166-3.084,3.25-3.834,3.916
			c-0.75,0.667-6.332,6.084-6.916,6.334c-0.584,0.25-2.918,0-3.334,0s-0.5-0.584,0.167-0.834s1.166-0.583,1.583-0.833
			s9.584-10.583,9.834-11.167c0.25-0.583,0.333-1.082,0.333-1.416s-0.584-0.833-1.167-0.5c-0.583,0.333-3.584,2.417-4.25,2.75
			c-0.666,0.333-1.75,0-2.25-0.167c-0.5-0.167-0.5-0.666-0.083-1.083c0.417-0.417,5.167-4.5,5.417-4.667
			C91.786,180.054,93.286,179.138,92.619,180.179z"/>
	</g>
	<path d="M28.536,161.721c-1.5-0.167-5.5-5-4-9.333c1.5-4.333,5-4.333,5-4.333s3.167-0.334,5.333,2.666
		c2.167,3,0.667,9.166-1.5,10.5C31.203,162.555,28.536,161.721,28.536,161.721z"/>
	<path d="M15.036,143.721c0,0-4.833,2.334-3.333,8.5c1.532,6.299,6,6.167,8.167,6c2.167-0.166,5.833-3.333,3.833-9.166
		C21.703,143.221,15.869,143.055,15.036,143.721z"/>
	<path d="M7.036,155.555c0,0,2.333-1.667,6.5,1.5c4.167,3.166,4,8.5,3.167,9.833c-0.833,1.333-6.5,2.333-9.667-1.833V155.555z"/>
	<path d="M48.369,121.221c0,0,4.5-4.167,0.667-9.667c-3.833-5.5-8.333-4.333-10.167-3.166c-1.833,1.166-3.333,6,0.667,10
		S47.703,121.721,48.369,121.221z"/>
	<path d="M54.369,110.721c0,0,3.333-3,1.667-7.5s-6.333-6.334-9.667-4.5c-3.333,1.833-2.667,6.5,0,9.333
		C49.036,110.888,52.203,111.721,54.369,110.721z"/>
	<path d="M64.203,101.555c0,0-4.5-3.333-2.5-10.833c1.677-6.288,6-6.667,9-5.5c3,1.167,5.5,5.5,2.667,10.667
		C70.536,101.055,65.203,102.388,64.203,101.555z"/>
	<path d="M66.869,113.388c0,0,0.999-5.001,6.833-5.667c5.833-0.667,6.999,3.5,7.166,4.333c0.167,0.834-1.166,5-6.333,5
		C69.369,117.055,67.369,114.888,66.869,113.388z"/>
	<path d="M64.036,126.388c0,0,1-5.501,7.834-6.667c6.832-1.167,9.332,3.5,9.332,4.667c0,1.166-1.165,5.666-7.666,6.333
		C67.036,131.388,64.369,128.222,64.036,126.388z"/>
	<path d="M37.003,128.171c0.005,0.03,0.491,2.964,0.491,4.717c0,1.444,0.382,3.797,0.573,4.881c-1.951,0.656-3.887,2.594-4.767,3.51
		l-0.266,0.273l-2.578,2.578l0.654,0.49c0.083,0.062,2.049,1.534,3.727,2.541l1.325,0.816c1.038,0.649,1.788,1.119,2.369,1.264
		c0.22,0.055,0.416,0.168,0.565,0.271c-0.131,0.731-1.092,6.083-1.092,6.083l1.396,0.25l1.231-6.864l-0.261-0.262
		c-0.065-0.065-0.663-0.645-1.497-0.853c-0.362-0.091-1.102-0.554-1.959-1.09l-1.347-0.83c-1.063-0.638-2.231-1.462-2.945-1.977
		c0.586-0.586,1.414-1.414,1.414-1.414l0.286-0.294c0.809-0.842,2.958-3.079,4.654-3.34l0.726-0.112l-0.137-0.721
		c-0.007-0.035-0.654-3.456-0.654-5.201c0-1.171-0.191-2.768-0.34-3.828c0.967,0.301,2.383,0.759,3.368,1.153
		c1.591,0.636,5.985,3.586,8.712,6.954l0.277,0.343l0.43-0.098c0.037-0.008,3.669-0.826,7.733-1.151
		c3.687-0.295,6.454-0.542,8.146-0.784c-0.4,1.001-0.875,2.187-0.875,2.187c-0.289,0.869-3.69,6.211-6.683,7.944l-0.718,0.415
		l0.522,0.645c0.021,0.026,2.104,2.609,3.049,5.289l1.337-0.472c-0.755-2.14-2.117-4.145-2.827-5.11
		c3.149-2.233,6.318-7.223,6.664-8.263l1.828-4.566l-1.338,0.32c-1.32,0.33-5.451,0.68-9.218,0.981
		c-3.441,0.275-6.47,0.872-7.519,1.093c-2.927-3.459-7.29-6.363-8.994-7.045c-1.678-0.671-4.446-1.487-4.563-1.521l-1.085-0.319
		L37.003,128.171z"/>
	<path d="M50.789,151.982c-0.631,0.901-2.493,3.408-3.511,4.172l0.851,1.134c1.09-0.818,2.714-2.965,3.441-3.964
		c2.129,1.16,6.553,2.512,6.761,2.575l0.411-1.356c-1.5-0.455-5.675-1.831-6.966-2.735l-0.58-0.406L50.789,151.982z"/>
	<polygon points="52.696,135.833 54.043,136.276 65.378,101.271 64.028,100.838 	"/>
	<path d="M53.273,110.604c0.03,0.046,3.006,4.685,4.968,8.444l1.257-0.655c-1.992-3.818-5.002-8.509-5.032-8.556L53.273,110.604z"/>
	<path d="M47.818,121.166c0.035,0.043,3.529,4.376,6.977,9.137l1.148-0.831c-3.471-4.793-6.987-9.153-7.022-9.197L47.818,121.166z"
		/>
	<polygon points="55.661,128.211 56.078,129.565 65.559,126.737 65.18,125.372 	"/>
	<path d="M59.59,115.57l0.559,1.303c0.058-0.025,5.8-2.481,7.88-2.961l-0.318-1.381C65.507,113.039,59.831,115.467,59.59,115.57z"/>
	<path d="M6.527,87.603c0.068,0.213,6.736,20.49,24.16,29.284c-4.835,0.192-15.513-0.286-23.521-7.202l-0.927,1.072
		c11.118,9.602,26.582,7.429,27.234,7.331l2.517-0.375l-2.348-0.98C15.011,108.958,7.947,87.39,7.878,87.173L6.527,87.603z"/>
	<path d="M6.348,105.201c0.395,0.43,9.847,10.545,24.928,12.557l0.187-1.405c-14.556-1.94-23.979-12.009-24.072-12.111
		L6.348,105.201z"/>
	<path d="M6.254,115.073c0.079,0.137,7.806,13.331,24.425,20.548c-4.032,1.16-14.393,3.369-23.663-1.202l-0.627,1.271
		c12.304,6.067,25.992,0.915,26.568,0.692l1.7-0.655l-1.696-0.665c-17.375-6.82-25.398-20.554-25.477-20.692L6.254,115.073z"/>
	<path d="M6.264,127.278c0.36,0.284,9.008,6.978,25.346,9.146l0.186-1.405c-15.923-2.112-24.569-8.787-24.655-8.854L6.264,127.278z"
		/>
	<path d="M78.083,108.74l0.572,1.297c0.142-0.062,14.322-6.453,23.664-22.966l-1.234-0.698
		C91.985,102.458,78.22,108.679,78.083,108.74z"/>
	<path d="M79.611,112.019l0.182,1.405c0.182-0.023,18.333-2.46,35.584-11.914l-0.682-1.243
		C97.687,109.589,79.79,111.995,79.611,112.019z"/>
	<path d="M79.156,110.545l0.426,1.352c0.182-0.057,18.293-5.847,29.125-16.845l-1.01-0.994
		C97.116,104.801,79.335,110.489,79.156,110.545z"/>
	<path d="M79.329,130.21l0.218,1.386c0.324-0.005,32.686-0.723,57.255-19.647l-0.865-1.123
		c-18.698,14.402-41.944,18.087-51.71,19.026c7.58-3.217,23.142-11.288,33.563-26.735l-1.176-0.793
		C102.759,122.863,79.561,130.139,79.329,130.21z"/>
	<path d="M82.533,129.7l0.338,1.376c0.28-0.068,28.199-7.049,44.478-22l-0.959-1.044C110.381,122.734,82.809,129.632,82.533,129.7z"
		/>
	<rect x="6.465" y="30.929" transform="matrix(-0.7557 -0.6549 0.6549 -0.7557 -6.4649 60.8645)" width="3.308" height="1.417"/>
	<rect x="6.442" y="27.679" transform="matrix(-0.7474 -0.6644 0.6644 -0.7474 -2.3424 55.8858)" width="6.021" height="1.417"/>
	<rect x="5.379" y="23.263" transform="matrix(-0.6735 -0.7392 0.7392 -0.6735 -0.2272 47.8421)" width="10.146" height="1.417"/>
	<rect x="4.651" y="18.929" transform="matrix(-0.6545 -0.7561 0.7561 -0.6545 5.0659 41.591)" width="14.769" height="1.417"/>
	<rect x="6.359" y="16.096" transform="matrix(-0.6374 -0.7705 0.7705 -0.6374 11.807 39.1658)" width="17.52" height="1.417"/>
	<rect x="9.769" y="14.013" transform="matrix(-0.597 -0.8023 0.8023 -0.597 18.0571 38.5141)" width="17.867" height="1.417"/>
	<rect x="14.534" y="13.346" transform="matrix(-0.584 -0.8117 0.8117 -0.584 24.949 40.8943)" width="16.837" height="1.417"/>
	<rect x="19.706" y="12.929" transform="matrix(-0.5271 -0.8498 0.8498 -0.5271 30.3327 44.1557)" width="15.494" height="1.417"/>
	<rect x="24.528" y="12.679" transform="matrix(-0.5111 -0.8595 0.8595 -0.5111 36.3964 47.4797)" width="14.349" height="1.417"/>
	<rect x="28.626" y="12.929" transform="matrix(-0.5113 -0.8594 0.8594 -0.5113 43.1186 51.7952)" width="15.321" height="1.417"/>
	<rect x="32.6" y="13.18" transform="matrix(-0.4384 -0.8988 0.8988 -0.4384 45.3458 56.1095)" width="15.206" height="1.417"/>
	<rect x="38.313" y="11.679" transform="matrix(-0.4244 -0.9055 0.9055 -0.4244 51.7472 57.6695)" width="11.78" height="1.417"/>
	<rect x="42.367" y="11.179" transform="matrix(-0.3546 -0.935 0.935 -0.3546 53.2791 60.5502)" width="10.338" height="1.417"/>
	<rect x="45.941" y="10.513" transform="matrix(-0.3387 -0.9409 0.9409 -0.3387 56.8714 62.4145)" width="8.857" height="1.418"/>
	<rect x="50.383" y="10.096" transform="matrix(-0.2775 -0.9607 0.9607 -0.2775 58.971 65.9568)" width="7.807" height="1.417"/>
	<rect x="53.394" y="9.93" transform="matrix(-0.1751 -0.9846 0.9846 -0.1751 56.742 68.8196)" width="7.618" height="1.417"/>
	<rect x="56.431" y="10.346" transform="matrix(-0.1036 -0.9946 0.9946 -0.1036 55.7181 72.3272)" width="8.043" height="1.418"/>
	<rect x="60.198" y="9.679" transform="matrix(-0.05 -0.9987 0.9987 -0.05 56.3399 74.3636)" width="6.675" height="1.417"/>
	<rect x="63.103" y="10.096" transform="matrix(-0.0926 -0.9957 0.9957 -0.0926 62.1205 78.2211)" width="7.198" height="1.417"/>
	<rect x="65.931" y="10.346" transform="matrix(-0.1036 -0.9946 0.9946 -0.1036 66.202 81.7761)" width="8.043" height="1.418"/>
	<rect x="69.016" y="10.763" transform="matrix(-0.0939 -0.9956 0.9956 -0.0939 68.932 85.6769)" width="8.873" height="1.417"/>
	<rect x="70.785" y="12.179" transform="matrix(-0.0139 -0.9999 0.9999 -0.0139 64.9666 89.8453)" width="12.001" height="1.418"/>
	<rect x="79.493" y="7.055" width="1.418" height="8"/>
	<rect x="82.077" y="7.034" transform="matrix(-0.9949 -0.1012 0.1012 -0.9949 164.0174 30.6002)" width="1.417" height="8.209"/>
	<rect x="84.827" y="6.851" transform="matrix(-0.989 -0.148 0.148 -0.989 168.6158 32.9926)" width="1.418" height="6.741"/>
	<rect x="87.494" y="6.983" transform="matrix(-0.9774 -0.2116 0.2116 -0.9774 172.2614 38.7113)" width="1.417" height="6.309"/>
	<rect x="90.327" y="7.177" transform="matrix(-0.9848 -0.1735 0.1735 -0.9848 178.945 35.7554)" width="1.418" height="5.755"/>
	<rect x="93.493" y="7.094" transform="matrix(-0.9545 -0.2982 0.2982 -0.9545 181.1682 47.4208)" width="1.418" height="5.588"/>
	<rect x="96.327" y="6.879" transform="matrix(-0.9398 -0.3417 0.3417 -0.9398 184.8784 52.1804)" width="1.417" height="5.852"/>
	<rect x="99.994" y="6.865" transform="matrix(-0.9486 -0.3165 0.3165 -0.9486 192.8878 52.4372)" width="1.417" height="7.379"/>
	<rect x="103.577" y="6.916" transform="matrix(-0.9678 -0.2516 0.2516 -0.9678 202.3906 48.3245)" width="1.417" height="8.611"/>
	<rect x="106.41" y="6.681" transform="matrix(-0.9582 -0.2861 0.2861 -0.9582 206.4299 53.4371)" width="1.417" height="9.914"/>
	<rect x="109.577" y="6.76" transform="matrix(-0.9538 -0.3005 0.3005 -0.9538 211.525 58.81)" width="1.417" height="12.756"/>
	<rect x="113.243" y="6.373" transform="matrix(-0.9322 -0.362 0.362 -0.9322 215.1179 68.2447)" width="1.416" height="15.197"/>
	<rect x="117.244" y="6.522" transform="matrix(-0.9266 -0.3761 0.3761 -0.9266 221.2077 75.2898)" width="1.416" height="19.065"/>
	<rect x="120.826" y="5.685" transform="matrix(-0.9121 -0.4099 0.4099 -0.9121 225.2278 83.2274)" width="1.418" height="23.573"/>
	<rect x="124.66" y="5.843" transform="matrix(-0.9215 -0.3884 0.3884 -0.9215 233.4581 85.4727)" width="1.418" height="26.59"/>
	<rect x="128.994" y="5.61" transform="matrix(-0.9031 -0.4295 0.4295 -0.9031 238.757 91.4911)" width="1.417" height="26.39"/>
	<rect x="132.743" y="6.011" transform="matrix(-0.9026 -0.4306 0.4306 -0.9026 245.2293 95.7749)" width="1.417" height="28.254"/>
	<rect x="136.41" y="8.396" transform="matrix(-0.8749 -0.4843 0.4843 -0.8749 246.6054 106.975)" width="1.418" height="26.484"/>
	<rect x="138.993" y="14.699" transform="matrix(-0.809 -0.5878 0.5878 -0.809 237.5772 128.7252)" width="1.417" height="22.132"/>
	
		<rect x="140.66" y="24.267" transform="matrix(-0.7191 -0.6949 0.6949 -0.7191 221.3249 151.9145)" width="1.418" height="13.908"/>
	
		<rect x="141.577" y="30.554" transform="matrix(-0.6134 -0.7898 0.7898 -0.6134 201.6748 169.3367)" width="1.417" height="9.501"/>
	<polygon points="16.203,165.721 17.369,167.721 17.203,168.554 16.369,169.054 15.703,166.721 	"/>
	<polygon points="19.869,158.221 21.203,164.221 22.536,163.055 20.536,156.221 	"/>
</g>
</svg>
