<?xml version="1.0" encoding="iso-8859-1"?>
<!-- Generator: Adobe Illustrator 19.1.0, SVG Export Plug-In . SVG Version: 6.00 Build 0)  -->
<svg version="1.1" id="&#xB808;&#xC774;&#xC5B4;_1" xmlns="http://www.w3.org/2000/svg" xmlns:xlink="http://www.w3.org/1999/xlink"
	 x="0px" y="0px" viewBox="0 0 153.071 238.11" style="enable-background:new 0 0 153.071 238.11;" xml:space="preserve">
<rect style="fill:#E60012;" width="153.071" height="238.11"/>
<g>
	<path style="fill:#FFFFFF;" d="M7.952,32.221v181.333l-0.333,8c0,0,2.166,8.333,9.833,8.333l11.667,0.167l78.833-3.5l37.333-7
		l-0.167-64.167l0.167-122.999l-14.5-12.167l-65.5-12.166l-19,0.167l-29.833,9.333L7.952,32.221z"/>
	<path style="fill:#E60012;" d="M26.452,229.722c0,0-4.5-2.166-6.5-6c0,0-1.84,4.245-6.666,4.666c-3.833,0.334-5.5-6.832-5.5-8.166
		c0-1.334,0.166-6.667,0.166-6.667s2.001-2.667,5.667-2.5c3.666,0.167,6.333,3.833,6.333,3.833s1.5-3.833,3-4.833
		c0,0-6.167-2.334-6.167-10.667s9.167-11,14.5-8s5.667,7.667,5.667,7.667s3-3.333,8.833-3.5c5.833-0.167,10.833,3.333,11.5,9.5
		c0,0,5.167-1.667,11.167,0.833c6,2.5,5.5,13.168,4.5,15.834c-1,2.666,5.5,5,5.5,5l0.5,3.666l-48-0.166L26.452,229.722z"/>
	<path style="fill:#E60012;" d="M79.952,174.388c0,0-2.001-9.167,2.666-15c4.667-5.833,12.834-4.666,12.834-4.666s0-6,6.333-9.5
		s12.5-2.334,12.5-2.334l10.167,5.334c0,0,0.5,4.5-0.5,6.5c0,0,7-1,12.5,6s2.666,12.666,1.666,14.833c-1,2.167-4,6.333-10.833,5.333
		c0,0-0.833,5.333-6.333,6s-9-4.166-9-5.333c0,0,0.333,7.5-10.167,6.5S79.952,174.388,79.952,174.388z"/>
	<path style="fill:#E60012;" d="M91.285,79.055c0,0-4.666,1.334-7.833-2.166s-3-9.667,3-11.667c0,0-1.333-4.666,1-8.333
		s9.334-3.833,11.5-2s3.666,5.667,3.666,5.667s3.166-5,9-6.5s15.5-1,19.5,10.667c0,0,4.168-2,8.334-0.5s6,4.833,6,4.833v14.667
		l-17.167,12l-16.167,6.333l-2.833-1.166c0,0-5.167-1.667-7.5-5l-0.5,1.166c0,0,0.667,6.001-1.833,10.334l-0.667,2.666l-16.333-14.5
		c0,0,2.166-7.999,12.833-6.166C95.285,89.388,89.618,84.221,91.285,79.055z"/>
	<path style="fill:#007581;" d="M27.619,58.721c0,0,0.667-5.5,6.167-8.333s13.667-1.333,18.5,3.167s10.167,15.833,10.333,16.333
		s12.499,16.999,16.166,20.833c3.666,3.833,17.334,15.834,19.667,18.167s9,8.166,9,8.166s4.499,4.667,12.666,7.667
		s25,6.833,25,6.833v23.833c0,0-25.333-2.499-44.333-23.166l-8.667,0.666H79.285l-9.833-5.333l-13.5-5.167l-5.167-7.166l-6-8
		l-4.167-13l-3-23.5L27.619,58.721z"/>
	<path style="fill:#FDD000;" d="M28.619,58.555c0,0,26.833-6.167,25.5,23.833c0,0-7.167,1.333-9.667,6.5
		c-2.5,5.166,0.5,18.499,11,28.333s25.666,12.666,29.833,14.166c0,0,10.667,0.833,14,1c0,0,0.499,0.666-1.167,1
		s-10.833,0.834-10.833,0.834s1.5,2,1,4s-1.667,2.667-3.167,2.5c-1.5-0.167-6.166-0.666-6.833-0.5c-0.667,0.166-2.5-1.334-2-2.334
		s-11.333-7.333-11.333-7.333s-11.166-5.166-19.833-14.5c-8.667-9.333-10.833-25.833-10-33.833c0,0-1.5-5.334-2.833-8
		c-1.333-2.667-3-6-3.333-6.833c0,0-5.166-1.834-6.833-2.334s-5.833-0.333-7,0c-1.167,0.334-0.167-1.166,2-3s5.833-3.167,10.5-3.333
		L28.619,58.555z"/>
	<path style="fill:#E60012;" d="M7.952,32.221c0,0,19.834,1.333,22.167,1.167s6.5-0.5,7.167-5s-5.167-6.5-5.167-6.5s5-0.5,9.5-1.833
		s7.667-2.833,8.167-6.333s-1.667-5.167-3.5-5.5h-30c0,0-8.5,1.167-8.5,9L7.952,32.221z"/>
	<path style="fill:#E60012;" d="M57.619,8.055c0,0-1.5,2-1.833,5.333s2.833,9.166,14.333,7.666c0,0-0.501,5.667,10.666,9.167
		s26.833,2.167,30,1.667c0,0,2.167,4.167,12.167,5s20.166-0.667,22.333-2v-18c0,0-1.834-8.833-10.167-9L57.619,8.055z"/>
	<path style="fill:#E60012;" d="M72.118,49.888c0,0-4.666-1.167-7.833,2.833c-3.166,4-0.333,9.833,5,10.833
		c5.333,1,9.167-5.5,9.167-5.5s6.332-0.5,8.666-5.333s-1.667-9.667-5.833-10.167C77.118,42.055,72.286,44.722,72.118,49.888z"/>
	<path style="fill:#E60012;" d="M60.452,65.555c0,0,6.667-3.499,9.833,2.334c3.167,5.833-1,10.833-1,10.833
		S61.952,69.055,60.452,65.555z"/>
	<path style="fill:#FDD000;" d="M110.785,84.055c0,0-1.333-4.5,3.667-6.666c5-2.167,8.5,1.166,7.833,3.333
		c0,0-3.499,1.333-4.333,4.5C117.952,85.221,112.452,83.055,110.785,84.055z"/>
	<path style="fill:#FDD000;" d="M105.452,172.722c0,0-0.167-2.5,1.833-3.667c2-1.167,7.166-0.333,8.833,3c0,0-3.334,2.167-4,4.5
		C112.118,176.555,108.952,172.722,105.452,172.722z"/>
	<path style="fill:#FDD000;" d="M40.285,225.055c0,0,0.704-3.092,3.833-4.5c3.333-1.5,8.833-0.834,10,3.333c0,0-5.167,2.667-7,6.167
		h-1C46.119,230.055,45.619,226.055,40.285,225.055z"/>
	<path style="fill:#E60012;" d="M119.952,107.221c0,0-2,3.666-0.667,9.5c1.333,5.833,7.667,7.166,14,6.166
		c6.333-1,9.834-4.666,9.167-13.499c-0.667-8.834-7.667-9.167-11.667-9.334C126.785,99.888,119.952,107.221,119.952,107.221z"/>
	<path style="fill:#E60012;" d="M135.118,183.888c0,0-6.5-0.5-8.5,4.167c-2,4.667,0.168,10.001,6.334,10.667
		c6.166,0.666,7.666-2.667,8.333-6.667C141.952,188.055,139.285,184.222,135.118,183.888z"/>
	<path style="fill:#E60012;" d="M93.118,213.222c0,0-4.333-3-9.833-1.5s-5.501,6.332-4.833,8.666c0.666,2.334,2.499,5.167,3,5.667
		c0.5,0.5,3.999,2.667,4.666,2.667s8.667,0.833,8.667,0.833s5-3.499,5-4.833c0-1.334-1.167-7.667-1.167-7.667L93.118,213.222z"/>
	<path style="fill:#E60012;" d="M7.785,171.222c0,0,1.667-2.334,6.167-0.167c4.5,2.167,5.167,7,5.167,7l-2,4.167
		c0,0-3.5,5.666-9.333,3.833V171.222z"/>
	<path style="fill:#E60012;" d="M13.952,147.888c0,0,0.5-3.667,4.667-5.5c4.167-1.833,7.666,0.668,8.833,4.334
		c1.167,3.666,0.667,8.499-4.5,9.166C17.785,156.555,12.785,153.554,13.952,147.888z"/>
	<path d="M17.706,7.346c-5.861,0-10.63,4.768-10.63,10.63v202.158c0,5.861,4.769,10.63,10.63,10.63h117.658
		c5.861,0,10.63-4.769,10.63-10.63V17.976c0-5.861-4.768-10.63-10.63-10.63H17.706z M8.494,220.134V17.976
		c0-5.08,4.133-9.213,9.213-9.213h117.658c5.08,0,9.212,4.133,9.212,9.213v202.158c0,5.08-4.132,9.212-9.212,9.212H17.706
		C12.626,229.346,8.494,225.214,8.494,220.134z"/>
	<path d="M32.85,50.127c-3.298,1.976-5.718,5.436-6.02,8.61c-0.035,0.371-0.052,0.749-0.052,1.133c0,6.21,4.368,13.888,4.895,14.792
		c1.602,2.746,2.686,4.94,2.686,9.088c0,0.404-0.01,0.828-0.032,1.271c-0.027,0.58-0.046,1.249-0.046,1.995
		c0,10.711,3.852,37.458,40.568,47.472c0.835,0.218,2.158,0.761,2.514,1.293c0.016,0.024,0.023,0.056,0.023,0.091
		c0,0.116-0.076,0.27-0.105,0.323c-0.334,0.624-1.156,1.15-1.495,1.15c-2.101,0-7.403,0.185-11.96,1.785
		c-0.906-0.389-4.13-1.638-8.517-1.784c-5.22-0.175-8.819,2.602-9.964,4.511c-1.323,2.203-1.56,2.954-1.101,3.493
		c0.124,0.145,0.484,0.457,1.139,0.195l0.682-0.455c1.242-0.981,4.541-3.571,13.95-1.695c0.593,0.386,1.931,1.435,2.259,2.53
		c0.475,1.581,1.129,3.113,1.545,3.946c0.233,0.466,0.713,0.706,1.284,0.644c0.835-0.092,1.891-0.867,2.205-2.122
		c0.139-0.558,0.152-1.27,0.165-2.023c0.019-1.059,0.043-2.376,0.481-2.814c0.763-0.752,8.844-2.951,13.57-2.299
		c4.931,0.681,6.561,0.193,7.584-2.263c0.955-2.295-2.574-6.436-3.292-7.243l-1.059,0.941c1.493,1.682,3.493,4.675,3.042,5.757
		c-0.597,1.433-1.104,2.091-6.082,1.403c-4.943-0.682-13.557,1.493-14.765,2.701c-0.843,0.843-0.87,2.342-0.896,3.791
		c-0.012,0.671-0.023,1.304-0.124,1.705c-0.164,0.658-0.689,0.975-0.924,1.021c-0.391-0.807-0.955-2.146-1.376-3.553
		c-0.571-1.902-2.876-3.339-2.974-3.399l-0.107-0.065l-0.124-0.025c-8.362-1.696-12.334-0.024-14.255,1.233
		c0.119-0.21,0.226-0.402,0.389-0.675c0.936-1.559,4.126-3.976,8.703-3.823c4.778,0.16,8.186,1.749,8.22,1.766l0.268,0.127
		l0.28-0.103c4.404-1.615,9.687-1.789,11.755-1.789c1.035,0,2.256-0.982,2.746-1.9c0.361-0.674,0.365-1.338,0.011-1.869
		c-0.794-1.19-3.071-1.809-3.328-1.875c-38.249-10.432-39.881-39.401-39.47-48.031c0.256-5.375-1.018-8.007-2.846-11.141
		c-1.945-3.335-5.115-10.263-4.657-15.076c0.218-2.287,1.953-5.501,5.337-7.529c2.506-1.501,6.697-2.787,12.434-0.385
		c6.817,2.854,8.515,5.86,11.898,11.85c1.812,3.209,4.068,7.203,7.799,12.409c10.026,13.991,14.39,17.874,22.311,24.923l3.292,2.941
		c2.933,2.64,5.443,5.138,7.871,7.554c5.71,5.682,10.641,10.588,17.812,13.816c9.963,4.482,27.485,7.768,27.662,7.8l0.258-1.393
		c-0.174-0.033-17.531-3.287-27.338-7.7c-6.937-3.121-11.782-7.943-17.394-13.527c-2.44-2.428-4.964-4.939-7.924-7.603l-3.297-2.946
		c-7.845-6.982-12.166-10.828-22.101-24.69c-3.687-5.145-5.922-9.102-7.718-12.281c-3.43-6.073-5.32-9.418-12.585-12.46
		C41.657,47.599,36.788,47.768,32.85,50.127z"/>
	<path d="M86.982,133.514l-0.061,1.416c0.483,0.02,11.927,0.468,18.68-2.908l-0.633-1.268
		C98.545,133.965,87.098,133.518,86.982,133.514z"/>
	<path d="M114.715,127.638c0.38,0.263,9.541,6.464,30.459,9.784l0.223-1.4c-20.558-3.263-29.785-9.487-29.876-9.55L114.715,127.638z
		"/>
	<path d="M111.799,130.237c0.374,0.353,9.433,8.692,33.212,12.351l0.215-1.4c-23.284-3.583-32.365-11.898-32.455-11.982
		L111.799,130.237z"/>
	<path d="M107.005,130.909c0.334,0.577,8.517,14.181,38.03,17.683l0.166-1.408c-28.734-3.409-36.892-16.85-36.971-16.985
		L107.005,130.909z"/>
	<path d="M100.737,133.504c0.132,0.161,13.513,16.103,44.396,22.91l0.305-1.385c-30.366-6.693-43.477-22.269-43.604-22.425
		L100.737,133.504z"/>
	<path d="M48.935,62.431c4.328,6.897,5.277,12.304,5.277,15.722c0,1.971-0.315,3.275-0.481,3.828
		c-3.412,0.998-7.433,2.52-9.293,5.443c-0.703,1.104-1.249,3.33-1.249,6.234c0,5.651,2.069,13.87,9.079,21.38
		c10.585,11.342,28.222,18.229,46.028,17.976c17.824-0.255,20.324-8.42,20.423-8.768l-1.363-0.389
		c-0.022,0.075-2.424,7.501-19.079,7.738c-17.419,0.249-34.651-6.466-44.972-17.524c-10.608-11.366-9.031-23.748-7.67-25.886
		c1.689-2.653,5.858-4.095,8.847-4.949l0.327-0.094l0.131-0.314c0.139-0.33,3.299-8.237-4.803-21.15L48.935,62.431z"/>
	<path d="M12.082,65.091c-0.209,0.242-0.23,0.593-0.052,0.858c0.178,0.265,0.512,0.378,0.816,0.276
		c0.075-0.026,7.646-2.491,15.746,2.273l0.719-1.222c-5.878-3.458-11.337-3.373-14.394-2.928c5.192-4.292,12.579-4.832,12.662-4.837
		l-0.086-1.415C27.089,58.122,17.548,58.771,12.082,65.091z"/>
	<path d="M14.031,63.893l0.508,1.323c0.064-0.024,6.421-2.421,13.146-1.46l0.2-1.403C20.785,61.339,14.303,63.789,14.031,63.893z"/>
	<path d="M61.883,90.972c-0.321,0.222-0.403,0.662-0.182,0.984c0.155,0.225,3.914,5.562,14.659,9.759
		c0.365,0.143,0.775-0.038,0.918-0.402c0.143-0.364-0.037-0.775-0.402-0.918c-10.297-4.022-13.972-9.191-14.008-9.243
		C62.646,90.831,62.204,90.75,61.883,90.972z"/>
	<path d="M58.195,94.32c-0.313,0.233-0.379,0.677-0.145,0.991c0.222,0.299,5.555,7.367,14.634,11.066
		c0.362,0.148,0.775-0.026,0.924-0.389c0.147-0.363-0.027-0.776-0.389-0.924c-8.701-3.544-13.98-10.53-14.033-10.6
		C58.953,94.151,58.509,94.086,58.195,94.32z"/>
	<path d="M56.103,97.205c-0.377,0.101-0.602,0.486-0.503,0.864c0.072,0.271,1.857,6.698,11.369,11.454
		c0.35,0.175,0.776,0.034,0.951-0.317c0.175-0.35,0.034-0.776-0.317-0.951c-8.895-4.447-10.616-10.488-10.632-10.549
		C56.868,97.329,56.48,97.104,56.103,97.205z"/>
	<path d="M51.32,96.359c-0.384,0.073-0.637,0.442-0.565,0.827c0.084,0.448,2.204,11.07,14.681,18.152
		c0.34,0.193,0.772,0.074,0.966-0.267c0.193-0.34,0.074-0.773-0.267-0.966c-11.877-6.742-13.967-17.078-13.987-17.182
		C52.075,96.539,51.705,96.286,51.32,96.359z"/>
	<path d="M81.87,104.317c-0.223,0.321-0.144,0.762,0.178,0.985c0.161,0.112,4.027,2.766,10.595,4.113
		c0.384,0.079,0.758-0.169,0.837-0.552c0.078-0.383-0.169-0.758-0.552-0.837c-6.263-1.285-10.034-3.862-10.071-3.888
		C82.535,103.916,82.094,103.996,81.87,104.317z"/>
	<path d="M80.228,108.784c-0.24,0.308-0.188,0.752,0.119,0.994c0.233,0.183,5.823,4.488,16.616,4.319
		c0.392-0.006,0.704-0.328,0.698-0.72c-0.007-0.391-0.329-0.704-0.72-0.697c-10.254,0.161-15.665-3.974-15.719-4.016
		C80.915,108.423,80.47,108.476,80.228,108.784z"/>
	<path d="M78.555,113.626c-0.236,0.311-0.177,0.755,0.134,0.992c0.295,0.224,7.344,5.48,19.948,5.145
		c0.392-0.01,0.7-0.336,0.689-0.727c-0.01-0.392-0.336-0.7-0.727-0.69c-12.074,0.322-18.983-4.804-19.052-4.856
		C79.235,113.254,78.792,113.315,78.555,113.626z"/>
	<path d="M70.991,115.351c-0.296,0.254-0.333,0.7-0.079,0.997c0.322,0.378,8.14,9.249,30.873,9.249c0.392,0,0.709-0.317,0.709-0.709
		s-0.317-0.709-0.709-0.709c-22.003,0-29.72-8.664-29.796-8.751C71.735,115.131,71.288,115.097,70.991,115.351z"/>
	<g>
		<path style="fill:#E60012;" d="M39.41,63.555c0,0,0.375-2.75,3.125-2.833s3.667,2.334,3.667,3.417s-0.75,3.083-3.417,3
			C40.119,67.055,39.119,64.805,39.41,63.555z"/>
		<path d="M41.285,61.93c0,0-1.75,0.125-1.875,1.625c-0.125,1.5,1.375,2.125,2.375,2s1.875-1.125,1.75-2
			C43.41,62.68,42.035,61.805,41.285,61.93z"/>
	</g>
	<path d="M97.452,107.721c0,0,30.5-18.333,47.833-26.667v12c0,0-24.499,13.5-37.333,24.334
		C107.952,117.388,100.619,111.888,97.452,107.721z"/>
	<path d="M64.619,130.222l-10,7.666c0,0,5.333,0.666,9.167,2c0,0,5.5-2.333,12-1.833c0,0,1.667-0.667,2.167-2
		c0.5-1.333-0.5-1.5-2.334-2C73.785,133.555,66.119,130.889,64.619,130.222z"/>
	<path d="M58.785,159.888c-1.684-1.107-1.667-2-1.667-2l19.666-17.166c0,0-6.333,0.666-9.333,2.333c0,0-0.666,0.667-0.833,2.167
		s-0.001,5-1.667,4.333c-1.667-0.667-1.667-3.333-1.667-3.333s-1.5-2.833-3-3.5c-1.5-0.667-8.667-1.834-12.833,0.833l-7.5,5.167
		c0,0-0.5-1.168-4.5-1.834s-5.667,3.834-5.667,6.167c0,2.333,2.333,4.001,2.333,5.167c0,1.166,0,1.334-0.5,2.5
		c-0.5,1.166-1.834,3.833-1.667,6.333s2.5,3.666,3.5,3.833c1,0.167,1.833,0,2.333,0.667c0.5,0.667,1.5,3.501,2.5,5.167
		c1,1.666,3,1.166,4.167,1.166s2.334-0.166,3.167,0.667c0.833,0.833,2.167,3.334,3,4.167c0.833,0.833,2.833,3.167,3.667,3.5
		c0.833,0.333,5.667,0.834,7.833,1.5c2.167,0.666,4.166,4,5.666,4.833c1.5,0.833,2.667,2.667,4,3.167c1.334,0.5,3.667,0.167,4.5,0.5
		c0.833,0.333,2.999,2.667,4.167,3c1.166,0.333,3.333-0.834,4.833,0.166s4.667,3,5.5,4.5s2.167,7.5,2.667,8.667
		c0.5,1.167,3.499,5.499,2.166,9.833s-5.167,4.5-8.5,3.5s-6-2.334-6.666-2.5c-0.667-0.166-6.167-2.833-6.167-2.833
		s-3.999,4.333-6.666,5.5l1,1.667c0,0,5.665-3.334,9.833,2.333l58.333,0.167c0,0,10,1.166,10.5-11.167
		c0,0-10.334-8.833-13.667-11.333c-3.333-2.5-34.666-24-35.833-24.667C94.618,182.388,64.619,163.721,58.785,159.888z"/>
	<path d="M19.639,141.528l-0.037,0.009c-0.221,0.059-5.425,1.49-6.342,5.527c-0.524,2.306,0.168,5.02,1.763,6.913
		c1.159,1.377,3.309,2.978,6.965,2.785c2.268-0.119,3.964-0.812,5.041-2.062c1.799-2.086,1.496-5.272,1.295-7.381
		c-0.157-1.644-1.092-3.174-2.634-4.308C23.892,141.69,21.574,141.121,19.639,141.528z M24.85,144.154
		c1.213,0.892,1.945,2.064,2.063,3.301c0.236,2.473,0.34,4.816-0.957,6.32c-0.826,0.958-2.148,1.472-4.042,1.571
		c-3.075,0.162-4.855-1.151-5.807-2.282c-1.029-1.222-1.605-2.848-1.605-4.4c0-0.438,0.046-0.87,0.14-1.285
		c0.716-3.15,5.123-4.415,5.3-4.465C21.469,142.598,23.394,143.083,24.85,144.154z"/>
	<path d="M7.168,170.841l0.898,1.096c0.101-0.081,2.493-1.96,5.492,0.041c1.769,1.18,3.073,3.303,3.402,5.54
		c0.204,1.384,0.128,3.418-1.388,5.253c-2.859,3.46-7.459,2.76-7.506,2.752l-0.231,1.398c0.221,0.036,5.442,0.853,8.83-3.248
		c1.441-1.744,2.044-4.004,1.698-6.361c-0.386-2.622-1.925-5.118-4.018-6.514C11.23,168.721,8.288,169.918,7.168,170.841z"/>
	<path d="M12.898,185.497l1.107-0.885c-0.051-0.063-5.054-6.471-2.549-13.829l-1.342-0.457
		C7.354,178.434,12.67,185.213,12.898,185.497z"/>
	
		<rect x="8.243" y="177.785" transform="matrix(-0.3941 -0.9191 0.9191 -0.3941 -152.0837 257.8471)" width="1.417" height="2.539"/>
	<path d="M84.486,210.833c-3.321,0.551-5.769,2.361-6.544,4.844c-1.783,5.706,2.523,9.581,2.708,9.743l0.938-1.063
		c-0.155-0.138-3.797-3.443-2.293-8.258c0.612-1.96,2.641-3.406,5.423-3.867c3.275-0.542,6.563,0.448,7.995,2.408l1.145-0.836
		C91.82,211.017,87.684,210.304,84.486,210.833z"/>
	<path d="M38.792,197.35c-3.263,2.218-5.447,5.546-5.759,8.504c-2.211,0.047-10.358,0.73-13.082,8.294
		c-0.658,1.829-0.985,3.641-0.985,5.374c0,2.347,0.6,4.551,1.789,6.466c1.673,2.694,4.328,4.434,7.283,4.771l0.161-1.408
		c-2.523-0.288-4.797-1.787-6.24-4.11c-1.835-2.955-2.074-6.724-0.674-10.612c2.783-7.731,11.911-7.384,12.298-7.365l0.743,0.035
		l0-0.743c0-2.624,2.164-5.927,5.262-8.033c1.9-1.292,5.74-3.201,10.102-1.475c7.331,2.9,6.754,7.703,6.727,7.906l-0.14,1.01
		l0.995-0.217c3.267-0.726,13.005-1.305,14.83,5.329c1.732,6.303-0.27,10.631-0.29,10.674l1.278,0.613
		c0.093-0.193,2.26-4.819,0.377-11.662c-1.795-6.526-10.185-7.427-15.634-6.479c-0.096-1.818-1.069-5.9-7.621-8.493
		C46.583,194.293,42.421,194.884,38.792,197.35z"/>
	<path d="M38.602,224.347c-7.493,0.174-10.165,5.001-10.275,5.206l1.248,0.672c0.096-0.176,2.428-4.307,9.061-4.462
		c6.363-0.148,6.762,4.316,6.776,4.507l1.415-0.092C46.822,230.117,46.36,224.165,38.602,224.347z"/>
	<path d="M46.488,229.731l1.26,0.648c0.122-0.236,3.067-5.77,9.687-5.617c3.632,0.085,5.633,1.473,6.671,2.622
		c1.06,1.173,1.332,2.328,1.314,2.55l1.393,0.26c0.133-0.664-0.294-2.081-1.348-3.397c-1.214-1.518-3.587-3.348-7.998-3.45
		C49.943,223.171,46.626,229.463,46.488,229.731z"/>
	<path d="M33.603,221.53c-0.106,0.377,0.115,0.769,0.492,0.874l4.166,1.166c0.377,0.105,0.768-0.115,0.874-0.491
		c0.105-0.377-0.115-0.769-0.492-0.874l-4.167-1.166C34.099,220.934,33.708,221.154,33.603,221.53z"/>
	<path d="M35.325,218.723c-0.183,0.347-0.051,0.775,0.295,0.958l2.833,1.5c0.346,0.184,0.775,0.052,0.958-0.294
		c0.183-0.347,0.051-0.775-0.295-0.958l-2.833-1.5C35.938,218.245,35.508,218.377,35.325,218.723z"/>
	<path d="M38.165,215.344c-0.301,0.25-0.341,0.697-0.091,0.998l2.5,3c0.25,0.3,0.697,0.341,0.998,0.09
		c0.301-0.25,0.341-0.697,0.091-0.998l-2.5-3C38.913,215.134,38.466,215.093,38.165,215.344z"/>
	<path d="M41.061,213.55c-0.371,0.123-0.572,0.524-0.448,0.896l1.167,3.5c0.124,0.372,0.525,0.572,0.896,0.448
		c0.371-0.123,0.572-0.524,0.448-0.895l-1.167-3.5C41.833,213.626,41.433,213.426,41.061,213.55z"/>
	<path d="M44.18,213.186c-0.387,0.059-0.654,0.419-0.596,0.807l0.5,3.334c0.058,0.387,0.419,0.653,0.806,0.596
		c0.387-0.059,0.654-0.419,0.596-0.807l-0.5-3.334C44.928,213.395,44.567,213.129,44.18,213.186z"/>
	<path d="M48.083,213.18c-0.391,0.02-0.692,0.353-0.672,0.743l0.166,3.334c0.02,0.392,0.353,0.692,0.743,0.673
		c0.391-0.02,0.692-0.353,0.673-0.743l-0.167-3.334C48.807,213.462,48.474,213.16,48.083,213.18z"/>
	<path d="M50.077,214.055v3c0,0.392,0.317,0.709,0.708,0.709s0.708-0.317,0.708-0.709v-3c0-0.392-0.317-0.709-0.708-0.709
		S50.077,213.663,50.077,214.055z"/>
	<path d="M54.069,215.107l-2.167,2.667c-0.247,0.304-0.201,0.751,0.103,0.997c0.304,0.247,0.75,0.201,0.997-0.103l2.167-2.667
		c0.247-0.304,0.201-0.751-0.103-0.997C54.762,214.758,54.315,214.804,54.069,215.107z"/>
	<path d="M56.9,217.627l-2.833,1.833c-0.329,0.212-0.423,0.651-0.21,0.98c0.213,0.329,0.651,0.423,0.98,0.21l2.833-1.833
		c0.329-0.212,0.423-0.651,0.21-0.98C57.667,217.508,57.229,217.414,56.9,217.627z"/>
	<path d="M59.241,221.015l-2.667,0.166c-0.391,0.025-0.687,0.36-0.664,0.751c0.024,0.391,0.361,0.688,0.751,0.663l2.667-0.166
		c0.391-0.024,0.688-0.36,0.663-0.751C59.968,221.287,59.632,220.99,59.241,221.015z"/>
	<path d="M19.434,192.526c-2.383,2.03-3.575,4.84-3.355,7.912c0.523,7.318,6.31,10.294,6.557,10.417
		c0.35,0.175,0.773,0.034,0.949-0.315c0.176-0.35,0.035-0.776-0.314-0.951c-0.217-0.11-5.314-2.759-5.778-9.252
		c-0.187-2.61,0.829-5.002,2.86-6.731c2.379-2.026,5.821-2.888,8.771-2.194c5.326,1.253,7.267,5.563,7.122,7.593
		c-0.028,0.391,0.266,0.73,0.657,0.758c0.39,0.027,0.729-0.267,0.757-0.656c0.175-2.449-2.055-7.625-8.211-9.073
		C26.075,189.238,22.144,190.218,19.434,192.526z"/>
	<path d="M17.505,205.2c-0.195,0.338-0.08,0.768,0.258,0.966c0.337,0.196,0.77,0.082,0.968-0.255
		c0.042-0.071,4.353-7.126,18.196-6.648c0.391,0.014,0.719-0.292,0.732-0.684c0.014-0.392-0.292-0.719-0.684-0.732
		C22.221,197.338,17.69,204.879,17.505,205.2z"/>
	<path d="M22.784,190.887c-0.277,0.276-0.277,0.726,0,1.002c3.271,3.271,3.792,7.861,3.796,7.907c0.041,0.389,0.39,0.671,0.778,0.63
		c0.389-0.04,0.671-0.388,0.631-0.777c-0.022-0.207-0.568-5.126-4.204-8.762C23.509,190.609,23.06,190.61,22.784,190.887z"/>
	<path d="M7.587,213.086c-0.258,0.293-0.231,0.738,0.062,0.998c0.291,0.259,0.739,0.232,0.999-0.059
		c0.093-0.105,2.326-2.547,6.052-2.1c3.621,0.434,4.531,3.52,4.568,3.651c0.106,0.375,0.496,0.597,0.872,0.492
		c0.376-0.104,0.597-0.491,0.495-0.868c-0.046-0.168-1.178-4.133-5.766-4.684C10.385,209.979,7.699,212.959,7.587,213.086z"/>
	<path d="M19.424,222.912c-0.038,0.183-1.003,4.468-6.842,4.768c-0.391,0.021-0.691,0.354-0.671,0.744
		c0.02,0.391,0.353,0.691,0.744,0.672c6.97-0.358,8.147-5.847,8.159-5.902c0.077-0.382-0.171-0.753-0.553-0.831
		C19.878,222.284,19.504,222.531,19.424,222.912z"/>
	<path d="M19.452,193.388c0,0-4.666-4-11.666-4.833l0.166,3.833c0,0,5.5,1.001,9,4.334L19.452,193.388z"/>
	<path d="M21.452,191.555c0,0-4.333-7.334-5-8.667c0,0,2.833-2.999,0.833-7.166c-2-4.167-5.833-5.5-5.833-5.5s-2.5-9.5-3.333-15.667
		c-0.833-6.167-0.167-38.334-0.167-38.334s2.167,1.666,2.5,4.166s0,23.834,0.333,25.334s2.667,1.666,2.667,1.666l1,4.667l-2.667-0.5
		c0,0,4.5,20.5,15.333,38.5C27.119,190.055,23.118,190.222,21.452,191.555z"/>
	<path d="M97.941,174.896c-4.302,4.48-1.646,9.764-1.619,9.816l1.26-0.649c-0.092-0.18-2.205-4.449,1.381-8.185
		c1.897-1.977,4.765-2.859,7.483-2.305c2.175,0.443,3.818,1.743,4.51,3.564c0.979,2.58,0.16,6.188-1.902,8.391
		c-1.31,1.398-3.656,2.825-7.395,1.681l-0.414,1.356c3.461,1.06,6.602,0.326,8.843-2.067c2.408-2.571,3.351-6.811,2.192-9.861
		c-0.867-2.286-2.89-3.908-5.551-4.451C103.539,171.535,100.172,172.573,97.941,174.896z"/>
	<path d="M119.383,170.85c-7.33,0.715-7.965,6.58-7.971,6.639l1.411,0.136c0.02-0.194,0.561-4.765,6.698-5.364
		c2.072-0.202,3.71,0.259,4.868,1.369c1.662,1.594,2.134,4.344,2.021,6.387c-0.132,2.389-2.101,6.001-6.981,6.164
		c-4.499,0.15-6.474-4.549-6.615-5.264l-1.391,0.277c0.206,1.03,2.562,6.586,8.053,6.402c5.219-0.174,8.151-3.905,8.351-7.502
		c0.062-1.143,0.073-5.063-2.456-7.488C123.9,171.196,121.886,170.605,119.383,170.85z"/>
	<path d="M134.453,183.179c0.003,0,0.006,0,0.007,0H134.453C134.452,183.179,134.452,183.179,134.453,183.179z M125.41,191.19
		c-0.008,0.169-0.012,0.336-0.012,0.501c0,2.308,0.738,4.157,2.197,5.504c3.068,2.831,8.053,2.3,8.61,2.229
		c3.282-0.411,5.619-3.808,5.953-8.654c0.011-0.157,0.017-0.313,0.017-0.468c0-1.626-0.595-3.117-1.735-4.339
		c-1.894-2.028-4.678-2.784-5.987-2.785C134.184,183.18,125.762,183.268,125.41,191.19z M128.557,196.153
		c-1.242-1.146-1.824-2.795-1.73-4.9c0.294-6.634,7.32-6.659,7.62-6.656h0.006c1.118,0,3.466,0.741,4.952,2.334
		c0.988,1.059,1.439,2.317,1.341,3.742c-0.28,4.076-2.176,7.027-4.715,7.346C134.247,198.242,130.667,198.101,128.557,196.153z"/>
	<path d="M97.883,147.508c-2.402,2.625-2.856,5.38-2.939,6.723c-2.318-0.288-8.976-0.478-13.248,5.932
		c-5.166,7.748-2.017,14.423-1.881,14.703l1.274-0.619c-0.121-0.252-2.913-6.249,1.786-13.298c4.655-6.984,12.258-5.28,12.579-5.204
		l0.932,0.22l-0.06-0.957c-0.002-0.034-0.191-3.509,2.626-6.566c2.851-3.095,7.678-4.724,14.347-4.844l-0.025-1.418
		C106.181,142.307,101.003,144.1,97.883,147.508z"/>
	<path d="M123.601,149.075c0.008,0.027,0.726,2.762-0.76,5.287l-0.797,1.355l1.544-0.3c0.321-0.062,7.927-1.417,13.417,7.995
		c2.573,4.41,2.588,9.192,0.039,12.79c-2.258,3.188-6.011,4.717-9.793,3.989l-0.268,1.393c4.335,0.833,8.634-0.915,11.217-4.562
		c2.88-4.064,2.891-9.42,0.029-14.324c-4.652-7.974-10.938-8.807-13.609-8.767c0.452-1.159,0.583-2.279,0.583-3.184
		c0-1.172-0.218-1.981-0.236-2.048L123.601,149.075z"/>
	<path d="M98.136,169.938c-0.156,0.358,0.007,0.777,0.365,0.934l5.333,2.333c0.358,0.156,0.777-0.007,0.933-0.365
		c0.156-0.358-0.007-0.777-0.365-0.934l-5.333-2.333C98.711,169.416,98.292,169.579,98.136,169.938z"/>
	<path d="M99.604,167.693c-0.107,0.376,0.11,0.769,0.487,0.876l3.5,1c0.376,0.107,0.769-0.11,0.876-0.487
		c0.107-0.376-0.11-0.769-0.487-0.876l-3.5-1C100.104,167.099,99.711,167.316,99.604,167.693z"/>
	<path d="M101.679,164.331c-0.307,0.243-0.359,0.689-0.117,0.996l2.5,3.167c0.243,0.307,0.688,0.359,0.996,0.117
		c0.307-0.243,0.359-0.689,0.117-0.996l-2.5-3.167C102.432,164.142,101.986,164.089,101.679,164.331z"/>
	<path d="M104.961,162.363c-0.382,0.087-0.62,0.467-0.534,0.849l0.834,3.667c0.087,0.382,0.467,0.62,0.849,0.534
		c0.382-0.087,0.62-0.467,0.534-0.849l-0.834-3.667C105.723,162.516,105.343,162.277,104.961,162.363z"/>
	<path d="M108.076,161.555v5c0,0.392,0.317,0.709,0.709,0.709s0.709-0.317,0.709-0.709v-5c0-0.392-0.317-0.709-0.709-0.709
		S108.076,161.163,108.076,161.555z"/>
	<path d="M111.918,162.775l-0.666,4.168c-0.062,0.386,0.202,0.749,0.588,0.812c0.387,0.062,0.75-0.202,0.812-0.588l0.666-4.167
		c0.062-0.387-0.202-0.75-0.588-0.812C112.344,162.126,111.98,162.39,111.918,162.775z"/>
	<path d="M117.025,162.833l-3.166,4.833c-0.215,0.328-0.123,0.767,0.204,0.981c0.328,0.215,0.767,0.123,0.981-0.204l3.166-4.833
		c0.215-0.328,0.123-0.767-0.204-0.981C117.679,162.414,117.24,162.506,117.025,162.833z"/>
	<path d="M120.382,165.305l-4.333,3c-0.322,0.224-0.402,0.665-0.18,0.986c0.223,0.322,0.665,0.402,0.986,0.18l4.333-3
		c0.322-0.223,0.402-0.665,0.18-0.986C121.145,165.162,120.703,165.082,120.382,165.305z"/>
	<path d="M122.026,169.352l-3.833,0.5c-0.388,0.051-0.661,0.406-0.611,0.795c0.051,0.388,0.406,0.661,0.795,0.611l3.833-0.5
		c0.388-0.051,0.661-0.406,0.611-0.795C122.771,169.575,122.415,169.302,122.026,169.352z"/>
	<path d="M131.241,99.348c-0.391,0.024-0.688,0.36-0.663,0.751c0.024,0.391,0.36,0.688,0.751,0.663
		c4.037-0.252,7.406,1.766,9.242,5.536c2.069,4.248,1.655,9.485-0.982,12.454c-2.593,2.916-7.142,4.404-11.59,3.791
		c-3.455-0.476-6.095-2.103-7.243-4.464c-2.772-5.699,0.154-10.104,0.28-10.289c0.221-0.323,0.139-0.764-0.184-0.984
		c-0.322-0.221-0.762-0.141-0.983,0.181c-0.146,0.211-3.533,5.248-0.389,11.712c1.359,2.794,4.394,4.706,8.325,5.248
		c4.903,0.676,9.944-0.994,12.842-4.254c3.004-3.379,3.508-9.274,1.198-14.016C139.745,101.365,135.88,99.058,131.241,99.348z"/>
	<path d="M130.893,100.12c-0.099,0.127-2.446,3.196-3.964,9.605c-1.548,6.533,2.567,13.717,2.744,14.02
		c0.196,0.338,0.63,0.453,0.968,0.256c0.339-0.196,0.454-0.63,0.258-0.968c-0.041-0.069-4.006-7.004-2.591-12.98
		c1.439-6.079,3.683-9.034,3.705-9.063c0.238-0.31,0.182-0.754-0.127-0.994C131.577,99.756,131.133,99.811,130.893,100.12z"/>
	<path d="M126.968,112.087c-0.35,0.175-0.491,0.6-0.316,0.95c0.175,0.35,0.6,0.492,0.95,0.318c0.063-0.032,6.526-3.162,14.627-0.462
		c0.371,0.124,0.772-0.077,0.895-0.448c0.124-0.371-0.076-0.772-0.448-0.896C133.998,108.656,127.251,111.946,126.968,112.087z"/>
	<path d="M119.08,82.333c-1.819,1.819-2.56,4.332-1.983,6.721c1.282,5.314,6.305,5.375,6.355,5.375c0.391,0,0.706-0.315,0.707-0.706
		c0.002-0.391-0.314-0.709-0.704-0.711c-0.162-0.001-3.964-0.08-4.981-4.291c-0.467-1.934,0.119-3.897,1.608-5.386
		c1.598-1.598,3.911-2.272,6.037-1.759c1.766,0.426,3.048,1.3,3.811,2.599c0.789,1.341,0.978,3.156,0.506,4.856
		c-0.105,0.377,0.116,0.768,0.493,0.872c0.377,0.105,0.768-0.116,0.872-0.493c0.581-2.093,0.345-4.263-0.648-5.953
		c-0.952-1.619-2.578-2.746-4.701-3.258C123.849,79.571,121.024,80.389,119.08,82.333z"/>
	<path d="M105.195,85.915c-3.195,2.713-4.316,6.89-3.772,9.612c1.097,5.48,8.675,5.887,8.997,5.902
		c0.391,0.018,0.722-0.285,0.74-0.675c0.018-0.391-0.284-0.722-0.675-0.741c-0.068-0.003-6.794-0.372-7.672-4.764
		c-0.452-2.259,0.551-5.92,3.3-8.253c2.015-1.711,5.633-3.293,11.422-1.111c0.366,0.138,0.775-0.047,0.913-0.413
		c0.138-0.366-0.047-0.775-0.413-0.913C113.015,82.666,108.455,83.148,105.195,85.915z"/>
	<path d="M82.13,94.285l1.31,0.542c0.089-0.212,2.268-5.204,9.314-4.897c2.944,0.128,5.478,1.845,6.951,4.71
		c1.859,3.614,1.592,8.204-0.681,11.695l1.188,0.773c2.546-3.91,2.842-9.059,0.754-13.117c-1.714-3.331-4.684-5.327-8.149-5.478
		C84.745,88.162,82.155,94.224,82.13,94.285z"/>
	<path d="M98.941,108.046l1.021-0.983c-8.497-8.817-8.306-17.562-8.303-17.65l-1.416-0.051
		C90.229,89.742,90.003,98.77,98.941,108.046z"/>
	<rect x="90.41" y="97.27" transform="matrix(-0.3417 -0.9398 0.9398 -0.3417 29.0101 218.7623)" width="1.417" height="3.902"/>
	<path d="M114.222,53.183c-4.51,0.405-8.007,2.091-10.396,5.01c-3.048,3.724-3.476,8.442-3.476,10.8c0,0.295,0.011,0.497,0.02,0.712
		c-2.022,0.148-7.419,1.115-9.423,7.125c-0.485,1.454-0.687,2.799-0.687,4.032c0,6.079,4.907,9.41,4.968,9.45l0.783-1.182
		c-0.257-0.171-6.247-4.274-3.721-11.852c2.131-6.391,8.525-6.194,8.797-6.183l0.822,0.035l-0.087-0.819
		c-0.007-0.066-0.665-6.63,3.107-11.23c2.138-2.608,5.308-4.118,9.419-4.488c13.966-1.255,15.83,10.082,15.902,10.565l0.152,1.016
		l0.896-0.502c0.337-0.189,8.308-4.536,13.378,3.914l1.215-0.729c-4.784-7.973-12.02-5.827-14.447-4.81
		C130.663,61.12,127.178,52.018,114.222,53.183z"/>
	<path d="M108.224,81.682l-3.833,0.333c-0.39,0.034-0.679,0.378-0.645,0.768c0.034,0.39,0.378,0.678,0.768,0.645l3.833-0.333
		c0.39-0.034,0.679-0.377,0.645-0.768C108.957,81.937,108.613,81.648,108.224,81.682z"/>
	<path d="M103.934,79.702c-0.104,0.378,0.119,0.767,0.497,0.87l3.667,1c0.378,0.103,0.768-0.12,0.87-0.497
		c0.104-0.378-0.119-0.767-0.497-0.87l-3.667-1C104.427,79.102,104.037,79.324,103.934,79.702z"/>
	<path d="M105.511,76.856c-0.201,0.336-0.093,0.771,0.243,0.973l2.5,1.5c0.335,0.201,0.771,0.092,0.972-0.243
		c0.201-0.336,0.093-0.771-0.243-0.973l-2.5-1.5C106.147,76.412,105.712,76.521,105.511,76.856z"/>
	<path d="M108.271,73.771c-0.341,0.192-0.462,0.624-0.27,0.965l1.5,2.666c0.191,0.341,0.624,0.462,0.965,0.27
		c0.341-0.192,0.462-0.624,0.27-0.965l-1.5-2.666C109.044,73.7,108.611,73.579,108.271,73.771z"/>
	<path d="M111.646,72.026c-0.384,0.077-0.633,0.45-0.557,0.834l0.667,3.334c0.077,0.384,0.45,0.632,0.834,0.556
		c0.384-0.077,0.633-0.45,0.557-0.834l-0.667-3.333C112.403,72.198,112.03,71.95,111.646,72.026z"/>
	<path d="M114.307,71.028c-0.384,0.081-0.629,0.456-0.548,0.839l0.666,3.167c0.08,0.383,0.456,0.628,0.839,0.547
		c0.383-0.08,0.629-0.456,0.548-0.839l-0.666-3.167C115.065,71.192,114.689,70.947,114.307,71.028z"/>
	<path d="M117.257,70.749l-0.667,3.333c-0.076,0.384,0.173,0.757,0.557,0.834c0.384,0.077,0.757-0.172,0.834-0.556l0.667-3.333
		c0.076-0.384-0.173-0.757-0.557-0.834C117.707,70.117,117.334,70.365,117.257,70.749z"/>
	<path d="M120.873,71.146l-2,2.834c-0.226,0.32-0.149,0.762,0.171,0.988c0.319,0.225,0.762,0.149,0.987-0.17l2-2.833
		c0.226-0.32,0.149-0.762-0.171-0.988C121.541,70.75,121.099,70.826,120.873,71.146z"/>
	<path d="M122.827,72.847l-2.167,1.833c-0.299,0.253-0.336,0.7-0.083,0.998c0.253,0.299,0.7,0.336,0.999,0.084l2.167-1.833
		c0.299-0.253,0.336-0.7,0.083-0.999C123.573,72.632,123.126,72.594,122.827,72.847z"/>
	<path d="M125.669,75.522l-3,0.5c-0.387,0.064-0.647,0.43-0.583,0.816c0.064,0.386,0.43,0.647,0.815,0.583l3-0.5
		c0.387-0.065,0.647-0.43,0.583-0.816C126.42,75.719,126.055,75.458,125.669,75.522z"/>
	<path d="M127.391,77.349l-3.834,0.334c-0.39,0.034-0.679,0.377-0.645,0.768c0.034,0.39,0.378,0.678,0.768,0.645l3.834-0.334
		c0.39-0.034,0.679-0.377,0.645-0.768C128.124,77.604,127.78,77.315,127.391,77.349z"/>
	<path d="M84.968,65.254c-2.251,1.126-3.77,3.182-4.17,5.64c-0.399,2.465,0.385,4.893,2.153,6.661
		c3.597,3.598,8.03,2.234,8.217,2.174l-0.43-1.351c-0.154,0.048-3.813,1.148-6.785-1.825c-1.441-1.442-2.082-3.422-1.756-5.432
		c0.325-2.004,1.566-3.68,3.405-4.6c2.05-1.025,4.72-0.887,6.802,0.353c1.743,1.038,2.778,2.691,2.84,4.537l1.416-0.047
		c-0.077-2.338-1.364-4.418-3.531-5.708C90.642,64.177,87.439,64.019,84.968,65.254z"/>
	<path d="M88.674,55.003c-5.526,4.456-2.897,10.609-2.87,10.671l1.298-0.571c-0.093-0.212-2.205-5.234,2.461-8.997
		c2.712-2.187,6.072-1.777,8.312-0.666c2.452,1.218,3.934,3.361,3.869,5.593l1.416,0.042c0.083-2.792-1.701-5.438-4.655-6.904
		C95.872,52.864,91.906,52.396,88.674,55.003z"/>
	<path d="M60.127,65.091l0.647,1.261c0.217-0.11,5.349-2.653,8.606,1.788c3.327,4.536-0.483,10.466-0.521,10.526l1.184,0.778
		c0.181-0.275,4.393-6.807,0.479-12.142C66.544,61.877,60.191,65.058,60.127,65.091z"/>
	<path d="M75.673,43.264c-2.359,1.315-3.766,3.388-4.128,5.85c-1.609-0.139-5.702-0.101-8.179,3.543
		c-1.27,1.869-1.565,4.034-0.828,6.098c0.879,2.464,3.132,4.5,5.88,5.314c2.446,0.725,4.742-0.162,6.237-1.035
		c1.969-1.149,3.657-2.968,4.261-4.461c1.393-0.096,5.703-0.696,7.977-4.487c0.888-1.479,1.339-3.009,1.339-4.506
		c0-0.653-0.086-1.299-0.258-1.933c-0.555-2.037-1.98-3.77-4.017-4.88C81.757,41.566,78.35,41.771,75.673,43.264z M72.826,49.926
		c0.167-3.098,2.288-4.728,3.536-5.425c2.275-1.269,5.12-1.471,6.917-0.491c1.693,0.924,2.875,2.347,3.326,4.008
		c0.465,1.707,0.143,3.553-0.928,5.338c-2.258,3.762-7.178,3.823-7.227,3.823l-0.562,0.002l-0.128,0.547
		c-0.207,0.897-1.649,2.814-3.82,4.08c-1.254,0.731-3.16,1.48-5.121,0.9c-2.322-0.688-4.217-2.386-4.948-4.432
		c-0.411-1.15-0.628-2.921,0.666-4.824c2.531-3.722,7.252-2.905,7.452-2.868l0.792,0.145L72.826,49.926z"/>
	<path d="M46.536,8.968c0.869,0.326,2.243,1.993,2.42,3.864c0.17,1.806-0.794,3.403-2.789,4.617
		c-5.519,3.359-14.807,3.645-14.9,3.647l-0.142,1.399c0.059,0.014,5.883,1.42,5.455,5.485c-0.451,4.283-5.889,4.616-7.545,4.616
		c-1.958,0-20.773-0.989-20.963-0.999l-0.074,1.415c0.776,0.041,19.042,1.001,21.037,1.001c4.03,0,8.498-1.546,8.955-5.884
		c0.021-0.197,0.031-0.391,0.031-0.579c0-2.498-1.761-4.216-3.64-5.273c3.333-0.36,8.669-1.271,12.523-3.617
		c2.812-1.712,3.489-3.798,3.489-5.409c0-0.191-0.01-0.376-0.026-0.552c-0.223-2.361-1.903-4.522-3.333-5.058L46.536,8.968z"/>
	<path d="M56.683,17.928c2.979,4.811,10.448,4.234,12.759,3.929c0.486,2.284,3.187,8.894,18.273,10.403
		c18.26,1.826,23.072,0.605,27.09-1.05l-0.539-1.31c-3.84,1.581-8.477,2.744-26.41,0.95c-16.573-1.657-17.108-9.739-17.112-9.82
		l-0.035-0.813l-0.801,0.142c-0.09,0.017-9.065,1.598-12.02-3.176c-2.92-4.718-0.183-8.026-0.065-8.165L56.75,8.091
		C56.714,8.132,53.199,12.3,56.683,17.928z"/>
	<path d="M110.78,33.358c1.525,2.054,6.608,3.49,14.697,4.153c15.319,1.256,20.009-1.738,20.2-1.866l-0.78-1.183
		c-0.045,0.028-4.611,2.841-19.305,1.637c-13.434-1.102-13.854-3.936-13.854-3.964l-1.396-0.229
		C110.309,32.063,110.241,32.63,110.78,33.358z"/>
</g>
</svg>
