<?xml version="1.0" encoding="iso-8859-1"?>
<!-- Generator: Adobe Illustrator 19.1.0, SVG Export Plug-In . SVG Version: 6.00 Build 0)  -->
<svg version="1.1" id="&#xB808;&#xC774;&#xC5B4;_1" xmlns="http://www.w3.org/2000/svg" xmlns:xlink="http://www.w3.org/1999/xlink"
	 x="0px" y="0px" viewBox="0 0 153.071 238.109" style="enable-background:new 0 0 153.071 238.109;" xml:space="preserve">
<rect style="fill:#E60012;" width="153.071" height="238.109"/>
<g>
	<path style="fill:#FFFFFF;" d="M8.035,33.138v188.667c0,0,0.833,8.668,9.5,9.168l117.667-0.168c0,0,9.166,0,9.833-10l0.167-204.667
		c0,0-1.001-8-10.334-9H17.535c0,0-8.833,1.167-9.5,8.667V33.138z"/>
	<path style="fill:#E60012;" d="M29.41,46.805c0.375,0.5-2.875-4.5-2.125-10.875s7.875-11,14.25-10.625c0,0,3.625-6.125,9.875-8.25
		s18.25-2.25,22.5,7.625c0,0,6.876-2.375,12.376,2.375s3.375,17,3.25,17.5s-1.375,4-1.375,4l-2.25,2.125c0,0-4.375,5.25-10.376,8.25
		c0,0,2.166,20.875,4.834,32.542c0,0,2.542-5.908,10.542-6.042c7.5-0.125,9.875,4,9.875,4s4.375-10.5,13.875-11.25
		s18.875,7.375,14.125,20.25c0,0,10-1.625,14.125,6.375s-0.875,18.25-13,19.876c0,0,0.5,7.749-8,9.124s-12.875-2.75-12.875-2.75
		l-8.25,4.875l8.875,27.125l5.625,16.25c0,0,10.75,18.25,18.5,27.375l0.5,1.375c0,0,3,2.375,2.875,8.5s-5.375,10.125-11.375,9.625
		s-16.625-6-9.5-18.5l-6.375,0.125c0,0,1.25,3.25-1.125,6.5s-8,5.375-12.125,4.625s-8.5-4.875-7.375-10.25l-10.75,1.625
		L76.16,194.18c0,0-10.25-16.375-13.25-21.25c0,0,0.125,6.25-5.875,7s-9.625-2.75-9.625-2.75s-0.625,5.25-5.625,6.25
		s-11.5-1.375-12.25-7.75c0,0-11.625,0.375-14-9s4.875-13.75,4.875-13.75s-3.875-7.375,0.125-12.5s6-5.25,6-5.25
		s-0.875-14.125,15.5-16.5c0,0-3.75-14.625-4.125-18.5c0,0-4,4.375-8.25,5s-12.625-1.875-14.375-9.625s1.5-16.5,13.375-18.25
		L29.41,46.805z"/>
	<path style="fill:#FDD000;" d="M52.41,45.805c0,0-0.125-4,3-6.75s12.75-1.875,12.75,7.25c0,0-7,0.625-8.75,4.625
		C59.41,50.93,57.785,46.93,52.41,45.805z"/>
	<path style="fill:#FDD000;" d="M102.036,114.305c0,0,0.625-2.875,5.125-4.375s11.375,1.125,12.375,6.625c0,0-8.25-1.25-11.75,4.875
		C107.786,121.43,106.036,115.305,102.036,114.305z"/>
	<path style="fill:#FDD000;" d="M39.16,168.18c0,0,0-4.375,4.875-6.75s8.5,2.125,8.625,3.125c0,0-5.875,2-6,7.75l-0.875-0.25
		C45.785,172.055,43.16,168.555,39.16,168.18z"/>
	<path style="fill:#E60012;" d="M8.285,17.555c0,0,1.875-3,6.75-3.375s8.5,3.25,9.125,7.75s-0.875,11.375-7,12.75
		s-8.625-0.625-8.875-4.125S8.285,17.555,8.285,17.555z"/>
	<path style="fill:#E60012;" d="M87.869,57.638c0,0-2,6,0.5,10.833c2.5,4.833,11,8.5,18,5.5s10.167-11,7.167-20.333
		s-22.5-7.833-26.5,1.5L87.869,57.638z"/>
	<path style="fill:#E60012;" d="M46.41,190.18c0,0-5.875-1.375-8.25,3.875s0.875,9.125,5.5,9.875s7.5-1.875,7.625-6.125
		S49.16,191.18,46.41,190.18z"/>
	<path style="fill:#E60012;" d="M61.785,181.43c0,0-5.5,0.5-6.125,5s3.625,6.375,6.625,6.25c3-0.125,5.625-1.875,5.5-6
		S64.91,181.305,61.785,181.43z"/>
	<path style="fill:#E60012;" d="M40.535,213.68c0,0-6.25-0.25-9.25,4s-1.5,10.625,2.125,13l13.25,0.125l4.75-2.875l0.625-5.125
		C52.035,222.805,50.41,213.555,40.535,213.68z"/>
	<path d="M17.956,6.596c-5.861,0-10.63,4.769-10.63,10.63v203.659c0,5.861,4.769,10.629,10.63,10.629h117.158
		c5.861,0,10.63-4.768,10.63-10.629V17.226c0-5.861-4.769-10.63-10.63-10.63H17.956z M8.744,220.885V17.226
		c0-5.08,4.133-9.213,9.213-9.213h117.158c5.08,0,9.212,4.133,9.212,9.213v203.659c0,5.08-4.132,9.211-9.212,9.211H17.956
		C12.876,230.096,8.744,225.965,8.744,220.885z"/>
	<path d="M34.702,58.43h-0.701l-0.008,0.701c-0.992,87.919,51.312,149.198,51.84,149.807l0.22,0.252l49.753-1.383l-0.883-1.109
		C78.739,136.055,76.427,59.884,76.41,59.122l-0.015-0.693h-0.693H34.702z M75.021,59.847c0.344,7.527,5.018,79.362,57.938,146.622
		c-2.603,0.072-45.616,1.268-46.269,1.285c-3.583-4.279-51.293-62.912-51.293-146.153c0-0.583,0.005-1.169,0.01-1.754
		C36.745,59.847,73.729,59.847,75.021,59.847z"/>
	<path d="M70.91,113.18c-2.36-2.972-6.12-2.948-8.171-2.665c1.266-1.521,2.556-2.78,3.296-3.46c1.5-1.375,4-2.75,4.875-3.375
		s1.625-1.625,1.25-1.875s-4.25-1.5-6-1.625s-2.25,0.5-2.25,0.5c-3.25,2.375-9,4.75-10.25,4.875s-0.875-0.625-0.5-1.25
		s5-6.125,8.125-8.125c3.125-2,5.125-8.625,2.25-12c-1.801-2.114-4.092-2.659-5.553-2.771c1.18-1.294,2.219-2.104,2.219-2.104
		s4.667-2.166,6.167-2.333c1.5-0.167,1.666-2.333,1-2.333c-0.667,0-2.834-1.167-3.667-1.167c-0.833,0-0.75,0-1.417,0.333
		c-0.667,0.334-5.583,1.5-5.583,1.5l0.167-6.5c0,0-2.167-1.666-3.167-2.5c-1-0.833-1.833-1-2.5-0.666
		c-0.667,0.333,0.167,2,0.333,3.166c0.167,1.167,1.833,8.167,1.833,8.167c-1.417,1.042-3.583,1.958-4.833,2.083
		s-2.125,0-3.125-0.375s-1.125,0.25-0.625,0.875s2.375,1.875,4.875,1.875s6.125-1,6.125-1s-5.25,5.875-4.75,11
		s5.625,5.75,5.625,5.75s-3.75,4-5,5.75s-2.75,3.5-2,4.875s2.875,2.75,5,2.375s6.5-2.125,6.5-2.125s-5.375,5.25-5.5,10
		c-0.158,5.999,5.25,9.126,10.75,7.876S74.285,117.43,70.91,113.18z M54.91,86.43c0.271-0.936,0.723-1.833,1.248-2.66
		c1.264-0.305,3.685-0.281,4.752,2.535c1.375,3.625-0.375,5.875-2.5,6.125S53.785,90.305,54.91,86.43z M64.785,121.68
		c-3.875,0.75-6.5-2.5-5.25-6c0.394-1.103,1.036-2.229,1.777-3.3c1.932-0.364,5.747-0.425,6.848,1.675
		C69.535,116.68,68.66,120.93,64.785,121.68z"/>
	<path d="M113.911,197.68c-1,0.125-2.125,0.375-4.5-1.125s-8.375-8.5-12.875-14.5c-1.831-2.441-3.534-5.648-5.041-8.889
		c3.384-1.84,6.179-5.686,5.541-6.111c-0.75-0.5-7.875-3.25-8.5-1.25c-0.025,0.084-0.062,0.168-0.095,0.252
		c-0.81-2.002-1.498-3.758-2.03-5.002c-0.786-1.834-2.057-4.705-3.312-7.656c1.42-3.752,3.14-6.334,3.312-6.594
		c0.25-0.375,0.875,0.125,1.125-1s-2-2-4.5-1.625c-0.892,0.135-2.054,0.539-3.181,1.004c-0.268-0.801-0.472-1.494-0.569-2.004
		c-0.625-3.25-1.626-9-2.126-10.75c-0.453-1.588-5.228-3.992-7.882-3.768c2.204-4.574,2.882-8.732,2.882-8.732
		s-5.375,2.875-7.375,4.126c-2,1.25-1.75,1.75,0.125,2c1.875,0.25,1.875,0.875,1.5,2.374c-0.375,1.5-2.75,5.5-3.75,7.625
		s-3.5,6.875-4,8.5s2.375,2.375,3.25,2.375s1.5,0.375,1.25,1s-2.875,3.625-3,4.875s1.375,1.375,2.875,2.75
		c1.5,1.375,2.125,5.625,2.875,8.5s1.375,4.625,2.75,5.125s4.375-0.375,6-1.25c1.625-0.875,2.375-3.75,2.5-5.625s0.25-6,0.375-7.25
		s-0.75-2.5-1.25-2.25s-0.625,1.375-0.625,1.375c-1.75,5-3.75,9.25-4.25,9.75s-1.625,0.75-1.625,0.75s-1.625-5.75-2.875-8.25
		s-3.5-3.625-4-3.875s-0.75-0.875-0.125-1.625s4.25-3.75,5.625-4.625s3.625-3,3.875-3.875s-0.125-1.375-0.875-1.375
		s-4.25,0.25-4.875,0.375s-2.375,1.125-3.125,1.5c-0.75,0.375-2.125,0.125-1.5-1.25c0.603-1.324,3.181-5.557,6.053-10.564
		c0.678-0.025,1.675,0.057,2.072,0.689c0.468,0.75,4.094,8.867,6.671,14.836c-0.491,0.25-0.797,0.414-0.797,0.414
		c-0.246,0.619,0.575,0.961,1.469,1.15c0.574,1.34,1.064,2.506,1.407,3.35c0.363,0.896,0.943,2.271,1.658,3.939
		c-1.299,5.205-2.302,12.189-1.533,14.686c0.928,3.018,5.84,4.629,9.84,3.947c0.825,1.762,1.534,3.227,2.035,4.178
		c2.5,4.75,9.625,12.75,11.875,15.5s5.25,5.125,6.75,5.625s4.875,0.125,5.625-0.375S114.911,197.555,113.911,197.68z
		 M83.036,169.805c-2-0.5-2.625-4.125-1.5-10.75c0.041-0.24,0.092-0.477,0.139-0.713c1.396,3.209,3.053,6.961,4.611,10.412
		C85.243,169.559,84.031,170.055,83.036,169.805z"/>
	<path d="M45.817,47.047c-1.854,1.174-3.088,2.934-3.478,4.957c-0.895,4.649,1.749,7.355,1.861,7.468l1.004-1
		c-0.091-0.092-2.221-2.316-1.474-6.2c0.314-1.634,1.325-3.065,2.844-4.027c2.116-1.34,5.014-1.675,7.95-0.92
		c2.935,0.754,4.193,3.624,4.379,5.852c0.214,2.562-0.764,4.713-2.491,5.481l0.575,1.295c2.287-1.016,3.593-3.722,3.328-6.893
		c-0.296-3.544-2.431-6.333-5.439-7.107C51.564,45.1,48.262,45.499,45.817,47.047z"/>
	<path d="M65.8,45.933c-5.595,0.542-6.938,5.478-6.951,5.528l1.372,0.358c0.043-0.164,1.128-4.031,5.716-4.475
		c3.025-0.293,5.044,1.087,5.979,1.935c1.161,1.054,1.911,2.438,1.911,3.526c0,2.303-3.376,5.458-5.292,5.458v1.417
		c2.649,0,6.709-3.688,6.709-6.875c0-1.492-0.91-3.245-2.375-4.575C71.761,47.224,69.369,45.587,65.8,45.933z"/>
	<path d="M56.974,15.432c-11.712,1.013-14.736,7.219-15.437,9.356c-1.623-0.305-5.72-0.547-10.135,3.317
		c-5.623,4.92-6.469,12.103-2.322,19.706c4.139,7.587,12.464,11.631,12.816,11.8l0.612-1.278c-0.083-0.04-8.269-4.023-12.184-11.2
		c-3.801-6.969-3.068-13.515,2.012-17.961c4.931-4.315,9.289-2.924,9.472-2.862l0.771,0.258l0.154-0.801
		c0.061-0.319,1.622-7.821,14.364-8.922c13.99-1.21,15.891,7.946,15.901,8.039l0.109,0.982l0.897-0.419
		c0.243-0.114,6.019-2.725,11.909,2.234c2.952,2.486,4.342,8.141,3.378,13.751c-1.324,7.716-6.672,13.868-14.672,16.877l0.5,1.326
		c8.482-3.19,14.157-9.738,15.569-17.963c1.044-6.082-0.545-12.281-3.863-15.075c-5.393-4.541-10.682-3.384-12.616-2.732
		C73.298,20.893,69.094,14.385,56.974,15.432z"/>
	<path d="M45.497,44.56c-0.043,0.389,0.237,0.739,0.626,0.783l3,0.333c0.389,0.043,0.739-0.237,0.782-0.626
		c0.044-0.389-0.237-0.739-0.626-0.782l-3-0.333C45.891,43.891,45.541,44.171,45.497,44.56z"/>
	<path d="M45.719,41.855c-0.156,0.359,0.009,0.778,0.367,0.933l3.833,1.667c0.359,0.156,0.778-0.009,0.933-0.367
		c0.156-0.359-0.009-0.778-0.367-0.933l-3.833-1.667C46.292,41.332,45.873,41.497,45.719,41.855z"/>
	<path d="M47.479,38.199c-0.243,0.307-0.19,0.753,0.117,0.995l3.167,2.5c0.307,0.243,0.753,0.19,0.995-0.117
		c0.243-0.307,0.19-0.753-0.117-0.995l-3.167-2.5C48.167,37.839,47.721,37.892,47.479,38.199z"/>
	<path d="M49.902,35.605c-0.294,0.258-0.324,0.706-0.066,1l2.333,2.667c0.257,0.294,0.706,0.324,1,0.066
		c0.294-0.258,0.324-0.705,0.066-1l-2.333-2.667C50.644,35.377,50.196,35.347,49.902,35.605z"/>
	<path d="M53.665,33.126c-0.375,0.112-0.587,0.507-0.475,0.882l1,3.334c0.112,0.375,0.507,0.587,0.882,0.475
		c0.375-0.112,0.587-0.507,0.475-0.882l-1-3.333C54.435,33.226,54.04,33.014,53.665,33.126z"/>
	<path d="M57.16,32.805v3c0,0.392,0.317,0.708,0.708,0.708c0.391,0,0.708-0.317,0.708-0.708v-3c0-0.392-0.317-0.708-0.708-0.708
		C57.477,32.096,57.16,32.413,57.16,32.805z"/>
	<path d="M60.831,32.726l-0.333,3c-0.043,0.389,0.237,0.739,0.626,0.782c0.389,0.044,0.739-0.237,0.782-0.626l0.334-3
		c0.043-0.389-0.237-0.739-0.626-0.782C61.225,32.057,60.874,32.337,60.831,32.726z"/>
	<path d="M64.42,33.787l-1.333,2.333c-0.194,0.34-0.077,0.772,0.264,0.967c0.34,0.194,0.772,0.077,0.967-0.264l1.334-2.333
		c0.194-0.34,0.077-0.772-0.264-0.967C65.047,33.329,64.615,33.446,64.42,33.787z"/>
	<path d="M69.763,35.484l-4,1.666c-0.361,0.151-0.532,0.566-0.382,0.927c0.151,0.361,0.565,0.532,0.927,0.382l4-1.667
		c0.361-0.151,0.532-0.565,0.382-0.927C70.538,35.504,70.124,35.333,69.763,35.484z"/>
	<path d="M71.885,38.446l-3.833,0.833c-0.382,0.083-0.625,0.46-0.542,0.843c0.083,0.382,0.46,0.625,0.843,0.542l3.834-0.833
		c0.382-0.083,0.625-0.46,0.542-0.843C72.645,38.605,72.267,38.363,71.885,38.446z"/>
	<path d="M72.631,41.433l-3.333,0.333c-0.39,0.039-0.674,0.386-0.635,0.775c0.039,0.39,0.386,0.674,0.775,0.635l3.333-0.333
		c0.39-0.039,0.674-0.386,0.635-0.775C73.368,41.678,73.021,41.394,72.631,41.433z"/>
	<path d="M68.834,44.533c-0.058,0.387,0.209,0.748,0.596,0.806l3.333,0.5c0.387,0.058,0.748-0.209,0.806-0.596
		c0.058-0.387-0.208-0.748-0.596-0.806l-3.333-0.5C69.253,43.879,68.893,44.146,68.834,44.533z"/>
	<path d="M7.396,17.499l1.276,0.616c0.069-0.139,1.766-3.406,7.828-3.102c2.218,0.111,4.076,1.115,5.373,2.905
		c1.773,2.446,2.367,6.277,1.479,9.534c-1.392,5.103-6.556,7.6-10.542,6.986c-3.629-0.559-3.73-2.717-3.732-2.809L7.66,31.638
		c0,0.141,0.056,3.45,4.934,4.2c4.587,0.707,10.528-2.157,12.125-8.014c1.011-3.706,0.344-7.921-1.698-10.739
		c-1.559-2.149-3.789-3.356-6.45-3.489C9.514,13.244,7.479,17.325,7.396,17.499z"/>
	<path d="M7.633,27.221l0.803,1.168c0.288-0.197,7.13-4.742,13.943,1.762l0.979-1.025C15.697,21.812,7.713,27.167,7.633,27.221z"/>
	<path d="M12.166,25.879l1.405,0.187c0.034-0.242,0.903-5.964,8.218-8.766l-0.507-1.323C13.147,19.092,12.202,25.603,12.166,25.879z
		"/>
	<path d="M88.916,53.626l0.029-0.048c-0.143,0.214-3.477,5.305-2.442,11.51c0.508,3.045,2.453,5.934,5.338,7.925
		c3.396,2.344,7.598,3.167,11.833,2.32c3.709-0.742,6.931-3.061,9.07-6.53c2.543-4.122,3.281-9.425,1.975-14.186
		c-1.129-4.111-5.424-7.199-10.943-7.867C98.782,46.147,92.255,47.636,88.916,53.626z M92.646,71.846
		c-2.57-1.774-4.3-4.322-4.744-6.992c-0.94-5.638,2.192-10.443,2.224-10.491l0.029-0.047c2.997-5.377,8.913-6.707,13.451-6.159
		c4.945,0.598,8.771,3.281,9.746,6.834c1.205,4.389,0.526,9.274-1.813,13.067c-1.931,3.13-4.822,5.22-8.142,5.884
		C99.54,74.715,95.723,73.969,92.646,71.846z"/>
	<path d="M90.188,52.286l0.358,1.371c0.243-0.062,6.021-1.455,11.636,4.628c5.659,6.131,3.521,14.924,3.5,15.012l1.373,0.349
		c0.1-0.39,2.358-9.617-3.832-16.322C97.006,50.588,90.463,52.213,90.188,52.286z"/>
	<path d="M103.235,58.163l0.6,1.284c0.203-0.094,5.043-2.257,10.281,1.595l0.84-1.142C109.017,55.534,103.468,58.054,103.235,58.163
		z"/>
	<path d="M18.31,81.436c-3.022,3.211-4.572,7.366-4.146,11.116c0.858,7.551,5.456,12.396,12.616,13.29
		c4.399,0.55,7.444-1.274,8.869-2.41c1.539-1.228,2.647-2.791,2.757-3.89l-1.41-0.142c-0.052,0.516-0.778,1.764-2.231,2.923
		c-1.25,0.997-3.926,2.597-7.809,2.112c-6.456-0.807-10.606-5.197-11.384-12.044c-0.379-3.341,1.03-7.073,3.77-9.984
		c2.428-2.58,5.477-4.036,8.155-3.895c5.751,0.303,7.156,3.582,7.212,3.722l1.318-0.521c-0.068-0.174-1.743-4.262-8.456-4.616
		C24.483,76.935,21.021,78.556,18.31,81.436z"/>
	<path d="M14.67,89.697l0.729,1.215c0.035-0.021,3.622-2.073,11.485,1.859c5.915,2.958,8.99,8.799,9.021,8.858l1.259-0.65
		c-0.132-0.256-3.307-6.306-9.647-9.476C18.967,87.228,14.842,89.594,14.67,89.697z"/>
	<path d="M26.498,92.228l1.406-0.179c-0.01-0.076-0.932-7.702,2.098-13.761l-1.268-0.634C25.509,84.106,26.456,91.899,26.498,92.228
		z"/>
	<path d="M95.921,113.105c-8.68,1.417-8.596,7.493-8.594,7.554l1.416-0.039c-0.003-0.2-0.001-4.908,7.406-6.117
		c3.071-0.502,5.61,0.011,7.548,1.524c2.75,2.147,3.22,5.392,3.299,6.335c0.312,3.752-1.271,8.512-6.764,9.58
		c-5.461,1.061-8.495-3.043-8.622-3.219l-1.152,0.826c0.147,0.205,3.672,5.024,10.046,3.783c6.412-1.248,8.266-6.752,7.904-11.088
		c-0.242-2.905-1.677-5.647-3.839-7.335C102.308,113.145,99.399,112.538,95.921,113.105z"/>
	<path d="M114.961,115.933c-6.357,0.67-7.927,6.129-7.942,6.184l1.366,0.377c0.053-0.187,1.352-4.585,6.725-5.151
		c6.012-0.633,12.053,2.679,13.437,6.064c0.671,1.64,0.525,3.661-0.392,5.408c-1.167,2.225-3.453,3.811-6.438,4.465
		c-4.316,0.949-8.469-0.551-10.916-2.27c-1.679-1.182-2.734-2.564-2.895-3.796l-1.406,0.184c0.216,1.648,1.453,3.343,3.486,4.771
		c2.693,1.893,7.27,3.543,12.035,2.496c3.4-0.746,6.024-2.59,7.39-5.191c1.107-2.112,1.275-4.581,0.448-6.604
		C128.281,119.013,121.775,115.216,114.961,115.933z"/>
	<path d="M100.807,88.639c-1.53-1.564-5.255-4.496-11.198-3.703c-7.86,1.048-9.838,7.233-9.918,7.496l1.354,0.416
		c0.071-0.228,1.818-5.583,8.751-6.506c6.966-0.929,10.517,3.842,10.665,4.045l0.812,1.119l0.435-1.312
		c0.039-0.116,3.972-11.646,14.474-11.346c4.841,0.138,8.976,2.577,11.344,6.692c2.34,4.066,2.558,9.076,0.554,12.761l-0.814,1.499
		l1.64-0.482c0.047-0.014,4.779-1.347,10.079,2.082c3.336,2.159,5.103,7.321,4.107,12.008c-0.702,3.312-3.391,9.106-13.499,10.698
		l0.221,1.4c7.995-1.259,13.34-5.561,14.665-11.804c1.11-5.23-0.921-11.03-4.725-13.491c-4.217-2.729-8.033-2.729-9.95-2.49
		c0.642-1.585,1.054-3.284,1.054-5.067c0-2.654-0.706-5.395-2.103-7.822c-2.62-4.551-7.188-7.249-12.531-7.402
		C106.712,77.158,102.153,85.566,100.807,88.639z"/>
	<path d="M95.735,110.821c-0.175,0.35-0.033,0.776,0.317,0.951l3.334,1.667c0.35,0.175,0.776,0.034,0.95-0.317
		c0.175-0.35,0.033-0.776-0.317-0.951l-3.334-1.667C96.335,110.329,95.909,110.471,95.735,110.821z"/>
	<path d="M97.095,107.773c-0.201,0.336-0.093,0.771,0.243,0.973l3.333,2c0.335,0.201,0.771,0.092,0.972-0.243
		c0.201-0.336,0.093-0.771-0.243-0.972l-3.333-2C97.732,107.329,97.296,107.438,97.095,107.773z"/>
	<path d="M99.778,105.571c-0.313,0.235-0.377,0.679-0.143,0.992l2,2.666c0.235,0.313,0.68,0.377,0.992,0.142
		c0.313-0.235,0.377-0.679,0.143-0.992l-2-2.667C100.535,105.4,100.09,105.336,99.778,105.571z"/>
	<path d="M102.359,104.018c-0.343,0.19-0.466,0.622-0.275,0.964l1.666,3c0.189,0.342,0.621,0.465,0.963,0.275
		c0.343-0.19,0.466-0.622,0.275-0.964l-1.666-3C103.132,103.952,102.701,103.829,102.359,104.018z"/>
	<path d="M105.04,102.51c-0.347,0.181-0.481,0.609-0.3,0.956l2,3.833c0.181,0.347,0.608,0.481,0.956,0.301
		c0.347-0.181,0.482-0.609,0.3-0.956l-2-3.833C105.816,102.463,105.388,102.329,105.04,102.51z"/>
	<path d="M109.66,103.471v3c0,0.392,0.317,0.708,0.709,0.708c0.392,0,0.709-0.317,0.709-0.708v-3c0-0.391-0.317-0.708-0.709-0.708
		C109.977,102.763,109.66,103.08,109.66,103.471z"/>
	<path d="M113.335,102.861l-0.5,3.167c-0.061,0.386,0.203,0.749,0.59,0.81c0.387,0.061,0.749-0.203,0.811-0.59l0.5-3.167
		c0.061-0.386-0.203-0.749-0.59-0.81C113.759,102.21,113.397,102.474,113.335,102.861z"/>
	<path d="M117.349,104.656l-2.166,2.333c-0.267,0.287-0.249,0.735,0.037,1.002c0.287,0.266,0.735,0.249,1.002-0.038l2.166-2.333
		c0.267-0.287,0.249-0.735-0.037-1.001C118.064,104.353,117.616,104.369,117.349,104.656z"/>
	<path d="M120.914,106.324l-3,1.333c-0.357,0.159-0.519,0.578-0.359,0.936c0.159,0.357,0.578,0.519,0.936,0.359l3-1.333
		c0.357-0.159,0.519-0.578,0.359-0.935C121.691,106.326,121.272,106.164,120.914,106.324z"/>
	<path d="M124,110.097l-3.333,0.167c-0.392,0.02-0.692,0.352-0.673,0.743c0.02,0.391,0.353,0.692,0.743,0.672l3.333-0.166
		c0.391-0.02,0.692-0.353,0.673-0.743C124.724,110.378,124.391,110.077,124,110.097z"/>
	<path d="M121.703,113.43c-0.392,0-0.709,0.317-0.709,0.709c0,0.392,0.317,0.708,0.709,0.708h3.333c0.392,0,0.709-0.317,0.709-0.708
		c0-0.391-0.317-0.709-0.709-0.709H121.703z"/>
	<path d="M125.602,116.103l-3.5,0.5c-0.387,0.056-0.656,0.414-0.601,0.802c0.055,0.388,0.414,0.657,0.802,0.602l3.5-0.5
		c0.387-0.056,0.656-0.414,0.601-0.802C126.349,116.317,125.99,116.048,125.602,116.103z"/>
	<path d="M33.188,133.096c-5.354,0.101-10.703,3.15-13.31,7.586c-1.126,1.916-1.689,3.99-1.689,6.117
		c0,1.951,0.538,3.947,1.484,5.912c-1.396,1.016-5.361,4.459-5.361,10.939c0,0.225,0.005,0.453,0.015,0.686
		c0.146,3.428,1.567,6.391,4.111,8.566c3.019,2.582,7.274,3.775,11.677,3.273c0.389-0.043,0.668-0.395,0.624-0.783
		c-0.044-0.389-0.396-0.668-0.784-0.625c-3.954,0.449-7.915-0.65-10.596-2.943c-2.237-1.912-3.487-4.523-3.616-7.549
		c-0.31-7.295,4.935-10.56,5.158-10.697l0.573-0.346l-0.314-0.594c-2.618-4.918-1.477-8.828-0.06-11.24
		c2.366-4.025,7.234-6.793,12.114-6.885c8.202-0.154,10.565,5.48,10.662,5.721l0.587,1.461l0.705-1.406
		c0.216-0.432,1.674-1.109,2.9-1.471c0.375-0.111,0.59-0.506,0.479-0.881c-0.111-0.375-0.504-0.59-0.88-0.479
		c-0.537,0.158-1.98,0.633-2.952,1.336C43.639,136.957,40.47,132.959,33.188,133.096z"/>
	<path d="M37.553,167.779l0.127-0.016c-0.243,0.008-5.982,0.244-8.298,5.768c-0.878,2.094-0.57,4.393,0.868,6.475
		c1.945,2.818,5.65,4.783,8.809,4.674c5.472-0.188,8.843-2.998,9.017-7.514c0.1-2.602-1.262-5.414-3.554-7.342
		C42.392,168.031,39.851,167.287,37.553,167.779z M31.416,179.201c-0.816-1.182-1.604-3.031-0.728-5.121
		c1.958-4.67,6.83-4.893,7.036-4.9l0.062-0.002l0.063-0.012c1.867-0.4,3.967,0.234,5.76,1.742c1.965,1.652,3.134,4.029,3.05,6.203
		c-0.145,3.746-2.933,5.99-7.65,6.152C36.343,183.355,33.079,181.609,31.416,179.201z"/>
	<path d="M49.606,165.408c-4.465,3.394-3.638,8.004-3.601,8.197c0.074,0.383,0.443,0.635,0.827,0.562
		c0.383-0.072,0.636-0.443,0.565-0.826c-0.029-0.16-0.681-3.959,3.066-6.805c2.532-1.926,4.823-1.869,5.963-1.666
		c1.44,0.258,2.326,0.934,2.674,1.482c0.21,0.33,0.648,0.426,0.978,0.217c0.33-0.211,0.428-0.648,0.217-0.978
		c-0.66-1.037-2.013-1.828-3.62-2.115C55.308,163.23,52.569,163.156,49.606,165.408z"/>
	<path d="M62.494,171.432c-0.391,0.021-0.689,0.357-0.666,0.748c0.09,1.527-0.128,6.562-6.7,7.254
		c-5.638,0.592-6.869-2.869-6.919-3.016c-0.124-0.369-0.524-0.572-0.894-0.451c-0.37,0.121-0.573,0.516-0.455,0.887
		c0.015,0.047,1.587,4.707,8.416,3.99c6.214-0.654,8.19-4.947,7.967-8.748C63.22,171.705,62.884,171.408,62.494,171.432z"/>
	<path d="M33.186,165.449c-0.105,0.377,0.116,0.768,0.493,0.871l3,0.834c0.377,0.105,0.768-0.115,0.873-0.492
		c0.105-0.377-0.116-0.768-0.493-0.873l-3-0.834C33.681,164.85,33.291,165.07,33.186,165.449z"/>
	<path d="M34.498,163.055c-0.046,0.389,0.232,0.742,0.621,0.787l2.833,0.334c0.389,0.047,0.741-0.232,0.787-0.621
		c0.046-0.389-0.232-0.74-0.621-0.787l-2.833-0.334C34.896,162.389,34.543,162.666,34.498,163.055z"/>
	<path d="M35.582,160.461c-0.19,0.342-0.067,0.775,0.275,0.963l3,1.668c0.342,0.189,0.774,0.066,0.964-0.275
		c0.19-0.342,0.067-0.775-0.275-0.963l-3-1.668C36.204,159.996,35.771,160.119,35.582,160.461z"/>
	<path d="M38.783,157.234c-0.316,0.231-0.384,0.674-0.152,0.99l1.833,2.5c0.231,0.314,0.675,0.383,0.99,0.152
		c0.316-0.232,0.384-0.676,0.152-0.99l-1.833-2.5C39.542,157.07,39.098,157.002,38.783,157.234z"/>
	<path d="M40.871,155.012c-0.346,0.182-0.479,0.609-0.297,0.957l1.667,3.166c0.182,0.348,0.611,0.48,0.957,0.297
		c0.346-0.182,0.48-0.609,0.297-0.957l-1.667-3.166C41.646,154.961,41.218,154.828,40.871,155.012z"/>
	<path d="M44.264,153.938c-0.387,0.059-0.654,0.418-0.596,0.807l0.5,3.334c0.058,0.387,0.419,0.652,0.806,0.596
		c0.387-0.059,0.654-0.42,0.596-0.807l-0.5-3.334C45.011,154.146,44.65,153.879,44.264,153.938z"/>
	<path d="M46.827,155.139v2.666c0,0.393,0.317,0.709,0.708,0.709s0.708-0.316,0.708-0.709v-2.666c0-0.393-0.317-0.709-0.708-0.709
		S46.827,154.746,46.827,155.139z"/>
	<path d="M50.828,155.514l-1.833,2.166c-0.253,0.299-0.215,0.746,0.083,1c0.299,0.252,0.746,0.215,0.999-0.084l1.833-2.166
		c0.253-0.299,0.215-0.746-0.083-0.998C51.528,155.178,51.081,155.215,50.828,155.514z"/>
	<path d="M55.293,157.473l-3.667,1.334c-0.368,0.133-0.558,0.539-0.424,0.908c0.134,0.367,0.541,0.557,0.908,0.424l3.667-1.334
		c0.368-0.135,0.558-0.541,0.424-0.908C56.067,157.527,55.661,157.338,55.293,157.473z"/>
	<path d="M57.123,160.141l-3.167,1.166c-0.367,0.137-0.555,0.543-0.42,0.91c0.135,0.367,0.543,0.555,0.91,0.42l3.167-1.166
		c0.367-0.137,0.555-0.543,0.42-0.91C57.898,160.193,57.491,160.006,57.123,160.141z"/>
	<path d="M44.328,189.432c-0.163,0.006-6.06,0.299-7.318,6.055c-0.133,0.607-0.199,1.205-0.199,1.789
		c0,1.608,0.503,3.102,1.491,4.391c1.471,1.92,3.969,3.232,6.366,3.348c1.977,0.094,3.772-0.549,5.056-1.811
		c1.516-1.49,2.271-3.768,2.187-6.586c-0.067-2.211-0.869-4.057-2.32-5.342C47.964,189.834,45.729,189.311,44.328,189.432z
		 M44.735,203.598c-1.637-0.078-3.913-0.973-5.309-2.793c-1.084-1.414-1.441-3.148-1.033-5.016c1.031-4.713,5.795-4.936,5.998-4.943
		l0.042-0.002c0.923-0.084,2.808,0.244,4.217,1.492c1.167,1.033,1.788,2.488,1.843,4.324c0.073,2.414-0.536,4.326-1.763,5.531
		C47.731,203.174,46.312,203.672,44.735,203.598z M44.304,189.432c0.007,0,0.042-0.002,0.042-0.002L44.304,189.432z"/>
	<path d="M61.311,180.967l0.203-0.037c-2.132,0.064-6.204,1.371-6.354,5.852c-0.067,2.012,0.445,3.598,1.522,4.711
		c1.19,1.23,3.047,1.855,5.519,1.855c2.067,0,3.987-0.791,5.135-2.115c1.096-1.266,1.522-3.004,1.233-5.027
		c-0.367-2.57-1.703-3.887-2.759-4.539C64.222,180.684,62.365,180.615,61.311,180.967z M57.702,190.508
		c-0.8-0.828-1.179-2.065-1.125-3.68c0.142-4.264,4.784-4.475,4.981-4.482l0.103-0.002l0.099-0.033
		c0.603-0.201,2.034-0.227,3.307,0.561c1.161,0.719,1.868,1.908,2.101,3.535c0.233,1.627-0.07,2.939-0.901,3.896
		c-0.883,1.02-2.403,1.627-4.064,1.627C60.128,191.93,58.614,191.451,57.702,190.508z"/>
	<path d="M32.474,215.658c-1.934,1.654-3.141,3.875-3.311,6.092c-0.369,4.791,1.356,8.977,4.012,9.736
		c0.376,0.107,0.769-0.109,0.876-0.486c0.108-0.377-0.11-0.77-0.486-0.877c-1.956-0.559-3.296-4.266-2.988-8.264
		c0.142-1.846,1.17-3.713,2.82-5.125c2.072-1.771,4.825-2.621,7.751-2.391c3.078,0.244,5.989,1.727,7.985,4.066
		c1.42,1.666,2.161,3.551,2.031,5.172c-0.3,3.754-4.463,6.43-4.505,6.457c-0.331,0.209-0.429,0.646-0.221,0.977
		c0.209,0.332,0.646,0.43,0.977,0.223c0.196-0.123,4.805-3.074,5.163-7.543c0.159-1.994-0.703-4.254-2.366-6.205
		c-2.239-2.625-5.501-4.285-8.952-4.559C37.953,212.67,34.834,213.639,32.474,215.658z"/>
	<path d="M45.352,214.947c-3.014,10.787-13.718,13.645-13.826,13.672c-0.379,0.096-0.608,0.482-0.512,0.861
		c0.097,0.379,0.482,0.607,0.861,0.512c0.472-0.119,11.602-3.068,14.842-14.664c0.106-0.377-0.115-0.768-0.492-0.873
		C45.849,214.35,45.458,214.57,45.352,214.947z"/>
	<path d="M39.899,223.607c-0.293,0.26-0.32,0.707-0.061,1c0.161,0.182,3.98,4.471,7.584,6.016c0.36,0.154,0.776-0.014,0.931-0.371
		c0.154-0.361-0.013-0.777-0.372-0.932c-3.311-1.418-7.044-5.609-7.082-5.652C40.64,223.375,40.192,223.348,39.899,223.607z"/>
	<path d="M109.576,207.16c-0.356,0.162-0.514,0.582-0.353,0.938c0.9,1.98,0.049,4.711-2.168,6.955
		c-2.467,2.496-7.021,4.678-11.734,2.604c-2.676-1.178-4.387-2.727-5.084-4.607c-0.837-2.25,0.096-4.248,0.104-4.27
		c0.168-0.352,0.021-0.775-0.332-0.943c-0.352-0.17-0.772-0.025-0.944,0.326c-0.049,0.102-1.203,2.531-0.167,5.355
		c0.831,2.264,2.8,4.094,5.853,5.436c5.372,2.365,10.529-0.086,13.313-2.904c2.674-2.707,3.612-5.979,2.45-8.537
		C110.352,207.156,109.932,206.998,109.576,207.16z"/>
	<path d="M100.518,207.654c-3.505,3.754-4.315,8.115-4.661,9.977l-0.17,0.803c0.023-0.058,0.134-0.225,0.36-0.295
		c0.36-0.111,0.748,0.078,0.877,0.434c0.03,0.08,0.044,0.164,0.044,0.244c0,0.1-0.043,0.188-0.082,0.275
		c0.147-0.252,0.251-0.594,0.364-1.201c0.351-1.889,1.081-5.816,4.303-9.27c0.128-0.137,0.191-0.311,0.191-0.482
		c0-0.189-0.076-0.379-0.226-0.518C101.233,207.354,100.785,207.369,100.518,207.654z M96.538,219.467
		c0.173-0.072,0.279-0.215,0.349-0.375C96.796,219.246,96.71,219.395,96.538,219.467z"/>
	<path d="M133.219,206.787c-0.286,0.268-0.302,0.715-0.035,1.002c3.036,3.252,3.993,7.34,2.626,11.217
		c-1.186,3.363-3.95,5.822-7.042,6.266c-6.648,0.949-13.284-2.906-14.201-8.254c-0.92-5.365,2.16-8.406,2.292-8.533
		c0.281-0.271,0.291-0.719,0.021-1.002c-0.271-0.281-0.717-0.293-0.999-0.023c-0.154,0.146-3.762,3.662-2.71,9.799
		c1.059,6.176,8.293,10.488,15.799,9.416c3.608-0.516,6.818-3.34,8.178-7.197c1.549-4.391,0.482-9.004-2.926-12.654
		C133.954,206.535,133.505,206.52,133.219,206.787z"/>
	<path d="M131.388,206.783c-8.6,7.926-9.683,18.188-9.725,18.621c-0.038,0.389,0.247,0.734,0.637,0.773
		c0.389,0.037,0.735-0.248,0.773-0.637c0.01-0.102,1.087-10.168,9.275-17.715c0.287-0.266,0.306-0.713,0.041-1.002
		C132.124,206.537,131.676,206.52,131.388,206.783z"/>
	<path d="M114.192,210.646c-0.271,0.283-0.263,0.73,0.019,1.002c0.199,0.191,4.956,4.705,11.511,4.531
		c0.392-0.01,0.7-0.336,0.689-0.727c-0.01-0.391-0.336-0.699-0.727-0.689c-5.948,0.156-10.445-4.094-10.49-4.137
		C114.912,210.357,114.463,210.365,114.192,210.646z"/>
	<path d="M41.945,118.101c-16.106,2.056-16.121,17.061-16.119,17.211c0.004,0.393,0.325,0.705,0.716,0.701s0.705-0.324,0.701-0.715
		c-0.005-0.568,0.045-13.897,14.881-15.791c0.388-0.05,0.663-0.405,0.613-0.793C42.688,118.327,42.333,118.052,41.945,118.101z"/>
	<path d="M40.785,118.736c-3.38,4.901-5.204,14.532-5.28,14.94c-0.072,0.385,0.182,0.754,0.567,0.826
		c0.385,0.072,0.755-0.182,0.827-0.566c0.018-0.098,1.846-9.743,5.054-14.395c0.222-0.322,0.141-0.764-0.181-0.986
		C41.449,118.332,41.007,118.413,40.785,118.736z"/>
	<path d="M28.304,127.468c-0.37,0.127-0.566,0.53-0.439,0.901c0.127,0.369,0.53,0.566,0.9,0.439
		c0.046-0.016,4.609-1.542,8.287,0.297c0.35,0.176,0.775,0.033,0.951-0.316c0.175-0.35,0.033-0.775-0.317-0.951
		C33.468,125.729,28.513,127.396,28.304,127.468z"/>
	<path d="M78.536,82.471l-2.001-11.5c0,0,6.5-9.833,12.334-25.167s9.333-27.833,9.5-29s2.5-3.167,4.167-3.333
		c1.667-0.167,3.5,2,2.5,3.833s-7.666,21.833-11.333,32c0,0-7.668,5-6.834,15C86.869,64.305,81.702,75.804,78.536,82.471z"/>
	<path d="M35.869,81.638c0,0-4.667-5.667-10.667-3.667c0,0-4.5-8.166-5.667-9.333s-1.833-5.333-0.167-8.5s9-11.834,9.333-14.667
		c0,0,6,11.167,14.667,13.833l-8.667-0.167l-0.167,2.667C34.535,61.805,35.036,76.305,35.869,81.638z"/>
	<path d="M40.035,25.305l2,0.333c0,0,2-6.833,9.167-8.5c0,0,0-6.667,3.333-9.833h-6C48.535,7.305,44.202,17.971,40.035,25.305z"/>
	<path d="M91.536,130.473c0,0,2.666,2.666,7.833,2.5c5.167-0.168,7.667-5,7.667-5s3,5.166,9.5,6.166c0,0,1.166,3.834,6.333,7.334
		s11.168,4,14.834,6s4.499,3.666,3.666,8c-0.833,4.332-0.5,6.832,0,8.832s-1.666,5.168-3.833,7.168
		c-2.167,2-7.001,0.666-10.667,1.166c-3.666,0.5-11.499,2-11.166,8.166C115.703,180.805,95.869,146.473,91.536,130.473z"/>
	<path d="M52.035,222.473c0,0-0.167,6.332-5.833,8.332l30.333-0.166l13.168-16.5c0,0-1.166-3.666-0.5-5.666l-2.5,0.166
		l-11.668-15.334C75.035,193.305,67.202,209.639,52.035,222.473z"/>
	<path d="M30.202,220.305c0,0,1.333-3.666,3.333-4.666c0,0-8.667-5.834-12-14.334s-2.667-21.498-4.833-28.332s-5.667-10.5-8.5-12v6
		c0,0,3.5,3,4.667,12.5S15.202,211.139,30.202,220.305z"/>
</g>
</svg>
